M48
; DRILL file {KiCad 7.0.9} date Mon Jan 15 23:30:57 2024
; FORMAT={-:-/ absolute / inch / decimal}
; #@! TF.CreationDate,2024-01-15T23:30:57+02:00
; #@! TF.GenerationSoftware,Kicad,Pcbnew,7.0.9
; #@! TF.FileFunction,Plated,1,2,PTH
FMAT,2
INCH
; #@! TA.AperFunction,Plated,PTH,ComponentDrill
T1C0.0118
; #@! TA.AperFunction,Plated,PTH,ViaDrill
T2C0.0157
; #@! TA.AperFunction,Plated,PTH,ComponentDrill
T3C0.0197
; #@! TA.AperFunction,Plated,PTH,ComponentDrill
T4C0.0236
; #@! TA.AperFunction,Plated,PTH,ComponentDrill
T5C0.0866
%
G90
G05
T1
X4.0667Y-2.1456
X4.0667Y-2.2144
X4.0667Y-2.2833
X4.1356Y-2.1456
X4.1356Y-2.2144
X4.1356Y-2.2833
X4.2044Y-2.1456
X4.2044Y-2.2144
X4.2044Y-2.2833
T2
X2.695Y-3.38
X2.7Y-1.89
X2.73Y-2.95
X2.74Y-1.77
X2.74Y-2.21
X2.74Y-2.73
X2.8Y-2.045
X2.81Y-2.45
X2.82Y-3.145
X2.85Y-2.855
X2.86Y-2.73
X2.89Y-1.995
X2.92Y-2.11
X2.92Y-3.34
X2.96Y-1.82
X2.99Y-2.345
X2.99Y-2.435
X3.01Y-2.01
X3.065Y-2.72
X3.135Y-1.81
X3.165Y-2.175
X3.19Y-2.535
X3.265Y-1.97
X3.285Y-2.21
X3.29Y-2.655
X3.31Y-2.52
X3.32Y-1.765
X3.35Y-2.745
X3.365Y-2.325
X3.37Y-2.07
X3.39Y-2.235
X3.405Y-1.96
X3.46Y-2.095
X3.475Y-1.85
X3.485Y-3.395
X3.52Y-2.525
X3.525Y-2.845
X3.525Y-2.985
X3.535Y-2.67
X3.555Y-2.415
X3.555Y-3.16
X3.57Y-2.725
X3.58Y-1.85
X3.585Y-3.34
X3.63Y-2.645
X3.65Y-1.77
X3.7Y-3.35
X3.705Y-2.015
X3.715Y-2.645
X3.74Y-2.235
X3.74Y-2.175
X3.78Y-2.205
X3.78Y-2.27
X3.795Y-2.01
X3.805Y-2.485
X3.805Y-2.645
X3.875Y-1.82
X3.89Y-2.615
X3.895Y-2.345
X3.915Y-2.58
X3.925Y-2.495
X3.93Y-3.35
X3.97Y-2.645
X3.98Y-2.6
X3.985Y-2.475
X3.995Y-2.405
X4.015Y-2.68
X4.0332Y-2.0132
X4.04Y-3.35
X4.055Y-1.825
X4.095Y-3.255
X4.105Y-3.34
X4.1079Y-2.6112
X4.155Y-2.945
X4.165Y-3.08
X4.19Y-3.405
X4.2015Y-2.6142
X4.215Y-2.575
X4.245Y-3.215
X4.28Y-2.825
X4.285Y-3.405
X4.305Y-2.425
X4.325Y-2.27
X4.345Y-2.73
X4.36Y-2.105
X4.37Y-2.27
X4.38Y-3.405
X4.39Y-1.8
X4.4Y-2.16
X4.41Y-1.865
X4.49Y-2.29
X4.495Y-2.39
X4.515Y-1.975
X4.535Y-2.19
X4.57Y-2.37
X4.59Y-2.435
X4.59Y-2.585
X4.59Y-2.625
X4.59Y-2.665
X4.605Y-2.735
X4.655Y-1.77
X4.655Y-2.37
X4.675Y-2.75
X4.72Y-2.26
X4.73Y-2.49
X4.73Y-2.645
X4.78Y-3.3
X4.82Y-3.225
X4.865Y-1.755
X4.885Y-2.435
X4.915Y-2.945
X4.96Y-3.35
X4.99Y-2.625
X5.0Y-2.49
X5.0028Y-3.0317
X5.015Y-1.945
X5.025Y-3.1
T3
X2.6582Y-2.0165
X2.6582Y-2.0835
X2.6582Y-2.5365
X2.6582Y-2.6035
X2.6582Y-3.0565
X2.6582Y-3.1235
X3.16Y-3.05
X3.84Y-3.05
X4.52Y-3.05
X4.8676Y-3.07
X4.8676Y-3.1369
T5
X2.8Y-3.28
X3.75Y-1.89
X4.9Y-1.88
T4
G00X4.8012Y-2.39
M15
G01X4.8445Y-2.39
M16
G05
G00X4.8012Y-2.7306
M15
G01X4.8445Y-2.7306
M16
G05
G00X4.9713Y-2.39
M15
G01X5.0028Y-2.39
M16
G05
G00X4.9713Y-2.7306
M15
G01X5.0028Y-2.7306
M16
G05
T0
M30
