<svg id="svg" xmlns="http://www.w3.org/2000/svg" xmlns:xlink="http://www.w3.org/1999/xlink" width="400" height="268.81720430107526" viewBox="0, 0, 400,268.81720430107526"><g id="svgg"><path id="path0" d="M37.727 6.784 C 37.207 7.364,36.835 8.057,33.865 13.978 C 30.800 20.088,20.946 40.260,19.486 43.414 C 15.475 52.080,14.588 53.235,10.226 55.476 C 7.726 56.761,7.226 57.258,7.692 57.997 C 7.965 58.430,8.935 58.478,19.922 58.602 L 31.855 58.737 31.934 60.536 L 32.013 62.335 30.641 63.714 C 28.413 65.953,29.567 67.570,31.999 65.616 L 33.023 64.793 34.145 65.730 C 35.350 66.737,35.732 66.849,36.237 66.344 C 36.806 65.774,36.587 65.193,35.339 63.969 L 34.120 62.771 34.197 60.754 L 34.274 58.737 38.441 58.737 L 42.608 58.737 42.687 60.731 L 42.767 62.726 41.400 64.110 C 40.443 65.079,40.085 65.630,40.207 65.946 C 40.513 66.743,41.785 66.622,42.757 65.703 C 43.672 64.838,44.056 64.881,45.358 65.995 C 47.611 67.924,48.388 66.094,46.268 63.852 C 44.935 62.443,44.892 62.349,44.892 60.823 C 44.892 58.591,44.868 58.602,49.852 58.600 C 54.557 58.598,54.539 58.603,56.379 56.819 C 57.702 55.537,57.765 55.120,57.767 47.757 L 57.768 40.900 56.976 39.902 C 56.540 39.353,56.175 38.891,56.166 38.874 C 56.114 38.782,55.607 33.848,55.386 31.286 C 55.057 27.459,54.374 26.038,53.211 26.757 C 52.900 26.948,49.717 33.292,49.230 34.689 C 48.856 35.763,48.276 35.597,48.177 34.388 C 48.136 33.882,47.994 33.226,47.861 32.930 C 47.729 32.634,47.560 32.090,47.486 31.720 C 46.100 24.818,45.372 24.997,41.477 33.199 C 40.122 36.051,39.908 36.057,38.636 33.271 C 38.078 32.049,37.364 30.550,37.048 29.941 L 36.474 28.833 37.525 26.385 C 38.921 23.131,39.111 23.237,39.123 27.282 C 39.139 32.322,40.032 32.609,42.473 28.359 C 45.386 23.288,45.968 22.227,45.968 21.980 C 45.968 21.842,46.119 21.780,46.304 21.841 C 46.717 21.978,46.997 23.697,47.023 26.256 C 47.060 29.789,47.838 31.720,48.948 31.034 C 49.111 30.933,49.943 29.383,50.796 27.589 C 54.785 19.205,54.769 19.234,55.623 18.763 L 56.452 18.305 56.452 14.921 C 56.452 11.302,56.563 10.907,58.222 8.611 C 58.620 8.061,58.863 7.401,58.816 6.999 L 58.737 6.317 48.504 6.247 L 38.272 6.177 37.727 6.784 M55.645 8.369 C 55.645 8.536,55.373 9.111,55.040 9.646 C 54.539 10.452,54.412 11.125,54.301 13.575 L 54.167 16.532 47.084 16.667 L 40.002 16.801 39.423 17.532 C 39.105 17.934,38.436 19.204,37.937 20.355 C 37.093 22.303,36.648 23.288,35.052 26.747 C 34.236 28.514,29.538 39.017,29.387 39.410 C 28.955 40.537,29.553 40.591,42.307 40.591 C 51.616 40.591,54.573 40.670,54.917 40.927 C 55.316 41.225,55.370 42.026,55.389 47.948 C 55.413 55.371,55.427 55.309,53.430 56.349 C 52.565 56.798,13.172 56.900,13.172 56.452 C 13.172 56.318,13.703 55.843,14.353 55.396 C 16.049 54.229,17.529 52.441,18.532 50.345 C 19.013 49.342,20.047 47.191,20.832 45.565 C 21.616 43.938,23.187 40.672,24.323 38.306 C 27.888 30.878,38.228 10.127,38.890 9.073 L 39.523 8.065 47.584 8.065 C 53.405 8.065,55.645 8.149,55.645 8.369 M49.395 9.928 C 48.179 11.180,48.170 11.277,49.194 12.189 C 49.637 12.584,50.000 13.019,50.000 13.156 C 50.000 13.892,51.164 13.721,52.006 12.862 C 52.490 12.367,53.084 11.806,53.325 11.616 C 53.963 11.111,53.874 10.871,52.816 10.247 C 52.295 9.939,51.798 9.504,51.712 9.279 C 51.440 8.571,50.440 8.851,49.395 9.928 M45.261 19.029 C 45.333 19.146,44.993 19.841,44.505 20.575 C 44.017 21.308,43.163 22.755,42.606 23.790 C 42.049 24.825,41.489 25.787,41.361 25.927 C 41.230 26.072,41.129 24.651,41.129 22.647 L 41.129 19.111 42.944 19.017 C 43.942 18.965,44.842 18.899,44.944 18.870 C 45.046 18.841,45.189 18.913,45.261 19.029 M52.419 19.254 C 52.419 19.386,51.303 21.678,50.386 23.427 C 50.026 24.114,49.731 24.855,49.731 25.074 C 49.731 26.768,48.971 25.878,48.813 23.998 C 48.717 22.849,48.568 21.280,48.483 20.511 L 48.329 19.113 50.038 19.032 C 51.688 18.954,52.419 19.022,52.419 19.254 M130.444 20.608 C 130.197 20.708,130.108 21.771,130.108 24.623 L 130.108 28.502 129.016 27.780 C 123.514 24.139,118.032 31.002,120.311 38.677 C 121.455 42.529,125.871 44.047,129.170 41.721 C 130.646 40.681,130.589 40.686,130.695 41.599 C 130.777 42.314,130.833 42.339,132.392 42.339 L 134.005 42.339 134.076 31.604 C 134.131 23.194,134.073 20.822,133.807 20.654 C 133.440 20.420,130.991 20.387,130.444 20.608 M156.310 20.754 C 156.237 20.946,156.208 25.881,156.247 31.721 L 156.317 42.339 158.199 42.339 L 160.081 42.339 160.081 31.452 L 160.081 20.565 158.262 20.485 C 156.960 20.428,156.406 20.504,156.310 20.754 M332.581 20.753 C 332.202 21.131,332.114 41.561,332.488 42.150 C 332.643 42.396,333.263 42.476,334.567 42.419 L 336.425 42.339 336.498 37.374 C 336.580 31.829,336.753 31.335,338.850 30.643 C 341.267 29.845,341.756 30.890,341.930 37.231 L 342.070 42.339 343.952 42.339 L 345.833 42.339 345.906 36.984 C 345.992 30.691,345.737 29.324,344.227 27.999 C 342.614 26.583,339.606 26.486,337.641 27.786 L 336.559 28.502 336.559 24.629 C 336.559 21.346,336.494 20.732,336.134 20.593 C 335.388 20.307,332.915 20.418,332.581 20.753 M379.167 21.688 C 375.946 22.410,375.000 23.160,375.000 24.995 C 375.000 26.670,375.218 26.784,376.849 25.957 C 379.545 24.591,381.711 24.806,382.423 26.510 C 383.340 28.706,381.537 30.376,378.249 30.376 C 376.522 30.376,376.341 30.539,376.348 32.078 C 376.355 33.382,376.582 33.521,378.910 33.653 C 382.248 33.842,383.636 34.998,383.215 37.240 C 382.834 39.269,379.009 39.954,376.182 38.500 C 374.565 37.668,373.670 39.609,374.876 41.331 C 375.779 42.620,380.882 43.204,383.755 42.346 C 388.655 40.884,389.915 34.847,385.834 32.379 L 384.478 31.559 385.404 30.952 C 387.039 29.881,387.859 26.880,387.080 24.816 C 386.160 22.375,382.521 20.937,379.167 21.688 M74.255 22.087 C 73.371 22.539,73.364 22.628,73.447 32.930 L 73.522 42.339 75.403 42.339 L 77.285 42.339 77.419 34.274 C 77.524 27.974,77.620 26.357,77.858 26.882 C 78.025 27.252,79.295 30.852,80.680 34.882 C 83.433 42.891,83.204 42.532,85.550 42.514 C 87.389 42.500,87.206 42.825,90.357 33.926 L 93.145 26.051 93.280 34.195 L 93.414 42.339 95.296 42.339 L 97.177 42.339 97.248 32.495 C 97.331 20.949,97.619 21.909,94.065 21.909 C 90.801 21.909,90.910 21.771,88.010 29.577 C 86.695 33.118,85.555 36.017,85.478 36.019 C 85.401 36.020,84.265 33.049,82.953 29.417 C 81.120 24.336,80.424 22.717,79.937 22.398 C 79.127 21.867,75.114 21.647,74.255 22.087 M183.662 22.193 L 183.065 22.611 183.065 32.088 C 183.065 39.521,183.141 41.669,183.420 42.050 C 183.982 42.819,192.482 42.550,194.683 41.694 C 201.919 38.881,202.243 25.921,195.153 22.872 C 192.667 21.802,184.877 21.342,183.662 22.193 M205.171 22.053 L 204.563 22.297 204.634 32.318 L 204.704 42.339 206.720 42.339 L 208.737 42.339 208.811 38.205 L 208.885 34.071 210.105 34.209 C 211.833 34.404,212.394 35.071,213.849 38.663 C 214.548 40.389,215.271 41.963,215.456 42.161 C 215.854 42.587,219.297 42.639,219.711 42.225 C 220.225 41.711,217.103 34.763,215.819 33.564 C 215.078 32.872,215.067 32.828,215.586 32.663 C 219.509 31.418,219.787 24.686,215.993 22.849 C 214.034 21.900,206.863 21.373,205.171 22.053 M224.462 22.103 L 223.790 22.462 223.790 32.400 L 223.790 42.339 225.672 42.339 L 227.554 42.339 227.688 34.212 L 227.823 26.086 230.477 33.809 C 233.809 43.508,233.221 42.513,235.566 42.417 L 237.499 42.339 239.712 36.156 C 240.929 32.755,242.260 29.066,242.669 27.957 L 243.414 25.941 243.548 34.140 L 243.683 42.339 245.565 42.339 L 247.446 42.339 247.517 32.650 C 247.598 21.423,247.738 22.058,245.145 21.852 C 241.351 21.550,241.055 21.821,238.915 27.554 C 235.952 35.493,235.690 36.111,235.460 35.700 C 235.339 35.484,234.260 32.595,233.062 29.280 C 231.750 25.650,230.643 23.008,230.279 22.638 C 229.513 21.862,225.588 21.500,224.462 22.103 M259.679 22.176 C 259.363 22.556,263.787 40.574,264.543 41.986 C 264.944 42.736,269.662 42.744,270.124 41.995 C 270.226 41.831,270.967 38.907,271.771 35.498 C 272.574 32.090,273.300 29.301,273.383 29.301 C 273.465 29.301,274.236 32.130,275.095 35.587 C 276.924 42.946,276.614 42.473,279.617 42.473 C 282.744 42.473,282.017 44.234,287.218 24.083 C 287.734 22.081,287.524 21.774,285.637 21.774 C 283.514 21.774,283.563 21.673,281.711 29.839 C 280.789 33.905,279.960 37.315,279.869 37.418 C 279.779 37.521,278.862 34.155,277.833 29.938 C 275.762 21.452,275.930 21.774,273.591 21.774 C 271.328 21.774,271.412 21.608,269.367 30.115 C 268.356 34.325,267.459 37.587,267.374 37.366 C 267.290 37.144,266.478 33.696,265.570 29.704 C 264.662 25.712,263.797 22.295,263.647 22.110 C 263.244 21.613,260.103 21.665,259.679 22.176 M307.325 23.565 C 307.105 23.654,306.989 24.297,306.989 25.426 L 306.989 27.151 306.042 27.151 C 304.095 27.151,304.038 30.433,305.981 30.594 L 306.989 30.678 306.989 35.040 C 306.989 41.346,307.845 42.746,311.694 42.738 C 314.161 42.732,314.651 42.376,314.651 40.583 L 314.651 39.113 313.289 39.200 C 311.275 39.330,311.174 39.116,311.064 34.502 L 310.971 30.645 312.576 30.645 C 314.529 30.645,314.846 30.343,314.733 28.583 L 314.651 27.285 312.836 27.205 L 311.022 27.126 311.022 25.420 C 311.022 24.112,310.922 23.675,310.596 23.550 C 310.097 23.359,307.811 23.369,307.325 23.565 M191.416 25.567 C 194.444 26.216,195.854 28.614,195.644 32.758 C 195.423 37.118,193.883 38.733,189.759 38.930 L 187.366 39.044 187.366 32.157 L 187.366 25.269 188.696 25.269 C 189.428 25.269,190.652 25.403,191.416 25.567 M212.909 25.675 C 215.925 27.235,214.039 30.914,210.224 30.914 L 208.871 30.914 208.871 28.091 L 208.871 25.269 210.497 25.269 C 211.422 25.269,212.462 25.444,212.909 25.675 M106.719 27.118 C 100.067 29.290,99.690 40.561,106.205 42.488 C 113.546 44.659,119.258 37.822,116.097 30.649 C 114.774 27.647,110.280 25.955,106.719 27.118 M142.674 27.265 C 139.805 28.289,138.379 30.589,138.219 34.450 C 137.968 40.529,140.344 42.932,146.360 42.682 C 150.545 42.508,151.344 42.135,151.344 40.352 C 151.344 38.682,151.140 38.555,149.389 39.140 C 147.562 39.749,145.016 39.768,143.917 39.180 C 143.043 38.712,142.823 38.364,142.470 36.895 L 142.261 36.022 146.796 36.022 L 151.332 36.022 151.778 35.340 C 152.758 33.844,151.710 29.881,149.918 28.308 C 148.322 26.906,145.014 26.430,142.674 27.265 M292.036 27.434 C 290.055 28.062,289.717 28.421,289.737 29.875 C 289.759 31.504,290.019 31.610,292.023 30.808 C 295.503 29.416,297.849 30.069,297.849 32.429 L 297.849 33.333 296.035 33.337 C 290.404 33.346,287.384 36.686,289.477 40.589 C 290.797 43.049,296.647 43.562,298.021 41.337 C 298.164 41.107,298.280 41.212,298.388 41.669 C 298.534 42.290,298.662 42.339,300.147 42.339 L 301.747 42.339 301.820 36.743 C 301.903 30.385,301.745 29.440,300.407 28.265 C 298.722 26.786,295.188 26.435,292.036 27.434 M321.505 27.235 C 316.954 28.677,315.515 37.625,319.263 41.182 C 322.328 44.091,328.763 43.020,328.763 39.600 C 328.763 37.807,328.408 37.616,326.809 38.553 C 323.111 40.720,320.562 37.891,321.591 32.761 C 322.069 30.373,324.367 29.639,326.835 31.085 C 328.274 31.929,328.763 31.597,328.763 29.775 C 328.763 27.438,325.009 26.124,321.505 27.235 M357.437 27.330 C 357.339 27.428,357.258 27.761,357.258 28.069 C 357.258 28.844,361.548 41.720,361.949 42.149 C 362.283 42.507,366.135 42.660,366.949 42.348 C 367.433 42.162,372.161 28.115,371.936 27.529 C 371.746 27.033,368.466 26.997,368.082 27.487 C 367.937 27.671,367.179 29.940,366.399 32.527 C 365.618 35.114,364.897 37.388,364.797 37.580 C 364.697 37.771,363.912 35.654,363.053 32.875 C 362.194 30.096,361.370 27.671,361.223 27.487 C 360.943 27.134,357.764 27.003,357.437 27.330 M166.129 27.957 C 165.565 28.521,165.361 30.941,165.816 31.658 C 166.432 32.629,169.080 32.606,169.768 31.625 C 171.457 29.213,168.178 25.908,166.129 27.957 M146.574 30.127 C 147.333 30.472,147.717 31.041,147.971 32.200 L 148.161 33.065 145.317 33.065 C 142.544 33.065,142.473 33.049,142.483 32.460 C 142.513 30.527,144.707 29.276,146.574 30.127 M110.761 30.515 C 114.070 32.226,112.757 39.516,109.140 39.516 C 106.866 39.516,105.782 37.742,105.956 34.304 C 106.130 30.850,108.221 29.201,110.761 30.515 M128.368 30.919 C 130.936 32.506,130.842 37.491,128.218 38.848 C 125.707 40.147,124.082 38.498,124.105 34.673 C 124.125 31.164,126.038 29.479,128.368 30.919 M45.430 31.764 C 45.430 32.664,46.035 34.967,46.698 36.594 C 47.433 38.399,47.249 38.557,44.218 38.718 C 42.741 38.796,41.445 38.821,41.337 38.773 C 41.103 38.669,44.939 30.926,45.228 30.919 C 45.339 30.916,45.430 31.296,45.430 31.764 M35.753 31.875 C 35.753 32.107,36.419 33.690,37.234 35.391 C 39.023 39.127,39.095 38.978,35.484 38.978 C 31.670 38.978,31.701 39.117,34.302 33.751 C 34.656 33.020,34.946 32.203,34.946 31.936 C 34.946 31.670,35.128 31.452,35.349 31.452 C 35.571 31.452,35.753 31.642,35.753 31.875 M53.625 33.266 C 53.733 34.116,53.839 35.719,53.860 36.828 L 53.898 38.844 51.815 38.923 C 49.311 39.017,49.343 39.144,51.031 35.785 C 51.746 34.363,52.413 32.866,52.515 32.460 C 52.837 31.164,53.410 31.581,53.625 33.266 M297.797 37.289 C 297.610 40.183,293.011 40.858,293.011 37.992 C 293.011 36.728,294.194 36.024,296.318 36.023 L 297.879 36.022 297.797 37.289 M166.824 37.912 C 165.406 38.341,164.957 41.461,166.189 42.323 C 168.051 43.628,170.315 42.289,170.097 40.014 C 169.911 38.081,168.744 37.331,166.824 37.912 M163.038 72.031 C 161.726 72.573,160.513 75.291,160.829 76.977 C 160.861 77.147,160.500 77.322,160.026 77.368 C 158.516 77.514,158.468 79.839,159.975 79.839 L 160.753 79.839 160.753 84.376 C 160.753 89.513,160.786 89.602,162.682 89.465 L 163.844 89.382 163.917 84.610 L 163.991 79.839 165.189 79.839 C 167.263 79.839,167.381 77.649,165.320 77.419 C 164.151 77.289,164.110 77.254,164.030 76.292 C 163.914 74.897,164.718 74.106,166.005 74.348 L 166.935 74.522 166.935 73.426 C 166.935 71.905,165.009 71.215,163.038 72.031 M154.011 72.740 C 153.535 73.315,153.557 74.974,154.046 75.283 C 155.951 76.488,158.375 74.274,156.836 72.734 C 156.280 72.179,154.474 72.182,154.011 72.740 M13.132 73.223 C 8.236 74.973,6.610 83.700,10.431 87.726 C 13.732 91.205,21.511 90.024,20.549 86.190 C 20.332 85.327,20.401 85.327,18.638 86.190 C 14.759 88.088,11.812 85.565,12.161 80.645 C 12.463 76.390,15.400 74.551,18.794 76.491 C 20.225 77.309,20.490 77.122,20.379 75.374 C 20.240 73.175,16.431 72.045,13.132 73.223 M38.335 73.199 C 37.482 73.822,37.795 85.186,38.710 86.818 C 41.225 91.306,49.412 90.652,51.119 85.827 C 51.376 85.101,51.478 83.170,51.478 79.040 L 51.478 73.267 50.780 73.021 C 50.396 72.885,49.640 72.857,49.100 72.958 L 48.118 73.143 48.118 78.650 C 48.118 85.916,47.741 86.828,44.735 86.828 C 41.806 86.828,41.401 85.813,41.399 78.459 C 41.398 73.213,41.394 73.180,40.793 73.019 C 39.809 72.755,38.845 72.826,38.335 73.199 M188.702 73.454 C 184.527 75.563,185.400 79.849,190.550 82.527 C 194.922 84.800,193.234 88.237,188.565 86.569 C 187.683 86.254,186.751 85.928,186.492 85.843 C 185.575 85.545,185.842 88.219,186.784 88.776 C 190.465 90.950,196.029 88.984,196.437 85.365 C 196.750 82.588,195.765 81.144,192.553 79.674 C 189.471 78.264,188.715 77.014,190.224 75.826 C 191.113 75.127,192.267 75.126,193.800 75.822 C 195.543 76.612,196.358 75.659,195.427 73.919 C 194.796 72.740,190.678 72.456,188.702 73.454 M214.255 73.407 C 212.816 74.059,212.644 74.293,212.639 75.605 C 212.634 76.788,212.640 76.790,214.230 76.013 C 216.635 74.837,218.817 75.464,218.817 77.332 C 218.817 78.894,217.885 79.584,215.460 79.818 C 213.733 79.984,213.486 80.255,213.825 81.607 C 213.973 82.197,214.127 82.258,215.471 82.258 C 218.013 82.258,219.355 83.139,219.355 84.806 C 219.355 86.661,217.065 87.480,214.361 86.592 C 213.405 86.278,212.559 86.022,212.480 86.022 C 212.401 86.022,212.373 86.595,212.418 87.296 C 212.639 90.734,220.741 90.365,222.620 86.832 C 223.915 84.398,222.381 80.937,219.995 80.908 C 219.642 80.903,219.782 80.732,220.457 80.340 C 223.034 78.846,223.021 74.709,220.435 73.390 C 218.972 72.643,215.919 72.652,214.255 73.407 M227.823 73.206 C 225.972 73.930,225.806 74.122,225.806 75.547 C 225.806 77.061,225.842 77.080,227.285 76.344 C 232.619 73.625,233.141 78.382,228.101 83.783 C 225.654 86.406,225.150 87.288,225.413 88.488 L 225.580 89.247 230.951 89.247 L 236.321 89.247 236.239 88.105 L 236.156 86.962 232.863 86.887 C 231.052 86.845,229.570 86.743,229.570 86.659 C 229.570 86.576,230.551 85.461,231.750 84.181 C 235.445 80.239,236.439 77.663,235.228 75.162 C 234.233 73.106,230.559 72.135,227.823 73.206 M248.940 73.435 C 244.815 75.591,245.709 80.062,250.744 82.452 C 255.301 84.616,253.541 88.271,248.763 86.563 C 247.891 86.252,246.966 85.928,246.707 85.843 C 246.306 85.713,246.237 85.868,246.237 86.889 C 246.237 88.263,246.633 88.736,248.213 89.243 C 255.990 91.742,260.341 83.332,253.087 79.821 C 249.852 78.256,249.121 77.199,250.391 75.929 C 251.201 75.119,252.194 75.083,254.071 75.796 C 255.738 76.430,255.914 76.353,255.914 74.990 C 255.914 72.970,251.650 72.020,248.940 73.435 M260.887 73.274 C 259.593 73.739,258.870 74.540,258.875 75.500 C 258.883 76.845,259.217 77.022,260.541 76.382 C 263.178 75.105,265.300 76.041,264.935 78.320 C 264.683 79.898,264.217 80.610,261.380 83.752 C 258.888 86.511,258.764 86.706,258.751 87.880 L 258.737 89.113 264.113 89.113 L 269.489 89.113 269.489 88.038 L 269.489 86.962 266.196 86.887 C 264.385 86.845,262.903 86.750,262.903 86.675 C 262.903 86.601,263.978 85.341,265.291 83.877 C 268.362 80.453,268.911 79.350,268.772 76.883 C 268.575 73.395,265.045 71.779,260.887 73.274 M23.685 73.487 C 23.468 73.748,23.400 76.115,23.450 81.619 L 23.522 89.382 25.134 89.382 L 26.747 89.382 26.824 86.626 L 26.901 83.871 28.186 83.871 C 32.281 83.871,34.658 81.774,34.672 78.148 C 34.686 74.418,32.806 73.118,27.399 73.118 C 24.840 73.118,23.914 73.210,23.685 73.487 M74.791 73.435 C 74.236 73.990,74.329 88.538,74.891 89.100 C 75.255 89.464,75.979 89.518,79.663 89.455 L 84.005 89.382 84.005 88.172 L 84.005 86.962 80.981 86.886 L 77.957 86.810 77.957 84.534 L 77.957 82.258 80.482 82.258 C 83.170 82.258,83.333 82.175,83.333 80.811 C 83.333 79.777,82.832 79.570,80.323 79.570 L 77.957 79.570 77.957 77.688 L 77.957 75.806 80.712 75.802 C 83.977 75.797,84.205 75.696,84.091 74.301 L 84.005 73.253 79.563 73.179 C 76.334 73.126,75.030 73.196,74.791 73.435 M174.791 73.435 C 174.283 73.943,174.323 88.797,174.834 89.221 C 175.089 89.433,176.589 89.506,179.606 89.456 L 184.005 89.382 184.005 88.172 L 184.005 86.962 180.847 86.887 L 177.688 86.811 177.688 84.534 L 177.688 82.258 180.345 82.258 L 183.002 82.258 183.141 81.532 C 183.465 79.834,183.075 79.570,180.249 79.570 L 177.688 79.570 177.688 77.688 L 177.688 75.806 180.612 75.806 C 183.887 75.806,184.235 75.640,184.091 74.144 L 184.005 73.253 179.563 73.179 C 176.334 73.126,175.030 73.196,174.791 73.435 M199.352 73.349 C 199.149 73.676,199.127 88.922,199.328 89.247 C 199.510 89.542,201.316 89.613,201.994 89.353 C 202.342 89.220,202.419 88.710,202.419 86.562 L 202.419 83.934 204.234 83.745 C 209.646 83.181,212.253 78.139,208.932 74.658 C 207.720 73.387,199.981 72.330,199.352 73.349 M206.116 76.480 C 207.758 78.382,206.369 81.183,203.784 81.183 L 202.419 81.183 202.419 78.323 L 202.419 75.462 203.965 75.621 C 205.181 75.746,205.640 75.929,206.116 76.480 M30.370 76.337 C 32.283 78.251,30.747 81.183,27.831 81.183 L 26.882 81.183 26.882 78.495 L 26.882 75.806 28.360 75.806 C 29.474 75.806,29.970 75.937,30.370 76.337 M89.919 77.158 C 87.082 77.570,85.695 80.076,86.955 82.513 C 87.322 83.223,87.741 83.484,90.649 84.811 C 93.538 86.130,90.957 88.200,87.976 86.954 C 86.790 86.458,86.290 86.600,86.290 87.432 C 86.290 90.280,92.679 90.589,94.366 87.823 C 95.741 85.567,94.857 83.655,91.780 82.233 C 88.123 80.543,89.195 78.149,92.914 79.703 C 94.102 80.199,94.355 80.057,94.355 78.891 C 94.355 77.520,92.479 76.787,89.919 77.158 M103.629 77.080 C 102.196 77.324,101.824 77.487,100.946 78.258 L 100.000 79.088 100.000 78.259 C 100.000 77.332,99.226 76.949,97.984 77.261 L 97.312 77.430 97.312 85.595 C 97.312 94.542,97.225 94.086,98.925 94.086 C 100.484 94.086,100.538 93.988,100.538 91.100 C 100.538 88.147,100.507 88.204,101.647 89.046 C 104.911 91.457,108.468 88.479,108.468 83.333 C 108.468 78.897,106.663 76.565,103.629 77.080 M124.462 77.071 C 118.526 78.038,117.554 87.704,123.223 89.388 C 126.490 90.358,130.093 89.413,130.103 87.583 C 130.109 86.600,129.925 86.544,128.222 87.001 C 125.155 87.823,122.849 86.935,122.849 84.931 L 122.849 84.140 126.446 84.140 C 130.716 84.140,130.808 84.088,130.542 81.827 C 130.243 79.281,128.918 77.605,126.941 77.272 C 126.391 77.179,125.759 77.072,125.538 77.033 C 125.316 76.994,124.832 77.011,124.462 77.071 M135.836 77.178 C 131.401 77.998,131.311 82.242,135.685 84.346 C 137.926 85.425,138.493 86.270,137.474 87.015 C 136.843 87.476,134.987 87.447,134.140 86.962 C 132.927 86.269,132.527 86.434,132.527 87.628 C 132.527 88.889,133.208 89.374,135.381 89.662 C 141.175 90.431,143.323 84.257,137.959 82.253 C 135.607 81.374,135.002 80.628,135.906 79.724 C 136.440 79.190,137.903 79.181,139.154 79.704 C 140.423 80.234,140.365 80.272,140.271 78.967 C 140.155 77.373,138.465 76.691,135.836 77.178 M146.316 77.190 C 141.969 77.949,141.830 82.899,146.114 84.370 C 147.764 84.937,148.387 85.426,148.387 86.153 C 148.387 87.349,146.436 87.758,144.531 86.962 C 143.096 86.363,142.970 86.426,143.063 87.700 C 143.170 89.177,144.003 89.625,146.640 89.622 C 152.058 89.616,153.418 83.918,148.396 82.261 C 146.329 81.579,145.444 80.470,146.290 79.624 C 146.736 79.178,148.478 79.220,149.638 79.704 C 150.169 79.926,150.649 80.108,150.705 80.108 C 150.997 80.108,150.751 77.977,150.428 77.709 C 149.872 77.248,147.615 76.963,146.316 77.190 M111.621 77.375 C 111.358 77.542,111.296 78.950,111.352 83.487 L 111.425 89.382 112.587 89.465 C 114.431 89.598,114.516 89.415,114.516 85.337 C 114.516 81.015,114.998 80.004,116.990 80.148 C 118.379 80.248,118.983 79.135,118.385 77.576 C 118.058 76.724,115.936 77.021,114.892 78.065 L 113.978 78.978 113.978 78.228 C 113.978 77.250,112.603 76.752,111.621 77.375 M154.234 77.441 C 153.809 77.688,153.763 78.273,153.763 83.476 L 153.763 89.237 154.398 89.396 C 154.747 89.484,155.443 89.517,155.944 89.469 L 156.855 89.382 156.927 83.487 C 156.983 78.950,156.921 77.542,156.659 77.375 C 156.184 77.074,154.799 77.112,154.234 77.441 M56.989 77.606 C 55.172 78.255,55.679 81.290,57.605 81.290 C 58.939 81.290,59.409 80.803,59.409 79.418 C 59.409 77.851,58.405 77.100,56.989 77.606 M126.760 79.961 C 127.171 80.373,127.419 80.929,127.419 81.439 L 127.419 82.258 125.134 82.258 C 123.010 82.258,122.849 82.219,122.849 81.707 C 122.849 79.571,125.283 78.484,126.760 79.961 M104.530 80.395 C 105.915 81.883,105.486 86.056,103.871 86.791 C 101.162 88.026,99.046 82.902,101.323 80.624 C 102.297 79.651,103.740 79.548,104.530 80.395 M238.279 82.098 C 238.199 82.306,238.173 82.880,238.220 83.375 L 238.306 84.274 241.307 84.350 L 244.308 84.426 244.484 83.627 C 244.845 81.982,244.400 81.720,241.246 81.720 C 239.070 81.720,238.391 81.807,238.279 82.098 M56.511 86.171 C 55.109 87.154,55.890 89.516,57.617 89.516 C 59.056 89.516,59.409 89.165,59.409 87.734 C 59.409 85.910,57.983 85.141,56.511 86.171 M321.637 96.304 C 321.556 96.636,321.523 100.538,321.565 104.973 L 321.640 113.038 323.185 113.118 L 324.731 113.199 324.731 109.347 C 324.731 105.112,324.868 104.661,326.389 103.874 C 328.587 102.738,329.301 104.097,329.301 109.413 L 329.301 113.199 330.847 113.118 L 332.392 113.038 332.384 108.463 C 332.371 101.460,330.262 99.111,326.115 101.482 C 325.472 101.850,324.897 102.151,324.838 102.151 C 324.779 102.151,324.731 100.699,324.731 98.925 L 324.731 95.699 323.258 95.699 C 321.953 95.699,321.768 95.768,321.637 96.304 M138.441 96.164 C 137.684 96.452,137.379 97.677,137.795 98.761 C 138.369 100.257,141.129 99.391,141.129 97.715 C 141.129 96.217,140.005 95.568,138.441 96.164 M193.752 96.888 C 191.867 97.561,191.398 98.022,191.398 99.200 C 191.398 100.430,191.470 100.453,193.049 99.737 C 194.686 98.994,196.254 99.025,196.996 99.816 C 198.459 101.373,197.044 103.495,194.543 103.495 C 191.547 103.495,191.500 105.659,194.489 105.984 C 197.344 106.294,198.614 107.563,197.869 109.360 C 197.258 110.836,194.376 111.204,192.210 110.083 C 191.159 109.540,191.061 109.622,191.081 111.034 C 191.109 113.118,194.677 114.114,198.278 113.045 C 202.326 111.843,203.190 106.748,199.641 105.009 L 198.617 104.507 199.430 104.013 C 201.126 102.981,201.681 99.545,200.387 98.090 C 199.104 96.649,195.998 96.086,193.752 96.888 M247.325 97.012 C 245.693 97.594,245.161 98.137,245.161 99.223 C 245.161 100.732,245.338 100.825,246.862 100.115 C 249.518 98.878,251.230 99.504,251.185 101.695 C 251.151 103.314,250.318 104.652,247.333 107.887 C 245.277 110.116,244.892 110.673,244.892 111.427 C 244.892 113.237,244.687 113.172,250.427 113.172 L 255.635 113.172 255.804 112.500 C 255.896 112.130,255.896 111.526,255.804 111.156 L 255.635 110.484 252.244 110.484 L 248.853 110.484 250.890 108.352 C 254.843 104.215,255.950 101.453,254.705 98.829 C 253.717 96.748,250.375 95.925,247.325 97.012 M274.317 97.011 C 269.715 99.101,269.425 110.567,273.917 112.836 C 277.784 114.790,281.430 112.528,282.280 107.649 C 283.651 99.774,279.739 94.548,274.317 97.011 M9.461 97.114 C 9.214 97.412,9.149 99.447,9.203 105.275 L 9.274 113.038 13.154 113.113 C 17.630 113.199,19.159 112.730,20.400 110.891 C 21.719 108.935,21.091 105.872,19.159 104.839 L 18.290 104.375 18.850 103.868 C 20.890 102.022,20.482 98.908,18.011 97.465 C 16.759 96.734,10.007 96.457,9.461 97.114 M28.006 97.234 C 26.924 99.315,22.526 112.973,22.869 113.190 C 24.328 114.113,25.869 113.305,26.476 111.298 L 26.972 109.661 30.060 109.736 L 33.149 109.812 33.639 111.257 C 34.310 113.231,34.536 113.442,35.987 113.437 C 38.253 113.429,38.287 113.792,35.193 104.929 L 32.392 96.909 30.325 96.830 C 28.561 96.764,28.220 96.823,28.006 97.234 M36.936 97.149 C 36.857 97.355,36.830 97.990,36.877 98.560 L 36.962 99.597 39.180 99.675 L 41.398 99.753 41.398 106.434 C 41.398 113.764,41.322 113.441,43.050 113.441 C 44.936 113.441,44.892 113.610,44.892 106.308 L 44.892 99.731 46.855 99.731 C 49.315 99.731,49.999 99.023,49.299 97.199 C 49.069 96.600,37.165 96.551,36.936 97.149 M50.660 97.687 C 50.348 99.350,50.803 99.731,53.101 99.731 L 55.108 99.731 55.108 106.308 C 55.108 113.610,55.064 113.441,56.950 113.441 C 58.679 113.441,58.602 113.765,58.602 106.423 L 58.602 99.731 60.759 99.731 C 63.170 99.731,63.619 99.346,63.266 97.581 L 63.105 96.774 56.968 96.774 L 50.831 96.774 50.660 97.687 M66.192 96.995 C 65.928 97.165,65.868 98.977,65.923 105.126 L 65.995 113.038 70.781 113.111 L 75.568 113.185 75.485 111.901 L 75.403 110.618 72.379 110.542 L 69.355 110.466 69.355 108.325 L 69.355 106.183 71.741 106.183 C 74.435 106.183,74.821 105.964,74.682 104.520 L 74.597 103.629 71.976 103.552 L 69.355 103.475 69.355 101.478 L 69.355 99.480 72.379 99.404 L 75.403 99.328 75.403 98.118 L 75.403 96.909 70.968 96.842 C 68.528 96.805,66.379 96.874,66.192 96.995 M79.324 97.269 C 79.134 97.624,79.032 100.449,79.032 105.349 C 79.032 113.725,78.968 113.441,80.874 113.441 C 82.511 113.441,82.527 113.407,82.527 109.917 L 82.527 106.720 83.555 106.720 C 84.940 106.720,85.530 107.402,86.714 110.369 C 87.909 113.360,88.933 114.060,90.973 113.278 C 91.768 112.973,89.574 107.228,88.271 106.203 L 87.625 105.695 88.602 105.091 C 91.284 103.434,91.161 98.998,88.394 97.535 C 86.673 96.626,79.776 96.424,79.324 97.269 M92.473 97.180 C 92.473 97.404,93.562 99.761,94.892 102.419 L 97.312 107.252 97.312 110.183 C 97.312 113.380,97.343 113.441,98.964 113.441 C 100.675 113.441,100.806 113.192,100.806 109.947 L 100.806 107.010 103.235 102.117 C 105.911 96.726,105.912 96.707,103.610 96.827 L 102.035 96.909 100.773 99.692 C 100.078 101.223,99.433 102.735,99.339 103.052 C 99.145 103.704,99.043 103.529,97.055 99.126 L 95.992 96.774 94.233 96.774 C 92.842 96.774,92.473 96.859,92.473 97.180 M127.272 97.113 C 127.201 97.300,127.174 100.959,127.214 105.245 L 127.285 113.038 131.586 113.038 L 135.887 113.038 135.887 111.828 L 135.887 110.618 133.132 110.542 L 130.376 110.465 130.376 103.783 C 130.376 96.345,130.493 96.774,128.464 96.774 C 127.857 96.774,127.347 96.920,127.272 97.113 M152.755 97.070 C 152.502 97.333,152.419 99.363,152.419 105.309 L 152.419 113.199 153.965 113.118 L 155.511 113.038 155.587 110.282 L 155.664 107.527 157.066 107.525 C 163.288 107.519,166.121 100.285,160.944 97.622 C 159.386 96.821,153.384 96.416,152.755 97.070 M208.587 97.487 C 208.435 97.886,208.385 98.550,208.476 98.964 L 208.642 99.716 212.228 99.791 L 215.814 99.866 212.889 106.289 C 209.617 113.472,209.662 113.172,211.837 113.172 C 213.732 113.172,213.217 113.952,216.785 105.670 C 219.102 100.291,219.371 99.500,219.300 98.277 L 219.220 96.909 214.041 96.836 L 208.862 96.763 208.587 97.487 M259.207 96.952 C 258.958 97.053,258.871 98.195,258.871 101.366 L 258.871 105.645 261.004 105.645 C 264.712 105.645,266.135 106.978,265.156 109.531 C 264.712 110.687,261.517 111.157,259.584 110.349 C 258.265 109.798,258.295 109.773,258.386 111.347 L 258.468 112.748 259.677 113.109 C 264.332 114.497,268.548 112.295,268.770 108.359 C 268.968 104.857,267.219 103.226,263.266 103.226 L 261.559 103.226 261.559 101.478 L 261.559 99.731 264.638 99.731 L 267.718 99.731 267.889 98.819 C 268.248 96.906,267.955 96.772,263.499 96.795 C 261.323 96.807,259.392 96.878,259.207 96.952 M309.827 97.648 C 309.229 99.100,304.570 112.642,304.570 112.930 C 304.570 113.087,305.212 113.165,306.116 113.118 L 307.661 113.038 308.298 111.223 L 308.935 109.409 311.962 109.409 L 314.990 109.409 315.627 111.223 L 316.263 113.038 317.944 113.118 C 320.053 113.218,320.138 113.967,317.029 104.973 C 313.946 96.056,314.383 96.774,312.050 96.774 C 310.202 96.774,310.185 96.781,309.827 97.648 M278.334 100.087 C 278.849 100.780,278.898 101.200,278.898 104.972 C 278.898 109.803,278.621 110.546,276.761 110.703 C 274.844 110.865,274.193 109.397,274.195 104.921 C 274.197 100.645,274.915 99.084,276.803 99.245 C 277.493 99.304,277.931 99.545,278.334 100.087 M15.676 99.771 C 17.765 100.871,16.577 103.495,13.991 103.495 L 12.634 103.495 12.634 101.478 L 12.634 99.462 13.862 99.462 C 14.537 99.462,15.353 99.601,15.676 99.771 M85.867 99.771 C 88.353 100.904,86.598 104.226,83.643 103.980 L 82.661 103.898 82.583 101.680 L 82.505 99.462 83.847 99.462 C 84.586 99.462,85.494 99.601,85.867 99.771 M159.286 100.122 C 161.231 102.067,159.465 105.100,156.384 105.106 L 155.645 105.108 155.645 102.285 L 155.645 99.462 157.136 99.462 C 158.360 99.462,158.745 99.580,159.286 100.122 M313.055 103.293 C 313.606 104.956,314.113 106.468,314.181 106.653 C 314.274 106.906,313.723 106.989,311.962 106.989 C 310.202 106.989,309.651 106.906,309.744 106.653 C 309.812 106.468,310.318 104.956,310.870 103.293 C 311.421 101.630,311.913 100.269,311.962 100.269 C 312.012 100.269,312.503 101.630,313.055 103.293 M31.257 103.812 C 31.779 105.391,32.137 106.752,32.053 106.836 C 31.830 107.059,27.957 107.025,27.957 106.800 C 27.957 106.221,29.982 100.577,30.130 100.743 C 30.228 100.852,30.735 102.233,31.257 103.812 M168.456 101.199 C 165.661 102.195,164.078 106.077,165.031 109.598 C 166.440 114.805,174.937 114.783,176.486 109.569 C 178.239 103.666,173.981 99.228,168.456 101.199 M289.839 101.088 C 289.500 101.225,288.804 101.655,288.294 102.044 L 287.366 102.752 287.366 101.899 C 287.366 101.049,287.361 101.046,286.089 101.128 L 284.812 101.210 284.812 107.124 L 284.812 113.038 286.358 113.118 L 287.903 113.199 287.903 109.181 L 287.903 105.163 288.853 104.329 C 291.231 102.241,292.047 103.361,292.156 108.859 L 292.242 113.198 293.769 113.118 L 295.296 113.038 295.430 108.922 C 295.561 104.924,295.584 104.792,296.237 104.284 C 298.664 102.397,299.428 103.457,299.523 108.844 L 299.597 113.038 301.164 113.119 L 302.731 113.200 302.643 108.267 C 302.567 104.063,302.482 103.225,302.069 102.595 C 300.628 100.399,297.672 100.239,295.486 102.239 L 294.870 102.803 294.276 102.082 C 293.312 100.911,291.367 100.475,289.839 101.088 M138.082 101.254 C 137.984 101.353,137.903 104.075,137.903 107.303 L 137.903 113.172 139.382 113.172 L 140.860 113.172 140.860 107.124 L 140.860 101.075 139.561 101.075 C 138.846 101.075,138.181 101.156,138.082 101.254 M220.866 101.291 C 220.710 101.544,224.135 112.344,224.528 112.836 C 224.699 113.050,225.512 113.172,226.758 113.172 L 228.719 113.172 230.653 107.369 C 232.777 100.997,232.777 100.997,230.760 101.126 L 229.456 101.210 228.113 105.609 C 227.166 108.712,226.711 109.861,226.570 109.507 C 226.460 109.231,225.816 107.221,225.138 105.040 L 223.905 101.075 222.452 101.075 C 221.653 101.075,220.940 101.172,220.866 101.291 M108.869 101.749 C 107.810 103.025,108.645 105.108,110.215 105.108 C 111.456 105.108,111.950 104.572,111.950 103.226 C 111.950 101.524,109.880 100.532,108.869 101.749 M172.756 104.142 C 175.328 107.101,172.221 112.802,169.294 110.495 C 167.450 109.041,167.728 104.324,169.707 103.485 C 170.644 103.087,172.115 103.404,172.756 104.142 M143.397 106.289 C 142.992 107.903,143.289 108.065,146.673 108.065 L 149.762 108.065 149.679 106.922 L 149.597 105.780 146.580 105.704 C 143.572 105.628,143.563 105.630,143.397 106.289 M16.813 106.843 C 18.522 108.552,17.278 110.484,14.469 110.484 L 12.634 110.484 12.634 108.333 L 12.634 106.183 14.394 106.183 C 15.904 106.183,16.247 106.276,16.813 106.843 M204.099 109.811 C 202.763 110.772,203.366 113.137,205.002 113.347 C 206.516 113.542,207.079 113.029,207.079 111.454 C 207.079 109.639,205.528 108.783,204.099 109.811 M108.842 110.115 C 108.311 110.755,108.427 112.648,109.024 113.084 C 110.840 114.413,113.040 111.865,111.587 110.115 C 111.107 109.536,109.323 109.536,108.842 110.115 M179.480 109.857 C 179.382 109.955,179.301 110.670,179.301 111.444 C 179.301 112.431,179.059 113.392,178.495 114.651 C 177.490 116.890,177.492 116.935,178.582 116.935 C 180.530 116.935,183.452 111.944,182.522 110.206 C 182.239 109.677,179.926 109.411,179.480 109.857 M233.525 109.845 C 233.419 109.950,233.333 110.630,233.333 111.357 C 233.333 112.238,233.064 113.291,232.527 114.516 C 231.513 116.827,231.518 116.935,232.653 116.935 C 234.260 116.935,236.650 113.301,236.506 111.075 L 236.425 109.812 235.070 109.733 C 234.325 109.689,233.630 109.739,233.525 109.845 M119.476 120.425 C 116.929 120.802,115.323 122.540,115.323 124.919 C 115.323 127.402,115.999 128.234,119.415 129.956 C 121.890 131.202,122.512 131.966,122.047 133.187 C 121.470 134.707,118.781 134.969,116.398 133.737 C 115.225 133.130,115.054 133.227,115.054 134.501 C 115.054 138.377,123.758 137.996,125.251 134.055 C 126.343 131.172,125.290 129.116,121.798 127.312 C 118.528 125.623,117.947 124.770,119.208 123.509 C 120.020 122.698,121.012 122.664,122.904 123.383 C 124.528 124.000,124.800 123.852,124.682 122.414 C 124.554 120.846,122.341 120.001,119.476 120.425 M307.930 120.299 C 307.782 120.347,307.205 120.462,306.647 120.556 C 303.347 121.108,301.469 126.791,302.673 132.587 C 303.983 138.899,311.981 138.856,313.599 132.527 C 315.317 125.804,312.135 118.939,307.930 120.299 M9.472 120.654 C 9.207 120.822,9.147 122.658,9.203 128.916 L 9.274 136.962 10.887 136.962 L 12.500 136.962 12.571 128.916 C 12.650 120.037,12.730 120.438,10.887 120.438 C 10.296 120.438,9.659 120.535,9.472 120.654 M17.267 120.693 L 16.659 120.953 16.730 128.958 L 16.801 136.962 18.212 137.044 L 19.624 137.125 19.624 130.995 L 19.625 124.866 22.597 130.511 C 25.988 136.949,26.111 137.097,28.106 137.097 C 30.407 137.097,30.376 137.213,30.376 128.444 C 30.376 120.225,30.420 120.430,28.669 120.430 C 27.113 120.430,27.151 120.285,27.149 126.306 L 27.147 131.855 24.451 126.747 C 22.969 123.938,21.538 121.421,21.272 121.155 C 20.706 120.586,18.194 120.296,17.267 120.693 M35.148 120.596 C 34.428 120.814,34.387 121.356,34.468 129.435 L 34.543 136.962 36.156 136.962 L 37.769 136.962 37.845 134.245 L 37.921 131.528 39.758 131.374 C 46.169 130.837,48.254 123.444,42.654 121.104 C 41.630 120.676,36.119 120.303,35.148 120.596 M49.261 120.608 C 48.823 120.785,48.789 131.616,49.221 133.199 C 50.528 137.981,58.429 138.969,61.413 134.722 L 62.231 133.557 62.317 127.222 C 62.411 120.239,62.459 120.442,60.705 120.434 C 58.922 120.427,58.871 120.605,58.871 126.780 C 58.871 133.752,58.586 134.409,55.558 134.409 C 52.830 134.409,52.419 133.341,52.419 126.247 C 52.419 121.488,52.363 120.735,51.994 120.593 C 51.497 120.402,49.747 120.412,49.261 120.608 M65.390 120.605 C 65.186 120.689,65.054 121.259,65.054 122.055 L 65.054 123.365 67.272 123.443 L 69.489 123.522 69.624 130.242 L 69.758 136.962 71.371 136.962 L 72.984 136.962 73.056 130.175 L 73.128 123.387 75.268 123.387 C 77.637 123.387,78.108 122.943,77.519 121.266 L 77.272 120.565 71.499 120.516 C 68.324 120.489,65.575 120.529,65.390 120.605 M211.776 120.833 C 206.808 122.659,205.216 130.985,209.029 135.205 C 211.924 138.410,219.086 137.771,219.086 134.308 C 219.086 133.041,218.867 132.975,217.318 133.770 C 213.317 135.823,209.984 132.889,210.582 127.841 C 211.068 123.739,214.075 122.052,217.468 123.978 C 218.699 124.677,219.074 124.458,219.082 123.039 C 219.093 120.961,214.885 119.690,211.776 120.833 M99.033 121.073 C 98.547 122.341,99.070 133.210,99.672 134.341 C 101.566 137.901,108.101 138.366,110.931 135.142 C 112.177 133.723,112.413 132.180,112.315 126.075 L 112.231 120.833 110.685 120.753 L 109.140 120.672 109.125 126.129 C 109.104 133.408,108.630 134.567,105.690 134.525 C 102.793 134.483,102.585 133.988,102.420 126.747 L 102.285 120.833 100.736 120.753 C 99.556 120.691,99.150 120.768,99.033 121.073 M128.389 121.124 C 127.854 122.519,128.229 136.542,128.810 136.853 C 129.686 137.322,135.592 137.030,136.959 136.450 C 140.487 134.954,141.209 130.446,138.199 128.714 L 137.224 128.153 138.101 127.275 C 140.066 125.310,138.965 121.780,136.143 120.997 C 134.388 120.510,128.588 120.605,128.389 121.124 M147.095 121.971 L 147.177 123.253 149.391 123.331 L 151.604 123.409 151.676 130.186 L 151.747 136.962 152.658 137.049 C 153.159 137.097,153.855 137.065,154.204 136.977 L 154.839 136.818 154.839 130.113 L 154.839 123.409 157.056 123.331 L 159.274 123.253 159.274 122.043 L 159.274 120.833 153.144 120.761 L 147.013 120.689 147.095 121.971 M234.037 121.118 C 233.799 121.737,233.840 128.836,234.083 129.218 C 234.218 129.431,235.019 129.521,236.456 129.487 C 238.858 129.430,239.810 129.761,240.293 130.822 C 241.548 133.576,238.590 135.531,235.081 134.266 C 233.485 133.692,233.333 133.745,233.337 134.879 C 233.351 138.292,240.867 138.170,243.192 134.719 C 245.607 131.136,243.446 127.305,238.813 126.954 L 236.828 126.804 236.828 125.096 L 236.828 123.387 239.934 123.387 L 243.040 123.387 242.958 122.110 L 242.876 120.833 238.539 120.760 C 234.761 120.695,234.181 120.742,234.037 121.118 M245.604 120.904 C 245.476 121.111,250.484 136.135,250.890 136.761 C 251.134 137.138,254.218 137.227,254.776 136.872 C 255.101 136.666,260.215 121.767,260.215 121.027 C 260.215 120.765,259.811 120.693,258.669 120.753 L 257.124 120.833 256.403 123.118 C 256.007 124.375,255.090 127.278,254.365 129.570 L 253.047 133.737 251.507 128.898 C 250.661 126.237,249.723 123.303,249.424 122.379 L 248.881 120.699 247.306 120.699 C 246.439 120.699,245.674 120.791,245.604 120.904 M320.868 121.304 C 320.659 122.084,320.657 128.176,320.865 128.953 C 321.014 129.509,321.163 129.544,323.214 129.498 C 325.847 129.439,326.494 129.635,327.019 130.651 C 328.493 133.501,325.631 135.524,321.913 134.262 C 320.440 133.762,320.161 133.891,320.161 135.077 C 320.161 136.665,321.354 137.240,324.597 137.216 C 332.478 137.157,333.450 127.440,325.625 126.937 L 323.656 126.811 323.656 125.099 L 323.656 123.387 326.747 123.387 L 329.839 123.387 329.839 122.043 L 329.839 120.699 325.435 120.699 C 321.095 120.699,321.028 120.708,320.868 121.304 M337.903 120.790 C 337.903 120.840,336.689 124.370,335.204 128.633 C 332.192 137.285,332.207 137.159,334.182 137.044 L 335.575 136.962 336.157 135.215 L 336.738 133.468 339.840 133.392 L 342.941 133.317 343.581 135.140 L 344.220 136.962 345.670 137.045 C 347.917 137.173,347.936 137.384,344.897 128.643 L 342.136 120.699 340.019 120.699 C 338.856 120.699,337.903 120.740,337.903 120.790 M309.328 123.254 C 311.561 124.818,311.040 133.845,308.678 134.508 C 306.554 135.103,305.818 133.635,305.796 128.763 C 305.773 123.658,307.054 121.661,309.328 123.254 M135.044 123.675 C 136.822 125.074,135.506 127.419,132.942 127.419 L 131.452 127.419 131.452 125.269 L 131.452 123.118 132.894 123.118 C 133.946 123.118,134.528 123.269,135.044 123.675 M41.418 124.081 C 43.054 125.823,41.831 128.454,39.271 128.700 L 37.903 128.832 37.903 126.109 L 37.903 123.387 39.335 123.387 C 40.526 123.387,40.876 123.503,41.418 124.081 M339.976 130.589 C 337.318 130.687,337.447 131.054,338.759 127.134 L 339.876 123.795 340.996 127.153 L 342.117 130.511 339.976 130.589 M178.297 124.718 C 177.818 124.835,177.010 125.249,176.500 125.637 C 175.352 126.513,175.324 126.512,175.219 125.605 C 175.148 124.985,174.990 124.852,174.243 124.780 C 172.562 124.619,172.581 124.525,172.581 133.222 C 172.581 141.921,172.529 141.667,174.288 141.667 C 175.751 141.667,175.806 141.553,175.806 138.533 L 175.806 135.725 176.680 136.382 C 179.231 138.298,182.697 136.956,183.617 133.695 C 184.700 129.852,183.041 124.746,180.703 124.728 C 180.449 124.725,180.000 124.675,179.704 124.615 C 179.409 124.555,178.775 124.601,178.297 124.718 M189.974 124.842 C 184.481 126.332,184.547 135.891,190.059 137.073 C 192.114 137.513,195.347 137.141,196.112 136.376 C 197.370 135.119,196.427 133.983,194.581 134.531 C 191.447 135.461,189.247 134.587,189.247 132.410 L 189.247 131.720 192.843 131.720 C 197.115 131.720,197.206 131.669,196.939 129.403 C 196.502 125.680,193.685 123.836,189.974 124.842 M159.476 124.909 C 158.929 125.130,159.040 125.535,161.311 131.591 L 163.482 137.382 162.739 139.276 C 161.924 141.352,162.020 141.654,163.491 141.663 C 165.353 141.673,165.312 141.746,168.102 133.519 C 170.970 125.062,170.967 125.078,170.059 124.850 C 168.114 124.362,167.995 124.502,166.514 129.031 L 165.153 133.197 164.819 132.257 C 164.635 131.740,164.004 129.931,163.416 128.236 C 162.828 126.541,162.200 125.061,162.020 124.947 C 161.661 124.719,160.008 124.694,159.476 124.909 M271.885 125.100 C 271.805 125.307,271.778 126.004,271.824 126.649 L 271.909 127.823 281.317 127.823 L 290.726 127.823 290.726 126.344 L 290.726 124.866 281.377 124.795 C 273.570 124.736,272.005 124.786,271.885 125.100 M80.974 125.418 C 80.317 125.879,80.155 127.310,80.655 128.243 C 80.978 128.847,83.004 128.986,83.548 128.441 C 84.583 127.407,83.586 125.000,82.124 125.000 C 81.820 125.000,81.302 125.188,80.974 125.418 M193.260 127.590 C 193.566 127.980,193.817 128.645,193.817 129.069 L 193.817 129.839 191.532 129.839 C 188.989 129.839,188.783 129.634,189.645 127.968 C 190.337 126.630,192.340 126.420,193.260 127.590 M180.110 128.293 C 181.181 130.049,180.622 133.794,179.193 134.446 C 176.532 135.658,174.396 130.484,176.634 128.246 C 177.835 127.045,179.362 127.065,180.110 128.293 M199.035 129.670 C 198.954 129.882,198.926 130.461,198.973 130.956 L 199.059 131.855 202.016 131.855 L 204.973 131.855 204.973 130.645 L 204.973 129.435 202.078 129.359 C 199.757 129.298,199.154 129.359,199.035 129.670 M135.465 130.232 C 136.335 130.682,136.559 131.126,136.559 132.395 C 136.559 133.808,135.586 134.409,133.297 134.409 L 131.452 134.409 131.452 132.124 L 131.452 129.839 133.078 129.839 C 133.979 129.839,135.043 130.014,135.465 130.232 M271.726 131.373 C 271.674 131.490,271.633 132.191,271.635 132.930 L 271.640 134.274 273.641 134.274 L 275.642 134.274 275.657 132.796 L 275.672 131.317 273.746 131.239 C 272.687 131.195,271.777 131.256,271.726 131.373 M279.301 132.784 L 279.301 134.409 281.331 134.409 L 283.360 134.409 283.280 132.863 L 283.199 131.317 281.250 131.238 L 279.301 131.159 279.301 132.784 M287.007 131.362 C 286.909 131.461,286.828 132.186,286.828 132.975 L 286.828 134.409 288.844 134.409 L 290.860 134.409 290.860 132.796 L 290.860 131.183 289.023 131.183 C 288.013 131.183,287.106 131.263,287.007 131.362 M80.821 133.825 C 79.674 135.093,80.444 137.097,82.079 137.097 C 83.518 137.097,83.871 136.746,83.871 135.315 C 83.871 133.478,81.974 132.551,80.821 133.825 M221.976 133.624 C 221.626 133.827,221.505 134.246,221.505 135.251 C 221.505 136.166,221.245 137.197,220.699 138.441 C 219.700 140.717,219.685 140.591,220.943 140.591 C 222.998 140.591,225.941 135.119,224.605 133.783 C 224.106 133.285,222.704 133.200,221.976 133.624 M315.376 133.656 C 315.199 133.833,315.054 134.535,315.054 135.215 C 315.054 136.742,315.387 137.097,316.822 137.097 C 318.190 137.097,318.622 136.646,318.622 135.215 C 318.622 133.523,316.519 132.513,315.376 133.656 M195.699 152.119 C 172.489 157.210,166.871 186.879,186.622 200.059 C 201.867 210.233,223.300 201.103,226.749 182.968 C 230.215 164.736,213.571 148.199,195.699 152.119 M278.058 153.377 C 276.711 154.052,271.998 160.860,272.051 162.055 C 272.066 162.399,279.902 166.711,280.110 166.489 C 280.226 166.365,281.376 164.449,282.664 162.231 C 283.952 160.013,285.095 158.102,285.204 157.984 C 285.313 157.866,286.316 159.412,287.433 161.418 C 289.640 165.383,289.643 165.408,287.926 166.120 C 286.371 166.764,287.094 166.935,291.356 166.935 C 296.053 166.935,295.889 166.990,296.982 165.054 C 298.924 161.613,299.867 160.024,300.196 159.637 C 300.829 158.891,300.149 158.854,299.086 159.577 C 298.026 160.297,297.426 160.268,297.104 159.482 C 296.461 157.913,294.154 154.444,293.340 153.823 L 292.382 153.091 285.640 153.023 C 279.960 152.966,278.766 153.022,278.058 153.377 M111.096 155.967 C 87.385 174.000,86.828 174.453,86.828 175.737 C 86.828 177.892,88.686 178.487,90.824 177.016 C 91.576 176.499,92.255 176.075,92.332 176.075 C 92.410 176.075,92.473 181.645,92.473 188.453 L 92.473 200.831 93.133 201.491 L 93.793 202.151 114.733 202.151 L 135.674 202.151 136.385 201.491 L 137.097 200.832 137.097 188.454 C 137.097 181.646,137.160 176.075,137.238 176.075 C 137.315 176.075,138.004 176.506,138.769 177.032 C 140.351 178.120,141.137 178.111,142.137 176.991 C 143.505 175.460,143.024 174.776,137.806 170.833 L 133.892 167.876 133.882 164.099 C 133.869 159.681,133.867 159.677,131.542 159.677 C 129.497 159.677,129.210 160.030,129.345 162.375 C 129.395 163.238,129.364 163.983,129.276 164.029 C 129.188 164.075,126.104 161.786,122.421 158.942 C 114.332 152.695,115.124 152.903,111.096 155.967 M206.855 156.422 C 209.976 157.344,215.495 160.364,215.018 160.888 C 214.964 160.948,207.903 168.021,199.328 176.607 L 183.737 192.218 183.001 191.337 C 179.320 186.932,177.649 178.363,179.291 172.312 C 182.546 160.312,195.244 152.992,206.855 156.422 M122.653 164.718 C 126.842 167.933,130.835 170.988,131.526 171.505 L 132.783 172.446 132.722 185.152 L 132.661 197.858 114.718 197.921 L 96.774 197.984 96.791 185.215 L 96.807 172.446 105.594 165.674 C 110.427 161.949,114.529 158.895,114.709 158.886 C 114.889 158.878,118.463 161.502,122.653 164.718 M198.521 163.992 C 194.285 169.316,191.441 174.096,190.053 178.226 C 189.445 180.035,189.213 184.481,189.700 184.969 C 190.099 185.368,206.499 168.777,206.331 168.145 C 206.172 167.544,201.362 161.502,200.940 161.372 C 200.792 161.327,199.703 162.506,198.521 163.992 M219.475 165.570 C 231.982 184.383,211.787 207.556,191.164 198.055 C 189.439 197.260,186.828 195.476,186.828 195.092 C 186.828 194.763,217.727 163.710,218.054 163.710 C 218.155 163.710,218.795 164.547,219.475 165.570 M265.860 166.918 C 265.860 167.023,266.405 167.381,267.070 167.713 C 268.314 168.334,268.459 168.524,268.032 168.965 C 267.896 169.106,267.149 170.309,266.372 171.640 C 264.189 175.377,264.252 176.130,267.170 181.183 C 268.407 183.327,269.723 185.625,270.093 186.290 C 271.820 189.397,272.863 189.831,278.360 189.727 L 282.392 189.651 282.392 185.081 L 282.392 180.511 277.352 180.511 C 274.580 180.511,272.312 180.456,272.312 180.389 C 272.312 180.159,276.377 173.118,276.509 173.118 C 276.582 173.118,277.086 173.421,277.630 173.790 C 279.354 174.962,279.292 174.547,277.214 171.035 C 274.343 166.182,275.099 166.644,270.113 166.689 C 267.774 166.710,265.860 166.813,265.860 166.918 M297.312 169.098 C 295.316 170.270,293.586 171.263,293.468 171.304 C 293.268 171.375,296.990 177.971,298.169 179.637 C 298.457 180.044,298.624 180.380,298.540 180.384 C 298.456 180.388,296.542 180.395,294.288 180.398 L 290.188 180.405 290.163 178.979 C 290.129 177.104,290.008 177.213,287.571 181.313 C 285.064 185.533,285.072 184.711,287.490 188.854 C 290.022 193.193,290.054 193.223,290.054 191.338 L 290.054 189.826 293.793 189.738 C 298.697 189.623,298.513 189.770,302.651 182.664 C 306.712 175.688,306.692 175.923,303.665 170.632 C 301.183 166.291,301.828 166.447,297.312 169.098 M200.744 181.840 L 192.213 190.444 193.217 191.472 C 200.219 198.651,212.387 192.887,212.362 182.403 C 212.355 179.731,210.493 173.818,209.511 173.349 C 209.381 173.287,205.435 177.108,200.744 181.840 M119.396 176.546 C 118.455 177.544,116.580 179.661,115.230 181.250 C 112.312 184.684,112.828 184.583,110.741 182.131 C 108.344 179.315,107.007 179.012,105.567 180.958 C 104.750 182.062,105.107 182.768,108.297 186.371 C 112.708 191.354,112.236 191.460,118.864 184.005 C 124.842 177.281,125.184 176.566,123.044 175.261 C 121.681 174.431,121.247 174.583,119.396 176.546 M270.430 194.355 C 269.692 195.735,270.984 197.156,272.495 196.624 C 273.173 196.386,273.253 196.232,273.253 195.155 L 273.253 193.952 271.993 193.870 C 270.940 193.802,270.683 193.882,270.430 194.355 M260.820 194.526 C 260.303 194.745,260.338 207.878,260.857 208.309 C 261.108 208.517,262.368 208.594,264.688 208.543 L 268.145 208.468 268.227 207.336 L 268.309 206.204 265.942 206.126 L 263.575 206.048 263.441 200.269 L 263.306 194.489 262.231 194.437 C 261.640 194.408,261.005 194.448,260.820 194.526 M284.202 194.572 C 283.939 194.745,283.878 196.345,283.933 201.632 L 284.005 208.468 285.349 208.468 L 286.694 208.468 286.694 201.478 L 286.694 194.489 285.618 194.419 C 285.027 194.381,284.390 194.449,284.202 194.572 M271.029 198.040 L 270.419 198.157 270.492 203.312 L 270.565 208.468 271.909 208.468 L 273.253 208.468 273.326 203.423 L 273.399 198.378 272.704 198.114 C 272.321 197.968,271.925 197.866,271.824 197.886 C 271.723 197.906,271.365 197.975,271.029 198.040 M292.473 198.371 C 288.460 200.494,288.956 207.406,293.205 208.586 C 298.193 209.971,301.998 204.898,299.563 200.110 C 298.512 198.044,294.808 197.136,292.473 198.371 M303.287 198.129 C 302.678 198.373,302.677 198.393,302.749 203.421 L 302.823 208.468 304.167 208.468 L 305.511 208.468 305.586 205.058 L 305.661 201.647 306.480 200.958 C 308.502 199.256,309.246 200.300,309.368 205.015 L 309.462 208.629 310.712 208.549 L 311.962 208.468 312.045 204.839 C 312.091 202.779,312.002 200.782,311.838 200.221 C 311.172 197.940,308.443 197.096,306.343 198.522 C 305.148 199.332,305.108 199.336,305.108 198.656 C 305.108 198.360,304.996 198.118,304.861 198.118 C 304.725 198.118,304.453 198.065,304.256 198.001 C 304.059 197.936,303.623 197.994,303.287 198.129 M296.373 200.605 C 298.254 202.224,297.303 206.452,295.057 206.452 C 293.384 206.452,292.876 205.732,292.876 203.361 C 292.876 200.371,294.559 199.045,296.373 200.605 M275.912 202.262 C 275.832 202.472,275.806 202.986,275.854 203.405 L 275.941 204.167 278.465 204.167 C 281.252 204.167,281.687 203.930,281.352 202.595 C 281.138 201.746,276.226 201.445,275.912 202.262 M106.912 222.210 C 106.807 222.315,106.720 223.776,106.720 225.456 L 106.720 228.511 105.972 227.958 C 103.606 226.208,100.136 227.386,99.016 230.317 C 96.677 236.441,101.234 242.188,105.975 239.095 C 107.125 238.345,107.295 238.300,107.103 238.801 C 106.880 239.382,107.679 239.826,108.785 239.735 L 109.812 239.651 109.812 230.914 L 109.812 222.177 108.457 222.098 C 107.712 222.055,107.017 222.105,106.912 222.210 M120.289 222.368 C 120.214 222.562,120.185 226.529,120.225 231.185 L 120.296 239.651 121.628 239.651 C 122.794 239.651,122.978 239.574,123.106 239.034 L 123.253 238.418 124.174 239.098 C 128.537 242.319,133.167 236.833,131.353 230.593 C 130.437 227.442,126.930 226.090,124.443 227.929 L 123.673 228.498 123.597 225.338 L 123.522 222.177 121.973 222.097 C 120.883 222.040,120.384 222.120,120.289 222.368 M221.685 222.222 C 221.586 222.321,221.505 226.250,221.505 230.954 L 221.505 239.506 222.140 239.665 C 222.489 239.753,223.185 239.785,223.686 239.738 L 224.597 239.651 224.668 230.847 L 224.739 222.043 223.301 222.043 C 222.511 222.043,221.783 222.124,221.685 222.222 M51.135 222.730 C 49.735 223.711,50.610 225.806,52.419 225.806 C 53.700 225.806,54.301 225.247,54.301 224.055 C 54.301 223.021,53.536 222.312,52.419 222.312 C 52.042 222.312,51.464 222.500,51.135 222.730 M214.785 222.849 C 213.528 224.106,214.358 225.806,216.229 225.806 C 217.660 225.806,218.011 225.454,218.011 224.015 C 218.011 222.324,216.027 221.607,214.785 222.849 M9.476 223.415 C 8.836 224.078,9.009 239.158,9.660 239.507 C 10.935 240.189,17.223 239.660,19.077 238.714 C 24.584 235.905,24.039 225.902,18.261 223.763 C 16.659 223.170,9.968 222.905,9.476 223.415 M154.906 223.415 C 154.359 223.982,154.428 239.064,154.980 239.522 C 155.561 240.004,161.805 239.708,163.477 239.119 C 169.824 236.883,169.870 225.805,163.540 223.686 C 162.015 223.176,155.339 222.966,154.906 223.415 M189.676 223.534 C 189.304 223.907,189.247 224.963,189.247 231.572 C 189.247 240.170,189.172 239.870,191.310 239.733 L 192.608 239.651 192.742 236.425 L 192.876 233.199 195.565 233.065 L 198.253 232.930 198.253 231.720 L 198.253 230.511 195.565 230.376 L 192.876 230.242 192.798 228.168 L 192.720 226.094 195.621 226.017 L 198.522 225.941 198.522 224.597 L 198.522 223.253 194.314 223.179 C 190.752 223.116,190.040 223.171,189.676 223.534 M16.946 226.484 C 18.765 227.425,19.667 230.017,19.147 232.811 C 18.613 235.684,17.225 236.828,14.274 236.828 L 12.634 236.828 12.634 231.280 L 12.634 225.732 14.416 225.915 C 15.397 226.015,16.535 226.271,16.946 226.484 M162.352 226.563 C 163.792 227.294,164.516 228.920,164.516 231.424 C 164.516 235.133,163.008 236.828,159.708 236.828 L 158.065 236.828 158.065 231.279 L 158.065 225.730 159.731 225.904 C 160.648 226.000,161.827 226.296,162.352 226.563 M28.815 227.514 C 24.450 229.095,23.926 237.142,28.047 239.311 C 30.630 240.672,35.801 239.839,35.957 238.038 C 36.073 236.706,35.760 236.486,34.423 236.957 C 31.487 237.993,28.795 237.131,28.772 235.148 L 28.763 234.409 32.383 234.409 C 36.606 234.409,36.745 234.322,36.440 231.888 C 35.971 228.134,32.539 226.165,28.815 227.514 M41.217 227.655 C 37.693 229.308,38.441 233.257,42.552 234.704 C 43.563 235.060,44.624 235.851,44.624 236.249 C 44.624 237.427,42.295 237.843,40.602 236.968 C 39.457 236.376,38.978 236.597,38.978 237.719 C 38.978 239.307,41.016 240.264,43.686 239.931 C 48.312 239.353,49.315 234.537,45.202 232.650 C 42.538 231.428,42.344 231.308,42.251 230.825 C 42.024 229.646,44.191 229.111,45.699 229.973 C 46.821 230.614,47.043 230.483,47.043 229.176 C 47.043 227.284,43.808 226.439,41.217 227.655 M60.192 227.401 C 57.723 228.172,56.480 231.049,57.644 233.300 C 57.991 233.972,57.978 234.123,57.511 234.832 C 56.888 235.777,56.840 237.033,57.396 237.826 C 57.770 238.360,57.746 238.489,57.103 239.432 C 55.136 242.316,57.978 244.717,62.823 244.264 C 69.558 243.635,69.623 236.828,62.894 236.828 C 60.792 236.828,59.946 236.527,59.946 235.779 C 59.946 235.339,60.139 235.299,61.761 235.402 C 64.933 235.604,66.821 233.990,66.602 231.263 C 66.495 229.927,66.521 229.862,67.183 229.785 C 67.970 229.693,68.405 227.798,67.691 227.573 C 66.938 227.335,60.850 227.196,60.192 227.401 M75.672 227.523 C 75.228 227.716,74.699 228.075,74.497 228.319 C 73.992 228.927,73.709 228.876,73.607 228.159 C 73.531 227.623,73.367 227.554,72.177 227.554 L 70.833 227.554 70.761 233.299 C 70.680 239.674,70.707 239.785,72.323 239.785 C 74.242 239.785,74.194 239.896,74.194 235.479 L 74.194 231.499 75.021 230.803 C 77.389 228.811,78.322 230.058,78.495 235.444 L 78.629 239.651 79.540 239.738 C 80.041 239.785,80.736 239.753,81.086 239.665 L 81.720 239.506 81.715 235.008 C 81.705 228.073,79.807 225.721,75.672 227.523 M88.174 227.579 C 84.014 229.383,83.393 237.008,87.230 239.161 C 90.248 240.853,95.430 239.971,95.430 237.765 C 95.430 236.595,95.192 236.477,93.812 236.964 C 90.989 237.960,88.172 237.030,88.172 235.101 L 88.172 234.409 91.747 234.409 C 95.717 234.409,95.969 234.313,95.966 232.809 C 95.959 228.483,92.086 225.882,88.174 227.579 M175.164 227.967 C 174.239 228.779,174.233 228.780,174.146 228.169 C 174.069 227.622,173.911 227.554,172.715 227.554 L 171.371 227.554 171.298 233.449 C 171.218 239.984,171.161 239.774,173.018 239.781 C 174.658 239.787,174.761 239.526,174.715 235.486 L 174.675 231.943 175.440 231.144 C 176.067 230.490,176.392 230.358,177.231 230.419 C 178.382 230.502,178.753 230.145,178.759 228.947 C 178.770 226.951,176.901 226.442,175.164 227.967 M202.924 227.571 C 201.360 228.052,201.019 228.466,201.125 229.753 C 201.222 230.929,201.270 230.936,203.594 230.106 C 205.946 229.265,207.527 229.798,207.527 231.432 C 207.527 232.164,207.486 232.184,205.654 232.337 C 202.070 232.638,200.386 233.920,200.422 236.320 C 200.470 239.455,204.173 241.071,207.127 239.245 L 208.001 238.705 208.146 239.262 C 208.270 239.734,208.467 239.805,209.455 239.734 L 210.618 239.651 210.692 234.866 C 210.778 229.247,210.601 228.591,208.761 227.700 C 207.408 227.045,204.818 226.987,202.924 227.571 M231.586 227.555 C 228.687 228.580,227.081 232.821,228.267 236.317 C 229.989 241.395,238.021 241.207,239.748 236.049 C 241.675 230.293,237.151 225.586,231.586 227.555 M50.932 227.748 C 50.857 227.944,50.828 230.703,50.868 233.878 L 50.941 239.651 52.419 239.651 L 53.898 239.651 53.898 233.602 L 53.898 227.554 52.484 227.472 C 51.495 227.416,51.028 227.499,50.932 227.748 M133.452 227.767 C 133.317 228.119,137.154 238.794,137.626 239.380 C 137.746 239.529,137.472 240.597,137.018 241.755 C 136.101 244.089,136.179 244.343,137.819 244.351 C 139.791 244.360,139.704 244.513,142.573 236.061 C 145.516 227.390,145.513 227.419,143.543 227.419 C 141.953 227.419,142.092 227.197,140.571 232.187 C 140.065 233.848,139.590 235.209,139.516 235.211 C 139.442 235.213,138.776 233.491,138.037 231.384 L 136.694 227.554 135.145 227.473 C 134.011 227.414,133.557 227.493,133.452 227.767 M214.695 227.599 C 214.265 228.029,214.499 239.452,214.941 239.622 C 215.665 239.899,217.349 239.802,217.688 239.462 C 218.029 239.122,218.172 228.690,217.848 227.845 C 217.680 227.409,215.087 227.206,214.695 227.599 M241.935 228.032 C 241.935 228.798,245.295 238.895,245.721 239.408 C 246.041 239.793,248.732 239.945,249.566 239.625 C 250.039 239.443,253.891 228.112,253.626 227.683 C 253.536 227.538,252.810 227.419,252.012 227.419 L 250.561 227.419 249.490 230.847 C 248.901 232.732,248.338 234.607,248.239 235.013 C 247.977 236.093,247.733 235.928,247.245 234.341 C 247.006 233.565,246.430 231.690,245.965 230.175 L 245.120 227.419 243.528 227.419 C 242.050 227.419,241.935 227.463,241.935 228.032 M32.247 229.833 C 32.679 230.064,33.333 231.387,33.333 232.029 C 33.333 232.155,32.305 232.258,31.048 232.258 C 28.779 232.258,28.763 232.253,28.763 231.574 C 28.763 230.098,30.821 229.070,32.247 229.833 M63.218 230.015 C 63.826 230.565,63.865 232.064,63.287 232.642 C 62.215 233.714,60.215 232.896,60.215 231.386 C 60.215 229.783,62.041 228.949,63.218 230.015 M91.520 229.737 C 92.003 229.922,92.742 231.195,92.742 231.841 C 92.742 232.185,92.341 232.258,90.457 232.258 C 87.941 232.258,87.802 232.140,88.570 230.656 C 89.096 229.637,90.291 229.265,91.520 229.737 M104.947 230.214 C 107.871 231.436,107.150 237.097,104.070 237.097 C 101.206 237.097,101.119 230.542,103.974 229.857 C 104.015 229.847,104.453 230.007,104.947 230.214 M235.863 230.666 C 238.496 233.795,234.809 239.527,232.093 236.526 C 231.185 235.522,231.356 231.334,232.340 230.487 C 233.469 229.517,234.960 229.592,235.863 230.666 M127.706 230.981 C 129.033 233.098,127.949 237.097,126.049 237.097 C 123.750 237.097,122.582 232.736,124.378 230.861 C 125.455 229.738,126.960 229.792,127.706 230.981 M207.475 235.514 C 207.330 237.448,204.412 238.438,203.792 236.763 C 203.292 235.412,204.429 234.441,206.534 234.419 L 207.558 234.409 207.475 235.514 M179.446 236.115 C 178.837 236.560,178.719 238.680,179.267 239.340 C 179.846 240.039,181.850 239.940,182.377 239.187 C 183.793 237.166,181.416 234.674,179.446 236.115 M63.996 239.526 C 64.702 239.903,64.659 240.999,63.919 241.517 C 62.569 242.463,59.677 241.879,59.677 240.661 C 59.677 239.425,62.448 238.697,63.996 239.526 M53.417 245.866 C 53.312 245.971,53.226 247.425,53.226 249.096 L 53.226 252.134 52.247 251.470 C 47.999 248.588,43.733 254.120,45.446 260.290 C 46.329 263.467,49.901 264.622,52.661 262.623 L 53.730 261.849 53.814 262.578 C 53.891 263.250,53.992 263.306,55.108 263.306 L 56.317 263.306 56.317 254.570 L 56.317 245.833 54.963 245.754 C 54.218 245.710,53.522 245.761,53.417 245.866 M126.676 254.489 L 126.747 263.306 127.658 263.393 C 129.750 263.593,129.812 263.506,129.897 260.227 L 129.973 257.288 131.804 260.229 C 133.749 263.352,134.004 263.549,135.910 263.392 C 137.440 263.267,137.358 262.865,135.084 259.323 L 133.054 256.161 134.957 254.002 C 137.192 251.465,137.197 251.236,135.017 251.130 L 133.383 251.051 131.678 253.398 L 129.973 255.746 129.839 250.790 L 129.704 245.833 128.155 245.753 L 126.606 245.672 126.676 254.489 M80.914 246.505 C 79.673 247.746,80.551 249.462,82.427 249.462 C 83.788 249.462,84.140 249.094,84.140 247.671 C 84.140 245.980,82.156 245.263,80.914 246.505 M162.857 246.246 C 162.170 246.647,161.969 248.018,162.482 248.801 C 163.573 250.466,166.424 249.265,165.997 247.321 C 165.727 246.094,164.083 245.531,162.857 246.246 M9.562 247.197 C 9.198 247.561,9.140 248.682,9.140 255.367 C 9.140 263.901,9.044 263.445,10.842 263.437 C 12.374 263.429,12.350 263.533,12.428 256.573 L 12.500 250.134 14.741 256.633 C 17.083 263.426,17.094 263.444,18.772 263.437 C 20.250 263.431,20.203 263.512,22.675 256.586 L 24.978 250.134 24.989 256.624 C 25.001 263.838,24.891 263.441,26.888 263.441 C 28.316 263.441,28.260 263.785,28.234 255.193 C 28.207 246.317,28.340 246.774,25.789 246.774 C 23.174 246.774,23.017 246.971,20.798 253.021 C 19.783 255.792,18.885 258.060,18.804 258.061 C 18.724 258.063,17.826 255.758,16.809 252.940 C 14.630 246.897,14.530 246.774,11.811 246.774 C 10.509 246.774,9.863 246.896,9.562 247.197 M109.319 246.953 C 108.854 247.418,109.142 259.254,109.645 260.361 C 111.352 264.118,118.111 264.835,121.060 261.571 C 122.405 260.082,122.629 258.664,122.530 252.285 L 122.446 246.909 120.833 246.909 L 119.220 246.909 119.086 252.823 C 118.993 256.913,118.846 258.922,118.608 259.339 C 117.706 260.916,114.836 261.194,113.476 259.836 L 112.769 259.129 112.686 253.297 C 112.635 249.687,112.495 247.333,112.317 247.119 C 112.022 246.764,109.640 246.632,109.319 246.953 M34.074 251.220 C 32.586 251.696,31.881 252.566,32.141 253.603 C 32.393 254.606,32.635 254.663,33.906 254.014 C 36.286 252.800,38.710 253.415,38.710 255.232 C 38.710 255.788,38.552 255.848,36.693 256.006 C 33.210 256.300,31.728 257.332,31.532 259.601 C 31.208 263.367,34.822 264.736,39.011 262.436 C 39.104 262.385,39.245 262.598,39.327 262.909 C 39.453 263.391,39.645 263.462,40.638 263.390 L 41.801 263.306 41.871 258.602 C 41.948 253.426,41.765 252.619,40.267 251.521 C 39.293 250.807,35.883 250.642,34.074 251.220 M63.174 251.235 C 58.907 253.085,58.402 260.956,62.429 262.854 C 65.770 264.430,70.430 263.595,70.430 261.421 C 70.430 260.251,70.192 260.133,68.812 260.620 C 65.989 261.616,63.172 260.686,63.172 258.757 L 63.172 258.065 66.768 258.065 C 71.065 258.065,71.125 258.029,70.874 255.633 C 70.462 251.688,66.866 249.634,63.174 251.235 M92.155 251.353 C 91.610 251.641,91.070 252.028,90.956 252.213 C 90.815 252.441,90.698 252.335,90.591 251.879 C 90.449 251.277,90.299 251.210,89.101 251.210 L 87.769 251.210 87.696 257.184 L 87.624 263.159 88.264 263.320 C 88.616 263.408,89.314 263.441,89.815 263.393 L 90.726 263.306 90.801 259.413 L 90.876 255.520 91.727 254.642 C 92.344 254.005,92.819 253.763,93.451 253.763 C 94.963 253.763,95.161 254.374,95.161 259.036 C 95.161 263.563,95.110 263.441,97.032 263.441 C 98.649 263.441,98.723 263.197,98.616 258.272 C 98.470 251.543,96.265 249.182,92.155 251.353 M143.443 251.623 C 142.519 252.435,142.513 252.436,142.426 251.825 C 142.348 251.278,142.190 251.210,140.995 251.210 L 139.651 251.210 139.578 256.955 C 139.497 263.386,139.511 263.441,141.243 263.441 C 142.932 263.441,143.011 263.254,143.011 259.241 C 143.011 254.905,143.402 254.124,145.644 253.979 L 146.909 253.898 146.992 252.736 C 147.145 250.616,145.263 250.026,143.443 251.623 M150.865 251.202 C 149.314 251.686,148.925 252.061,148.925 253.071 C 148.925 254.410,149.323 254.602,150.766 253.959 C 153.351 252.808,155.376 253.318,155.376 255.120 C 155.376 255.812,155.313 255.841,153.503 255.993 C 149.901 256.295,148.327 257.495,148.346 259.924 C 148.370 263.034,152.015 264.731,154.875 262.964 L 155.850 262.361 155.996 262.918 C 156.119 263.390,156.317 263.461,157.304 263.390 L 158.468 263.306 158.541 258.541 C 158.629 252.843,158.448 252.152,156.663 251.341 C 155.299 250.722,152.608 250.658,150.865 251.202 M174.329 251.230 C 173.885 251.461,173.331 251.823,173.098 252.035 C 172.494 252.581,172.312 252.515,172.312 251.747 C 172.312 251.120,172.223 251.075,170.963 251.075 L 169.614 251.075 169.686 257.191 L 169.758 263.306 170.669 263.393 C 172.873 263.604,172.849 263.650,172.849 259.159 L 172.849 255.155 173.677 254.459 C 176.122 252.402,177.151 253.821,177.151 259.251 C 177.151 263.637,177.133 263.603,179.331 263.393 L 180.242 263.306 180.312 258.602 C 180.391 253.295,180.203 252.539,178.522 251.417 C 177.430 250.687,175.532 250.603,174.329 251.230 M186.694 251.315 C 184.507 252.324,183.529 254.148,183.507 257.258 C 183.474 262.075,186.252 264.314,191.220 263.476 C 193.772 263.045,194.086 262.836,194.086 261.566 C 194.086 260.260,193.912 260.150,192.590 260.621 C 189.803 261.614,187.299 260.869,186.928 258.938 L 186.761 258.065 190.370 258.065 C 194.518 258.065,194.626 258.013,194.618 256.062 C 194.600 251.971,190.540 249.539,186.694 251.315 M80.824 251.254 C 80.394 251.685,80.628 263.108,81.070 263.278 C 81.794 263.555,83.478 263.458,83.817 263.118 C 84.158 262.778,84.301 252.346,83.977 251.500 C 83.809 251.065,81.217 250.862,80.824 251.254 M162.557 251.243 C 162.208 251.591,162.332 262.762,162.688 263.118 C 163.131 263.561,165.185 263.527,165.564 263.071 C 165.778 262.812,165.849 260.967,165.798 256.955 L 165.726 251.210 164.237 251.131 C 163.418 251.087,162.662 251.138,162.557 251.243 M66.905 253.696 C 67.217 253.955,67.547 254.560,67.640 255.040 L 67.809 255.914 65.491 255.914 C 62.938 255.914,62.801 255.799,63.570 254.312 C 64.179 253.133,65.854 252.824,66.905 253.696 M190.841 253.934 C 192.063 255.488,191.685 255.914,189.084 255.914 L 186.770 255.914 186.953 255.175 C 187.435 253.232,189.716 252.504,190.841 253.934 M51.429 253.797 C 54.401 255.328,53.714 260.753,50.548 260.753 C 48.372 260.753,47.597 256.125,49.461 254.261 C 50.308 253.414,50.567 253.353,51.429 253.797 M38.710 258.959 C 38.710 261.066,35.415 262.116,34.808 260.202 C 34.416 258.967,35.497 258.181,37.702 258.101 C 38.672 258.066,38.710 258.098,38.710 258.959 M155.376 259.144 C 155.376 260.805,153.131 261.964,152.035 260.868 C 150.776 259.608,152.036 258.099,154.368 258.075 C 155.368 258.065,155.376 258.074,155.376 259.144 " stroke="none" fill="#000000" fill-rule="evenodd"></path></g></svg>