<svg id="svg" xmlns="http://www.w3.org/2000/svg" xmlns:xlink="http://www.w3.org/1999/xlink" width="400" height="65.6" viewBox="0, 0, 400,65.6"><g id="svgg"><path id="path0" d="M13.418 4.462 C 12.833 4.671,12.213 5.212,11.888 5.800 C 11.684 6.169,11.667 8.229,11.667 32.333 C 11.667 61.879,11.551 58.847,12.712 59.786 L 13.225 60.200 25.366 60.235 C 37.259 60.270,37.518 60.265,38.056 60.005 C 38.812 59.639,48.446 49.974,48.729 49.298 C 49.041 48.551,49.039 15.844,48.727 15.097 C 48.193 13.820,38.632 4.721,37.490 4.404 C 36.672 4.177,14.066 4.231,13.418 4.462 M55.384 4.411 C 55.156 4.478,54.727 4.794,54.433 5.114 L 53.896 5.695 53.806 7.614 C 53.573 12.582,53.788 58.713,54.046 59.139 C 54.890 60.533,57.169 60.611,57.995 59.275 C 58.263 58.841,58.267 58.679,58.267 46.376 L 58.267 33.917 69.700 45.371 C 81.651 57.344,83.791 59.415,84.711 59.897 C 86.836 61.010,88.931 59.258,88.183 56.990 C 87.986 56.391,87.019 55.383,77.085 45.433 L 66.204 34.533 73.135 34.530 C 79.412 34.527,80.113 34.505,80.560 34.297 C 81.265 33.968,87.798 27.247,88.136 26.503 C 88.472 25.763,88.546 13.275,88.219 12.493 C 87.747 11.362,81.496 5.183,80.228 4.593 L 79.533 4.269 67.667 4.280 C 61.027 4.286,55.617 4.344,55.384 4.411 M94.267 4.549 C 93.844 4.717,93.101 5.424,92.855 5.893 C 92.580 6.419,92.571 58.047,92.846 58.704 C 93.458 60.166,95.339 60.707,96.523 59.762 C 97.554 58.939,97.466 61.191,97.466 35.488 L 97.467 12.508 108.206 23.245 C 119.787 34.823,119.461 34.533,120.913 34.533 C 122.367 34.533,121.961 34.893,133.431 23.431 L 144.130 12.741 144.165 35.537 L 144.200 58.333 144.479 58.867 C 145.619 61.051,148.568 60.552,148.944 58.112 C 149.199 56.456,149.040 6.273,148.779 5.800 C 148.074 4.527,146.793 4.076,145.523 4.653 C 144.683 5.034,141.964 7.648,131.112 18.506 C 125.600 24.021,121.012 28.533,120.916 28.533 C 120.819 28.533,115.849 23.655,109.870 17.692 C 103.892 11.729,98.557 6.443,98.016 5.944 C 96.548 4.593,95.314 4.134,94.267 4.549 M279.533 5.333 C 277.378 5.453,276.218 6.941,276.934 8.668 C 277.496 10.024,278.016 10.132,284.032 10.133 L 289.063 10.133 289.098 34.657 L 289.133 59.180 289.412 59.557 C 290.450 60.957,292.520 60.875,293.378 59.400 C 293.494 59.201,293.550 52.928,293.600 34.667 L 293.667 10.200 299.200 10.133 C 305.196 10.061,304.994 10.088,305.713 9.269 C 306.813 8.017,306.133 5.679,304.585 5.388 C 304.062 5.290,281.213 5.240,279.533 5.333 M326.533 5.324 C 324.782 5.393,324.546 5.432,324.043 5.733 C 323.229 6.222,314.686 14.721,314.456 15.272 C 314.116 16.086,314.179 50.108,314.522 50.772 C 314.887 51.480,323.384 59.887,324.133 60.283 L 324.733 60.600 331.933 60.600 L 339.133 60.600 339.667 60.278 C 340.413 59.827,348.898 51.376,349.211 50.772 C 350.040 49.171,348.901 47.288,347.104 47.290 C 345.986 47.291,345.657 47.513,343.200 49.926 C 340.551 52.528,337.574 55.198,336.933 55.546 C 336.500 55.782,336.137 55.800,331.867 55.800 L 327.267 55.800 326.642 55.433 C 325.175 54.570,319.849 49.399,319.335 48.337 C 318.903 47.444,318.915 18.421,319.348 17.571 C 319.885 16.518,325.614 11.018,326.828 10.389 C 327.288 10.151,327.645 10.133,331.895 10.135 L 336.467 10.137 337.038 10.463 C 337.718 10.852,339.433 12.404,342.796 15.673 C 345.401 18.206,346.054 18.667,347.033 18.667 C 348.853 18.667,350.014 16.860,349.240 15.230 C 348.880 14.471,340.420 6.146,339.565 5.711 L 338.867 5.354 333.667 5.301 C 330.807 5.272,327.596 5.282,326.533 5.324 M195.000 5.583 C 193.877 6.280,193.496 7.354,193.856 8.800 C 194.073 9.671,196.908 20.423,198.127 25.000 C 198.498 26.393,199.131 28.793,199.535 30.333 C 199.938 31.873,200.690 34.723,201.206 36.667 C 203.002 43.437,203.631 45.817,204.326 48.467 C 207.637 61.094,207.394 60.533,209.562 60.533 C 211.137 60.533,211.686 59.817,213.010 56.027 C 213.540 54.509,214.494 51.797,215.129 50.000 C 215.764 48.203,216.728 45.450,217.271 43.882 C 217.814 42.314,218.290 40.999,218.329 40.960 C 218.464 40.824,218.563 41.062,219.627 44.090 C 220.215 45.764,221.203 48.573,221.823 50.333 C 222.442 52.093,223.302 54.560,223.732 55.815 C 225.094 59.787,225.574 60.427,227.254 60.511 C 228.986 60.599,229.485 59.928,230.461 56.200 C 231.489 52.270,232.781 47.380,233.261 45.600 C 233.508 44.683,233.962 42.973,234.270 41.800 C 235.685 36.401,236.293 34.093,237.132 30.933 C 238.749 24.844,240.045 19.929,241.648 13.800 C 242.050 12.260,242.534 10.468,242.723 9.818 C 243.260 7.972,243.173 6.884,242.425 6.084 C 241.468 5.060,239.867 5.062,238.915 6.088 C 238.238 6.817,238.500 5.943,235.128 18.733 C 234.239 22.105,232.822 27.471,231.976 30.667 C 231.617 32.023,230.937 34.603,230.466 36.400 C 229.994 38.197,229.272 40.927,228.860 42.467 C 228.448 44.007,227.858 46.251,227.547 47.455 L 226.983 49.644 226.144 47.255 C 225.682 45.941,224.830 43.517,224.250 41.867 C 220.122 30.115,220.435 30.673,218.064 30.824 C 216.639 30.915,216.248 31.405,215.161 34.467 C 213.907 38.000,212.377 42.339,211.401 45.133 C 210.208 48.549,209.929 49.316,209.847 49.398 C 209.812 49.433,209.562 48.607,209.292 47.564 C 209.022 46.520,208.442 44.317,208.002 42.667 C 207.563 41.017,206.786 38.077,206.275 36.133 C 204.355 28.824,204.134 27.986,203.264 24.733 C 202.773 22.900,202.085 20.290,201.734 18.933 C 198.564 6.690,198.470 6.407,197.335 5.633 C 196.762 5.244,195.587 5.218,195.000 5.583 M256.067 5.488 C 255.598 5.746,254.917 6.452,254.673 6.933 C 254.445 7.382,249.191 23.114,246.414 31.667 C 245.676 33.940,243.505 40.510,241.589 46.267 C 237.437 58.747,237.420 58.829,238.748 59.995 C 239.810 60.928,241.059 60.854,242.092 59.797 L 242.784 59.089 244.402 54.111 C 247.453 44.728,247.627 44.228,247.947 43.908 L 248.255 43.600 256.909 43.600 C 265.269 43.600,265.575 43.609,265.892 43.858 C 266.264 44.150,266.514 44.788,269.670 53.467 C 271.078 57.337,271.640 58.777,271.943 59.296 C 273.254 61.532,276.378 60.837,276.503 58.281 C 276.543 57.469,276.462 57.155,275.462 54.267 C 274.865 52.543,273.156 47.503,271.663 43.067 C 263.152 17.766,259.704 7.662,259.330 6.933 C 258.671 5.650,257.065 4.939,256.067 5.488 M358.733 5.576 C 357.229 6.542,357.320 4.645,357.364 34.155 L 357.400 58.867 357.710 59.364 C 358.595 60.789,360.238 61.057,361.417 59.970 C 362.276 59.178,362.265 59.301,362.267 50.667 L 362.268 42.867 362.567 42.400 C 363.189 41.429,369.223 35.662,369.877 35.413 C 370.936 35.011,376.296 35.147,376.933 35.593 C 377.530 36.011,383.591 41.919,383.899 42.383 C 384.113 42.706,384.132 43.340,384.136 50.467 C 384.140 58.281,384.178 58.969,384.637 59.590 C 385.982 61.407,388.599 60.764,388.944 58.531 C 389.208 56.820,389.043 40.549,388.756 40.000 C 388.348 39.217,380.439 31.441,379.663 31.060 L 379.000 30.733 373.200 30.733 L 367.400 30.733 366.822 31.042 C 366.503 31.212,365.363 32.186,364.288 33.207 L 362.333 35.063 362.267 21.032 C 362.192 5.359,362.272 6.558,361.251 5.779 C 360.607 5.288,359.341 5.186,358.733 5.576 M35.800 9.385 C 36.492 9.712,43.456 16.742,44.003 17.667 L 44.397 18.333 44.399 32.239 C 44.400 46.140,44.400 46.144,44.117 46.705 C 43.689 47.557,36.521 54.716,35.675 55.137 L 35.014 55.467 25.789 55.467 L 16.563 55.467 16.490 55.033 C 16.356 54.232,16.415 9.555,16.551 9.300 C 16.754 8.920,34.985 9.000,35.800 9.385 M77.733 9.345 C 78.505 9.694,82.956 14.087,83.337 14.874 C 83.728 15.682,83.741 23.267,83.352 24.029 C 82.987 24.746,78.324 29.535,77.746 29.788 C 77.329 29.970,76.116 30.002,68.400 30.032 C 58.972 30.069,59.291 30.047,58.567 30.707 L 58.267 30.980 58.267 20.101 C 58.267 11.523,58.302 9.208,58.433 9.155 C 59.051 8.906,77.157 9.083,77.733 9.345 M258.682 20.573 C 262.260 31.045,264.719 38.525,264.619 38.626 C 264.505 38.740,249.668 38.780,249.557 38.667 C 249.522 38.630,250.888 34.400,252.593 29.267 C 254.299 24.133,255.983 19.018,256.336 17.900 C 256.689 16.782,257.011 15.900,257.052 15.940 C 257.092 15.981,257.826 18.066,258.682 20.573 " stroke="none" fill="#000000" fill-rule="evenodd"></path></g></svg>