%TF.GenerationSoftware,KiCad,Pcbnew,7.0.9*%
%TF.CreationDate,2024-03-02T15:09:24+02:00*%
%TF.ProjectId,DRM_Watch_V3,44524d5f-5761-4746-9368-5f56332e6b69,rev?*%
%TF.SameCoordinates,Original*%
%TF.FileFunction,Copper,L2,Bot*%
%TF.FilePolarity,Positive*%
%FSLAX46Y46*%
G04 Gerber Fmt 4.6, Leading zero omitted, Abs format (unit mm)*
G04 Created by KiCad (PCBNEW 7.0.9) date 2024-03-02 15:09:24*
%MOMM*%
%LPD*%
G01*
G04 APERTURE LIST*
%TA.AperFunction,ComponentPad*%
%ADD10C,0.500000*%
%TD*%
%TA.AperFunction,SMDPad,CuDef*%
%ADD11R,4.000000X4.000000*%
%TD*%
%TA.AperFunction,ComponentPad*%
%ADD12C,3.500000*%
%TD*%
%TA.AperFunction,ComponentPad*%
%ADD13C,0.700000*%
%TD*%
%TA.AperFunction,ComponentPad*%
%ADD14O,2.000000X0.900000*%
%TD*%
%TA.AperFunction,ComponentPad*%
%ADD15O,1.700000X0.900000*%
%TD*%
%TA.AperFunction,SMDPad,CuDef*%
%ADD16C,1.200000*%
%TD*%
%TA.AperFunction,ViaPad*%
%ADD17C,0.800000*%
%TD*%
%TA.AperFunction,Conductor*%
%ADD18C,0.150000*%
%TD*%
%TA.AperFunction,Conductor*%
%ADD19C,0.250000*%
%TD*%
%TA.AperFunction,Conductor*%
%ADD20C,0.200000*%
%TD*%
G04 APERTURE END LIST*
D10*
%TO.P,U1,57,GND*%
%TO.N,GND*%
X115196319Y-51487182D03*
X115196319Y-53237182D03*
X115196319Y-54987182D03*
X116946319Y-51487182D03*
X116946319Y-53237182D03*
D11*
X116946319Y-53237182D03*
D10*
X116946319Y-54987182D03*
X118696319Y-51487182D03*
X118696319Y-53237182D03*
X118696319Y-54987182D03*
%TD*%
D12*
%TO.P,M2,1*%
%TO.N,GND*%
X124460000Y-47752000D03*
%TD*%
D13*
%TO.P,S2,3,Shield*%
%TO.N,GND*%
X67518000Y-64428000D03*
X67518000Y-66128000D03*
%TD*%
%TO.P,S1,3,Shield*%
%TO.N,GND*%
X67518000Y-51220000D03*
X67518000Y-52920000D03*
%TD*%
%TO.P,S4,3,Shield*%
%TO.N,GND*%
X67518000Y-77636000D03*
X67518000Y-79336000D03*
%TD*%
D12*
%TO.P,M3,1*%
%TO.N,GND*%
X95250000Y-48006000D03*
%TD*%
D13*
%TO.P,S3,3,Shield*%
%TO.N,GND*%
X123637000Y-79678000D03*
X123637000Y-77978000D03*
%TD*%
D12*
%TO.P,M1,1*%
%TO.N,GND*%
X71120000Y-83312000D03*
%TD*%
D14*
%TO.P,J1,S1,SHIELD*%
%TO.N,GND*%
X122500000Y-69356000D03*
%TO.P,J1,S2,SHIELD*%
X122500000Y-60706000D03*
D15*
%TO.P,J1,S3,SHIELD*%
X126670000Y-69356000D03*
%TO.P,J1,S4,SHIELD*%
X126670000Y-60706000D03*
%TD*%
D16*
%TO.P,TP15,1,1*%
%TO.N,Net-(U1-GPIO5{slash}ADC1_CH4)*%
X96520000Y-76962000D03*
%TD*%
%TO.P,TP38,1,1*%
%TO.N,Net-(U1-GPIO8{slash}ADC1_CH7)*%
X86500000Y-77000000D03*
%TD*%
%TO.P,TP9,1,1*%
%TO.N,GND*%
X85852000Y-49149000D03*
%TD*%
%TO.P,TP24,1,1*%
%TO.N,Net-(J1-DP1)*%
X123500000Y-64262000D03*
%TD*%
%TO.P,TP36,1,1*%
%TO.N,Net-(U1-GPIO34)*%
X124000000Y-54000000D03*
%TD*%
%TO.P,TP5,1,1*%
%TO.N,Net-(U1-GPIO2{slash}ADC1_CH1)*%
X82000000Y-70500000D03*
%TD*%
%TO.P,TP16,1,1*%
%TO.N,Net-(U1-GPIO6{slash}ADC1_CH5)*%
X97663000Y-78867000D03*
%TD*%
%TO.P,TP20,1,1*%
%TO.N,Net-(U1-GPIO37)*%
X76500000Y-73500000D03*
%TD*%
%TO.P,TP12,1,1*%
%TO.N,Net-(U1-GPIO3{slash}ADC1_CH2)*%
X126500000Y-57000000D03*
%TD*%
%TO.P,TP11,1,1*%
%TO.N,Net-(U1-GPIO4{slash}ADC1_CH3)*%
X88000000Y-45000000D03*
%TD*%
%TO.P,TP30,1,1*%
%TO.N,Net-(U1-GPIO35)*%
X110998000Y-83058000D03*
%TD*%
%TO.P,TP37,1,1*%
%TO.N,Net-(U1-GPIO13{slash}ADC2_CH2)*%
X114821319Y-59885182D03*
%TD*%
%TO.P,TP14,1,1*%
%TO.N,Net-(U1-GPIO11{slash}ADC2_CH0)*%
X95377000Y-78867000D03*
%TD*%
%TO.P,TP34,1,1*%
%TO.N,Net-(U1-GPIO21)*%
X120321319Y-57385182D03*
%TD*%
%TO.P,TP1,1,1*%
%TO.N,+3V3*%
X101500000Y-47500000D03*
%TD*%
%TO.P,TP7,1,1*%
%TO.N,VBUS*%
X125000000Y-62500000D03*
%TD*%
%TO.P,TP31,1,1*%
%TO.N,Net-(U1-GPIO14{slash}ADC2_CH3)*%
X116483332Y-61350058D03*
%TD*%
%TO.P,TP4,1,1*%
%TO.N,Net-(U1-GPIO1{slash}ADC1_CH0)*%
X75500000Y-62500000D03*
%TD*%
%TO.P,TP19,1,1*%
%TO.N,Net-(U1-GPIO36)*%
X74500000Y-57000000D03*
%TD*%
%TO.P,TP29,1,1*%
%TO.N,Net-(U1-GPIO33)*%
X108712000Y-83058000D03*
%TD*%
%TO.P,TP6,1,1*%
%TO.N,GND*%
X110500000Y-46000000D03*
%TD*%
%TO.P,TP2,1,1*%
%TO.N,VCC*%
X90424000Y-49784000D03*
%TD*%
%TO.P,TP26,1,1*%
%TO.N,Net-(R21-Pad1)*%
X86741000Y-86741000D03*
%TD*%
%TO.P,TP32,1,1*%
%TO.N,Net-(U5-VB)*%
X80772000Y-86741000D03*
%TD*%
%TO.P,TP13,1,1*%
%TO.N,Net-(U1-GPIO7{slash}ADC1_CH6)*%
X94234000Y-76835000D03*
%TD*%
%TO.P,TP22,1,1*%
%TO.N,Net-(U1-GPIO12{slash}ADC2_CH1)*%
X122500000Y-72500000D03*
%TD*%
%TO.P,TP25,1,1*%
%TO.N,Net-(J1-DN1)*%
X125000000Y-66000000D03*
%TD*%
%TO.P,TP23,1,1*%
%TO.N,VBUS*%
X81000000Y-45000000D03*
%TD*%
%TO.P,TP33,1,1*%
%TO.N,Net-(U1-GPIO18{slash}ADC2_CH7{slash}DAC_2)*%
X117821319Y-58885182D03*
%TD*%
%TO.P,TP8,1,1*%
%TO.N,GND*%
X79000000Y-52500000D03*
%TD*%
%TO.P,TP17,1,1*%
%TO.N,GND*%
X99949000Y-78867000D03*
%TD*%
%TO.P,TP3,1,1*%
%TO.N,Net-(U1-GPIO0{slash}BOOT)*%
X72000000Y-54500000D03*
%TD*%
%TO.P,TP18,1,1*%
%TO.N,+3V3*%
X98806000Y-76962000D03*
%TD*%
%TO.P,TP21,1,1*%
%TO.N,Net-(U1-GPIO38)*%
X73500000Y-70500000D03*
%TD*%
%TO.P,TP35,1,1*%
%TO.N,Net-(U1-GPIO45)*%
X117500000Y-48500000D03*
%TD*%
%TO.P,TP10,1,1*%
%TO.N,Net-(U1-CHIP_PU{slash}RESET)*%
X122000000Y-84500000D03*
%TD*%
D17*
%TO.N,GND*%
X74000000Y-66500000D03*
X76000000Y-70500000D03*
X87000000Y-71500000D03*
X88000000Y-51000000D03*
X78000000Y-54500000D03*
X82000000Y-55500000D03*
X93000000Y-55500000D03*
X95500000Y-63000000D03*
X122500000Y-45500000D03*
X110269252Y-51321865D03*
%TO.N,Net-(U1-GPIO2{slash}ADC1_CH1)*%
X82500000Y-70500000D03*
%TO.N,VCC*%
X113500000Y-63000000D03*
X98500000Y-62500000D03*
X90297000Y-49657000D03*
%TO.N,+3V3*%
X121500000Y-48000000D03*
X101500000Y-47500000D03*
X98786004Y-76981996D03*
X112000000Y-48000000D03*
%TO.N,Net-(J1-DP1)*%
X123500000Y-64500000D03*
%TO.N,Net-(J1-DN1)*%
X125000000Y-66000000D03*
%TO.N,GND*%
X123500000Y-55500000D03*
X77851000Y-46736000D03*
X90000000Y-77000000D03*
X113000000Y-79500000D03*
X68500000Y-85500000D03*
X99949000Y-78867002D03*
X102500000Y-69000000D03*
X71501000Y-45847000D03*
X109000000Y-77500000D03*
X121463044Y-61026906D03*
X126500000Y-52500000D03*
X109000000Y-66500000D03*
X83500000Y-75000000D03*
X81000000Y-65500000D03*
X110500000Y-46000000D03*
X85979002Y-49276001D03*
X99000000Y-48000000D03*
X91500000Y-61000000D03*
X72500000Y-78000000D03*
X125500000Y-84500000D03*
X105000000Y-51000000D03*
X126500000Y-78000000D03*
X110000000Y-60500000D03*
X95500000Y-83500000D03*
X73000000Y-60000000D03*
X116500000Y-67500000D03*
X112500000Y-58000000D03*
X90000000Y-83000000D03*
%TO.N,Net-(U1-GPIO7{slash}ADC1_CH6)*%
X94361000Y-76530498D03*
X95290644Y-70742408D03*
X98000000Y-68000000D03*
%TO.N,Net-(U1-GPIO5{slash}ADC1_CH4)*%
X96520000Y-76962004D03*
%TO.N,Net-(U1-GPIO11{slash}ADC2_CH0)*%
X95503992Y-78740000D03*
X98500000Y-71500000D03*
X96000000Y-73000000D03*
%TO.N,Net-(U1-GPIO6{slash}ADC1_CH5)*%
X97663000Y-78867010D03*
%TO.N,Net-(U1-GPIO0{slash}BOOT)*%
X72000000Y-54500000D03*
%TO.N,Net-(U1-GPIO1{slash}ADC1_CH0)*%
X76000000Y-62000000D03*
%TO.N,Net-(U1-CHIP_PU{slash}RESET)*%
X124000000Y-74500000D03*
X113999984Y-49000000D03*
X121500000Y-84500000D03*
%TO.N,Net-(U1-GPIO12{slash}ADC2_CH1)*%
X122000000Y-71500000D03*
%TO.N,Net-(U1-GPIO33)*%
X108712000Y-83058000D03*
X121631589Y-53086184D03*
%TO.N,VBUS*%
X127000000Y-59000000D03*
X120804250Y-67434643D03*
X80899000Y-45212000D03*
X120650703Y-62649509D03*
X84000000Y-46000000D03*
X124500000Y-62500000D03*
%TO.N,Net-(U1-GPIO35)*%
X123106070Y-52893938D03*
X108458000Y-85598000D03*
%TO.N,Net-(D5-A)*%
X70500000Y-67500000D03*
X70500000Y-60500000D03*
%TO.N,Net-(U1-GPIO4{slash}ADC1_CH3)*%
X85500000Y-54000000D03*
X87884000Y-44831000D03*
%TO.N,Net-(U1-GPIO3{slash}ADC1_CH2)*%
X107825000Y-53712182D03*
X125500000Y-54500000D03*
X126000000Y-57500000D03*
%TO.N,Net-(U1-GPIO36)*%
X124500000Y-52500000D03*
X100000000Y-57500000D03*
X74000000Y-57000000D03*
X104000000Y-58500000D03*
%TO.N,Net-(U1-GPIO37)*%
X71500000Y-72500000D03*
X124500000Y-51500000D03*
X104500008Y-57000000D03*
X97500000Y-58500000D03*
%TO.N,Net-(U1-GPIO38)*%
X86500000Y-68000000D03*
X122000000Y-50000000D03*
X103000000Y-55000000D03*
X71000000Y-70500000D03*
%TO.N,Net-(U1-GPIO14{slash}ADC2_CH3)*%
X114821319Y-61385182D03*
%TO.N,Net-(U1-GPIO18{slash}ADC2_CH7{slash}DAC_2)*%
X117321319Y-57975000D03*
%TO.N,Net-(U1-GPIO21)*%
X120321319Y-57385182D03*
%TO.N,Net-(U1-GPIO45)*%
X117500000Y-48500000D03*
%TO.N,Net-(U1-GPIO34)*%
X124000000Y-54000000D03*
%TO.N,Net-(U1-GPIO13{slash}ADC2_CH2)*%
X114821319Y-59885182D03*
%TO.N,Net-(R21-Pad1)*%
X86741000Y-86740992D03*
%TO.N,Net-(U1-GPIO8{slash}ADC1_CH7)*%
X86000000Y-77000000D03*
X98500000Y-69500000D03*
%TO.N,Net-(U5-VB)*%
X80772000Y-86741012D03*
%TD*%
D18*
%TO.N,Net-(U1-GPIO38)*%
X108500000Y-54005475D02*
X107505475Y-55000000D01*
X108500000Y-51500000D02*
X108500000Y-54005475D01*
X109687918Y-50312082D02*
X108500000Y-51500000D01*
X107505475Y-55000000D02*
X103000000Y-55000000D01*
X121687918Y-50312082D02*
X109687918Y-50312082D01*
X122000000Y-50000000D02*
X121687918Y-50312082D01*
%TO.N,Net-(U1-GPIO3{slash}ADC1_CH2)*%
X107825000Y-51675000D02*
X107825000Y-53712182D01*
X109500000Y-50000000D02*
X107825000Y-51675000D01*
X121000000Y-49000000D02*
X120000000Y-50000000D01*
X120000000Y-50000000D02*
X109500000Y-50000000D01*
X122000000Y-49000000D02*
X121000000Y-49000000D01*
X125500000Y-54500000D02*
X125500000Y-51000000D01*
X125500000Y-51000000D02*
X125000000Y-50500000D01*
X123500000Y-50500000D02*
X122000000Y-49000000D01*
X125000000Y-50500000D02*
X123500000Y-50500000D01*
%TO.N,Net-(U1-GPIO37)*%
X120000000Y-55066752D02*
X118066752Y-57000000D01*
X120000000Y-53000000D02*
X120000000Y-55066752D01*
X124500000Y-51500000D02*
X121500000Y-51500000D01*
X121500000Y-51500000D02*
X120000000Y-53000000D01*
X118066752Y-57000000D02*
X104500008Y-57000000D01*
%TO.N,Net-(U1-GPIO36)*%
X105200000Y-57300000D02*
X104000000Y-58500000D01*
X120500000Y-54991016D02*
X118191016Y-57300000D01*
X120500000Y-52924264D02*
X120500000Y-54991016D01*
X124000000Y-52000000D02*
X121424264Y-52000000D01*
X124500000Y-52500000D02*
X124000000Y-52000000D01*
X118191016Y-57300000D02*
X105200000Y-57300000D01*
X121424264Y-52000000D02*
X120500000Y-52924264D01*
%TO.N,Net-(U1-GPIO18{slash}ADC2_CH7{slash}DAC_2)*%
X117821319Y-58475000D02*
X117321319Y-57975000D01*
X117821319Y-58885182D02*
X117821319Y-58475000D01*
%TO.N,Net-(U1-GPIO2{slash}ADC1_CH1)*%
X82500000Y-70500000D02*
X82000000Y-70500000D01*
D19*
%TO.N,VCC*%
X98500000Y-62500000D02*
X101000000Y-62500000D01*
D20*
X100000000Y-51500000D02*
X101000000Y-52500000D01*
X113000000Y-63500000D02*
X113500000Y-63000000D01*
X102000000Y-63500000D02*
X113000000Y-63500000D01*
X101000000Y-62500000D02*
X102000000Y-63500000D01*
X92140000Y-51500000D02*
X100000000Y-51500000D01*
X90424000Y-49784000D02*
X92140000Y-51500000D01*
X101000000Y-52500000D02*
X101000000Y-62500000D01*
%TO.N,+3V3*%
X112000000Y-48000000D02*
X112000000Y-49000000D01*
X112000000Y-63000000D02*
X113000000Y-62000000D01*
X114500000Y-62500000D02*
X114500000Y-64500000D01*
X101500000Y-62000000D02*
X102500000Y-63000000D01*
X111500000Y-49500000D02*
X111500000Y-49675000D01*
X103675000Y-49675000D02*
X101500000Y-51850000D01*
X121500000Y-48000000D02*
X119825000Y-49675000D01*
X103675000Y-49675000D02*
X101500000Y-47500000D01*
X114500000Y-64500000D02*
X102018004Y-76981996D01*
X119825000Y-49675000D02*
X111500000Y-49675000D01*
X112000000Y-49000000D02*
X111500000Y-49500000D01*
X114000000Y-62000000D02*
X114500000Y-62500000D01*
X102018004Y-76981996D02*
X98786004Y-76981996D01*
X98806000Y-76962000D02*
X98786004Y-76981996D01*
X111500000Y-49675000D02*
X103675000Y-49675000D01*
X101500000Y-51850000D02*
X101500000Y-62000000D01*
X102500000Y-63000000D02*
X112000000Y-63000000D01*
X113000000Y-62000000D02*
X114000000Y-62000000D01*
D18*
%TO.N,Net-(J1-DP1)*%
X123500000Y-64500000D02*
X123500000Y-64262000D01*
%TO.N,Net-(U1-GPIO7{slash}ADC1_CH6)*%
X94361000Y-76708000D02*
X94234000Y-76835000D01*
X94361000Y-76530498D02*
X94361000Y-76708000D01*
X95000000Y-71000000D02*
X95033052Y-71000000D01*
X98000000Y-68000000D02*
X95000000Y-71000000D01*
X95033052Y-71000000D02*
X95290644Y-70742408D01*
%TO.N,Net-(U1-GPIO5{slash}ADC1_CH4)*%
X96520000Y-76962000D02*
X96520000Y-76962004D01*
%TO.N,Net-(U1-GPIO11{slash}ADC2_CH0)*%
X95503992Y-78740008D02*
X95503992Y-78740000D01*
X95377000Y-78867000D02*
X95503992Y-78740008D01*
X98500000Y-71500000D02*
X97500000Y-71500000D01*
X97500000Y-71500000D02*
X96000000Y-73000000D01*
%TO.N,Net-(U1-GPIO6{slash}ADC1_CH5)*%
X97663000Y-78867000D02*
X97663000Y-78867010D01*
%TO.N,Net-(U1-GPIO1{slash}ADC1_CH0)*%
X76000000Y-62000000D02*
X75500000Y-62500000D01*
D20*
%TO.N,Net-(U1-CHIP_PU{slash}RESET)*%
X127500000Y-54000000D02*
X127500000Y-46500000D01*
X127500000Y-46500000D02*
X125500000Y-44500000D01*
X125000000Y-60823717D02*
X125000000Y-56500000D01*
X125000000Y-68500000D02*
X126500000Y-67000000D01*
X118499984Y-44500000D02*
X113999984Y-49000000D01*
X125000000Y-56500000D02*
X127500000Y-54000000D01*
X126500000Y-62323717D02*
X125000000Y-60823717D01*
X125500000Y-44500000D02*
X118499984Y-44500000D01*
X126500000Y-67000000D02*
X126500000Y-62323717D01*
X121500000Y-84500000D02*
X122000000Y-84500000D01*
X124000000Y-74500000D02*
X125000000Y-73500000D01*
X125000000Y-73500000D02*
X125000000Y-68500000D01*
D18*
%TO.N,Net-(U1-GPIO12{slash}ADC2_CH1)*%
X122000000Y-72000000D02*
X122500000Y-72500000D01*
X122000000Y-71500000D02*
X122000000Y-72000000D01*
D20*
%TO.N,Net-(U1-GPIO33)*%
X121631589Y-58368411D02*
X121631589Y-53086184D01*
X110500000Y-69500000D02*
X121631589Y-58368411D01*
X108712000Y-82788000D02*
X110500000Y-81000000D01*
X110500000Y-81000000D02*
X110500000Y-69500000D01*
X108712000Y-83058000D02*
X108712000Y-82788000D01*
D19*
%TO.N,VBUS*%
X89500000Y-47500000D02*
X93000000Y-44000000D01*
X126000000Y-44000000D02*
X128000000Y-46000000D01*
X128000000Y-46000000D02*
X128000000Y-58000000D01*
X128000000Y-58000000D02*
X127000000Y-59000000D01*
X93000000Y-44000000D02*
X126000000Y-44000000D01*
X85500000Y-47500000D02*
X89500000Y-47500000D01*
X84000000Y-46000000D02*
X85500000Y-47500000D01*
D20*
X120650703Y-67281096D02*
X120650703Y-62649509D01*
D19*
X80899000Y-45212000D02*
X80899000Y-44958000D01*
X80899000Y-44958000D02*
X80645000Y-44704000D01*
D20*
X124500000Y-62500000D02*
X125000000Y-62500000D01*
X120804250Y-67434643D02*
X120650703Y-67281096D01*
%TO.N,Net-(U1-GPIO35)*%
X122450000Y-58550000D02*
X122450000Y-53550008D01*
X110998000Y-70002000D02*
X122450000Y-58550000D01*
D19*
X110998000Y-83058000D02*
X108458000Y-85598000D01*
D20*
X122450000Y-53550008D02*
X123106070Y-52893938D01*
X110998000Y-83058000D02*
X110998000Y-70002000D01*
D18*
%TO.N,Net-(D5-A)*%
X70500000Y-60500000D02*
X70500000Y-67500000D01*
%TO.N,Net-(U1-GPIO4{slash}ADC1_CH3)*%
X85027000Y-51027000D02*
X82000000Y-48000000D01*
X82000000Y-48000000D02*
X82000000Y-46500000D01*
X85027000Y-53527000D02*
X85027000Y-51027000D01*
X84000000Y-44500000D02*
X87553000Y-44500000D01*
X87757000Y-44577000D02*
X87757000Y-44704000D01*
X87757000Y-44704000D02*
X87884000Y-44831000D01*
X82000000Y-46500000D02*
X84000000Y-44500000D01*
X87553000Y-44500000D02*
X87884000Y-44831000D01*
X85500000Y-54000000D02*
X85027000Y-53527000D01*
%TO.N,Net-(U1-GPIO3{slash}ADC1_CH2)*%
X126000000Y-57500000D02*
X126500000Y-57000000D01*
%TO.N,Net-(U1-GPIO36)*%
X90500000Y-57500000D02*
X90000000Y-57000000D01*
X100000000Y-57500000D02*
X90500000Y-57500000D01*
X90000000Y-57000000D02*
X74500000Y-57000000D01*
X74500000Y-57000000D02*
X74000000Y-57000000D01*
%TO.N,Net-(U1-GPIO37)*%
X76500000Y-73500000D02*
X72500000Y-73500000D01*
X97500000Y-58500000D02*
X82500000Y-73500000D01*
X82500000Y-73500000D02*
X76500000Y-73500000D01*
X72500000Y-73500000D02*
X71500000Y-72500000D01*
%TO.N,Net-(U1-GPIO38)*%
X71000000Y-70500000D02*
X73500000Y-70500000D01*
X76000000Y-68000000D02*
X73500000Y-70500000D01*
X86500000Y-68000000D02*
X76000000Y-68000000D01*
%TO.N,Net-(U1-GPIO14{slash}ADC2_CH3)*%
X116321319Y-61188045D02*
X116483332Y-61350058D01*
X116321319Y-60885182D02*
X116321319Y-61188045D01*
X114856443Y-61350058D02*
X116483332Y-61350058D01*
X114821319Y-61385182D02*
X114856443Y-61350058D01*
%TO.N,Net-(U1-GPIO34)*%
X124000000Y-54000000D02*
X124000000Y-54500000D01*
D19*
%TO.N,Net-(R21-Pad1)*%
X86741000Y-86741000D02*
X86741000Y-86740992D01*
D18*
%TO.N,Net-(U1-GPIO8{slash}ADC1_CH7)*%
X86000000Y-77000000D02*
X86500000Y-77000000D01*
X91500000Y-72000000D02*
X86500000Y-77000000D01*
X98500000Y-69500000D02*
X96000000Y-72000000D01*
X96000000Y-72000000D02*
X91500000Y-72000000D01*
%TD*%
%TA.AperFunction,Conductor*%
%TO.N,GND*%
G36*
X92720586Y-43705313D02*
G01*
X92745896Y-43749150D01*
X92737106Y-43799000D01*
X92725345Y-43814326D01*
X90215296Y-46324378D01*
X89386848Y-47152826D01*
X89340972Y-47174218D01*
X89334522Y-47174500D01*
X85665479Y-47174500D01*
X85617913Y-47157187D01*
X85613153Y-47152826D01*
X85115450Y-46655123D01*
X84614574Y-46154248D01*
X84593183Y-46108373D01*
X84593533Y-46092269D01*
X84605682Y-46000000D01*
X84585044Y-45843238D01*
X84524536Y-45697159D01*
X84428282Y-45571718D01*
X84428279Y-45571715D01*
X84302841Y-45475464D01*
X84156761Y-45414955D01*
X84000000Y-45394318D01*
X83843239Y-45414955D01*
X83843238Y-45414955D01*
X83697158Y-45475464D01*
X83571720Y-45571715D01*
X83571715Y-45571720D01*
X83475464Y-45697158D01*
X83414955Y-45843238D01*
X83414955Y-45843239D01*
X83394318Y-46000000D01*
X83414955Y-46156760D01*
X83414955Y-46156761D01*
X83475464Y-46302841D01*
X83571715Y-46428279D01*
X83571720Y-46428284D01*
X83628376Y-46471757D01*
X83697159Y-46524536D01*
X83843238Y-46585044D01*
X84000000Y-46605682D01*
X84092264Y-46593534D01*
X84141682Y-46604490D01*
X84154248Y-46614574D01*
X84713891Y-47174218D01*
X85258652Y-47718979D01*
X85260821Y-47721346D01*
X85287545Y-47753194D01*
X85323541Y-47773976D01*
X85323548Y-47773980D01*
X85326272Y-47775716D01*
X85360314Y-47799553D01*
X85360315Y-47799553D01*
X85360316Y-47799554D01*
X85364945Y-47800794D01*
X85382800Y-47808189D01*
X85386955Y-47810588D01*
X85427915Y-47817809D01*
X85431028Y-47818500D01*
X85471193Y-47829263D01*
X85512598Y-47825640D01*
X85515817Y-47825500D01*
X89484174Y-47825500D01*
X89487394Y-47825640D01*
X89513546Y-47827928D01*
X89528805Y-47829264D01*
X89528805Y-47829263D01*
X89528807Y-47829264D01*
X89568967Y-47818502D01*
X89572100Y-47817807D01*
X89613045Y-47810588D01*
X89617194Y-47808191D01*
X89635055Y-47800794D01*
X89639684Y-47799554D01*
X89673733Y-47775712D01*
X89676450Y-47773980D01*
X89712455Y-47753194D01*
X89739187Y-47721334D01*
X89741348Y-47718976D01*
X91460326Y-46000000D01*
X109694938Y-46000000D01*
X109715123Y-46179143D01*
X109715126Y-46179154D01*
X109774663Y-46349302D01*
X109870575Y-46501945D01*
X109881281Y-46512651D01*
X110393932Y-46000000D01*
X110606066Y-46000000D01*
X111118717Y-46512651D01*
X111129423Y-46501947D01*
X111129424Y-46501946D01*
X111225336Y-46349304D01*
X111225336Y-46349302D01*
X111284873Y-46179154D01*
X111284876Y-46179143D01*
X111305061Y-46000000D01*
X111284876Y-45820856D01*
X111284873Y-45820845D01*
X111225336Y-45650697D01*
X111129424Y-45498054D01*
X111118717Y-45487347D01*
X110606066Y-45999999D01*
X110606066Y-46000000D01*
X110393932Y-46000000D01*
X110393933Y-45999999D01*
X109881281Y-45487347D01*
X109870576Y-45498053D01*
X109774663Y-45650695D01*
X109774663Y-45650697D01*
X109715126Y-45820845D01*
X109715123Y-45820856D01*
X109694938Y-46000000D01*
X91460326Y-46000000D01*
X92079045Y-45381281D01*
X109987347Y-45381281D01*
X110499999Y-45893933D01*
X111012652Y-45381281D01*
X111001945Y-45370575D01*
X110849302Y-45274663D01*
X110679154Y-45215126D01*
X110679143Y-45215123D01*
X110500000Y-45194938D01*
X110320856Y-45215123D01*
X110320845Y-45215126D01*
X110150697Y-45274663D01*
X110150695Y-45274663D01*
X109998053Y-45370576D01*
X109987347Y-45381281D01*
X92079045Y-45381281D01*
X93113153Y-44347174D01*
X93159030Y-44325782D01*
X93165479Y-44325500D01*
X118070861Y-44325500D01*
X118118427Y-44342813D01*
X118143737Y-44386650D01*
X118134947Y-44436500D01*
X118123187Y-44451826D01*
X114185474Y-48389537D01*
X114139598Y-48410929D01*
X114123492Y-48410578D01*
X113999984Y-48394318D01*
X113999983Y-48394318D01*
X113843223Y-48414955D01*
X113843222Y-48414955D01*
X113697142Y-48475464D01*
X113571704Y-48571715D01*
X113571699Y-48571720D01*
X113475448Y-48697158D01*
X113414939Y-48843238D01*
X113414939Y-48843239D01*
X113394302Y-49000000D01*
X113414939Y-49156760D01*
X113414940Y-49156764D01*
X113462748Y-49272182D01*
X113464956Y-49322752D01*
X113434141Y-49362911D01*
X113394381Y-49374500D01*
X112232149Y-49374500D01*
X112184583Y-49357187D01*
X112159273Y-49313350D01*
X112168063Y-49263500D01*
X112180296Y-49249657D01*
X112179606Y-49249028D01*
X112196074Y-49230963D01*
X112216837Y-49208186D01*
X112217995Y-49206975D01*
X112232174Y-49192797D01*
X112234673Y-49189147D01*
X112237848Y-49185138D01*
X112259916Y-49160933D01*
X112264514Y-49149063D01*
X112272465Y-49133977D01*
X112279657Y-49123480D01*
X112287153Y-49091607D01*
X112288669Y-49086711D01*
X112292113Y-49077823D01*
X112300500Y-49056173D01*
X112300500Y-49043446D01*
X112302466Y-49026502D01*
X112305379Y-49014119D01*
X112300854Y-48981683D01*
X112300500Y-48976573D01*
X112300500Y-48562825D01*
X112317813Y-48515259D01*
X112329452Y-48504117D01*
X112428279Y-48428284D01*
X112428282Y-48428282D01*
X112524536Y-48302841D01*
X112585044Y-48156762D01*
X112605682Y-48000000D01*
X112585044Y-47843238D01*
X112524536Y-47697159D01*
X112428282Y-47571718D01*
X112428279Y-47571715D01*
X112302841Y-47475464D01*
X112156761Y-47414955D01*
X112000000Y-47394318D01*
X111843239Y-47414955D01*
X111843238Y-47414955D01*
X111697158Y-47475464D01*
X111571720Y-47571715D01*
X111571715Y-47571720D01*
X111475464Y-47697158D01*
X111414955Y-47843238D01*
X111414955Y-47843239D01*
X111394318Y-48000000D01*
X111414955Y-48156760D01*
X111414955Y-48156761D01*
X111475464Y-48302841D01*
X111571715Y-48428279D01*
X111571720Y-48428284D01*
X111670548Y-48504117D01*
X111697746Y-48546808D01*
X111699500Y-48562825D01*
X111699500Y-48844876D01*
X111682187Y-48892442D01*
X111677826Y-48897202D01*
X111330708Y-49244319D01*
X111320865Y-49251405D01*
X111321245Y-49251908D01*
X111315773Y-49256040D01*
X111283174Y-49291797D01*
X111281997Y-49293029D01*
X111267822Y-49307206D01*
X111265326Y-49310851D01*
X111262145Y-49314866D01*
X111240083Y-49339067D01*
X111239843Y-49339456D01*
X111239439Y-49339773D01*
X111235465Y-49344134D01*
X111234742Y-49343475D01*
X111200083Y-49370784D01*
X111176927Y-49374500D01*
X103830124Y-49374500D01*
X103782558Y-49357187D01*
X103777798Y-49352826D01*
X102271291Y-47846320D01*
X102249899Y-47800444D01*
X102253769Y-47769556D01*
X102285368Y-47679255D01*
X102305565Y-47500000D01*
X102285368Y-47320745D01*
X102285365Y-47320736D01*
X102225790Y-47150479D01*
X102190120Y-47093712D01*
X102129816Y-46997738D01*
X102002262Y-46870184D01*
X101926232Y-46822411D01*
X101849520Y-46774209D01*
X101679263Y-46714634D01*
X101679256Y-46714632D01*
X101679255Y-46714632D01*
X101500000Y-46694435D01*
X101320745Y-46714632D01*
X101320736Y-46714634D01*
X101150479Y-46774209D01*
X100997739Y-46870183D01*
X100870183Y-46997739D01*
X100774209Y-47150479D01*
X100714634Y-47320736D01*
X100714632Y-47320745D01*
X100694435Y-47500000D01*
X100710877Y-47645932D01*
X100714632Y-47679254D01*
X100714634Y-47679263D01*
X100774209Y-47849520D01*
X100839496Y-47953422D01*
X100870184Y-48002262D01*
X100997738Y-48129816D01*
X101044348Y-48159103D01*
X101150479Y-48225790D01*
X101317464Y-48284220D01*
X101320745Y-48285368D01*
X101500000Y-48305565D01*
X101679255Y-48285368D01*
X101769554Y-48253770D01*
X101820167Y-48254400D01*
X101846320Y-48271291D01*
X103197702Y-49622673D01*
X103219094Y-49668549D01*
X103205993Y-49717444D01*
X103197702Y-49727325D01*
X101330708Y-51594319D01*
X101320865Y-51601405D01*
X101321245Y-51601908D01*
X101315773Y-51606040D01*
X101283174Y-51641797D01*
X101281997Y-51643029D01*
X101267822Y-51657206D01*
X101265326Y-51660851D01*
X101262145Y-51664866D01*
X101240085Y-51689065D01*
X101240083Y-51689067D01*
X101235483Y-51700941D01*
X101227536Y-51716017D01*
X101220344Y-51726517D01*
X101212847Y-51758390D01*
X101211330Y-51763288D01*
X101199500Y-51793828D01*
X101199500Y-51806553D01*
X101197535Y-51823488D01*
X101194621Y-51835881D01*
X101199145Y-51868316D01*
X101199500Y-51873424D01*
X101199500Y-52095877D01*
X101182187Y-52143443D01*
X101138350Y-52168753D01*
X101088500Y-52159963D01*
X101073174Y-52148203D01*
X100255682Y-51330711D01*
X100248597Y-51320862D01*
X100248091Y-51321245D01*
X100243958Y-51315772D01*
X100235313Y-51307891D01*
X100208208Y-51283181D01*
X100206976Y-51282005D01*
X100192796Y-51267825D01*
X100189149Y-51265326D01*
X100185132Y-51262144D01*
X100184338Y-51261420D01*
X100160933Y-51240084D01*
X100149061Y-51235484D01*
X100133981Y-51227536D01*
X100123480Y-51220343D01*
X100091612Y-51212848D01*
X100086713Y-51211331D01*
X100056174Y-51199500D01*
X100056173Y-51199500D01*
X100043447Y-51199500D01*
X100026504Y-51197534D01*
X100014119Y-51194621D01*
X100014117Y-51194621D01*
X100003641Y-51196082D01*
X99981684Y-51199145D01*
X99976574Y-51199500D01*
X92295124Y-51199500D01*
X92247558Y-51182187D01*
X92242798Y-51177826D01*
X91195291Y-50130320D01*
X91173899Y-50084444D01*
X91177769Y-50053556D01*
X91209368Y-49963255D01*
X91229565Y-49784000D01*
X91209368Y-49604745D01*
X91197812Y-49571720D01*
X91149790Y-49434479D01*
X91112102Y-49374500D01*
X91053816Y-49281738D01*
X90926262Y-49154184D01*
X90849578Y-49106000D01*
X90773520Y-49058209D01*
X90603263Y-48998634D01*
X90603256Y-48998632D01*
X90603255Y-48998632D01*
X90424000Y-48978435D01*
X90244745Y-48998632D01*
X90244736Y-48998634D01*
X90074479Y-49058209D01*
X89921739Y-49154183D01*
X89794183Y-49281739D01*
X89698209Y-49434479D01*
X89638634Y-49604736D01*
X89638632Y-49604745D01*
X89618435Y-49784000D01*
X89635321Y-49933873D01*
X89638632Y-49963254D01*
X89638634Y-49963263D01*
X89698209Y-50133520D01*
X89744498Y-50207187D01*
X89794184Y-50286262D01*
X89921738Y-50413816D01*
X89944764Y-50428284D01*
X90074479Y-50509790D01*
X90244736Y-50569365D01*
X90244745Y-50569368D01*
X90424000Y-50589565D01*
X90603255Y-50569368D01*
X90693554Y-50537770D01*
X90744167Y-50538400D01*
X90770320Y-50555291D01*
X91884318Y-51669289D01*
X91891404Y-51679137D01*
X91891910Y-51678756D01*
X91896041Y-51684227D01*
X91896042Y-51684228D01*
X91929935Y-51715126D01*
X91931785Y-51716812D01*
X91933022Y-51717993D01*
X91947203Y-51732174D01*
X91950856Y-51734676D01*
X91954858Y-51737847D01*
X91967990Y-51749818D01*
X91979065Y-51759915D01*
X91979066Y-51759915D01*
X91979067Y-51759916D01*
X91990934Y-51764513D01*
X92006021Y-51772465D01*
X92016519Y-51779656D01*
X92048387Y-51787151D01*
X92053289Y-51788669D01*
X92083826Y-51800500D01*
X92083827Y-51800500D01*
X92096553Y-51800500D01*
X92113496Y-51802466D01*
X92125881Y-51805379D01*
X92158315Y-51800854D01*
X92163426Y-51800500D01*
X99844877Y-51800500D01*
X99892443Y-51817813D01*
X99897203Y-51822174D01*
X100677826Y-52602797D01*
X100699218Y-52648673D01*
X100699500Y-52655123D01*
X100699500Y-57247536D01*
X100682187Y-57295102D01*
X100638350Y-57320412D01*
X100588500Y-57311622D01*
X100557133Y-57275855D01*
X100535134Y-57222746D01*
X100524536Y-57197159D01*
X100428282Y-57071718D01*
X100428279Y-57071715D01*
X100302841Y-56975464D01*
X100156761Y-56914955D01*
X100000000Y-56894318D01*
X99843239Y-56914955D01*
X99843238Y-56914955D01*
X99697158Y-56975464D01*
X99571720Y-57071715D01*
X99571715Y-57071720D01*
X99476700Y-57195548D01*
X99434009Y-57222746D01*
X99417992Y-57224500D01*
X90644768Y-57224500D01*
X90597202Y-57207187D01*
X90592442Y-57202826D01*
X90219145Y-56829529D01*
X90209942Y-56818314D01*
X90198626Y-56801378D01*
X90198624Y-56801376D01*
X90178644Y-56788025D01*
X90178641Y-56788023D01*
X90169701Y-56782049D01*
X90139182Y-56761658D01*
X90123338Y-56751071D01*
X90107496Y-56740485D01*
X90107497Y-56740485D01*
X90067314Y-56732492D01*
X90027133Y-56724500D01*
X90027132Y-56724500D01*
X90027130Y-56724499D01*
X90000001Y-56719103D01*
X90000000Y-56719103D01*
X89980017Y-56723078D01*
X89965580Y-56724500D01*
X75304196Y-56724500D01*
X75256630Y-56707187D01*
X75234348Y-56674940D01*
X75228908Y-56659393D01*
X75225789Y-56650478D01*
X75129816Y-56497738D01*
X75002262Y-56370184D01*
X74952740Y-56339067D01*
X74849520Y-56274209D01*
X74679263Y-56214634D01*
X74679256Y-56214632D01*
X74679255Y-56214632D01*
X74500000Y-56194435D01*
X74320745Y-56214632D01*
X74320736Y-56214634D01*
X74150479Y-56274209D01*
X73997735Y-56370186D01*
X73987360Y-56380560D01*
X73944698Y-56401597D01*
X73843238Y-56414955D01*
X73697158Y-56475464D01*
X73571720Y-56571715D01*
X73571715Y-56571720D01*
X73475464Y-56697158D01*
X73414955Y-56843238D01*
X73414955Y-56843239D01*
X73394318Y-57000000D01*
X73414955Y-57156760D01*
X73414955Y-57156761D01*
X73475464Y-57302841D01*
X73571715Y-57428279D01*
X73571720Y-57428284D01*
X73626697Y-57470469D01*
X73697159Y-57524536D01*
X73843238Y-57585044D01*
X73944697Y-57598401D01*
X73987362Y-57619440D01*
X73997738Y-57629816D01*
X74150479Y-57725790D01*
X74320736Y-57785365D01*
X74320745Y-57785368D01*
X74500000Y-57805565D01*
X74679255Y-57785368D01*
X74753139Y-57759515D01*
X74849520Y-57725790D01*
X74852138Y-57724145D01*
X75002262Y-57629816D01*
X75129816Y-57502262D01*
X75225789Y-57349522D01*
X75234348Y-57325058D01*
X75266399Y-57285881D01*
X75304196Y-57275500D01*
X89855232Y-57275500D01*
X89902798Y-57292813D01*
X89907558Y-57297174D01*
X90280854Y-57670470D01*
X90290056Y-57681683D01*
X90301376Y-57698624D01*
X90322981Y-57713060D01*
X90322989Y-57713066D01*
X90342031Y-57725789D01*
X90392505Y-57759515D01*
X90472867Y-57775500D01*
X90472868Y-57775500D01*
X90499999Y-57780897D01*
X90500000Y-57780897D01*
X90519984Y-57776921D01*
X90534420Y-57775500D01*
X97307891Y-57775500D01*
X97355457Y-57792813D01*
X97380767Y-57836650D01*
X97371977Y-57886500D01*
X97336210Y-57917867D01*
X97197158Y-57975464D01*
X97071720Y-58071715D01*
X97071715Y-58071720D01*
X96975464Y-58197158D01*
X96914955Y-58343238D01*
X96914955Y-58343239D01*
X96894318Y-58500000D01*
X96914690Y-58654749D01*
X96903734Y-58704168D01*
X96893649Y-58716733D01*
X82407558Y-73202826D01*
X82361682Y-73224218D01*
X82355232Y-73224500D01*
X77304196Y-73224500D01*
X77256630Y-73207187D01*
X77234348Y-73174940D01*
X77225789Y-73150478D01*
X77129816Y-72997738D01*
X77002262Y-72870184D01*
X76915865Y-72815897D01*
X76849520Y-72774209D01*
X76679263Y-72714634D01*
X76679256Y-72714632D01*
X76679255Y-72714632D01*
X76500000Y-72694435D01*
X76320745Y-72714632D01*
X76320736Y-72714634D01*
X76150479Y-72774209D01*
X75997739Y-72870183D01*
X75870183Y-72997739D01*
X75774211Y-73150477D01*
X75765652Y-73174940D01*
X75733601Y-73214119D01*
X75695804Y-73224500D01*
X72644768Y-73224500D01*
X72597202Y-73207187D01*
X72592442Y-73202826D01*
X72106350Y-72716734D01*
X72084958Y-72670858D01*
X72085309Y-72654749D01*
X72105682Y-72500000D01*
X72085044Y-72343238D01*
X72024536Y-72197159D01*
X71968932Y-72124694D01*
X71928284Y-72071720D01*
X71928279Y-72071715D01*
X71802841Y-71975464D01*
X71656761Y-71914955D01*
X71500000Y-71894318D01*
X71343239Y-71914955D01*
X71343238Y-71914955D01*
X71197158Y-71975464D01*
X71071720Y-72071715D01*
X71071715Y-72071720D01*
X70975464Y-72197158D01*
X70914955Y-72343238D01*
X70914955Y-72343239D01*
X70894318Y-72500000D01*
X70914955Y-72656760D01*
X70914955Y-72656761D01*
X70975464Y-72802841D01*
X71071715Y-72928279D01*
X71071720Y-72928284D01*
X71155345Y-72992451D01*
X71197159Y-73024536D01*
X71343238Y-73085044D01*
X71500000Y-73105682D01*
X71654749Y-73085309D01*
X71704168Y-73096265D01*
X71716734Y-73106350D01*
X72280854Y-73670470D01*
X72290056Y-73681683D01*
X72301375Y-73698623D01*
X72301376Y-73698624D01*
X72321355Y-73711974D01*
X72324377Y-73713993D01*
X72324378Y-73713994D01*
X72369222Y-73743958D01*
X72392506Y-73759516D01*
X72499999Y-73780897D01*
X72500000Y-73780897D01*
X72500001Y-73780897D01*
X72519985Y-73776922D01*
X72534421Y-73775500D01*
X75695804Y-73775500D01*
X75743370Y-73792813D01*
X75765651Y-73825058D01*
X75774211Y-73849522D01*
X75870184Y-74002262D01*
X75997738Y-74129816D01*
X76093712Y-74190120D01*
X76150479Y-74225790D01*
X76320736Y-74285365D01*
X76320745Y-74285368D01*
X76500000Y-74305565D01*
X76679255Y-74285368D01*
X76747481Y-74261494D01*
X76849520Y-74225790D01*
X76849522Y-74225789D01*
X77002262Y-74129816D01*
X77129816Y-74002262D01*
X77225789Y-73849522D01*
X77234348Y-73825058D01*
X77266399Y-73785881D01*
X77304196Y-73775500D01*
X82465580Y-73775500D01*
X82480016Y-73776921D01*
X82500000Y-73780897D01*
X82500001Y-73780897D01*
X82504622Y-73779977D01*
X82527132Y-73775500D01*
X82527133Y-73775500D01*
X82607495Y-73759515D01*
X82649465Y-73731471D01*
X82675622Y-73713994D01*
X82675622Y-73713993D01*
X82683636Y-73708639D01*
X82683639Y-73708636D01*
X82684257Y-73708223D01*
X82698624Y-73698624D01*
X82709948Y-73681674D01*
X82719141Y-73670473D01*
X85647207Y-70742407D01*
X94684962Y-70742407D01*
X94699063Y-70849522D01*
X94705600Y-70899170D01*
X94719682Y-70933168D01*
X94723892Y-70975919D01*
X94719103Y-71000000D01*
X94740485Y-71107495D01*
X94801376Y-71198624D01*
X94892505Y-71259515D01*
X94972867Y-71275500D01*
X94972868Y-71275500D01*
X95000000Y-71280897D01*
X95006769Y-71280897D01*
X95035088Y-71286530D01*
X95111833Y-71318319D01*
X95133882Y-71327452D01*
X95290644Y-71348090D01*
X95447406Y-71327452D01*
X95593485Y-71266944D01*
X95718926Y-71170690D01*
X95815180Y-71045249D01*
X95875688Y-70899170D01*
X95896326Y-70742408D01*
X95875688Y-70585646D01*
X95875687Y-70585643D01*
X95873603Y-70580611D01*
X95871397Y-70530040D01*
X95889643Y-70499971D01*
X97783266Y-68606348D01*
X97829141Y-68584957D01*
X97845241Y-68585307D01*
X98000000Y-68605682D01*
X98156762Y-68585044D01*
X98302841Y-68524536D01*
X98428282Y-68428282D01*
X98524536Y-68302841D01*
X98585044Y-68156762D01*
X98605682Y-68000000D01*
X98585044Y-67843238D01*
X98524536Y-67697159D01*
X98492451Y-67655345D01*
X98428284Y-67571720D01*
X98428279Y-67571715D01*
X98302841Y-67475464D01*
X98156761Y-67414955D01*
X98000000Y-67394318D01*
X97843239Y-67414955D01*
X97843238Y-67414955D01*
X97697158Y-67475464D01*
X97571720Y-67571715D01*
X97571715Y-67571720D01*
X97475464Y-67697158D01*
X97414955Y-67843238D01*
X97414955Y-67843239D01*
X97394318Y-68000000D01*
X97414690Y-68154749D01*
X97403734Y-68204168D01*
X97393649Y-68216733D01*
X95478170Y-70132212D01*
X95432294Y-70153604D01*
X95416186Y-70153253D01*
X95290644Y-70136726D01*
X95133883Y-70157363D01*
X95133882Y-70157363D01*
X94987802Y-70217872D01*
X94862364Y-70314123D01*
X94862359Y-70314128D01*
X94766108Y-70439566D01*
X94705599Y-70585646D01*
X94705599Y-70585647D01*
X94684962Y-70742407D01*
X85647207Y-70742407D01*
X97283266Y-59106348D01*
X97329141Y-59084957D01*
X97345241Y-59085307D01*
X97500000Y-59105682D01*
X97656762Y-59085044D01*
X97802841Y-59024536D01*
X97928282Y-58928282D01*
X98024536Y-58802841D01*
X98085044Y-58656762D01*
X98105682Y-58500000D01*
X98085044Y-58343238D01*
X98024536Y-58197159D01*
X97974355Y-58131762D01*
X97928284Y-58071720D01*
X97928279Y-58071715D01*
X97802841Y-57975464D01*
X97663790Y-57917867D01*
X97626470Y-57883669D01*
X97619863Y-57833483D01*
X97647061Y-57790792D01*
X97692109Y-57775500D01*
X99417992Y-57775500D01*
X99465558Y-57792813D01*
X99476700Y-57804452D01*
X99571715Y-57928279D01*
X99571720Y-57928284D01*
X99632601Y-57974999D01*
X99697159Y-58024536D01*
X99843238Y-58085044D01*
X100000000Y-58105682D01*
X100156762Y-58085044D01*
X100302841Y-58024536D01*
X100428282Y-57928282D01*
X100524536Y-57802841D01*
X100557133Y-57724144D01*
X100591330Y-57686824D01*
X100641516Y-57680217D01*
X100684208Y-57707414D01*
X100699500Y-57752463D01*
X100699500Y-62100500D01*
X100682187Y-62148066D01*
X100638350Y-62173376D01*
X100625500Y-62174500D01*
X99043642Y-62174500D01*
X98996076Y-62157187D01*
X98984934Y-62145548D01*
X98928284Y-62071720D01*
X98928279Y-62071715D01*
X98802841Y-61975464D01*
X98656761Y-61914955D01*
X98500000Y-61894318D01*
X98343239Y-61914955D01*
X98343238Y-61914955D01*
X98197158Y-61975464D01*
X98071720Y-62071715D01*
X98071715Y-62071720D01*
X97975464Y-62197158D01*
X97914955Y-62343238D01*
X97914955Y-62343239D01*
X97894318Y-62500000D01*
X97914955Y-62656760D01*
X97914955Y-62656761D01*
X97975464Y-62802841D01*
X98071715Y-62928279D01*
X98071720Y-62928284D01*
X98103084Y-62952350D01*
X98197159Y-63024536D01*
X98343238Y-63085044D01*
X98500000Y-63105682D01*
X98656762Y-63085044D01*
X98802841Y-63024536D01*
X98928282Y-62928282D01*
X98948659Y-62901725D01*
X98984934Y-62854452D01*
X99027625Y-62827254D01*
X99043642Y-62825500D01*
X100869877Y-62825500D01*
X100917443Y-62842813D01*
X100922202Y-62847173D01*
X101360393Y-63285365D01*
X101744319Y-63669291D01*
X101751404Y-63679137D01*
X101751910Y-63678756D01*
X101756043Y-63684229D01*
X101791774Y-63716802D01*
X101793011Y-63717983D01*
X101807202Y-63732174D01*
X101810850Y-63734674D01*
X101814870Y-63737857D01*
X101839067Y-63759916D01*
X101839070Y-63759917D01*
X101850932Y-63764512D01*
X101866024Y-63772467D01*
X101876520Y-63779657D01*
X101908408Y-63787156D01*
X101913280Y-63788665D01*
X101936303Y-63797585D01*
X101943826Y-63800500D01*
X101943827Y-63800500D01*
X101956554Y-63800500D01*
X101973496Y-63802465D01*
X101985882Y-63805379D01*
X102018319Y-63800854D01*
X102023428Y-63800500D01*
X112938913Y-63800500D01*
X112950889Y-63802453D01*
X112950977Y-63801826D01*
X112957765Y-63802773D01*
X113006103Y-63800538D01*
X113007788Y-63800500D01*
X113027842Y-63800500D01*
X113027844Y-63800500D01*
X113032187Y-63799687D01*
X113037266Y-63799097D01*
X113069992Y-63797585D01*
X113081639Y-63792441D01*
X113097927Y-63787398D01*
X113110433Y-63785061D01*
X113138281Y-63767818D01*
X113142794Y-63765438D01*
X113172765Y-63752206D01*
X113181761Y-63743208D01*
X113195138Y-63732614D01*
X113205952Y-63725919D01*
X113225687Y-63699783D01*
X113229051Y-63695919D01*
X113255679Y-63669291D01*
X113314508Y-63610461D01*
X113360383Y-63589070D01*
X113376483Y-63589420D01*
X113500000Y-63605682D01*
X113656762Y-63585044D01*
X113802841Y-63524536D01*
X113928282Y-63428282D01*
X114024536Y-63302841D01*
X114057133Y-63224144D01*
X114091330Y-63186824D01*
X114141516Y-63180217D01*
X114184208Y-63207414D01*
X114199500Y-63252463D01*
X114199500Y-64344877D01*
X114182187Y-64392443D01*
X114177826Y-64397203D01*
X101915207Y-76659822D01*
X101869331Y-76681214D01*
X101862881Y-76681496D01*
X99608445Y-76681496D01*
X99560879Y-76664183D01*
X99538598Y-76631937D01*
X99531789Y-76612478D01*
X99435816Y-76459738D01*
X99308262Y-76332184D01*
X99215999Y-76274211D01*
X99155520Y-76236209D01*
X98985263Y-76176634D01*
X98985256Y-76176632D01*
X98985255Y-76176632D01*
X98806000Y-76156435D01*
X98626745Y-76176632D01*
X98626736Y-76176634D01*
X98456479Y-76236209D01*
X98303739Y-76332183D01*
X98176183Y-76459739D01*
X98080209Y-76612479D01*
X98020634Y-76782736D01*
X98020632Y-76782745D01*
X98000435Y-76962000D01*
X98020632Y-77141254D01*
X98020634Y-77141263D01*
X98080209Y-77311520D01*
X98136123Y-77400505D01*
X98176184Y-77464262D01*
X98303738Y-77591816D01*
X98381320Y-77640564D01*
X98456479Y-77687790D01*
X98612847Y-77742505D01*
X98626745Y-77747368D01*
X98806000Y-77767565D01*
X98985255Y-77747368D01*
X99053481Y-77723494D01*
X99155520Y-77687790D01*
X99155522Y-77687789D01*
X99308262Y-77591816D01*
X99435816Y-77464262D01*
X99528268Y-77317124D01*
X99568233Y-77286061D01*
X99590925Y-77282496D01*
X101956917Y-77282496D01*
X101968893Y-77284449D01*
X101968981Y-77283822D01*
X101975769Y-77284769D01*
X102024107Y-77282534D01*
X102025792Y-77282496D01*
X102045846Y-77282496D01*
X102045848Y-77282496D01*
X102050191Y-77281683D01*
X102055270Y-77281093D01*
X102087996Y-77279581D01*
X102099643Y-77274437D01*
X102115931Y-77269394D01*
X102128437Y-77267057D01*
X102156285Y-77249814D01*
X102160798Y-77247434D01*
X102190769Y-77234202D01*
X102199765Y-77225204D01*
X102213142Y-77214610D01*
X102223956Y-77207915D01*
X102243691Y-77181779D01*
X102247055Y-77177915D01*
X106139605Y-73285365D01*
X110089299Y-69335670D01*
X110135174Y-69314279D01*
X110184069Y-69327380D01*
X110213103Y-69368844D01*
X110213657Y-69404946D01*
X110212846Y-69408393D01*
X110211330Y-69413289D01*
X110199500Y-69443828D01*
X110199500Y-69456553D01*
X110197535Y-69473488D01*
X110194621Y-69485881D01*
X110199145Y-69518316D01*
X110199500Y-69523424D01*
X110199500Y-80844876D01*
X110182187Y-80892442D01*
X110177826Y-80897202D01*
X108836592Y-82238435D01*
X108790715Y-82259827D01*
X108775981Y-82259644D01*
X108712000Y-82252435D01*
X108532745Y-82272632D01*
X108532736Y-82272634D01*
X108362479Y-82332209D01*
X108209739Y-82428183D01*
X108082183Y-82555739D01*
X107986209Y-82708479D01*
X107926634Y-82878736D01*
X107926632Y-82878745D01*
X107906435Y-83058000D01*
X107926632Y-83237254D01*
X107926634Y-83237263D01*
X107986209Y-83407520D01*
X107992836Y-83418066D01*
X108082184Y-83560262D01*
X108209738Y-83687816D01*
X108252419Y-83714634D01*
X108362479Y-83783790D01*
X108518707Y-83838456D01*
X108532745Y-83843368D01*
X108712000Y-83863565D01*
X108891255Y-83843368D01*
X108999253Y-83805578D01*
X109061520Y-83783790D01*
X109076768Y-83774209D01*
X109214262Y-83687816D01*
X109341816Y-83560262D01*
X109437789Y-83407522D01*
X109471212Y-83312006D01*
X109497365Y-83237263D01*
X109497368Y-83237255D01*
X109517565Y-83058000D01*
X109497368Y-82878745D01*
X109437789Y-82708478D01*
X109383791Y-82622542D01*
X109373144Y-82573057D01*
X109394122Y-82530847D01*
X110571174Y-81353796D01*
X110617051Y-81332404D01*
X110665945Y-81345505D01*
X110694979Y-81386969D01*
X110697500Y-81406122D01*
X110697500Y-82262551D01*
X110680187Y-82310117D01*
X110651878Y-82329678D01*
X110652228Y-82330404D01*
X110648485Y-82332206D01*
X110495741Y-82428181D01*
X110368183Y-82555739D01*
X110272209Y-82708479D01*
X110212634Y-82878736D01*
X110212632Y-82878745D01*
X110192435Y-83058000D01*
X110212632Y-83237254D01*
X110212633Y-83237258D01*
X110235064Y-83301363D01*
X110234432Y-83351978D01*
X110217542Y-83378129D01*
X108612249Y-84983423D01*
X108566373Y-85004815D01*
X108550265Y-85004464D01*
X108458000Y-84992318D01*
X108301239Y-85012955D01*
X108301238Y-85012955D01*
X108155158Y-85073464D01*
X108029720Y-85169715D01*
X108029715Y-85169720D01*
X107933464Y-85295158D01*
X107872955Y-85441238D01*
X107872955Y-85441239D01*
X107852318Y-85598000D01*
X107872955Y-85754760D01*
X107872955Y-85754761D01*
X107933464Y-85900841D01*
X108029715Y-86026279D01*
X108029720Y-86026284D01*
X108093107Y-86074922D01*
X108155159Y-86122536D01*
X108301238Y-86183044D01*
X108458000Y-86203682D01*
X108614762Y-86183044D01*
X108760841Y-86122536D01*
X108886282Y-86026282D01*
X108982536Y-85900841D01*
X109043044Y-85754762D01*
X109063682Y-85598000D01*
X109051534Y-85505733D01*
X109062490Y-85456315D01*
X109072570Y-85443754D01*
X110016325Y-84500000D01*
X120894318Y-84500000D01*
X120914955Y-84656760D01*
X120914955Y-84656761D01*
X120975464Y-84802841D01*
X121071715Y-84928279D01*
X121071720Y-84928284D01*
X121108672Y-84956638D01*
X121197159Y-85024536D01*
X121343238Y-85085044D01*
X121444697Y-85098401D01*
X121487362Y-85119440D01*
X121497738Y-85129816D01*
X121650479Y-85225790D01*
X121820736Y-85285365D01*
X121820745Y-85285368D01*
X122000000Y-85305565D01*
X122179255Y-85285368D01*
X122288670Y-85247082D01*
X122349520Y-85225790D01*
X122349522Y-85225789D01*
X122502262Y-85129816D01*
X122629816Y-85002262D01*
X122725789Y-84849522D01*
X122742124Y-84802841D01*
X122785365Y-84679263D01*
X122785368Y-84679255D01*
X122805565Y-84500000D01*
X122785368Y-84320745D01*
X122757670Y-84241589D01*
X122725790Y-84150479D01*
X122653621Y-84035624D01*
X122629816Y-83997738D01*
X122502262Y-83870184D01*
X122423883Y-83820935D01*
X122349520Y-83774209D01*
X122179263Y-83714634D01*
X122179256Y-83714632D01*
X122179255Y-83714632D01*
X122000000Y-83694435D01*
X121820745Y-83714632D01*
X121820736Y-83714634D01*
X121650479Y-83774209D01*
X121497735Y-83870186D01*
X121487360Y-83880560D01*
X121444698Y-83901597D01*
X121343238Y-83914955D01*
X121197158Y-83975464D01*
X121071720Y-84071715D01*
X121071715Y-84071720D01*
X120975464Y-84197158D01*
X120914955Y-84343238D01*
X120914955Y-84343239D01*
X120894318Y-84500000D01*
X110016325Y-84500000D01*
X110677870Y-83838455D01*
X110723745Y-83817064D01*
X110754635Y-83820934D01*
X110818745Y-83843368D01*
X110998000Y-83863565D01*
X111177255Y-83843368D01*
X111285253Y-83805578D01*
X111347520Y-83783790D01*
X111362768Y-83774209D01*
X111500262Y-83687816D01*
X111627816Y-83560262D01*
X111723789Y-83407522D01*
X111757212Y-83312006D01*
X111783365Y-83237263D01*
X111783368Y-83237255D01*
X111803565Y-83058000D01*
X111783368Y-82878745D01*
X111742245Y-82761221D01*
X111723790Y-82708479D01*
X111669792Y-82622543D01*
X111627816Y-82555738D01*
X111500262Y-82428184D01*
X111500259Y-82428182D01*
X111500258Y-82428181D01*
X111347514Y-82332206D01*
X111343772Y-82330404D01*
X111344294Y-82329319D01*
X111308878Y-82300344D01*
X111298500Y-82262551D01*
X111298500Y-79678000D01*
X123082254Y-79678000D01*
X123101156Y-79821577D01*
X123101157Y-79821581D01*
X123156575Y-79955372D01*
X123198683Y-80010248D01*
X123414274Y-79794656D01*
X123456760Y-79858240D01*
X123520341Y-79900723D01*
X123304750Y-80116314D01*
X123304750Y-80116315D01*
X123359627Y-80158424D01*
X123493418Y-80213842D01*
X123493422Y-80213843D01*
X123637000Y-80232745D01*
X123780577Y-80213843D01*
X123780581Y-80213842D01*
X123914366Y-80158427D01*
X123914371Y-80158424D01*
X123969248Y-80116314D01*
X123753658Y-79900724D01*
X123817240Y-79858240D01*
X123859724Y-79794658D01*
X124075314Y-80010248D01*
X124117424Y-79955371D01*
X124117427Y-79955366D01*
X124172842Y-79821581D01*
X124172843Y-79821577D01*
X124191745Y-79678000D01*
X124172843Y-79534422D01*
X124172842Y-79534418D01*
X124117424Y-79400627D01*
X124075315Y-79345750D01*
X124075314Y-79345750D01*
X123859723Y-79561341D01*
X123817240Y-79497760D01*
X123753656Y-79455274D01*
X123969248Y-79239683D01*
X123914372Y-79197575D01*
X123780581Y-79142157D01*
X123780577Y-79142156D01*
X123637000Y-79123254D01*
X123493422Y-79142156D01*
X123493421Y-79142156D01*
X123359625Y-79197576D01*
X123359624Y-79197577D01*
X123304750Y-79239683D01*
X123304750Y-79239684D01*
X123520341Y-79455275D01*
X123456760Y-79497760D01*
X123414275Y-79561341D01*
X123198684Y-79345750D01*
X123198683Y-79345750D01*
X123156577Y-79400624D01*
X123156576Y-79400625D01*
X123101156Y-79534421D01*
X123101156Y-79534422D01*
X123082254Y-79678000D01*
X111298500Y-79678000D01*
X111298500Y-77978000D01*
X123082254Y-77978000D01*
X123101156Y-78121577D01*
X123101157Y-78121581D01*
X123156575Y-78255372D01*
X123198683Y-78310248D01*
X123414274Y-78094656D01*
X123456760Y-78158240D01*
X123520341Y-78200723D01*
X123304750Y-78416314D01*
X123304750Y-78416315D01*
X123359627Y-78458424D01*
X123493418Y-78513842D01*
X123493422Y-78513843D01*
X123637000Y-78532745D01*
X123780577Y-78513843D01*
X123780581Y-78513842D01*
X123914366Y-78458427D01*
X123914371Y-78458424D01*
X123969248Y-78416314D01*
X123753658Y-78200724D01*
X123817240Y-78158240D01*
X123859724Y-78094658D01*
X124075314Y-78310248D01*
X124117424Y-78255371D01*
X124117427Y-78255366D01*
X124172842Y-78121581D01*
X124172843Y-78121577D01*
X124191745Y-77978000D01*
X124172843Y-77834422D01*
X124172842Y-77834418D01*
X124117424Y-77700627D01*
X124075315Y-77645750D01*
X124075314Y-77645750D01*
X123859723Y-77861341D01*
X123817240Y-77797760D01*
X123753656Y-77755274D01*
X123969248Y-77539683D01*
X123914372Y-77497575D01*
X123780581Y-77442157D01*
X123780577Y-77442156D01*
X123637000Y-77423254D01*
X123493422Y-77442156D01*
X123493421Y-77442156D01*
X123359625Y-77497576D01*
X123359624Y-77497577D01*
X123304750Y-77539683D01*
X123304750Y-77539684D01*
X123520341Y-77755275D01*
X123456760Y-77797760D01*
X123414275Y-77861341D01*
X123198684Y-77645750D01*
X123198683Y-77645750D01*
X123156577Y-77700624D01*
X123156576Y-77700625D01*
X123101156Y-77834421D01*
X123101156Y-77834422D01*
X123082254Y-77978000D01*
X111298500Y-77978000D01*
X111298500Y-71500000D01*
X121394318Y-71500000D01*
X121414955Y-71656760D01*
X121414955Y-71656761D01*
X121475464Y-71802841D01*
X121571715Y-71928279D01*
X121571720Y-71928284D01*
X121697156Y-72024534D01*
X121698427Y-72025268D01*
X121698995Y-72025945D01*
X121701007Y-72027489D01*
X121700664Y-72027934D01*
X121730964Y-72064045D01*
X121734005Y-72074917D01*
X121740485Y-72107496D01*
X121751976Y-72124694D01*
X121764007Y-72173862D01*
X121760295Y-72190245D01*
X121722880Y-72297174D01*
X121714632Y-72320745D01*
X121694435Y-72500000D01*
X121712097Y-72656760D01*
X121714632Y-72679254D01*
X121714634Y-72679263D01*
X121774209Y-72849520D01*
X121823697Y-72928279D01*
X121870184Y-73002262D01*
X121997738Y-73129816D01*
X122093712Y-73190120D01*
X122150479Y-73225790D01*
X122320736Y-73285365D01*
X122320745Y-73285368D01*
X122500000Y-73305565D01*
X122679255Y-73285368D01*
X122747481Y-73261494D01*
X122849520Y-73225790D01*
X122852022Y-73224218D01*
X123002262Y-73129816D01*
X123129816Y-73002262D01*
X123225789Y-72849522D01*
X123242124Y-72802841D01*
X123261494Y-72747481D01*
X123285368Y-72679255D01*
X123305565Y-72500000D01*
X123285368Y-72320745D01*
X123264825Y-72262036D01*
X123225790Y-72150479D01*
X123148789Y-72027934D01*
X123129816Y-71997738D01*
X123002262Y-71870184D01*
X122929359Y-71824376D01*
X122849520Y-71774209D01*
X122679263Y-71714634D01*
X122679247Y-71714630D01*
X122653835Y-71711767D01*
X122608507Y-71689237D01*
X122588266Y-71642841D01*
X122588755Y-71628574D01*
X122605682Y-71500000D01*
X122585044Y-71343238D01*
X122524536Y-71197159D01*
X122472861Y-71129814D01*
X122428284Y-71071720D01*
X122428279Y-71071715D01*
X122302841Y-70975464D01*
X122156761Y-70914955D01*
X122000000Y-70894318D01*
X121843239Y-70914955D01*
X121843238Y-70914955D01*
X121697158Y-70975464D01*
X121571720Y-71071715D01*
X121571715Y-71071720D01*
X121475464Y-71197158D01*
X121414955Y-71343238D01*
X121414955Y-71343239D01*
X121394318Y-71500000D01*
X111298500Y-71500000D01*
X111298500Y-70157122D01*
X111315813Y-70109556D01*
X111320163Y-70104807D01*
X112143970Y-69281000D01*
X121302585Y-69281000D01*
X121659432Y-69281000D01*
X121646105Y-69327840D01*
X121655664Y-69431000D01*
X121303434Y-69431000D01*
X121306438Y-69478762D01*
X121306439Y-69478768D01*
X121357185Y-69634950D01*
X121357189Y-69634958D01*
X121445182Y-69773614D01*
X121445187Y-69773620D01*
X121564901Y-69886038D01*
X121708816Y-69965157D01*
X121867881Y-70005998D01*
X121867889Y-70006000D01*
X122425000Y-70006000D01*
X122425000Y-69656000D01*
X122575000Y-69656000D01*
X122575000Y-70006000D01*
X123090890Y-70006000D01*
X123212933Y-69990582D01*
X123212938Y-69990581D01*
X123365622Y-69930129D01*
X123365633Y-69930123D01*
X123498490Y-69833596D01*
X123603172Y-69707059D01*
X123603175Y-69707053D01*
X123673101Y-69558453D01*
X123697414Y-69431000D01*
X123340568Y-69431000D01*
X123353895Y-69384160D01*
X123344336Y-69281000D01*
X123696566Y-69281000D01*
X123693561Y-69233237D01*
X123693560Y-69233231D01*
X123642814Y-69077049D01*
X123642810Y-69077041D01*
X123554817Y-68938385D01*
X123554812Y-68938379D01*
X123435098Y-68825961D01*
X123291183Y-68746842D01*
X123132118Y-68706001D01*
X123132111Y-68706000D01*
X122575000Y-68706000D01*
X122575000Y-69056000D01*
X122425000Y-69056000D01*
X122425000Y-68706000D01*
X121909110Y-68706000D01*
X121787066Y-68721417D01*
X121787061Y-68721418D01*
X121634377Y-68781870D01*
X121634366Y-68781876D01*
X121501509Y-68878403D01*
X121396827Y-69004940D01*
X121396824Y-69004946D01*
X121326898Y-69153546D01*
X121302585Y-69281000D01*
X112143970Y-69281000D01*
X118775460Y-62649509D01*
X120045021Y-62649509D01*
X120065658Y-62806269D01*
X120065658Y-62806270D01*
X120126167Y-62952350D01*
X120222418Y-63077788D01*
X120222423Y-63077793D01*
X120321251Y-63153626D01*
X120348449Y-63196317D01*
X120350203Y-63212334D01*
X120350203Y-67014819D01*
X120334911Y-67059867D01*
X120279714Y-67131801D01*
X120219205Y-67277881D01*
X120219205Y-67277882D01*
X120198568Y-67434643D01*
X120219205Y-67591403D01*
X120219205Y-67591404D01*
X120279714Y-67737484D01*
X120375965Y-67862922D01*
X120375970Y-67862927D01*
X120459595Y-67927094D01*
X120501409Y-67959179D01*
X120647488Y-68019687D01*
X120804250Y-68040325D01*
X120961012Y-68019687D01*
X121025527Y-67992964D01*
X122489500Y-67992964D01*
X122530046Y-68131050D01*
X122530047Y-68131054D01*
X122546568Y-68156761D01*
X122607857Y-68252128D01*
X122607859Y-68252129D01*
X122607860Y-68252131D01*
X122671417Y-68307203D01*
X122716627Y-68346377D01*
X122847543Y-68406165D01*
X122954201Y-68421500D01*
X122954207Y-68421500D01*
X123025793Y-68421500D01*
X123025799Y-68421500D01*
X123132457Y-68406165D01*
X123263373Y-68346377D01*
X123372143Y-68252128D01*
X123449953Y-68131053D01*
X123490499Y-67992963D01*
X123490500Y-67992963D01*
X123490500Y-67849036D01*
X123490499Y-67849035D01*
X123471613Y-67784714D01*
X123449953Y-67710947D01*
X123441091Y-67697158D01*
X123415129Y-67656760D01*
X123372143Y-67589872D01*
X123372140Y-67589869D01*
X123372139Y-67589868D01*
X123263373Y-67495623D01*
X123219231Y-67475464D01*
X123132457Y-67435835D01*
X123132455Y-67435834D01*
X123132454Y-67435834D01*
X123025803Y-67420500D01*
X123025799Y-67420500D01*
X122954201Y-67420500D01*
X122954196Y-67420500D01*
X122847545Y-67435834D01*
X122716626Y-67495623D01*
X122607860Y-67589868D01*
X122607855Y-67589875D01*
X122530047Y-67710945D01*
X122530046Y-67710949D01*
X122489500Y-67849035D01*
X122489500Y-67992964D01*
X121025527Y-67992964D01*
X121107091Y-67959179D01*
X121232532Y-67862925D01*
X121328786Y-67737484D01*
X121389294Y-67591405D01*
X121409932Y-67434643D01*
X121389294Y-67277881D01*
X121328786Y-67131802D01*
X121282680Y-67071715D01*
X121232534Y-67006363D01*
X121232529Y-67006358D01*
X121107091Y-66910107D01*
X120996884Y-66864457D01*
X120959564Y-66830259D01*
X120951203Y-66796090D01*
X120951203Y-66000000D01*
X124194435Y-66000000D01*
X124214632Y-66179254D01*
X124214634Y-66179263D01*
X124274209Y-66349520D01*
X124309300Y-66405366D01*
X124370184Y-66502262D01*
X124497738Y-66629816D01*
X124551890Y-66663842D01*
X124650479Y-66725790D01*
X124820736Y-66785365D01*
X124820745Y-66785368D01*
X125000000Y-66805565D01*
X125179255Y-66785368D01*
X125247481Y-66761494D01*
X125349520Y-66725790D01*
X125349522Y-66725789D01*
X125502262Y-66629816D01*
X125629816Y-66502262D01*
X125725789Y-66349522D01*
X125785368Y-66179255D01*
X125805565Y-66000000D01*
X125785368Y-65820745D01*
X125739508Y-65689684D01*
X125725790Y-65650479D01*
X125677266Y-65573254D01*
X125629816Y-65497738D01*
X125502262Y-65370184D01*
X125463054Y-65345547D01*
X125349520Y-65274209D01*
X125179263Y-65214634D01*
X125179256Y-65214632D01*
X125179255Y-65214632D01*
X125000000Y-65194435D01*
X124820745Y-65214632D01*
X124820736Y-65214634D01*
X124650479Y-65274209D01*
X124497739Y-65370183D01*
X124370183Y-65497739D01*
X124274209Y-65650479D01*
X124214634Y-65820736D01*
X124214632Y-65820745D01*
X124194435Y-66000000D01*
X120951203Y-66000000D01*
X120951203Y-64262000D01*
X122694435Y-64262000D01*
X122713138Y-64427999D01*
X122714632Y-64441254D01*
X122714634Y-64441263D01*
X122774209Y-64611520D01*
X122833177Y-64705366D01*
X122870184Y-64764262D01*
X122997738Y-64891816D01*
X122997740Y-64891817D01*
X122997741Y-64891818D01*
X123142335Y-64982672D01*
X123145176Y-64984648D01*
X123170467Y-65004054D01*
X123197159Y-65024536D01*
X123343238Y-65085044D01*
X123500000Y-65105682D01*
X123656762Y-65085044D01*
X123802841Y-65024536D01*
X123844585Y-64992503D01*
X123854822Y-64984649D01*
X123857663Y-64982673D01*
X123975830Y-64908424D01*
X124002262Y-64891816D01*
X124129816Y-64764262D01*
X124225789Y-64611522D01*
X124226938Y-64608240D01*
X124285365Y-64441263D01*
X124285368Y-64441255D01*
X124305565Y-64262000D01*
X124285368Y-64082745D01*
X124252805Y-63989684D01*
X124225790Y-63912479D01*
X124158494Y-63805379D01*
X124129816Y-63759738D01*
X124002262Y-63632184D01*
X123933647Y-63589070D01*
X123849520Y-63536209D01*
X123679263Y-63476634D01*
X123679256Y-63476632D01*
X123679255Y-63476632D01*
X123500000Y-63456435D01*
X123320745Y-63476632D01*
X123320736Y-63476634D01*
X123150479Y-63536209D01*
X122997739Y-63632183D01*
X122870183Y-63759739D01*
X122774209Y-63912479D01*
X122714634Y-64082736D01*
X122714632Y-64082745D01*
X122694435Y-64262000D01*
X120951203Y-64262000D01*
X120951203Y-63212334D01*
X120968516Y-63164768D01*
X120980155Y-63153626D01*
X121052125Y-63098401D01*
X121078985Y-63077791D01*
X121175239Y-62952350D01*
X121235747Y-62806271D01*
X121256385Y-62649509D01*
X121235747Y-62492747D01*
X121175239Y-62346668D01*
X121117138Y-62270949D01*
X121078987Y-62221229D01*
X121078982Y-62221224D01*
X121068217Y-62212964D01*
X122489500Y-62212964D01*
X122530046Y-62351050D01*
X122530047Y-62351054D01*
X122562834Y-62402071D01*
X122607857Y-62472128D01*
X122607859Y-62472129D01*
X122607860Y-62472131D01*
X122668359Y-62524553D01*
X122716627Y-62566377D01*
X122847543Y-62626165D01*
X122954201Y-62641500D01*
X122954207Y-62641500D01*
X123025793Y-62641500D01*
X123025799Y-62641500D01*
X123132457Y-62626165D01*
X123263373Y-62566377D01*
X123372143Y-62472128D01*
X123449953Y-62351053D01*
X123490499Y-62212963D01*
X123490500Y-62212963D01*
X123490500Y-62069036D01*
X123490499Y-62069035D01*
X123481211Y-62037403D01*
X123449953Y-61930947D01*
X123372143Y-61809872D01*
X123372140Y-61809869D01*
X123372139Y-61809868D01*
X123263373Y-61715623D01*
X123253975Y-61711331D01*
X123132457Y-61655835D01*
X123132455Y-61655834D01*
X123132454Y-61655834D01*
X123025803Y-61640500D01*
X123025799Y-61640500D01*
X122954201Y-61640500D01*
X122954196Y-61640500D01*
X122847545Y-61655834D01*
X122716626Y-61715623D01*
X122607860Y-61809868D01*
X122607855Y-61809875D01*
X122530047Y-61930945D01*
X122530046Y-61930949D01*
X122489500Y-62069035D01*
X122489500Y-62212964D01*
X121068217Y-62212964D01*
X120953544Y-62124973D01*
X120807464Y-62064464D01*
X120650703Y-62043827D01*
X120493942Y-62064464D01*
X120493941Y-62064464D01*
X120347861Y-62124973D01*
X120222423Y-62221224D01*
X120222418Y-62221229D01*
X120126167Y-62346667D01*
X120065658Y-62492747D01*
X120065658Y-62492748D01*
X120045021Y-62649509D01*
X118775460Y-62649509D01*
X120793969Y-60631000D01*
X121302585Y-60631000D01*
X121659432Y-60631000D01*
X121646105Y-60677840D01*
X121655664Y-60781000D01*
X121303434Y-60781000D01*
X121306438Y-60828762D01*
X121306439Y-60828768D01*
X121357185Y-60984950D01*
X121357189Y-60984958D01*
X121445182Y-61123614D01*
X121445187Y-61123620D01*
X121564901Y-61236038D01*
X121708816Y-61315157D01*
X121867881Y-61355998D01*
X121867889Y-61356000D01*
X122425000Y-61356000D01*
X122425000Y-61006000D01*
X122575000Y-61006000D01*
X122575000Y-61356000D01*
X123090890Y-61356000D01*
X123212933Y-61340582D01*
X123212938Y-61340581D01*
X123365622Y-61280129D01*
X123365633Y-61280123D01*
X123498490Y-61183596D01*
X123603172Y-61057059D01*
X123603175Y-61057053D01*
X123673101Y-60908453D01*
X123697414Y-60781000D01*
X123340568Y-60781000D01*
X123353895Y-60734160D01*
X123344336Y-60631000D01*
X123696566Y-60631000D01*
X123693561Y-60583237D01*
X123693560Y-60583231D01*
X123642814Y-60427049D01*
X123642810Y-60427041D01*
X123554817Y-60288385D01*
X123554812Y-60288379D01*
X123435098Y-60175961D01*
X123291183Y-60096842D01*
X123132118Y-60056001D01*
X123132111Y-60056000D01*
X122575000Y-60056000D01*
X122575000Y-60406000D01*
X122425000Y-60406000D01*
X122425000Y-60056000D01*
X121909110Y-60056000D01*
X121787066Y-60071417D01*
X121787061Y-60071418D01*
X121634377Y-60131870D01*
X121634366Y-60131876D01*
X121501509Y-60228403D01*
X121396827Y-60354940D01*
X121396824Y-60354946D01*
X121326898Y-60503546D01*
X121302585Y-60631000D01*
X120793969Y-60631000D01*
X122619288Y-58805681D01*
X122629136Y-58798599D01*
X122628753Y-58798092D01*
X122634221Y-58793961D01*
X122634228Y-58793958D01*
X122666837Y-58758186D01*
X122667995Y-58756975D01*
X122682174Y-58742797D01*
X122684673Y-58739147D01*
X122687848Y-58735138D01*
X122709916Y-58710933D01*
X122714514Y-58699063D01*
X122722465Y-58683977D01*
X122729657Y-58673480D01*
X122737153Y-58641607D01*
X122738669Y-58636711D01*
X122746865Y-58615557D01*
X122750500Y-58606173D01*
X122750500Y-58593446D01*
X122752466Y-58576502D01*
X122752587Y-58575988D01*
X122755379Y-58564119D01*
X122750854Y-58531683D01*
X122750500Y-58526573D01*
X122750500Y-53705130D01*
X122767813Y-53657564D01*
X122772164Y-53652814D01*
X122920579Y-53504399D01*
X122966453Y-53483008D01*
X122982553Y-53483358D01*
X123106070Y-53499620D01*
X123236648Y-53482429D01*
X123286067Y-53493385D01*
X123316882Y-53533544D01*
X123314674Y-53584115D01*
X123308965Y-53595166D01*
X123274210Y-53650477D01*
X123214634Y-53820736D01*
X123214632Y-53820745D01*
X123194435Y-54000000D01*
X123212097Y-54156760D01*
X123214632Y-54179254D01*
X123214634Y-54179263D01*
X123274209Y-54349520D01*
X123345547Y-54463054D01*
X123370184Y-54502262D01*
X123497738Y-54629816D01*
X123593712Y-54690120D01*
X123650479Y-54725790D01*
X123820736Y-54785365D01*
X123820745Y-54785368D01*
X124000000Y-54805565D01*
X124179255Y-54785368D01*
X124247481Y-54761494D01*
X124349520Y-54725790D01*
X124352022Y-54724218D01*
X124502262Y-54629816D01*
X124629816Y-54502262D01*
X124725789Y-54349522D01*
X124742124Y-54302841D01*
X124785365Y-54179263D01*
X124785368Y-54179255D01*
X124805565Y-54000000D01*
X124785368Y-53820745D01*
X124769085Y-53774211D01*
X124725790Y-53650479D01*
X124675764Y-53570864D01*
X124629816Y-53497738D01*
X124502262Y-53370184D01*
X124414162Y-53314827D01*
X124349520Y-53274209D01*
X124179263Y-53214634D01*
X124179256Y-53214632D01*
X124179255Y-53214632D01*
X124000000Y-53194435D01*
X123820745Y-53214632D01*
X123820741Y-53214633D01*
X123745820Y-53240849D01*
X123695205Y-53240217D01*
X123656838Y-53207199D01*
X123648670Y-53157243D01*
X123653011Y-53142688D01*
X123691114Y-53050700D01*
X123711752Y-52893938D01*
X123691114Y-52737176D01*
X123630606Y-52591097D01*
X123560705Y-52500000D01*
X123534354Y-52465658D01*
X123534349Y-52465653D01*
X123459485Y-52408208D01*
X123432287Y-52365517D01*
X123438894Y-52315331D01*
X123476214Y-52281133D01*
X123504533Y-52275500D01*
X123839493Y-52275500D01*
X123887059Y-52292813D01*
X123912369Y-52336650D01*
X123912859Y-52359158D01*
X123908282Y-52393933D01*
X123894318Y-52500000D01*
X123914955Y-52656760D01*
X123914955Y-52656761D01*
X123975464Y-52802841D01*
X124071715Y-52928279D01*
X124071720Y-52928284D01*
X124074061Y-52930080D01*
X124197159Y-53024536D01*
X124343238Y-53085044D01*
X124500000Y-53105682D01*
X124656762Y-53085044D01*
X124802841Y-53024536D01*
X124928282Y-52928282D01*
X125024536Y-52802841D01*
X125075769Y-52679154D01*
X125082133Y-52663790D01*
X125116330Y-52626469D01*
X125166516Y-52619862D01*
X125209208Y-52647060D01*
X125224500Y-52692108D01*
X125224500Y-53917992D01*
X125207187Y-53965558D01*
X125195548Y-53976700D01*
X125071720Y-54071715D01*
X125071715Y-54071720D01*
X124975464Y-54197158D01*
X124914955Y-54343238D01*
X124914955Y-54343239D01*
X124894318Y-54500000D01*
X124914955Y-54656760D01*
X124914955Y-54656761D01*
X124975464Y-54802841D01*
X125071715Y-54928279D01*
X125071720Y-54928284D01*
X125127436Y-54971036D01*
X125197159Y-55024536D01*
X125343238Y-55085044D01*
X125500000Y-55105682D01*
X125656762Y-55085044D01*
X125802841Y-55024536D01*
X125928282Y-54928282D01*
X126024536Y-54802841D01*
X126085044Y-54656762D01*
X126105682Y-54500000D01*
X126085044Y-54343238D01*
X126024536Y-54197159D01*
X125928282Y-54071718D01*
X125928279Y-54071715D01*
X125804452Y-53976700D01*
X125777254Y-53934009D01*
X125775500Y-53917992D01*
X125775500Y-51034420D01*
X125776922Y-51019983D01*
X125780897Y-51000000D01*
X125780897Y-50999999D01*
X125775500Y-50972867D01*
X125769484Y-50942624D01*
X125759515Y-50892505D01*
X125698624Y-50801376D01*
X125681679Y-50790053D01*
X125670470Y-50780854D01*
X125219145Y-50329529D01*
X125209942Y-50318314D01*
X125198626Y-50301378D01*
X125198624Y-50301376D01*
X125178644Y-50288025D01*
X125178641Y-50288023D01*
X125135975Y-50259515D01*
X125107495Y-50240485D01*
X125027133Y-50224500D01*
X125027132Y-50224500D01*
X125027130Y-50224499D01*
X125000001Y-50219103D01*
X125000000Y-50219103D01*
X124980017Y-50223078D01*
X124965580Y-50224500D01*
X123644768Y-50224500D01*
X123597202Y-50207187D01*
X123592442Y-50202826D01*
X122219145Y-48829529D01*
X122209942Y-48818314D01*
X122198626Y-48801378D01*
X122198624Y-48801376D01*
X122196108Y-48799695D01*
X122178644Y-48788025D01*
X122178641Y-48788023D01*
X122163415Y-48777850D01*
X122139182Y-48761658D01*
X122123338Y-48751071D01*
X122107496Y-48740485D01*
X122107497Y-48740485D01*
X122067314Y-48732492D01*
X122027133Y-48724500D01*
X122027132Y-48724500D01*
X122027130Y-48724499D01*
X122000001Y-48719103D01*
X122000000Y-48719103D01*
X121980017Y-48723078D01*
X121965580Y-48724500D01*
X121692109Y-48724500D01*
X121644543Y-48707187D01*
X121619233Y-48663350D01*
X121628023Y-48613500D01*
X121663790Y-48582133D01*
X121707255Y-48564129D01*
X121802841Y-48524536D01*
X121928282Y-48428282D01*
X122024536Y-48302841D01*
X122085044Y-48156762D01*
X122105682Y-48000000D01*
X122085044Y-47843238D01*
X122047254Y-47752006D01*
X122505019Y-47752006D01*
X122524917Y-48030220D01*
X122584208Y-48302778D01*
X122584213Y-48302796D01*
X122681685Y-48564125D01*
X122681686Y-48564129D01*
X122815361Y-48808938D01*
X122982526Y-49032242D01*
X123028108Y-49077824D01*
X123627665Y-48478266D01*
X123736257Y-48581808D01*
X123134175Y-49183891D01*
X123179757Y-49229473D01*
X123403061Y-49396638D01*
X123647870Y-49530313D01*
X123647874Y-49530314D01*
X123909203Y-49627786D01*
X123909221Y-49627791D01*
X124181779Y-49687082D01*
X124459993Y-49706981D01*
X124460007Y-49706981D01*
X124738220Y-49687082D01*
X125010778Y-49627791D01*
X125010796Y-49627786D01*
X125272125Y-49530314D01*
X125272129Y-49530313D01*
X125516938Y-49396638D01*
X125740239Y-49229476D01*
X125785824Y-49183890D01*
X125183983Y-48582049D01*
X125222540Y-48551729D01*
X125289045Y-48474978D01*
X125891890Y-49077823D01*
X125937476Y-49032239D01*
X126104638Y-48808938D01*
X126238313Y-48564129D01*
X126238314Y-48564125D01*
X126335786Y-48302796D01*
X126335791Y-48302778D01*
X126395082Y-48030220D01*
X126414981Y-47752006D01*
X126414981Y-47751993D01*
X126395082Y-47473779D01*
X126335791Y-47201221D01*
X126335786Y-47201203D01*
X126238314Y-46939874D01*
X126238313Y-46939870D01*
X126104638Y-46695061D01*
X125937473Y-46471757D01*
X125891891Y-46426175D01*
X125292333Y-47025732D01*
X125183741Y-46922190D01*
X125785824Y-46320108D01*
X125740242Y-46274526D01*
X125516938Y-46107361D01*
X125272129Y-45973686D01*
X125272125Y-45973685D01*
X125010796Y-45876213D01*
X125010778Y-45876208D01*
X124738220Y-45816917D01*
X124460007Y-45797019D01*
X124459993Y-45797019D01*
X124181779Y-45816917D01*
X123909221Y-45876208D01*
X123909203Y-45876213D01*
X123647874Y-45973685D01*
X123647870Y-45973686D01*
X123403061Y-46107361D01*
X123179757Y-46274526D01*
X123134175Y-46320108D01*
X123736016Y-46921949D01*
X123697460Y-46952271D01*
X123630954Y-47029021D01*
X123028108Y-46426175D01*
X122982526Y-46471757D01*
X122815361Y-46695061D01*
X122681686Y-46939870D01*
X122681685Y-46939874D01*
X122584213Y-47201203D01*
X122584208Y-47201221D01*
X122524917Y-47473779D01*
X122505019Y-47751993D01*
X122505019Y-47752006D01*
X122047254Y-47752006D01*
X122024536Y-47697159D01*
X121928282Y-47571718D01*
X121928279Y-47571715D01*
X121802841Y-47475464D01*
X121656761Y-47414955D01*
X121500000Y-47394318D01*
X121343239Y-47414955D01*
X121343238Y-47414955D01*
X121197158Y-47475464D01*
X121071720Y-47571715D01*
X121071715Y-47571720D01*
X120975464Y-47697158D01*
X120914955Y-47843238D01*
X120914955Y-47843239D01*
X120897890Y-47972867D01*
X120894318Y-48000000D01*
X120910574Y-48123480D01*
X120910578Y-48123505D01*
X120899622Y-48172924D01*
X120889537Y-48185490D01*
X119722203Y-49352826D01*
X119676327Y-49374218D01*
X119669877Y-49374500D01*
X117860064Y-49374500D01*
X117812498Y-49357187D01*
X117787188Y-49313350D01*
X117795978Y-49263500D01*
X117834755Y-49230963D01*
X117835623Y-49230653D01*
X117849520Y-49225790D01*
X117849522Y-49225789D01*
X118002262Y-49129816D01*
X118129816Y-49002262D01*
X118225789Y-48849522D01*
X118228808Y-48840896D01*
X118270034Y-48723078D01*
X118285368Y-48679255D01*
X118305565Y-48500000D01*
X118285368Y-48320745D01*
X118280056Y-48305564D01*
X118225790Y-48150479D01*
X118168044Y-48058578D01*
X118129816Y-47997738D01*
X118002262Y-47870184D01*
X117959378Y-47843238D01*
X117849520Y-47774209D01*
X117679263Y-47714634D01*
X117679256Y-47714632D01*
X117679255Y-47714632D01*
X117500000Y-47694435D01*
X117320745Y-47714632D01*
X117320736Y-47714634D01*
X117150479Y-47774209D01*
X116997739Y-47870183D01*
X116870183Y-47997739D01*
X116774209Y-48150479D01*
X116714634Y-48320736D01*
X116714632Y-48320745D01*
X116694435Y-48500000D01*
X116709797Y-48636347D01*
X116714632Y-48679254D01*
X116714634Y-48679263D01*
X116774209Y-48849520D01*
X116845547Y-48963054D01*
X116870184Y-49002262D01*
X116997738Y-49129816D01*
X117047262Y-49160934D01*
X117150479Y-49225790D01*
X117164377Y-49230653D01*
X117203556Y-49262704D01*
X117212966Y-49312441D01*
X117188205Y-49356590D01*
X117140858Y-49374494D01*
X117139936Y-49374500D01*
X114605587Y-49374500D01*
X114558021Y-49357187D01*
X114532711Y-49313350D01*
X114537220Y-49272182D01*
X114585027Y-49156764D01*
X114585028Y-49156762D01*
X114605666Y-49000000D01*
X114589405Y-48876489D01*
X114600361Y-48827073D01*
X114610441Y-48814512D01*
X118602781Y-44822174D01*
X118648657Y-44800782D01*
X118655107Y-44800500D01*
X125344877Y-44800500D01*
X125392443Y-44817813D01*
X125397203Y-44822174D01*
X127177826Y-46602797D01*
X127199218Y-46648673D01*
X127199500Y-46655123D01*
X127199500Y-53844876D01*
X127182187Y-53892442D01*
X127177826Y-53897202D01*
X124830708Y-56244319D01*
X124820865Y-56251405D01*
X124821245Y-56251908D01*
X124815773Y-56256040D01*
X124783174Y-56291797D01*
X124781997Y-56293029D01*
X124767822Y-56307206D01*
X124765326Y-56310851D01*
X124762145Y-56314866D01*
X124740085Y-56339065D01*
X124740083Y-56339067D01*
X124735483Y-56350941D01*
X124727536Y-56366017D01*
X124720344Y-56376517D01*
X124712847Y-56408390D01*
X124711330Y-56413288D01*
X124699500Y-56443828D01*
X124699500Y-56456553D01*
X124697535Y-56473488D01*
X124694621Y-56485881D01*
X124699145Y-56518316D01*
X124699500Y-56523424D01*
X124699500Y-60762629D01*
X124697547Y-60774606D01*
X124698174Y-60774694D01*
X124697226Y-60781482D01*
X124697901Y-60796067D01*
X124699461Y-60829819D01*
X124699500Y-60831504D01*
X124699500Y-60851567D01*
X124700311Y-60855903D01*
X124700903Y-60860998D01*
X124702415Y-60893711D01*
X124707554Y-60905349D01*
X124712600Y-60921640D01*
X124714938Y-60934149D01*
X124714939Y-60934150D01*
X124732175Y-60961991D01*
X124734566Y-60966526D01*
X124747794Y-60996482D01*
X124747795Y-60996483D01*
X124756793Y-61005481D01*
X124767380Y-61018847D01*
X124774081Y-61029669D01*
X124774082Y-61029670D01*
X124800212Y-61049403D01*
X124804082Y-61052770D01*
X125391002Y-61639690D01*
X125412394Y-61685566D01*
X125399293Y-61734461D01*
X125357829Y-61763495D01*
X125314235Y-61761863D01*
X125179263Y-61714634D01*
X125179256Y-61714632D01*
X125179255Y-61714632D01*
X125000000Y-61694435D01*
X124820745Y-61714632D01*
X124820736Y-61714634D01*
X124650479Y-61774209D01*
X124497735Y-61870186D01*
X124487360Y-61880560D01*
X124444698Y-61901597D01*
X124343238Y-61914955D01*
X124197158Y-61975464D01*
X124071720Y-62071715D01*
X124071715Y-62071720D01*
X123975464Y-62197158D01*
X123914955Y-62343238D01*
X123914955Y-62343239D01*
X123894318Y-62500000D01*
X123914955Y-62656760D01*
X123914955Y-62656761D01*
X123975464Y-62802841D01*
X124071715Y-62928279D01*
X124071720Y-62928284D01*
X124103084Y-62952350D01*
X124197159Y-63024536D01*
X124343238Y-63085044D01*
X124444697Y-63098401D01*
X124487362Y-63119440D01*
X124497738Y-63129816D01*
X124650479Y-63225790D01*
X124820736Y-63285365D01*
X124820745Y-63285368D01*
X125000000Y-63305565D01*
X125179255Y-63285368D01*
X125273292Y-63252463D01*
X125349520Y-63225790D01*
X125370935Y-63212334D01*
X125502262Y-63129816D01*
X125629816Y-63002262D01*
X125725789Y-62849522D01*
X125742124Y-62802841D01*
X125785365Y-62679263D01*
X125785368Y-62679255D01*
X125805565Y-62500000D01*
X125785368Y-62320745D01*
X125738136Y-62185763D01*
X125738767Y-62135149D01*
X125771785Y-62096781D01*
X125821740Y-62088613D01*
X125860309Y-62108997D01*
X126177826Y-62426514D01*
X126199218Y-62472390D01*
X126199500Y-62478840D01*
X126199500Y-66844876D01*
X126182187Y-66892442D01*
X126177826Y-66897202D01*
X124830708Y-68244319D01*
X124820865Y-68251405D01*
X124821245Y-68251908D01*
X124815773Y-68256040D01*
X124783174Y-68291797D01*
X124781997Y-68293029D01*
X124767822Y-68307206D01*
X124765326Y-68310851D01*
X124762145Y-68314866D01*
X124740085Y-68339065D01*
X124740083Y-68339067D01*
X124735483Y-68350941D01*
X124727536Y-68366017D01*
X124720344Y-68376517D01*
X124712847Y-68408390D01*
X124711330Y-68413288D01*
X124699500Y-68443828D01*
X124699500Y-68456553D01*
X124697535Y-68473488D01*
X124694621Y-68485881D01*
X124699145Y-68518316D01*
X124699500Y-68523424D01*
X124699500Y-73344876D01*
X124682187Y-73392442D01*
X124677826Y-73397202D01*
X124185490Y-73889537D01*
X124139613Y-73910929D01*
X124123508Y-73910578D01*
X124000000Y-73894318D01*
X123999999Y-73894318D01*
X123843239Y-73914955D01*
X123843238Y-73914955D01*
X123697158Y-73975464D01*
X123571720Y-74071715D01*
X123571715Y-74071720D01*
X123475464Y-74197158D01*
X123414955Y-74343238D01*
X123414955Y-74343239D01*
X123394318Y-74500000D01*
X123414955Y-74656760D01*
X123414955Y-74656761D01*
X123475464Y-74802841D01*
X123571715Y-74928279D01*
X123571720Y-74928284D01*
X123655345Y-74992451D01*
X123697159Y-75024536D01*
X123843238Y-75085044D01*
X124000000Y-75105682D01*
X124156762Y-75085044D01*
X124302841Y-75024536D01*
X124428282Y-74928282D01*
X124524536Y-74802841D01*
X124585044Y-74656762D01*
X124605682Y-74500000D01*
X124589422Y-74376492D01*
X124600378Y-74327073D01*
X124610458Y-74314512D01*
X125169290Y-73755680D01*
X125179136Y-73748599D01*
X125178753Y-73748092D01*
X125184221Y-73743961D01*
X125184228Y-73743958D01*
X125216828Y-73708196D01*
X125217964Y-73707006D01*
X125232175Y-73692797D01*
X125234674Y-73689146D01*
X125237850Y-73685136D01*
X125259916Y-73660933D01*
X125264510Y-73649070D01*
X125272468Y-73633973D01*
X125279657Y-73623480D01*
X125287153Y-73591607D01*
X125288668Y-73586710D01*
X125300500Y-73556173D01*
X125300500Y-73543446D01*
X125302466Y-73526503D01*
X125305379Y-73514118D01*
X125300854Y-73481680D01*
X125300500Y-73476571D01*
X125300500Y-69281000D01*
X125622585Y-69281000D01*
X125979432Y-69281000D01*
X125966105Y-69327840D01*
X125975664Y-69431000D01*
X125623434Y-69431000D01*
X125626438Y-69478762D01*
X125626439Y-69478768D01*
X125677185Y-69634950D01*
X125677189Y-69634958D01*
X125765182Y-69773614D01*
X125765187Y-69773620D01*
X125884901Y-69886038D01*
X126028816Y-69965157D01*
X126187881Y-70005998D01*
X126187889Y-70006000D01*
X126595000Y-70006000D01*
X126595000Y-69656000D01*
X126745000Y-69656000D01*
X126745000Y-70006000D01*
X127110890Y-70006000D01*
X127232933Y-69990582D01*
X127232938Y-69990581D01*
X127385622Y-69930129D01*
X127385633Y-69930123D01*
X127518490Y-69833596D01*
X127623172Y-69707059D01*
X127623175Y-69707053D01*
X127693101Y-69558453D01*
X127717414Y-69431000D01*
X127360568Y-69431000D01*
X127373895Y-69384160D01*
X127364336Y-69281000D01*
X127716566Y-69281000D01*
X127713561Y-69233237D01*
X127713560Y-69233231D01*
X127662814Y-69077049D01*
X127662810Y-69077041D01*
X127574817Y-68938385D01*
X127574812Y-68938379D01*
X127455098Y-68825961D01*
X127311183Y-68746842D01*
X127152118Y-68706001D01*
X127152111Y-68706000D01*
X126745000Y-68706000D01*
X126745000Y-69056000D01*
X126595000Y-69056000D01*
X126595000Y-68706000D01*
X126229110Y-68706000D01*
X126107066Y-68721417D01*
X126107061Y-68721418D01*
X125954377Y-68781870D01*
X125954366Y-68781876D01*
X125821509Y-68878403D01*
X125716827Y-69004940D01*
X125716824Y-69004946D01*
X125646898Y-69153546D01*
X125622585Y-69281000D01*
X125300500Y-69281000D01*
X125300500Y-68655122D01*
X125317813Y-68607556D01*
X125322163Y-68602807D01*
X126669288Y-67255681D01*
X126679136Y-67248599D01*
X126678753Y-67248092D01*
X126684221Y-67243961D01*
X126684228Y-67243958D01*
X126716837Y-67208186D01*
X126717995Y-67206975D01*
X126732174Y-67192797D01*
X126734673Y-67189147D01*
X126737848Y-67185138D01*
X126759916Y-67160933D01*
X126764515Y-67149058D01*
X126772468Y-67133973D01*
X126779656Y-67123481D01*
X126787152Y-67091609D01*
X126788667Y-67086713D01*
X126800500Y-67056173D01*
X126800500Y-67043446D01*
X126802466Y-67026502D01*
X126805379Y-67014119D01*
X126800854Y-66981683D01*
X126800500Y-66976573D01*
X126800500Y-62384806D01*
X126802454Y-62372832D01*
X126801826Y-62372745D01*
X126802773Y-62365954D01*
X126802084Y-62351050D01*
X126800538Y-62317614D01*
X126800500Y-62315928D01*
X126800500Y-62295874D01*
X126800159Y-62294049D01*
X126799687Y-62291528D01*
X126799096Y-62286444D01*
X126797585Y-62253725D01*
X126792442Y-62242077D01*
X126787398Y-62225786D01*
X126785061Y-62213285D01*
X126785061Y-62213284D01*
X126767826Y-62185448D01*
X126765437Y-62180916D01*
X126752206Y-62150951D01*
X126743206Y-62141951D01*
X126732616Y-62128581D01*
X126725919Y-62117765D01*
X126725918Y-62117764D01*
X126703056Y-62100500D01*
X126699788Y-62098032D01*
X126695924Y-62094669D01*
X126068854Y-61467599D01*
X126047462Y-61421723D01*
X126060563Y-61372828D01*
X126102027Y-61343794D01*
X126139583Y-61343598D01*
X126187881Y-61355999D01*
X126187889Y-61356000D01*
X126595000Y-61356000D01*
X126595000Y-61006000D01*
X126745000Y-61006000D01*
X126745000Y-61356000D01*
X127110890Y-61356000D01*
X127232933Y-61340582D01*
X127232938Y-61340581D01*
X127385622Y-61280129D01*
X127385633Y-61280123D01*
X127518490Y-61183596D01*
X127623172Y-61057059D01*
X127623175Y-61057053D01*
X127693101Y-60908453D01*
X127717414Y-60781000D01*
X127360568Y-60781000D01*
X127373895Y-60734160D01*
X127364336Y-60631000D01*
X127716566Y-60631000D01*
X127713561Y-60583237D01*
X127713560Y-60583231D01*
X127662814Y-60427049D01*
X127662810Y-60427041D01*
X127574817Y-60288385D01*
X127574812Y-60288379D01*
X127455098Y-60175961D01*
X127311183Y-60096842D01*
X127152118Y-60056001D01*
X127152111Y-60056000D01*
X126745000Y-60056000D01*
X126745000Y-60406000D01*
X126595000Y-60406000D01*
X126595000Y-60056000D01*
X126229110Y-60056000D01*
X126107066Y-60071417D01*
X126107061Y-60071418D01*
X125954377Y-60131870D01*
X125954366Y-60131876D01*
X125821509Y-60228403D01*
X125716827Y-60354940D01*
X125716824Y-60354946D01*
X125646898Y-60503546D01*
X125622585Y-60631000D01*
X125979432Y-60631000D01*
X125966105Y-60677840D01*
X125975664Y-60781000D01*
X125623434Y-60781000D01*
X125626438Y-60828762D01*
X125627311Y-60833336D01*
X125625481Y-60833685D01*
X125623954Y-60877176D01*
X125590075Y-60914786D01*
X125539947Y-60921821D01*
X125503022Y-60901767D01*
X125322174Y-60720919D01*
X125300782Y-60675043D01*
X125300500Y-60668593D01*
X125300500Y-57752463D01*
X125317813Y-57704897D01*
X125361650Y-57679587D01*
X125411500Y-57688377D01*
X125442867Y-57724145D01*
X125475463Y-57802840D01*
X125571715Y-57928279D01*
X125571720Y-57928284D01*
X125632601Y-57974999D01*
X125697159Y-58024536D01*
X125843238Y-58085044D01*
X126000000Y-58105682D01*
X126156762Y-58085044D01*
X126302841Y-58024536D01*
X126428282Y-57928282D01*
X126505415Y-57827759D01*
X126548106Y-57800562D01*
X126555834Y-57799273D01*
X126679255Y-57785368D01*
X126753139Y-57759515D01*
X126849520Y-57725790D01*
X126852138Y-57724145D01*
X127002262Y-57629816D01*
X127129816Y-57502262D01*
X127225789Y-57349522D01*
X127236196Y-57319782D01*
X127285365Y-57179263D01*
X127285368Y-57179255D01*
X127305565Y-57000000D01*
X127285368Y-56820745D01*
X127285365Y-56820736D01*
X127225790Y-56650479D01*
X127176299Y-56571715D01*
X127129816Y-56497738D01*
X127002262Y-56370184D01*
X126952740Y-56339067D01*
X126849520Y-56274209D01*
X126679263Y-56214634D01*
X126679256Y-56214632D01*
X126679255Y-56214632D01*
X126500000Y-56194435D01*
X126320745Y-56214632D01*
X126320736Y-56214634D01*
X126150479Y-56274209D01*
X125997739Y-56370183D01*
X125870183Y-56497739D01*
X125774209Y-56650479D01*
X125714634Y-56820736D01*
X125714632Y-56820744D01*
X125700725Y-56944163D01*
X125678194Y-56989492D01*
X125672239Y-56994585D01*
X125571717Y-57071718D01*
X125571715Y-57071720D01*
X125475464Y-57197158D01*
X125442867Y-57275855D01*
X125408669Y-57313175D01*
X125358483Y-57319782D01*
X125315792Y-57292584D01*
X125300500Y-57247536D01*
X125300500Y-56655123D01*
X125317813Y-56607557D01*
X125322174Y-56602797D01*
X127548174Y-54376797D01*
X127594050Y-54355405D01*
X127642945Y-54368506D01*
X127671979Y-54409970D01*
X127674500Y-54429123D01*
X127674500Y-57834521D01*
X127657187Y-57882087D01*
X127652826Y-57886847D01*
X127154249Y-58385423D01*
X127108372Y-58406815D01*
X127092265Y-58406464D01*
X127000000Y-58394318D01*
X126843239Y-58414955D01*
X126843238Y-58414955D01*
X126697158Y-58475464D01*
X126571720Y-58571715D01*
X126571715Y-58571720D01*
X126475464Y-58697158D01*
X126414955Y-58843238D01*
X126414955Y-58843239D01*
X126394318Y-59000000D01*
X126414955Y-59156760D01*
X126414955Y-59156761D01*
X126475464Y-59302841D01*
X126571715Y-59428279D01*
X126571720Y-59428284D01*
X126655345Y-59492451D01*
X126697159Y-59524536D01*
X126843238Y-59585044D01*
X127000000Y-59605682D01*
X127156762Y-59585044D01*
X127302841Y-59524536D01*
X127428282Y-59428282D01*
X127524536Y-59302841D01*
X127585044Y-59156762D01*
X127605682Y-59000000D01*
X127593534Y-58907733D01*
X127604490Y-58858315D01*
X127614570Y-58845754D01*
X128150140Y-58310184D01*
X128196015Y-58288793D01*
X128244910Y-58301894D01*
X128273944Y-58343358D01*
X128276465Y-58362477D01*
X128289113Y-86074922D01*
X128271822Y-86122496D01*
X128266949Y-86127768D01*
X127642173Y-86741000D01*
X127276052Y-87100356D01*
X127275587Y-87100812D01*
X127229513Y-87121775D01*
X127223751Y-87122000D01*
X104933100Y-87122000D01*
X104885534Y-87104687D01*
X104880238Y-87099785D01*
X104131611Y-86335590D01*
X103378000Y-85566306D01*
X103377999Y-85566306D01*
X91439999Y-85598000D01*
X89937499Y-87062340D01*
X89891351Y-87083140D01*
X89885977Y-87083345D01*
X87572334Y-87087304D01*
X87524738Y-87070073D01*
X87499353Y-87026279D01*
X87502359Y-86988867D01*
X87526368Y-86920255D01*
X87546565Y-86741000D01*
X87526368Y-86561745D01*
X87526365Y-86561736D01*
X87466790Y-86391479D01*
X87427935Y-86329643D01*
X87370816Y-86238738D01*
X87243262Y-86111184D01*
X87204054Y-86086547D01*
X87090520Y-86015209D01*
X86920263Y-85955634D01*
X86920256Y-85955632D01*
X86920255Y-85955632D01*
X86741000Y-85935435D01*
X86561745Y-85955632D01*
X86561736Y-85955634D01*
X86391479Y-86015209D01*
X86238739Y-86111183D01*
X86111183Y-86238739D01*
X86015209Y-86391479D01*
X85955634Y-86561736D01*
X85955632Y-86561745D01*
X85935435Y-86741000D01*
X85955632Y-86920254D01*
X85955633Y-86920258D01*
X85980634Y-86991708D01*
X85980002Y-87042323D01*
X85946984Y-87080691D01*
X85910913Y-87090148D01*
X81599758Y-87097525D01*
X81552162Y-87080294D01*
X81526777Y-87036500D01*
X81529783Y-86999086D01*
X81557368Y-86920255D01*
X81577565Y-86741000D01*
X81557368Y-86561745D01*
X81557365Y-86561736D01*
X81497790Y-86391479D01*
X81458935Y-86329643D01*
X81401816Y-86238738D01*
X81274262Y-86111184D01*
X81235054Y-86086547D01*
X81121520Y-86015209D01*
X80951263Y-85955634D01*
X80951256Y-85955632D01*
X80951255Y-85955632D01*
X80772000Y-85935435D01*
X80592745Y-85955632D01*
X80592736Y-85955634D01*
X80422479Y-86015209D01*
X80269739Y-86111183D01*
X80142183Y-86238739D01*
X80046209Y-86391479D01*
X79986634Y-86561736D01*
X79986632Y-86561745D01*
X79966435Y-86741000D01*
X79986632Y-86920254D01*
X79986633Y-86920258D01*
X80015206Y-87001916D01*
X80014574Y-87052531D01*
X79981556Y-87090898D01*
X79945485Y-87100356D01*
X67330715Y-87121946D01*
X67283119Y-87104715D01*
X67277907Y-87099914D01*
X66569319Y-86381611D01*
X66548239Y-86335590D01*
X66548000Y-86329643D01*
X66548000Y-83312006D01*
X69165019Y-83312006D01*
X69184917Y-83590220D01*
X69244208Y-83862778D01*
X69244213Y-83862796D01*
X69341685Y-84124125D01*
X69341686Y-84124129D01*
X69475361Y-84368938D01*
X69642526Y-84592242D01*
X69688108Y-84637824D01*
X70287665Y-84038266D01*
X70396257Y-84141808D01*
X69794175Y-84743891D01*
X69839757Y-84789473D01*
X70063061Y-84956638D01*
X70307870Y-85090313D01*
X70307874Y-85090314D01*
X70569203Y-85187786D01*
X70569221Y-85187791D01*
X70841779Y-85247082D01*
X71119993Y-85266981D01*
X71120007Y-85266981D01*
X71398220Y-85247082D01*
X71670778Y-85187791D01*
X71670796Y-85187786D01*
X71932125Y-85090314D01*
X71932129Y-85090313D01*
X72176938Y-84956638D01*
X72400239Y-84789476D01*
X72445824Y-84743890D01*
X71843983Y-84142049D01*
X71882540Y-84111729D01*
X71949045Y-84034978D01*
X72551890Y-84637823D01*
X72597476Y-84592239D01*
X72764638Y-84368938D01*
X72898313Y-84124129D01*
X72898314Y-84124125D01*
X72995786Y-83862796D01*
X72995791Y-83862778D01*
X73055082Y-83590220D01*
X73074981Y-83312006D01*
X73074981Y-83311993D01*
X73055082Y-83033779D01*
X72995791Y-82761221D01*
X72995786Y-82761203D01*
X72898314Y-82499874D01*
X72898313Y-82499870D01*
X72764638Y-82255061D01*
X72597473Y-82031757D01*
X72551891Y-81986175D01*
X71952333Y-82585732D01*
X71843741Y-82482190D01*
X72445824Y-81880108D01*
X72400242Y-81834526D01*
X72176938Y-81667361D01*
X71932129Y-81533686D01*
X71932125Y-81533685D01*
X71670796Y-81436213D01*
X71670778Y-81436208D01*
X71398220Y-81376917D01*
X71120007Y-81357019D01*
X71119993Y-81357019D01*
X70841779Y-81376917D01*
X70569221Y-81436208D01*
X70569203Y-81436213D01*
X70307874Y-81533685D01*
X70307870Y-81533686D01*
X70063061Y-81667361D01*
X69839757Y-81834526D01*
X69794175Y-81880108D01*
X70396016Y-82481949D01*
X70357460Y-82512271D01*
X70290954Y-82589021D01*
X69688108Y-81986175D01*
X69642526Y-82031757D01*
X69475361Y-82255061D01*
X69341686Y-82499870D01*
X69341685Y-82499874D01*
X69244213Y-82761203D01*
X69244208Y-82761221D01*
X69184917Y-83033779D01*
X69165019Y-83311993D01*
X69165019Y-83312006D01*
X66548000Y-83312006D01*
X66548000Y-79336000D01*
X66963254Y-79336000D01*
X66982156Y-79479577D01*
X66982157Y-79479581D01*
X67037575Y-79613372D01*
X67079683Y-79668248D01*
X67295274Y-79452656D01*
X67337760Y-79516240D01*
X67401341Y-79558723D01*
X67185750Y-79774314D01*
X67185750Y-79774315D01*
X67240627Y-79816424D01*
X67374418Y-79871842D01*
X67374422Y-79871843D01*
X67518000Y-79890745D01*
X67661577Y-79871843D01*
X67661581Y-79871842D01*
X67795366Y-79816427D01*
X67795371Y-79816424D01*
X67850248Y-79774314D01*
X67634658Y-79558724D01*
X67698240Y-79516240D01*
X67740724Y-79452658D01*
X67956314Y-79668248D01*
X67998424Y-79613371D01*
X67998427Y-79613366D01*
X68053842Y-79479581D01*
X68053843Y-79479577D01*
X68072745Y-79336000D01*
X68053843Y-79192422D01*
X68053842Y-79192418D01*
X67998424Y-79058627D01*
X67956315Y-79003750D01*
X67956314Y-79003750D01*
X67740723Y-79219341D01*
X67698240Y-79155760D01*
X67634656Y-79113274D01*
X67850248Y-78897683D01*
X67810261Y-78867000D01*
X94571435Y-78867000D01*
X94591632Y-79046254D01*
X94591634Y-79046263D01*
X94651209Y-79216520D01*
X94722547Y-79330054D01*
X94747184Y-79369262D01*
X94874738Y-79496816D01*
X94934586Y-79534421D01*
X95027479Y-79592790D01*
X95196330Y-79651873D01*
X95197745Y-79652368D01*
X95377000Y-79672565D01*
X95556255Y-79652368D01*
X95624481Y-79628494D01*
X95726520Y-79592790D01*
X95727243Y-79592336D01*
X95879262Y-79496816D01*
X96006816Y-79369262D01*
X96102789Y-79216522D01*
X96102866Y-79216304D01*
X96158039Y-79058627D01*
X96162368Y-79046255D01*
X96182565Y-78867000D01*
X96857435Y-78867000D01*
X96877632Y-79046254D01*
X96877634Y-79046263D01*
X96937209Y-79216520D01*
X97008547Y-79330054D01*
X97033184Y-79369262D01*
X97160738Y-79496816D01*
X97220586Y-79534421D01*
X97313479Y-79592790D01*
X97482330Y-79651873D01*
X97483745Y-79652368D01*
X97663000Y-79672565D01*
X97842255Y-79652368D01*
X97910481Y-79628494D01*
X98012520Y-79592790D01*
X98013243Y-79592336D01*
X98165262Y-79496816D01*
X98176361Y-79485717D01*
X99436347Y-79485717D01*
X99447054Y-79496424D01*
X99599697Y-79592336D01*
X99769845Y-79651873D01*
X99769856Y-79651876D01*
X99949000Y-79672061D01*
X100128143Y-79651876D01*
X100128154Y-79651873D01*
X100298302Y-79592336D01*
X100298304Y-79592336D01*
X100450946Y-79496424D01*
X100450947Y-79496423D01*
X100461651Y-79485717D01*
X99949000Y-78973066D01*
X99436347Y-79485717D01*
X98176361Y-79485717D01*
X98292816Y-79369262D01*
X98388789Y-79216522D01*
X98388866Y-79216304D01*
X98444039Y-79058627D01*
X98448368Y-79046255D01*
X98468565Y-78867000D01*
X99143938Y-78867000D01*
X99164123Y-79046143D01*
X99164126Y-79046154D01*
X99223663Y-79216302D01*
X99319575Y-79368945D01*
X99330281Y-79379651D01*
X99842932Y-78867000D01*
X100055066Y-78867000D01*
X100567717Y-79379651D01*
X100578423Y-79368947D01*
X100578424Y-79368946D01*
X100674336Y-79216304D01*
X100674336Y-79216302D01*
X100733873Y-79046154D01*
X100733876Y-79046143D01*
X100754061Y-78867000D01*
X100733876Y-78687856D01*
X100733873Y-78687845D01*
X100674336Y-78517697D01*
X100578424Y-78365054D01*
X100567717Y-78354347D01*
X100055066Y-78866999D01*
X100055066Y-78867000D01*
X99842932Y-78867000D01*
X99842933Y-78866999D01*
X99330281Y-78354347D01*
X99319576Y-78365053D01*
X99223663Y-78517695D01*
X99223663Y-78517697D01*
X99164126Y-78687845D01*
X99164123Y-78687856D01*
X99143938Y-78867000D01*
X98468565Y-78867000D01*
X98448368Y-78687745D01*
X98448365Y-78687736D01*
X98388790Y-78517479D01*
X98325223Y-78416314D01*
X98292816Y-78364738D01*
X98176359Y-78248281D01*
X99436347Y-78248281D01*
X99948999Y-78760933D01*
X100461652Y-78248281D01*
X100450945Y-78237575D01*
X100298302Y-78141663D01*
X100128154Y-78082126D01*
X100128143Y-78082123D01*
X99949000Y-78061938D01*
X99769856Y-78082123D01*
X99769845Y-78082126D01*
X99599697Y-78141663D01*
X99599695Y-78141663D01*
X99447053Y-78237576D01*
X99436347Y-78248281D01*
X98176359Y-78248281D01*
X98165262Y-78237184D01*
X98091355Y-78190745D01*
X98012520Y-78141209D01*
X97842263Y-78081634D01*
X97842256Y-78081632D01*
X97842255Y-78081632D01*
X97663000Y-78061435D01*
X97483745Y-78081632D01*
X97483736Y-78081634D01*
X97313479Y-78141209D01*
X97160739Y-78237183D01*
X97033183Y-78364739D01*
X96937209Y-78517479D01*
X96877634Y-78687736D01*
X96877632Y-78687745D01*
X96857435Y-78867000D01*
X96182565Y-78867000D01*
X96162368Y-78687745D01*
X96162365Y-78687736D01*
X96102790Y-78517479D01*
X96039223Y-78416314D01*
X96006816Y-78364738D01*
X95879262Y-78237184D01*
X95805355Y-78190745D01*
X95726520Y-78141209D01*
X95556263Y-78081634D01*
X95556256Y-78081632D01*
X95556255Y-78081632D01*
X95377000Y-78061435D01*
X95197745Y-78081632D01*
X95197736Y-78081634D01*
X95027479Y-78141209D01*
X94874739Y-78237183D01*
X94747183Y-78364739D01*
X94651209Y-78517479D01*
X94591634Y-78687736D01*
X94591632Y-78687745D01*
X94571435Y-78867000D01*
X67810261Y-78867000D01*
X67795372Y-78855575D01*
X67661581Y-78800157D01*
X67661577Y-78800156D01*
X67518000Y-78781254D01*
X67374422Y-78800156D01*
X67374421Y-78800156D01*
X67240625Y-78855576D01*
X67240624Y-78855577D01*
X67185750Y-78897683D01*
X67185750Y-78897684D01*
X67401341Y-79113275D01*
X67337760Y-79155760D01*
X67295275Y-79219341D01*
X67079684Y-79003750D01*
X67079683Y-79003750D01*
X67037577Y-79058624D01*
X67037576Y-79058625D01*
X66982156Y-79192421D01*
X66982156Y-79192422D01*
X66963254Y-79336000D01*
X66548000Y-79336000D01*
X66548000Y-77636000D01*
X66963254Y-77636000D01*
X66982156Y-77779577D01*
X66982157Y-77779581D01*
X67037575Y-77913372D01*
X67079683Y-77968248D01*
X67295274Y-77752656D01*
X67337760Y-77816240D01*
X67401341Y-77858723D01*
X67185750Y-78074314D01*
X67185750Y-78074315D01*
X67240627Y-78116424D01*
X67374418Y-78171842D01*
X67374422Y-78171843D01*
X67518000Y-78190745D01*
X67661577Y-78171843D01*
X67661581Y-78171842D01*
X67795366Y-78116427D01*
X67795371Y-78116424D01*
X67850248Y-78074314D01*
X67634658Y-77858724D01*
X67698240Y-77816240D01*
X67740724Y-77752658D01*
X67956314Y-77968248D01*
X67998424Y-77913371D01*
X67998427Y-77913366D01*
X68053842Y-77779581D01*
X68053843Y-77779577D01*
X68072745Y-77636000D01*
X68053843Y-77492422D01*
X68053842Y-77492418D01*
X67998424Y-77358627D01*
X67956315Y-77303750D01*
X67956314Y-77303750D01*
X67740723Y-77519341D01*
X67698240Y-77455760D01*
X67634656Y-77413274D01*
X67850248Y-77197683D01*
X67795372Y-77155575D01*
X67661581Y-77100157D01*
X67661577Y-77100156D01*
X67518000Y-77081254D01*
X67374422Y-77100156D01*
X67374421Y-77100156D01*
X67240625Y-77155576D01*
X67240624Y-77155577D01*
X67185750Y-77197683D01*
X67185750Y-77197684D01*
X67401341Y-77413275D01*
X67337760Y-77455760D01*
X67295275Y-77519341D01*
X67079684Y-77303750D01*
X67079683Y-77303750D01*
X67037577Y-77358624D01*
X67037576Y-77358625D01*
X66982156Y-77492421D01*
X66982156Y-77492422D01*
X66963254Y-77636000D01*
X66548000Y-77636000D01*
X66548000Y-77000000D01*
X85394318Y-77000000D01*
X85414955Y-77156760D01*
X85414955Y-77156761D01*
X85475464Y-77302841D01*
X85571715Y-77428279D01*
X85571720Y-77428284D01*
X85618608Y-77464262D01*
X85697159Y-77524536D01*
X85843238Y-77585044D01*
X85944697Y-77598401D01*
X85987362Y-77619440D01*
X85997738Y-77629816D01*
X86150479Y-77725790D01*
X86320736Y-77785365D01*
X86320745Y-77785368D01*
X86500000Y-77805565D01*
X86679255Y-77785368D01*
X86787856Y-77747367D01*
X86849520Y-77725790D01*
X86849522Y-77725789D01*
X87002262Y-77629816D01*
X87129816Y-77502262D01*
X87225789Y-77349522D01*
X87239087Y-77311520D01*
X87285365Y-77179263D01*
X87285368Y-77179255D01*
X87305565Y-77000000D01*
X87286974Y-76835000D01*
X93428435Y-76835000D01*
X93448632Y-77014254D01*
X93448634Y-77014263D01*
X93508209Y-77184520D01*
X93568889Y-77281091D01*
X93604184Y-77337262D01*
X93731738Y-77464816D01*
X93783877Y-77497577D01*
X93884479Y-77560790D01*
X94054736Y-77620365D01*
X94054745Y-77620368D01*
X94234000Y-77640565D01*
X94413255Y-77620368D01*
X94514205Y-77585044D01*
X94583520Y-77560790D01*
X94617110Y-77539684D01*
X94736262Y-77464816D01*
X94863816Y-77337262D01*
X94959789Y-77184522D01*
X94960747Y-77181786D01*
X95019365Y-77014263D01*
X95019368Y-77014255D01*
X95025256Y-76962000D01*
X95714435Y-76962000D01*
X95734632Y-77141254D01*
X95734634Y-77141263D01*
X95794209Y-77311520D01*
X95850123Y-77400505D01*
X95890184Y-77464262D01*
X96017738Y-77591816D01*
X96095320Y-77640564D01*
X96170479Y-77687790D01*
X96326847Y-77742505D01*
X96340745Y-77747368D01*
X96520000Y-77767565D01*
X96699255Y-77747368D01*
X96767481Y-77723494D01*
X96869520Y-77687790D01*
X96869522Y-77687789D01*
X97022262Y-77591816D01*
X97149816Y-77464262D01*
X97245789Y-77311522D01*
X97255151Y-77284769D01*
X97292071Y-77179255D01*
X97305368Y-77141255D01*
X97325565Y-76962000D01*
X97305368Y-76782745D01*
X97277903Y-76704254D01*
X97245790Y-76612479D01*
X97173301Y-76497114D01*
X97149816Y-76459738D01*
X97022262Y-76332184D01*
X96929999Y-76274211D01*
X96869520Y-76236209D01*
X96699263Y-76176634D01*
X96699256Y-76176632D01*
X96699255Y-76176632D01*
X96520000Y-76156435D01*
X96340745Y-76176632D01*
X96340736Y-76176634D01*
X96170479Y-76236209D01*
X96017739Y-76332183D01*
X95890183Y-76459739D01*
X95794209Y-76612479D01*
X95734634Y-76782736D01*
X95734632Y-76782745D01*
X95714435Y-76962000D01*
X95025256Y-76962000D01*
X95039565Y-76835000D01*
X95019368Y-76655745D01*
X94963860Y-76497114D01*
X94960340Y-76482331D01*
X94946044Y-76373738D01*
X94946043Y-76373734D01*
X94944573Y-76370186D01*
X94885536Y-76227657D01*
X94830886Y-76156435D01*
X94789284Y-76102218D01*
X94789279Y-76102213D01*
X94663841Y-76005962D01*
X94517761Y-75945453D01*
X94361000Y-75924816D01*
X94204239Y-75945453D01*
X94204238Y-75945453D01*
X94058159Y-76005961D01*
X93965810Y-76076823D01*
X93945203Y-76087961D01*
X93884482Y-76109208D01*
X93731741Y-76205181D01*
X93604183Y-76332739D01*
X93508209Y-76485479D01*
X93448634Y-76655736D01*
X93448632Y-76655745D01*
X93428435Y-76835000D01*
X87286974Y-76835000D01*
X87285368Y-76820745D01*
X87244606Y-76704253D01*
X87245237Y-76653639D01*
X87262125Y-76627489D01*
X91592442Y-72297174D01*
X91638318Y-72275782D01*
X91644768Y-72275500D01*
X95807891Y-72275500D01*
X95855457Y-72292813D01*
X95880767Y-72336650D01*
X95871977Y-72386500D01*
X95836210Y-72417867D01*
X95697158Y-72475464D01*
X95571720Y-72571715D01*
X95571715Y-72571720D01*
X95475464Y-72697158D01*
X95414955Y-72843238D01*
X95414955Y-72843239D01*
X95394318Y-73000000D01*
X95414955Y-73156760D01*
X95414955Y-73156761D01*
X95475464Y-73302841D01*
X95571715Y-73428279D01*
X95571720Y-73428284D01*
X95641321Y-73481690D01*
X95697159Y-73524536D01*
X95843238Y-73585044D01*
X96000000Y-73605682D01*
X96156762Y-73585044D01*
X96302841Y-73524536D01*
X96428282Y-73428282D01*
X96524536Y-73302841D01*
X96585044Y-73156762D01*
X96605682Y-73000000D01*
X96585308Y-72845247D01*
X96596264Y-72795831D01*
X96606344Y-72783270D01*
X97592442Y-71797174D01*
X97638319Y-71775782D01*
X97644768Y-71775500D01*
X97917992Y-71775500D01*
X97965558Y-71792813D01*
X97976700Y-71804452D01*
X98071715Y-71928279D01*
X98071720Y-71928284D01*
X98133207Y-71975464D01*
X98197159Y-72024536D01*
X98343238Y-72085044D01*
X98500000Y-72105682D01*
X98656762Y-72085044D01*
X98802841Y-72024536D01*
X98928282Y-71928282D01*
X99024536Y-71802841D01*
X99085044Y-71656762D01*
X99105682Y-71500000D01*
X99085044Y-71343238D01*
X99024536Y-71197159D01*
X98972861Y-71129814D01*
X98928284Y-71071720D01*
X98928279Y-71071715D01*
X98802841Y-70975464D01*
X98656761Y-70914955D01*
X98500000Y-70894318D01*
X98343239Y-70914955D01*
X98343238Y-70914955D01*
X98197158Y-70975464D01*
X98071720Y-71071715D01*
X98071715Y-71071720D01*
X97976700Y-71195548D01*
X97934009Y-71222746D01*
X97917992Y-71224500D01*
X97534420Y-71224500D01*
X97519983Y-71223078D01*
X97500000Y-71219103D01*
X97392504Y-71240485D01*
X97326305Y-71284718D01*
X97301376Y-71301375D01*
X97301374Y-71301377D01*
X97290053Y-71318319D01*
X97280853Y-71329529D01*
X96216733Y-72393649D01*
X96170857Y-72415041D01*
X96154748Y-72414690D01*
X96101264Y-72407649D01*
X96056365Y-72384276D01*
X96036993Y-72337510D01*
X96052215Y-72289234D01*
X96094906Y-72262036D01*
X96096381Y-72261725D01*
X96107495Y-72259515D01*
X96149465Y-72231471D01*
X96175622Y-72213994D01*
X96175622Y-72213993D01*
X96183636Y-72208639D01*
X96183638Y-72208636D01*
X96198624Y-72198624D01*
X96209944Y-72181681D01*
X96219141Y-72170474D01*
X98283266Y-70106348D01*
X98329141Y-70084957D01*
X98345241Y-70085307D01*
X98500000Y-70105682D01*
X98656762Y-70085044D01*
X98802841Y-70024536D01*
X98928282Y-69928282D01*
X99024536Y-69802841D01*
X99085044Y-69656762D01*
X99105682Y-69500000D01*
X99085044Y-69343238D01*
X99024536Y-69197159D01*
X98932373Y-69077049D01*
X98928284Y-69071720D01*
X98928279Y-69071715D01*
X98802841Y-68975464D01*
X98656761Y-68914955D01*
X98500000Y-68894318D01*
X98343239Y-68914955D01*
X98343238Y-68914955D01*
X98197158Y-68975464D01*
X98071720Y-69071715D01*
X98071715Y-69071720D01*
X97975464Y-69197158D01*
X97914955Y-69343238D01*
X97914955Y-69343239D01*
X97894318Y-69500000D01*
X97914690Y-69654749D01*
X97903734Y-69704168D01*
X97893649Y-69716733D01*
X95907558Y-71702826D01*
X95861682Y-71724218D01*
X95855232Y-71724500D01*
X91534420Y-71724500D01*
X91519984Y-71723078D01*
X91500000Y-71719103D01*
X91499999Y-71719103D01*
X91472868Y-71724500D01*
X91472867Y-71724500D01*
X91392505Y-71740485D01*
X91364025Y-71759515D01*
X91326309Y-71784714D01*
X91326305Y-71784718D01*
X91301376Y-71801375D01*
X91301374Y-71801377D01*
X91290053Y-71818319D01*
X91280853Y-71829529D01*
X86872511Y-76237871D01*
X86826635Y-76259263D01*
X86795745Y-76255393D01*
X86679258Y-76214633D01*
X86679257Y-76214632D01*
X86679255Y-76214632D01*
X86500000Y-76194435D01*
X86320745Y-76214632D01*
X86320736Y-76214634D01*
X86150479Y-76274209D01*
X85997735Y-76370186D01*
X85987360Y-76380560D01*
X85944698Y-76401597D01*
X85843238Y-76414955D01*
X85697158Y-76475464D01*
X85571720Y-76571715D01*
X85571715Y-76571720D01*
X85475464Y-76697158D01*
X85414955Y-76843238D01*
X85414955Y-76843239D01*
X85394318Y-77000000D01*
X66548000Y-77000000D01*
X66548000Y-70500000D01*
X70394318Y-70500000D01*
X70414955Y-70656760D01*
X70414955Y-70656761D01*
X70475464Y-70802841D01*
X70571715Y-70928279D01*
X70571720Y-70928284D01*
X70605109Y-70953904D01*
X70697159Y-71024536D01*
X70843238Y-71085044D01*
X71000000Y-71105682D01*
X71156762Y-71085044D01*
X71302841Y-71024536D01*
X71428282Y-70928282D01*
X71523300Y-70804452D01*
X71565991Y-70777254D01*
X71582008Y-70775500D01*
X72695804Y-70775500D01*
X72743370Y-70792813D01*
X72765651Y-70825058D01*
X72774211Y-70849522D01*
X72870184Y-71002262D01*
X72997738Y-71129816D01*
X73062784Y-71170687D01*
X73150479Y-71225790D01*
X73318887Y-71284718D01*
X73320745Y-71285368D01*
X73500000Y-71305565D01*
X73679255Y-71285368D01*
X73753139Y-71259515D01*
X73849520Y-71225790D01*
X73849522Y-71225789D01*
X74002262Y-71129816D01*
X74129816Y-71002262D01*
X74225789Y-70849522D01*
X74242124Y-70802841D01*
X74285365Y-70679263D01*
X74285368Y-70679255D01*
X74305565Y-70500000D01*
X81194435Y-70500000D01*
X81212097Y-70656760D01*
X81214632Y-70679254D01*
X81214634Y-70679263D01*
X81274209Y-70849520D01*
X81305406Y-70899169D01*
X81370184Y-71002262D01*
X81497738Y-71129816D01*
X81562784Y-71170687D01*
X81650479Y-71225790D01*
X81818887Y-71284718D01*
X81820745Y-71285368D01*
X82000000Y-71305565D01*
X82179255Y-71285368D01*
X82349522Y-71225789D01*
X82502262Y-71129816D01*
X82512634Y-71119443D01*
X82555301Y-71098401D01*
X82656762Y-71085044D01*
X82802841Y-71024536D01*
X82928282Y-70928282D01*
X83024536Y-70802841D01*
X83085044Y-70656762D01*
X83105682Y-70500000D01*
X83085044Y-70343238D01*
X83024536Y-70197159D01*
X82957316Y-70109556D01*
X82928284Y-70071720D01*
X82928279Y-70071715D01*
X82802841Y-69975464D01*
X82656761Y-69914955D01*
X82555300Y-69901597D01*
X82512636Y-69880558D01*
X82502261Y-69870183D01*
X82349520Y-69774209D01*
X82179263Y-69714634D01*
X82179256Y-69714632D01*
X82179255Y-69714632D01*
X82000000Y-69694435D01*
X81820745Y-69714632D01*
X81820736Y-69714634D01*
X81650479Y-69774209D01*
X81497739Y-69870183D01*
X81370183Y-69997739D01*
X81274209Y-70150479D01*
X81214634Y-70320736D01*
X81214632Y-70320745D01*
X81194435Y-70500000D01*
X74305565Y-70500000D01*
X74285368Y-70320745D01*
X74244606Y-70204253D01*
X74245237Y-70153639D01*
X74262125Y-70127489D01*
X76092442Y-68297174D01*
X76138319Y-68275782D01*
X76144768Y-68275500D01*
X85917992Y-68275500D01*
X85965558Y-68292813D01*
X85976700Y-68304452D01*
X86071715Y-68428279D01*
X86071720Y-68428284D01*
X86130641Y-68473495D01*
X86197159Y-68524536D01*
X86343238Y-68585044D01*
X86500000Y-68605682D01*
X86656762Y-68585044D01*
X86802841Y-68524536D01*
X86928282Y-68428282D01*
X87024536Y-68302841D01*
X87085044Y-68156762D01*
X87105682Y-68000000D01*
X87085044Y-67843238D01*
X87024536Y-67697159D01*
X86992451Y-67655345D01*
X86928284Y-67571720D01*
X86928279Y-67571715D01*
X86802841Y-67475464D01*
X86656761Y-67414955D01*
X86500000Y-67394318D01*
X86343239Y-67414955D01*
X86343238Y-67414955D01*
X86197158Y-67475464D01*
X86071720Y-67571715D01*
X86071715Y-67571720D01*
X85976700Y-67695548D01*
X85934009Y-67722746D01*
X85917992Y-67724500D01*
X76034420Y-67724500D01*
X76019983Y-67723078D01*
X76000000Y-67719103D01*
X75999999Y-67719103D01*
X75972868Y-67724500D01*
X75972867Y-67724500D01*
X75907592Y-67737484D01*
X75892505Y-67740485D01*
X75864025Y-67759515D01*
X75826309Y-67784714D01*
X75826305Y-67784718D01*
X75801376Y-67801375D01*
X75801374Y-67801377D01*
X75790053Y-67818319D01*
X75780853Y-67829529D01*
X73872511Y-69737871D01*
X73826635Y-69759263D01*
X73795745Y-69755393D01*
X73679258Y-69714633D01*
X73679257Y-69714632D01*
X73679255Y-69714632D01*
X73500000Y-69694435D01*
X73320745Y-69714632D01*
X73320736Y-69714634D01*
X73150479Y-69774209D01*
X72997739Y-69870183D01*
X72870183Y-69997739D01*
X72774211Y-70150477D01*
X72765652Y-70174940D01*
X72733601Y-70214119D01*
X72695804Y-70224500D01*
X71582008Y-70224500D01*
X71534442Y-70207187D01*
X71523300Y-70195548D01*
X71428284Y-70071720D01*
X71428279Y-70071715D01*
X71302841Y-69975464D01*
X71156761Y-69914955D01*
X71000000Y-69894318D01*
X70843239Y-69914955D01*
X70843238Y-69914955D01*
X70697158Y-69975464D01*
X70571720Y-70071715D01*
X70571715Y-70071720D01*
X70475464Y-70197158D01*
X70414955Y-70343238D01*
X70414955Y-70343239D01*
X70394318Y-70500000D01*
X66548000Y-70500000D01*
X66548000Y-67500000D01*
X69894318Y-67500000D01*
X69914955Y-67656760D01*
X69914955Y-67656761D01*
X69975464Y-67802841D01*
X70071715Y-67928279D01*
X70071720Y-67928284D01*
X70111984Y-67959179D01*
X70197159Y-68024536D01*
X70343238Y-68085044D01*
X70500000Y-68105682D01*
X70656762Y-68085044D01*
X70802841Y-68024536D01*
X70928282Y-67928282D01*
X71024536Y-67802841D01*
X71085044Y-67656762D01*
X71105682Y-67500000D01*
X71085044Y-67343238D01*
X71024536Y-67197159D01*
X70928282Y-67071718D01*
X70928279Y-67071715D01*
X70804452Y-66976700D01*
X70777254Y-66934009D01*
X70775500Y-66917992D01*
X70775500Y-62500000D01*
X74694435Y-62500000D01*
X74712097Y-62656760D01*
X74714632Y-62679254D01*
X74714634Y-62679263D01*
X74774209Y-62849520D01*
X74823697Y-62928279D01*
X74870184Y-63002262D01*
X74997738Y-63129816D01*
X75077951Y-63180217D01*
X75150479Y-63225790D01*
X75320736Y-63285365D01*
X75320745Y-63285368D01*
X75500000Y-63305565D01*
X75679255Y-63285368D01*
X75773292Y-63252463D01*
X75849520Y-63225790D01*
X75870935Y-63212334D01*
X76002262Y-63129816D01*
X76129816Y-63002262D01*
X76225789Y-62849522D01*
X76242124Y-62802841D01*
X76285365Y-62679263D01*
X76285368Y-62679255D01*
X76299273Y-62555837D01*
X76321803Y-62510509D01*
X76327760Y-62505415D01*
X76344269Y-62492747D01*
X76428282Y-62428282D01*
X76524536Y-62302841D01*
X76585044Y-62156762D01*
X76605682Y-62000000D01*
X76585044Y-61843238D01*
X76524536Y-61697159D01*
X76492451Y-61655345D01*
X76428284Y-61571720D01*
X76428279Y-61571715D01*
X76302841Y-61475464D01*
X76156761Y-61414955D01*
X76000000Y-61394318D01*
X75843239Y-61414955D01*
X75843238Y-61414955D01*
X75697158Y-61475464D01*
X75571720Y-61571715D01*
X75571718Y-61571717D01*
X75494585Y-61672239D01*
X75451893Y-61699436D01*
X75444163Y-61700725D01*
X75320744Y-61714632D01*
X75320736Y-61714634D01*
X75150479Y-61774209D01*
X74997739Y-61870183D01*
X74870183Y-61997739D01*
X74774209Y-62150479D01*
X74714634Y-62320736D01*
X74714632Y-62320745D01*
X74694435Y-62500000D01*
X70775500Y-62500000D01*
X70775500Y-61082008D01*
X70792813Y-61034442D01*
X70804452Y-61023300D01*
X70884351Y-60961991D01*
X70928282Y-60928282D01*
X71024536Y-60802841D01*
X71085044Y-60656762D01*
X71105682Y-60500000D01*
X71085044Y-60343238D01*
X71024536Y-60197159D01*
X70974438Y-60131870D01*
X70928284Y-60071720D01*
X70928279Y-60071715D01*
X70802841Y-59975464D01*
X70656761Y-59914955D01*
X70500000Y-59894318D01*
X70343239Y-59914955D01*
X70343238Y-59914955D01*
X70197158Y-59975464D01*
X70071720Y-60071715D01*
X70071715Y-60071720D01*
X69975464Y-60197158D01*
X69914955Y-60343238D01*
X69914955Y-60343239D01*
X69894318Y-60500000D01*
X69914955Y-60656760D01*
X69914955Y-60656761D01*
X69975464Y-60802841D01*
X70071715Y-60928279D01*
X70071720Y-60928284D01*
X70195548Y-61023300D01*
X70222746Y-61065991D01*
X70224500Y-61082008D01*
X70224500Y-66917992D01*
X70207187Y-66965558D01*
X70195548Y-66976700D01*
X70071720Y-67071715D01*
X70071715Y-67071720D01*
X69975464Y-67197158D01*
X69914955Y-67343238D01*
X69914955Y-67343239D01*
X69894318Y-67500000D01*
X66548000Y-67500000D01*
X66548000Y-66128000D01*
X66963254Y-66128000D01*
X66982156Y-66271577D01*
X66982157Y-66271581D01*
X67037575Y-66405372D01*
X67079683Y-66460248D01*
X67295274Y-66244656D01*
X67337760Y-66308240D01*
X67401341Y-66350723D01*
X67185750Y-66566314D01*
X67185750Y-66566315D01*
X67240627Y-66608424D01*
X67374418Y-66663842D01*
X67374422Y-66663843D01*
X67518000Y-66682745D01*
X67661577Y-66663843D01*
X67661581Y-66663842D01*
X67795366Y-66608427D01*
X67795371Y-66608424D01*
X67850248Y-66566314D01*
X67634658Y-66350724D01*
X67698240Y-66308240D01*
X67740724Y-66244658D01*
X67956314Y-66460248D01*
X67998424Y-66405371D01*
X67998427Y-66405366D01*
X68053842Y-66271581D01*
X68053843Y-66271577D01*
X68072745Y-66128000D01*
X68053843Y-65984422D01*
X68053842Y-65984418D01*
X67998424Y-65850627D01*
X67956315Y-65795750D01*
X67956314Y-65795750D01*
X67740723Y-66011341D01*
X67698240Y-65947760D01*
X67634656Y-65905274D01*
X67850248Y-65689683D01*
X67795372Y-65647575D01*
X67661581Y-65592157D01*
X67661577Y-65592156D01*
X67518000Y-65573254D01*
X67374422Y-65592156D01*
X67374421Y-65592156D01*
X67240625Y-65647576D01*
X67240624Y-65647577D01*
X67185750Y-65689683D01*
X67185750Y-65689684D01*
X67401341Y-65905275D01*
X67337760Y-65947760D01*
X67295275Y-66011341D01*
X67079684Y-65795750D01*
X67079683Y-65795750D01*
X67037577Y-65850624D01*
X67037576Y-65850625D01*
X66982156Y-65984421D01*
X66982156Y-65984422D01*
X66963254Y-66128000D01*
X66548000Y-66128000D01*
X66548000Y-64428000D01*
X66963254Y-64428000D01*
X66982156Y-64571577D01*
X66982157Y-64571581D01*
X67037575Y-64705372D01*
X67079683Y-64760248D01*
X67295274Y-64544656D01*
X67337760Y-64608240D01*
X67401341Y-64650723D01*
X67185750Y-64866314D01*
X67185750Y-64866315D01*
X67240627Y-64908424D01*
X67374418Y-64963842D01*
X67374422Y-64963843D01*
X67518000Y-64982745D01*
X67661577Y-64963843D01*
X67661581Y-64963842D01*
X67795366Y-64908427D01*
X67795371Y-64908424D01*
X67850248Y-64866314D01*
X67634658Y-64650724D01*
X67698240Y-64608240D01*
X67740724Y-64544658D01*
X67956314Y-64760248D01*
X67998424Y-64705371D01*
X67998427Y-64705366D01*
X68053842Y-64571581D01*
X68053843Y-64571577D01*
X68072745Y-64428000D01*
X68053843Y-64284422D01*
X68053842Y-64284418D01*
X67998424Y-64150627D01*
X67956315Y-64095750D01*
X67956314Y-64095750D01*
X67740723Y-64311341D01*
X67698240Y-64247760D01*
X67634656Y-64205274D01*
X67850248Y-63989683D01*
X67795372Y-63947575D01*
X67661581Y-63892157D01*
X67661577Y-63892156D01*
X67518000Y-63873254D01*
X67374422Y-63892156D01*
X67374421Y-63892156D01*
X67240625Y-63947576D01*
X67240624Y-63947577D01*
X67185750Y-63989683D01*
X67185750Y-63989684D01*
X67401341Y-64205275D01*
X67337760Y-64247760D01*
X67295275Y-64311341D01*
X67079684Y-64095750D01*
X67079683Y-64095750D01*
X67037577Y-64150624D01*
X67037576Y-64150625D01*
X66982156Y-64284421D01*
X66982156Y-64284422D01*
X66963254Y-64428000D01*
X66548000Y-64428000D01*
X66548000Y-54500000D01*
X71194435Y-54500000D01*
X71212097Y-54656760D01*
X71214632Y-54679254D01*
X71214634Y-54679263D01*
X71274209Y-54849520D01*
X71276205Y-54852696D01*
X71370184Y-55002262D01*
X71497738Y-55129816D01*
X71592944Y-55189638D01*
X71650479Y-55225790D01*
X71820736Y-55285365D01*
X71820745Y-55285368D01*
X72000000Y-55305565D01*
X72179255Y-55285368D01*
X72253139Y-55259515D01*
X72349520Y-55225790D01*
X72349522Y-55225789D01*
X72502262Y-55129816D01*
X72629816Y-55002262D01*
X72725789Y-54849522D01*
X72742124Y-54802841D01*
X72785365Y-54679263D01*
X72785368Y-54679255D01*
X72805565Y-54500000D01*
X72785368Y-54320745D01*
X72785365Y-54320736D01*
X72725790Y-54150479D01*
X72651726Y-54032608D01*
X72629816Y-53997738D01*
X72502262Y-53870184D01*
X72436943Y-53829141D01*
X72349520Y-53774209D01*
X72179263Y-53714634D01*
X72179256Y-53714632D01*
X72179255Y-53714632D01*
X72000000Y-53694435D01*
X71820745Y-53714632D01*
X71820736Y-53714634D01*
X71650479Y-53774209D01*
X71497739Y-53870183D01*
X71370183Y-53997739D01*
X71274209Y-54150479D01*
X71214634Y-54320736D01*
X71214632Y-54320745D01*
X71194435Y-54500000D01*
X66548000Y-54500000D01*
X66548000Y-52920000D01*
X66963254Y-52920000D01*
X66982156Y-53063577D01*
X66982157Y-53063581D01*
X67037575Y-53197372D01*
X67079683Y-53252248D01*
X67295274Y-53036656D01*
X67337760Y-53100240D01*
X67401341Y-53142723D01*
X67185750Y-53358314D01*
X67185750Y-53358315D01*
X67240627Y-53400424D01*
X67374418Y-53455842D01*
X67374422Y-53455843D01*
X67518000Y-53474745D01*
X67661577Y-53455843D01*
X67661581Y-53455842D01*
X67795366Y-53400427D01*
X67795371Y-53400424D01*
X67850248Y-53358314D01*
X67634658Y-53142724D01*
X67698240Y-53100240D01*
X67740724Y-53036658D01*
X67956314Y-53252248D01*
X67998424Y-53197371D01*
X67998427Y-53197366D01*
X68031004Y-53118717D01*
X78487347Y-53118717D01*
X78498054Y-53129424D01*
X78650697Y-53225336D01*
X78820845Y-53284873D01*
X78820856Y-53284876D01*
X79000000Y-53305061D01*
X79179143Y-53284876D01*
X79179154Y-53284873D01*
X79349302Y-53225336D01*
X79349304Y-53225336D01*
X79501946Y-53129424D01*
X79501947Y-53129423D01*
X79512651Y-53118717D01*
X79000000Y-52606066D01*
X78487347Y-53118717D01*
X68031004Y-53118717D01*
X68053842Y-53063581D01*
X68053843Y-53063577D01*
X68072745Y-52920000D01*
X68053843Y-52776422D01*
X68053842Y-52776418D01*
X67998424Y-52642627D01*
X67956315Y-52587750D01*
X67956314Y-52587750D01*
X67740723Y-52803341D01*
X67698240Y-52739760D01*
X67634656Y-52697274D01*
X67831931Y-52500000D01*
X78194938Y-52500000D01*
X78215123Y-52679143D01*
X78215126Y-52679154D01*
X78274663Y-52849302D01*
X78370575Y-53001945D01*
X78381281Y-53012651D01*
X78893932Y-52500000D01*
X79106066Y-52500000D01*
X79618717Y-53012651D01*
X79629423Y-53001947D01*
X79629424Y-53001946D01*
X79725336Y-52849304D01*
X79725336Y-52849302D01*
X79784873Y-52679154D01*
X79784876Y-52679143D01*
X79805061Y-52500000D01*
X79784876Y-52320856D01*
X79784873Y-52320845D01*
X79725336Y-52150697D01*
X79629424Y-51998054D01*
X79618717Y-51987347D01*
X79106066Y-52499999D01*
X79106066Y-52500000D01*
X78893932Y-52500000D01*
X78893933Y-52499999D01*
X78381281Y-51987347D01*
X78370576Y-51998053D01*
X78274663Y-52150695D01*
X78274663Y-52150697D01*
X78215126Y-52320845D01*
X78215123Y-52320856D01*
X78194938Y-52500000D01*
X67831931Y-52500000D01*
X67850248Y-52481683D01*
X67795372Y-52439575D01*
X67661581Y-52384157D01*
X67661577Y-52384156D01*
X67518000Y-52365254D01*
X67374422Y-52384156D01*
X67374421Y-52384156D01*
X67240625Y-52439576D01*
X67240624Y-52439577D01*
X67185750Y-52481683D01*
X67185750Y-52481684D01*
X67401341Y-52697275D01*
X67337760Y-52739760D01*
X67295275Y-52803341D01*
X67079684Y-52587750D01*
X67079683Y-52587750D01*
X67037577Y-52642624D01*
X67037576Y-52642625D01*
X66982156Y-52776421D01*
X66982156Y-52776422D01*
X66963254Y-52920000D01*
X66548000Y-52920000D01*
X66548000Y-51881281D01*
X78487347Y-51881281D01*
X78999999Y-52393933D01*
X79512652Y-51881281D01*
X79501945Y-51870575D01*
X79349302Y-51774663D01*
X79179154Y-51715126D01*
X79179143Y-51715123D01*
X79000000Y-51694938D01*
X78820856Y-51715123D01*
X78820845Y-51715126D01*
X78650697Y-51774663D01*
X78650695Y-51774663D01*
X78498053Y-51870576D01*
X78487347Y-51881281D01*
X66548000Y-51881281D01*
X66548000Y-51220000D01*
X66963254Y-51220000D01*
X66982156Y-51363577D01*
X66982157Y-51363581D01*
X67037575Y-51497372D01*
X67079683Y-51552248D01*
X67295274Y-51336656D01*
X67337760Y-51400240D01*
X67401341Y-51442723D01*
X67185750Y-51658314D01*
X67185750Y-51658315D01*
X67240627Y-51700424D01*
X67374418Y-51755842D01*
X67374422Y-51755843D01*
X67518000Y-51774745D01*
X67661577Y-51755843D01*
X67661581Y-51755842D01*
X67795366Y-51700427D01*
X67795371Y-51700424D01*
X67850248Y-51658314D01*
X67634658Y-51442724D01*
X67698240Y-51400240D01*
X67740724Y-51336658D01*
X67956314Y-51552248D01*
X67998424Y-51497371D01*
X67998427Y-51497366D01*
X68053842Y-51363581D01*
X68053843Y-51363577D01*
X68072745Y-51220000D01*
X68053843Y-51076422D01*
X68053842Y-51076418D01*
X67998424Y-50942627D01*
X67956315Y-50887750D01*
X67956314Y-50887750D01*
X67740723Y-51103341D01*
X67698240Y-51039760D01*
X67634656Y-50997274D01*
X67850248Y-50781683D01*
X67795372Y-50739575D01*
X67661581Y-50684157D01*
X67661577Y-50684156D01*
X67518000Y-50665254D01*
X67374422Y-50684156D01*
X67374421Y-50684156D01*
X67240625Y-50739576D01*
X67240624Y-50739577D01*
X67185750Y-50781683D01*
X67185750Y-50781684D01*
X67401341Y-50997275D01*
X67337760Y-51039760D01*
X67295275Y-51103341D01*
X67079684Y-50887750D01*
X67079683Y-50887750D01*
X67037577Y-50942624D01*
X67037576Y-50942625D01*
X66982156Y-51076421D01*
X66982156Y-51076422D01*
X66963254Y-51220000D01*
X66548000Y-51220000D01*
X66548000Y-48000000D01*
X81719103Y-48000000D01*
X81724500Y-48027132D01*
X81740485Y-48107496D01*
X81751165Y-48123479D01*
X81783552Y-48171950D01*
X81801375Y-48198623D01*
X81801378Y-48198626D01*
X81818314Y-48209942D01*
X81829529Y-48219145D01*
X84729826Y-51119442D01*
X84751218Y-51165318D01*
X84751500Y-51171768D01*
X84751500Y-53492579D01*
X84750078Y-53507015D01*
X84746103Y-53527000D01*
X84751500Y-53554132D01*
X84751500Y-53554133D01*
X84767485Y-53634495D01*
X84792512Y-53671950D01*
X84809401Y-53697227D01*
X84828375Y-53725623D01*
X84828378Y-53725626D01*
X84845314Y-53736942D01*
X84856529Y-53746145D01*
X84893649Y-53783265D01*
X84915041Y-53829141D01*
X84914690Y-53845249D01*
X84894318Y-53999999D01*
X84914955Y-54156760D01*
X84914955Y-54156761D01*
X84975464Y-54302841D01*
X85071715Y-54428279D01*
X85071720Y-54428284D01*
X85133207Y-54475464D01*
X85197159Y-54524536D01*
X85343238Y-54585044D01*
X85500000Y-54605682D01*
X85656762Y-54585044D01*
X85802841Y-54524536D01*
X85928282Y-54428282D01*
X86024536Y-54302841D01*
X86085044Y-54156762D01*
X86105682Y-54000000D01*
X86085044Y-53843238D01*
X86024536Y-53697159D01*
X85946721Y-53595748D01*
X85928284Y-53571720D01*
X85928279Y-53571715D01*
X85802841Y-53475464D01*
X85656761Y-53414955D01*
X85520637Y-53397034D01*
X85500000Y-53394318D01*
X85499999Y-53394318D01*
X85386159Y-53409305D01*
X85336740Y-53398349D01*
X85305925Y-53358190D01*
X85302500Y-53335938D01*
X85302500Y-51061415D01*
X85303922Y-51046978D01*
X85307896Y-51027000D01*
X85302525Y-50999999D01*
X85302500Y-50999869D01*
X85302500Y-50999867D01*
X85286515Y-50919505D01*
X85283475Y-50914956D01*
X85240994Y-50851378D01*
X85240993Y-50851377D01*
X85238974Y-50848355D01*
X85225624Y-50828376D01*
X85225623Y-50828375D01*
X85208683Y-50817056D01*
X85197470Y-50807854D01*
X84157333Y-49767717D01*
X85339347Y-49767717D01*
X85350054Y-49778424D01*
X85502697Y-49874336D01*
X85672845Y-49933873D01*
X85672856Y-49933876D01*
X85852000Y-49954061D01*
X86031143Y-49933876D01*
X86031154Y-49933873D01*
X86201302Y-49874336D01*
X86201304Y-49874336D01*
X86353946Y-49778424D01*
X86353947Y-49778423D01*
X86364651Y-49767717D01*
X85852000Y-49255066D01*
X85339347Y-49767717D01*
X84157333Y-49767717D01*
X83538616Y-49149000D01*
X85046938Y-49149000D01*
X85067123Y-49328143D01*
X85067126Y-49328154D01*
X85126663Y-49498302D01*
X85222575Y-49650945D01*
X85233281Y-49661651D01*
X85745932Y-49149000D01*
X85958066Y-49149000D01*
X86470717Y-49661651D01*
X86481423Y-49650947D01*
X86481424Y-49650946D01*
X86577336Y-49498304D01*
X86577336Y-49498302D01*
X86636873Y-49328154D01*
X86636876Y-49328143D01*
X86657061Y-49149000D01*
X86636876Y-48969856D01*
X86636873Y-48969845D01*
X86577336Y-48799697D01*
X86481424Y-48647054D01*
X86470717Y-48636347D01*
X85958066Y-49148999D01*
X85958066Y-49149000D01*
X85745932Y-49149000D01*
X85745933Y-49148999D01*
X85233281Y-48636347D01*
X85222576Y-48647053D01*
X85126663Y-48799695D01*
X85126663Y-48799697D01*
X85067126Y-48969845D01*
X85067123Y-48969856D01*
X85046938Y-49149000D01*
X83538616Y-49149000D01*
X82919897Y-48530281D01*
X85339347Y-48530281D01*
X85851999Y-49042933D01*
X86364652Y-48530281D01*
X86353945Y-48519575D01*
X86201302Y-48423663D01*
X86031154Y-48364126D01*
X86031143Y-48364123D01*
X85852000Y-48343938D01*
X85672856Y-48364123D01*
X85672845Y-48364126D01*
X85502697Y-48423663D01*
X85502695Y-48423663D01*
X85350053Y-48519576D01*
X85339347Y-48530281D01*
X82919897Y-48530281D01*
X82395622Y-48006006D01*
X93295019Y-48006006D01*
X93314917Y-48284220D01*
X93374208Y-48556778D01*
X93374213Y-48556796D01*
X93471685Y-48818125D01*
X93471686Y-48818129D01*
X93605361Y-49062938D01*
X93772526Y-49286242D01*
X93818108Y-49331824D01*
X94417665Y-48732266D01*
X94526257Y-48835808D01*
X93924175Y-49437891D01*
X93969757Y-49483473D01*
X94193061Y-49650638D01*
X94437870Y-49784313D01*
X94437874Y-49784314D01*
X94699203Y-49881786D01*
X94699221Y-49881791D01*
X94971779Y-49941082D01*
X95249993Y-49960981D01*
X95250007Y-49960981D01*
X95528220Y-49941082D01*
X95800778Y-49881791D01*
X95800796Y-49881786D01*
X96062125Y-49784314D01*
X96062129Y-49784313D01*
X96306938Y-49650638D01*
X96530239Y-49483476D01*
X96575824Y-49437890D01*
X95973983Y-48836049D01*
X96012540Y-48805729D01*
X96079045Y-48728978D01*
X96681890Y-49331823D01*
X96727476Y-49286239D01*
X96894638Y-49062938D01*
X97028313Y-48818129D01*
X97028314Y-48818125D01*
X97125786Y-48556796D01*
X97125791Y-48556778D01*
X97185082Y-48284220D01*
X97204981Y-48006006D01*
X97204981Y-48005993D01*
X97185082Y-47727779D01*
X97125791Y-47455221D01*
X97125786Y-47455203D01*
X97028314Y-47193874D01*
X97028313Y-47193870D01*
X96894638Y-46949061D01*
X96727473Y-46725757D01*
X96681891Y-46680175D01*
X96082333Y-47279732D01*
X95973741Y-47176190D01*
X96531215Y-46618717D01*
X109987347Y-46618717D01*
X109998054Y-46629424D01*
X110150697Y-46725336D01*
X110320845Y-46784873D01*
X110320856Y-46784876D01*
X110500000Y-46805061D01*
X110679143Y-46784876D01*
X110679154Y-46784873D01*
X110849302Y-46725336D01*
X110849304Y-46725336D01*
X111001946Y-46629424D01*
X111001947Y-46629423D01*
X111012651Y-46618717D01*
X110500000Y-46106066D01*
X109987347Y-46618717D01*
X96531215Y-46618717D01*
X96575824Y-46574108D01*
X96530242Y-46528526D01*
X96306938Y-46361361D01*
X96062129Y-46227686D01*
X96062125Y-46227685D01*
X95800796Y-46130213D01*
X95800778Y-46130208D01*
X95528220Y-46070917D01*
X95250007Y-46051019D01*
X95249993Y-46051019D01*
X94971779Y-46070917D01*
X94699221Y-46130208D01*
X94699203Y-46130213D01*
X94437874Y-46227685D01*
X94437870Y-46227686D01*
X94193061Y-46361361D01*
X93969757Y-46528526D01*
X93924175Y-46574108D01*
X94526016Y-47175949D01*
X94487460Y-47206271D01*
X94420954Y-47283021D01*
X93818108Y-46680175D01*
X93772526Y-46725757D01*
X93605361Y-46949061D01*
X93471686Y-47193870D01*
X93471685Y-47193874D01*
X93374213Y-47455203D01*
X93374208Y-47455221D01*
X93314917Y-47727779D01*
X93295019Y-48005993D01*
X93295019Y-48006006D01*
X82395622Y-48006006D01*
X82297174Y-47907558D01*
X82275782Y-47861682D01*
X82275500Y-47855232D01*
X82275500Y-46644768D01*
X82292813Y-46597202D01*
X82297174Y-46592442D01*
X84092442Y-44797174D01*
X84138318Y-44775782D01*
X84144768Y-44775500D01*
X87136924Y-44775500D01*
X87184490Y-44792813D01*
X87209800Y-44836650D01*
X87210459Y-44857785D01*
X87194435Y-44999999D01*
X87214632Y-45179254D01*
X87214634Y-45179263D01*
X87274209Y-45349520D01*
X87302358Y-45394318D01*
X87370184Y-45502262D01*
X87497738Y-45629816D01*
X87593712Y-45690120D01*
X87650479Y-45725790D01*
X87820736Y-45785365D01*
X87820745Y-45785368D01*
X88000000Y-45805565D01*
X88179255Y-45785368D01*
X88318812Y-45736535D01*
X88349520Y-45725790D01*
X88349522Y-45725789D01*
X88502262Y-45629816D01*
X88629816Y-45502262D01*
X88725789Y-45349522D01*
X88785368Y-45179255D01*
X88805565Y-45000000D01*
X88785368Y-44820745D01*
X88769536Y-44775500D01*
X88725790Y-44650479D01*
X88690120Y-44593712D01*
X88629816Y-44497738D01*
X88502262Y-44370184D01*
X88429359Y-44324376D01*
X88349520Y-44274209D01*
X88179263Y-44214634D01*
X88179256Y-44214632D01*
X88179255Y-44214632D01*
X88000000Y-44194435D01*
X87820745Y-44214632D01*
X87820741Y-44214633D01*
X87740838Y-44242592D01*
X87731428Y-44244833D01*
X87722550Y-44247212D01*
X87722233Y-44246030D01*
X87677050Y-44247995D01*
X87667083Y-44243213D01*
X87660497Y-44240485D01*
X87620314Y-44232492D01*
X87580133Y-44224500D01*
X87580132Y-44224500D01*
X87580130Y-44224499D01*
X87553001Y-44219103D01*
X87553000Y-44219103D01*
X87533017Y-44223078D01*
X87518580Y-44224500D01*
X84034420Y-44224500D01*
X84019983Y-44223078D01*
X84000000Y-44219103D01*
X83999999Y-44219103D01*
X83972868Y-44224500D01*
X83972867Y-44224500D01*
X83946079Y-44229828D01*
X83892503Y-44240485D01*
X83879825Y-44248957D01*
X83873485Y-44253194D01*
X83862822Y-44260319D01*
X83826305Y-44284718D01*
X83801376Y-44301375D01*
X83801374Y-44301377D01*
X83790053Y-44318319D01*
X83780853Y-44329529D01*
X81829529Y-46280853D01*
X81818319Y-46290053D01*
X81801377Y-46301374D01*
X81801375Y-46301376D01*
X81786006Y-46324378D01*
X81782742Y-46329263D01*
X81740485Y-46392504D01*
X81733368Y-46428284D01*
X81724500Y-46472867D01*
X81719103Y-46500000D01*
X81721619Y-46512651D01*
X81723078Y-46519983D01*
X81724500Y-46534420D01*
X81724500Y-47965579D01*
X81723078Y-47980015D01*
X81719103Y-47999999D01*
X81719103Y-48000000D01*
X66548000Y-48000000D01*
X66548000Y-45000000D01*
X80194435Y-45000000D01*
X80214632Y-45179254D01*
X80214634Y-45179263D01*
X80274210Y-45349522D01*
X80364134Y-45492634D01*
X80369842Y-45503683D01*
X80374465Y-45514844D01*
X80470715Y-45640279D01*
X80470720Y-45640284D01*
X80484291Y-45650697D01*
X80596159Y-45736536D01*
X80742238Y-45797044D01*
X80899000Y-45817682D01*
X80969200Y-45808439D01*
X80988626Y-45805882D01*
X80993461Y-45805565D01*
X80999994Y-45805565D01*
X80999997Y-45805564D01*
X81000000Y-45805565D01*
X81179255Y-45785368D01*
X81318812Y-45736535D01*
X81349520Y-45725790D01*
X81349522Y-45725789D01*
X81502262Y-45629816D01*
X81629816Y-45502262D01*
X81725789Y-45349522D01*
X81785368Y-45179255D01*
X81805565Y-45000000D01*
X81785368Y-44820745D01*
X81769536Y-44775500D01*
X81725790Y-44650479D01*
X81690120Y-44593712D01*
X81629816Y-44497738D01*
X81502262Y-44370184D01*
X81429359Y-44324376D01*
X81349520Y-44274209D01*
X81179263Y-44214634D01*
X81179256Y-44214632D01*
X81179255Y-44214632D01*
X81000000Y-44194435D01*
X80820745Y-44214632D01*
X80820736Y-44214634D01*
X80650479Y-44274209D01*
X80497739Y-44370183D01*
X80370183Y-44497739D01*
X80274209Y-44650479D01*
X80214634Y-44820736D01*
X80214632Y-44820745D01*
X80194435Y-45000000D01*
X66548000Y-45000000D01*
X66548000Y-44480652D01*
X66565313Y-44433086D01*
X66569674Y-44428326D01*
X67288326Y-43709674D01*
X67334202Y-43688282D01*
X67340652Y-43688000D01*
X92673020Y-43688000D01*
X92720586Y-43705313D01*
G37*
%TD.AperFunction*%
%TA.AperFunction,Conductor*%
G36*
X117021319Y-54851987D02*
G01*
X116966065Y-54837182D01*
X116926573Y-54837182D01*
X116871319Y-54851987D01*
X116871319Y-53372376D01*
X116926573Y-53387182D01*
X116966065Y-53387182D01*
X117021319Y-53372376D01*
X117021319Y-54851987D01*
G37*
%TD.AperFunction*%
%TA.AperFunction,Conductor*%
G36*
X116791028Y-53237182D02*
G01*
X116811124Y-53312182D01*
X115331514Y-53312182D01*
X115351610Y-53237182D01*
X115331514Y-53162182D01*
X116811124Y-53162182D01*
X116791028Y-53237182D01*
G37*
%TD.AperFunction*%
%TA.AperFunction,Conductor*%
G36*
X118541028Y-53237182D02*
G01*
X118561124Y-53312182D01*
X117081514Y-53312182D01*
X117101610Y-53237182D01*
X117081514Y-53162182D01*
X118561124Y-53162182D01*
X118541028Y-53237182D01*
G37*
%TD.AperFunction*%
%TA.AperFunction,Conductor*%
G36*
X117021319Y-53101987D02*
G01*
X116966065Y-53087182D01*
X116926573Y-53087182D01*
X116871319Y-53101987D01*
X116871319Y-51622376D01*
X116926573Y-51637182D01*
X116966065Y-51637182D01*
X117021319Y-51622376D01*
X117021319Y-53101987D01*
G37*
%TD.AperFunction*%
%TA.AperFunction,Conductor*%
G36*
X109003798Y-49992813D02*
G01*
X109029108Y-50036650D01*
X109020318Y-50086500D01*
X109008558Y-50101826D01*
X107654529Y-51455853D01*
X107643319Y-51465053D01*
X107626377Y-51476374D01*
X107626376Y-51476375D01*
X107611005Y-51499378D01*
X107593528Y-51525533D01*
X107565485Y-51567504D01*
X107565484Y-51567506D01*
X107553988Y-51625304D01*
X107544103Y-51674999D01*
X107544103Y-51675000D01*
X107548078Y-51694983D01*
X107549500Y-51709420D01*
X107549500Y-53130174D01*
X107532187Y-53177740D01*
X107520548Y-53188882D01*
X107396720Y-53283897D01*
X107396715Y-53283902D01*
X107300464Y-53409340D01*
X107239955Y-53555420D01*
X107239955Y-53555421D01*
X107219318Y-53712182D01*
X107239955Y-53868942D01*
X107239955Y-53868943D01*
X107300464Y-54015023D01*
X107396715Y-54140461D01*
X107396720Y-54140466D01*
X107522159Y-54236718D01*
X107672263Y-54298893D01*
X107709584Y-54333090D01*
X107716191Y-54383276D01*
X107696271Y-54419586D01*
X107413033Y-54702826D01*
X107367157Y-54724218D01*
X107360707Y-54724500D01*
X103582008Y-54724500D01*
X103534442Y-54707187D01*
X103523300Y-54695548D01*
X103428284Y-54571720D01*
X103428279Y-54571715D01*
X103302841Y-54475464D01*
X103156761Y-54414955D01*
X103000000Y-54394318D01*
X102843239Y-54414955D01*
X102843238Y-54414955D01*
X102697158Y-54475464D01*
X102571720Y-54571715D01*
X102571715Y-54571720D01*
X102475464Y-54697158D01*
X102414955Y-54843238D01*
X102414955Y-54843239D01*
X102394318Y-55000000D01*
X102414955Y-55156760D01*
X102414955Y-55156761D01*
X102475464Y-55302841D01*
X102571715Y-55428279D01*
X102571720Y-55428284D01*
X102624336Y-55468657D01*
X102697159Y-55524536D01*
X102843238Y-55585044D01*
X103000000Y-55605682D01*
X103156762Y-55585044D01*
X103302841Y-55524536D01*
X103428282Y-55428282D01*
X103523300Y-55304452D01*
X103565991Y-55277254D01*
X103582008Y-55275500D01*
X107471055Y-55275500D01*
X107485491Y-55276921D01*
X107505475Y-55280897D01*
X107505476Y-55280897D01*
X107510097Y-55279977D01*
X107532607Y-55275500D01*
X107532608Y-55275500D01*
X107612970Y-55259515D01*
X107663444Y-55225789D01*
X107681097Y-55213994D01*
X107681097Y-55213993D01*
X107689111Y-55208639D01*
X107689114Y-55208636D01*
X107694544Y-55205008D01*
X107704099Y-55198624D01*
X107715423Y-55181674D01*
X107724616Y-55170473D01*
X107907908Y-54987181D01*
X114741692Y-54987181D01*
X114745566Y-55014125D01*
X114746319Y-55024656D01*
X114746319Y-55256879D01*
X114757922Y-55315217D01*
X114802126Y-55381373D01*
X114802127Y-55381374D01*
X114868283Y-55425578D01*
X114926622Y-55437182D01*
X116871319Y-55437182D01*
X116871319Y-55122376D01*
X116926573Y-55137182D01*
X116966065Y-55137182D01*
X117021319Y-55122376D01*
X117021319Y-55437182D01*
X118966016Y-55437182D01*
X119024354Y-55425578D01*
X119084356Y-55385486D01*
X119089560Y-55384212D01*
X119094623Y-55375219D01*
X119134715Y-55315217D01*
X119146319Y-55256879D01*
X119146319Y-55024656D01*
X119147072Y-55014125D01*
X119150945Y-54987181D01*
X119147072Y-54960238D01*
X119146319Y-54949707D01*
X119146319Y-53312182D01*
X118831514Y-53312182D01*
X118851610Y-53237182D01*
X118831514Y-53162182D01*
X119146319Y-53162182D01*
X119146319Y-51524656D01*
X119147072Y-51514125D01*
X119150945Y-51487181D01*
X119147072Y-51460238D01*
X119146319Y-51449707D01*
X119146319Y-51217484D01*
X119134715Y-51159146D01*
X119090511Y-51092990D01*
X119090510Y-51092989D01*
X119024354Y-51048785D01*
X118966016Y-51037182D01*
X117021319Y-51037182D01*
X117021319Y-51351987D01*
X116966065Y-51337182D01*
X116926573Y-51337182D01*
X116871319Y-51351987D01*
X116871319Y-51037182D01*
X114926622Y-51037182D01*
X114868283Y-51048785D01*
X114802127Y-51092989D01*
X114802126Y-51092990D01*
X114757922Y-51159146D01*
X114746319Y-51217484D01*
X114746319Y-51449707D01*
X114745566Y-51460238D01*
X114741692Y-51487181D01*
X114745566Y-51514125D01*
X114746319Y-51524656D01*
X114746319Y-53162182D01*
X115061124Y-53162182D01*
X115041028Y-53237182D01*
X115061124Y-53312182D01*
X114746319Y-53312182D01*
X114746319Y-54949707D01*
X114745566Y-54960238D01*
X114741692Y-54987181D01*
X107907908Y-54987181D01*
X108670472Y-54224617D01*
X108681676Y-54215422D01*
X108698624Y-54204099D01*
X108715225Y-54179255D01*
X108741144Y-54140464D01*
X108759515Y-54112970D01*
X108775500Y-54032608D01*
X108775500Y-54032607D01*
X108780897Y-54005475D01*
X108776922Y-53985490D01*
X108775500Y-53971054D01*
X108775500Y-51644768D01*
X108792813Y-51597202D01*
X108797174Y-51592442D01*
X109780360Y-50609256D01*
X109826236Y-50587864D01*
X109832686Y-50587582D01*
X121653498Y-50587582D01*
X121667934Y-50589003D01*
X121687918Y-50592979D01*
X121687919Y-50592979D01*
X121692540Y-50592059D01*
X121715050Y-50587582D01*
X121715051Y-50587582D01*
X121783774Y-50573912D01*
X121826528Y-50578123D01*
X121843235Y-50585043D01*
X121843236Y-50585043D01*
X121843238Y-50585044D01*
X122000000Y-50605682D01*
X122156762Y-50585044D01*
X122302841Y-50524536D01*
X122428282Y-50428282D01*
X122524536Y-50302841D01*
X122585044Y-50156762D01*
X122586642Y-50144621D01*
X122610012Y-50099721D01*
X122656777Y-50080348D01*
X122705054Y-50095566D01*
X122712335Y-50101951D01*
X123280853Y-50670469D01*
X123290055Y-50681682D01*
X123301376Y-50698624D01*
X123324376Y-50713992D01*
X123324378Y-50713994D01*
X123392505Y-50759515D01*
X123500000Y-50780897D01*
X123519983Y-50776921D01*
X123534420Y-50775500D01*
X124307891Y-50775500D01*
X124355457Y-50792813D01*
X124380767Y-50836650D01*
X124371977Y-50886500D01*
X124336210Y-50917867D01*
X124197158Y-50975464D01*
X124071720Y-51071715D01*
X124071715Y-51071720D01*
X123976700Y-51195548D01*
X123934009Y-51222746D01*
X123917992Y-51224500D01*
X121534420Y-51224500D01*
X121519983Y-51223078D01*
X121500000Y-51219103D01*
X121499999Y-51219103D01*
X121472867Y-51224500D01*
X121394521Y-51240084D01*
X121392505Y-51240485D01*
X121326305Y-51284718D01*
X121301376Y-51301375D01*
X121301374Y-51301377D01*
X121290053Y-51318319D01*
X121280853Y-51329529D01*
X119829529Y-52780853D01*
X119818319Y-52790053D01*
X119801377Y-52801374D01*
X119801376Y-52801375D01*
X119786005Y-52824379D01*
X119774081Y-52842225D01*
X119757283Y-52867365D01*
X119740485Y-52892505D01*
X119733369Y-52928282D01*
X119719103Y-53000000D01*
X119722426Y-53016706D01*
X119723078Y-53019983D01*
X119724500Y-53034420D01*
X119724500Y-54921984D01*
X119707187Y-54969550D01*
X119702826Y-54974310D01*
X119208478Y-55468657D01*
X119188934Y-55477769D01*
X119185145Y-55490772D01*
X119177794Y-55499341D01*
X117974310Y-56702826D01*
X117928434Y-56724218D01*
X117921984Y-56724500D01*
X105082016Y-56724500D01*
X105034450Y-56707187D01*
X105023308Y-56695548D01*
X104928292Y-56571720D01*
X104928287Y-56571715D01*
X104802849Y-56475464D01*
X104656769Y-56414955D01*
X104500008Y-56394318D01*
X104343247Y-56414955D01*
X104343246Y-56414955D01*
X104197166Y-56475464D01*
X104071728Y-56571715D01*
X104071723Y-56571720D01*
X103975472Y-56697158D01*
X103914963Y-56843238D01*
X103914963Y-56843239D01*
X103894326Y-57000000D01*
X103914963Y-57156760D01*
X103914963Y-57156761D01*
X103975472Y-57302841D01*
X104071723Y-57428279D01*
X104071728Y-57428284D01*
X104126705Y-57470469D01*
X104197167Y-57524536D01*
X104343246Y-57585044D01*
X104355378Y-57586641D01*
X104400278Y-57610012D01*
X104419651Y-57656777D01*
X104404432Y-57705054D01*
X104398048Y-57712334D01*
X104216733Y-57893649D01*
X104170857Y-57915041D01*
X104154749Y-57914690D01*
X104000000Y-57894318D01*
X103843239Y-57914955D01*
X103843238Y-57914955D01*
X103697158Y-57975464D01*
X103571720Y-58071715D01*
X103571715Y-58071720D01*
X103475464Y-58197158D01*
X103414955Y-58343238D01*
X103414955Y-58343239D01*
X103394318Y-58500000D01*
X103414955Y-58656760D01*
X103414955Y-58656761D01*
X103475464Y-58802841D01*
X103571715Y-58928279D01*
X103571720Y-58928284D01*
X103655345Y-58992451D01*
X103697159Y-59024536D01*
X103843238Y-59085044D01*
X104000000Y-59105682D01*
X104156762Y-59085044D01*
X104302841Y-59024536D01*
X104428282Y-58928282D01*
X104524536Y-58802841D01*
X104585044Y-58656762D01*
X104605682Y-58500000D01*
X104585308Y-58345247D01*
X104596264Y-58295831D01*
X104606344Y-58283270D01*
X105292442Y-57597174D01*
X105338319Y-57575782D01*
X105344768Y-57575500D01*
X116726071Y-57575500D01*
X116773637Y-57592813D01*
X116798947Y-57636650D01*
X116794438Y-57677818D01*
X116736275Y-57818235D01*
X116736274Y-57818239D01*
X116715637Y-57975000D01*
X116736274Y-58131760D01*
X116736274Y-58131761D01*
X116796783Y-58277841D01*
X116893034Y-58403279D01*
X116893039Y-58403284D01*
X117018478Y-58499536D01*
X117032180Y-58505212D01*
X117069501Y-58539409D01*
X117076108Y-58589595D01*
X117073709Y-58598020D01*
X117035953Y-58705918D01*
X117035951Y-58705927D01*
X117015754Y-58885182D01*
X117035951Y-59064436D01*
X117035953Y-59064445D01*
X117095528Y-59234702D01*
X117138343Y-59302841D01*
X117191503Y-59387444D01*
X117319057Y-59514998D01*
X117415031Y-59575302D01*
X117471798Y-59610972D01*
X117642055Y-59670547D01*
X117642064Y-59670550D01*
X117821319Y-59690747D01*
X118000574Y-59670550D01*
X118068800Y-59646676D01*
X118170839Y-59610972D01*
X118179258Y-59605682D01*
X118323581Y-59514998D01*
X118451135Y-59387444D01*
X118547108Y-59234704D01*
X118573461Y-59159393D01*
X118606684Y-59064445D01*
X118606687Y-59064437D01*
X118626884Y-58885182D01*
X118606687Y-58705927D01*
X118606684Y-58705918D01*
X118547109Y-58535661D01*
X118498009Y-58457519D01*
X118451135Y-58382920D01*
X118323581Y-58255366D01*
X118255289Y-58212455D01*
X118170839Y-58159391D01*
X118000582Y-58099816D01*
X118000565Y-58099812D01*
X117986805Y-58098262D01*
X117941476Y-58075732D01*
X117921236Y-58029336D01*
X117921724Y-58015075D01*
X117927001Y-57975000D01*
X117906363Y-57818238D01*
X117901114Y-57805565D01*
X117848200Y-57677818D01*
X117845992Y-57627248D01*
X117876807Y-57587089D01*
X117916567Y-57575500D01*
X118156596Y-57575500D01*
X118171032Y-57576921D01*
X118191016Y-57580897D01*
X118191017Y-57580897D01*
X118195638Y-57579977D01*
X118218148Y-57575500D01*
X118218149Y-57575500D01*
X118298511Y-57559515D01*
X118340481Y-57531471D01*
X118366638Y-57513994D01*
X118366638Y-57513993D01*
X118374652Y-57508639D01*
X118374654Y-57508636D01*
X118389640Y-57498624D01*
X118400960Y-57481681D01*
X118410157Y-57470474D01*
X118495449Y-57385182D01*
X119515754Y-57385182D01*
X119535396Y-57559515D01*
X119535951Y-57564436D01*
X119535953Y-57564445D01*
X119595528Y-57734702D01*
X119654001Y-57827760D01*
X119691503Y-57887444D01*
X119819057Y-58014998D01*
X119915031Y-58075302D01*
X119971798Y-58110972D01*
X120142055Y-58170547D01*
X120142064Y-58170550D01*
X120321319Y-58190747D01*
X120500574Y-58170550D01*
X120611427Y-58131761D01*
X120670839Y-58110972D01*
X120679258Y-58105682D01*
X120823581Y-58014998D01*
X120951135Y-57887444D01*
X121047108Y-57734704D01*
X121050228Y-57725789D01*
X121106684Y-57564445D01*
X121106687Y-57564437D01*
X121126884Y-57385182D01*
X121106687Y-57205927D01*
X121097354Y-57179254D01*
X121047109Y-57035661D01*
X121009273Y-56975446D01*
X120951135Y-56882920D01*
X120823581Y-56755366D01*
X120746905Y-56707187D01*
X120670839Y-56659391D01*
X120500582Y-56599816D01*
X120500575Y-56599814D01*
X120500574Y-56599814D01*
X120321319Y-56579617D01*
X120142064Y-56599814D01*
X120142055Y-56599816D01*
X119971798Y-56659391D01*
X119819058Y-56755365D01*
X119691502Y-56882921D01*
X119595528Y-57035661D01*
X119535953Y-57205918D01*
X119535951Y-57205927D01*
X119515754Y-57385182D01*
X118495449Y-57385182D01*
X120670472Y-55210158D01*
X120681676Y-55200963D01*
X120698624Y-55189640D01*
X120738598Y-55129816D01*
X120759515Y-55098511D01*
X120765832Y-55066752D01*
X120775500Y-55018149D01*
X120775500Y-55018144D01*
X120780896Y-54991016D01*
X120776922Y-54971036D01*
X120775500Y-54956600D01*
X120775500Y-53069032D01*
X120792813Y-53021466D01*
X120797174Y-53016706D01*
X120854988Y-52958892D01*
X120916973Y-52896906D01*
X120962848Y-52875515D01*
X121011742Y-52888616D01*
X121040776Y-52930080D01*
X121042665Y-52958892D01*
X121030270Y-53053041D01*
X121025907Y-53086184D01*
X121028081Y-53102696D01*
X121046544Y-53242944D01*
X121046544Y-53242945D01*
X121107053Y-53389025D01*
X121203304Y-53514463D01*
X121203309Y-53514468D01*
X121302137Y-53590301D01*
X121329335Y-53632992D01*
X121331089Y-53649009D01*
X121331089Y-58213287D01*
X121313776Y-58260853D01*
X121309415Y-58265613D01*
X114910701Y-64664327D01*
X114864825Y-64685719D01*
X114815930Y-64672618D01*
X114786896Y-64631154D01*
X114786338Y-64595069D01*
X114787150Y-64591616D01*
X114788665Y-64586718D01*
X114800500Y-64556173D01*
X114800500Y-64543446D01*
X114802466Y-64526502D01*
X114802691Y-64525545D01*
X114805379Y-64514119D01*
X114800854Y-64481683D01*
X114800500Y-64476573D01*
X114800500Y-62561090D01*
X114802454Y-62549116D01*
X114801826Y-62549029D01*
X114802773Y-62542238D01*
X114802773Y-62542236D01*
X114800538Y-62493898D01*
X114800500Y-62492212D01*
X114800500Y-62472157D01*
X114799688Y-62467817D01*
X114799096Y-62462727D01*
X114797585Y-62430009D01*
X114792441Y-62418361D01*
X114787398Y-62402071D01*
X114785061Y-62389568D01*
X114785060Y-62389566D01*
X114767824Y-62361728D01*
X114765434Y-62357196D01*
X114752206Y-62327235D01*
X114743207Y-62318236D01*
X114732615Y-62304863D01*
X114725920Y-62294049D01*
X114725919Y-62294048D01*
X114699784Y-62274312D01*
X114695920Y-62270949D01*
X114467791Y-62042820D01*
X114446399Y-61996944D01*
X114459500Y-61948049D01*
X114500964Y-61919015D01*
X114548435Y-61922126D01*
X114664557Y-61970226D01*
X114821319Y-61990864D01*
X114978081Y-61970226D01*
X115124160Y-61909718D01*
X115249601Y-61813464D01*
X115345855Y-61688023D01*
X115350442Y-61676948D01*
X115352807Y-61671240D01*
X115387004Y-61633920D01*
X115421174Y-61625558D01*
X115679136Y-61625558D01*
X115726702Y-61642871D01*
X115748983Y-61675116D01*
X115757543Y-61699580D01*
X115853516Y-61852320D01*
X115981070Y-61979874D01*
X116077044Y-62040178D01*
X116133811Y-62075848D01*
X116284515Y-62128581D01*
X116304077Y-62135426D01*
X116483332Y-62155623D01*
X116662587Y-62135426D01*
X116796371Y-62088613D01*
X116832852Y-62075848D01*
X116839430Y-62071715D01*
X116985594Y-61979874D01*
X117113148Y-61852320D01*
X117209121Y-61699580D01*
X117209172Y-61699436D01*
X117253863Y-61571715D01*
X117268700Y-61529313D01*
X117288897Y-61350058D01*
X117268700Y-61170803D01*
X117237746Y-61082341D01*
X117209122Y-61000537D01*
X117159547Y-60921640D01*
X117113148Y-60847796D01*
X116985594Y-60720242D01*
X116918112Y-60677840D01*
X116832852Y-60624267D01*
X116662595Y-60564692D01*
X116662588Y-60564690D01*
X116662587Y-60564690D01*
X116483332Y-60544493D01*
X116304077Y-60564690D01*
X116304068Y-60564692D01*
X116133811Y-60624267D01*
X115981071Y-60720241D01*
X115853515Y-60847797D01*
X115757543Y-61000535D01*
X115755813Y-61005481D01*
X115749146Y-61024536D01*
X115748984Y-61024998D01*
X115716933Y-61064177D01*
X115679136Y-61074558D01*
X115376376Y-61074558D01*
X115328810Y-61057245D01*
X115317668Y-61045606D01*
X115249603Y-60956902D01*
X115249598Y-60956897D01*
X115124160Y-60860646D01*
X114997894Y-60808344D01*
X114960574Y-60774146D01*
X114953967Y-60723960D01*
X114981165Y-60681269D01*
X115001765Y-60670133D01*
X115170841Y-60610971D01*
X115323581Y-60514998D01*
X115451135Y-60387444D01*
X115547108Y-60234704D01*
X115606687Y-60064437D01*
X115626884Y-59885182D01*
X115606687Y-59705927D01*
X115573461Y-59610972D01*
X115547109Y-59535661D01*
X115479636Y-59428279D01*
X115451135Y-59382920D01*
X115323581Y-59255366D01*
X115284373Y-59230729D01*
X115170839Y-59159391D01*
X115000582Y-59099816D01*
X115000575Y-59099814D01*
X115000574Y-59099814D01*
X114821319Y-59079617D01*
X114642064Y-59099814D01*
X114642055Y-59099816D01*
X114471798Y-59159391D01*
X114319058Y-59255365D01*
X114191502Y-59382921D01*
X114095528Y-59535661D01*
X114035953Y-59705918D01*
X114035951Y-59705927D01*
X114015754Y-59885182D01*
X114035000Y-60056001D01*
X114035951Y-60064436D01*
X114035953Y-60064445D01*
X114095528Y-60234702D01*
X114163727Y-60343239D01*
X114191503Y-60387444D01*
X114319057Y-60514998D01*
X114471797Y-60610971D01*
X114636471Y-60668593D01*
X114640864Y-60670130D01*
X114680043Y-60702181D01*
X114689454Y-60751917D01*
X114664694Y-60796067D01*
X114644743Y-60808344D01*
X114518477Y-60860646D01*
X114393039Y-60956897D01*
X114393034Y-60956902D01*
X114296783Y-61082340D01*
X114236274Y-61228420D01*
X114236274Y-61228421D01*
X114215637Y-61385182D01*
X114236274Y-61541942D01*
X114236275Y-61541946D01*
X114286884Y-61664127D01*
X114289092Y-61714697D01*
X114258277Y-61754856D01*
X114208858Y-61765812D01*
X114168663Y-61747131D01*
X114160933Y-61740084D01*
X114149062Y-61735485D01*
X114133981Y-61727536D01*
X114123480Y-61720343D01*
X114091612Y-61712848D01*
X114086713Y-61711331D01*
X114056174Y-61699500D01*
X114056173Y-61699500D01*
X114043447Y-61699500D01*
X114026504Y-61697534D01*
X114014119Y-61694621D01*
X114014117Y-61694621D01*
X114003641Y-61696082D01*
X113981684Y-61699145D01*
X113976574Y-61699500D01*
X113061091Y-61699500D01*
X113049111Y-61697545D01*
X113049024Y-61698173D01*
X113042235Y-61697225D01*
X113009234Y-61698751D01*
X112993887Y-61699461D01*
X112992199Y-61699500D01*
X112972156Y-61699500D01*
X112967807Y-61700312D01*
X112962724Y-61700901D01*
X112938816Y-61702007D01*
X112930007Y-61702415D01*
X112930006Y-61702415D01*
X112918363Y-61707556D01*
X112902077Y-61712599D01*
X112889572Y-61714937D01*
X112889566Y-61714939D01*
X112861728Y-61732175D01*
X112857196Y-61734564D01*
X112850123Y-61737687D01*
X112827234Y-61747793D01*
X112818234Y-61756794D01*
X112804871Y-61767379D01*
X112800182Y-61770282D01*
X112794046Y-61774082D01*
X112794044Y-61774084D01*
X112774313Y-61800212D01*
X112770946Y-61804081D01*
X111897203Y-62677826D01*
X111851327Y-62699218D01*
X111844877Y-62699500D01*
X102655123Y-62699500D01*
X102607557Y-62682187D01*
X102602797Y-62677826D01*
X101822174Y-61897203D01*
X101800782Y-61851327D01*
X101800500Y-61844877D01*
X101800500Y-52005123D01*
X101817813Y-51957557D01*
X101822174Y-51952797D01*
X103777797Y-49997174D01*
X103823673Y-49975782D01*
X103830123Y-49975500D01*
X108956232Y-49975500D01*
X109003798Y-49992813D01*
G37*
%TD.AperFunction*%
%TD*%
M02*
