%TF.GenerationSoftware,KiCad,Pcbnew,7.0.9*%
%TF.CreationDate,2024-03-02T15:09:24+02:00*%
%TF.ProjectId,DRM_Watch_V3,44524d5f-5761-4746-9368-5f56332e6b69,rev?*%
%TF.SameCoordinates,Original*%
%TF.FileFunction,Soldermask,Top*%
%TF.FilePolarity,Negative*%
%FSLAX46Y46*%
G04 Gerber Fmt 4.6, Leading zero omitted, Abs format (unit mm)*
G04 Created by KiCad (PCBNEW 7.0.9) date 2024-03-02 15:09:24*
%MOMM*%
%LPD*%
G01*
G04 APERTURE LIST*
G04 Aperture macros list*
%AMRoundRect*
0 Rectangle with rounded corners*
0 $1 Rounding radius*
0 $2 $3 $4 $5 $6 $7 $8 $9 X,Y pos of 4 corners*
0 Add a 4 corners polygon primitive as box body*
4,1,4,$2,$3,$4,$5,$6,$7,$8,$9,$2,$3,0*
0 Add four circle primitives for the rounded corners*
1,1,$1+$1,$2,$3*
1,1,$1+$1,$4,$5*
1,1,$1+$1,$6,$7*
1,1,$1+$1,$8,$9*
0 Add four rect primitives between the rounded corners*
20,1,$1+$1,$2,$3,$4,$5,0*
20,1,$1+$1,$4,$5,$6,$7,0*
20,1,$1+$1,$6,$7,$8,$9,0*
20,1,$1+$1,$8,$9,$2,$3,0*%
G04 Aperture macros list end*
%ADD10C,0.010000*%
%ADD11RoundRect,0.010000X0.750000X-0.600000X0.750000X0.600000X-0.750000X0.600000X-0.750000X-0.600000X0*%
%ADD12RoundRect,0.050000X-0.350000X-0.050000X0.350000X-0.050000X0.350000X0.050000X-0.350000X0.050000X0*%
%ADD13RoundRect,0.050000X-0.050000X-0.350000X0.050000X-0.350000X0.050000X0.350000X-0.050000X0.350000X0*%
%ADD14R,4.000000X4.000000*%
%ADD15RoundRect,0.150000X0.512500X0.150000X-0.512500X0.150000X-0.512500X-0.150000X0.512500X-0.150000X0*%
%ADD16RoundRect,0.200000X0.275000X-0.200000X0.275000X0.200000X-0.275000X0.200000X-0.275000X-0.200000X0*%
%ADD17RoundRect,0.350000X0.250000X-0.250000X0.250000X0.250000X-0.250000X0.250000X-0.250000X-0.250000X0*%
%ADD18RoundRect,0.250000X-0.650000X0.325000X-0.650000X-0.325000X0.650000X-0.325000X0.650000X0.325000X0*%
%ADD19RoundRect,0.102000X1.250000X1.250000X-1.250000X1.250000X-1.250000X-1.250000X1.250000X-1.250000X0*%
%ADD20RoundRect,0.200000X-0.275000X0.200000X-0.275000X-0.200000X0.275000X-0.200000X0.275000X0.200000X0*%
%ADD21C,1.200000*%
%ADD22C,4.100000*%
%ADD23RoundRect,0.225000X0.250000X-0.225000X0.250000X0.225000X-0.250000X0.225000X-0.250000X-0.225000X0*%
%ADD24RoundRect,0.225000X-0.250000X0.225000X-0.250000X-0.225000X0.250000X-0.225000X0.250000X0.225000X0*%
%ADD25RoundRect,0.200000X0.200000X0.500000X-0.200000X0.500000X-0.200000X-0.500000X0.200000X-0.500000X0*%
%ADD26RoundRect,0.102000X-0.635000X0.450000X-0.635000X-0.450000X0.635000X-0.450000X0.635000X0.450000X0*%
%ADD27RoundRect,0.102000X-0.400000X0.725000X-0.400000X-0.725000X0.400000X-0.725000X0.400000X0.725000X0*%
%ADD28C,0.800000*%
%ADD29RoundRect,0.250000X0.475000X-0.250000X0.475000X0.250000X-0.475000X0.250000X-0.475000X-0.250000X0*%
%ADD30RoundRect,0.144000X0.258000X-0.573000X0.258000X0.573000X-0.258000X0.573000X-0.258000X-0.573000X0*%
%ADD31RoundRect,0.050000X-1.000000X-1.000000X1.000000X-1.000000X1.000000X1.000000X-1.000000X1.000000X0*%
%ADD32RoundRect,0.102000X0.750000X-0.330200X0.750000X0.330200X-0.750000X0.330200X-0.750000X-0.330200X0*%
%ADD33RoundRect,0.102000X1.000000X-1.500000X1.000000X1.500000X-1.000000X1.500000X-1.000000X-1.500000X0*%
%ADD34RoundRect,0.250000X-0.650000X1.000000X-0.650000X-1.000000X0.650000X-1.000000X0.650000X1.000000X0*%
%ADD35RoundRect,0.050000X-0.150000X-0.650000X0.150000X-0.650000X0.150000X0.650000X-0.150000X0.650000X0*%
%ADD36RoundRect,0.102000X-1.000000X-0.900000X1.000000X-0.900000X1.000000X0.900000X-1.000000X0.900000X0*%
%ADD37RoundRect,0.225000X-0.225000X-0.250000X0.225000X-0.250000X0.225000X0.250000X-0.225000X0.250000X0*%
%ADD38RoundRect,0.200000X-0.200000X-0.275000X0.200000X-0.275000X0.200000X0.275000X-0.200000X0.275000X0*%
%ADD39R,1.000000X1.500000*%
%ADD40RoundRect,0.143300X0.983700X0.253700X-0.983700X0.253700X-0.983700X-0.253700X0.983700X-0.253700X0*%
%ADD41RoundRect,0.200000X-0.500000X0.200000X-0.500000X-0.200000X0.500000X-0.200000X0.500000X0.200000X0*%
%ADD42RoundRect,0.225000X0.225000X0.250000X-0.225000X0.250000X-0.225000X-0.250000X0.225000X-0.250000X0*%
%ADD43RoundRect,0.100000X-0.100000X0.712500X-0.100000X-0.712500X0.100000X-0.712500X0.100000X0.712500X0*%
%ADD44RoundRect,0.200000X0.200000X0.275000X-0.200000X0.275000X-0.200000X-0.275000X0.200000X-0.275000X0*%
%ADD45RoundRect,0.250000X0.325000X0.650000X-0.325000X0.650000X-0.325000X-0.650000X0.325000X-0.650000X0*%
%ADD46RoundRect,0.102000X0.635000X-0.450000X0.635000X0.450000X-0.635000X0.450000X-0.635000X-0.450000X0*%
%ADD47RoundRect,0.102000X0.400000X-0.725000X0.400000X0.725000X-0.400000X0.725000X-0.400000X-0.725000X0*%
%ADD48RoundRect,0.320000X1.005000X-0.480000X1.005000X0.480000X-1.005000X0.480000X-1.005000X-0.480000X0*%
%ADD49C,0.600000*%
%ADD50O,2.204000X1.104000*%
%ADD51O,1.904000X1.104000*%
%ADD52RoundRect,0.200000X0.500000X-0.200000X0.500000X0.200000X-0.500000X0.200000X-0.500000X-0.200000X0*%
G04 APERTURE END LIST*
%TO.C,J1*%
D10*
X122540000Y-68581000D02*
X121300000Y-68581000D01*
X121300000Y-67881000D01*
X122540000Y-67881000D01*
X122540000Y-68581000D01*
G36*
X122540000Y-68581000D02*
G01*
X121300000Y-68581000D01*
X121300000Y-67881000D01*
X122540000Y-67881000D01*
X122540000Y-68581000D01*
G37*
X122540000Y-67781000D02*
X121300000Y-67781000D01*
X121300000Y-67081000D01*
X122540000Y-67081000D01*
X122540000Y-67781000D01*
G36*
X122540000Y-67781000D02*
G01*
X121300000Y-67781000D01*
X121300000Y-67081000D01*
X122540000Y-67081000D01*
X122540000Y-67781000D01*
G37*
X122540000Y-66981000D02*
X121300000Y-66981000D01*
X121300000Y-66581000D01*
X122540000Y-66581000D01*
X122540000Y-66981000D01*
G36*
X122540000Y-66981000D02*
G01*
X121300000Y-66981000D01*
X121300000Y-66581000D01*
X122540000Y-66581000D01*
X122540000Y-66981000D01*
G37*
X122540000Y-66481000D02*
X121300000Y-66481000D01*
X121300000Y-66081000D01*
X122540000Y-66081000D01*
X122540000Y-66481000D01*
G36*
X122540000Y-66481000D02*
G01*
X121300000Y-66481000D01*
X121300000Y-66081000D01*
X122540000Y-66081000D01*
X122540000Y-66481000D01*
G37*
X122540000Y-65981000D02*
X121300000Y-65981000D01*
X121300000Y-65581000D01*
X122540000Y-65581000D01*
X122540000Y-65981000D01*
G36*
X122540000Y-65981000D02*
G01*
X121300000Y-65981000D01*
X121300000Y-65581000D01*
X122540000Y-65581000D01*
X122540000Y-65981000D01*
G37*
X122540000Y-65481000D02*
X121300000Y-65481000D01*
X121300000Y-65081000D01*
X122540000Y-65081000D01*
X122540000Y-65481000D01*
G36*
X122540000Y-65481000D02*
G01*
X121300000Y-65481000D01*
X121300000Y-65081000D01*
X122540000Y-65081000D01*
X122540000Y-65481000D01*
G37*
X122540000Y-64981000D02*
X121300000Y-64981000D01*
X121300000Y-64581000D01*
X122540000Y-64581000D01*
X122540000Y-64981000D01*
G36*
X122540000Y-64981000D02*
G01*
X121300000Y-64981000D01*
X121300000Y-64581000D01*
X122540000Y-64581000D01*
X122540000Y-64981000D01*
G37*
X122540000Y-64481000D02*
X121300000Y-64481000D01*
X121300000Y-64081000D01*
X122540000Y-64081000D01*
X122540000Y-64481000D01*
G36*
X122540000Y-64481000D02*
G01*
X121300000Y-64481000D01*
X121300000Y-64081000D01*
X122540000Y-64081000D01*
X122540000Y-64481000D01*
G37*
X122540000Y-63981000D02*
X121300000Y-63981000D01*
X121300000Y-63581000D01*
X122540000Y-63581000D01*
X122540000Y-63981000D01*
G36*
X122540000Y-63981000D02*
G01*
X121300000Y-63981000D01*
X121300000Y-63581000D01*
X122540000Y-63581000D01*
X122540000Y-63981000D01*
G37*
X122540000Y-63481000D02*
X121300000Y-63481000D01*
X121300000Y-63081000D01*
X122540000Y-63081000D01*
X122540000Y-63481000D01*
G36*
X122540000Y-63481000D02*
G01*
X121300000Y-63481000D01*
X121300000Y-63081000D01*
X122540000Y-63081000D01*
X122540000Y-63481000D01*
G37*
X122540000Y-62981000D02*
X121300000Y-62981000D01*
X121300000Y-62281000D01*
X122540000Y-62281000D01*
X122540000Y-62981000D01*
G36*
X122540000Y-62981000D02*
G01*
X121300000Y-62981000D01*
X121300000Y-62281000D01*
X122540000Y-62281000D01*
X122540000Y-62981000D01*
G37*
X122540000Y-62181000D02*
X121300000Y-62181000D01*
X121300000Y-61481000D01*
X122540000Y-61481000D01*
X122540000Y-62181000D01*
G36*
X122540000Y-62181000D02*
G01*
X121300000Y-62181000D01*
X121300000Y-61481000D01*
X122540000Y-61481000D01*
X122540000Y-62181000D01*
G37*
%TD*%
D11*
%TO.C,Y1*%
X114877503Y-47188716D03*
X117163503Y-47188716D03*
X117163503Y-45664716D03*
X114877503Y-45664716D03*
%TD*%
D12*
%TO.C,U1*%
X113496319Y-50637182D03*
X113496319Y-51037182D03*
X113496319Y-51437182D03*
X113496319Y-51837182D03*
X113496319Y-52237182D03*
X113496319Y-52637182D03*
X113496319Y-53037182D03*
X113496319Y-53437182D03*
X113496319Y-53837182D03*
X113496319Y-54237182D03*
X113496319Y-54637182D03*
X113496319Y-55037182D03*
X113496319Y-55437182D03*
X113496319Y-55837182D03*
D13*
X114346319Y-56687182D03*
X114746319Y-56687182D03*
X115146319Y-56687182D03*
X115546319Y-56687182D03*
X115946319Y-56687182D03*
X116346319Y-56687182D03*
X116746319Y-56687182D03*
X117146319Y-56687182D03*
X117546319Y-56687182D03*
X117946319Y-56687182D03*
X118346319Y-56687182D03*
X118746319Y-56687182D03*
X119146319Y-56687182D03*
X119546319Y-56687182D03*
D12*
X120396319Y-55837182D03*
X120396319Y-55437182D03*
X120396319Y-55037182D03*
X120396319Y-54637182D03*
X120396319Y-54237182D03*
X120396319Y-53837182D03*
X120396319Y-53437182D03*
X120396319Y-53037182D03*
X120396319Y-52637182D03*
X120396319Y-52237182D03*
X120396319Y-51837182D03*
X120396319Y-51437182D03*
X120396319Y-51037182D03*
X120396319Y-50637182D03*
D13*
X119546319Y-49787182D03*
X119146319Y-49787182D03*
X118746319Y-49787182D03*
X118346319Y-49787182D03*
X117946319Y-49787182D03*
X117546319Y-49787182D03*
X117146319Y-49787182D03*
X116746319Y-49787182D03*
X116346319Y-49787182D03*
X115946319Y-49787182D03*
X115546319Y-49787182D03*
X115146319Y-49787182D03*
X114746319Y-49787182D03*
X114346319Y-49787182D03*
D14*
X116946319Y-53237182D03*
%TD*%
D15*
%TO.C,U2*%
X107080632Y-47638833D03*
X107080632Y-46688833D03*
X107080632Y-45738833D03*
X104805632Y-45738833D03*
X104805632Y-47638833D03*
%TD*%
D16*
%TO.C,R3*%
X124195147Y-72822103D03*
X124195147Y-71172103D03*
%TD*%
D17*
%TO.C,D2*%
X67564000Y-70260000D03*
X67564000Y-73660000D03*
%TD*%
D18*
%TO.C,C18*%
X86233000Y-79170000D03*
X86233000Y-82120000D03*
%TD*%
D19*
%TO.C,LS1*%
X118830147Y-67262851D03*
X118830147Y-73262851D03*
X112830147Y-73262851D03*
X112830147Y-67262851D03*
%TD*%
D20*
%TO.C,R14*%
X123333861Y-57059106D03*
X123333861Y-58709106D03*
%TD*%
D16*
%TO.C,R6*%
X69162006Y-73553422D03*
X69162006Y-71903422D03*
%TD*%
D21*
%TO.C,TP28*%
X118000000Y-64500000D03*
%TD*%
D22*
%TO.C,M2*%
X124460000Y-47752000D03*
%TD*%
D23*
%TO.C,C5*%
X120267524Y-47275000D03*
X120267524Y-45725000D03*
%TD*%
D20*
%TO.C,R19*%
X103632000Y-80582000D03*
X103632000Y-82232000D03*
%TD*%
D24*
%TO.C,C15*%
X111787761Y-45686050D03*
X111787761Y-47236050D03*
%TD*%
D20*
%TO.C,R9*%
X82423000Y-48324000D03*
X82423000Y-49974000D03*
%TD*%
D25*
%TO.C,D3*%
X73267123Y-47343045D03*
X71235123Y-47343045D03*
%TD*%
D26*
%TO.C,S2*%
X68703000Y-63754000D03*
X68703000Y-66802000D03*
D27*
X66818000Y-62992000D03*
D28*
X67518000Y-64428000D03*
X67518000Y-66128000D03*
D27*
X66818000Y-67564000D03*
%TD*%
D29*
%TO.C,C9*%
X108991132Y-47638833D03*
X108991132Y-45738833D03*
%TD*%
D30*
%TO.C,Q1*%
X117633660Y-78263648D03*
X119533660Y-78263648D03*
X118583660Y-76143648D03*
%TD*%
D31*
%TO.C,BT1*%
X89789000Y-49403000D03*
X86487000Y-49403000D03*
%TD*%
D16*
%TO.C,R21*%
X85725000Y-85407000D03*
X85725000Y-83757000D03*
%TD*%
D23*
%TO.C,C6*%
X103149132Y-47238833D03*
X103149132Y-45688833D03*
%TD*%
D20*
%TO.C,R17*%
X84074000Y-77280000D03*
X84074000Y-78930000D03*
%TD*%
D24*
%TO.C,C4*%
X117000479Y-59225783D03*
X117000479Y-60775783D03*
%TD*%
D32*
%TO.C,U3*%
X80756446Y-49519595D03*
X80756446Y-48249595D03*
X80756446Y-46979595D03*
X80756446Y-45709595D03*
X74959234Y-45717485D03*
X74959234Y-46987485D03*
X74959234Y-48257485D03*
X74959234Y-49527485D03*
D33*
X77851000Y-47625000D03*
%TD*%
D34*
%TO.C,D6*%
X79629000Y-80518000D03*
X79629000Y-84518000D03*
%TD*%
D26*
%TO.C,S1*%
X68703000Y-50546000D03*
X68703000Y-53594000D03*
D27*
X66818000Y-49784000D03*
D28*
X67518000Y-51220000D03*
X67518000Y-52920000D03*
D27*
X66818000Y-54356000D03*
%TD*%
D23*
%TO.C,C12*%
X82415870Y-46949882D03*
X82415870Y-45399882D03*
%TD*%
D35*
%TO.C,J2*%
X95286000Y-75230000D03*
X95786000Y-75230000D03*
X96286000Y-75230000D03*
X96786000Y-75230000D03*
X97286000Y-75230000D03*
X97786000Y-75230000D03*
X98286000Y-75230000D03*
X98786000Y-75230000D03*
X99286000Y-75230000D03*
X99786000Y-75230000D03*
D36*
X93486000Y-77980000D03*
X101586000Y-77980000D03*
%TD*%
D23*
%TO.C,C7*%
X121821319Y-55660182D03*
X121821319Y-54110182D03*
%TD*%
D37*
%TO.C,C14*%
X117716280Y-82998754D03*
X119266280Y-82998754D03*
%TD*%
D24*
%TO.C,C3*%
X118790503Y-45739216D03*
X118790503Y-47289216D03*
%TD*%
D38*
%TO.C,R7*%
X68263000Y-47244000D03*
X69913000Y-47244000D03*
%TD*%
D26*
%TO.C,S4*%
X68703000Y-76962000D03*
X68703000Y-80010000D03*
D27*
X66818000Y-76200000D03*
D28*
X67518000Y-77636000D03*
X67518000Y-79336000D03*
D27*
X66818000Y-80772000D03*
%TD*%
D39*
%TO.C,JP1*%
X68692000Y-45085000D03*
X69992000Y-45085000D03*
%TD*%
D37*
%TO.C,C13*%
X106488411Y-49190065D03*
X108038411Y-49190065D03*
%TD*%
D40*
%TO.C,U4*%
X115526000Y-85217000D03*
X115526000Y-83947000D03*
X115526000Y-82677000D03*
X115526000Y-81407000D03*
X115526000Y-80137000D03*
X115526000Y-78867000D03*
X115526000Y-77597000D03*
X115526000Y-76327000D03*
X106216000Y-76327000D03*
X106216000Y-77597000D03*
X106216000Y-78867000D03*
X106216000Y-80137000D03*
X106216000Y-81407000D03*
X106216000Y-82677000D03*
X106216000Y-83947000D03*
X106216000Y-85217000D03*
%TD*%
D20*
%TO.C,R10*%
X69150351Y-68709964D03*
X69150351Y-70359964D03*
%TD*%
D29*
%TO.C,C10*%
X103886000Y-79055000D03*
X103886000Y-77155000D03*
%TD*%
D41*
%TO.C,D1*%
X67500000Y-56484000D03*
X67500000Y-58516000D03*
%TD*%
D42*
%TO.C,C11*%
X73292000Y-45593000D03*
X71742000Y-45593000D03*
%TD*%
D43*
%TO.C,U5*%
X84160000Y-80818500D03*
X83510000Y-80818500D03*
X82860000Y-80818500D03*
X82210000Y-80818500D03*
X82210000Y-85043500D03*
X82860000Y-85043500D03*
X83510000Y-85043500D03*
X84160000Y-85043500D03*
%TD*%
D24*
%TO.C,C2*%
X113258303Y-45680154D03*
X113258303Y-47230154D03*
%TD*%
D16*
%TO.C,R5*%
X69213058Y-58109281D03*
X69213058Y-56459281D03*
%TD*%
D38*
%TO.C,R8*%
X68263000Y-48768000D03*
X69913000Y-48768000D03*
%TD*%
D44*
%TO.C,R4*%
X113628466Y-64927773D03*
X111978466Y-64927773D03*
%TD*%
D20*
%TO.C,R18*%
X82296000Y-77280000D03*
X82296000Y-78930000D03*
%TD*%
D45*
%TO.C,C16*%
X80596000Y-77724000D03*
X77646000Y-77724000D03*
%TD*%
D21*
%TO.C,TP27*%
X110193874Y-49500000D03*
%TD*%
D22*
%TO.C,M3*%
X95250000Y-48006000D03*
%TD*%
D20*
%TO.C,R2*%
X125663001Y-71175000D03*
X125663001Y-72825000D03*
%TD*%
D46*
%TO.C,S3*%
X122452000Y-80352000D03*
X122452000Y-77304000D03*
D47*
X124337000Y-81114000D03*
D28*
X123637000Y-79678000D03*
X123637000Y-77978000D03*
D47*
X124337000Y-76542000D03*
%TD*%
D38*
%TO.C,R11*%
X85281000Y-45466000D03*
X86931000Y-45466000D03*
%TD*%
D48*
%TO.C,L1*%
X76200000Y-85093000D03*
X76200000Y-82293000D03*
%TD*%
D45*
%TO.C,C17*%
X76913000Y-80137000D03*
X73963000Y-80137000D03*
%TD*%
D20*
%TO.C,R15*%
X112031855Y-49735182D03*
X112031855Y-51385182D03*
%TD*%
D22*
%TO.C,M1*%
X71120000Y-83312000D03*
%TD*%
D49*
%TO.C,J1*%
X122990000Y-67921000D03*
X122990000Y-62141000D03*
D50*
X122500000Y-69356000D03*
X122500000Y-60706000D03*
D51*
X126670000Y-69356000D03*
X126670000Y-60706000D03*
%TD*%
D38*
%TO.C,R16*%
X117654773Y-84506664D03*
X119304773Y-84506664D03*
%TD*%
D16*
%TO.C,R13*%
X124805082Y-58708034D03*
X124805082Y-57058034D03*
%TD*%
D38*
%TO.C,R12*%
X88329000Y-45466000D03*
X89979000Y-45466000D03*
%TD*%
D16*
%TO.C,R20*%
X103632000Y-85280000D03*
X103632000Y-83630000D03*
%TD*%
D52*
%TO.C,D5*%
X69000000Y-62016000D03*
X69000000Y-59984000D03*
%TD*%
D24*
%TO.C,C8*%
X121821319Y-57110182D03*
X121821319Y-58660182D03*
%TD*%
D25*
%TO.C,D4*%
X73279000Y-49403000D03*
X71247000Y-49403000D03*
%TD*%
D20*
%TO.C,R1*%
X118500000Y-79835621D03*
X118500000Y-81485621D03*
%TD*%
D29*
%TO.C,C1*%
X120078637Y-60668763D03*
X120078637Y-58768763D03*
%TD*%
M02*
