%TF.GenerationSoftware,KiCad,Pcbnew,7.0.9*%
%TF.CreationDate,2023-12-20T20:28:44+02:00*%
%TF.ProjectId,DRM_Watch_V3,44524d5f-5761-4746-9368-5f56332e6b69,rev?*%
%TF.SameCoordinates,Original*%
%TF.FileFunction,Drillmap*%
%TF.FilePolarity,Positive*%
%FSLAX45Y45*%
G04 Gerber Fmt 4.5, Leading zero omitted, Abs format (unit mm)*
G04 Created by KiCad (PCBNEW 7.0.9) date 2023-12-20 20:28:44*
%MOMM*%
%LPD*%
G01*
G04 APERTURE LIST*
%ADD10C,0.100000*%
%ADD11C,0.200000*%
%ADD12C,0.220000*%
G04 APERTURE END LIST*
D10*
X12877800Y-8763000D02*
X10464800Y-8763000D01*
X6604000Y-4318000D02*
X12877800Y-4318000D01*
X10312400Y-8610600D02*
X9169400Y-8610600D01*
X10464800Y-8763000D02*
X10312400Y-8610600D01*
X9017000Y-8763000D02*
X9169400Y-8610600D01*
X6604000Y-8763000D02*
X9017000Y-8763000D01*
X12877800Y-4318000D02*
X12877800Y-8763000D01*
X6604000Y-4318000D02*
X6604000Y-8763000D01*
D11*
D10*
X10288900Y-6145900D02*
X10318900Y-6175900D01*
X10318900Y-6145900D02*
X10288900Y-6175900D01*
X10288900Y-6320900D02*
X10318900Y-6350900D01*
X10318900Y-6320900D02*
X10288900Y-6350900D01*
X10288900Y-6495900D02*
X10318900Y-6525900D01*
X10318900Y-6495900D02*
X10288900Y-6525900D01*
X10463900Y-6145900D02*
X10493900Y-6175900D01*
X10493900Y-6145900D02*
X10463900Y-6175900D01*
X10463900Y-6320900D02*
X10493900Y-6350900D01*
X10493900Y-6320900D02*
X10463900Y-6350900D01*
X10463900Y-6495900D02*
X10493900Y-6525900D01*
X10493900Y-6495900D02*
X10463900Y-6525900D01*
X10493800Y-4887200D02*
X10523800Y-4917200D01*
X10523800Y-4887200D02*
X10493800Y-4917200D01*
X10638900Y-6145900D02*
X10668900Y-6175900D01*
X10668900Y-6145900D02*
X10638900Y-6175900D01*
X10638900Y-6320900D02*
X10668900Y-6350900D01*
X10668900Y-6320900D02*
X10638900Y-6350900D01*
X10638900Y-6495900D02*
X10668900Y-6525900D01*
X10668900Y-6495900D02*
X10638900Y-6525900D01*
X6878000Y-4800600D02*
G75*
G03*
X6878000Y-4800600I-20000J0D01*
G01*
X6979600Y-5613400D02*
G75*
G03*
X6979600Y-5613400I-20000J0D01*
G01*
X6979600Y-6934200D02*
G75*
G03*
X6979600Y-6934200I-20000J0D01*
G01*
X7157400Y-6223000D02*
G75*
G03*
X7157400Y-6223000I-20000J0D01*
G01*
X7157400Y-7467600D02*
G75*
G03*
X7157400Y-7467600I-20000J0D01*
G01*
X7182800Y-4445000D02*
G75*
G03*
X7182800Y-4445000I-20000J0D01*
G01*
X7462200Y-8382000D02*
G75*
G03*
X7462200Y-8382000I-20000J0D01*
G01*
X7690800Y-4826000D02*
G75*
G03*
X7690800Y-4826000I-20000J0D01*
G01*
X7741600Y-5918200D02*
G75*
G03*
X7741600Y-5918200I-20000J0D01*
G01*
X7868600Y-6858000D02*
G75*
G03*
X7868600Y-6858000I-20000J0D01*
G01*
X8071800Y-4470400D02*
G75*
G03*
X8071800Y-4470400I-20000J0D01*
G01*
X8325800Y-5080000D02*
G75*
G03*
X8325800Y-5080000I-20000J0D01*
G01*
X8452800Y-7010400D02*
G75*
G03*
X8452800Y-7010400I-20000J0D01*
G01*
X8554400Y-5715000D02*
G75*
G03*
X8554400Y-5715000I-20000J0D01*
G01*
X8706800Y-6324600D02*
G75*
G03*
X8706800Y-6324600I-20000J0D01*
G01*
X8757600Y-5791200D02*
G75*
G03*
X8757600Y-5791200I-20000J0D01*
G01*
X8808400Y-6781800D02*
G75*
G03*
X8808400Y-6781800I-20000J0D01*
G01*
X8884600Y-7518400D02*
G75*
G03*
X8884600Y-7518400I-20000J0D01*
G01*
X8884600Y-8610600D02*
G75*
G03*
X8884600Y-8610600I-20000J0D01*
G01*
X8910000Y-7239000D02*
G75*
G03*
X8910000Y-7239000I-20000J0D01*
G01*
X8935400Y-5791200D02*
G75*
G03*
X8935400Y-5791200I-20000J0D01*
G01*
X8986200Y-8153400D02*
G75*
G03*
X8986200Y-8153400I-20000J0D01*
G01*
X9011600Y-4445000D02*
G75*
G03*
X9011600Y-4445000I-20000J0D01*
G01*
X9011600Y-5867400D02*
G75*
G03*
X9011600Y-5867400I-20000J0D01*
G01*
X9062400Y-6121400D02*
G75*
G03*
X9062400Y-6121400I-20000J0D01*
G01*
X9113200Y-4699000D02*
G75*
G03*
X9113200Y-4699000I-20000J0D01*
G01*
X9189401Y-6858000D02*
G75*
G03*
X9189401Y-6858000I-20000J0D01*
G01*
X9240200Y-8458200D02*
G75*
G03*
X9240200Y-8458200I-20000J0D01*
G01*
X9291000Y-5054600D02*
G75*
G03*
X9291000Y-5054600I-20000J0D01*
G01*
X9367200Y-6781800D02*
G75*
G03*
X9367200Y-6781800I-20000J0D01*
G01*
X9494200Y-6934200D02*
G75*
G03*
X9494200Y-6934200I-20000J0D01*
G01*
X9519600Y-5486400D02*
G75*
G03*
X9519600Y-5486400I-20000J0D01*
G01*
X9519600Y-6451600D02*
G75*
G03*
X9519600Y-6451600I-20000J0D01*
G01*
X9595800Y-7010400D02*
G75*
G03*
X9595800Y-7010400I-20000J0D01*
G01*
X9875200Y-5080000D02*
G75*
G03*
X9875200Y-5080000I-20000J0D01*
G01*
X9926000Y-5994400D02*
G75*
G03*
X9926000Y-5994400I-20000J0D01*
G01*
X9951400Y-6347200D02*
G75*
G03*
X9951400Y-6347200I-20000J0D01*
G01*
X10154600Y-5181600D02*
G75*
G03*
X10154600Y-5181600I-20000J0D01*
G01*
X10256200Y-4876800D02*
G75*
G03*
X10256200Y-4876800I-20000J0D01*
G01*
X10408600Y-8280400D02*
G75*
G03*
X10408600Y-8280400I-20000J0D01*
G01*
X10459399Y-5638800D02*
G75*
G03*
X10459399Y-5638800I-20000J0D01*
G01*
X10459400Y-5511800D02*
G75*
G03*
X10459400Y-5511800I-20000J0D01*
G01*
X10459400Y-5791200D02*
G75*
G03*
X10459400Y-5791200I-20000J0D01*
G01*
X10459400Y-6959600D02*
G75*
G03*
X10459400Y-6959600I-20000J0D01*
G01*
X10459400Y-7086600D02*
G75*
G03*
X10459400Y-7086600I-20000J0D01*
G01*
X10535600Y-5867400D02*
G75*
G03*
X10535600Y-5867400I-20000J0D01*
G01*
X10535600Y-7391400D02*
G75*
G03*
X10535600Y-7391400I-20000J0D01*
G01*
X10586400Y-7645400D02*
G75*
G03*
X10586400Y-7645400I-20000J0D01*
G01*
X10688000Y-7035800D02*
G75*
G03*
X10688000Y-7035800I-20000J0D01*
G01*
X10738800Y-8204200D02*
G75*
G03*
X10738800Y-8204200I-20000J0D01*
G01*
X10764200Y-7264400D02*
G75*
G03*
X10764200Y-7264400I-20000J0D01*
G01*
X10789600Y-5384800D02*
G75*
G03*
X10789600Y-5384800I-20000J0D01*
G01*
X10815000Y-8636000D02*
G75*
G03*
X10815000Y-8636000I-20000J0D01*
G01*
X10916600Y-7103300D02*
G75*
G03*
X10916600Y-7103300I-20000J0D01*
G01*
X10916600Y-8255000D02*
G75*
G03*
X10916600Y-8255000I-20000J0D01*
G01*
X10992800Y-7010400D02*
G75*
G03*
X10992800Y-7010400I-20000J0D01*
G01*
X11069000Y-5791200D02*
G75*
G03*
X11069000Y-5791200I-20000J0D01*
G01*
X11124587Y-6900100D02*
G75*
G03*
X11124587Y-6900100I-20000J0D01*
G01*
X11145200Y-6451600D02*
G75*
G03*
X11145200Y-6451600I-20000J0D01*
G01*
X11221400Y-6070600D02*
G75*
G03*
X11221400Y-6070600I-20000J0D01*
G01*
X11348400Y-6705600D02*
G75*
G03*
X11348400Y-6705600I-20000J0D01*
G01*
X11475400Y-6756400D02*
G75*
G03*
X11475400Y-6756400I-20000J0D01*
G01*
X11526200Y-5613400D02*
G75*
G03*
X11526200Y-5613400I-20000J0D01*
G01*
X11754800Y-5029200D02*
G75*
G03*
X11754800Y-5029200I-20000J0D01*
G01*
X11856400Y-6121400D02*
G75*
G03*
X11856400Y-6121400I-20000J0D01*
G01*
X11856400Y-7061200D02*
G75*
G03*
X11856400Y-7061200I-20000J0D01*
G01*
X11983400Y-5765800D02*
G75*
G03*
X11983400Y-5765800I-20000J0D01*
G01*
X12008800Y-4699000D02*
G75*
G03*
X12008800Y-4699000I-20000J0D01*
G01*
X12008800Y-5613400D02*
G75*
G03*
X12008800Y-5613400I-20000J0D01*
G01*
X12008800Y-6299200D02*
G75*
G03*
X12008800Y-6299200I-20000J0D01*
G01*
X12008800Y-6705602D02*
G75*
G03*
X12008800Y-6705602I-20000J0D01*
G01*
X12110400Y-8661400D02*
G75*
G03*
X12110400Y-8661400I-20000J0D01*
G01*
X12237400Y-4953000D02*
G75*
G03*
X12237400Y-4953000I-20000J0D01*
G01*
X12237400Y-8204200D02*
G75*
G03*
X12237400Y-8204200I-20000J0D01*
G01*
X12288200Y-7289800D02*
G75*
G03*
X12288200Y-7289800I-20000J0D01*
G01*
X12389800Y-6477000D02*
G75*
G03*
X12389800Y-6477000I-20000J0D01*
G01*
X12491400Y-6197600D02*
G75*
G03*
X12491400Y-6197600I-20000J0D01*
G01*
X12643800Y-5588000D02*
G75*
G03*
X12643800Y-5588000I-20000J0D01*
G01*
X12669200Y-8102600D02*
G75*
G03*
X12669200Y-8102600I-20000J0D01*
G01*
X12720000Y-6324600D02*
G75*
G03*
X12720000Y-6324600I-20000J0D01*
G01*
X6751800Y-5097000D02*
X6751800Y-5147000D01*
X6726800Y-5122000D02*
X6776800Y-5122000D01*
X6751800Y-5267000D02*
X6751800Y-5317000D01*
X6726800Y-5292000D02*
X6776800Y-5292000D01*
X6751800Y-6417800D02*
X6751800Y-6467800D01*
X6726800Y-6442800D02*
X6776800Y-6442800D01*
X6751800Y-6587800D02*
X6751800Y-6637800D01*
X6726800Y-6612800D02*
X6776800Y-6612800D01*
X6751800Y-7738600D02*
X6751800Y-7788600D01*
X6726800Y-7763600D02*
X6776800Y-7763600D01*
X6751800Y-7908600D02*
X6751800Y-7958600D01*
X6726800Y-7933600D02*
X6776800Y-7933600D01*
X8026400Y-7722000D02*
X8026400Y-7772000D01*
X8001400Y-7747000D02*
X8051400Y-7747000D01*
X9753600Y-7722000D02*
X9753600Y-7772000D01*
X9728600Y-7747000D02*
X9778600Y-7747000D01*
X11480800Y-7722000D02*
X11480800Y-7772000D01*
X11455800Y-7747000D02*
X11505800Y-7747000D01*
X12363700Y-7772800D02*
X12363700Y-7822800D01*
X12338700Y-7797800D02*
X12388700Y-7797800D01*
X12363700Y-7942800D02*
X12363700Y-7992800D01*
X12338700Y-7967800D02*
X12388700Y-7967800D01*
X12271213Y-6091813D02*
X12271213Y-6049387D01*
X12228787Y-6049387D01*
X12228787Y-6091813D01*
X12271213Y-6091813D01*
X12195000Y-6100600D02*
X12305000Y-6100600D01*
X12305000Y-6100600D02*
G75*
G03*
X12305000Y-6040600I0J30000D01*
G01*
X12305000Y-6040600D02*
X12195000Y-6040600D01*
X12195000Y-6040600D02*
G75*
G03*
X12195000Y-6100600I0J-30000D01*
G01*
X12271213Y-6956813D02*
X12271213Y-6914387D01*
X12228787Y-6914387D01*
X12228787Y-6956813D01*
X12271213Y-6956813D01*
X12195000Y-6965600D02*
X12305000Y-6965600D01*
X12305000Y-6965600D02*
G75*
G03*
X12305000Y-6905600I0J30000D01*
G01*
X12305000Y-6905600D02*
X12195000Y-6905600D01*
X12195000Y-6905600D02*
G75*
G03*
X12195000Y-6965600I0J-30000D01*
G01*
X12688213Y-6091813D02*
X12688213Y-6049387D01*
X12645787Y-6049387D01*
X12645787Y-6091813D01*
X12688213Y-6091813D01*
X12627000Y-6100600D02*
X12707000Y-6100600D01*
X12707000Y-6100600D02*
G75*
G03*
X12707000Y-6040600I0J30000D01*
G01*
X12707000Y-6040600D02*
X12627000Y-6040600D01*
X12627000Y-6040600D02*
G75*
G03*
X12627000Y-6100600I0J-30000D01*
G01*
X12688213Y-6956813D02*
X12688213Y-6914387D01*
X12645787Y-6914387D01*
X12645787Y-6956813D01*
X12688213Y-6956813D01*
X12627000Y-6965600D02*
X12707000Y-6965600D01*
X12707000Y-6965600D02*
G75*
G03*
X12707000Y-6905600I0J30000D01*
G01*
X12707000Y-6905600D02*
X12627000Y-6905600D01*
X12627000Y-6905600D02*
G75*
G03*
X12627000Y-6965600I0J-30000D01*
G01*
D12*
X7112000Y-8441200D02*
X7222000Y-8331200D01*
X7112000Y-8221200D01*
X7002000Y-8331200D01*
X7112000Y-8441200D01*
X9525000Y-4910600D02*
X9635000Y-4800600D01*
X9525000Y-4690600D01*
X9415000Y-4800600D01*
X9525000Y-4910600D01*
X12446000Y-4885200D02*
X12556000Y-4775200D01*
X12446000Y-4665200D01*
X12336000Y-4775200D01*
X12446000Y-4885200D01*
D11*
X6859777Y-9079484D02*
X6859777Y-8879484D01*
X6859777Y-8879484D02*
X6907396Y-8879484D01*
X6907396Y-8879484D02*
X6935967Y-8889008D01*
X6935967Y-8889008D02*
X6955015Y-8908055D01*
X6955015Y-8908055D02*
X6964539Y-8927103D01*
X6964539Y-8927103D02*
X6974062Y-8965198D01*
X6974062Y-8965198D02*
X6974062Y-8993770D01*
X6974062Y-8993770D02*
X6964539Y-9031865D01*
X6964539Y-9031865D02*
X6955015Y-9050912D01*
X6955015Y-9050912D02*
X6935967Y-9069960D01*
X6935967Y-9069960D02*
X6907396Y-9079484D01*
X6907396Y-9079484D02*
X6859777Y-9079484D01*
X7059777Y-9079484D02*
X7059777Y-8946150D01*
X7059777Y-8984246D02*
X7069301Y-8965198D01*
X7069301Y-8965198D02*
X7078824Y-8955674D01*
X7078824Y-8955674D02*
X7097872Y-8946150D01*
X7097872Y-8946150D02*
X7116920Y-8946150D01*
X7183586Y-9079484D02*
X7183586Y-8946150D01*
X7183586Y-8879484D02*
X7174062Y-8889008D01*
X7174062Y-8889008D02*
X7183586Y-8898531D01*
X7183586Y-8898531D02*
X7193110Y-8889008D01*
X7193110Y-8889008D02*
X7183586Y-8879484D01*
X7183586Y-8879484D02*
X7183586Y-8898531D01*
X7307396Y-9079484D02*
X7288348Y-9069960D01*
X7288348Y-9069960D02*
X7278824Y-9050912D01*
X7278824Y-9050912D02*
X7278824Y-8879484D01*
X7412158Y-9079484D02*
X7393110Y-9069960D01*
X7393110Y-9069960D02*
X7383586Y-9050912D01*
X7383586Y-9050912D02*
X7383586Y-8879484D01*
X7640729Y-9079484D02*
X7640729Y-8879484D01*
X7640729Y-8879484D02*
X7707396Y-9022341D01*
X7707396Y-9022341D02*
X7774062Y-8879484D01*
X7774062Y-8879484D02*
X7774062Y-9079484D01*
X7955015Y-9079484D02*
X7955015Y-8974722D01*
X7955015Y-8974722D02*
X7945491Y-8955674D01*
X7945491Y-8955674D02*
X7926443Y-8946150D01*
X7926443Y-8946150D02*
X7888348Y-8946150D01*
X7888348Y-8946150D02*
X7869301Y-8955674D01*
X7955015Y-9069960D02*
X7935967Y-9079484D01*
X7935967Y-9079484D02*
X7888348Y-9079484D01*
X7888348Y-9079484D02*
X7869301Y-9069960D01*
X7869301Y-9069960D02*
X7859777Y-9050912D01*
X7859777Y-9050912D02*
X7859777Y-9031865D01*
X7859777Y-9031865D02*
X7869301Y-9012817D01*
X7869301Y-9012817D02*
X7888348Y-9003293D01*
X7888348Y-9003293D02*
X7935967Y-9003293D01*
X7935967Y-9003293D02*
X7955015Y-8993770D01*
X8050253Y-8946150D02*
X8050253Y-9146150D01*
X8050253Y-8955674D02*
X8069301Y-8946150D01*
X8069301Y-8946150D02*
X8107396Y-8946150D01*
X8107396Y-8946150D02*
X8126443Y-8955674D01*
X8126443Y-8955674D02*
X8135967Y-8965198D01*
X8135967Y-8965198D02*
X8145491Y-8984246D01*
X8145491Y-8984246D02*
X8145491Y-9041389D01*
X8145491Y-9041389D02*
X8135967Y-9060436D01*
X8135967Y-9060436D02*
X8126443Y-9069960D01*
X8126443Y-9069960D02*
X8107396Y-9079484D01*
X8107396Y-9079484D02*
X8069301Y-9079484D01*
X8069301Y-9079484D02*
X8050253Y-9069960D01*
X8231205Y-9060436D02*
X8240729Y-9069960D01*
X8240729Y-9069960D02*
X8231205Y-9079484D01*
X8231205Y-9079484D02*
X8221682Y-9069960D01*
X8221682Y-9069960D02*
X8231205Y-9060436D01*
X8231205Y-9060436D02*
X8231205Y-9079484D01*
X8231205Y-8955674D02*
X8240729Y-8965198D01*
X8240729Y-8965198D02*
X8231205Y-8974722D01*
X8231205Y-8974722D02*
X8221682Y-8965198D01*
X8221682Y-8965198D02*
X8231205Y-8955674D01*
X8231205Y-8955674D02*
X8231205Y-8974722D01*
D10*
X6569000Y-9393000D02*
X6599000Y-9423000D01*
X6599000Y-9393000D02*
X6569000Y-9423000D01*
D11*
X6897872Y-9299484D02*
X6916920Y-9299484D01*
X6916920Y-9299484D02*
X6935967Y-9309008D01*
X6935967Y-9309008D02*
X6945491Y-9318531D01*
X6945491Y-9318531D02*
X6955015Y-9337579D01*
X6955015Y-9337579D02*
X6964539Y-9375674D01*
X6964539Y-9375674D02*
X6964539Y-9423293D01*
X6964539Y-9423293D02*
X6955015Y-9461389D01*
X6955015Y-9461389D02*
X6945491Y-9480436D01*
X6945491Y-9480436D02*
X6935967Y-9489960D01*
X6935967Y-9489960D02*
X6916920Y-9499484D01*
X6916920Y-9499484D02*
X6897872Y-9499484D01*
X6897872Y-9499484D02*
X6878824Y-9489960D01*
X6878824Y-9489960D02*
X6869301Y-9480436D01*
X6869301Y-9480436D02*
X6859777Y-9461389D01*
X6859777Y-9461389D02*
X6850253Y-9423293D01*
X6850253Y-9423293D02*
X6850253Y-9375674D01*
X6850253Y-9375674D02*
X6859777Y-9337579D01*
X6859777Y-9337579D02*
X6869301Y-9318531D01*
X6869301Y-9318531D02*
X6878824Y-9309008D01*
X6878824Y-9309008D02*
X6897872Y-9299484D01*
X7050253Y-9480436D02*
X7059777Y-9489960D01*
X7059777Y-9489960D02*
X7050253Y-9499484D01*
X7050253Y-9499484D02*
X7040729Y-9489960D01*
X7040729Y-9489960D02*
X7050253Y-9480436D01*
X7050253Y-9480436D02*
X7050253Y-9499484D01*
X7126443Y-9299484D02*
X7250253Y-9299484D01*
X7250253Y-9299484D02*
X7183586Y-9375674D01*
X7183586Y-9375674D02*
X7212158Y-9375674D01*
X7212158Y-9375674D02*
X7231205Y-9385198D01*
X7231205Y-9385198D02*
X7240729Y-9394722D01*
X7240729Y-9394722D02*
X7250253Y-9413770D01*
X7250253Y-9413770D02*
X7250253Y-9461389D01*
X7250253Y-9461389D02*
X7240729Y-9480436D01*
X7240729Y-9480436D02*
X7231205Y-9489960D01*
X7231205Y-9489960D02*
X7212158Y-9499484D01*
X7212158Y-9499484D02*
X7155015Y-9499484D01*
X7155015Y-9499484D02*
X7135967Y-9489960D01*
X7135967Y-9489960D02*
X7126443Y-9480436D01*
X7374062Y-9299484D02*
X7393110Y-9299484D01*
X7393110Y-9299484D02*
X7412158Y-9309008D01*
X7412158Y-9309008D02*
X7421682Y-9318531D01*
X7421682Y-9318531D02*
X7431205Y-9337579D01*
X7431205Y-9337579D02*
X7440729Y-9375674D01*
X7440729Y-9375674D02*
X7440729Y-9423293D01*
X7440729Y-9423293D02*
X7431205Y-9461389D01*
X7431205Y-9461389D02*
X7421682Y-9480436D01*
X7421682Y-9480436D02*
X7412158Y-9489960D01*
X7412158Y-9489960D02*
X7393110Y-9499484D01*
X7393110Y-9499484D02*
X7374062Y-9499484D01*
X7374062Y-9499484D02*
X7355015Y-9489960D01*
X7355015Y-9489960D02*
X7345491Y-9480436D01*
X7345491Y-9480436D02*
X7335967Y-9461389D01*
X7335967Y-9461389D02*
X7326443Y-9423293D01*
X7326443Y-9423293D02*
X7326443Y-9375674D01*
X7326443Y-9375674D02*
X7335967Y-9337579D01*
X7335967Y-9337579D02*
X7345491Y-9318531D01*
X7345491Y-9318531D02*
X7355015Y-9309008D01*
X7355015Y-9309008D02*
X7374062Y-9299484D01*
X7564539Y-9299484D02*
X7583586Y-9299484D01*
X7583586Y-9299484D02*
X7602634Y-9309008D01*
X7602634Y-9309008D02*
X7612158Y-9318531D01*
X7612158Y-9318531D02*
X7621682Y-9337579D01*
X7621682Y-9337579D02*
X7631205Y-9375674D01*
X7631205Y-9375674D02*
X7631205Y-9423293D01*
X7631205Y-9423293D02*
X7621682Y-9461389D01*
X7621682Y-9461389D02*
X7612158Y-9480436D01*
X7612158Y-9480436D02*
X7602634Y-9489960D01*
X7602634Y-9489960D02*
X7583586Y-9499484D01*
X7583586Y-9499484D02*
X7564539Y-9499484D01*
X7564539Y-9499484D02*
X7545491Y-9489960D01*
X7545491Y-9489960D02*
X7535967Y-9480436D01*
X7535967Y-9480436D02*
X7526443Y-9461389D01*
X7526443Y-9461389D02*
X7516920Y-9423293D01*
X7516920Y-9423293D02*
X7516920Y-9375674D01*
X7516920Y-9375674D02*
X7526443Y-9337579D01*
X7526443Y-9337579D02*
X7535967Y-9318531D01*
X7535967Y-9318531D02*
X7545491Y-9309008D01*
X7545491Y-9309008D02*
X7564539Y-9299484D01*
X7716920Y-9499484D02*
X7716920Y-9366150D01*
X7716920Y-9385198D02*
X7726443Y-9375674D01*
X7726443Y-9375674D02*
X7745491Y-9366150D01*
X7745491Y-9366150D02*
X7774063Y-9366150D01*
X7774063Y-9366150D02*
X7793110Y-9375674D01*
X7793110Y-9375674D02*
X7802634Y-9394722D01*
X7802634Y-9394722D02*
X7802634Y-9499484D01*
X7802634Y-9394722D02*
X7812158Y-9375674D01*
X7812158Y-9375674D02*
X7831205Y-9366150D01*
X7831205Y-9366150D02*
X7859777Y-9366150D01*
X7859777Y-9366150D02*
X7878824Y-9375674D01*
X7878824Y-9375674D02*
X7888348Y-9394722D01*
X7888348Y-9394722D02*
X7888348Y-9499484D01*
X7983586Y-9499484D02*
X7983586Y-9366150D01*
X7983586Y-9385198D02*
X7993110Y-9375674D01*
X7993110Y-9375674D02*
X8012158Y-9366150D01*
X8012158Y-9366150D02*
X8040729Y-9366150D01*
X8040729Y-9366150D02*
X8059777Y-9375674D01*
X8059777Y-9375674D02*
X8069301Y-9394722D01*
X8069301Y-9394722D02*
X8069301Y-9499484D01*
X8069301Y-9394722D02*
X8078824Y-9375674D01*
X8078824Y-9375674D02*
X8097872Y-9366150D01*
X8097872Y-9366150D02*
X8126443Y-9366150D01*
X8126443Y-9366150D02*
X8145491Y-9375674D01*
X8145491Y-9375674D02*
X8155015Y-9394722D01*
X8155015Y-9394722D02*
X8155015Y-9499484D01*
X8545491Y-9289960D02*
X8374063Y-9547103D01*
X8802634Y-9299484D02*
X8821682Y-9299484D01*
X8821682Y-9299484D02*
X8840729Y-9309008D01*
X8840729Y-9309008D02*
X8850253Y-9318531D01*
X8850253Y-9318531D02*
X8859777Y-9337579D01*
X8859777Y-9337579D02*
X8869301Y-9375674D01*
X8869301Y-9375674D02*
X8869301Y-9423293D01*
X8869301Y-9423293D02*
X8859777Y-9461389D01*
X8859777Y-9461389D02*
X8850253Y-9480436D01*
X8850253Y-9480436D02*
X8840729Y-9489960D01*
X8840729Y-9489960D02*
X8821682Y-9499484D01*
X8821682Y-9499484D02*
X8802634Y-9499484D01*
X8802634Y-9499484D02*
X8783587Y-9489960D01*
X8783587Y-9489960D02*
X8774063Y-9480436D01*
X8774063Y-9480436D02*
X8764539Y-9461389D01*
X8764539Y-9461389D02*
X8755015Y-9423293D01*
X8755015Y-9423293D02*
X8755015Y-9375674D01*
X8755015Y-9375674D02*
X8764539Y-9337579D01*
X8764539Y-9337579D02*
X8774063Y-9318531D01*
X8774063Y-9318531D02*
X8783587Y-9309008D01*
X8783587Y-9309008D02*
X8802634Y-9299484D01*
X8955015Y-9480436D02*
X8964539Y-9489960D01*
X8964539Y-9489960D02*
X8955015Y-9499484D01*
X8955015Y-9499484D02*
X8945491Y-9489960D01*
X8945491Y-9489960D02*
X8955015Y-9480436D01*
X8955015Y-9480436D02*
X8955015Y-9499484D01*
X9088348Y-9299484D02*
X9107396Y-9299484D01*
X9107396Y-9299484D02*
X9126444Y-9309008D01*
X9126444Y-9309008D02*
X9135968Y-9318531D01*
X9135968Y-9318531D02*
X9145491Y-9337579D01*
X9145491Y-9337579D02*
X9155015Y-9375674D01*
X9155015Y-9375674D02*
X9155015Y-9423293D01*
X9155015Y-9423293D02*
X9145491Y-9461389D01*
X9145491Y-9461389D02*
X9135968Y-9480436D01*
X9135968Y-9480436D02*
X9126444Y-9489960D01*
X9126444Y-9489960D02*
X9107396Y-9499484D01*
X9107396Y-9499484D02*
X9088348Y-9499484D01*
X9088348Y-9499484D02*
X9069301Y-9489960D01*
X9069301Y-9489960D02*
X9059777Y-9480436D01*
X9059777Y-9480436D02*
X9050253Y-9461389D01*
X9050253Y-9461389D02*
X9040729Y-9423293D01*
X9040729Y-9423293D02*
X9040729Y-9375674D01*
X9040729Y-9375674D02*
X9050253Y-9337579D01*
X9050253Y-9337579D02*
X9059777Y-9318531D01*
X9059777Y-9318531D02*
X9069301Y-9309008D01*
X9069301Y-9309008D02*
X9088348Y-9299484D01*
X9345491Y-9499484D02*
X9231206Y-9499484D01*
X9288348Y-9499484D02*
X9288348Y-9299484D01*
X9288348Y-9299484D02*
X9269301Y-9328055D01*
X9269301Y-9328055D02*
X9250253Y-9347103D01*
X9250253Y-9347103D02*
X9231206Y-9356627D01*
X9535968Y-9499484D02*
X9421682Y-9499484D01*
X9478825Y-9499484D02*
X9478825Y-9299484D01*
X9478825Y-9299484D02*
X9459777Y-9328055D01*
X9459777Y-9328055D02*
X9440729Y-9347103D01*
X9440729Y-9347103D02*
X9421682Y-9356627D01*
X9650253Y-9385198D02*
X9631206Y-9375674D01*
X9631206Y-9375674D02*
X9621682Y-9366150D01*
X9621682Y-9366150D02*
X9612158Y-9347103D01*
X9612158Y-9347103D02*
X9612158Y-9337579D01*
X9612158Y-9337579D02*
X9621682Y-9318531D01*
X9621682Y-9318531D02*
X9631206Y-9309008D01*
X9631206Y-9309008D02*
X9650253Y-9299484D01*
X9650253Y-9299484D02*
X9688349Y-9299484D01*
X9688349Y-9299484D02*
X9707396Y-9309008D01*
X9707396Y-9309008D02*
X9716920Y-9318531D01*
X9716920Y-9318531D02*
X9726444Y-9337579D01*
X9726444Y-9337579D02*
X9726444Y-9347103D01*
X9726444Y-9347103D02*
X9716920Y-9366150D01*
X9716920Y-9366150D02*
X9707396Y-9375674D01*
X9707396Y-9375674D02*
X9688349Y-9385198D01*
X9688349Y-9385198D02*
X9650253Y-9385198D01*
X9650253Y-9385198D02*
X9631206Y-9394722D01*
X9631206Y-9394722D02*
X9621682Y-9404246D01*
X9621682Y-9404246D02*
X9612158Y-9423293D01*
X9612158Y-9423293D02*
X9612158Y-9461389D01*
X9612158Y-9461389D02*
X9621682Y-9480436D01*
X9621682Y-9480436D02*
X9631206Y-9489960D01*
X9631206Y-9489960D02*
X9650253Y-9499484D01*
X9650253Y-9499484D02*
X9688349Y-9499484D01*
X9688349Y-9499484D02*
X9707396Y-9489960D01*
X9707396Y-9489960D02*
X9716920Y-9480436D01*
X9716920Y-9480436D02*
X9726444Y-9461389D01*
X9726444Y-9461389D02*
X9726444Y-9423293D01*
X9726444Y-9423293D02*
X9716920Y-9404246D01*
X9716920Y-9404246D02*
X9707396Y-9394722D01*
X9707396Y-9394722D02*
X9688349Y-9385198D01*
X9802634Y-9299484D02*
X9802634Y-9337579D01*
X9878825Y-9299484D02*
X9878825Y-9337579D01*
X10174063Y-9575674D02*
X10164539Y-9566150D01*
X10164539Y-9566150D02*
X10145491Y-9537579D01*
X10145491Y-9537579D02*
X10135968Y-9518531D01*
X10135968Y-9518531D02*
X10126444Y-9489960D01*
X10126444Y-9489960D02*
X10116920Y-9442341D01*
X10116920Y-9442341D02*
X10116920Y-9404246D01*
X10116920Y-9404246D02*
X10126444Y-9356627D01*
X10126444Y-9356627D02*
X10135968Y-9328055D01*
X10135968Y-9328055D02*
X10145491Y-9309008D01*
X10145491Y-9309008D02*
X10164539Y-9280436D01*
X10164539Y-9280436D02*
X10174063Y-9270912D01*
X10355015Y-9499484D02*
X10240730Y-9499484D01*
X10297872Y-9499484D02*
X10297872Y-9299484D01*
X10297872Y-9299484D02*
X10278825Y-9328055D01*
X10278825Y-9328055D02*
X10259777Y-9347103D01*
X10259777Y-9347103D02*
X10240730Y-9356627D01*
X10478825Y-9299484D02*
X10497872Y-9299484D01*
X10497872Y-9299484D02*
X10516920Y-9309008D01*
X10516920Y-9309008D02*
X10526444Y-9318531D01*
X10526444Y-9318531D02*
X10535968Y-9337579D01*
X10535968Y-9337579D02*
X10545491Y-9375674D01*
X10545491Y-9375674D02*
X10545491Y-9423293D01*
X10545491Y-9423293D02*
X10535968Y-9461389D01*
X10535968Y-9461389D02*
X10526444Y-9480436D01*
X10526444Y-9480436D02*
X10516920Y-9489960D01*
X10516920Y-9489960D02*
X10497872Y-9499484D01*
X10497872Y-9499484D02*
X10478825Y-9499484D01*
X10478825Y-9499484D02*
X10459777Y-9489960D01*
X10459777Y-9489960D02*
X10450253Y-9480436D01*
X10450253Y-9480436D02*
X10440730Y-9461389D01*
X10440730Y-9461389D02*
X10431206Y-9423293D01*
X10431206Y-9423293D02*
X10431206Y-9375674D01*
X10431206Y-9375674D02*
X10440730Y-9337579D01*
X10440730Y-9337579D02*
X10450253Y-9318531D01*
X10450253Y-9318531D02*
X10459777Y-9309008D01*
X10459777Y-9309008D02*
X10478825Y-9299484D01*
X10783587Y-9499484D02*
X10783587Y-9299484D01*
X10869301Y-9499484D02*
X10869301Y-9394722D01*
X10869301Y-9394722D02*
X10859777Y-9375674D01*
X10859777Y-9375674D02*
X10840730Y-9366150D01*
X10840730Y-9366150D02*
X10812158Y-9366150D01*
X10812158Y-9366150D02*
X10793111Y-9375674D01*
X10793111Y-9375674D02*
X10783587Y-9385198D01*
X10993111Y-9499484D02*
X10974063Y-9489960D01*
X10974063Y-9489960D02*
X10964539Y-9480436D01*
X10964539Y-9480436D02*
X10955015Y-9461389D01*
X10955015Y-9461389D02*
X10955015Y-9404246D01*
X10955015Y-9404246D02*
X10964539Y-9385198D01*
X10964539Y-9385198D02*
X10974063Y-9375674D01*
X10974063Y-9375674D02*
X10993111Y-9366150D01*
X10993111Y-9366150D02*
X11021682Y-9366150D01*
X11021682Y-9366150D02*
X11040730Y-9375674D01*
X11040730Y-9375674D02*
X11050253Y-9385198D01*
X11050253Y-9385198D02*
X11059777Y-9404246D01*
X11059777Y-9404246D02*
X11059777Y-9461389D01*
X11059777Y-9461389D02*
X11050253Y-9480436D01*
X11050253Y-9480436D02*
X11040730Y-9489960D01*
X11040730Y-9489960D02*
X11021682Y-9499484D01*
X11021682Y-9499484D02*
X10993111Y-9499484D01*
X11174063Y-9499484D02*
X11155015Y-9489960D01*
X11155015Y-9489960D02*
X11145492Y-9470912D01*
X11145492Y-9470912D02*
X11145492Y-9299484D01*
X11326444Y-9489960D02*
X11307396Y-9499484D01*
X11307396Y-9499484D02*
X11269301Y-9499484D01*
X11269301Y-9499484D02*
X11250253Y-9489960D01*
X11250253Y-9489960D02*
X11240730Y-9470912D01*
X11240730Y-9470912D02*
X11240730Y-9394722D01*
X11240730Y-9394722D02*
X11250253Y-9375674D01*
X11250253Y-9375674D02*
X11269301Y-9366150D01*
X11269301Y-9366150D02*
X11307396Y-9366150D01*
X11307396Y-9366150D02*
X11326444Y-9375674D01*
X11326444Y-9375674D02*
X11335968Y-9394722D01*
X11335968Y-9394722D02*
X11335968Y-9413770D01*
X11335968Y-9413770D02*
X11240730Y-9432817D01*
X11412158Y-9489960D02*
X11431206Y-9499484D01*
X11431206Y-9499484D02*
X11469301Y-9499484D01*
X11469301Y-9499484D02*
X11488349Y-9489960D01*
X11488349Y-9489960D02*
X11497872Y-9470912D01*
X11497872Y-9470912D02*
X11497872Y-9461389D01*
X11497872Y-9461389D02*
X11488349Y-9442341D01*
X11488349Y-9442341D02*
X11469301Y-9432817D01*
X11469301Y-9432817D02*
X11440730Y-9432817D01*
X11440730Y-9432817D02*
X11421682Y-9423293D01*
X11421682Y-9423293D02*
X11412158Y-9404246D01*
X11412158Y-9404246D02*
X11412158Y-9394722D01*
X11412158Y-9394722D02*
X11421682Y-9375674D01*
X11421682Y-9375674D02*
X11440730Y-9366150D01*
X11440730Y-9366150D02*
X11469301Y-9366150D01*
X11469301Y-9366150D02*
X11488349Y-9375674D01*
X11564539Y-9575674D02*
X11574063Y-9566150D01*
X11574063Y-9566150D02*
X11593111Y-9537579D01*
X11593111Y-9537579D02*
X11602634Y-9518531D01*
X11602634Y-9518531D02*
X11612158Y-9489960D01*
X11612158Y-9489960D02*
X11621682Y-9442341D01*
X11621682Y-9442341D02*
X11621682Y-9404246D01*
X11621682Y-9404246D02*
X11612158Y-9356627D01*
X11612158Y-9356627D02*
X11602634Y-9328055D01*
X11602634Y-9328055D02*
X11593111Y-9309008D01*
X11593111Y-9309008D02*
X11574063Y-9280436D01*
X11574063Y-9280436D02*
X11564539Y-9270912D01*
D10*
X6599000Y-9672000D02*
G75*
G03*
X6599000Y-9672000I-20000J0D01*
G01*
D11*
X6897872Y-9563484D02*
X6916920Y-9563484D01*
X6916920Y-9563484D02*
X6935967Y-9573008D01*
X6935967Y-9573008D02*
X6945491Y-9582531D01*
X6945491Y-9582531D02*
X6955015Y-9601579D01*
X6955015Y-9601579D02*
X6964539Y-9639674D01*
X6964539Y-9639674D02*
X6964539Y-9687293D01*
X6964539Y-9687293D02*
X6955015Y-9725389D01*
X6955015Y-9725389D02*
X6945491Y-9744436D01*
X6945491Y-9744436D02*
X6935967Y-9753960D01*
X6935967Y-9753960D02*
X6916920Y-9763484D01*
X6916920Y-9763484D02*
X6897872Y-9763484D01*
X6897872Y-9763484D02*
X6878824Y-9753960D01*
X6878824Y-9753960D02*
X6869301Y-9744436D01*
X6869301Y-9744436D02*
X6859777Y-9725389D01*
X6859777Y-9725389D02*
X6850253Y-9687293D01*
X6850253Y-9687293D02*
X6850253Y-9639674D01*
X6850253Y-9639674D02*
X6859777Y-9601579D01*
X6859777Y-9601579D02*
X6869301Y-9582531D01*
X6869301Y-9582531D02*
X6878824Y-9573008D01*
X6878824Y-9573008D02*
X6897872Y-9563484D01*
X7050253Y-9744436D02*
X7059777Y-9753960D01*
X7059777Y-9753960D02*
X7050253Y-9763484D01*
X7050253Y-9763484D02*
X7040729Y-9753960D01*
X7040729Y-9753960D02*
X7050253Y-9744436D01*
X7050253Y-9744436D02*
X7050253Y-9763484D01*
X7231205Y-9630150D02*
X7231205Y-9763484D01*
X7183586Y-9553960D02*
X7135967Y-9696817D01*
X7135967Y-9696817D02*
X7259777Y-9696817D01*
X7374062Y-9563484D02*
X7393110Y-9563484D01*
X7393110Y-9563484D02*
X7412158Y-9573008D01*
X7412158Y-9573008D02*
X7421682Y-9582531D01*
X7421682Y-9582531D02*
X7431205Y-9601579D01*
X7431205Y-9601579D02*
X7440729Y-9639674D01*
X7440729Y-9639674D02*
X7440729Y-9687293D01*
X7440729Y-9687293D02*
X7431205Y-9725389D01*
X7431205Y-9725389D02*
X7421682Y-9744436D01*
X7421682Y-9744436D02*
X7412158Y-9753960D01*
X7412158Y-9753960D02*
X7393110Y-9763484D01*
X7393110Y-9763484D02*
X7374062Y-9763484D01*
X7374062Y-9763484D02*
X7355015Y-9753960D01*
X7355015Y-9753960D02*
X7345491Y-9744436D01*
X7345491Y-9744436D02*
X7335967Y-9725389D01*
X7335967Y-9725389D02*
X7326443Y-9687293D01*
X7326443Y-9687293D02*
X7326443Y-9639674D01*
X7326443Y-9639674D02*
X7335967Y-9601579D01*
X7335967Y-9601579D02*
X7345491Y-9582531D01*
X7345491Y-9582531D02*
X7355015Y-9573008D01*
X7355015Y-9573008D02*
X7374062Y-9563484D01*
X7564539Y-9563484D02*
X7583586Y-9563484D01*
X7583586Y-9563484D02*
X7602634Y-9573008D01*
X7602634Y-9573008D02*
X7612158Y-9582531D01*
X7612158Y-9582531D02*
X7621682Y-9601579D01*
X7621682Y-9601579D02*
X7631205Y-9639674D01*
X7631205Y-9639674D02*
X7631205Y-9687293D01*
X7631205Y-9687293D02*
X7621682Y-9725389D01*
X7621682Y-9725389D02*
X7612158Y-9744436D01*
X7612158Y-9744436D02*
X7602634Y-9753960D01*
X7602634Y-9753960D02*
X7583586Y-9763484D01*
X7583586Y-9763484D02*
X7564539Y-9763484D01*
X7564539Y-9763484D02*
X7545491Y-9753960D01*
X7545491Y-9753960D02*
X7535967Y-9744436D01*
X7535967Y-9744436D02*
X7526443Y-9725389D01*
X7526443Y-9725389D02*
X7516920Y-9687293D01*
X7516920Y-9687293D02*
X7516920Y-9639674D01*
X7516920Y-9639674D02*
X7526443Y-9601579D01*
X7526443Y-9601579D02*
X7535967Y-9582531D01*
X7535967Y-9582531D02*
X7545491Y-9573008D01*
X7545491Y-9573008D02*
X7564539Y-9563484D01*
X7716920Y-9763484D02*
X7716920Y-9630150D01*
X7716920Y-9649198D02*
X7726443Y-9639674D01*
X7726443Y-9639674D02*
X7745491Y-9630150D01*
X7745491Y-9630150D02*
X7774063Y-9630150D01*
X7774063Y-9630150D02*
X7793110Y-9639674D01*
X7793110Y-9639674D02*
X7802634Y-9658722D01*
X7802634Y-9658722D02*
X7802634Y-9763484D01*
X7802634Y-9658722D02*
X7812158Y-9639674D01*
X7812158Y-9639674D02*
X7831205Y-9630150D01*
X7831205Y-9630150D02*
X7859777Y-9630150D01*
X7859777Y-9630150D02*
X7878824Y-9639674D01*
X7878824Y-9639674D02*
X7888348Y-9658722D01*
X7888348Y-9658722D02*
X7888348Y-9763484D01*
X7983586Y-9763484D02*
X7983586Y-9630150D01*
X7983586Y-9649198D02*
X7993110Y-9639674D01*
X7993110Y-9639674D02*
X8012158Y-9630150D01*
X8012158Y-9630150D02*
X8040729Y-9630150D01*
X8040729Y-9630150D02*
X8059777Y-9639674D01*
X8059777Y-9639674D02*
X8069301Y-9658722D01*
X8069301Y-9658722D02*
X8069301Y-9763484D01*
X8069301Y-9658722D02*
X8078824Y-9639674D01*
X8078824Y-9639674D02*
X8097872Y-9630150D01*
X8097872Y-9630150D02*
X8126443Y-9630150D01*
X8126443Y-9630150D02*
X8145491Y-9639674D01*
X8145491Y-9639674D02*
X8155015Y-9658722D01*
X8155015Y-9658722D02*
X8155015Y-9763484D01*
X8545491Y-9553960D02*
X8374063Y-9811103D01*
X8802634Y-9563484D02*
X8821682Y-9563484D01*
X8821682Y-9563484D02*
X8840729Y-9573008D01*
X8840729Y-9573008D02*
X8850253Y-9582531D01*
X8850253Y-9582531D02*
X8859777Y-9601579D01*
X8859777Y-9601579D02*
X8869301Y-9639674D01*
X8869301Y-9639674D02*
X8869301Y-9687293D01*
X8869301Y-9687293D02*
X8859777Y-9725389D01*
X8859777Y-9725389D02*
X8850253Y-9744436D01*
X8850253Y-9744436D02*
X8840729Y-9753960D01*
X8840729Y-9753960D02*
X8821682Y-9763484D01*
X8821682Y-9763484D02*
X8802634Y-9763484D01*
X8802634Y-9763484D02*
X8783587Y-9753960D01*
X8783587Y-9753960D02*
X8774063Y-9744436D01*
X8774063Y-9744436D02*
X8764539Y-9725389D01*
X8764539Y-9725389D02*
X8755015Y-9687293D01*
X8755015Y-9687293D02*
X8755015Y-9639674D01*
X8755015Y-9639674D02*
X8764539Y-9601579D01*
X8764539Y-9601579D02*
X8774063Y-9582531D01*
X8774063Y-9582531D02*
X8783587Y-9573008D01*
X8783587Y-9573008D02*
X8802634Y-9563484D01*
X8955015Y-9744436D02*
X8964539Y-9753960D01*
X8964539Y-9753960D02*
X8955015Y-9763484D01*
X8955015Y-9763484D02*
X8945491Y-9753960D01*
X8945491Y-9753960D02*
X8955015Y-9744436D01*
X8955015Y-9744436D02*
X8955015Y-9763484D01*
X9088348Y-9563484D02*
X9107396Y-9563484D01*
X9107396Y-9563484D02*
X9126444Y-9573008D01*
X9126444Y-9573008D02*
X9135968Y-9582531D01*
X9135968Y-9582531D02*
X9145491Y-9601579D01*
X9145491Y-9601579D02*
X9155015Y-9639674D01*
X9155015Y-9639674D02*
X9155015Y-9687293D01*
X9155015Y-9687293D02*
X9145491Y-9725389D01*
X9145491Y-9725389D02*
X9135968Y-9744436D01*
X9135968Y-9744436D02*
X9126444Y-9753960D01*
X9126444Y-9753960D02*
X9107396Y-9763484D01*
X9107396Y-9763484D02*
X9088348Y-9763484D01*
X9088348Y-9763484D02*
X9069301Y-9753960D01*
X9069301Y-9753960D02*
X9059777Y-9744436D01*
X9059777Y-9744436D02*
X9050253Y-9725389D01*
X9050253Y-9725389D02*
X9040729Y-9687293D01*
X9040729Y-9687293D02*
X9040729Y-9639674D01*
X9040729Y-9639674D02*
X9050253Y-9601579D01*
X9050253Y-9601579D02*
X9059777Y-9582531D01*
X9059777Y-9582531D02*
X9069301Y-9573008D01*
X9069301Y-9573008D02*
X9088348Y-9563484D01*
X9345491Y-9763484D02*
X9231206Y-9763484D01*
X9288348Y-9763484D02*
X9288348Y-9563484D01*
X9288348Y-9563484D02*
X9269301Y-9592055D01*
X9269301Y-9592055D02*
X9250253Y-9611103D01*
X9250253Y-9611103D02*
X9231206Y-9620627D01*
X9526444Y-9563484D02*
X9431206Y-9563484D01*
X9431206Y-9563484D02*
X9421682Y-9658722D01*
X9421682Y-9658722D02*
X9431206Y-9649198D01*
X9431206Y-9649198D02*
X9450253Y-9639674D01*
X9450253Y-9639674D02*
X9497872Y-9639674D01*
X9497872Y-9639674D02*
X9516920Y-9649198D01*
X9516920Y-9649198D02*
X9526444Y-9658722D01*
X9526444Y-9658722D02*
X9535968Y-9677770D01*
X9535968Y-9677770D02*
X9535968Y-9725389D01*
X9535968Y-9725389D02*
X9526444Y-9744436D01*
X9526444Y-9744436D02*
X9516920Y-9753960D01*
X9516920Y-9753960D02*
X9497872Y-9763484D01*
X9497872Y-9763484D02*
X9450253Y-9763484D01*
X9450253Y-9763484D02*
X9431206Y-9753960D01*
X9431206Y-9753960D02*
X9421682Y-9744436D01*
X9602634Y-9563484D02*
X9735968Y-9563484D01*
X9735968Y-9563484D02*
X9650253Y-9763484D01*
X9802634Y-9563484D02*
X9802634Y-9601579D01*
X9878825Y-9563484D02*
X9878825Y-9601579D01*
X10174063Y-9839674D02*
X10164539Y-9830150D01*
X10164539Y-9830150D02*
X10145491Y-9801579D01*
X10145491Y-9801579D02*
X10135968Y-9782531D01*
X10135968Y-9782531D02*
X10126444Y-9753960D01*
X10126444Y-9753960D02*
X10116920Y-9706341D01*
X10116920Y-9706341D02*
X10116920Y-9668246D01*
X10116920Y-9668246D02*
X10126444Y-9620627D01*
X10126444Y-9620627D02*
X10135968Y-9592055D01*
X10135968Y-9592055D02*
X10145491Y-9573008D01*
X10145491Y-9573008D02*
X10164539Y-9544436D01*
X10164539Y-9544436D02*
X10174063Y-9534912D01*
X10278825Y-9649198D02*
X10259777Y-9639674D01*
X10259777Y-9639674D02*
X10250253Y-9630150D01*
X10250253Y-9630150D02*
X10240730Y-9611103D01*
X10240730Y-9611103D02*
X10240730Y-9601579D01*
X10240730Y-9601579D02*
X10250253Y-9582531D01*
X10250253Y-9582531D02*
X10259777Y-9573008D01*
X10259777Y-9573008D02*
X10278825Y-9563484D01*
X10278825Y-9563484D02*
X10316920Y-9563484D01*
X10316920Y-9563484D02*
X10335968Y-9573008D01*
X10335968Y-9573008D02*
X10345491Y-9582531D01*
X10345491Y-9582531D02*
X10355015Y-9601579D01*
X10355015Y-9601579D02*
X10355015Y-9611103D01*
X10355015Y-9611103D02*
X10345491Y-9630150D01*
X10345491Y-9630150D02*
X10335968Y-9639674D01*
X10335968Y-9639674D02*
X10316920Y-9649198D01*
X10316920Y-9649198D02*
X10278825Y-9649198D01*
X10278825Y-9649198D02*
X10259777Y-9658722D01*
X10259777Y-9658722D02*
X10250253Y-9668246D01*
X10250253Y-9668246D02*
X10240730Y-9687293D01*
X10240730Y-9687293D02*
X10240730Y-9725389D01*
X10240730Y-9725389D02*
X10250253Y-9744436D01*
X10250253Y-9744436D02*
X10259777Y-9753960D01*
X10259777Y-9753960D02*
X10278825Y-9763484D01*
X10278825Y-9763484D02*
X10316920Y-9763484D01*
X10316920Y-9763484D02*
X10335968Y-9753960D01*
X10335968Y-9753960D02*
X10345491Y-9744436D01*
X10345491Y-9744436D02*
X10355015Y-9725389D01*
X10355015Y-9725389D02*
X10355015Y-9687293D01*
X10355015Y-9687293D02*
X10345491Y-9668246D01*
X10345491Y-9668246D02*
X10335968Y-9658722D01*
X10335968Y-9658722D02*
X10316920Y-9649198D01*
X10478825Y-9563484D02*
X10497872Y-9563484D01*
X10497872Y-9563484D02*
X10516920Y-9573008D01*
X10516920Y-9573008D02*
X10526444Y-9582531D01*
X10526444Y-9582531D02*
X10535968Y-9601579D01*
X10535968Y-9601579D02*
X10545491Y-9639674D01*
X10545491Y-9639674D02*
X10545491Y-9687293D01*
X10545491Y-9687293D02*
X10535968Y-9725389D01*
X10535968Y-9725389D02*
X10526444Y-9744436D01*
X10526444Y-9744436D02*
X10516920Y-9753960D01*
X10516920Y-9753960D02*
X10497872Y-9763484D01*
X10497872Y-9763484D02*
X10478825Y-9763484D01*
X10478825Y-9763484D02*
X10459777Y-9753960D01*
X10459777Y-9753960D02*
X10450253Y-9744436D01*
X10450253Y-9744436D02*
X10440730Y-9725389D01*
X10440730Y-9725389D02*
X10431206Y-9687293D01*
X10431206Y-9687293D02*
X10431206Y-9639674D01*
X10431206Y-9639674D02*
X10440730Y-9601579D01*
X10440730Y-9601579D02*
X10450253Y-9582531D01*
X10450253Y-9582531D02*
X10459777Y-9573008D01*
X10459777Y-9573008D02*
X10478825Y-9563484D01*
X10783587Y-9763484D02*
X10783587Y-9563484D01*
X10869301Y-9763484D02*
X10869301Y-9658722D01*
X10869301Y-9658722D02*
X10859777Y-9639674D01*
X10859777Y-9639674D02*
X10840730Y-9630150D01*
X10840730Y-9630150D02*
X10812158Y-9630150D01*
X10812158Y-9630150D02*
X10793111Y-9639674D01*
X10793111Y-9639674D02*
X10783587Y-9649198D01*
X10993111Y-9763484D02*
X10974063Y-9753960D01*
X10974063Y-9753960D02*
X10964539Y-9744436D01*
X10964539Y-9744436D02*
X10955015Y-9725389D01*
X10955015Y-9725389D02*
X10955015Y-9668246D01*
X10955015Y-9668246D02*
X10964539Y-9649198D01*
X10964539Y-9649198D02*
X10974063Y-9639674D01*
X10974063Y-9639674D02*
X10993111Y-9630150D01*
X10993111Y-9630150D02*
X11021682Y-9630150D01*
X11021682Y-9630150D02*
X11040730Y-9639674D01*
X11040730Y-9639674D02*
X11050253Y-9649198D01*
X11050253Y-9649198D02*
X11059777Y-9668246D01*
X11059777Y-9668246D02*
X11059777Y-9725389D01*
X11059777Y-9725389D02*
X11050253Y-9744436D01*
X11050253Y-9744436D02*
X11040730Y-9753960D01*
X11040730Y-9753960D02*
X11021682Y-9763484D01*
X11021682Y-9763484D02*
X10993111Y-9763484D01*
X11174063Y-9763484D02*
X11155015Y-9753960D01*
X11155015Y-9753960D02*
X11145492Y-9734912D01*
X11145492Y-9734912D02*
X11145492Y-9563484D01*
X11326444Y-9753960D02*
X11307396Y-9763484D01*
X11307396Y-9763484D02*
X11269301Y-9763484D01*
X11269301Y-9763484D02*
X11250253Y-9753960D01*
X11250253Y-9753960D02*
X11240730Y-9734912D01*
X11240730Y-9734912D02*
X11240730Y-9658722D01*
X11240730Y-9658722D02*
X11250253Y-9639674D01*
X11250253Y-9639674D02*
X11269301Y-9630150D01*
X11269301Y-9630150D02*
X11307396Y-9630150D01*
X11307396Y-9630150D02*
X11326444Y-9639674D01*
X11326444Y-9639674D02*
X11335968Y-9658722D01*
X11335968Y-9658722D02*
X11335968Y-9677770D01*
X11335968Y-9677770D02*
X11240730Y-9696817D01*
X11412158Y-9753960D02*
X11431206Y-9763484D01*
X11431206Y-9763484D02*
X11469301Y-9763484D01*
X11469301Y-9763484D02*
X11488349Y-9753960D01*
X11488349Y-9753960D02*
X11497872Y-9734912D01*
X11497872Y-9734912D02*
X11497872Y-9725389D01*
X11497872Y-9725389D02*
X11488349Y-9706341D01*
X11488349Y-9706341D02*
X11469301Y-9696817D01*
X11469301Y-9696817D02*
X11440730Y-9696817D01*
X11440730Y-9696817D02*
X11421682Y-9687293D01*
X11421682Y-9687293D02*
X11412158Y-9668246D01*
X11412158Y-9668246D02*
X11412158Y-9658722D01*
X11412158Y-9658722D02*
X11421682Y-9639674D01*
X11421682Y-9639674D02*
X11440730Y-9630150D01*
X11440730Y-9630150D02*
X11469301Y-9630150D01*
X11469301Y-9630150D02*
X11488349Y-9639674D01*
X11564539Y-9839674D02*
X11574063Y-9830150D01*
X11574063Y-9830150D02*
X11593111Y-9801579D01*
X11593111Y-9801579D02*
X11602634Y-9782531D01*
X11602634Y-9782531D02*
X11612158Y-9753960D01*
X11612158Y-9753960D02*
X11621682Y-9706341D01*
X11621682Y-9706341D02*
X11621682Y-9668246D01*
X11621682Y-9668246D02*
X11612158Y-9620627D01*
X11612158Y-9620627D02*
X11602634Y-9592055D01*
X11602634Y-9592055D02*
X11593111Y-9573008D01*
X11593111Y-9573008D02*
X11574063Y-9544436D01*
X11574063Y-9544436D02*
X11564539Y-9534912D01*
D10*
X6574000Y-9911000D02*
X6574000Y-9961000D01*
X6549000Y-9936000D02*
X6599000Y-9936000D01*
D11*
X6897872Y-9827484D02*
X6916920Y-9827484D01*
X6916920Y-9827484D02*
X6935967Y-9837008D01*
X6935967Y-9837008D02*
X6945491Y-9846531D01*
X6945491Y-9846531D02*
X6955015Y-9865579D01*
X6955015Y-9865579D02*
X6964539Y-9903674D01*
X6964539Y-9903674D02*
X6964539Y-9951293D01*
X6964539Y-9951293D02*
X6955015Y-9989389D01*
X6955015Y-9989389D02*
X6945491Y-10008436D01*
X6945491Y-10008436D02*
X6935967Y-10017960D01*
X6935967Y-10017960D02*
X6916920Y-10027484D01*
X6916920Y-10027484D02*
X6897872Y-10027484D01*
X6897872Y-10027484D02*
X6878824Y-10017960D01*
X6878824Y-10017960D02*
X6869301Y-10008436D01*
X6869301Y-10008436D02*
X6859777Y-9989389D01*
X6859777Y-9989389D02*
X6850253Y-9951293D01*
X6850253Y-9951293D02*
X6850253Y-9903674D01*
X6850253Y-9903674D02*
X6859777Y-9865579D01*
X6859777Y-9865579D02*
X6869301Y-9846531D01*
X6869301Y-9846531D02*
X6878824Y-9837008D01*
X6878824Y-9837008D02*
X6897872Y-9827484D01*
X7050253Y-10008436D02*
X7059777Y-10017960D01*
X7059777Y-10017960D02*
X7050253Y-10027484D01*
X7050253Y-10027484D02*
X7040729Y-10017960D01*
X7040729Y-10017960D02*
X7050253Y-10008436D01*
X7050253Y-10008436D02*
X7050253Y-10027484D01*
X7240729Y-9827484D02*
X7145491Y-9827484D01*
X7145491Y-9827484D02*
X7135967Y-9922722D01*
X7135967Y-9922722D02*
X7145491Y-9913198D01*
X7145491Y-9913198D02*
X7164539Y-9903674D01*
X7164539Y-9903674D02*
X7212158Y-9903674D01*
X7212158Y-9903674D02*
X7231205Y-9913198D01*
X7231205Y-9913198D02*
X7240729Y-9922722D01*
X7240729Y-9922722D02*
X7250253Y-9941770D01*
X7250253Y-9941770D02*
X7250253Y-9989389D01*
X7250253Y-9989389D02*
X7240729Y-10008436D01*
X7240729Y-10008436D02*
X7231205Y-10017960D01*
X7231205Y-10017960D02*
X7212158Y-10027484D01*
X7212158Y-10027484D02*
X7164539Y-10027484D01*
X7164539Y-10027484D02*
X7145491Y-10017960D01*
X7145491Y-10017960D02*
X7135967Y-10008436D01*
X7374062Y-9827484D02*
X7393110Y-9827484D01*
X7393110Y-9827484D02*
X7412158Y-9837008D01*
X7412158Y-9837008D02*
X7421682Y-9846531D01*
X7421682Y-9846531D02*
X7431205Y-9865579D01*
X7431205Y-9865579D02*
X7440729Y-9903674D01*
X7440729Y-9903674D02*
X7440729Y-9951293D01*
X7440729Y-9951293D02*
X7431205Y-9989389D01*
X7431205Y-9989389D02*
X7421682Y-10008436D01*
X7421682Y-10008436D02*
X7412158Y-10017960D01*
X7412158Y-10017960D02*
X7393110Y-10027484D01*
X7393110Y-10027484D02*
X7374062Y-10027484D01*
X7374062Y-10027484D02*
X7355015Y-10017960D01*
X7355015Y-10017960D02*
X7345491Y-10008436D01*
X7345491Y-10008436D02*
X7335967Y-9989389D01*
X7335967Y-9989389D02*
X7326443Y-9951293D01*
X7326443Y-9951293D02*
X7326443Y-9903674D01*
X7326443Y-9903674D02*
X7335967Y-9865579D01*
X7335967Y-9865579D02*
X7345491Y-9846531D01*
X7345491Y-9846531D02*
X7355015Y-9837008D01*
X7355015Y-9837008D02*
X7374062Y-9827484D01*
X7564539Y-9827484D02*
X7583586Y-9827484D01*
X7583586Y-9827484D02*
X7602634Y-9837008D01*
X7602634Y-9837008D02*
X7612158Y-9846531D01*
X7612158Y-9846531D02*
X7621682Y-9865579D01*
X7621682Y-9865579D02*
X7631205Y-9903674D01*
X7631205Y-9903674D02*
X7631205Y-9951293D01*
X7631205Y-9951293D02*
X7621682Y-9989389D01*
X7621682Y-9989389D02*
X7612158Y-10008436D01*
X7612158Y-10008436D02*
X7602634Y-10017960D01*
X7602634Y-10017960D02*
X7583586Y-10027484D01*
X7583586Y-10027484D02*
X7564539Y-10027484D01*
X7564539Y-10027484D02*
X7545491Y-10017960D01*
X7545491Y-10017960D02*
X7535967Y-10008436D01*
X7535967Y-10008436D02*
X7526443Y-9989389D01*
X7526443Y-9989389D02*
X7516920Y-9951293D01*
X7516920Y-9951293D02*
X7516920Y-9903674D01*
X7516920Y-9903674D02*
X7526443Y-9865579D01*
X7526443Y-9865579D02*
X7535967Y-9846531D01*
X7535967Y-9846531D02*
X7545491Y-9837008D01*
X7545491Y-9837008D02*
X7564539Y-9827484D01*
X7716920Y-10027484D02*
X7716920Y-9894150D01*
X7716920Y-9913198D02*
X7726443Y-9903674D01*
X7726443Y-9903674D02*
X7745491Y-9894150D01*
X7745491Y-9894150D02*
X7774063Y-9894150D01*
X7774063Y-9894150D02*
X7793110Y-9903674D01*
X7793110Y-9903674D02*
X7802634Y-9922722D01*
X7802634Y-9922722D02*
X7802634Y-10027484D01*
X7802634Y-9922722D02*
X7812158Y-9903674D01*
X7812158Y-9903674D02*
X7831205Y-9894150D01*
X7831205Y-9894150D02*
X7859777Y-9894150D01*
X7859777Y-9894150D02*
X7878824Y-9903674D01*
X7878824Y-9903674D02*
X7888348Y-9922722D01*
X7888348Y-9922722D02*
X7888348Y-10027484D01*
X7983586Y-10027484D02*
X7983586Y-9894150D01*
X7983586Y-9913198D02*
X7993110Y-9903674D01*
X7993110Y-9903674D02*
X8012158Y-9894150D01*
X8012158Y-9894150D02*
X8040729Y-9894150D01*
X8040729Y-9894150D02*
X8059777Y-9903674D01*
X8059777Y-9903674D02*
X8069301Y-9922722D01*
X8069301Y-9922722D02*
X8069301Y-10027484D01*
X8069301Y-9922722D02*
X8078824Y-9903674D01*
X8078824Y-9903674D02*
X8097872Y-9894150D01*
X8097872Y-9894150D02*
X8126443Y-9894150D01*
X8126443Y-9894150D02*
X8145491Y-9903674D01*
X8145491Y-9903674D02*
X8155015Y-9922722D01*
X8155015Y-9922722D02*
X8155015Y-10027484D01*
X8545491Y-9817960D02*
X8374063Y-10075103D01*
X8802634Y-9827484D02*
X8821682Y-9827484D01*
X8821682Y-9827484D02*
X8840729Y-9837008D01*
X8840729Y-9837008D02*
X8850253Y-9846531D01*
X8850253Y-9846531D02*
X8859777Y-9865579D01*
X8859777Y-9865579D02*
X8869301Y-9903674D01*
X8869301Y-9903674D02*
X8869301Y-9951293D01*
X8869301Y-9951293D02*
X8859777Y-9989389D01*
X8859777Y-9989389D02*
X8850253Y-10008436D01*
X8850253Y-10008436D02*
X8840729Y-10017960D01*
X8840729Y-10017960D02*
X8821682Y-10027484D01*
X8821682Y-10027484D02*
X8802634Y-10027484D01*
X8802634Y-10027484D02*
X8783587Y-10017960D01*
X8783587Y-10017960D02*
X8774063Y-10008436D01*
X8774063Y-10008436D02*
X8764539Y-9989389D01*
X8764539Y-9989389D02*
X8755015Y-9951293D01*
X8755015Y-9951293D02*
X8755015Y-9903674D01*
X8755015Y-9903674D02*
X8764539Y-9865579D01*
X8764539Y-9865579D02*
X8774063Y-9846531D01*
X8774063Y-9846531D02*
X8783587Y-9837008D01*
X8783587Y-9837008D02*
X8802634Y-9827484D01*
X8955015Y-10008436D02*
X8964539Y-10017960D01*
X8964539Y-10017960D02*
X8955015Y-10027484D01*
X8955015Y-10027484D02*
X8945491Y-10017960D01*
X8945491Y-10017960D02*
X8955015Y-10008436D01*
X8955015Y-10008436D02*
X8955015Y-10027484D01*
X9088348Y-9827484D02*
X9107396Y-9827484D01*
X9107396Y-9827484D02*
X9126444Y-9837008D01*
X9126444Y-9837008D02*
X9135968Y-9846531D01*
X9135968Y-9846531D02*
X9145491Y-9865579D01*
X9145491Y-9865579D02*
X9155015Y-9903674D01*
X9155015Y-9903674D02*
X9155015Y-9951293D01*
X9155015Y-9951293D02*
X9145491Y-9989389D01*
X9145491Y-9989389D02*
X9135968Y-10008436D01*
X9135968Y-10008436D02*
X9126444Y-10017960D01*
X9126444Y-10017960D02*
X9107396Y-10027484D01*
X9107396Y-10027484D02*
X9088348Y-10027484D01*
X9088348Y-10027484D02*
X9069301Y-10017960D01*
X9069301Y-10017960D02*
X9059777Y-10008436D01*
X9059777Y-10008436D02*
X9050253Y-9989389D01*
X9050253Y-9989389D02*
X9040729Y-9951293D01*
X9040729Y-9951293D02*
X9040729Y-9903674D01*
X9040729Y-9903674D02*
X9050253Y-9865579D01*
X9050253Y-9865579D02*
X9059777Y-9846531D01*
X9059777Y-9846531D02*
X9069301Y-9837008D01*
X9069301Y-9837008D02*
X9088348Y-9827484D01*
X9345491Y-10027484D02*
X9231206Y-10027484D01*
X9288348Y-10027484D02*
X9288348Y-9827484D01*
X9288348Y-9827484D02*
X9269301Y-9856055D01*
X9269301Y-9856055D02*
X9250253Y-9875103D01*
X9250253Y-9875103D02*
X9231206Y-9884627D01*
X9440729Y-10027484D02*
X9478825Y-10027484D01*
X9478825Y-10027484D02*
X9497872Y-10017960D01*
X9497872Y-10017960D02*
X9507396Y-10008436D01*
X9507396Y-10008436D02*
X9526444Y-9979865D01*
X9526444Y-9979865D02*
X9535968Y-9941770D01*
X9535968Y-9941770D02*
X9535968Y-9865579D01*
X9535968Y-9865579D02*
X9526444Y-9846531D01*
X9526444Y-9846531D02*
X9516920Y-9837008D01*
X9516920Y-9837008D02*
X9497872Y-9827484D01*
X9497872Y-9827484D02*
X9459777Y-9827484D01*
X9459777Y-9827484D02*
X9440729Y-9837008D01*
X9440729Y-9837008D02*
X9431206Y-9846531D01*
X9431206Y-9846531D02*
X9421682Y-9865579D01*
X9421682Y-9865579D02*
X9421682Y-9913198D01*
X9421682Y-9913198D02*
X9431206Y-9932246D01*
X9431206Y-9932246D02*
X9440729Y-9941770D01*
X9440729Y-9941770D02*
X9459777Y-9951293D01*
X9459777Y-9951293D02*
X9497872Y-9951293D01*
X9497872Y-9951293D02*
X9516920Y-9941770D01*
X9516920Y-9941770D02*
X9526444Y-9932246D01*
X9526444Y-9932246D02*
X9535968Y-9913198D01*
X9602634Y-9827484D02*
X9735968Y-9827484D01*
X9735968Y-9827484D02*
X9650253Y-10027484D01*
X9802634Y-9827484D02*
X9802634Y-9865579D01*
X9878825Y-9827484D02*
X9878825Y-9865579D01*
X10174063Y-10103674D02*
X10164539Y-10094150D01*
X10164539Y-10094150D02*
X10145491Y-10065579D01*
X10145491Y-10065579D02*
X10135968Y-10046531D01*
X10135968Y-10046531D02*
X10126444Y-10017960D01*
X10126444Y-10017960D02*
X10116920Y-9970341D01*
X10116920Y-9970341D02*
X10116920Y-9932246D01*
X10116920Y-9932246D02*
X10126444Y-9884627D01*
X10126444Y-9884627D02*
X10135968Y-9856055D01*
X10135968Y-9856055D02*
X10145491Y-9837008D01*
X10145491Y-9837008D02*
X10164539Y-9808436D01*
X10164539Y-9808436D02*
X10174063Y-9798912D01*
X10355015Y-10027484D02*
X10240730Y-10027484D01*
X10297872Y-10027484D02*
X10297872Y-9827484D01*
X10297872Y-9827484D02*
X10278825Y-9856055D01*
X10278825Y-9856055D02*
X10259777Y-9875103D01*
X10259777Y-9875103D02*
X10240730Y-9884627D01*
X10545491Y-10027484D02*
X10431206Y-10027484D01*
X10488349Y-10027484D02*
X10488349Y-9827484D01*
X10488349Y-9827484D02*
X10469301Y-9856055D01*
X10469301Y-9856055D02*
X10450253Y-9875103D01*
X10450253Y-9875103D02*
X10431206Y-9884627D01*
X10783587Y-10027484D02*
X10783587Y-9827484D01*
X10869301Y-10027484D02*
X10869301Y-9922722D01*
X10869301Y-9922722D02*
X10859777Y-9903674D01*
X10859777Y-9903674D02*
X10840730Y-9894150D01*
X10840730Y-9894150D02*
X10812158Y-9894150D01*
X10812158Y-9894150D02*
X10793111Y-9903674D01*
X10793111Y-9903674D02*
X10783587Y-9913198D01*
X10993111Y-10027484D02*
X10974063Y-10017960D01*
X10974063Y-10017960D02*
X10964539Y-10008436D01*
X10964539Y-10008436D02*
X10955015Y-9989389D01*
X10955015Y-9989389D02*
X10955015Y-9932246D01*
X10955015Y-9932246D02*
X10964539Y-9913198D01*
X10964539Y-9913198D02*
X10974063Y-9903674D01*
X10974063Y-9903674D02*
X10993111Y-9894150D01*
X10993111Y-9894150D02*
X11021682Y-9894150D01*
X11021682Y-9894150D02*
X11040730Y-9903674D01*
X11040730Y-9903674D02*
X11050253Y-9913198D01*
X11050253Y-9913198D02*
X11059777Y-9932246D01*
X11059777Y-9932246D02*
X11059777Y-9989389D01*
X11059777Y-9989389D02*
X11050253Y-10008436D01*
X11050253Y-10008436D02*
X11040730Y-10017960D01*
X11040730Y-10017960D02*
X11021682Y-10027484D01*
X11021682Y-10027484D02*
X10993111Y-10027484D01*
X11174063Y-10027484D02*
X11155015Y-10017960D01*
X11155015Y-10017960D02*
X11145492Y-9998912D01*
X11145492Y-9998912D02*
X11145492Y-9827484D01*
X11326444Y-10017960D02*
X11307396Y-10027484D01*
X11307396Y-10027484D02*
X11269301Y-10027484D01*
X11269301Y-10027484D02*
X11250253Y-10017960D01*
X11250253Y-10017960D02*
X11240730Y-9998912D01*
X11240730Y-9998912D02*
X11240730Y-9922722D01*
X11240730Y-9922722D02*
X11250253Y-9903674D01*
X11250253Y-9903674D02*
X11269301Y-9894150D01*
X11269301Y-9894150D02*
X11307396Y-9894150D01*
X11307396Y-9894150D02*
X11326444Y-9903674D01*
X11326444Y-9903674D02*
X11335968Y-9922722D01*
X11335968Y-9922722D02*
X11335968Y-9941770D01*
X11335968Y-9941770D02*
X11240730Y-9960817D01*
X11412158Y-10017960D02*
X11431206Y-10027484D01*
X11431206Y-10027484D02*
X11469301Y-10027484D01*
X11469301Y-10027484D02*
X11488349Y-10017960D01*
X11488349Y-10017960D02*
X11497872Y-9998912D01*
X11497872Y-9998912D02*
X11497872Y-9989389D01*
X11497872Y-9989389D02*
X11488349Y-9970341D01*
X11488349Y-9970341D02*
X11469301Y-9960817D01*
X11469301Y-9960817D02*
X11440730Y-9960817D01*
X11440730Y-9960817D02*
X11421682Y-9951293D01*
X11421682Y-9951293D02*
X11412158Y-9932246D01*
X11412158Y-9932246D02*
X11412158Y-9922722D01*
X11412158Y-9922722D02*
X11421682Y-9903674D01*
X11421682Y-9903674D02*
X11440730Y-9894150D01*
X11440730Y-9894150D02*
X11469301Y-9894150D01*
X11469301Y-9894150D02*
X11488349Y-9903674D01*
X11564539Y-10103674D02*
X11574063Y-10094150D01*
X11574063Y-10094150D02*
X11593111Y-10065579D01*
X11593111Y-10065579D02*
X11602634Y-10046531D01*
X11602634Y-10046531D02*
X11612158Y-10017960D01*
X11612158Y-10017960D02*
X11621682Y-9970341D01*
X11621682Y-9970341D02*
X11621682Y-9932246D01*
X11621682Y-9932246D02*
X11612158Y-9884627D01*
X11612158Y-9884627D02*
X11602634Y-9856055D01*
X11602634Y-9856055D02*
X11593111Y-9837008D01*
X11593111Y-9837008D02*
X11574063Y-9808436D01*
X11574063Y-9808436D02*
X11564539Y-9798912D01*
D10*
X6590213Y-10221213D02*
X6590213Y-10178787D01*
X6547787Y-10178787D01*
X6547787Y-10221213D01*
X6590213Y-10221213D01*
D11*
X6897872Y-10091484D02*
X6916920Y-10091484D01*
X6916920Y-10091484D02*
X6935967Y-10101008D01*
X6935967Y-10101008D02*
X6945491Y-10110531D01*
X6945491Y-10110531D02*
X6955015Y-10129579D01*
X6955015Y-10129579D02*
X6964539Y-10167674D01*
X6964539Y-10167674D02*
X6964539Y-10215293D01*
X6964539Y-10215293D02*
X6955015Y-10253389D01*
X6955015Y-10253389D02*
X6945491Y-10272436D01*
X6945491Y-10272436D02*
X6935967Y-10281960D01*
X6935967Y-10281960D02*
X6916920Y-10291484D01*
X6916920Y-10291484D02*
X6897872Y-10291484D01*
X6897872Y-10291484D02*
X6878824Y-10281960D01*
X6878824Y-10281960D02*
X6869301Y-10272436D01*
X6869301Y-10272436D02*
X6859777Y-10253389D01*
X6859777Y-10253389D02*
X6850253Y-10215293D01*
X6850253Y-10215293D02*
X6850253Y-10167674D01*
X6850253Y-10167674D02*
X6859777Y-10129579D01*
X6859777Y-10129579D02*
X6869301Y-10110531D01*
X6869301Y-10110531D02*
X6878824Y-10101008D01*
X6878824Y-10101008D02*
X6897872Y-10091484D01*
X7050253Y-10272436D02*
X7059777Y-10281960D01*
X7059777Y-10281960D02*
X7050253Y-10291484D01*
X7050253Y-10291484D02*
X7040729Y-10281960D01*
X7040729Y-10281960D02*
X7050253Y-10272436D01*
X7050253Y-10272436D02*
X7050253Y-10291484D01*
X7231205Y-10091484D02*
X7193110Y-10091484D01*
X7193110Y-10091484D02*
X7174062Y-10101008D01*
X7174062Y-10101008D02*
X7164539Y-10110531D01*
X7164539Y-10110531D02*
X7145491Y-10139103D01*
X7145491Y-10139103D02*
X7135967Y-10177198D01*
X7135967Y-10177198D02*
X7135967Y-10253389D01*
X7135967Y-10253389D02*
X7145491Y-10272436D01*
X7145491Y-10272436D02*
X7155015Y-10281960D01*
X7155015Y-10281960D02*
X7174062Y-10291484D01*
X7174062Y-10291484D02*
X7212158Y-10291484D01*
X7212158Y-10291484D02*
X7231205Y-10281960D01*
X7231205Y-10281960D02*
X7240729Y-10272436D01*
X7240729Y-10272436D02*
X7250253Y-10253389D01*
X7250253Y-10253389D02*
X7250253Y-10205770D01*
X7250253Y-10205770D02*
X7240729Y-10186722D01*
X7240729Y-10186722D02*
X7231205Y-10177198D01*
X7231205Y-10177198D02*
X7212158Y-10167674D01*
X7212158Y-10167674D02*
X7174062Y-10167674D01*
X7174062Y-10167674D02*
X7155015Y-10177198D01*
X7155015Y-10177198D02*
X7145491Y-10186722D01*
X7145491Y-10186722D02*
X7135967Y-10205770D01*
X7374062Y-10091484D02*
X7393110Y-10091484D01*
X7393110Y-10091484D02*
X7412158Y-10101008D01*
X7412158Y-10101008D02*
X7421682Y-10110531D01*
X7421682Y-10110531D02*
X7431205Y-10129579D01*
X7431205Y-10129579D02*
X7440729Y-10167674D01*
X7440729Y-10167674D02*
X7440729Y-10215293D01*
X7440729Y-10215293D02*
X7431205Y-10253389D01*
X7431205Y-10253389D02*
X7421682Y-10272436D01*
X7421682Y-10272436D02*
X7412158Y-10281960D01*
X7412158Y-10281960D02*
X7393110Y-10291484D01*
X7393110Y-10291484D02*
X7374062Y-10291484D01*
X7374062Y-10291484D02*
X7355015Y-10281960D01*
X7355015Y-10281960D02*
X7345491Y-10272436D01*
X7345491Y-10272436D02*
X7335967Y-10253389D01*
X7335967Y-10253389D02*
X7326443Y-10215293D01*
X7326443Y-10215293D02*
X7326443Y-10167674D01*
X7326443Y-10167674D02*
X7335967Y-10129579D01*
X7335967Y-10129579D02*
X7345491Y-10110531D01*
X7345491Y-10110531D02*
X7355015Y-10101008D01*
X7355015Y-10101008D02*
X7374062Y-10091484D01*
X7564539Y-10091484D02*
X7583586Y-10091484D01*
X7583586Y-10091484D02*
X7602634Y-10101008D01*
X7602634Y-10101008D02*
X7612158Y-10110531D01*
X7612158Y-10110531D02*
X7621682Y-10129579D01*
X7621682Y-10129579D02*
X7631205Y-10167674D01*
X7631205Y-10167674D02*
X7631205Y-10215293D01*
X7631205Y-10215293D02*
X7621682Y-10253389D01*
X7621682Y-10253389D02*
X7612158Y-10272436D01*
X7612158Y-10272436D02*
X7602634Y-10281960D01*
X7602634Y-10281960D02*
X7583586Y-10291484D01*
X7583586Y-10291484D02*
X7564539Y-10291484D01*
X7564539Y-10291484D02*
X7545491Y-10281960D01*
X7545491Y-10281960D02*
X7535967Y-10272436D01*
X7535967Y-10272436D02*
X7526443Y-10253389D01*
X7526443Y-10253389D02*
X7516920Y-10215293D01*
X7516920Y-10215293D02*
X7516920Y-10167674D01*
X7516920Y-10167674D02*
X7526443Y-10129579D01*
X7526443Y-10129579D02*
X7535967Y-10110531D01*
X7535967Y-10110531D02*
X7545491Y-10101008D01*
X7545491Y-10101008D02*
X7564539Y-10091484D01*
X7716920Y-10291484D02*
X7716920Y-10158150D01*
X7716920Y-10177198D02*
X7726443Y-10167674D01*
X7726443Y-10167674D02*
X7745491Y-10158150D01*
X7745491Y-10158150D02*
X7774063Y-10158150D01*
X7774063Y-10158150D02*
X7793110Y-10167674D01*
X7793110Y-10167674D02*
X7802634Y-10186722D01*
X7802634Y-10186722D02*
X7802634Y-10291484D01*
X7802634Y-10186722D02*
X7812158Y-10167674D01*
X7812158Y-10167674D02*
X7831205Y-10158150D01*
X7831205Y-10158150D02*
X7859777Y-10158150D01*
X7859777Y-10158150D02*
X7878824Y-10167674D01*
X7878824Y-10167674D02*
X7888348Y-10186722D01*
X7888348Y-10186722D02*
X7888348Y-10291484D01*
X7983586Y-10291484D02*
X7983586Y-10158150D01*
X7983586Y-10177198D02*
X7993110Y-10167674D01*
X7993110Y-10167674D02*
X8012158Y-10158150D01*
X8012158Y-10158150D02*
X8040729Y-10158150D01*
X8040729Y-10158150D02*
X8059777Y-10167674D01*
X8059777Y-10167674D02*
X8069301Y-10186722D01*
X8069301Y-10186722D02*
X8069301Y-10291484D01*
X8069301Y-10186722D02*
X8078824Y-10167674D01*
X8078824Y-10167674D02*
X8097872Y-10158150D01*
X8097872Y-10158150D02*
X8126443Y-10158150D01*
X8126443Y-10158150D02*
X8145491Y-10167674D01*
X8145491Y-10167674D02*
X8155015Y-10186722D01*
X8155015Y-10186722D02*
X8155015Y-10291484D01*
X8545491Y-10081960D02*
X8374063Y-10339103D01*
X8802634Y-10091484D02*
X8821682Y-10091484D01*
X8821682Y-10091484D02*
X8840729Y-10101008D01*
X8840729Y-10101008D02*
X8850253Y-10110531D01*
X8850253Y-10110531D02*
X8859777Y-10129579D01*
X8859777Y-10129579D02*
X8869301Y-10167674D01*
X8869301Y-10167674D02*
X8869301Y-10215293D01*
X8869301Y-10215293D02*
X8859777Y-10253389D01*
X8859777Y-10253389D02*
X8850253Y-10272436D01*
X8850253Y-10272436D02*
X8840729Y-10281960D01*
X8840729Y-10281960D02*
X8821682Y-10291484D01*
X8821682Y-10291484D02*
X8802634Y-10291484D01*
X8802634Y-10291484D02*
X8783587Y-10281960D01*
X8783587Y-10281960D02*
X8774063Y-10272436D01*
X8774063Y-10272436D02*
X8764539Y-10253389D01*
X8764539Y-10253389D02*
X8755015Y-10215293D01*
X8755015Y-10215293D02*
X8755015Y-10167674D01*
X8755015Y-10167674D02*
X8764539Y-10129579D01*
X8764539Y-10129579D02*
X8774063Y-10110531D01*
X8774063Y-10110531D02*
X8783587Y-10101008D01*
X8783587Y-10101008D02*
X8802634Y-10091484D01*
X8955015Y-10272436D02*
X8964539Y-10281960D01*
X8964539Y-10281960D02*
X8955015Y-10291484D01*
X8955015Y-10291484D02*
X8945491Y-10281960D01*
X8945491Y-10281960D02*
X8955015Y-10272436D01*
X8955015Y-10272436D02*
X8955015Y-10291484D01*
X9088348Y-10091484D02*
X9107396Y-10091484D01*
X9107396Y-10091484D02*
X9126444Y-10101008D01*
X9126444Y-10101008D02*
X9135968Y-10110531D01*
X9135968Y-10110531D02*
X9145491Y-10129579D01*
X9145491Y-10129579D02*
X9155015Y-10167674D01*
X9155015Y-10167674D02*
X9155015Y-10215293D01*
X9155015Y-10215293D02*
X9145491Y-10253389D01*
X9145491Y-10253389D02*
X9135968Y-10272436D01*
X9135968Y-10272436D02*
X9126444Y-10281960D01*
X9126444Y-10281960D02*
X9107396Y-10291484D01*
X9107396Y-10291484D02*
X9088348Y-10291484D01*
X9088348Y-10291484D02*
X9069301Y-10281960D01*
X9069301Y-10281960D02*
X9059777Y-10272436D01*
X9059777Y-10272436D02*
X9050253Y-10253389D01*
X9050253Y-10253389D02*
X9040729Y-10215293D01*
X9040729Y-10215293D02*
X9040729Y-10167674D01*
X9040729Y-10167674D02*
X9050253Y-10129579D01*
X9050253Y-10129579D02*
X9059777Y-10110531D01*
X9059777Y-10110531D02*
X9069301Y-10101008D01*
X9069301Y-10101008D02*
X9088348Y-10091484D01*
X9231206Y-10110531D02*
X9240729Y-10101008D01*
X9240729Y-10101008D02*
X9259777Y-10091484D01*
X9259777Y-10091484D02*
X9307396Y-10091484D01*
X9307396Y-10091484D02*
X9326444Y-10101008D01*
X9326444Y-10101008D02*
X9335968Y-10110531D01*
X9335968Y-10110531D02*
X9345491Y-10129579D01*
X9345491Y-10129579D02*
X9345491Y-10148627D01*
X9345491Y-10148627D02*
X9335968Y-10177198D01*
X9335968Y-10177198D02*
X9221682Y-10291484D01*
X9221682Y-10291484D02*
X9345491Y-10291484D01*
X9412158Y-10091484D02*
X9535968Y-10091484D01*
X9535968Y-10091484D02*
X9469301Y-10167674D01*
X9469301Y-10167674D02*
X9497872Y-10167674D01*
X9497872Y-10167674D02*
X9516920Y-10177198D01*
X9516920Y-10177198D02*
X9526444Y-10186722D01*
X9526444Y-10186722D02*
X9535968Y-10205770D01*
X9535968Y-10205770D02*
X9535968Y-10253389D01*
X9535968Y-10253389D02*
X9526444Y-10272436D01*
X9526444Y-10272436D02*
X9516920Y-10281960D01*
X9516920Y-10281960D02*
X9497872Y-10291484D01*
X9497872Y-10291484D02*
X9440729Y-10291484D01*
X9440729Y-10291484D02*
X9421682Y-10281960D01*
X9421682Y-10281960D02*
X9412158Y-10272436D01*
X9707396Y-10091484D02*
X9669301Y-10091484D01*
X9669301Y-10091484D02*
X9650253Y-10101008D01*
X9650253Y-10101008D02*
X9640729Y-10110531D01*
X9640729Y-10110531D02*
X9621682Y-10139103D01*
X9621682Y-10139103D02*
X9612158Y-10177198D01*
X9612158Y-10177198D02*
X9612158Y-10253389D01*
X9612158Y-10253389D02*
X9621682Y-10272436D01*
X9621682Y-10272436D02*
X9631206Y-10281960D01*
X9631206Y-10281960D02*
X9650253Y-10291484D01*
X9650253Y-10291484D02*
X9688349Y-10291484D01*
X9688349Y-10291484D02*
X9707396Y-10281960D01*
X9707396Y-10281960D02*
X9716920Y-10272436D01*
X9716920Y-10272436D02*
X9726444Y-10253389D01*
X9726444Y-10253389D02*
X9726444Y-10205770D01*
X9726444Y-10205770D02*
X9716920Y-10186722D01*
X9716920Y-10186722D02*
X9707396Y-10177198D01*
X9707396Y-10177198D02*
X9688349Y-10167674D01*
X9688349Y-10167674D02*
X9650253Y-10167674D01*
X9650253Y-10167674D02*
X9631206Y-10177198D01*
X9631206Y-10177198D02*
X9621682Y-10186722D01*
X9621682Y-10186722D02*
X9612158Y-10205770D01*
X9802634Y-10091484D02*
X9802634Y-10129579D01*
X9878825Y-10091484D02*
X9878825Y-10129579D01*
X10174063Y-10367674D02*
X10164539Y-10358150D01*
X10164539Y-10358150D02*
X10145491Y-10329579D01*
X10145491Y-10329579D02*
X10135968Y-10310531D01*
X10135968Y-10310531D02*
X10126444Y-10281960D01*
X10126444Y-10281960D02*
X10116920Y-10234341D01*
X10116920Y-10234341D02*
X10116920Y-10196246D01*
X10116920Y-10196246D02*
X10126444Y-10148627D01*
X10126444Y-10148627D02*
X10135968Y-10120055D01*
X10135968Y-10120055D02*
X10145491Y-10101008D01*
X10145491Y-10101008D02*
X10164539Y-10072436D01*
X10164539Y-10072436D02*
X10174063Y-10062912D01*
X10288349Y-10091484D02*
X10307396Y-10091484D01*
X10307396Y-10091484D02*
X10326444Y-10101008D01*
X10326444Y-10101008D02*
X10335968Y-10110531D01*
X10335968Y-10110531D02*
X10345491Y-10129579D01*
X10345491Y-10129579D02*
X10355015Y-10167674D01*
X10355015Y-10167674D02*
X10355015Y-10215293D01*
X10355015Y-10215293D02*
X10345491Y-10253389D01*
X10345491Y-10253389D02*
X10335968Y-10272436D01*
X10335968Y-10272436D02*
X10326444Y-10281960D01*
X10326444Y-10281960D02*
X10307396Y-10291484D01*
X10307396Y-10291484D02*
X10288349Y-10291484D01*
X10288349Y-10291484D02*
X10269301Y-10281960D01*
X10269301Y-10281960D02*
X10259777Y-10272436D01*
X10259777Y-10272436D02*
X10250253Y-10253389D01*
X10250253Y-10253389D02*
X10240730Y-10215293D01*
X10240730Y-10215293D02*
X10240730Y-10167674D01*
X10240730Y-10167674D02*
X10250253Y-10129579D01*
X10250253Y-10129579D02*
X10259777Y-10110531D01*
X10259777Y-10110531D02*
X10269301Y-10101008D01*
X10269301Y-10101008D02*
X10288349Y-10091484D01*
X10593111Y-10291484D02*
X10593111Y-10091484D01*
X10678825Y-10291484D02*
X10678825Y-10186722D01*
X10678825Y-10186722D02*
X10669301Y-10167674D01*
X10669301Y-10167674D02*
X10650253Y-10158150D01*
X10650253Y-10158150D02*
X10621682Y-10158150D01*
X10621682Y-10158150D02*
X10602634Y-10167674D01*
X10602634Y-10167674D02*
X10593111Y-10177198D01*
X10802634Y-10291484D02*
X10783587Y-10281960D01*
X10783587Y-10281960D02*
X10774063Y-10272436D01*
X10774063Y-10272436D02*
X10764539Y-10253389D01*
X10764539Y-10253389D02*
X10764539Y-10196246D01*
X10764539Y-10196246D02*
X10774063Y-10177198D01*
X10774063Y-10177198D02*
X10783587Y-10167674D01*
X10783587Y-10167674D02*
X10802634Y-10158150D01*
X10802634Y-10158150D02*
X10831206Y-10158150D01*
X10831206Y-10158150D02*
X10850253Y-10167674D01*
X10850253Y-10167674D02*
X10859777Y-10177198D01*
X10859777Y-10177198D02*
X10869301Y-10196246D01*
X10869301Y-10196246D02*
X10869301Y-10253389D01*
X10869301Y-10253389D02*
X10859777Y-10272436D01*
X10859777Y-10272436D02*
X10850253Y-10281960D01*
X10850253Y-10281960D02*
X10831206Y-10291484D01*
X10831206Y-10291484D02*
X10802634Y-10291484D01*
X10983587Y-10291484D02*
X10964539Y-10281960D01*
X10964539Y-10281960D02*
X10955015Y-10262912D01*
X10955015Y-10262912D02*
X10955015Y-10091484D01*
X11135968Y-10281960D02*
X11116920Y-10291484D01*
X11116920Y-10291484D02*
X11078825Y-10291484D01*
X11078825Y-10291484D02*
X11059777Y-10281960D01*
X11059777Y-10281960D02*
X11050253Y-10262912D01*
X11050253Y-10262912D02*
X11050253Y-10186722D01*
X11050253Y-10186722D02*
X11059777Y-10167674D01*
X11059777Y-10167674D02*
X11078825Y-10158150D01*
X11078825Y-10158150D02*
X11116920Y-10158150D01*
X11116920Y-10158150D02*
X11135968Y-10167674D01*
X11135968Y-10167674D02*
X11145492Y-10186722D01*
X11145492Y-10186722D02*
X11145492Y-10205770D01*
X11145492Y-10205770D02*
X11050253Y-10224817D01*
X11221682Y-10281960D02*
X11240730Y-10291484D01*
X11240730Y-10291484D02*
X11278825Y-10291484D01*
X11278825Y-10291484D02*
X11297872Y-10281960D01*
X11297872Y-10281960D02*
X11307396Y-10262912D01*
X11307396Y-10262912D02*
X11307396Y-10253389D01*
X11307396Y-10253389D02*
X11297872Y-10234341D01*
X11297872Y-10234341D02*
X11278825Y-10224817D01*
X11278825Y-10224817D02*
X11250253Y-10224817D01*
X11250253Y-10224817D02*
X11231206Y-10215293D01*
X11231206Y-10215293D02*
X11221682Y-10196246D01*
X11221682Y-10196246D02*
X11221682Y-10186722D01*
X11221682Y-10186722D02*
X11231206Y-10167674D01*
X11231206Y-10167674D02*
X11250253Y-10158150D01*
X11250253Y-10158150D02*
X11278825Y-10158150D01*
X11278825Y-10158150D02*
X11297872Y-10167674D01*
X11545492Y-10215293D02*
X11697873Y-10215293D01*
X11621682Y-10291484D02*
X11621682Y-10139103D01*
X12031206Y-10158150D02*
X12031206Y-10291484D01*
X11983587Y-10081960D02*
X11935968Y-10224817D01*
X11935968Y-10224817D02*
X12059777Y-10224817D01*
X12278825Y-10281960D02*
X12297873Y-10291484D01*
X12297873Y-10291484D02*
X12335968Y-10291484D01*
X12335968Y-10291484D02*
X12355015Y-10281960D01*
X12355015Y-10281960D02*
X12364539Y-10262912D01*
X12364539Y-10262912D02*
X12364539Y-10253389D01*
X12364539Y-10253389D02*
X12355015Y-10234341D01*
X12355015Y-10234341D02*
X12335968Y-10224817D01*
X12335968Y-10224817D02*
X12307396Y-10224817D01*
X12307396Y-10224817D02*
X12288349Y-10215293D01*
X12288349Y-10215293D02*
X12278825Y-10196246D01*
X12278825Y-10196246D02*
X12278825Y-10186722D01*
X12278825Y-10186722D02*
X12288349Y-10167674D01*
X12288349Y-10167674D02*
X12307396Y-10158150D01*
X12307396Y-10158150D02*
X12335968Y-10158150D01*
X12335968Y-10158150D02*
X12355015Y-10167674D01*
X12478825Y-10291484D02*
X12459777Y-10281960D01*
X12459777Y-10281960D02*
X12450254Y-10262912D01*
X12450254Y-10262912D02*
X12450254Y-10091484D01*
X12583587Y-10291484D02*
X12564539Y-10281960D01*
X12564539Y-10281960D02*
X12555015Y-10272436D01*
X12555015Y-10272436D02*
X12545492Y-10253389D01*
X12545492Y-10253389D02*
X12545492Y-10196246D01*
X12545492Y-10196246D02*
X12555015Y-10177198D01*
X12555015Y-10177198D02*
X12564539Y-10167674D01*
X12564539Y-10167674D02*
X12583587Y-10158150D01*
X12583587Y-10158150D02*
X12612158Y-10158150D01*
X12612158Y-10158150D02*
X12631206Y-10167674D01*
X12631206Y-10167674D02*
X12640730Y-10177198D01*
X12640730Y-10177198D02*
X12650254Y-10196246D01*
X12650254Y-10196246D02*
X12650254Y-10253389D01*
X12650254Y-10253389D02*
X12640730Y-10272436D01*
X12640730Y-10272436D02*
X12631206Y-10281960D01*
X12631206Y-10281960D02*
X12612158Y-10291484D01*
X12612158Y-10291484D02*
X12583587Y-10291484D01*
X12707396Y-10158150D02*
X12783587Y-10158150D01*
X12735968Y-10091484D02*
X12735968Y-10262912D01*
X12735968Y-10262912D02*
X12745492Y-10281960D01*
X12745492Y-10281960D02*
X12764539Y-10291484D01*
X12764539Y-10291484D02*
X12783587Y-10291484D01*
X12840730Y-10281960D02*
X12859777Y-10291484D01*
X12859777Y-10291484D02*
X12897873Y-10291484D01*
X12897873Y-10291484D02*
X12916920Y-10281960D01*
X12916920Y-10281960D02*
X12926444Y-10262912D01*
X12926444Y-10262912D02*
X12926444Y-10253389D01*
X12926444Y-10253389D02*
X12916920Y-10234341D01*
X12916920Y-10234341D02*
X12897873Y-10224817D01*
X12897873Y-10224817D02*
X12869301Y-10224817D01*
X12869301Y-10224817D02*
X12850254Y-10215293D01*
X12850254Y-10215293D02*
X12840730Y-10196246D01*
X12840730Y-10196246D02*
X12840730Y-10186722D01*
X12840730Y-10186722D02*
X12850254Y-10167674D01*
X12850254Y-10167674D02*
X12869301Y-10158150D01*
X12869301Y-10158150D02*
X12897873Y-10158150D01*
X12897873Y-10158150D02*
X12916920Y-10167674D01*
X12993111Y-10367674D02*
X13002635Y-10358150D01*
X13002635Y-10358150D02*
X13021682Y-10329579D01*
X13021682Y-10329579D02*
X13031206Y-10310531D01*
X13031206Y-10310531D02*
X13040730Y-10281960D01*
X13040730Y-10281960D02*
X13050254Y-10234341D01*
X13050254Y-10234341D02*
X13050254Y-10196246D01*
X13050254Y-10196246D02*
X13040730Y-10148627D01*
X13040730Y-10148627D02*
X13031206Y-10120055D01*
X13031206Y-10120055D02*
X13021682Y-10101008D01*
X13021682Y-10101008D02*
X13002635Y-10072436D01*
X13002635Y-10072436D02*
X12993111Y-10062912D01*
X6499000Y-10564000D02*
X6599000Y-10464000D01*
X6499000Y-10364000D01*
X6399000Y-10464000D01*
X6499000Y-10564000D01*
X6850253Y-10374531D02*
X6859777Y-10365008D01*
X6859777Y-10365008D02*
X6878824Y-10355484D01*
X6878824Y-10355484D02*
X6926443Y-10355484D01*
X6926443Y-10355484D02*
X6945491Y-10365008D01*
X6945491Y-10365008D02*
X6955015Y-10374531D01*
X6955015Y-10374531D02*
X6964539Y-10393579D01*
X6964539Y-10393579D02*
X6964539Y-10412627D01*
X6964539Y-10412627D02*
X6955015Y-10441198D01*
X6955015Y-10441198D02*
X6840729Y-10555484D01*
X6840729Y-10555484D02*
X6964539Y-10555484D01*
X7050253Y-10536436D02*
X7059777Y-10545960D01*
X7059777Y-10545960D02*
X7050253Y-10555484D01*
X7050253Y-10555484D02*
X7040729Y-10545960D01*
X7040729Y-10545960D02*
X7050253Y-10536436D01*
X7050253Y-10536436D02*
X7050253Y-10555484D01*
X7135967Y-10374531D02*
X7145491Y-10365008D01*
X7145491Y-10365008D02*
X7164539Y-10355484D01*
X7164539Y-10355484D02*
X7212158Y-10355484D01*
X7212158Y-10355484D02*
X7231205Y-10365008D01*
X7231205Y-10365008D02*
X7240729Y-10374531D01*
X7240729Y-10374531D02*
X7250253Y-10393579D01*
X7250253Y-10393579D02*
X7250253Y-10412627D01*
X7250253Y-10412627D02*
X7240729Y-10441198D01*
X7240729Y-10441198D02*
X7126443Y-10555484D01*
X7126443Y-10555484D02*
X7250253Y-10555484D01*
X7374062Y-10355484D02*
X7393110Y-10355484D01*
X7393110Y-10355484D02*
X7412158Y-10365008D01*
X7412158Y-10365008D02*
X7421682Y-10374531D01*
X7421682Y-10374531D02*
X7431205Y-10393579D01*
X7431205Y-10393579D02*
X7440729Y-10431674D01*
X7440729Y-10431674D02*
X7440729Y-10479293D01*
X7440729Y-10479293D02*
X7431205Y-10517389D01*
X7431205Y-10517389D02*
X7421682Y-10536436D01*
X7421682Y-10536436D02*
X7412158Y-10545960D01*
X7412158Y-10545960D02*
X7393110Y-10555484D01*
X7393110Y-10555484D02*
X7374062Y-10555484D01*
X7374062Y-10555484D02*
X7355015Y-10545960D01*
X7355015Y-10545960D02*
X7345491Y-10536436D01*
X7345491Y-10536436D02*
X7335967Y-10517389D01*
X7335967Y-10517389D02*
X7326443Y-10479293D01*
X7326443Y-10479293D02*
X7326443Y-10431674D01*
X7326443Y-10431674D02*
X7335967Y-10393579D01*
X7335967Y-10393579D02*
X7345491Y-10374531D01*
X7345491Y-10374531D02*
X7355015Y-10365008D01*
X7355015Y-10365008D02*
X7374062Y-10355484D01*
X7564539Y-10355484D02*
X7583586Y-10355484D01*
X7583586Y-10355484D02*
X7602634Y-10365008D01*
X7602634Y-10365008D02*
X7612158Y-10374531D01*
X7612158Y-10374531D02*
X7621682Y-10393579D01*
X7621682Y-10393579D02*
X7631205Y-10431674D01*
X7631205Y-10431674D02*
X7631205Y-10479293D01*
X7631205Y-10479293D02*
X7621682Y-10517389D01*
X7621682Y-10517389D02*
X7612158Y-10536436D01*
X7612158Y-10536436D02*
X7602634Y-10545960D01*
X7602634Y-10545960D02*
X7583586Y-10555484D01*
X7583586Y-10555484D02*
X7564539Y-10555484D01*
X7564539Y-10555484D02*
X7545491Y-10545960D01*
X7545491Y-10545960D02*
X7535967Y-10536436D01*
X7535967Y-10536436D02*
X7526443Y-10517389D01*
X7526443Y-10517389D02*
X7516920Y-10479293D01*
X7516920Y-10479293D02*
X7516920Y-10431674D01*
X7516920Y-10431674D02*
X7526443Y-10393579D01*
X7526443Y-10393579D02*
X7535967Y-10374531D01*
X7535967Y-10374531D02*
X7545491Y-10365008D01*
X7545491Y-10365008D02*
X7564539Y-10355484D01*
X7716920Y-10555484D02*
X7716920Y-10422150D01*
X7716920Y-10441198D02*
X7726443Y-10431674D01*
X7726443Y-10431674D02*
X7745491Y-10422150D01*
X7745491Y-10422150D02*
X7774063Y-10422150D01*
X7774063Y-10422150D02*
X7793110Y-10431674D01*
X7793110Y-10431674D02*
X7802634Y-10450722D01*
X7802634Y-10450722D02*
X7802634Y-10555484D01*
X7802634Y-10450722D02*
X7812158Y-10431674D01*
X7812158Y-10431674D02*
X7831205Y-10422150D01*
X7831205Y-10422150D02*
X7859777Y-10422150D01*
X7859777Y-10422150D02*
X7878824Y-10431674D01*
X7878824Y-10431674D02*
X7888348Y-10450722D01*
X7888348Y-10450722D02*
X7888348Y-10555484D01*
X7983586Y-10555484D02*
X7983586Y-10422150D01*
X7983586Y-10441198D02*
X7993110Y-10431674D01*
X7993110Y-10431674D02*
X8012158Y-10422150D01*
X8012158Y-10422150D02*
X8040729Y-10422150D01*
X8040729Y-10422150D02*
X8059777Y-10431674D01*
X8059777Y-10431674D02*
X8069301Y-10450722D01*
X8069301Y-10450722D02*
X8069301Y-10555484D01*
X8069301Y-10450722D02*
X8078824Y-10431674D01*
X8078824Y-10431674D02*
X8097872Y-10422150D01*
X8097872Y-10422150D02*
X8126443Y-10422150D01*
X8126443Y-10422150D02*
X8145491Y-10431674D01*
X8145491Y-10431674D02*
X8155015Y-10450722D01*
X8155015Y-10450722D02*
X8155015Y-10555484D01*
X8545491Y-10345960D02*
X8374063Y-10603103D01*
X8802634Y-10355484D02*
X8821682Y-10355484D01*
X8821682Y-10355484D02*
X8840729Y-10365008D01*
X8840729Y-10365008D02*
X8850253Y-10374531D01*
X8850253Y-10374531D02*
X8859777Y-10393579D01*
X8859777Y-10393579D02*
X8869301Y-10431674D01*
X8869301Y-10431674D02*
X8869301Y-10479293D01*
X8869301Y-10479293D02*
X8859777Y-10517389D01*
X8859777Y-10517389D02*
X8850253Y-10536436D01*
X8850253Y-10536436D02*
X8840729Y-10545960D01*
X8840729Y-10545960D02*
X8821682Y-10555484D01*
X8821682Y-10555484D02*
X8802634Y-10555484D01*
X8802634Y-10555484D02*
X8783587Y-10545960D01*
X8783587Y-10545960D02*
X8774063Y-10536436D01*
X8774063Y-10536436D02*
X8764539Y-10517389D01*
X8764539Y-10517389D02*
X8755015Y-10479293D01*
X8755015Y-10479293D02*
X8755015Y-10431674D01*
X8755015Y-10431674D02*
X8764539Y-10393579D01*
X8764539Y-10393579D02*
X8774063Y-10374531D01*
X8774063Y-10374531D02*
X8783587Y-10365008D01*
X8783587Y-10365008D02*
X8802634Y-10355484D01*
X8955015Y-10536436D02*
X8964539Y-10545960D01*
X8964539Y-10545960D02*
X8955015Y-10555484D01*
X8955015Y-10555484D02*
X8945491Y-10545960D01*
X8945491Y-10545960D02*
X8955015Y-10536436D01*
X8955015Y-10536436D02*
X8955015Y-10555484D01*
X9088348Y-10355484D02*
X9107396Y-10355484D01*
X9107396Y-10355484D02*
X9126444Y-10365008D01*
X9126444Y-10365008D02*
X9135968Y-10374531D01*
X9135968Y-10374531D02*
X9145491Y-10393579D01*
X9145491Y-10393579D02*
X9155015Y-10431674D01*
X9155015Y-10431674D02*
X9155015Y-10479293D01*
X9155015Y-10479293D02*
X9145491Y-10517389D01*
X9145491Y-10517389D02*
X9135968Y-10536436D01*
X9135968Y-10536436D02*
X9126444Y-10545960D01*
X9126444Y-10545960D02*
X9107396Y-10555484D01*
X9107396Y-10555484D02*
X9088348Y-10555484D01*
X9088348Y-10555484D02*
X9069301Y-10545960D01*
X9069301Y-10545960D02*
X9059777Y-10536436D01*
X9059777Y-10536436D02*
X9050253Y-10517389D01*
X9050253Y-10517389D02*
X9040729Y-10479293D01*
X9040729Y-10479293D02*
X9040729Y-10431674D01*
X9040729Y-10431674D02*
X9050253Y-10393579D01*
X9050253Y-10393579D02*
X9059777Y-10374531D01*
X9059777Y-10374531D02*
X9069301Y-10365008D01*
X9069301Y-10365008D02*
X9088348Y-10355484D01*
X9269301Y-10441198D02*
X9250253Y-10431674D01*
X9250253Y-10431674D02*
X9240729Y-10422150D01*
X9240729Y-10422150D02*
X9231206Y-10403103D01*
X9231206Y-10403103D02*
X9231206Y-10393579D01*
X9231206Y-10393579D02*
X9240729Y-10374531D01*
X9240729Y-10374531D02*
X9250253Y-10365008D01*
X9250253Y-10365008D02*
X9269301Y-10355484D01*
X9269301Y-10355484D02*
X9307396Y-10355484D01*
X9307396Y-10355484D02*
X9326444Y-10365008D01*
X9326444Y-10365008D02*
X9335968Y-10374531D01*
X9335968Y-10374531D02*
X9345491Y-10393579D01*
X9345491Y-10393579D02*
X9345491Y-10403103D01*
X9345491Y-10403103D02*
X9335968Y-10422150D01*
X9335968Y-10422150D02*
X9326444Y-10431674D01*
X9326444Y-10431674D02*
X9307396Y-10441198D01*
X9307396Y-10441198D02*
X9269301Y-10441198D01*
X9269301Y-10441198D02*
X9250253Y-10450722D01*
X9250253Y-10450722D02*
X9240729Y-10460246D01*
X9240729Y-10460246D02*
X9231206Y-10479293D01*
X9231206Y-10479293D02*
X9231206Y-10517389D01*
X9231206Y-10517389D02*
X9240729Y-10536436D01*
X9240729Y-10536436D02*
X9250253Y-10545960D01*
X9250253Y-10545960D02*
X9269301Y-10555484D01*
X9269301Y-10555484D02*
X9307396Y-10555484D01*
X9307396Y-10555484D02*
X9326444Y-10545960D01*
X9326444Y-10545960D02*
X9335968Y-10536436D01*
X9335968Y-10536436D02*
X9345491Y-10517389D01*
X9345491Y-10517389D02*
X9345491Y-10479293D01*
X9345491Y-10479293D02*
X9335968Y-10460246D01*
X9335968Y-10460246D02*
X9326444Y-10450722D01*
X9326444Y-10450722D02*
X9307396Y-10441198D01*
X9516920Y-10355484D02*
X9478825Y-10355484D01*
X9478825Y-10355484D02*
X9459777Y-10365008D01*
X9459777Y-10365008D02*
X9450253Y-10374531D01*
X9450253Y-10374531D02*
X9431206Y-10403103D01*
X9431206Y-10403103D02*
X9421682Y-10441198D01*
X9421682Y-10441198D02*
X9421682Y-10517389D01*
X9421682Y-10517389D02*
X9431206Y-10536436D01*
X9431206Y-10536436D02*
X9440729Y-10545960D01*
X9440729Y-10545960D02*
X9459777Y-10555484D01*
X9459777Y-10555484D02*
X9497872Y-10555484D01*
X9497872Y-10555484D02*
X9516920Y-10545960D01*
X9516920Y-10545960D02*
X9526444Y-10536436D01*
X9526444Y-10536436D02*
X9535968Y-10517389D01*
X9535968Y-10517389D02*
X9535968Y-10469770D01*
X9535968Y-10469770D02*
X9526444Y-10450722D01*
X9526444Y-10450722D02*
X9516920Y-10441198D01*
X9516920Y-10441198D02*
X9497872Y-10431674D01*
X9497872Y-10431674D02*
X9459777Y-10431674D01*
X9459777Y-10431674D02*
X9440729Y-10441198D01*
X9440729Y-10441198D02*
X9431206Y-10450722D01*
X9431206Y-10450722D02*
X9421682Y-10469770D01*
X9707396Y-10355484D02*
X9669301Y-10355484D01*
X9669301Y-10355484D02*
X9650253Y-10365008D01*
X9650253Y-10365008D02*
X9640729Y-10374531D01*
X9640729Y-10374531D02*
X9621682Y-10403103D01*
X9621682Y-10403103D02*
X9612158Y-10441198D01*
X9612158Y-10441198D02*
X9612158Y-10517389D01*
X9612158Y-10517389D02*
X9621682Y-10536436D01*
X9621682Y-10536436D02*
X9631206Y-10545960D01*
X9631206Y-10545960D02*
X9650253Y-10555484D01*
X9650253Y-10555484D02*
X9688349Y-10555484D01*
X9688349Y-10555484D02*
X9707396Y-10545960D01*
X9707396Y-10545960D02*
X9716920Y-10536436D01*
X9716920Y-10536436D02*
X9726444Y-10517389D01*
X9726444Y-10517389D02*
X9726444Y-10469770D01*
X9726444Y-10469770D02*
X9716920Y-10450722D01*
X9716920Y-10450722D02*
X9707396Y-10441198D01*
X9707396Y-10441198D02*
X9688349Y-10431674D01*
X9688349Y-10431674D02*
X9650253Y-10431674D01*
X9650253Y-10431674D02*
X9631206Y-10441198D01*
X9631206Y-10441198D02*
X9621682Y-10450722D01*
X9621682Y-10450722D02*
X9612158Y-10469770D01*
X9802634Y-10355484D02*
X9802634Y-10393579D01*
X9878825Y-10355484D02*
X9878825Y-10393579D01*
X10174063Y-10631674D02*
X10164539Y-10622150D01*
X10164539Y-10622150D02*
X10145491Y-10593579D01*
X10145491Y-10593579D02*
X10135968Y-10574531D01*
X10135968Y-10574531D02*
X10126444Y-10545960D01*
X10126444Y-10545960D02*
X10116920Y-10498341D01*
X10116920Y-10498341D02*
X10116920Y-10460246D01*
X10116920Y-10460246D02*
X10126444Y-10412627D01*
X10126444Y-10412627D02*
X10135968Y-10384055D01*
X10135968Y-10384055D02*
X10145491Y-10365008D01*
X10145491Y-10365008D02*
X10164539Y-10336436D01*
X10164539Y-10336436D02*
X10174063Y-10326912D01*
X10231206Y-10355484D02*
X10355015Y-10355484D01*
X10355015Y-10355484D02*
X10288349Y-10431674D01*
X10288349Y-10431674D02*
X10316920Y-10431674D01*
X10316920Y-10431674D02*
X10335968Y-10441198D01*
X10335968Y-10441198D02*
X10345491Y-10450722D01*
X10345491Y-10450722D02*
X10355015Y-10469770D01*
X10355015Y-10469770D02*
X10355015Y-10517389D01*
X10355015Y-10517389D02*
X10345491Y-10536436D01*
X10345491Y-10536436D02*
X10335968Y-10545960D01*
X10335968Y-10545960D02*
X10316920Y-10555484D01*
X10316920Y-10555484D02*
X10259777Y-10555484D01*
X10259777Y-10555484D02*
X10240730Y-10545960D01*
X10240730Y-10545960D02*
X10231206Y-10536436D01*
X10593111Y-10555484D02*
X10593111Y-10355484D01*
X10678825Y-10555484D02*
X10678825Y-10450722D01*
X10678825Y-10450722D02*
X10669301Y-10431674D01*
X10669301Y-10431674D02*
X10650253Y-10422150D01*
X10650253Y-10422150D02*
X10621682Y-10422150D01*
X10621682Y-10422150D02*
X10602634Y-10431674D01*
X10602634Y-10431674D02*
X10593111Y-10441198D01*
X10802634Y-10555484D02*
X10783587Y-10545960D01*
X10783587Y-10545960D02*
X10774063Y-10536436D01*
X10774063Y-10536436D02*
X10764539Y-10517389D01*
X10764539Y-10517389D02*
X10764539Y-10460246D01*
X10764539Y-10460246D02*
X10774063Y-10441198D01*
X10774063Y-10441198D02*
X10783587Y-10431674D01*
X10783587Y-10431674D02*
X10802634Y-10422150D01*
X10802634Y-10422150D02*
X10831206Y-10422150D01*
X10831206Y-10422150D02*
X10850253Y-10431674D01*
X10850253Y-10431674D02*
X10859777Y-10441198D01*
X10859777Y-10441198D02*
X10869301Y-10460246D01*
X10869301Y-10460246D02*
X10869301Y-10517389D01*
X10869301Y-10517389D02*
X10859777Y-10536436D01*
X10859777Y-10536436D02*
X10850253Y-10545960D01*
X10850253Y-10545960D02*
X10831206Y-10555484D01*
X10831206Y-10555484D02*
X10802634Y-10555484D01*
X10983587Y-10555484D02*
X10964539Y-10545960D01*
X10964539Y-10545960D02*
X10955015Y-10526912D01*
X10955015Y-10526912D02*
X10955015Y-10355484D01*
X11135968Y-10545960D02*
X11116920Y-10555484D01*
X11116920Y-10555484D02*
X11078825Y-10555484D01*
X11078825Y-10555484D02*
X11059777Y-10545960D01*
X11059777Y-10545960D02*
X11050253Y-10526912D01*
X11050253Y-10526912D02*
X11050253Y-10450722D01*
X11050253Y-10450722D02*
X11059777Y-10431674D01*
X11059777Y-10431674D02*
X11078825Y-10422150D01*
X11078825Y-10422150D02*
X11116920Y-10422150D01*
X11116920Y-10422150D02*
X11135968Y-10431674D01*
X11135968Y-10431674D02*
X11145492Y-10450722D01*
X11145492Y-10450722D02*
X11145492Y-10469770D01*
X11145492Y-10469770D02*
X11050253Y-10488817D01*
X11221682Y-10545960D02*
X11240730Y-10555484D01*
X11240730Y-10555484D02*
X11278825Y-10555484D01*
X11278825Y-10555484D02*
X11297872Y-10545960D01*
X11297872Y-10545960D02*
X11307396Y-10526912D01*
X11307396Y-10526912D02*
X11307396Y-10517389D01*
X11307396Y-10517389D02*
X11297872Y-10498341D01*
X11297872Y-10498341D02*
X11278825Y-10488817D01*
X11278825Y-10488817D02*
X11250253Y-10488817D01*
X11250253Y-10488817D02*
X11231206Y-10479293D01*
X11231206Y-10479293D02*
X11221682Y-10460246D01*
X11221682Y-10460246D02*
X11221682Y-10450722D01*
X11221682Y-10450722D02*
X11231206Y-10431674D01*
X11231206Y-10431674D02*
X11250253Y-10422150D01*
X11250253Y-10422150D02*
X11278825Y-10422150D01*
X11278825Y-10422150D02*
X11297872Y-10431674D01*
X11374063Y-10631674D02*
X11383587Y-10622150D01*
X11383587Y-10622150D02*
X11402634Y-10593579D01*
X11402634Y-10593579D02*
X11412158Y-10574531D01*
X11412158Y-10574531D02*
X11421682Y-10545960D01*
X11421682Y-10545960D02*
X11431206Y-10498341D01*
X11431206Y-10498341D02*
X11431206Y-10460246D01*
X11431206Y-10460246D02*
X11421682Y-10412627D01*
X11421682Y-10412627D02*
X11412158Y-10384055D01*
X11412158Y-10384055D02*
X11402634Y-10365008D01*
X11402634Y-10365008D02*
X11383587Y-10336436D01*
X11383587Y-10336436D02*
X11374063Y-10326912D01*
M02*
