%TF.GenerationSoftware,KiCad,Pcbnew,7.0.9*%
%TF.CreationDate,2023-12-20T20:28:38+02:00*%
%TF.ProjectId,DRM_Watch_V3,44524d5f-5761-4746-9368-5f56332e6b69,rev?*%
%TF.SameCoordinates,Original*%
%TF.FileFunction,Legend,Bot*%
%TF.FilePolarity,Positive*%
%FSLAX46Y46*%
G04 Gerber Fmt 4.6, Leading zero omitted, Abs format (unit mm)*
G04 Created by KiCad (PCBNEW 7.0.9) date 2023-12-20 20:28:38*
%MOMM*%
%LPD*%
G01*
G04 APERTURE LIST*
%ADD10C,0.150000*%
%ADD11C,0.100000*%
G04 APERTURE END LIST*
D10*
X125837792Y-85975819D02*
X126171125Y-85499628D01*
X126409220Y-85975819D02*
X126409220Y-84975819D01*
X126409220Y-84975819D02*
X126028268Y-84975819D01*
X126028268Y-84975819D02*
X125933030Y-85023438D01*
X125933030Y-85023438D02*
X125885411Y-85071057D01*
X125885411Y-85071057D02*
X125837792Y-85166295D01*
X125837792Y-85166295D02*
X125837792Y-85309152D01*
X125837792Y-85309152D02*
X125885411Y-85404390D01*
X125885411Y-85404390D02*
X125933030Y-85452009D01*
X125933030Y-85452009D02*
X126028268Y-85499628D01*
X126028268Y-85499628D02*
X126409220Y-85499628D01*
X125028268Y-85928200D02*
X125123506Y-85975819D01*
X125123506Y-85975819D02*
X125313982Y-85975819D01*
X125313982Y-85975819D02*
X125409220Y-85928200D01*
X125409220Y-85928200D02*
X125456839Y-85832961D01*
X125456839Y-85832961D02*
X125456839Y-85452009D01*
X125456839Y-85452009D02*
X125409220Y-85356771D01*
X125409220Y-85356771D02*
X125313982Y-85309152D01*
X125313982Y-85309152D02*
X125123506Y-85309152D01*
X125123506Y-85309152D02*
X125028268Y-85356771D01*
X125028268Y-85356771D02*
X124980649Y-85452009D01*
X124980649Y-85452009D02*
X124980649Y-85547247D01*
X124980649Y-85547247D02*
X125456839Y-85642485D01*
X124647315Y-85309152D02*
X124409220Y-85975819D01*
X124409220Y-85975819D02*
X124171125Y-85309152D01*
X123790172Y-85880580D02*
X123742553Y-85928200D01*
X123742553Y-85928200D02*
X123790172Y-85975819D01*
X123790172Y-85975819D02*
X123837791Y-85928200D01*
X123837791Y-85928200D02*
X123790172Y-85880580D01*
X123790172Y-85880580D02*
X123790172Y-85975819D01*
X123790172Y-85356771D02*
X123742553Y-85404390D01*
X123742553Y-85404390D02*
X123790172Y-85452009D01*
X123790172Y-85452009D02*
X123837791Y-85404390D01*
X123837791Y-85404390D02*
X123790172Y-85356771D01*
X123790172Y-85356771D02*
X123790172Y-85452009D01*
X122599696Y-85071057D02*
X122552077Y-85023438D01*
X122552077Y-85023438D02*
X122456839Y-84975819D01*
X122456839Y-84975819D02*
X122218744Y-84975819D01*
X122218744Y-84975819D02*
X122123506Y-85023438D01*
X122123506Y-85023438D02*
X122075887Y-85071057D01*
X122075887Y-85071057D02*
X122028268Y-85166295D01*
X122028268Y-85166295D02*
X122028268Y-85261533D01*
X122028268Y-85261533D02*
X122075887Y-85404390D01*
X122075887Y-85404390D02*
X122647315Y-85975819D01*
X122647315Y-85975819D02*
X122028268Y-85975819D01*
X121409220Y-84975819D02*
X121313982Y-84975819D01*
X121313982Y-84975819D02*
X121218744Y-85023438D01*
X121218744Y-85023438D02*
X121171125Y-85071057D01*
X121171125Y-85071057D02*
X121123506Y-85166295D01*
X121123506Y-85166295D02*
X121075887Y-85356771D01*
X121075887Y-85356771D02*
X121075887Y-85594866D01*
X121075887Y-85594866D02*
X121123506Y-85785342D01*
X121123506Y-85785342D02*
X121171125Y-85880580D01*
X121171125Y-85880580D02*
X121218744Y-85928200D01*
X121218744Y-85928200D02*
X121313982Y-85975819D01*
X121313982Y-85975819D02*
X121409220Y-85975819D01*
X121409220Y-85975819D02*
X121504458Y-85928200D01*
X121504458Y-85928200D02*
X121552077Y-85880580D01*
X121552077Y-85880580D02*
X121599696Y-85785342D01*
X121599696Y-85785342D02*
X121647315Y-85594866D01*
X121647315Y-85594866D02*
X121647315Y-85356771D01*
X121647315Y-85356771D02*
X121599696Y-85166295D01*
X121599696Y-85166295D02*
X121552077Y-85071057D01*
X121552077Y-85071057D02*
X121504458Y-85023438D01*
X121504458Y-85023438D02*
X121409220Y-84975819D01*
X120694934Y-85071057D02*
X120647315Y-85023438D01*
X120647315Y-85023438D02*
X120552077Y-84975819D01*
X120552077Y-84975819D02*
X120313982Y-84975819D01*
X120313982Y-84975819D02*
X120218744Y-85023438D01*
X120218744Y-85023438D02*
X120171125Y-85071057D01*
X120171125Y-85071057D02*
X120123506Y-85166295D01*
X120123506Y-85166295D02*
X120123506Y-85261533D01*
X120123506Y-85261533D02*
X120171125Y-85404390D01*
X120171125Y-85404390D02*
X120742553Y-85975819D01*
X120742553Y-85975819D02*
X120123506Y-85975819D01*
X119790172Y-84975819D02*
X119171125Y-84975819D01*
X119171125Y-84975819D02*
X119504458Y-85356771D01*
X119504458Y-85356771D02*
X119361601Y-85356771D01*
X119361601Y-85356771D02*
X119266363Y-85404390D01*
X119266363Y-85404390D02*
X119218744Y-85452009D01*
X119218744Y-85452009D02*
X119171125Y-85547247D01*
X119171125Y-85547247D02*
X119171125Y-85785342D01*
X119171125Y-85785342D02*
X119218744Y-85880580D01*
X119218744Y-85880580D02*
X119266363Y-85928200D01*
X119266363Y-85928200D02*
X119361601Y-85975819D01*
X119361601Y-85975819D02*
X119647315Y-85975819D01*
X119647315Y-85975819D02*
X119742553Y-85928200D01*
X119742553Y-85928200D02*
X119790172Y-85880580D01*
X118218744Y-85975819D02*
X118790172Y-85975819D01*
X118504458Y-85975819D02*
X118504458Y-84975819D01*
X118504458Y-84975819D02*
X118599696Y-85118676D01*
X118599696Y-85118676D02*
X118694934Y-85213914D01*
X118694934Y-85213914D02*
X118790172Y-85261533D01*
X117837791Y-85071057D02*
X117790172Y-85023438D01*
X117790172Y-85023438D02*
X117694934Y-84975819D01*
X117694934Y-84975819D02*
X117456839Y-84975819D01*
X117456839Y-84975819D02*
X117361601Y-85023438D01*
X117361601Y-85023438D02*
X117313982Y-85071057D01*
X117313982Y-85071057D02*
X117266363Y-85166295D01*
X117266363Y-85166295D02*
X117266363Y-85261533D01*
X117266363Y-85261533D02*
X117313982Y-85404390D01*
X117313982Y-85404390D02*
X117885410Y-85975819D01*
X117885410Y-85975819D02*
X117266363Y-85975819D01*
X116885410Y-85071057D02*
X116837791Y-85023438D01*
X116837791Y-85023438D02*
X116742553Y-84975819D01*
X116742553Y-84975819D02*
X116504458Y-84975819D01*
X116504458Y-84975819D02*
X116409220Y-85023438D01*
X116409220Y-85023438D02*
X116361601Y-85071057D01*
X116361601Y-85071057D02*
X116313982Y-85166295D01*
X116313982Y-85166295D02*
X116313982Y-85261533D01*
X116313982Y-85261533D02*
X116361601Y-85404390D01*
X116361601Y-85404390D02*
X116933029Y-85975819D01*
X116933029Y-85975819D02*
X116313982Y-85975819D01*
X115694934Y-84975819D02*
X115599696Y-84975819D01*
X115599696Y-84975819D02*
X115504458Y-85023438D01*
X115504458Y-85023438D02*
X115456839Y-85071057D01*
X115456839Y-85071057D02*
X115409220Y-85166295D01*
X115409220Y-85166295D02*
X115361601Y-85356771D01*
X115361601Y-85356771D02*
X115361601Y-85594866D01*
X115361601Y-85594866D02*
X115409220Y-85785342D01*
X115409220Y-85785342D02*
X115456839Y-85880580D01*
X115456839Y-85880580D02*
X115504458Y-85928200D01*
X115504458Y-85928200D02*
X115599696Y-85975819D01*
X115599696Y-85975819D02*
X115694934Y-85975819D01*
X115694934Y-85975819D02*
X115790172Y-85928200D01*
X115790172Y-85928200D02*
X115837791Y-85880580D01*
X115837791Y-85880580D02*
X115885410Y-85785342D01*
X115885410Y-85785342D02*
X115933029Y-85594866D01*
X115933029Y-85594866D02*
X115933029Y-85356771D01*
X115933029Y-85356771D02*
X115885410Y-85166295D01*
X115885410Y-85166295D02*
X115837791Y-85071057D01*
X115837791Y-85071057D02*
X115790172Y-85023438D01*
X115790172Y-85023438D02*
X115694934Y-84975819D01*
D11*
X98297904Y-72863419D02*
X97726476Y-72863419D01*
X98012190Y-73863419D02*
X98012190Y-72863419D01*
X97440761Y-72958657D02*
X97393142Y-72911038D01*
X97393142Y-72911038D02*
X97297904Y-72863419D01*
X97297904Y-72863419D02*
X97059809Y-72863419D01*
X97059809Y-72863419D02*
X96964571Y-72911038D01*
X96964571Y-72911038D02*
X96916952Y-72958657D01*
X96916952Y-72958657D02*
X96869333Y-73053895D01*
X96869333Y-73053895D02*
X96869333Y-73149133D01*
X96869333Y-73149133D02*
X96916952Y-73291990D01*
X96916952Y-73291990D02*
X97488380Y-73863419D01*
X97488380Y-73863419D02*
X96869333Y-73863419D01*
X124675619Y-53704895D02*
X125056571Y-53704895D01*
X125056571Y-53704895D02*
X125056571Y-52904895D01*
X124408952Y-53285847D02*
X124142286Y-53285847D01*
X124028000Y-53704895D02*
X124408952Y-53704895D01*
X124408952Y-53704895D02*
X124408952Y-52904895D01*
X124408952Y-52904895D02*
X124028000Y-52904895D01*
X123685142Y-53704895D02*
X123685142Y-52904895D01*
X123685142Y-52904895D02*
X123494666Y-52904895D01*
X123494666Y-52904895D02*
X123380380Y-52942990D01*
X123380380Y-52942990D02*
X123304190Y-53019180D01*
X123304190Y-53019180D02*
X123266095Y-53095371D01*
X123266095Y-53095371D02*
X123227999Y-53247752D01*
X123227999Y-53247752D02*
X123227999Y-53362038D01*
X123227999Y-53362038D02*
X123266095Y-53514419D01*
X123266095Y-53514419D02*
X123304190Y-53590609D01*
X123304190Y-53590609D02*
X123380380Y-53666800D01*
X123380380Y-53666800D02*
X123494666Y-53704895D01*
X123494666Y-53704895D02*
X123685142Y-53704895D01*
X122313714Y-53666800D02*
X122199428Y-53704895D01*
X122199428Y-53704895D02*
X122008952Y-53704895D01*
X122008952Y-53704895D02*
X121932761Y-53666800D01*
X121932761Y-53666800D02*
X121894666Y-53628704D01*
X121894666Y-53628704D02*
X121856571Y-53552514D01*
X121856571Y-53552514D02*
X121856571Y-53476323D01*
X121856571Y-53476323D02*
X121894666Y-53400133D01*
X121894666Y-53400133D02*
X121932761Y-53362038D01*
X121932761Y-53362038D02*
X122008952Y-53323942D01*
X122008952Y-53323942D02*
X122161333Y-53285847D01*
X122161333Y-53285847D02*
X122237523Y-53247752D01*
X122237523Y-53247752D02*
X122275618Y-53209657D01*
X122275618Y-53209657D02*
X122313714Y-53133466D01*
X122313714Y-53133466D02*
X122313714Y-53057276D01*
X122313714Y-53057276D02*
X122275618Y-52981085D01*
X122275618Y-52981085D02*
X122237523Y-52942990D01*
X122237523Y-52942990D02*
X122161333Y-52904895D01*
X122161333Y-52904895D02*
X121970856Y-52904895D01*
X121970856Y-52904895D02*
X121856571Y-52942990D01*
X121627999Y-52904895D02*
X121170856Y-52904895D01*
X121399428Y-53704895D02*
X121399428Y-52904895D01*
X120637523Y-53285847D02*
X120523237Y-53323942D01*
X120523237Y-53323942D02*
X120485142Y-53362038D01*
X120485142Y-53362038D02*
X120447046Y-53438228D01*
X120447046Y-53438228D02*
X120447046Y-53552514D01*
X120447046Y-53552514D02*
X120485142Y-53628704D01*
X120485142Y-53628704D02*
X120523237Y-53666800D01*
X120523237Y-53666800D02*
X120599427Y-53704895D01*
X120599427Y-53704895D02*
X120904189Y-53704895D01*
X120904189Y-53704895D02*
X120904189Y-52904895D01*
X120904189Y-52904895D02*
X120637523Y-52904895D01*
X120637523Y-52904895D02*
X120561332Y-52942990D01*
X120561332Y-52942990D02*
X120523237Y-52981085D01*
X120523237Y-52981085D02*
X120485142Y-53057276D01*
X120485142Y-53057276D02*
X120485142Y-53133466D01*
X120485142Y-53133466D02*
X120523237Y-53209657D01*
X120523237Y-53209657D02*
X120561332Y-53247752D01*
X120561332Y-53247752D02*
X120637523Y-53285847D01*
X120637523Y-53285847D02*
X120904189Y-53285847D01*
X119951808Y-53323942D02*
X119951808Y-53704895D01*
X120218475Y-52904895D02*
X119951808Y-53323942D01*
X119951808Y-53323942D02*
X119685142Y-52904895D01*
X81025904Y-72863419D02*
X80454476Y-72863419D01*
X80740190Y-73863419D02*
X80740190Y-72863419D01*
X79597333Y-73863419D02*
X80168761Y-73863419D01*
X79883047Y-73863419D02*
X79883047Y-72863419D01*
X79883047Y-72863419D02*
X79978285Y-73006276D01*
X79978285Y-73006276D02*
X80073523Y-73101514D01*
X80073523Y-73101514D02*
X80168761Y-73149133D01*
X115569904Y-72863419D02*
X114998476Y-72863419D01*
X115284190Y-73863419D02*
X115284190Y-72863419D01*
X114760380Y-72863419D02*
X114141333Y-72863419D01*
X114141333Y-72863419D02*
X114474666Y-73244371D01*
X114474666Y-73244371D02*
X114331809Y-73244371D01*
X114331809Y-73244371D02*
X114236571Y-73291990D01*
X114236571Y-73291990D02*
X114188952Y-73339609D01*
X114188952Y-73339609D02*
X114141333Y-73434847D01*
X114141333Y-73434847D02*
X114141333Y-73672942D01*
X114141333Y-73672942D02*
X114188952Y-73768180D01*
X114188952Y-73768180D02*
X114236571Y-73815800D01*
X114236571Y-73815800D02*
X114331809Y-73863419D01*
X114331809Y-73863419D02*
X114617523Y-73863419D01*
X114617523Y-73863419D02*
X114712761Y-73815800D01*
X114712761Y-73815800D02*
X114760380Y-73768180D01*
X125380381Y-57006895D02*
X125761333Y-57006895D01*
X125761333Y-57006895D02*
X125761333Y-56206895D01*
X125113714Y-56587847D02*
X124847048Y-56587847D01*
X124732762Y-57006895D02*
X125113714Y-57006895D01*
X125113714Y-57006895D02*
X125113714Y-56206895D01*
X125113714Y-56206895D02*
X124732762Y-56206895D01*
X124389904Y-57006895D02*
X124389904Y-56206895D01*
X124389904Y-56206895D02*
X124199428Y-56206895D01*
X124199428Y-56206895D02*
X124085142Y-56244990D01*
X124085142Y-56244990D02*
X124008952Y-56321180D01*
X124008952Y-56321180D02*
X123970857Y-56397371D01*
X123970857Y-56397371D02*
X123932761Y-56549752D01*
X123932761Y-56549752D02*
X123932761Y-56664038D01*
X123932761Y-56664038D02*
X123970857Y-56816419D01*
X123970857Y-56816419D02*
X124008952Y-56892609D01*
X124008952Y-56892609D02*
X124085142Y-56968800D01*
X124085142Y-56968800D02*
X124199428Y-57006895D01*
X124199428Y-57006895D02*
X124389904Y-57006895D01*
X123018476Y-56968800D02*
X122904190Y-57006895D01*
X122904190Y-57006895D02*
X122713714Y-57006895D01*
X122713714Y-57006895D02*
X122637523Y-56968800D01*
X122637523Y-56968800D02*
X122599428Y-56930704D01*
X122599428Y-56930704D02*
X122561333Y-56854514D01*
X122561333Y-56854514D02*
X122561333Y-56778323D01*
X122561333Y-56778323D02*
X122599428Y-56702133D01*
X122599428Y-56702133D02*
X122637523Y-56664038D01*
X122637523Y-56664038D02*
X122713714Y-56625942D01*
X122713714Y-56625942D02*
X122866095Y-56587847D01*
X122866095Y-56587847D02*
X122942285Y-56549752D01*
X122942285Y-56549752D02*
X122980380Y-56511657D01*
X122980380Y-56511657D02*
X123018476Y-56435466D01*
X123018476Y-56435466D02*
X123018476Y-56359276D01*
X123018476Y-56359276D02*
X122980380Y-56283085D01*
X122980380Y-56283085D02*
X122942285Y-56244990D01*
X122942285Y-56244990D02*
X122866095Y-56206895D01*
X122866095Y-56206895D02*
X122675618Y-56206895D01*
X122675618Y-56206895D02*
X122561333Y-56244990D01*
X122332761Y-56206895D02*
X121875618Y-56206895D01*
X122104190Y-57006895D02*
X122104190Y-56206895D01*
X121647047Y-56778323D02*
X121266094Y-56778323D01*
X121723237Y-57006895D02*
X121456570Y-56206895D01*
X121456570Y-56206895D02*
X121189904Y-57006895D01*
X121037523Y-56206895D02*
X120580380Y-56206895D01*
X120808952Y-57006895D02*
X120808952Y-56206895D01*
X120313713Y-56206895D02*
X120313713Y-56854514D01*
X120313713Y-56854514D02*
X120275618Y-56930704D01*
X120275618Y-56930704D02*
X120237523Y-56968800D01*
X120237523Y-56968800D02*
X120161332Y-57006895D01*
X120161332Y-57006895D02*
X120008951Y-57006895D01*
X120008951Y-57006895D02*
X119932761Y-56968800D01*
X119932761Y-56968800D02*
X119894666Y-56930704D01*
X119894666Y-56930704D02*
X119856570Y-56854514D01*
X119856570Y-56854514D02*
X119856570Y-56206895D01*
X119513714Y-56968800D02*
X119399428Y-57006895D01*
X119399428Y-57006895D02*
X119208952Y-57006895D01*
X119208952Y-57006895D02*
X119132761Y-56968800D01*
X119132761Y-56968800D02*
X119094666Y-56930704D01*
X119094666Y-56930704D02*
X119056571Y-56854514D01*
X119056571Y-56854514D02*
X119056571Y-56778323D01*
X119056571Y-56778323D02*
X119094666Y-56702133D01*
X119094666Y-56702133D02*
X119132761Y-56664038D01*
X119132761Y-56664038D02*
X119208952Y-56625942D01*
X119208952Y-56625942D02*
X119361333Y-56587847D01*
X119361333Y-56587847D02*
X119437523Y-56549752D01*
X119437523Y-56549752D02*
X119475618Y-56511657D01*
X119475618Y-56511657D02*
X119513714Y-56435466D01*
X119513714Y-56435466D02*
X119513714Y-56359276D01*
X119513714Y-56359276D02*
X119475618Y-56283085D01*
X119475618Y-56283085D02*
X119437523Y-56244990D01*
X119437523Y-56244990D02*
X119361333Y-56206895D01*
X119361333Y-56206895D02*
X119170856Y-56206895D01*
X119170856Y-56206895D02*
X119056571Y-56244990D01*
X125570857Y-50656895D02*
X125951809Y-50656895D01*
X125951809Y-50656895D02*
X125951809Y-49856895D01*
X125304190Y-50237847D02*
X125037524Y-50237847D01*
X124923238Y-50656895D02*
X125304190Y-50656895D01*
X125304190Y-50656895D02*
X125304190Y-49856895D01*
X125304190Y-49856895D02*
X124923238Y-49856895D01*
X124580380Y-50656895D02*
X124580380Y-49856895D01*
X124580380Y-49856895D02*
X124389904Y-49856895D01*
X124389904Y-49856895D02*
X124275618Y-49894990D01*
X124275618Y-49894990D02*
X124199428Y-49971180D01*
X124199428Y-49971180D02*
X124161333Y-50047371D01*
X124161333Y-50047371D02*
X124123237Y-50199752D01*
X124123237Y-50199752D02*
X124123237Y-50314038D01*
X124123237Y-50314038D02*
X124161333Y-50466419D01*
X124161333Y-50466419D02*
X124199428Y-50542609D01*
X124199428Y-50542609D02*
X124275618Y-50618800D01*
X124275618Y-50618800D02*
X124389904Y-50656895D01*
X124389904Y-50656895D02*
X124580380Y-50656895D01*
X122713713Y-50580704D02*
X122751809Y-50618800D01*
X122751809Y-50618800D02*
X122866094Y-50656895D01*
X122866094Y-50656895D02*
X122942285Y-50656895D01*
X122942285Y-50656895D02*
X123056571Y-50618800D01*
X123056571Y-50618800D02*
X123132761Y-50542609D01*
X123132761Y-50542609D02*
X123170856Y-50466419D01*
X123170856Y-50466419D02*
X123208952Y-50314038D01*
X123208952Y-50314038D02*
X123208952Y-50199752D01*
X123208952Y-50199752D02*
X123170856Y-50047371D01*
X123170856Y-50047371D02*
X123132761Y-49971180D01*
X123132761Y-49971180D02*
X123056571Y-49894990D01*
X123056571Y-49894990D02*
X122942285Y-49856895D01*
X122942285Y-49856895D02*
X122866094Y-49856895D01*
X122866094Y-49856895D02*
X122751809Y-49894990D01*
X122751809Y-49894990D02*
X122713713Y-49933085D01*
X122370856Y-50656895D02*
X122370856Y-49856895D01*
X122370856Y-50237847D02*
X121913713Y-50237847D01*
X121913713Y-50656895D02*
X121913713Y-49856895D01*
X121570857Y-50428323D02*
X121189904Y-50428323D01*
X121647047Y-50656895D02*
X121380380Y-49856895D01*
X121380380Y-49856895D02*
X121113714Y-50656895D01*
X120389904Y-50656895D02*
X120656571Y-50275942D01*
X120847047Y-50656895D02*
X120847047Y-49856895D01*
X120847047Y-49856895D02*
X120542285Y-49856895D01*
X120542285Y-49856895D02*
X120466095Y-49894990D01*
X120466095Y-49894990D02*
X120428000Y-49933085D01*
X120428000Y-49933085D02*
X120389904Y-50009276D01*
X120389904Y-50009276D02*
X120389904Y-50123561D01*
X120389904Y-50123561D02*
X120428000Y-50199752D01*
X120428000Y-50199752D02*
X120466095Y-50237847D01*
X120466095Y-50237847D02*
X120542285Y-50275942D01*
X120542285Y-50275942D02*
X120847047Y-50275942D01*
X119628000Y-49894990D02*
X119704190Y-49856895D01*
X119704190Y-49856895D02*
X119818476Y-49856895D01*
X119818476Y-49856895D02*
X119932762Y-49894990D01*
X119932762Y-49894990D02*
X120008952Y-49971180D01*
X120008952Y-49971180D02*
X120047047Y-50047371D01*
X120047047Y-50047371D02*
X120085143Y-50199752D01*
X120085143Y-50199752D02*
X120085143Y-50314038D01*
X120085143Y-50314038D02*
X120047047Y-50466419D01*
X120047047Y-50466419D02*
X120008952Y-50542609D01*
X120008952Y-50542609D02*
X119932762Y-50618800D01*
X119932762Y-50618800D02*
X119818476Y-50656895D01*
X119818476Y-50656895D02*
X119742285Y-50656895D01*
X119742285Y-50656895D02*
X119628000Y-50618800D01*
X119628000Y-50618800D02*
X119589904Y-50580704D01*
X119589904Y-50580704D02*
X119589904Y-50314038D01*
X119589904Y-50314038D02*
X119742285Y-50314038D01*
X119247047Y-50237847D02*
X118980381Y-50237847D01*
X118866095Y-50656895D02*
X119247047Y-50656895D01*
X119247047Y-50656895D02*
X119247047Y-49856895D01*
X119247047Y-49856895D02*
X118866095Y-49856895D01*
%TO.C,G\u002A\u002A\u002A*%
G36*
X76966229Y-52726795D02*
G01*
X77331184Y-52727321D01*
X77589548Y-52976243D01*
X77847912Y-53225166D01*
X77847912Y-54135434D01*
X77847912Y-55045703D01*
X77589548Y-55294626D01*
X77331184Y-55543548D01*
X76966229Y-55544074D01*
X76601274Y-55544601D01*
X76348776Y-55305377D01*
X76339099Y-55296185D01*
X76261593Y-55220848D01*
X76193399Y-55151624D01*
X76138633Y-55092910D01*
X76101411Y-55049100D01*
X76085847Y-55024589D01*
X76084035Y-55012512D01*
X76094885Y-54966816D01*
X76126004Y-54929716D01*
X76167596Y-54914414D01*
X76189091Y-54925988D01*
X76231044Y-54958364D01*
X76288918Y-55007710D01*
X76358219Y-55070194D01*
X76434452Y-55141982D01*
X76671217Y-55369549D01*
X76966190Y-55368865D01*
X77261163Y-55368182D01*
X77466849Y-55168294D01*
X77672535Y-54968406D01*
X77672535Y-54135434D01*
X77672535Y-53302462D01*
X77466849Y-53102575D01*
X77261163Y-52902687D01*
X76966190Y-52902003D01*
X76671217Y-52901320D01*
X76434452Y-53128887D01*
X76358537Y-53200382D01*
X76289196Y-53262914D01*
X76231263Y-53312326D01*
X76189231Y-53344783D01*
X76167596Y-53356454D01*
X76155913Y-53355226D01*
X76116178Y-53332750D01*
X76089557Y-53292034D01*
X76085847Y-53246280D01*
X76086431Y-53244514D01*
X76104795Y-53217469D01*
X76144328Y-53171649D01*
X76200912Y-53111450D01*
X76270434Y-53041266D01*
X76348776Y-52965492D01*
X76601274Y-52726268D01*
X76966229Y-52726795D01*
G37*
G36*
X79131772Y-52726281D02*
G01*
X79296044Y-52726523D01*
X79429623Y-52727171D01*
X79535786Y-52728352D01*
X79617812Y-52730194D01*
X79678981Y-52732824D01*
X79722571Y-52736370D01*
X79751861Y-52740959D01*
X79770130Y-52746719D01*
X79780657Y-52753776D01*
X79796326Y-52775274D01*
X79808165Y-52813794D01*
X79806372Y-52837758D01*
X79796349Y-52861905D01*
X79773533Y-52879119D01*
X79733486Y-52890533D01*
X79671768Y-52897282D01*
X79583940Y-52900499D01*
X79465564Y-52901320D01*
X79177979Y-52901320D01*
X79177979Y-54184055D01*
X79177921Y-54417099D01*
X79177703Y-54631503D01*
X79177275Y-54815513D01*
X79176590Y-54971500D01*
X79175597Y-55101836D01*
X79174248Y-55208894D01*
X79172494Y-55295043D01*
X79170286Y-55362657D01*
X79167576Y-55414107D01*
X79164314Y-55451764D01*
X79160451Y-55478000D01*
X79155939Y-55495186D01*
X79150729Y-55505695D01*
X79112440Y-55536433D01*
X79065244Y-55543236D01*
X79023934Y-55523594D01*
X79020854Y-55516149D01*
X79017062Y-55491033D01*
X79013791Y-55447088D01*
X79011012Y-55382516D01*
X79008695Y-55295520D01*
X79006814Y-55184302D01*
X79005339Y-55047064D01*
X79004241Y-54882008D01*
X79003492Y-54687336D01*
X79003064Y-54461251D01*
X79002928Y-54201954D01*
X79002928Y-52901320D01*
X78697838Y-52901320D01*
X78695541Y-52901320D01*
X78574490Y-52900576D01*
X78484007Y-52897676D01*
X78419738Y-52891562D01*
X78377330Y-52881174D01*
X78352428Y-52865456D01*
X78340680Y-52843349D01*
X78337731Y-52813794D01*
X78342663Y-52790344D01*
X78365239Y-52753776D01*
X78367928Y-52751398D01*
X78380548Y-52744764D01*
X78401945Y-52739389D01*
X78435400Y-52735143D01*
X78484191Y-52731900D01*
X78551597Y-52729533D01*
X78640897Y-52727913D01*
X78755369Y-52726915D01*
X78898293Y-52726409D01*
X79072948Y-52726268D01*
X79131772Y-52726281D01*
G37*
G36*
X84231982Y-48156918D02*
G01*
X84233437Y-48241670D01*
X84234577Y-48345270D01*
X84235441Y-48469736D01*
X84236068Y-48617091D01*
X84236496Y-48789354D01*
X84236762Y-48988545D01*
X84236905Y-49216685D01*
X84236962Y-49475795D01*
X84236973Y-49767895D01*
X84236972Y-49898668D01*
X84236945Y-50176222D01*
X84236855Y-50421662D01*
X84236664Y-50637008D01*
X84236332Y-50824281D01*
X84235823Y-50985500D01*
X84235098Y-51122687D01*
X84234119Y-51237863D01*
X84232847Y-51333046D01*
X84231245Y-51410258D01*
X84229275Y-51471519D01*
X84226898Y-51518850D01*
X84224076Y-51554271D01*
X84220772Y-51579803D01*
X84216946Y-51597465D01*
X84212562Y-51609279D01*
X84207580Y-51617265D01*
X84201963Y-51623443D01*
X84196637Y-51628474D01*
X84186333Y-51635731D01*
X84171570Y-51641711D01*
X84149291Y-51646539D01*
X84116442Y-51650338D01*
X84069969Y-51653230D01*
X84006815Y-51655339D01*
X83923926Y-51656789D01*
X83818247Y-51657702D01*
X83686722Y-51658201D01*
X83526297Y-51658411D01*
X83333917Y-51658453D01*
X82500883Y-51658453D01*
X82408324Y-51566551D01*
X82395485Y-51553727D01*
X82347708Y-51505438D01*
X82282594Y-51439112D01*
X82205170Y-51359889D01*
X82120463Y-51272910D01*
X82033502Y-51183315D01*
X81751239Y-50891982D01*
X81751239Y-50809097D01*
X81978806Y-50809097D01*
X82289341Y-51119992D01*
X82599875Y-51430886D01*
X83304640Y-51430886D01*
X84009406Y-51430886D01*
X84009406Y-49767895D01*
X84009406Y-48104904D01*
X83304550Y-48104904D01*
X82599694Y-48104904D01*
X82289250Y-48403939D01*
X81978806Y-48702975D01*
X81978806Y-49756036D01*
X81978806Y-50809097D01*
X81751239Y-50809097D01*
X81751239Y-49756106D01*
X81751239Y-48620231D01*
X82124155Y-48248784D01*
X82497070Y-47877337D01*
X83332011Y-47877337D01*
X83454541Y-47877350D01*
X83627122Y-47877480D01*
X83769623Y-47877852D01*
X83885095Y-47878588D01*
X83976589Y-47879813D01*
X84047156Y-47881647D01*
X84099847Y-47884215D01*
X84137714Y-47887638D01*
X84163807Y-47892040D01*
X84181179Y-47897544D01*
X84192881Y-47904272D01*
X84201963Y-47912347D01*
X84204478Y-47914932D01*
X84209815Y-47921645D01*
X84214533Y-47931042D01*
X84218671Y-47945142D01*
X84222266Y-47965967D01*
X84225356Y-47995537D01*
X84227980Y-48035871D01*
X84230176Y-48088991D01*
X84230599Y-48104904D01*
X84231982Y-48156918D01*
G37*
G36*
X75525344Y-52731200D02*
G01*
X75561912Y-52753776D01*
X75564388Y-52756820D01*
X75569187Y-52767450D01*
X75573339Y-52785575D01*
X75576891Y-52813489D01*
X75579887Y-52853484D01*
X75582375Y-52907854D01*
X75584399Y-52978891D01*
X75586005Y-53068888D01*
X75587238Y-53180139D01*
X75588145Y-53314935D01*
X75588771Y-53475569D01*
X75589162Y-53664336D01*
X75589363Y-53883526D01*
X75589420Y-54135434D01*
X75589408Y-54257363D01*
X75589290Y-54493698D01*
X75589006Y-54698386D01*
X75588511Y-54873722D01*
X75587759Y-55021998D01*
X75586705Y-55145506D01*
X75585304Y-55246540D01*
X75583508Y-55327392D01*
X75581273Y-55390355D01*
X75578553Y-55437723D01*
X75575303Y-55471788D01*
X75571476Y-55494842D01*
X75567028Y-55509179D01*
X75561912Y-55517092D01*
X75540414Y-55532761D01*
X75501894Y-55544601D01*
X75478444Y-55539668D01*
X75441876Y-55517092D01*
X75439086Y-55513967D01*
X75431079Y-55498853D01*
X75424967Y-55473448D01*
X75420507Y-55433630D01*
X75417459Y-55375282D01*
X75415581Y-55294284D01*
X75414631Y-55186517D01*
X75414368Y-55047861D01*
X75414368Y-54606137D01*
X75215746Y-54410172D01*
X75017125Y-54214208D01*
X74801687Y-54214208D01*
X74586249Y-54214208D01*
X74387628Y-54410172D01*
X74189006Y-54606137D01*
X74189006Y-55047861D01*
X74188985Y-55092691D01*
X74188543Y-55221703D01*
X74187341Y-55321056D01*
X74185139Y-55394868D01*
X74181696Y-55447258D01*
X74176768Y-55482346D01*
X74170116Y-55504251D01*
X74161498Y-55517092D01*
X74140000Y-55532761D01*
X74101480Y-55544601D01*
X74078030Y-55539668D01*
X74041463Y-55517092D01*
X74035851Y-55509862D01*
X74028756Y-55492260D01*
X74023341Y-55463323D01*
X74019390Y-55419106D01*
X74016691Y-55355662D01*
X74015028Y-55269047D01*
X74014187Y-55155315D01*
X74013955Y-55010521D01*
X74013955Y-54531457D01*
X74254651Y-54294481D01*
X74495347Y-54057504D01*
X74801341Y-54057083D01*
X75107335Y-54056661D01*
X75260851Y-54209466D01*
X75414368Y-54362272D01*
X75414368Y-53571778D01*
X75414369Y-53548667D01*
X75414512Y-53363183D01*
X75414962Y-53209336D01*
X75415822Y-53084093D01*
X75417194Y-52984426D01*
X75419179Y-52907303D01*
X75421880Y-52849694D01*
X75425398Y-52808567D01*
X75429836Y-52780892D01*
X75435294Y-52763639D01*
X75441876Y-52753776D01*
X75463374Y-52738108D01*
X75501894Y-52726268D01*
X75525344Y-52731200D01*
G37*
G36*
X81554218Y-54577232D02*
G01*
X81613778Y-54759270D01*
X81668099Y-54925933D01*
X81716355Y-55074671D01*
X81757720Y-55202932D01*
X81791367Y-55308166D01*
X81816470Y-55387823D01*
X81832203Y-55439351D01*
X81837739Y-55460201D01*
X81833268Y-55482197D01*
X81811257Y-55517092D01*
X81786755Y-55534750D01*
X81738723Y-55542858D01*
X81695523Y-55521394D01*
X81686712Y-55505274D01*
X81667608Y-55459071D01*
X81640959Y-55388184D01*
X81608498Y-55297374D01*
X81571956Y-55191397D01*
X81533065Y-55075012D01*
X81393814Y-54651837D01*
X80883017Y-54651837D01*
X80372219Y-54651837D01*
X80306648Y-54831265D01*
X80266066Y-54942313D01*
X80210264Y-55094692D01*
X80164382Y-55218894D01*
X80127102Y-55317801D01*
X80097103Y-55394295D01*
X80073064Y-55451259D01*
X80053667Y-55491576D01*
X80037590Y-55518128D01*
X80023514Y-55533797D01*
X80010119Y-55541466D01*
X79996085Y-55544017D01*
X79980091Y-55544332D01*
X79943802Y-55532260D01*
X79910179Y-55501603D01*
X79895691Y-55466007D01*
X79898137Y-55453987D01*
X79910727Y-55410416D01*
X79933094Y-55339020D01*
X79964194Y-55242849D01*
X80002980Y-55124955D01*
X80048407Y-54988388D01*
X80099429Y-54836199D01*
X80155002Y-54671440D01*
X80214079Y-54497160D01*
X80221016Y-54476785D01*
X80404208Y-54476785D01*
X80869534Y-54476785D01*
X80918372Y-54476762D01*
X81050169Y-54476325D01*
X81151580Y-54475196D01*
X81226113Y-54473188D01*
X81277275Y-54470116D01*
X81308573Y-54465795D01*
X81323513Y-54460039D01*
X81325604Y-54452663D01*
X81324601Y-54449854D01*
X81314473Y-54419734D01*
X81295062Y-54361081D01*
X81267585Y-54277613D01*
X81233266Y-54173046D01*
X81193322Y-54051098D01*
X81148976Y-53915487D01*
X81101448Y-53769929D01*
X81086068Y-53722927D01*
X81039527Y-53582351D01*
X80996356Y-53454376D01*
X80957774Y-53342457D01*
X80925000Y-53250051D01*
X80899255Y-53180615D01*
X80881757Y-53137605D01*
X80873726Y-53124479D01*
X80873407Y-53124898D01*
X80864142Y-53146798D01*
X80845212Y-53197823D01*
X80817924Y-53274239D01*
X80783589Y-53372309D01*
X80743515Y-53488295D01*
X80699012Y-53618462D01*
X80651388Y-53759073D01*
X80648978Y-53766218D01*
X80601028Y-53908221D01*
X80556020Y-54041124D01*
X80515324Y-54160913D01*
X80480309Y-54263574D01*
X80452344Y-54345092D01*
X80432797Y-54401455D01*
X80423039Y-54428646D01*
X80404208Y-54476785D01*
X80221016Y-54476785D01*
X80275614Y-54316412D01*
X80338564Y-54132245D01*
X80401881Y-53947712D01*
X80464521Y-53765862D01*
X80525437Y-53589747D01*
X80583585Y-53422418D01*
X80637918Y-53266925D01*
X80687392Y-53126320D01*
X80730961Y-53003653D01*
X80767579Y-52901976D01*
X80796201Y-52824339D01*
X80815781Y-52773794D01*
X80825273Y-52753390D01*
X80832145Y-52746496D01*
X80863910Y-52728694D01*
X80904948Y-52735885D01*
X80911313Y-52738665D01*
X80920399Y-52745376D01*
X80930279Y-52757288D01*
X80941733Y-52776561D01*
X80955539Y-52805353D01*
X80972477Y-52845822D01*
X80993327Y-52900127D01*
X81018867Y-52970426D01*
X81049877Y-53058878D01*
X81087136Y-53167641D01*
X81131423Y-53298874D01*
X81183519Y-53454735D01*
X81244201Y-53637382D01*
X81314250Y-53848975D01*
X81394444Y-54091671D01*
X81422685Y-54177234D01*
X81490244Y-54382370D01*
X81513321Y-54452663D01*
X81554218Y-54577232D01*
G37*
G36*
X84116129Y-52746832D02*
G01*
X84141356Y-52784327D01*
X84141419Y-52784651D01*
X84138187Y-52809093D01*
X84126485Y-52864834D01*
X84106916Y-52949472D01*
X84080078Y-53060606D01*
X84046572Y-53195835D01*
X84007000Y-53352757D01*
X83961960Y-53528971D01*
X83912054Y-53722075D01*
X83857883Y-53929668D01*
X83800046Y-54149349D01*
X83784230Y-54209173D01*
X83729730Y-54415430D01*
X83678090Y-54611026D01*
X83629988Y-54793384D01*
X83586100Y-54959929D01*
X83547105Y-55108084D01*
X83513681Y-55235275D01*
X83486505Y-55338924D01*
X83466254Y-55416457D01*
X83453607Y-55465297D01*
X83449241Y-55482868D01*
X83443538Y-55492652D01*
X83421732Y-55517092D01*
X83395567Y-55536013D01*
X83348539Y-55541519D01*
X83305249Y-55513966D01*
X83299444Y-55504025D01*
X83281344Y-55463158D01*
X83254342Y-55395818D01*
X83220028Y-55306194D01*
X83179994Y-55198470D01*
X83135832Y-55076835D01*
X83089132Y-54945473D01*
X83059807Y-54862291D01*
X83016375Y-54739748D01*
X82977571Y-54631055D01*
X82944782Y-54540050D01*
X82919395Y-54470574D01*
X82902795Y-54426466D01*
X82896368Y-54411565D01*
X82893806Y-54417962D01*
X82881091Y-54452750D01*
X82859030Y-54514293D01*
X82829019Y-54598660D01*
X82792455Y-54701924D01*
X82750734Y-54820155D01*
X82705251Y-54949425D01*
X82679306Y-55022736D01*
X82633714Y-55148994D01*
X82591300Y-55263293D01*
X82553701Y-55361401D01*
X82522552Y-55439086D01*
X82499488Y-55492118D01*
X82486146Y-55516264D01*
X82472188Y-55527611D01*
X82428071Y-55539978D01*
X82384487Y-55528921D01*
X82355847Y-55496612D01*
X82354497Y-55492939D01*
X82342502Y-55454489D01*
X82323230Y-55387106D01*
X82297493Y-55293930D01*
X82266104Y-55178099D01*
X82229873Y-55042752D01*
X82189614Y-54891029D01*
X82146137Y-54726067D01*
X82100255Y-54551005D01*
X82052779Y-54368983D01*
X82004522Y-54183140D01*
X81956295Y-53996613D01*
X81908910Y-53812542D01*
X81863179Y-53634066D01*
X81819914Y-53464324D01*
X81779926Y-53306454D01*
X81744028Y-53163595D01*
X81713032Y-53038886D01*
X81687749Y-52935466D01*
X81668992Y-52856473D01*
X81657571Y-52805047D01*
X81654300Y-52784327D01*
X81672855Y-52752509D01*
X81715157Y-52731397D01*
X81768382Y-52734906D01*
X81775672Y-52736692D01*
X81782125Y-52738487D01*
X81788322Y-52742524D01*
X81794923Y-52751058D01*
X81802587Y-52766348D01*
X81811974Y-52790649D01*
X81823744Y-52826220D01*
X81838557Y-52875317D01*
X81857073Y-52940196D01*
X81879952Y-53023116D01*
X81907852Y-53126332D01*
X81941435Y-53252102D01*
X81981360Y-53402684D01*
X82028286Y-53580333D01*
X82082874Y-53787306D01*
X82145783Y-54025862D01*
X82168158Y-54110583D01*
X82217595Y-54297050D01*
X82264188Y-54471799D01*
X82307183Y-54632060D01*
X82345826Y-54775066D01*
X82379365Y-54898047D01*
X82407045Y-54998235D01*
X82428114Y-55072861D01*
X82441819Y-55119156D01*
X82447405Y-55134352D01*
X82450333Y-55127945D01*
X82463725Y-55093029D01*
X82486429Y-55031333D01*
X82517010Y-54946832D01*
X82554033Y-54843499D01*
X82596064Y-54725308D01*
X82641668Y-54596234D01*
X82828632Y-54065414D01*
X82897307Y-54065414D01*
X82965982Y-54065414D01*
X83153829Y-54596597D01*
X83180748Y-54672584D01*
X83224609Y-54795816D01*
X83264031Y-54905852D01*
X83297578Y-54998726D01*
X83323814Y-55070472D01*
X83341305Y-55117124D01*
X83348613Y-55134715D01*
X83349986Y-55132035D01*
X83359161Y-55102811D01*
X83376128Y-55043703D01*
X83400135Y-54957482D01*
X83430430Y-54846916D01*
X83466259Y-54714775D01*
X83506870Y-54563830D01*
X83551511Y-54396849D01*
X83599429Y-54216603D01*
X83649872Y-54025862D01*
X83712200Y-53789510D01*
X83766867Y-53582234D01*
X83813866Y-53404306D01*
X83853857Y-53253468D01*
X83887500Y-53127463D01*
X83915453Y-53024034D01*
X83938378Y-52940925D01*
X83956934Y-52875878D01*
X83971781Y-52826636D01*
X83983578Y-52790943D01*
X83992985Y-52766540D01*
X84000663Y-52751173D01*
X84007271Y-52742582D01*
X84013469Y-52738513D01*
X84019916Y-52736706D01*
X84027273Y-52734906D01*
X84070890Y-52730021D01*
X84116129Y-52746832D01*
G37*
G36*
X80554848Y-47877355D02*
G01*
X80725991Y-47877499D01*
X80867306Y-47877891D01*
X80981820Y-47878650D01*
X81072557Y-47879897D01*
X81142543Y-47881752D01*
X81194803Y-47884333D01*
X81232363Y-47887762D01*
X81258248Y-47892158D01*
X81275483Y-47897640D01*
X81287094Y-47904330D01*
X81296105Y-47912347D01*
X81298620Y-47914932D01*
X81303957Y-47921645D01*
X81308675Y-47931042D01*
X81312813Y-47945142D01*
X81316408Y-47965967D01*
X81319498Y-47995537D01*
X81322122Y-48035871D01*
X81324318Y-48088991D01*
X81326124Y-48156918D01*
X81327578Y-48241670D01*
X81328719Y-48345270D01*
X81329583Y-48469736D01*
X81330210Y-48617091D01*
X81330638Y-48789354D01*
X81330904Y-48988545D01*
X81331047Y-49216685D01*
X81331104Y-49475795D01*
X81331115Y-49767895D01*
X81331114Y-49898668D01*
X81331087Y-50176222D01*
X81330997Y-50421662D01*
X81330806Y-50637008D01*
X81330474Y-50824281D01*
X81329965Y-50985500D01*
X81329240Y-51122687D01*
X81328261Y-51237863D01*
X81326989Y-51333046D01*
X81325387Y-51410258D01*
X81323417Y-51471519D01*
X81321040Y-51518850D01*
X81318218Y-51554271D01*
X81314914Y-51579803D01*
X81311088Y-51597465D01*
X81306704Y-51609279D01*
X81301722Y-51617265D01*
X81296105Y-51623443D01*
X81262612Y-51646278D01*
X81217331Y-51658453D01*
X81180261Y-51649927D01*
X81138558Y-51623443D01*
X81138305Y-51623189D01*
X81132598Y-51616839D01*
X81127553Y-51608557D01*
X81123128Y-51596276D01*
X81119283Y-51577928D01*
X81115978Y-51551446D01*
X81113171Y-51514763D01*
X81110822Y-51465811D01*
X81108890Y-51402522D01*
X81107334Y-51322829D01*
X81106114Y-51224666D01*
X81105189Y-51105964D01*
X81104518Y-50964656D01*
X81104060Y-50798675D01*
X81103775Y-50605953D01*
X81103622Y-50384422D01*
X81103560Y-50132017D01*
X81103548Y-49846668D01*
X81103548Y-48104904D01*
X80381723Y-48104904D01*
X79659897Y-48104904D01*
X79453949Y-48310316D01*
X79248000Y-48515728D01*
X79248000Y-48874605D01*
X79248000Y-49233482D01*
X79462176Y-49448173D01*
X79676351Y-49662864D01*
X80327431Y-49662864D01*
X80356110Y-49662863D01*
X80526708Y-49662938D01*
X80665957Y-49663493D01*
X80777040Y-49665005D01*
X80863139Y-49667951D01*
X80927434Y-49672809D01*
X80973109Y-49680058D01*
X81003344Y-49690174D01*
X81021322Y-49703636D01*
X81030224Y-49720920D01*
X81033232Y-49742505D01*
X81033527Y-49768869D01*
X81034082Y-49776858D01*
X81035374Y-49784761D01*
X81035839Y-49792223D01*
X81033880Y-49800923D01*
X81027898Y-49812536D01*
X81016293Y-49828739D01*
X80997468Y-49851208D01*
X80969824Y-49881620D01*
X80931761Y-49921650D01*
X80881682Y-49972975D01*
X80817987Y-50037273D01*
X80739079Y-50116218D01*
X80643358Y-50211487D01*
X80529225Y-50324757D01*
X80395083Y-50457704D01*
X80239333Y-50612005D01*
X80060375Y-50789335D01*
X80042054Y-50807494D01*
X79870955Y-50977045D01*
X79722754Y-51123627D01*
X79595639Y-51248747D01*
X79487799Y-51353906D01*
X79397421Y-51440609D01*
X79322694Y-51510361D01*
X79261805Y-51564665D01*
X79212942Y-51605024D01*
X79174295Y-51632944D01*
X79144049Y-51649927D01*
X79120395Y-51657479D01*
X79101519Y-51657102D01*
X79085609Y-51650301D01*
X79070855Y-51638580D01*
X79055443Y-51623443D01*
X79048140Y-51616128D01*
X79033822Y-51600502D01*
X79023966Y-51584749D01*
X79020142Y-51566983D01*
X79023923Y-51545320D01*
X79036880Y-51517878D01*
X79060584Y-51482770D01*
X79096606Y-51438114D01*
X79146518Y-51382025D01*
X79211891Y-51312618D01*
X79294297Y-51228010D01*
X79395306Y-51126317D01*
X79516491Y-51005654D01*
X79659422Y-50864137D01*
X79825671Y-50699883D01*
X79872706Y-50653395D01*
X80009645Y-50517737D01*
X80138264Y-50389863D01*
X80256484Y-50271868D01*
X80362223Y-50165847D01*
X80453402Y-50073895D01*
X80527941Y-49998110D01*
X80583758Y-49940586D01*
X80618774Y-49903418D01*
X80630908Y-49888704D01*
X80629357Y-49887433D01*
X80602704Y-49883448D01*
X80545829Y-49879946D01*
X80462415Y-49877036D01*
X80356146Y-49874824D01*
X80230706Y-49873418D01*
X80089779Y-49872926D01*
X79548650Y-49872926D01*
X79284541Y-49593889D01*
X79020433Y-49314853D01*
X79020079Y-48863048D01*
X79019726Y-48411244D01*
X79292186Y-48144290D01*
X79564646Y-47877337D01*
X80412870Y-47877337D01*
X80554848Y-47877355D01*
G37*
G36*
X78536088Y-47877786D02*
G01*
X78552129Y-47884858D01*
X78567097Y-47896882D01*
X78582804Y-47912347D01*
X78585318Y-47914932D01*
X78590655Y-47921645D01*
X78595374Y-47931042D01*
X78599511Y-47945142D01*
X78603106Y-47965967D01*
X78606197Y-47995537D01*
X78608821Y-48035871D01*
X78611017Y-48088991D01*
X78612823Y-48156918D01*
X78614277Y-48241670D01*
X78615418Y-48345270D01*
X78616282Y-48469736D01*
X78616909Y-48617091D01*
X78617336Y-48789354D01*
X78617602Y-48988545D01*
X78617745Y-49216685D01*
X78617803Y-49475795D01*
X78617814Y-49767895D01*
X78617813Y-49898668D01*
X78617786Y-50176222D01*
X78617696Y-50421662D01*
X78617505Y-50637008D01*
X78617173Y-50824281D01*
X78616664Y-50985500D01*
X78615939Y-51122687D01*
X78614959Y-51237863D01*
X78613688Y-51333046D01*
X78612086Y-51410258D01*
X78610116Y-51471519D01*
X78607739Y-51518850D01*
X78604917Y-51554271D01*
X78601612Y-51579803D01*
X78597787Y-51597465D01*
X78593402Y-51609279D01*
X78588421Y-51617265D01*
X78582804Y-51623443D01*
X78548254Y-51647516D01*
X78490296Y-51656553D01*
X78432979Y-51633609D01*
X78430320Y-51631537D01*
X78424931Y-51625685D01*
X78420175Y-51616364D01*
X78415999Y-51601471D01*
X78412348Y-51578902D01*
X78409172Y-51546556D01*
X78406415Y-51502330D01*
X78404025Y-51444121D01*
X78401948Y-51369826D01*
X78400132Y-51277343D01*
X78398524Y-51164569D01*
X78397069Y-51029401D01*
X78395716Y-50869736D01*
X78394410Y-50683473D01*
X78393098Y-50468507D01*
X78391728Y-50222737D01*
X78390247Y-49944060D01*
X78381494Y-48279355D01*
X77573362Y-49076140D01*
X77567100Y-49082314D01*
X77400793Y-49246045D01*
X77257438Y-49386632D01*
X77135331Y-49505666D01*
X77032762Y-49604736D01*
X76948026Y-49685435D01*
X76879415Y-49749353D01*
X76825223Y-49798082D01*
X76783741Y-49833213D01*
X76753263Y-49856336D01*
X76732083Y-49869044D01*
X76718492Y-49872926D01*
X76718105Y-49872921D01*
X76704268Y-49868743D01*
X76682783Y-49855684D01*
X76651944Y-49832153D01*
X76610044Y-49796558D01*
X76555375Y-49747309D01*
X76486230Y-49682813D01*
X76400903Y-49601480D01*
X76297687Y-49501717D01*
X76174875Y-49381934D01*
X76030759Y-49240538D01*
X75863633Y-49075940D01*
X75055512Y-48278953D01*
X75046759Y-49943859D01*
X75046071Y-50074414D01*
X75044646Y-50337930D01*
X75043309Y-50569492D01*
X75042007Y-50771203D01*
X75040686Y-50945164D01*
X75039294Y-51093479D01*
X75037776Y-51218250D01*
X75036080Y-51321580D01*
X75034153Y-51405571D01*
X75031941Y-51472325D01*
X75029392Y-51523946D01*
X75026452Y-51562536D01*
X75023068Y-51590198D01*
X75019186Y-51609033D01*
X75014754Y-51621145D01*
X75009719Y-51628636D01*
X75004027Y-51633609D01*
X74965592Y-51652730D01*
X74906722Y-51653840D01*
X74854203Y-51623443D01*
X74851688Y-51620858D01*
X74846351Y-51614144D01*
X74841632Y-51604748D01*
X74837495Y-51590647D01*
X74833900Y-51569822D01*
X74830809Y-51540253D01*
X74828185Y-51499918D01*
X74825989Y-51446798D01*
X74824183Y-51378872D01*
X74822729Y-51294119D01*
X74821589Y-51190520D01*
X74820724Y-51066053D01*
X74820097Y-50918699D01*
X74819670Y-50746436D01*
X74819404Y-50547245D01*
X74819261Y-50319104D01*
X74819203Y-50059994D01*
X74819192Y-49767895D01*
X74819194Y-49637122D01*
X74819220Y-49359567D01*
X74819310Y-49114128D01*
X74819502Y-48898782D01*
X74819833Y-48711509D01*
X74820342Y-48550289D01*
X74821067Y-48413102D01*
X74822047Y-48297927D01*
X74823318Y-48202744D01*
X74824920Y-48125532D01*
X74826891Y-48064270D01*
X74829267Y-48016939D01*
X74832089Y-47981518D01*
X74835394Y-47955987D01*
X74839219Y-47938324D01*
X74843604Y-47926510D01*
X74848586Y-47918525D01*
X74854203Y-47912347D01*
X74855482Y-47911066D01*
X74871059Y-47895822D01*
X74886039Y-47884135D01*
X74902236Y-47877517D01*
X74921463Y-47877479D01*
X74945533Y-47885532D01*
X74976261Y-47903189D01*
X75015459Y-47931960D01*
X75064942Y-47973358D01*
X75126523Y-48028894D01*
X75202016Y-48100079D01*
X75293234Y-48188425D01*
X75401990Y-48295444D01*
X75530100Y-48422647D01*
X75679375Y-48571545D01*
X75851630Y-48743651D01*
X76718587Y-49609965D01*
X77585418Y-48743651D01*
X77599663Y-48729414D01*
X77770054Y-48559155D01*
X77917608Y-48411987D01*
X78044137Y-48286400D01*
X78151457Y-48180880D01*
X78241381Y-48093917D01*
X78315722Y-48023999D01*
X78376293Y-47969614D01*
X78424909Y-47929252D01*
X78463383Y-47901399D01*
X78493528Y-47884545D01*
X78517158Y-47877178D01*
X78536088Y-47877786D01*
G37*
%TD*%
M02*
