%TF.GenerationSoftware,KiCad,Pcbnew,7.0.9*%
%TF.CreationDate,2023-12-20T20:28:38+02:00*%
%TF.ProjectId,DRM_Watch_V3,44524d5f-5761-4746-9368-5f56332e6b69,rev?*%
%TF.SameCoordinates,Original*%
%TF.FileFunction,Copper,L2,Bot*%
%TF.FilePolarity,Positive*%
%FSLAX46Y46*%
G04 Gerber Fmt 4.6, Leading zero omitted, Abs format (unit mm)*
G04 Created by KiCad (PCBNEW 7.0.9) date 2023-12-20 20:28:38*
%MOMM*%
%LPD*%
G01*
G04 APERTURE LIST*
%TA.AperFunction,ComponentPad*%
%ADD10C,3.500000*%
%TD*%
%TA.AperFunction,ComponentPad*%
%ADD11C,1.000000*%
%TD*%
%TA.AperFunction,SMDPad,CuDef*%
%ADD12C,12.000000*%
%TD*%
%TA.AperFunction,ComponentPad*%
%ADD13C,0.700000*%
%TD*%
%TA.AperFunction,ComponentPad*%
%ADD14R,0.900000X0.500000*%
%TD*%
%TA.AperFunction,ComponentPad*%
%ADD15O,2.000000X0.900000*%
%TD*%
%TA.AperFunction,ComponentPad*%
%ADD16O,1.700000X0.900000*%
%TD*%
%TA.AperFunction,ComponentPad*%
%ADD17C,0.500000*%
%TD*%
%TA.AperFunction,SMDPad,CuDef*%
%ADD18R,4.000000X4.000000*%
%TD*%
%TA.AperFunction,ViaPad*%
%ADD19C,0.800000*%
%TD*%
%TA.AperFunction,Conductor*%
%ADD20C,0.250000*%
%TD*%
%TA.AperFunction,Conductor*%
%ADD21C,0.150000*%
%TD*%
G04 APERTURE END LIST*
D10*
%TO.P,M2,1*%
%TO.N,GND*%
X124460000Y-47752000D03*
%TD*%
D11*
%TO.P,T2,1,touch*%
%TO.N,Net-(T2-touch)*%
X97536000Y-77470000D03*
D12*
X97536000Y-77470000D03*
%TD*%
D13*
%TO.P,S2,3,Shield*%
%TO.N,GND*%
X67518000Y-64428000D03*
X67518000Y-66128000D03*
%TD*%
D14*
%TO.P,AE1,1,FEED*%
%TO.N,GND*%
X105088000Y-49022000D03*
%TD*%
D13*
%TO.P,S1,3,Shield*%
%TO.N,GND*%
X67518000Y-51220000D03*
X67518000Y-52920000D03*
%TD*%
%TO.P,S4,3,Shield*%
%TO.N,GND*%
X67518000Y-77636000D03*
X67518000Y-79336000D03*
%TD*%
D11*
%TO.P,T1,1,touch*%
%TO.N,Net-(T1-touch)*%
X80264000Y-77470000D03*
D12*
X80264000Y-77470000D03*
%TD*%
D10*
%TO.P,M3,1*%
%TO.N,GND*%
X95250000Y-48006000D03*
%TD*%
D13*
%TO.P,S3,3,Shield*%
%TO.N,GND*%
X123637000Y-79678000D03*
X123637000Y-77978000D03*
%TD*%
D10*
%TO.P,M1,1*%
%TO.N,GND*%
X71120000Y-83312000D03*
%TD*%
D15*
%TO.P,J1,S1,SHIELD*%
%TO.N,GND*%
X122500000Y-69356000D03*
%TO.P,J1,S2,SHIELD*%
X122500000Y-60706000D03*
D16*
%TO.P,J1,S3,SHIELD*%
X126670000Y-69356000D03*
%TO.P,J1,S4,SHIELD*%
X126670000Y-60706000D03*
%TD*%
D11*
%TO.P,T3,1,touch*%
%TO.N,Net-(T3-touch)*%
X114808000Y-77470000D03*
D12*
X114808000Y-77470000D03*
%TD*%
D17*
%TO.P,U1,57,GND*%
%TO.N,GND*%
X103039000Y-65109000D03*
X104789000Y-65109000D03*
X106539000Y-65109000D03*
X103039000Y-63359000D03*
X104789000Y-63359000D03*
D18*
X104789000Y-63359000D03*
D17*
X106539000Y-63359000D03*
X103039000Y-61609000D03*
X104789000Y-61609000D03*
X106539000Y-61609000D03*
%TD*%
D19*
%TO.N,GND*%
X115062000Y-56134000D03*
X68580000Y-48006000D03*
X89916000Y-44450000D03*
X80518000Y-44704000D03*
X86868000Y-63246000D03*
X74422000Y-83820000D03*
X122174000Y-82042000D03*
X108966000Y-82550000D03*
X89662000Y-81534000D03*
X105156000Y-73914000D03*
X105664000Y-76454000D03*
X107696000Y-53848000D03*
X71628000Y-44450000D03*
X83058000Y-50800000D03*
X88646000Y-86106000D03*
X88900000Y-72390000D03*
X120904000Y-86614000D03*
X101346000Y-51816000D03*
X111252000Y-64516000D03*
X102362000Y-48768000D03*
X94996000Y-54864000D03*
X90424000Y-61214000D03*
X99060000Y-59944000D03*
X118364000Y-61214000D03*
X119634000Y-57658000D03*
X119888000Y-46990000D03*
%TO.N,VBUS*%
X126238000Y-55880000D03*
X122174000Y-49530000D03*
X124714000Y-61976000D03*
%TO.N,Net-(U1-GPIO33)*%
X77216000Y-59182000D03*
X85344000Y-57150000D03*
X105156000Y-58674000D03*
X89916000Y-58674000D03*
%TO.N,Net-(U1-GPIO34)*%
X87376000Y-57912000D03*
X89154000Y-57912000D03*
X104394000Y-57912000D03*
X78486000Y-68580000D03*
%TO.N,Net-(U1-CHIP_PU{slash}RESET)*%
X122682000Y-72898000D03*
X118364000Y-70612000D03*
X114554000Y-67564000D03*
X94996000Y-64516000D03*
%TO.N,Net-(U1-GPIO2{slash}ADC1_CH1)*%
X84328000Y-70104000D03*
X95758000Y-70104000D03*
%TO.N,Net-(U1-GPIO3{slash}ADC1_CH2)*%
X111045869Y-69001000D03*
X104394000Y-69596000D03*
%TO.N,Net-(U1-GPIO4{slash}ADC1_CH3)*%
X90932000Y-46990000D03*
X104394000Y-70866000D03*
%TO.N,Net-(U1-GPIO7{slash}ADC1_CH6)*%
X93472000Y-67818000D03*
X106680000Y-70358000D03*
%TO.N,Net-(U1-GPIO12{slash}ADC2_CH1)*%
X91694006Y-68580000D03*
X109728000Y-70104004D03*
%TO.N,Net-(U1-GPIO11{slash}ADC2_CH0)*%
X94742000Y-69342000D03*
X108966000Y-71033000D03*
%TO.N,Net-(T1-touch)*%
X88646000Y-75184000D03*
X107442000Y-72644000D03*
%TO.N,VCC*%
X119888000Y-56134000D03*
X98552000Y-50800000D03*
X107188000Y-82042000D03*
%TO.N,GND*%
X92710000Y-50546000D03*
X127000000Y-63246000D03*
X76708000Y-48260000D03*
X87884000Y-67818000D03*
X107950000Y-86360000D03*
X103886000Y-82804000D03*
X99314000Y-63472000D03*
X71374000Y-74676000D03*
X92202000Y-84582000D03*
X126492000Y-81026000D03*
X123698000Y-64770000D03*
X69596000Y-56134000D03*
X69596000Y-69342000D03*
X113284000Y-67056000D03*
X71374000Y-62230000D03*
%TO.N,VBUS*%
X119888000Y-62992000D03*
X119888000Y-67056024D03*
X110490000Y-57912000D03*
%TO.N,Net-(U1-GPIO35)*%
X104393992Y-56388000D03*
X112014000Y-60706000D03*
%TO.N,Net-(U1-GPIO37)*%
X104394000Y-55118000D03*
X117348000Y-50292000D03*
%TD*%
D20*
%TO.N,VCC*%
X120904000Y-57150000D02*
X119888000Y-56134000D01*
X120904000Y-67818000D02*
X120904000Y-57150000D01*
X112181000Y-69429000D02*
X119293000Y-69429000D01*
X119293000Y-69429000D02*
X120904000Y-67818000D01*
X107188000Y-74422000D02*
X112181000Y-69429000D01*
X107188000Y-82042000D02*
X107188000Y-74422000D01*
D21*
%TO.N,Net-(U1-CHIP_PU{slash}RESET)*%
X120396000Y-70612000D02*
X118364000Y-70612000D01*
X122682000Y-72898000D02*
X120396000Y-70612000D01*
%TO.N,Net-(U1-GPIO2{slash}ADC1_CH1)*%
X95591000Y-70271000D02*
X95758000Y-70104000D01*
X84328000Y-70104000D02*
X84495000Y-70271000D01*
X84495000Y-70271000D02*
X95591000Y-70271000D01*
%TO.N,Net-(U1-GPIO11{slash}ADC2_CH0)*%
X106172000Y-72644000D02*
X107783000Y-71033000D01*
X100330000Y-69342000D02*
X103632000Y-72644000D01*
X107783000Y-71033000D02*
X108966000Y-71033000D01*
X94742000Y-69342000D02*
X100330000Y-69342000D01*
X103632000Y-72644000D02*
X106172000Y-72644000D01*
%TO.N,VBUS*%
X125730000Y-55880000D02*
X124714000Y-54864000D01*
X126238000Y-55880000D02*
X125730000Y-55880000D01*
X124714000Y-52070000D02*
X124714000Y-54864000D01*
X124714000Y-54864000D02*
X124714000Y-61976000D01*
X122174000Y-49530000D02*
X124714000Y-52070000D01*
%TO.N,Net-(U1-GPIO33)*%
X83312000Y-59182000D02*
X77216000Y-59182000D01*
X85344000Y-57150000D02*
X83312000Y-59182000D01*
X105156000Y-58674000D02*
X89916000Y-58674000D01*
%TO.N,Net-(U1-GPIO35)*%
X104394000Y-56388000D02*
X104393992Y-56388000D01*
X107442000Y-56896000D02*
X104902000Y-56896000D01*
X111252000Y-60706000D02*
X107442000Y-56896000D01*
X104902000Y-56896000D02*
X104394000Y-56388000D01*
X112014000Y-60706000D02*
X111252000Y-60706000D01*
%TO.N,Net-(U1-GPIO34)*%
X87376000Y-59690000D02*
X78486000Y-68580000D01*
X104394000Y-57912000D02*
X89154000Y-57912000D01*
%TO.N,Net-(U1-GPIO4{slash}ADC1_CH3)*%
X88479000Y-49443000D02*
X90932000Y-46990000D01*
X88479000Y-63079000D02*
X88479000Y-49443000D01*
X92502000Y-67102000D02*
X88479000Y-63079000D01*
X100630000Y-67102000D02*
X92502000Y-67102000D01*
X104394000Y-70866000D02*
X100630000Y-67102000D01*
%TO.N,Net-(U1-GPIO34)*%
X87376000Y-57912000D02*
X87376000Y-59690000D01*
%TO.N,Net-(U1-GPIO12{slash}ADC2_CH1)*%
X107949996Y-70104004D02*
X109728000Y-70104004D01*
X105918000Y-72136000D02*
X107949996Y-70104004D01*
X103886000Y-72136000D02*
X105918000Y-72136000D01*
X100330000Y-68580000D02*
X103886000Y-72136000D01*
X91694006Y-68580000D02*
X100330000Y-68580000D01*
%TO.N,Net-(U1-CHIP_PU{slash}RESET)*%
X109220000Y-69088000D02*
X109982000Y-68326000D01*
%TO.N,Net-(U1-GPIO3{slash}ADC1_CH2)*%
X104394000Y-69596000D02*
X109220000Y-69596000D01*
X109220000Y-69596000D02*
X109815000Y-69001000D01*
X109815000Y-69001000D02*
X111045869Y-69001000D01*
%TO.N,Net-(U1-CHIP_PU{slash}RESET)*%
X94996000Y-64516000D02*
X97282000Y-66802000D01*
X97282000Y-66802000D02*
X100838000Y-66802000D01*
X100838000Y-66802000D02*
X102870000Y-68834000D01*
X102870000Y-68834000D02*
X104902000Y-68834000D01*
X104902000Y-68834000D02*
X105156000Y-69088000D01*
X105156000Y-69088000D02*
X105410000Y-69088000D01*
X105410000Y-69088000D02*
X109220000Y-69088000D01*
X109982000Y-68326000D02*
X113792000Y-68326000D01*
X113792000Y-68326000D02*
X114554000Y-67564000D01*
%TO.N,Net-(U1-GPIO7{slash}ADC1_CH6)*%
X100330000Y-67818000D02*
X93472000Y-67818000D01*
X104140000Y-71628000D02*
X100330000Y-67818000D01*
X105410000Y-71628000D02*
X104140000Y-71628000D01*
X106680000Y-70358000D02*
X105410000Y-71628000D01*
%TO.N,Net-(T1-touch)*%
X88646000Y-78994000D02*
X88646000Y-75184000D01*
X94234000Y-84582000D02*
X88646000Y-78994000D01*
X95844520Y-84582000D02*
X94234000Y-84582000D01*
X103124000Y-84582000D02*
X95844520Y-84582000D01*
X106680000Y-81026000D02*
X103124000Y-84582000D01*
X106680000Y-74168000D02*
X106680000Y-81026000D01*
X107442000Y-73406000D02*
X106680000Y-74168000D01*
X107442000Y-72644000D02*
X107442000Y-73406000D01*
D20*
%TO.N,VCC*%
X105918000Y-50800000D02*
X98552000Y-50800000D01*
X119888000Y-50546000D02*
X118618000Y-49276000D01*
X118618000Y-49276000D02*
X107442000Y-49276000D01*
X119888000Y-56134000D02*
X119888000Y-50546000D01*
X107442000Y-49276000D02*
X105918000Y-50800000D01*
D21*
%TO.N,VBUS*%
X110490000Y-57912000D02*
X115570000Y-62992000D01*
X115570000Y-62992000D02*
X119888000Y-62992000D01*
D20*
X119888000Y-62992000D02*
X119888000Y-67056024D01*
D21*
%TO.N,Net-(U1-GPIO37)*%
X117348000Y-50292000D02*
X107188000Y-50292000D01*
X105410000Y-54102000D02*
X104394000Y-55118000D01*
X107188000Y-50292000D02*
X105410000Y-52070000D01*
X105410000Y-52070000D02*
X105410000Y-54102000D01*
%TD*%
%TA.AperFunction,Conductor*%
%TO.N,GND*%
G36*
X104011966Y-43705313D02*
G01*
X104037276Y-43749150D01*
X104038400Y-43762000D01*
X104038400Y-48742600D01*
X107238296Y-48742985D01*
X107285858Y-48760303D01*
X107311162Y-48804144D01*
X107302366Y-48853993D01*
X107263586Y-48886525D01*
X107261156Y-48887362D01*
X107246419Y-48892151D01*
X107246416Y-48892152D01*
X107223695Y-48908659D01*
X107213799Y-48914723D01*
X107188782Y-48927470D01*
X107188778Y-48927473D01*
X105763426Y-50352826D01*
X105717550Y-50374218D01*
X105711100Y-50374500D01*
X99148308Y-50374500D01*
X99100742Y-50357187D01*
X99087407Y-50342537D01*
X99080183Y-50332071D01*
X98965533Y-50230500D01*
X98952856Y-50219269D01*
X98952853Y-50219267D01*
X98952852Y-50219266D01*
X98802225Y-50140210D01*
X98802222Y-50140209D01*
X98637058Y-50099500D01*
X98637056Y-50099500D01*
X98466944Y-50099500D01*
X98466941Y-50099500D01*
X98301777Y-50140209D01*
X98151146Y-50219267D01*
X98151143Y-50219269D01*
X98023816Y-50332071D01*
X97927181Y-50472070D01*
X97866859Y-50631128D01*
X97846355Y-50799996D01*
X97846355Y-50800003D01*
X97866859Y-50968871D01*
X97927181Y-51127929D01*
X98023816Y-51267928D01*
X98150278Y-51379964D01*
X98151148Y-51380734D01*
X98301775Y-51459790D01*
X98466944Y-51500500D01*
X98466948Y-51500500D01*
X98637052Y-51500500D01*
X98637056Y-51500500D01*
X98802225Y-51459790D01*
X98952852Y-51380734D01*
X99080183Y-51267929D01*
X99087407Y-51257462D01*
X99128676Y-51228152D01*
X99148308Y-51225500D01*
X105544810Y-51225500D01*
X105592376Y-51242813D01*
X105617686Y-51286650D01*
X105608896Y-51336500D01*
X105597136Y-51351826D01*
X105177440Y-51771520D01*
X105165592Y-51781142D01*
X105152163Y-51789916D01*
X105129408Y-51819150D01*
X105126377Y-51822583D01*
X105122484Y-51826477D01*
X105122480Y-51826482D01*
X105108905Y-51845495D01*
X105075192Y-51888809D01*
X105072273Y-51894204D01*
X105072026Y-51894070D01*
X105070430Y-51897171D01*
X105070682Y-51897295D01*
X105067987Y-51902805D01*
X105052329Y-51955403D01*
X105034499Y-52007342D01*
X105033491Y-52013386D01*
X105033213Y-52013339D01*
X105032711Y-52016790D01*
X105032990Y-52016825D01*
X105032232Y-52022908D01*
X105032232Y-52022911D01*
X105032232Y-52022912D01*
X105034500Y-52077755D01*
X105034500Y-53915810D01*
X105017187Y-53963376D01*
X105012826Y-53968136D01*
X104576283Y-54404678D01*
X104530406Y-54426070D01*
X104506249Y-54424202D01*
X104479060Y-54417500D01*
X104479056Y-54417500D01*
X104308944Y-54417500D01*
X104308941Y-54417500D01*
X104143777Y-54458209D01*
X103993146Y-54537267D01*
X103993143Y-54537269D01*
X103865816Y-54650071D01*
X103769181Y-54790070D01*
X103708859Y-54949128D01*
X103688355Y-55117996D01*
X103688355Y-55118003D01*
X103708859Y-55286871D01*
X103769181Y-55445929D01*
X103865816Y-55585928D01*
X103991875Y-55697606D01*
X104015998Y-55742107D01*
X104005873Y-55791703D01*
X103991875Y-55808386D01*
X103865808Y-55920071D01*
X103769173Y-56060070D01*
X103708851Y-56219128D01*
X103688347Y-56387996D01*
X103688347Y-56388003D01*
X103708851Y-56556871D01*
X103769173Y-56715929D01*
X103865808Y-56855928D01*
X103976981Y-56954419D01*
X103993140Y-56968734D01*
X104143767Y-57047790D01*
X104266950Y-57078151D01*
X104308989Y-57106343D01*
X104323072Y-57154963D01*
X104302609Y-57201261D01*
X104266949Y-57221850D01*
X104143776Y-57252209D01*
X103993146Y-57331267D01*
X103993143Y-57331269D01*
X103865816Y-57444071D01*
X103824080Y-57504537D01*
X103782811Y-57533848D01*
X103763179Y-57536500D01*
X89784821Y-57536500D01*
X89737255Y-57519187D01*
X89723920Y-57504537D01*
X89682183Y-57444071D01*
X89554856Y-57331269D01*
X89554853Y-57331267D01*
X89554852Y-57331266D01*
X89404225Y-57252210D01*
X89404222Y-57252209D01*
X89239058Y-57211500D01*
X89239056Y-57211500D01*
X89068944Y-57211500D01*
X89068941Y-57211500D01*
X88946209Y-57241751D01*
X88895882Y-57236324D01*
X88860817Y-57199818D01*
X88854500Y-57169901D01*
X88854500Y-49629189D01*
X88871813Y-49581623D01*
X88876174Y-49576863D01*
X89806072Y-48646965D01*
X90447029Y-48006007D01*
X93195210Y-48006007D01*
X93214346Y-48285785D01*
X93214349Y-48285805D01*
X93271404Y-48560367D01*
X93271409Y-48560385D01*
X93365319Y-48824623D01*
X93365321Y-48824628D01*
X93494347Y-49073635D01*
X93494352Y-49073642D01*
X93656071Y-49302747D01*
X93748364Y-49401568D01*
X94417665Y-48732266D01*
X94526256Y-48835808D01*
X93851276Y-49510788D01*
X94065043Y-49684701D01*
X94065051Y-49684707D01*
X94304654Y-49830413D01*
X94304669Y-49830421D01*
X94561891Y-49942147D01*
X94831942Y-50017812D01*
X95109771Y-50055999D01*
X95109783Y-50056000D01*
X95390217Y-50056000D01*
X95390228Y-50055999D01*
X95668057Y-50017812D01*
X95938108Y-49942147D01*
X96195330Y-49830421D01*
X96195345Y-49830413D01*
X96434948Y-49684707D01*
X96434965Y-49684695D01*
X96648722Y-49510789D01*
X96648723Y-49510789D01*
X95973983Y-48836049D01*
X96012540Y-48805729D01*
X96079044Y-48728978D01*
X96751635Y-49401569D01*
X96751635Y-49401568D01*
X96843922Y-49302755D01*
X97005647Y-49073642D01*
X97005652Y-49073635D01*
X97134678Y-48824628D01*
X97134680Y-48824623D01*
X97228590Y-48560385D01*
X97228595Y-48560367D01*
X97285650Y-48285805D01*
X97285653Y-48285785D01*
X97304790Y-48006007D01*
X97304790Y-48005992D01*
X97285653Y-47726214D01*
X97285650Y-47726194D01*
X97228595Y-47451632D01*
X97228590Y-47451614D01*
X97134680Y-47187376D01*
X97134678Y-47187371D01*
X97005652Y-46938364D01*
X97005647Y-46938357D01*
X96843925Y-46709248D01*
X96751634Y-46610430D01*
X96082332Y-47279731D01*
X95973741Y-47176190D01*
X96648722Y-46501210D01*
X96434956Y-46327298D01*
X96434948Y-46327292D01*
X96195345Y-46181586D01*
X96195330Y-46181578D01*
X95938108Y-46069852D01*
X95668057Y-45994187D01*
X95390228Y-45956000D01*
X95109771Y-45956000D01*
X94831942Y-45994187D01*
X94561891Y-46069852D01*
X94304669Y-46181578D01*
X94304654Y-46181586D01*
X94065051Y-46327292D01*
X94065035Y-46327303D01*
X93851275Y-46501209D01*
X94526016Y-47175950D01*
X94487460Y-47206271D01*
X94420955Y-47283021D01*
X93748364Y-46610430D01*
X93656074Y-46709249D01*
X93494352Y-46938357D01*
X93494347Y-46938364D01*
X93365321Y-47187371D01*
X93365319Y-47187376D01*
X93271409Y-47451614D01*
X93271404Y-47451632D01*
X93214349Y-47726194D01*
X93214346Y-47726214D01*
X93195210Y-48005992D01*
X93195210Y-48006007D01*
X90447029Y-48006007D01*
X90749716Y-47703320D01*
X90795591Y-47681929D01*
X90819749Y-47683796D01*
X90846944Y-47690500D01*
X90846946Y-47690500D01*
X91017052Y-47690500D01*
X91017056Y-47690500D01*
X91182225Y-47649790D01*
X91332852Y-47570734D01*
X91460183Y-47457929D01*
X91556818Y-47317930D01*
X91617140Y-47158872D01*
X91627153Y-47076411D01*
X91637645Y-46990003D01*
X91637645Y-46989996D01*
X91617140Y-46821128D01*
X91556818Y-46662070D01*
X91460183Y-46522071D01*
X91332856Y-46409269D01*
X91332853Y-46409267D01*
X91332852Y-46409266D01*
X91182225Y-46330210D01*
X91182222Y-46330209D01*
X91017058Y-46289500D01*
X91017056Y-46289500D01*
X90846944Y-46289500D01*
X90846941Y-46289500D01*
X90681777Y-46330209D01*
X90531146Y-46409267D01*
X90531143Y-46409269D01*
X90403816Y-46522071D01*
X90307181Y-46662070D01*
X90246859Y-46821128D01*
X90231727Y-46945756D01*
X90226355Y-46990000D01*
X90230463Y-47023833D01*
X90240917Y-47109933D01*
X90229463Y-47159239D01*
X90219782Y-47171178D01*
X88246440Y-49144520D01*
X88234592Y-49154142D01*
X88221163Y-49162916D01*
X88198408Y-49192150D01*
X88195377Y-49195583D01*
X88191484Y-49199477D01*
X88191480Y-49199482D01*
X88177905Y-49218495D01*
X88144192Y-49261809D01*
X88141273Y-49267204D01*
X88141026Y-49267070D01*
X88139430Y-49270171D01*
X88139682Y-49270295D01*
X88136987Y-49275805D01*
X88121329Y-49328403D01*
X88103499Y-49380342D01*
X88102491Y-49386386D01*
X88102213Y-49386339D01*
X88101711Y-49389790D01*
X88101990Y-49389825D01*
X88101232Y-49395908D01*
X88103500Y-49450755D01*
X88103500Y-57495355D01*
X88086187Y-57542921D01*
X88042350Y-57568231D01*
X87992500Y-57559441D01*
X87968600Y-57537392D01*
X87904186Y-57444074D01*
X87904184Y-57444072D01*
X87776856Y-57331269D01*
X87776853Y-57331267D01*
X87776852Y-57331266D01*
X87626225Y-57252210D01*
X87626222Y-57252209D01*
X87461058Y-57211500D01*
X87461056Y-57211500D01*
X87290944Y-57211500D01*
X87290941Y-57211500D01*
X87125777Y-57252209D01*
X86975146Y-57331267D01*
X86975143Y-57331269D01*
X86847816Y-57444071D01*
X86751181Y-57584070D01*
X86690859Y-57743128D01*
X86670355Y-57911996D01*
X86670355Y-57912003D01*
X86690859Y-58080871D01*
X86751181Y-58239929D01*
X86824446Y-58346070D01*
X86847817Y-58379929D01*
X86975148Y-58492734D01*
X86975150Y-58492735D01*
X86975571Y-58493108D01*
X86999694Y-58537609D01*
X87000500Y-58548498D01*
X87000500Y-59503809D01*
X86983187Y-59551375D01*
X86978826Y-59556135D01*
X78668282Y-67866678D01*
X78622406Y-67888070D01*
X78598247Y-67886202D01*
X78571058Y-67879500D01*
X78571056Y-67879500D01*
X78400944Y-67879500D01*
X78400941Y-67879500D01*
X78235777Y-67920209D01*
X78085146Y-67999267D01*
X78085143Y-67999269D01*
X77957816Y-68112071D01*
X77861181Y-68252070D01*
X77800859Y-68411128D01*
X77780355Y-68579996D01*
X77780355Y-68580003D01*
X77800859Y-68748871D01*
X77861181Y-68907929D01*
X77957816Y-69047928D01*
X78062248Y-69140447D01*
X78085148Y-69160734D01*
X78235775Y-69239790D01*
X78400944Y-69280500D01*
X78400948Y-69280500D01*
X78571052Y-69280500D01*
X78571056Y-69280500D01*
X78736225Y-69239790D01*
X78886852Y-69160734D01*
X79014183Y-69047929D01*
X79110818Y-68907930D01*
X79171140Y-68748872D01*
X79183579Y-68646430D01*
X79191645Y-68580003D01*
X79191645Y-68579996D01*
X79177082Y-68460065D01*
X79188534Y-68410759D01*
X79198211Y-68398824D01*
X87608558Y-59988477D01*
X87620400Y-59978861D01*
X87633836Y-59970084D01*
X87656594Y-59940843D01*
X87659631Y-59937405D01*
X87663520Y-59933517D01*
X87677088Y-59914513D01*
X87710809Y-59871189D01*
X87710809Y-59871186D01*
X87713727Y-59865797D01*
X87713977Y-59865932D01*
X87715570Y-59862838D01*
X87715314Y-59862713D01*
X87718006Y-59857203D01*
X87718010Y-59857199D01*
X87733673Y-59804587D01*
X87751500Y-59752660D01*
X87751500Y-59752659D01*
X87752510Y-59746610D01*
X87752787Y-59746656D01*
X87753289Y-59743208D01*
X87753010Y-59743174D01*
X87753767Y-59737093D01*
X87753769Y-59737088D01*
X87751500Y-59682230D01*
X87751500Y-58548498D01*
X87768813Y-58500932D01*
X87776429Y-58493108D01*
X87776849Y-58492735D01*
X87776852Y-58492734D01*
X87904183Y-58379929D01*
X87968599Y-58286607D01*
X88009868Y-58257296D01*
X88060323Y-58261369D01*
X88096355Y-58296921D01*
X88103500Y-58328644D01*
X88103500Y-63032381D01*
X88101925Y-63047566D01*
X88098633Y-63063264D01*
X88098633Y-63063269D01*
X88103216Y-63100032D01*
X88103500Y-63104613D01*
X88103500Y-63110119D01*
X88107341Y-63133140D01*
X88114134Y-63187627D01*
X88115884Y-63193504D01*
X88115615Y-63193584D01*
X88116679Y-63196904D01*
X88116945Y-63196813D01*
X88118934Y-63202608D01*
X88118935Y-63202610D01*
X88144492Y-63249836D01*
X88145055Y-63250877D01*
X88169175Y-63300214D01*
X88172738Y-63305204D01*
X88172510Y-63305366D01*
X88174595Y-63308162D01*
X88174817Y-63307990D01*
X88178581Y-63312826D01*
X88218971Y-63350008D01*
X90272752Y-65403789D01*
X92203518Y-67334555D01*
X92213142Y-67346406D01*
X92221915Y-67359834D01*
X92221918Y-67359838D01*
X92251154Y-67382594D01*
X92254591Y-67385628D01*
X92258482Y-67389519D01*
X92277483Y-67403085D01*
X92319560Y-67435835D01*
X92320814Y-67436811D01*
X92326206Y-67439729D01*
X92326071Y-67439978D01*
X92329163Y-67441569D01*
X92329288Y-67441315D01*
X92334798Y-67444008D01*
X92334801Y-67444010D01*
X92371742Y-67455007D01*
X92387402Y-67459670D01*
X92400387Y-67464127D01*
X92439340Y-67477500D01*
X92439343Y-67477500D01*
X92445391Y-67478510D01*
X92445344Y-67478786D01*
X92448793Y-67479289D01*
X92448828Y-67479009D01*
X92454905Y-67479766D01*
X92454912Y-67479768D01*
X92509756Y-67477500D01*
X92744742Y-67477500D01*
X92792308Y-67494813D01*
X92817618Y-67538650D01*
X92813933Y-67577741D01*
X92786859Y-67649128D01*
X92766355Y-67817996D01*
X92766355Y-67818003D01*
X92786859Y-67986873D01*
X92831378Y-68104260D01*
X92832058Y-68154874D01*
X92800044Y-68194084D01*
X92762187Y-68204500D01*
X92324827Y-68204500D01*
X92277261Y-68187187D01*
X92263926Y-68172537D01*
X92244733Y-68144732D01*
X92222189Y-68112071D01*
X92176078Y-68071220D01*
X92094862Y-67999269D01*
X92094859Y-67999267D01*
X92094858Y-67999266D01*
X91944231Y-67920210D01*
X91944228Y-67920209D01*
X91779064Y-67879500D01*
X91779062Y-67879500D01*
X91608950Y-67879500D01*
X91608947Y-67879500D01*
X91443783Y-67920209D01*
X91293152Y-67999267D01*
X91293149Y-67999269D01*
X91165822Y-68112071D01*
X91069187Y-68252070D01*
X91008865Y-68411128D01*
X90988361Y-68579996D01*
X90988361Y-68580003D01*
X91008865Y-68748871D01*
X91069187Y-68907929D01*
X91165822Y-69047928D01*
X91270254Y-69140447D01*
X91293154Y-69160734D01*
X91443781Y-69239790D01*
X91608950Y-69280500D01*
X91608954Y-69280500D01*
X91779058Y-69280500D01*
X91779062Y-69280500D01*
X91944231Y-69239790D01*
X92094858Y-69160734D01*
X92222189Y-69047929D01*
X92263926Y-68987462D01*
X92305195Y-68958152D01*
X92324827Y-68955500D01*
X94032187Y-68955500D01*
X94079753Y-68972813D01*
X94105063Y-69016650D01*
X94101378Y-69055740D01*
X94056859Y-69173126D01*
X94036355Y-69341996D01*
X94036355Y-69342003D01*
X94056859Y-69510871D01*
X94117181Y-69669929D01*
X94125665Y-69682220D01*
X94190448Y-69776074D01*
X94192788Y-69779463D01*
X94205560Y-69828444D01*
X94183861Y-69874176D01*
X94137842Y-69895260D01*
X94131887Y-69895500D01*
X85049190Y-69895500D01*
X85001624Y-69878187D01*
X84979999Y-69847740D01*
X84952819Y-69776071D01*
X84856183Y-69636071D01*
X84728856Y-69523269D01*
X84728853Y-69523267D01*
X84728852Y-69523266D01*
X84578225Y-69444210D01*
X84578222Y-69444209D01*
X84413058Y-69403500D01*
X84413056Y-69403500D01*
X84242944Y-69403500D01*
X84242941Y-69403500D01*
X84077777Y-69444209D01*
X83927146Y-69523267D01*
X83927143Y-69523269D01*
X83799816Y-69636071D01*
X83703181Y-69776070D01*
X83642859Y-69935128D01*
X83622355Y-70103996D01*
X83622355Y-70104003D01*
X83642859Y-70272871D01*
X83703181Y-70431929D01*
X83799816Y-70571928D01*
X83893413Y-70654848D01*
X83927148Y-70684734D01*
X84077775Y-70763790D01*
X84242944Y-70804500D01*
X84242948Y-70804500D01*
X84413052Y-70804500D01*
X84413056Y-70804500D01*
X84578225Y-70763790D01*
X84728852Y-70684734D01*
X84751003Y-70665110D01*
X84798087Y-70646527D01*
X84800074Y-70646500D01*
X94417277Y-70646500D01*
X94464843Y-70663813D01*
X94490153Y-70707650D01*
X94481363Y-70757500D01*
X94448687Y-70787503D01*
X94167953Y-70919106D01*
X93698753Y-71182433D01*
X93698754Y-71182432D01*
X93250025Y-71479309D01*
X93222027Y-71500929D01*
X92824174Y-71808140D01*
X92696784Y-71922282D01*
X92423449Y-72167191D01*
X92423443Y-72167197D01*
X92423441Y-72167199D01*
X92392998Y-72198775D01*
X92050008Y-72554530D01*
X91928645Y-72700363D01*
X91717713Y-72953824D01*
X91705837Y-72968094D01*
X91680103Y-73004064D01*
X91392771Y-73405680D01*
X91275096Y-73598499D01*
X91112484Y-73864948D01*
X90866468Y-74343452D01*
X90656037Y-74838637D01*
X90482314Y-75347862D01*
X90481004Y-75352872D01*
X90346224Y-75868411D01*
X90248498Y-76397493D01*
X90189651Y-76932312D01*
X90189650Y-76932312D01*
X90170000Y-77470000D01*
X90189650Y-78007688D01*
X90189651Y-78007688D01*
X90208046Y-78174866D01*
X90248498Y-78542507D01*
X90346224Y-79071589D01*
X90396791Y-79265008D01*
X90482314Y-79592138D01*
X90656037Y-80101363D01*
X90752347Y-80328000D01*
X90781619Y-80396881D01*
X90784288Y-80447430D01*
X90753841Y-80487868D01*
X90704524Y-80499275D01*
X90661187Y-80478149D01*
X89043174Y-78860136D01*
X89021782Y-78814260D01*
X89021500Y-78807810D01*
X89021500Y-75820498D01*
X89038813Y-75772932D01*
X89046429Y-75765108D01*
X89046849Y-75764735D01*
X89046852Y-75764734D01*
X89174183Y-75651929D01*
X89270818Y-75511930D01*
X89331140Y-75352872D01*
X89351645Y-75184000D01*
X89331140Y-75015128D01*
X89270818Y-74856070D01*
X89174183Y-74716071D01*
X89075786Y-74628899D01*
X89046856Y-74603269D01*
X89046853Y-74603267D01*
X89046852Y-74603266D01*
X88896225Y-74524210D01*
X88896222Y-74524209D01*
X88731058Y-74483500D01*
X88731056Y-74483500D01*
X88560944Y-74483500D01*
X88560941Y-74483500D01*
X88395777Y-74524209D01*
X88245146Y-74603267D01*
X88245143Y-74603269D01*
X88117816Y-74716071D01*
X88021181Y-74856070D01*
X87960859Y-75015128D01*
X87940355Y-75183996D01*
X87940355Y-75184003D01*
X87960859Y-75352871D01*
X88021181Y-75511929D01*
X88021182Y-75511930D01*
X88117817Y-75651929D01*
X88245148Y-75764734D01*
X88245150Y-75764735D01*
X88245571Y-75765108D01*
X88269694Y-75809609D01*
X88270500Y-75820498D01*
X88270500Y-78947381D01*
X88268925Y-78962566D01*
X88265633Y-78978264D01*
X88265633Y-78978269D01*
X88270216Y-79015032D01*
X88270500Y-79019613D01*
X88270500Y-79025119D01*
X88274341Y-79048140D01*
X88281134Y-79102627D01*
X88282884Y-79108504D01*
X88282615Y-79108584D01*
X88283679Y-79111904D01*
X88283945Y-79111813D01*
X88285934Y-79117608D01*
X88285935Y-79117610D01*
X88297582Y-79139132D01*
X88312055Y-79165877D01*
X88336175Y-79215214D01*
X88339738Y-79220204D01*
X88339510Y-79220366D01*
X88341595Y-79223162D01*
X88341817Y-79222990D01*
X88345581Y-79227826D01*
X88385971Y-79265008D01*
X91162958Y-82041995D01*
X93935518Y-84814555D01*
X93945140Y-84826404D01*
X93953915Y-84839834D01*
X93953918Y-84839838D01*
X93983154Y-84862594D01*
X93986591Y-84865628D01*
X93990482Y-84869519D01*
X94009483Y-84883085D01*
X94051700Y-84915944D01*
X94052814Y-84916811D01*
X94058206Y-84919729D01*
X94058071Y-84919977D01*
X94061170Y-84921572D01*
X94061295Y-84921318D01*
X94066800Y-84924010D01*
X94119405Y-84939671D01*
X94171338Y-84957500D01*
X94177385Y-84958509D01*
X94177338Y-84958785D01*
X94180792Y-84959289D01*
X94180827Y-84959009D01*
X94186904Y-84959766D01*
X94186911Y-84959768D01*
X94241755Y-84957500D01*
X95781860Y-84957500D01*
X103077383Y-84957500D01*
X103092567Y-84959074D01*
X103108268Y-84962367D01*
X103145036Y-84957783D01*
X103149615Y-84957500D01*
X103155111Y-84957500D01*
X103155114Y-84957500D01*
X103178140Y-84953657D01*
X103232626Y-84946866D01*
X103232631Y-84946863D01*
X103238507Y-84945115D01*
X103238587Y-84945386D01*
X103241904Y-84944323D01*
X103241812Y-84944055D01*
X103247604Y-84942065D01*
X103247610Y-84942065D01*
X103295877Y-84915944D01*
X103345211Y-84891826D01*
X103345215Y-84891821D01*
X103350204Y-84888261D01*
X103350369Y-84888493D01*
X103353158Y-84886414D01*
X103352983Y-84886189D01*
X103357822Y-84882422D01*
X103357823Y-84882420D01*
X103357826Y-84882419D01*
X103395008Y-84842028D01*
X106370429Y-81866606D01*
X106416304Y-81845215D01*
X106465199Y-81858316D01*
X106494233Y-81899780D01*
X106496214Y-81927852D01*
X106482355Y-82041995D01*
X106482355Y-82042003D01*
X106502859Y-82210871D01*
X106563181Y-82369929D01*
X106659816Y-82509928D01*
X106748365Y-82588376D01*
X106787148Y-82622734D01*
X106937775Y-82701790D01*
X107102944Y-82742500D01*
X107102948Y-82742500D01*
X107273052Y-82742500D01*
X107273056Y-82742500D01*
X107438225Y-82701790D01*
X107588852Y-82622734D01*
X107716183Y-82509929D01*
X107812818Y-82369930D01*
X107873140Y-82210872D01*
X107893645Y-82042000D01*
X107893644Y-82041995D01*
X107873140Y-81873128D01*
X107812818Y-81714070D01*
X107716183Y-81574071D01*
X107638429Y-81505187D01*
X107614305Y-81460686D01*
X107613500Y-81449797D01*
X107613500Y-79625477D01*
X107630813Y-79577911D01*
X107674650Y-79552601D01*
X107724500Y-79561391D01*
X107757037Y-79600168D01*
X107757522Y-79601543D01*
X107928037Y-80101363D01*
X108138466Y-80596543D01*
X108138466Y-80596544D01*
X108384486Y-81075056D01*
X108664771Y-81534320D01*
X108977840Y-81971910D01*
X109036166Y-82041996D01*
X109322008Y-82385470D01*
X109517634Y-82588376D01*
X109682615Y-82759498D01*
X109695449Y-82772809D01*
X109784909Y-82852965D01*
X110096174Y-83131860D01*
X110397555Y-83364578D01*
X110522025Y-83460690D01*
X110522025Y-83460691D01*
X110970754Y-83757568D01*
X110970753Y-83757567D01*
X111439953Y-84020894D01*
X111927120Y-84249269D01*
X111927119Y-84249268D01*
X111927123Y-84249270D01*
X112158725Y-84337850D01*
X112429662Y-84441475D01*
X112429663Y-84441475D01*
X112944893Y-84596485D01*
X112944894Y-84596485D01*
X112944894Y-84596486D01*
X113470064Y-84713473D01*
X113470063Y-84713472D01*
X114002372Y-84791811D01*
X114538979Y-84831086D01*
X114538982Y-84831086D01*
X115077018Y-84831086D01*
X115077021Y-84831086D01*
X115613628Y-84791811D01*
X116145937Y-84713472D01*
X116145936Y-84713473D01*
X116671106Y-84596486D01*
X116671106Y-84596485D01*
X116671107Y-84596485D01*
X117186337Y-84441475D01*
X117186338Y-84441475D01*
X117457275Y-84337850D01*
X117688877Y-84249270D01*
X117688881Y-84249268D01*
X117688880Y-84249269D01*
X118176047Y-84020894D01*
X118645247Y-83757567D01*
X118645246Y-83757568D01*
X119093975Y-83460691D01*
X119093975Y-83460690D01*
X119218445Y-83364578D01*
X119519826Y-83131860D01*
X119831091Y-82852965D01*
X119920551Y-82772809D01*
X119933385Y-82759498D01*
X120098366Y-82588376D01*
X120293992Y-82385470D01*
X120579834Y-82041996D01*
X120638160Y-81971910D01*
X120951229Y-81534320D01*
X121231514Y-81075056D01*
X121477534Y-80596544D01*
X121477534Y-80596543D01*
X121687963Y-80101363D01*
X121832393Y-79678003D01*
X122982226Y-79678003D01*
X123001252Y-79834697D01*
X123057224Y-79982285D01*
X123126412Y-80082520D01*
X123414275Y-79794656D01*
X123456760Y-79858240D01*
X123520341Y-79900723D01*
X123232780Y-80188284D01*
X123265045Y-80216868D01*
X123265047Y-80216869D01*
X123404810Y-80290222D01*
X123558076Y-80327999D01*
X123558080Y-80328000D01*
X123715920Y-80328000D01*
X123715923Y-80327999D01*
X123869187Y-80290222D01*
X124008955Y-80216866D01*
X124008958Y-80216864D01*
X124041217Y-80188283D01*
X123753658Y-79900724D01*
X123817240Y-79858240D01*
X123859724Y-79794658D01*
X124147587Y-80082521D01*
X124216772Y-79982291D01*
X124216775Y-79982285D01*
X124272747Y-79834697D01*
X124291774Y-79678003D01*
X124291774Y-79677996D01*
X124272747Y-79521302D01*
X124216775Y-79373714D01*
X124147586Y-79273478D01*
X123859723Y-79561341D01*
X123817240Y-79497760D01*
X123753656Y-79455275D01*
X124041218Y-79167714D01*
X124008954Y-79139131D01*
X124008952Y-79139130D01*
X123869189Y-79065777D01*
X123715923Y-79028000D01*
X123558076Y-79028000D01*
X123404810Y-79065777D01*
X123265043Y-79139132D01*
X123232781Y-79167714D01*
X123232781Y-79167715D01*
X123520341Y-79455275D01*
X123456760Y-79497760D01*
X123414275Y-79561341D01*
X123126411Y-79273477D01*
X123057225Y-79373711D01*
X123001252Y-79521302D01*
X122982226Y-79677996D01*
X122982226Y-79678003D01*
X121832393Y-79678003D01*
X121861686Y-79592138D01*
X121947209Y-79265008D01*
X121997776Y-79071589D01*
X122095502Y-78542507D01*
X122135954Y-78174866D01*
X122154349Y-78007688D01*
X122154350Y-78007688D01*
X122155435Y-77978003D01*
X122982226Y-77978003D01*
X123001252Y-78134697D01*
X123057224Y-78282285D01*
X123126412Y-78382520D01*
X123414275Y-78094656D01*
X123456760Y-78158240D01*
X123520341Y-78200723D01*
X123232780Y-78488284D01*
X123265045Y-78516868D01*
X123265047Y-78516869D01*
X123404810Y-78590222D01*
X123558076Y-78627999D01*
X123558080Y-78628000D01*
X123715920Y-78628000D01*
X123715923Y-78627999D01*
X123869187Y-78590222D01*
X124008955Y-78516866D01*
X124008958Y-78516864D01*
X124041217Y-78488283D01*
X123753658Y-78200724D01*
X123817240Y-78158240D01*
X123859724Y-78094658D01*
X124147587Y-78382521D01*
X124216772Y-78282291D01*
X124216775Y-78282285D01*
X124272747Y-78134697D01*
X124291774Y-77978003D01*
X124291774Y-77977996D01*
X124272747Y-77821302D01*
X124216775Y-77673714D01*
X124147586Y-77573478D01*
X123859723Y-77861341D01*
X123817240Y-77797760D01*
X123753656Y-77755275D01*
X124041218Y-77467714D01*
X124008954Y-77439131D01*
X124008952Y-77439130D01*
X123869189Y-77365777D01*
X123715923Y-77328000D01*
X123558076Y-77328000D01*
X123404810Y-77365777D01*
X123265043Y-77439132D01*
X123232781Y-77467714D01*
X123232781Y-77467715D01*
X123520341Y-77755275D01*
X123456760Y-77797760D01*
X123414275Y-77861341D01*
X123126411Y-77573477D01*
X123057225Y-77673711D01*
X123001252Y-77821302D01*
X122982226Y-77977996D01*
X122982226Y-77978003D01*
X122155435Y-77978003D01*
X122174000Y-77470000D01*
X122154350Y-76932312D01*
X122154349Y-76932312D01*
X122095502Y-76397493D01*
X121997776Y-75868411D01*
X121862996Y-75352872D01*
X121861686Y-75347862D01*
X121687963Y-74838637D01*
X121477532Y-74343452D01*
X121231516Y-73864948D01*
X121068904Y-73598499D01*
X120951229Y-73405680D01*
X120663897Y-73004064D01*
X120638163Y-72968094D01*
X120626287Y-72953824D01*
X120415355Y-72700363D01*
X120293992Y-72554530D01*
X119951002Y-72198775D01*
X119920559Y-72167199D01*
X119920556Y-72167197D01*
X119920551Y-72167191D01*
X119647216Y-71922282D01*
X119519826Y-71808140D01*
X119121973Y-71500929D01*
X119093975Y-71479309D01*
X118915045Y-71360930D01*
X118800764Y-71285322D01*
X118770648Y-71244638D01*
X118773728Y-71194113D01*
X118792523Y-71168219D01*
X118892183Y-71079929D01*
X118933920Y-71019462D01*
X118975189Y-70990152D01*
X118994821Y-70987500D01*
X120209811Y-70987500D01*
X120257377Y-71004813D01*
X120262137Y-71009174D01*
X121969783Y-72716820D01*
X121991175Y-72762696D01*
X121990917Y-72778066D01*
X121976355Y-72897996D01*
X121976355Y-72898003D01*
X121996859Y-73066871D01*
X122057181Y-73225929D01*
X122111288Y-73304315D01*
X122153817Y-73365929D01*
X122281148Y-73478734D01*
X122431775Y-73557790D01*
X122596944Y-73598500D01*
X122596948Y-73598500D01*
X122767052Y-73598500D01*
X122767056Y-73598500D01*
X122932225Y-73557790D01*
X123082852Y-73478734D01*
X123210183Y-73365929D01*
X123306818Y-73225930D01*
X123367140Y-73066872D01*
X123379134Y-72968094D01*
X123387645Y-72898003D01*
X123387645Y-72897996D01*
X123367140Y-72729128D01*
X123306818Y-72570070D01*
X123210183Y-72430071D01*
X123082856Y-72317269D01*
X123082853Y-72317267D01*
X123082852Y-72317266D01*
X122932225Y-72238210D01*
X122932222Y-72238209D01*
X122767058Y-72197500D01*
X122767056Y-72197500D01*
X122596944Y-72197500D01*
X122596941Y-72197500D01*
X122596937Y-72197501D01*
X122569748Y-72204202D01*
X122519421Y-72198775D01*
X122499715Y-72184678D01*
X121600360Y-71285323D01*
X120694479Y-70379441D01*
X120684853Y-70367586D01*
X120676086Y-70354166D01*
X120676083Y-70354163D01*
X120646853Y-70331412D01*
X120643415Y-70328377D01*
X120639518Y-70324480D01*
X120620504Y-70310905D01*
X120577189Y-70277191D01*
X120577186Y-70277190D01*
X120571795Y-70274272D01*
X120571928Y-70274024D01*
X120568829Y-70272429D01*
X120568706Y-70272682D01*
X120563201Y-70269990D01*
X120510596Y-70254329D01*
X120458661Y-70236499D01*
X120452615Y-70235491D01*
X120452661Y-70235214D01*
X120449206Y-70234710D01*
X120449172Y-70234991D01*
X120443089Y-70234232D01*
X120443088Y-70234232D01*
X120443086Y-70234232D01*
X120388244Y-70236500D01*
X118994821Y-70236500D01*
X118947255Y-70219187D01*
X118933920Y-70204537D01*
X118923282Y-70189126D01*
X118892183Y-70144071D01*
X118846957Y-70104004D01*
X118764856Y-70031269D01*
X118764847Y-70031263D01*
X118693893Y-69994023D01*
X118659821Y-69956588D01*
X118657783Y-69906010D01*
X118688733Y-69865956D01*
X118728283Y-69854500D01*
X119360391Y-69854500D01*
X119360393Y-69854500D01*
X119387108Y-69845818D01*
X119398374Y-69843113D01*
X119426126Y-69838719D01*
X119451156Y-69825964D01*
X119461869Y-69821527D01*
X119488581Y-69812849D01*
X119511294Y-69796346D01*
X119521199Y-69790276D01*
X119525613Y-69788026D01*
X119546220Y-69777528D01*
X119641528Y-69682220D01*
X119641528Y-69682219D01*
X119892747Y-69431000D01*
X121201655Y-69431000D01*
X121226616Y-69572568D01*
X121296056Y-69733548D01*
X121296061Y-69733556D01*
X121400755Y-69874183D01*
X121400758Y-69874186D01*
X121535059Y-69986880D01*
X121691738Y-70065567D01*
X121691743Y-70065569D01*
X121862337Y-70106000D01*
X122425000Y-70106000D01*
X122425000Y-69656000D01*
X122575000Y-69656000D01*
X122575000Y-70106000D01*
X123093684Y-70106000D01*
X123224139Y-70090751D01*
X123224143Y-70090750D01*
X123388889Y-70030787D01*
X123388893Y-70030786D01*
X123535371Y-69934446D01*
X123655688Y-69806917D01*
X123743349Y-69655082D01*
X123743350Y-69655080D01*
X123793632Y-69487126D01*
X123793633Y-69487121D01*
X123796903Y-69431000D01*
X125521655Y-69431000D01*
X125546616Y-69572568D01*
X125616056Y-69733548D01*
X125616061Y-69733556D01*
X125720755Y-69874183D01*
X125720758Y-69874186D01*
X125855059Y-69986880D01*
X126011738Y-70065567D01*
X126011743Y-70065569D01*
X126182337Y-70106000D01*
X126595000Y-70106000D01*
X126595000Y-69656000D01*
X126745000Y-69656000D01*
X126745000Y-70106000D01*
X127113684Y-70106000D01*
X127244139Y-70090751D01*
X127244143Y-70090750D01*
X127408889Y-70030787D01*
X127408893Y-70030786D01*
X127555371Y-69934446D01*
X127675688Y-69806917D01*
X127763349Y-69655082D01*
X127763350Y-69655080D01*
X127813632Y-69487126D01*
X127813633Y-69487121D01*
X127816903Y-69431000D01*
X127360568Y-69431000D01*
X127373895Y-69384160D01*
X127364336Y-69281000D01*
X127818345Y-69281000D01*
X127793383Y-69139431D01*
X127723943Y-68978451D01*
X127723938Y-68978443D01*
X127619244Y-68837816D01*
X127619241Y-68837813D01*
X127484940Y-68725119D01*
X127328261Y-68646432D01*
X127328256Y-68646430D01*
X127157663Y-68606000D01*
X126745000Y-68606000D01*
X126745000Y-69056000D01*
X126595000Y-69056000D01*
X126595000Y-68606000D01*
X126226316Y-68606000D01*
X126095860Y-68621248D01*
X126095856Y-68621249D01*
X125931110Y-68681212D01*
X125931106Y-68681213D01*
X125784628Y-68777553D01*
X125664311Y-68905082D01*
X125576650Y-69056917D01*
X125576649Y-69056919D01*
X125526367Y-69224873D01*
X125526366Y-69224878D01*
X125523097Y-69281000D01*
X125979432Y-69281000D01*
X125966105Y-69327840D01*
X125975664Y-69431000D01*
X125521655Y-69431000D01*
X123796903Y-69431000D01*
X123340568Y-69431000D01*
X123353895Y-69384160D01*
X123344336Y-69281000D01*
X123798345Y-69281000D01*
X123773383Y-69139431D01*
X123703943Y-68978451D01*
X123703938Y-68978443D01*
X123599244Y-68837816D01*
X123599241Y-68837813D01*
X123464940Y-68725119D01*
X123308261Y-68646432D01*
X123308256Y-68646430D01*
X123137663Y-68606000D01*
X122575000Y-68606000D01*
X122575000Y-69056000D01*
X122425000Y-69056000D01*
X122425000Y-68606000D01*
X121906316Y-68606000D01*
X121775860Y-68621248D01*
X121775856Y-68621249D01*
X121611110Y-68681212D01*
X121611106Y-68681213D01*
X121464628Y-68777553D01*
X121344311Y-68905082D01*
X121256650Y-69056917D01*
X121256649Y-69056919D01*
X121206367Y-69224873D01*
X121206366Y-69224878D01*
X121203097Y-69281000D01*
X121659432Y-69281000D01*
X121646105Y-69327840D01*
X121655664Y-69431000D01*
X121201655Y-69431000D01*
X119892747Y-69431000D01*
X121146811Y-68176934D01*
X121146814Y-68176933D01*
X121157219Y-68166528D01*
X121157220Y-68166528D01*
X121252528Y-68071220D01*
X121265280Y-68046189D01*
X121271339Y-68036303D01*
X121287849Y-68013581D01*
X121294547Y-67992964D01*
X122489500Y-67992964D01*
X122530046Y-68131050D01*
X122530047Y-68131054D01*
X122552845Y-68166528D01*
X122607857Y-68252128D01*
X122607859Y-68252129D01*
X122607860Y-68252131D01*
X122689434Y-68322814D01*
X122716627Y-68346377D01*
X122847543Y-68406165D01*
X122954201Y-68421500D01*
X122954207Y-68421500D01*
X123025793Y-68421500D01*
X123025799Y-68421500D01*
X123132457Y-68406165D01*
X123263373Y-68346377D01*
X123372143Y-68252128D01*
X123449953Y-68131053D01*
X123490499Y-67992963D01*
X123490500Y-67992963D01*
X123490500Y-67849036D01*
X123490499Y-67849035D01*
X123481211Y-67817403D01*
X123449953Y-67710947D01*
X123372143Y-67589872D01*
X123372140Y-67589869D01*
X123372139Y-67589868D01*
X123263373Y-67495623D01*
X123228656Y-67479768D01*
X123132457Y-67435835D01*
X123132455Y-67435834D01*
X123132454Y-67435834D01*
X123025803Y-67420500D01*
X123025799Y-67420500D01*
X122954201Y-67420500D01*
X122954196Y-67420500D01*
X122847545Y-67435834D01*
X122716626Y-67495623D01*
X122607860Y-67589868D01*
X122607855Y-67589875D01*
X122530047Y-67710945D01*
X122530046Y-67710949D01*
X122489500Y-67849035D01*
X122489500Y-67992964D01*
X121294547Y-67992964D01*
X121296527Y-67986869D01*
X121300964Y-67976156D01*
X121313719Y-67951126D01*
X121318113Y-67923374D01*
X121320818Y-67912108D01*
X121329500Y-67885393D01*
X121329500Y-67750607D01*
X121329500Y-62212964D01*
X122489500Y-62212964D01*
X122530046Y-62351050D01*
X122530047Y-62351054D01*
X122568743Y-62411266D01*
X122607857Y-62472128D01*
X122716627Y-62566377D01*
X122847543Y-62626165D01*
X122954201Y-62641500D01*
X122954207Y-62641500D01*
X123025793Y-62641500D01*
X123025799Y-62641500D01*
X123132457Y-62626165D01*
X123263373Y-62566377D01*
X123372143Y-62472128D01*
X123449953Y-62351053D01*
X123490499Y-62212963D01*
X123490500Y-62212963D01*
X123490500Y-62069036D01*
X123490499Y-62069035D01*
X123463182Y-61976003D01*
X123449953Y-61930947D01*
X123372143Y-61809872D01*
X123372140Y-61809869D01*
X123372139Y-61809868D01*
X123263373Y-61715623D01*
X123199923Y-61686646D01*
X123132457Y-61655835D01*
X123132455Y-61655834D01*
X123132454Y-61655834D01*
X123025803Y-61640500D01*
X123025799Y-61640500D01*
X122954201Y-61640500D01*
X122954196Y-61640500D01*
X122847545Y-61655834D01*
X122716626Y-61715623D01*
X122607860Y-61809868D01*
X122607855Y-61809875D01*
X122530047Y-61930945D01*
X122530046Y-61930949D01*
X122489500Y-62069035D01*
X122489500Y-62212964D01*
X121329500Y-62212964D01*
X121329500Y-61323088D01*
X121346813Y-61275522D01*
X121390650Y-61250212D01*
X121440500Y-61259002D01*
X121451067Y-61266401D01*
X121535059Y-61336880D01*
X121691738Y-61415567D01*
X121691743Y-61415569D01*
X121862337Y-61456000D01*
X122425000Y-61456000D01*
X122425000Y-61006000D01*
X122575000Y-61006000D01*
X122575000Y-61456000D01*
X123093684Y-61456000D01*
X123224139Y-61440751D01*
X123224143Y-61440750D01*
X123388889Y-61380787D01*
X123388893Y-61380786D01*
X123535371Y-61284446D01*
X123655688Y-61156917D01*
X123743349Y-61005082D01*
X123743350Y-61005080D01*
X123793632Y-60837126D01*
X123793633Y-60837121D01*
X123796903Y-60781000D01*
X123340568Y-60781000D01*
X123353895Y-60734160D01*
X123344336Y-60631000D01*
X123798345Y-60631000D01*
X123773383Y-60489431D01*
X123703943Y-60328451D01*
X123703938Y-60328443D01*
X123599244Y-60187816D01*
X123599241Y-60187813D01*
X123464940Y-60075119D01*
X123308261Y-59996432D01*
X123308256Y-59996430D01*
X123137663Y-59956000D01*
X122575000Y-59956000D01*
X122575000Y-60406000D01*
X122425000Y-60406000D01*
X122425000Y-59956000D01*
X121906316Y-59956000D01*
X121775860Y-59971248D01*
X121775856Y-59971249D01*
X121611110Y-60031212D01*
X121611106Y-60031213D01*
X121464627Y-60127554D01*
X121457324Y-60135295D01*
X121412088Y-60158011D01*
X121362834Y-60146335D01*
X121332608Y-60105731D01*
X121329500Y-60084511D01*
X121329500Y-57729964D01*
X121927500Y-57729964D01*
X121968046Y-57868050D01*
X121968047Y-57868054D01*
X121993989Y-57908420D01*
X122045857Y-57989128D01*
X122154627Y-58083377D01*
X122285543Y-58143165D01*
X122392201Y-58158500D01*
X122392207Y-58158500D01*
X122463793Y-58158500D01*
X122463799Y-58158500D01*
X122570457Y-58143165D01*
X122701373Y-58083377D01*
X122810143Y-57989128D01*
X122887953Y-57868053D01*
X122928499Y-57729963D01*
X122928500Y-57729963D01*
X122928500Y-57586036D01*
X122928499Y-57586035D01*
X122919211Y-57554403D01*
X122887953Y-57447947D01*
X122810143Y-57326872D01*
X122810140Y-57326869D01*
X122810139Y-57326868D01*
X122701373Y-57232623D01*
X122677784Y-57221850D01*
X122570457Y-57172835D01*
X122570455Y-57172834D01*
X122570454Y-57172834D01*
X122463803Y-57157500D01*
X122463799Y-57157500D01*
X122392201Y-57157500D01*
X122392196Y-57157500D01*
X122285545Y-57172834D01*
X122154626Y-57232623D01*
X122045860Y-57326868D01*
X122045855Y-57326875D01*
X121968047Y-57447945D01*
X121968046Y-57447949D01*
X121927500Y-57586035D01*
X121927500Y-57729964D01*
X121329500Y-57729964D01*
X121329500Y-57082606D01*
X121320821Y-57055898D01*
X121318110Y-57044603D01*
X121313719Y-57016874D01*
X121313718Y-57016873D01*
X121300970Y-56991853D01*
X121296526Y-56981123D01*
X121287850Y-56954422D01*
X121287848Y-56954417D01*
X121271342Y-56931699D01*
X121265276Y-56921802D01*
X121252528Y-56896780D01*
X121157220Y-56801472D01*
X120607872Y-56252124D01*
X120586480Y-56206248D01*
X120586737Y-56190881D01*
X120593645Y-56134000D01*
X120592480Y-56124406D01*
X120573140Y-55965128D01*
X120512818Y-55806070D01*
X120416183Y-55666071D01*
X120338429Y-55597187D01*
X120314305Y-55552686D01*
X120313500Y-55541797D01*
X120313500Y-54427964D01*
X121927500Y-54427964D01*
X121968046Y-54566050D01*
X121968047Y-54566054D01*
X122009260Y-54630182D01*
X122045857Y-54687128D01*
X122154627Y-54781377D01*
X122285543Y-54841165D01*
X122392201Y-54856500D01*
X122392207Y-54856500D01*
X122463793Y-54856500D01*
X122463799Y-54856500D01*
X122570457Y-54841165D01*
X122701373Y-54781377D01*
X122810143Y-54687128D01*
X122887953Y-54566053D01*
X122928499Y-54427963D01*
X122928500Y-54427963D01*
X122928500Y-54284036D01*
X122928499Y-54284035D01*
X122908697Y-54216596D01*
X122887953Y-54145947D01*
X122810143Y-54024872D01*
X122810140Y-54024869D01*
X122810139Y-54024868D01*
X122701373Y-53930623D01*
X122668937Y-53915810D01*
X122570457Y-53870835D01*
X122570455Y-53870834D01*
X122570454Y-53870834D01*
X122463803Y-53855500D01*
X122463799Y-53855500D01*
X122392201Y-53855500D01*
X122392196Y-53855500D01*
X122285545Y-53870834D01*
X122154626Y-53930623D01*
X122045860Y-54024868D01*
X122045855Y-54024875D01*
X121968047Y-54145945D01*
X121968046Y-54145949D01*
X121927500Y-54284035D01*
X121927500Y-54427964D01*
X120313500Y-54427964D01*
X120313500Y-51379964D01*
X121927500Y-51379964D01*
X121968046Y-51518050D01*
X121968047Y-51518054D01*
X122009260Y-51582182D01*
X122045857Y-51639128D01*
X122154627Y-51733377D01*
X122285543Y-51793165D01*
X122392201Y-51808500D01*
X122392207Y-51808500D01*
X122463793Y-51808500D01*
X122463799Y-51808500D01*
X122570457Y-51793165D01*
X122701373Y-51733377D01*
X122810143Y-51639128D01*
X122887953Y-51518053D01*
X122928499Y-51379963D01*
X122928500Y-51379963D01*
X122928500Y-51236036D01*
X122928499Y-51236035D01*
X122919211Y-51204403D01*
X122887953Y-51097947D01*
X122810143Y-50976872D01*
X122810140Y-50976869D01*
X122810139Y-50976868D01*
X122701373Y-50882623D01*
X122679715Y-50872732D01*
X122570457Y-50822835D01*
X122570455Y-50822834D01*
X122570454Y-50822834D01*
X122463803Y-50807500D01*
X122463799Y-50807500D01*
X122392201Y-50807500D01*
X122392196Y-50807500D01*
X122285545Y-50822834D01*
X122154626Y-50882623D01*
X122045860Y-50976868D01*
X122045855Y-50976875D01*
X121968047Y-51097945D01*
X121968046Y-51097949D01*
X121927500Y-51236035D01*
X121927500Y-51379964D01*
X120313500Y-51379964D01*
X120313500Y-50478606D01*
X120304821Y-50451898D01*
X120302110Y-50440603D01*
X120297719Y-50412874D01*
X120297718Y-50412873D01*
X120284970Y-50387853D01*
X120280526Y-50377123D01*
X120271850Y-50350421D01*
X120266122Y-50342537D01*
X120255338Y-50327693D01*
X120249279Y-50317806D01*
X120236528Y-50292780D01*
X120141220Y-50197472D01*
X119473751Y-49530003D01*
X121468355Y-49530003D01*
X121488859Y-49698871D01*
X121549181Y-49857929D01*
X121622446Y-49964070D01*
X121645817Y-49997929D01*
X121773148Y-50110734D01*
X121923775Y-50189790D01*
X122088944Y-50230500D01*
X122088948Y-50230500D01*
X122259054Y-50230500D01*
X122259056Y-50230500D01*
X122259058Y-50230499D01*
X122259061Y-50230499D01*
X122286247Y-50223798D01*
X122336575Y-50229223D01*
X122356284Y-50243321D01*
X124316826Y-52203863D01*
X124338218Y-52249739D01*
X124338500Y-52256189D01*
X124338500Y-54817381D01*
X124336925Y-54832566D01*
X124333633Y-54848264D01*
X124333633Y-54848269D01*
X124338216Y-54885032D01*
X124338500Y-54889613D01*
X124338500Y-61339501D01*
X124321187Y-61387067D01*
X124313571Y-61394891D01*
X124185816Y-61508071D01*
X124089181Y-61648070D01*
X124028859Y-61807128D01*
X124008355Y-61975996D01*
X124008355Y-61976003D01*
X124028859Y-62144871D01*
X124089181Y-62303929D01*
X124121710Y-62351054D01*
X124185817Y-62443929D01*
X124313148Y-62556734D01*
X124463775Y-62635790D01*
X124628944Y-62676500D01*
X124628948Y-62676500D01*
X124799052Y-62676500D01*
X124799056Y-62676500D01*
X124964225Y-62635790D01*
X125114852Y-62556734D01*
X125242183Y-62443929D01*
X125338818Y-62303930D01*
X125399140Y-62144872D01*
X125419645Y-61976000D01*
X125414174Y-61930945D01*
X125399140Y-61807128D01*
X125338818Y-61648070D01*
X125242183Y-61508071D01*
X125114429Y-61394891D01*
X125090306Y-61350390D01*
X125089500Y-61339501D01*
X125089500Y-60781000D01*
X125521655Y-60781000D01*
X125546616Y-60922568D01*
X125616056Y-61083548D01*
X125616061Y-61083556D01*
X125720755Y-61224183D01*
X125720758Y-61224186D01*
X125855059Y-61336880D01*
X126011738Y-61415567D01*
X126011743Y-61415569D01*
X126182337Y-61456000D01*
X126595000Y-61456000D01*
X126595000Y-61006000D01*
X126745000Y-61006000D01*
X126745000Y-61456000D01*
X127113684Y-61456000D01*
X127244139Y-61440751D01*
X127244143Y-61440750D01*
X127408889Y-61380787D01*
X127408893Y-61380786D01*
X127555371Y-61284446D01*
X127675688Y-61156917D01*
X127763349Y-61005082D01*
X127763350Y-61005080D01*
X127813632Y-60837126D01*
X127813633Y-60837121D01*
X127816903Y-60781000D01*
X127360568Y-60781000D01*
X127373895Y-60734160D01*
X127364336Y-60631000D01*
X127818345Y-60631000D01*
X127793383Y-60489431D01*
X127723943Y-60328451D01*
X127723938Y-60328443D01*
X127619244Y-60187816D01*
X127619241Y-60187813D01*
X127484940Y-60075119D01*
X127328261Y-59996432D01*
X127328256Y-59996430D01*
X127157663Y-59956000D01*
X126745000Y-59956000D01*
X126745000Y-60406000D01*
X126595000Y-60406000D01*
X126595000Y-59956000D01*
X126226316Y-59956000D01*
X126095860Y-59971248D01*
X126095856Y-59971249D01*
X125931110Y-60031212D01*
X125931106Y-60031213D01*
X125784628Y-60127553D01*
X125664311Y-60255082D01*
X125576650Y-60406917D01*
X125576649Y-60406919D01*
X125526367Y-60574873D01*
X125526366Y-60574878D01*
X125523097Y-60631000D01*
X125979432Y-60631000D01*
X125966105Y-60677840D01*
X125975664Y-60781000D01*
X125521655Y-60781000D01*
X125089500Y-60781000D01*
X125089500Y-55949189D01*
X125106813Y-55901623D01*
X125150650Y-55876313D01*
X125200500Y-55885103D01*
X125215824Y-55896861D01*
X125367833Y-56048871D01*
X125431518Y-56112556D01*
X125441141Y-56124406D01*
X125449913Y-56137832D01*
X125449916Y-56137836D01*
X125479152Y-56160591D01*
X125482585Y-56163623D01*
X125486482Y-56167520D01*
X125505495Y-56181094D01*
X125548811Y-56214809D01*
X125548812Y-56214809D01*
X125548813Y-56214810D01*
X125554206Y-56217729D01*
X125554071Y-56217978D01*
X125557163Y-56219569D01*
X125557288Y-56219315D01*
X125562798Y-56222008D01*
X125562801Y-56222010D01*
X125613464Y-56237092D01*
X125653249Y-56265979D01*
X125709813Y-56347925D01*
X125709815Y-56347927D01*
X125835585Y-56459350D01*
X125837148Y-56460734D01*
X125987775Y-56539790D01*
X126152944Y-56580500D01*
X126152948Y-56580500D01*
X126323052Y-56580500D01*
X126323056Y-56580500D01*
X126488225Y-56539790D01*
X126638852Y-56460734D01*
X126766183Y-56347929D01*
X126862818Y-56207930D01*
X126923140Y-56048872D01*
X126928266Y-56006654D01*
X126943645Y-55880003D01*
X126943645Y-55879996D01*
X126923140Y-55711128D01*
X126862818Y-55552070D01*
X126766183Y-55412071D01*
X126638856Y-55299269D01*
X126638853Y-55299267D01*
X126638852Y-55299266D01*
X126488225Y-55220210D01*
X126488222Y-55220209D01*
X126323058Y-55179500D01*
X126323056Y-55179500D01*
X126152944Y-55179500D01*
X126152941Y-55179500D01*
X125987777Y-55220209D01*
X125837149Y-55299265D01*
X125806121Y-55326753D01*
X125759036Y-55345335D01*
X125711023Y-55329305D01*
X125704725Y-55323688D01*
X125111174Y-54730136D01*
X125089782Y-54684259D01*
X125089500Y-54677810D01*
X125089500Y-52116616D01*
X125091075Y-52101430D01*
X125094367Y-52085731D01*
X125089783Y-52048964D01*
X125089500Y-52044385D01*
X125089500Y-52038890D01*
X125089499Y-52038879D01*
X125085655Y-52015847D01*
X125084595Y-52007342D01*
X125078865Y-51961374D01*
X125078863Y-51961370D01*
X125078863Y-51961368D01*
X125077115Y-51955494D01*
X125077386Y-51955413D01*
X125076325Y-51952102D01*
X125076058Y-51952194D01*
X125074066Y-51946392D01*
X125047942Y-51898118D01*
X125023826Y-51848788D01*
X125020262Y-51843796D01*
X125020490Y-51843632D01*
X125018408Y-51840839D01*
X125018185Y-51841013D01*
X125014417Y-51836172D01*
X124999655Y-51822583D01*
X124974041Y-51799003D01*
X122886216Y-49711178D01*
X122864824Y-49665302D01*
X122865082Y-49649932D01*
X122879645Y-49530002D01*
X122879645Y-49529996D01*
X122859140Y-49361128D01*
X122798818Y-49202070D01*
X122773233Y-49165004D01*
X122760461Y-49116023D01*
X122782160Y-49070291D01*
X122828179Y-49049207D01*
X122876984Y-49062636D01*
X122888216Y-49072458D01*
X122958364Y-49147568D01*
X123627665Y-48478266D01*
X123736256Y-48581808D01*
X123061276Y-49256788D01*
X123275043Y-49430701D01*
X123275051Y-49430707D01*
X123514654Y-49576413D01*
X123514669Y-49576421D01*
X123771891Y-49688147D01*
X124041942Y-49763812D01*
X124319771Y-49801999D01*
X124319783Y-49802000D01*
X124600217Y-49802000D01*
X124600228Y-49801999D01*
X124878057Y-49763812D01*
X125148108Y-49688147D01*
X125405330Y-49576421D01*
X125405345Y-49576413D01*
X125644948Y-49430707D01*
X125644965Y-49430695D01*
X125858722Y-49256789D01*
X125858723Y-49256789D01*
X125183983Y-48582049D01*
X125222540Y-48551729D01*
X125289044Y-48474978D01*
X125961635Y-49147569D01*
X125961635Y-49147568D01*
X126053922Y-49048755D01*
X126215647Y-48819642D01*
X126215652Y-48819635D01*
X126344678Y-48570628D01*
X126344680Y-48570623D01*
X126438590Y-48306385D01*
X126438595Y-48306367D01*
X126495650Y-48031805D01*
X126495653Y-48031785D01*
X126514790Y-47752007D01*
X126514790Y-47751992D01*
X126495653Y-47472214D01*
X126495650Y-47472194D01*
X126438595Y-47197632D01*
X126438590Y-47197614D01*
X126344680Y-46933376D01*
X126344678Y-46933371D01*
X126215652Y-46684364D01*
X126215647Y-46684357D01*
X126053925Y-46455248D01*
X125961634Y-46356430D01*
X125292332Y-47025731D01*
X125183741Y-46922190D01*
X125858722Y-46247210D01*
X125644956Y-46073298D01*
X125644948Y-46073292D01*
X125405345Y-45927586D01*
X125405330Y-45927578D01*
X125148108Y-45815852D01*
X124878057Y-45740187D01*
X124600228Y-45702000D01*
X124319771Y-45702000D01*
X124041942Y-45740187D01*
X123771891Y-45815852D01*
X123514669Y-45927578D01*
X123514654Y-45927586D01*
X123275051Y-46073292D01*
X123275035Y-46073303D01*
X123061275Y-46247209D01*
X123736016Y-46921950D01*
X123697460Y-46952271D01*
X123630955Y-47029021D01*
X122958364Y-46356430D01*
X122866074Y-46455249D01*
X122704352Y-46684357D01*
X122704347Y-46684364D01*
X122575321Y-46933371D01*
X122575319Y-46933376D01*
X122481409Y-47197614D01*
X122481404Y-47197632D01*
X122424349Y-47472194D01*
X122424346Y-47472214D01*
X122405210Y-47751992D01*
X122405210Y-47752007D01*
X122424346Y-48031785D01*
X122424349Y-48031805D01*
X122481404Y-48306367D01*
X122481409Y-48306385D01*
X122575319Y-48570623D01*
X122575321Y-48570628D01*
X122704347Y-48819635D01*
X122704352Y-48819642D01*
X122797151Y-48951109D01*
X122810437Y-48999953D01*
X122789219Y-49045910D01*
X122743424Y-49067476D01*
X122694481Y-49054561D01*
X122687624Y-49049173D01*
X122574856Y-48949269D01*
X122574853Y-48949267D01*
X122574852Y-48949266D01*
X122424225Y-48870210D01*
X122424222Y-48870209D01*
X122259058Y-48829500D01*
X122259056Y-48829500D01*
X122088944Y-48829500D01*
X122088941Y-48829500D01*
X121923777Y-48870209D01*
X121923775Y-48870209D01*
X121923775Y-48870210D01*
X121850525Y-48908655D01*
X121773146Y-48949267D01*
X121773143Y-48949269D01*
X121645816Y-49062071D01*
X121549181Y-49202070D01*
X121488859Y-49361128D01*
X121468355Y-49529996D01*
X121468355Y-49530003D01*
X119473751Y-49530003D01*
X118895194Y-48951446D01*
X118871220Y-48927472D01*
X118846196Y-48914722D01*
X118836297Y-48908655D01*
X118813582Y-48892151D01*
X118807130Y-48890054D01*
X118803146Y-48888760D01*
X118763258Y-48857597D01*
X118752734Y-48808084D01*
X118776499Y-48763390D01*
X118823432Y-48744428D01*
X118826022Y-48744383D01*
X119425425Y-48744455D01*
X119448020Y-48744458D01*
X119448020Y-48744457D01*
X119448021Y-48744458D01*
X119448021Y-43762000D01*
X119465334Y-43714434D01*
X119509171Y-43689124D01*
X119522021Y-43688000D01*
X127477116Y-43688000D01*
X127524682Y-43705313D01*
X127529442Y-43709674D01*
X128248455Y-44428687D01*
X128269847Y-44474563D01*
X128270129Y-44480979D01*
X128289113Y-86074922D01*
X128271822Y-86122496D01*
X128266949Y-86127768D01*
X127275587Y-87100812D01*
X127229513Y-87121775D01*
X127223751Y-87122000D01*
X104933100Y-87122000D01*
X104885534Y-87104687D01*
X104880238Y-87099785D01*
X104131611Y-86335590D01*
X103378000Y-85566306D01*
X103377999Y-85566306D01*
X91439999Y-85598000D01*
X89937499Y-87062340D01*
X89891351Y-87083140D01*
X89885977Y-87083345D01*
X67330715Y-87121946D01*
X67283119Y-87104715D01*
X67277907Y-87099914D01*
X66569319Y-86381611D01*
X66548239Y-86335590D01*
X66548000Y-86329643D01*
X66548000Y-83312007D01*
X69065210Y-83312007D01*
X69084346Y-83591785D01*
X69084349Y-83591805D01*
X69141404Y-83866367D01*
X69141409Y-83866385D01*
X69235319Y-84130623D01*
X69235321Y-84130628D01*
X69364347Y-84379635D01*
X69364352Y-84379642D01*
X69526071Y-84608747D01*
X69618364Y-84707568D01*
X70287665Y-84038266D01*
X70396256Y-84141808D01*
X69721276Y-84816788D01*
X69935043Y-84990701D01*
X69935051Y-84990707D01*
X70174654Y-85136413D01*
X70174669Y-85136421D01*
X70431891Y-85248147D01*
X70701942Y-85323812D01*
X70979771Y-85361999D01*
X70979783Y-85362000D01*
X71260217Y-85362000D01*
X71260228Y-85361999D01*
X71538057Y-85323812D01*
X71808108Y-85248147D01*
X72065330Y-85136421D01*
X72065345Y-85136413D01*
X72304948Y-84990707D01*
X72304965Y-84990695D01*
X72518722Y-84816789D01*
X72518723Y-84816789D01*
X71843983Y-84142049D01*
X71882540Y-84111729D01*
X71949044Y-84034978D01*
X72621635Y-84707569D01*
X72621635Y-84707568D01*
X72713922Y-84608755D01*
X72875647Y-84379642D01*
X72875652Y-84379635D01*
X73004678Y-84130628D01*
X73004680Y-84130623D01*
X73098590Y-83866385D01*
X73098595Y-83866367D01*
X73155650Y-83591805D01*
X73155653Y-83591785D01*
X73174790Y-83312007D01*
X73174790Y-83311992D01*
X73155653Y-83032214D01*
X73155650Y-83032194D01*
X73098595Y-82757632D01*
X73098590Y-82757614D01*
X73004680Y-82493376D01*
X73004678Y-82493371D01*
X72875652Y-82244364D01*
X72875647Y-82244357D01*
X72713925Y-82015248D01*
X72621634Y-81916430D01*
X71952332Y-82585731D01*
X71843741Y-82482190D01*
X72518722Y-81807210D01*
X72304956Y-81633298D01*
X72304948Y-81633292D01*
X72065345Y-81487586D01*
X72065330Y-81487578D01*
X71808108Y-81375852D01*
X71538057Y-81300187D01*
X71260228Y-81262000D01*
X70979771Y-81262000D01*
X70701942Y-81300187D01*
X70431891Y-81375852D01*
X70174669Y-81487578D01*
X70174654Y-81487586D01*
X69935051Y-81633292D01*
X69935035Y-81633303D01*
X69721275Y-81807209D01*
X70396016Y-82481950D01*
X70357460Y-82512271D01*
X70290955Y-82589021D01*
X69618364Y-81916430D01*
X69526074Y-82015249D01*
X69364352Y-82244357D01*
X69364347Y-82244364D01*
X69235321Y-82493371D01*
X69235319Y-82493376D01*
X69141409Y-82757614D01*
X69141404Y-82757632D01*
X69084349Y-83032194D01*
X69084346Y-83032214D01*
X69065210Y-83311992D01*
X69065210Y-83312007D01*
X66548000Y-83312007D01*
X66548000Y-79336003D01*
X66863226Y-79336003D01*
X66882252Y-79492697D01*
X66938224Y-79640285D01*
X67007412Y-79740520D01*
X67295275Y-79452656D01*
X67337760Y-79516240D01*
X67401341Y-79558723D01*
X67113780Y-79846284D01*
X67146045Y-79874868D01*
X67146047Y-79874869D01*
X67285810Y-79948222D01*
X67439076Y-79985999D01*
X67439080Y-79986000D01*
X67596920Y-79986000D01*
X67596923Y-79985999D01*
X67750187Y-79948222D01*
X67889955Y-79874866D01*
X67889958Y-79874864D01*
X67922217Y-79846283D01*
X67634658Y-79558724D01*
X67698240Y-79516240D01*
X67740724Y-79452658D01*
X68028587Y-79740521D01*
X68097772Y-79640291D01*
X68097775Y-79640285D01*
X68153747Y-79492697D01*
X68172774Y-79336003D01*
X68172774Y-79335996D01*
X68153747Y-79179302D01*
X68097775Y-79031714D01*
X68028586Y-78931478D01*
X67740723Y-79219341D01*
X67698240Y-79155760D01*
X67634656Y-79113275D01*
X67922218Y-78825714D01*
X67889954Y-78797131D01*
X67889952Y-78797130D01*
X67750189Y-78723777D01*
X67596923Y-78686000D01*
X67439076Y-78686000D01*
X67285810Y-78723777D01*
X67146043Y-78797132D01*
X67113781Y-78825714D01*
X67113781Y-78825715D01*
X67401341Y-79113275D01*
X67337760Y-79155760D01*
X67295275Y-79219341D01*
X67007411Y-78931477D01*
X66938225Y-79031711D01*
X66882252Y-79179302D01*
X66863226Y-79335996D01*
X66863226Y-79336003D01*
X66548000Y-79336003D01*
X66548000Y-77636003D01*
X66863226Y-77636003D01*
X66882252Y-77792697D01*
X66938224Y-77940285D01*
X67007412Y-78040520D01*
X67295275Y-77752656D01*
X67337760Y-77816240D01*
X67401341Y-77858723D01*
X67113780Y-78146284D01*
X67146045Y-78174868D01*
X67146047Y-78174869D01*
X67285810Y-78248222D01*
X67439076Y-78285999D01*
X67439080Y-78286000D01*
X67596920Y-78286000D01*
X67596923Y-78285999D01*
X67750187Y-78248222D01*
X67889955Y-78174866D01*
X67889958Y-78174864D01*
X67922217Y-78146283D01*
X67634658Y-77858724D01*
X67698240Y-77816240D01*
X67740724Y-77752658D01*
X68028587Y-78040521D01*
X68097772Y-77940291D01*
X68097775Y-77940285D01*
X68153747Y-77792697D01*
X68172774Y-77636003D01*
X68172774Y-77635996D01*
X68153747Y-77479302D01*
X68150219Y-77470000D01*
X72898000Y-77470000D01*
X72917650Y-78007688D01*
X72917651Y-78007688D01*
X72936046Y-78174866D01*
X72976498Y-78542507D01*
X73074224Y-79071589D01*
X73124791Y-79265008D01*
X73210314Y-79592138D01*
X73384037Y-80101363D01*
X73594466Y-80596543D01*
X73594466Y-80596544D01*
X73840486Y-81075056D01*
X74120771Y-81534320D01*
X74433840Y-81971910D01*
X74492166Y-82041996D01*
X74778008Y-82385470D01*
X74973634Y-82588376D01*
X75138615Y-82759498D01*
X75151449Y-82772809D01*
X75240909Y-82852965D01*
X75552174Y-83131860D01*
X75853555Y-83364578D01*
X75978025Y-83460690D01*
X75978025Y-83460691D01*
X76426754Y-83757568D01*
X76426753Y-83757567D01*
X76895953Y-84020894D01*
X77383120Y-84249269D01*
X77383119Y-84249268D01*
X77383123Y-84249270D01*
X77614725Y-84337850D01*
X77885662Y-84441475D01*
X77885663Y-84441475D01*
X78400893Y-84596485D01*
X78400894Y-84596485D01*
X78400894Y-84596486D01*
X78926064Y-84713473D01*
X78926063Y-84713472D01*
X79458372Y-84791811D01*
X79994979Y-84831086D01*
X79994982Y-84831086D01*
X80533018Y-84831086D01*
X80533021Y-84831086D01*
X81069628Y-84791811D01*
X81601937Y-84713472D01*
X81601936Y-84713473D01*
X82127106Y-84596486D01*
X82127106Y-84596485D01*
X82127107Y-84596485D01*
X82642337Y-84441475D01*
X82642338Y-84441475D01*
X82913275Y-84337850D01*
X83144877Y-84249270D01*
X83144881Y-84249268D01*
X83144880Y-84249269D01*
X83632047Y-84020894D01*
X84101247Y-83757567D01*
X84101246Y-83757568D01*
X84549975Y-83460691D01*
X84549975Y-83460690D01*
X84674445Y-83364578D01*
X84975826Y-83131860D01*
X85287091Y-82852965D01*
X85376551Y-82772809D01*
X85389385Y-82759498D01*
X85554366Y-82588376D01*
X85749992Y-82385470D01*
X86035834Y-82041996D01*
X86094160Y-81971910D01*
X86407229Y-81534320D01*
X86687514Y-81075056D01*
X86933534Y-80596544D01*
X86933534Y-80596543D01*
X87143963Y-80101363D01*
X87317686Y-79592138D01*
X87403209Y-79265008D01*
X87453776Y-79071589D01*
X87551502Y-78542507D01*
X87591954Y-78174866D01*
X87610349Y-78007688D01*
X87610350Y-78007688D01*
X87630000Y-77470000D01*
X87610350Y-76932312D01*
X87610349Y-76932312D01*
X87551502Y-76397493D01*
X87453776Y-75868411D01*
X87318996Y-75352872D01*
X87317686Y-75347862D01*
X87143963Y-74838637D01*
X86933532Y-74343452D01*
X86687516Y-73864948D01*
X86524904Y-73598499D01*
X86407229Y-73405680D01*
X86119897Y-73004064D01*
X86094163Y-72968094D01*
X86082287Y-72953824D01*
X85871355Y-72700363D01*
X85749992Y-72554530D01*
X85407002Y-72198775D01*
X85376559Y-72167199D01*
X85376556Y-72167197D01*
X85376551Y-72167191D01*
X85103216Y-71922282D01*
X84975826Y-71808140D01*
X84577973Y-71500929D01*
X84549975Y-71479309D01*
X84101246Y-71182432D01*
X84101247Y-71182433D01*
X83632047Y-70919106D01*
X83144880Y-70690731D01*
X83144881Y-70690732D01*
X83144877Y-70690730D01*
X82860704Y-70582043D01*
X82642338Y-70498525D01*
X82642337Y-70498525D01*
X82127107Y-70343515D01*
X82127106Y-70343514D01*
X81601936Y-70226527D01*
X81601937Y-70226528D01*
X81069628Y-70148189D01*
X80533021Y-70108914D01*
X79994979Y-70108914D01*
X79458372Y-70148189D01*
X78926063Y-70226528D01*
X78926064Y-70226527D01*
X78400894Y-70343514D01*
X78400893Y-70343515D01*
X77885663Y-70498525D01*
X77885662Y-70498525D01*
X77667296Y-70582043D01*
X77383123Y-70690730D01*
X77383119Y-70690732D01*
X77383120Y-70690731D01*
X76895953Y-70919106D01*
X76426753Y-71182433D01*
X76426754Y-71182432D01*
X75978025Y-71479309D01*
X75950027Y-71500929D01*
X75552174Y-71808140D01*
X75424784Y-71922282D01*
X75151449Y-72167191D01*
X75151443Y-72167197D01*
X75151441Y-72167199D01*
X75120998Y-72198775D01*
X74778008Y-72554530D01*
X74656645Y-72700363D01*
X74445713Y-72953824D01*
X74433837Y-72968094D01*
X74408103Y-73004064D01*
X74120771Y-73405680D01*
X74003096Y-73598499D01*
X73840484Y-73864948D01*
X73594468Y-74343452D01*
X73384037Y-74838637D01*
X73210314Y-75347862D01*
X73209004Y-75352872D01*
X73074224Y-75868411D01*
X72976498Y-76397493D01*
X72917651Y-76932312D01*
X72917650Y-76932312D01*
X72898000Y-77470000D01*
X68150219Y-77470000D01*
X68097775Y-77331714D01*
X68028586Y-77231478D01*
X67740723Y-77519341D01*
X67698240Y-77455760D01*
X67634656Y-77413275D01*
X67922218Y-77125714D01*
X67889954Y-77097131D01*
X67889952Y-77097130D01*
X67750189Y-77023777D01*
X67596923Y-76986000D01*
X67439076Y-76986000D01*
X67285810Y-77023777D01*
X67146043Y-77097132D01*
X67113781Y-77125714D01*
X67113781Y-77125715D01*
X67401341Y-77413275D01*
X67337760Y-77455760D01*
X67295275Y-77519341D01*
X67007411Y-77231477D01*
X66938225Y-77331711D01*
X66882252Y-77479302D01*
X66863226Y-77635996D01*
X66863226Y-77636003D01*
X66548000Y-77636003D01*
X66548000Y-66128003D01*
X66863226Y-66128003D01*
X66882252Y-66284697D01*
X66938224Y-66432285D01*
X67007412Y-66532520D01*
X67295275Y-66244656D01*
X67337760Y-66308240D01*
X67401341Y-66350723D01*
X67113780Y-66638284D01*
X67146045Y-66666868D01*
X67146047Y-66666869D01*
X67285810Y-66740222D01*
X67439076Y-66777999D01*
X67439080Y-66778000D01*
X67596920Y-66778000D01*
X67596923Y-66777999D01*
X67750187Y-66740222D01*
X67889955Y-66666866D01*
X67889958Y-66666864D01*
X67922217Y-66638283D01*
X67634658Y-66350724D01*
X67698240Y-66308240D01*
X67740724Y-66244658D01*
X68028587Y-66532521D01*
X68097772Y-66432291D01*
X68097775Y-66432285D01*
X68153747Y-66284697D01*
X68172774Y-66128003D01*
X68172774Y-66127996D01*
X68153747Y-65971302D01*
X68097775Y-65823714D01*
X68028586Y-65723478D01*
X67740723Y-66011341D01*
X67698240Y-65947760D01*
X67634656Y-65905275D01*
X67922218Y-65617714D01*
X67889954Y-65589131D01*
X67889952Y-65589130D01*
X67750189Y-65515777D01*
X67596923Y-65478000D01*
X67439076Y-65478000D01*
X67285810Y-65515777D01*
X67146043Y-65589132D01*
X67113781Y-65617714D01*
X67113781Y-65617715D01*
X67401341Y-65905275D01*
X67337760Y-65947760D01*
X67295275Y-66011341D01*
X67007411Y-65723477D01*
X66938225Y-65823711D01*
X66882252Y-65971302D01*
X66863226Y-66127996D01*
X66863226Y-66128003D01*
X66548000Y-66128003D01*
X66548000Y-64428003D01*
X66863226Y-64428003D01*
X66882252Y-64584697D01*
X66938224Y-64732285D01*
X67007412Y-64832520D01*
X67295275Y-64544656D01*
X67337760Y-64608240D01*
X67401341Y-64650723D01*
X67113780Y-64938284D01*
X67146045Y-64966868D01*
X67146047Y-64966869D01*
X67285810Y-65040222D01*
X67439076Y-65077999D01*
X67439080Y-65078000D01*
X67596920Y-65078000D01*
X67596923Y-65077999D01*
X67750187Y-65040222D01*
X67889955Y-64966866D01*
X67889958Y-64966864D01*
X67922217Y-64938283D01*
X67634658Y-64650724D01*
X67698240Y-64608240D01*
X67740724Y-64544658D01*
X68028587Y-64832521D01*
X68097772Y-64732291D01*
X68097775Y-64732285D01*
X68153747Y-64584697D01*
X68172774Y-64428003D01*
X68172774Y-64427996D01*
X68153747Y-64271302D01*
X68097775Y-64123714D01*
X68028586Y-64023478D01*
X67740723Y-64311341D01*
X67698240Y-64247760D01*
X67634656Y-64205275D01*
X67922218Y-63917714D01*
X67889954Y-63889131D01*
X67889952Y-63889130D01*
X67750189Y-63815777D01*
X67596923Y-63778000D01*
X67439076Y-63778000D01*
X67285810Y-63815777D01*
X67146043Y-63889132D01*
X67113781Y-63917714D01*
X67113781Y-63917715D01*
X67401341Y-64205275D01*
X67337760Y-64247760D01*
X67295275Y-64311341D01*
X67007411Y-64023477D01*
X66938225Y-64123711D01*
X66882252Y-64271302D01*
X66863226Y-64427996D01*
X66863226Y-64428003D01*
X66548000Y-64428003D01*
X66548000Y-59182003D01*
X76510355Y-59182003D01*
X76530859Y-59350871D01*
X76591181Y-59509929D01*
X76687816Y-59649928D01*
X76803776Y-59752660D01*
X76815148Y-59762734D01*
X76965775Y-59841790D01*
X77130944Y-59882500D01*
X77130948Y-59882500D01*
X77301052Y-59882500D01*
X77301056Y-59882500D01*
X77466225Y-59841790D01*
X77616852Y-59762734D01*
X77744183Y-59649929D01*
X77785920Y-59589462D01*
X77827189Y-59560152D01*
X77846821Y-59557500D01*
X83265383Y-59557500D01*
X83280567Y-59559074D01*
X83296268Y-59562367D01*
X83333036Y-59557783D01*
X83337615Y-59557500D01*
X83343111Y-59557500D01*
X83343114Y-59557500D01*
X83366140Y-59553657D01*
X83420626Y-59546866D01*
X83420631Y-59546863D01*
X83426507Y-59545115D01*
X83426587Y-59545386D01*
X83429904Y-59544323D01*
X83429812Y-59544055D01*
X83435604Y-59542065D01*
X83435610Y-59542065D01*
X83483877Y-59515944D01*
X83533211Y-59491826D01*
X83533215Y-59491821D01*
X83538204Y-59488261D01*
X83538369Y-59488493D01*
X83541158Y-59486414D01*
X83540983Y-59486189D01*
X83545822Y-59482420D01*
X83545826Y-59482419D01*
X83583007Y-59442029D01*
X85161716Y-57863320D01*
X85207591Y-57841929D01*
X85231749Y-57843796D01*
X85258944Y-57850500D01*
X85258946Y-57850500D01*
X85429052Y-57850500D01*
X85429056Y-57850500D01*
X85594225Y-57809790D01*
X85744852Y-57730734D01*
X85872183Y-57617929D01*
X85968818Y-57477930D01*
X86029140Y-57318872D01*
X86037234Y-57252210D01*
X86049645Y-57150003D01*
X86049645Y-57149996D01*
X86029140Y-56981128D01*
X85968818Y-56822070D01*
X85872183Y-56682071D01*
X85744856Y-56569269D01*
X85744853Y-56569267D01*
X85744852Y-56569266D01*
X85594225Y-56490210D01*
X85594222Y-56490209D01*
X85429058Y-56449500D01*
X85429056Y-56449500D01*
X85258944Y-56449500D01*
X85258941Y-56449500D01*
X85093777Y-56490209D01*
X84943146Y-56569267D01*
X84943143Y-56569269D01*
X84815816Y-56682071D01*
X84719181Y-56822070D01*
X84658859Y-56981128D01*
X84642421Y-57116512D01*
X84638355Y-57150000D01*
X84641128Y-57172835D01*
X84652917Y-57269933D01*
X84641463Y-57319239D01*
X84631782Y-57331178D01*
X83178136Y-58784826D01*
X83132260Y-58806218D01*
X83125810Y-58806500D01*
X77846821Y-58806500D01*
X77799255Y-58789187D01*
X77785920Y-58774537D01*
X77744183Y-58714071D01*
X77616856Y-58601269D01*
X77616853Y-58601267D01*
X77616852Y-58601266D01*
X77466225Y-58522210D01*
X77466222Y-58522209D01*
X77301058Y-58481500D01*
X77301056Y-58481500D01*
X77130944Y-58481500D01*
X77130941Y-58481500D01*
X76965777Y-58522209D01*
X76815146Y-58601267D01*
X76815143Y-58601269D01*
X76687816Y-58714071D01*
X76591181Y-58854070D01*
X76530859Y-59013128D01*
X76510355Y-59181996D01*
X76510355Y-59182003D01*
X66548000Y-59182003D01*
X66548000Y-52920003D01*
X66863226Y-52920003D01*
X66882252Y-53076697D01*
X66938224Y-53224285D01*
X67007412Y-53324520D01*
X67295275Y-53036656D01*
X67337760Y-53100240D01*
X67401341Y-53142723D01*
X67113780Y-53430284D01*
X67146045Y-53458868D01*
X67146047Y-53458869D01*
X67285810Y-53532222D01*
X67439076Y-53569999D01*
X67439080Y-53570000D01*
X67596920Y-53570000D01*
X67596923Y-53569999D01*
X67750187Y-53532222D01*
X67889955Y-53458866D01*
X67889958Y-53458864D01*
X67922217Y-53430283D01*
X67634658Y-53142724D01*
X67698240Y-53100240D01*
X67740724Y-53036658D01*
X68028587Y-53324521D01*
X68097772Y-53224291D01*
X68097775Y-53224285D01*
X68153747Y-53076697D01*
X68172774Y-52920003D01*
X68172774Y-52919996D01*
X68153747Y-52763302D01*
X68097775Y-52615714D01*
X68028586Y-52515478D01*
X67740723Y-52803341D01*
X67698240Y-52739760D01*
X67634656Y-52697275D01*
X67922218Y-52409714D01*
X67889954Y-52381131D01*
X67889952Y-52381130D01*
X67750189Y-52307777D01*
X67596923Y-52270000D01*
X67439076Y-52270000D01*
X67285810Y-52307777D01*
X67146043Y-52381132D01*
X67113781Y-52409714D01*
X67113781Y-52409715D01*
X67401341Y-52697275D01*
X67337760Y-52739760D01*
X67295275Y-52803341D01*
X67007411Y-52515477D01*
X66938225Y-52615711D01*
X66882252Y-52763302D01*
X66863226Y-52919996D01*
X66863226Y-52920003D01*
X66548000Y-52920003D01*
X66548000Y-51220003D01*
X66863226Y-51220003D01*
X66882252Y-51376697D01*
X66938224Y-51524285D01*
X67007412Y-51624520D01*
X67295275Y-51336656D01*
X67337760Y-51400240D01*
X67401341Y-51442723D01*
X67113780Y-51730284D01*
X67146045Y-51758868D01*
X67146047Y-51758869D01*
X67285810Y-51832222D01*
X67439076Y-51869999D01*
X67439080Y-51870000D01*
X67596920Y-51870000D01*
X67596923Y-51869999D01*
X67750187Y-51832222D01*
X67889955Y-51758866D01*
X67889958Y-51758864D01*
X67922217Y-51730283D01*
X67634658Y-51442724D01*
X67698240Y-51400240D01*
X67740724Y-51336658D01*
X68028587Y-51624521D01*
X68097772Y-51524291D01*
X68097775Y-51524285D01*
X68153747Y-51376697D01*
X68172774Y-51220003D01*
X68172774Y-51219996D01*
X68153747Y-51063302D01*
X68097775Y-50915714D01*
X68028586Y-50815478D01*
X67740723Y-51103341D01*
X67698240Y-51039760D01*
X67634656Y-50997275D01*
X67922218Y-50709714D01*
X67889954Y-50681131D01*
X67889952Y-50681130D01*
X67750189Y-50607777D01*
X67596923Y-50570000D01*
X67439076Y-50570000D01*
X67285810Y-50607777D01*
X67146043Y-50681132D01*
X67113781Y-50709714D01*
X67113781Y-50709715D01*
X67401341Y-50997275D01*
X67337760Y-51039760D01*
X67295275Y-51103341D01*
X67007411Y-50815477D01*
X66938225Y-50915711D01*
X66882252Y-51063302D01*
X66863226Y-51219996D01*
X66863226Y-51220003D01*
X66548000Y-51220003D01*
X66548000Y-44480652D01*
X66565313Y-44433086D01*
X66569674Y-44428326D01*
X67288326Y-43709674D01*
X67334202Y-43688282D01*
X67340652Y-43688000D01*
X103964400Y-43688000D01*
X104011966Y-43705313D01*
G37*
%TD.AperFunction*%
%TA.AperFunction,Conductor*%
G36*
X106720050Y-72713464D02*
G01*
X106749084Y-72754928D01*
X106751066Y-72765161D01*
X106756859Y-72812871D01*
X106817181Y-72971929D01*
X106851105Y-73021075D01*
X106913817Y-73111929D01*
X107009391Y-73196600D01*
X107033514Y-73241100D01*
X107023390Y-73290696D01*
X107012646Y-73304315D01*
X106447440Y-73869520D01*
X106435592Y-73879142D01*
X106422163Y-73887916D01*
X106399408Y-73917150D01*
X106396377Y-73920583D01*
X106392484Y-73924477D01*
X106392480Y-73924482D01*
X106378905Y-73943495D01*
X106345192Y-73986809D01*
X106342273Y-73992204D01*
X106342026Y-73992070D01*
X106340430Y-73995171D01*
X106340682Y-73995295D01*
X106337987Y-74000805D01*
X106322329Y-74053403D01*
X106304499Y-74105342D01*
X106303491Y-74111386D01*
X106303213Y-74111339D01*
X106302711Y-74114790D01*
X106302990Y-74114825D01*
X106302232Y-74120908D01*
X106304500Y-74175755D01*
X106304500Y-80839810D01*
X106287187Y-80887376D01*
X106282826Y-80892136D01*
X102990136Y-84184826D01*
X102944260Y-84206218D01*
X102937810Y-84206500D01*
X100840310Y-84206500D01*
X100792744Y-84189187D01*
X100767434Y-84145350D01*
X100776224Y-84095500D01*
X100808900Y-84065497D01*
X100904047Y-84020894D01*
X101373247Y-83757567D01*
X101373246Y-83757568D01*
X101821975Y-83460691D01*
X101821975Y-83460690D01*
X101946445Y-83364578D01*
X102247826Y-83131860D01*
X102559091Y-82852965D01*
X102648551Y-82772809D01*
X102661385Y-82759498D01*
X102826366Y-82588376D01*
X103021992Y-82385470D01*
X103307834Y-82041996D01*
X103366160Y-81971910D01*
X103679229Y-81534320D01*
X103959514Y-81075056D01*
X104205534Y-80596544D01*
X104205534Y-80596543D01*
X104415963Y-80101363D01*
X104589686Y-79592138D01*
X104675209Y-79265008D01*
X104725776Y-79071589D01*
X104823502Y-78542507D01*
X104863954Y-78174866D01*
X104882349Y-78007688D01*
X104882350Y-78007688D01*
X104902000Y-77470000D01*
X104882350Y-76932312D01*
X104882349Y-76932312D01*
X104823502Y-76397493D01*
X104725776Y-75868411D01*
X104590996Y-75352872D01*
X104589686Y-75347862D01*
X104415963Y-74838637D01*
X104205532Y-74343452D01*
X103959516Y-73864948D01*
X103796904Y-73598499D01*
X103679229Y-73405680D01*
X103483393Y-73131952D01*
X103469796Y-73083193D01*
X103490722Y-73037102D01*
X103536379Y-73015245D01*
X103567599Y-73018902D01*
X103569340Y-73019500D01*
X103569344Y-73019500D01*
X103575391Y-73020510D01*
X103575344Y-73020786D01*
X103578793Y-73021289D01*
X103578828Y-73021009D01*
X103584905Y-73021766D01*
X103584912Y-73021768D01*
X103639756Y-73019500D01*
X106125383Y-73019500D01*
X106140567Y-73021074D01*
X106156268Y-73024367D01*
X106193036Y-73019783D01*
X106197615Y-73019500D01*
X106203111Y-73019500D01*
X106203114Y-73019500D01*
X106226140Y-73015657D01*
X106280626Y-73008866D01*
X106280631Y-73008863D01*
X106286507Y-73007115D01*
X106286587Y-73007386D01*
X106289904Y-73006323D01*
X106289812Y-73006055D01*
X106295604Y-73004065D01*
X106295610Y-73004065D01*
X106343877Y-72977944D01*
X106393211Y-72953826D01*
X106393215Y-72953821D01*
X106398204Y-72950261D01*
X106398369Y-72950493D01*
X106401158Y-72948414D01*
X106400983Y-72948189D01*
X106405822Y-72944422D01*
X106405823Y-72944420D01*
X106405826Y-72944419D01*
X106443008Y-72904028D01*
X106625281Y-72721754D01*
X106671156Y-72700363D01*
X106720050Y-72713464D01*
G37*
%TD.AperFunction*%
%TA.AperFunction,Conductor*%
G36*
X104864000Y-64973805D02*
G01*
X104808746Y-64959000D01*
X104769254Y-64959000D01*
X104714000Y-64973805D01*
X104714000Y-63494194D01*
X104769254Y-63509000D01*
X104808746Y-63509000D01*
X104864000Y-63494194D01*
X104864000Y-64973805D01*
G37*
%TD.AperFunction*%
%TA.AperFunction,Conductor*%
G36*
X104633709Y-63359000D02*
G01*
X104653805Y-63434000D01*
X103174195Y-63434000D01*
X103194291Y-63359000D01*
X103174195Y-63284000D01*
X104653805Y-63284000D01*
X104633709Y-63359000D01*
G37*
%TD.AperFunction*%
%TA.AperFunction,Conductor*%
G36*
X106383709Y-63359000D02*
G01*
X106403805Y-63434000D01*
X104924195Y-63434000D01*
X104944291Y-63359000D01*
X104924195Y-63284000D01*
X106403805Y-63284000D01*
X106383709Y-63359000D01*
G37*
%TD.AperFunction*%
%TA.AperFunction,Conductor*%
G36*
X104864000Y-63223805D02*
G01*
X104808746Y-63209000D01*
X104769254Y-63209000D01*
X104714000Y-63223805D01*
X104714000Y-61744194D01*
X104769254Y-61759000D01*
X104808746Y-61759000D01*
X104864000Y-61744194D01*
X104864000Y-63223805D01*
G37*
%TD.AperFunction*%
%TA.AperFunction,Conductor*%
G36*
X107303377Y-57288813D02*
G01*
X107308137Y-57293174D01*
X110953518Y-60938555D01*
X110963140Y-60950404D01*
X110971916Y-60963836D01*
X110995003Y-60981805D01*
X111001154Y-60986593D01*
X111004593Y-60989631D01*
X111008481Y-60993518D01*
X111008483Y-60993520D01*
X111025962Y-61006000D01*
X111027486Y-61007088D01*
X111061972Y-61033930D01*
X111070811Y-61040809D01*
X111070812Y-61040809D01*
X111076202Y-61043726D01*
X111076066Y-61043976D01*
X111079163Y-61045569D01*
X111079288Y-61045315D01*
X111084798Y-61048008D01*
X111084801Y-61048010D01*
X111120652Y-61058683D01*
X111137402Y-61063670D01*
X111150387Y-61068127D01*
X111189340Y-61081500D01*
X111189343Y-61081500D01*
X111195391Y-61082510D01*
X111195344Y-61082786D01*
X111198793Y-61083289D01*
X111198828Y-61083009D01*
X111204905Y-61083766D01*
X111204912Y-61083768D01*
X111259756Y-61081500D01*
X111383179Y-61081500D01*
X111430745Y-61098813D01*
X111444079Y-61113461D01*
X111485817Y-61173929D01*
X111512533Y-61197597D01*
X111590196Y-61266401D01*
X111613148Y-61286734D01*
X111763775Y-61365790D01*
X111928944Y-61406500D01*
X111928948Y-61406500D01*
X112099052Y-61406500D01*
X112099056Y-61406500D01*
X112264225Y-61365790D01*
X112414852Y-61286734D01*
X112542183Y-61173929D01*
X112638818Y-61033930D01*
X112699140Y-60874872D01*
X112704933Y-60827160D01*
X112727852Y-60782030D01*
X112774420Y-60762189D01*
X112822847Y-60776923D01*
X112830718Y-60783755D01*
X114115997Y-62069035D01*
X115271518Y-63224556D01*
X115281141Y-63236406D01*
X115289916Y-63249836D01*
X115319152Y-63272591D01*
X115322585Y-63275623D01*
X115326482Y-63279520D01*
X115345495Y-63293094D01*
X115388811Y-63326809D01*
X115388812Y-63326809D01*
X115388813Y-63326810D01*
X115394206Y-63329729D01*
X115394071Y-63329978D01*
X115397163Y-63331569D01*
X115397288Y-63331315D01*
X115402798Y-63334008D01*
X115402801Y-63334010D01*
X115439742Y-63345007D01*
X115455402Y-63349670D01*
X115468387Y-63354127D01*
X115507340Y-63367500D01*
X115507343Y-63367500D01*
X115513391Y-63368510D01*
X115513344Y-63368786D01*
X115516793Y-63369289D01*
X115516828Y-63369009D01*
X115522905Y-63369766D01*
X115522912Y-63369768D01*
X115577756Y-63367500D01*
X119257179Y-63367500D01*
X119304745Y-63384813D01*
X119318079Y-63399461D01*
X119359817Y-63459929D01*
X119420571Y-63513752D01*
X119437571Y-63528812D01*
X119461694Y-63573313D01*
X119462500Y-63584202D01*
X119462500Y-66463821D01*
X119445187Y-66511387D01*
X119437571Y-66519211D01*
X119359816Y-66588095D01*
X119263181Y-66728094D01*
X119202859Y-66887152D01*
X119182355Y-67056020D01*
X119182355Y-67056027D01*
X119202859Y-67224895D01*
X119263181Y-67383953D01*
X119328450Y-67478510D01*
X119359817Y-67523953D01*
X119487148Y-67636758D01*
X119637775Y-67715814D01*
X119802944Y-67756524D01*
X119802948Y-67756524D01*
X119973052Y-67756524D01*
X119973056Y-67756524D01*
X120138225Y-67715814D01*
X120267970Y-67647717D01*
X120318131Y-67640942D01*
X120360914Y-67667995D01*
X120376298Y-67716220D01*
X120357085Y-67763051D01*
X120354684Y-67765567D01*
X119138426Y-68981826D01*
X119092550Y-69003218D01*
X119086100Y-69003500D01*
X112248393Y-69003500D01*
X112113607Y-69003500D01*
X112099165Y-69008192D01*
X112086901Y-69012177D01*
X112075613Y-69014887D01*
X112047872Y-69019281D01*
X112047870Y-69019281D01*
X112022848Y-69032031D01*
X112012124Y-69036473D01*
X111985420Y-69045150D01*
X111985416Y-69045152D01*
X111962695Y-69061659D01*
X111952799Y-69067723D01*
X111927782Y-69080470D01*
X111927778Y-69080473D01*
X111903805Y-69104447D01*
X111867804Y-69140447D01*
X111821928Y-69161838D01*
X111773034Y-69148737D01*
X111744000Y-69107272D01*
X111742019Y-69079200D01*
X111751514Y-69001003D01*
X111751514Y-69000996D01*
X111731009Y-68832128D01*
X111719485Y-68801741D01*
X111718805Y-68751127D01*
X111750819Y-68711917D01*
X111788676Y-68701500D01*
X113745383Y-68701500D01*
X113760567Y-68703074D01*
X113776268Y-68706367D01*
X113813036Y-68701783D01*
X113817615Y-68701500D01*
X113823111Y-68701500D01*
X113823114Y-68701500D01*
X113846140Y-68697657D01*
X113900626Y-68690866D01*
X113900631Y-68690863D01*
X113906507Y-68689115D01*
X113906587Y-68689386D01*
X113909904Y-68688323D01*
X113909812Y-68688055D01*
X113915604Y-68686065D01*
X113915610Y-68686065D01*
X113963877Y-68659944D01*
X114013211Y-68635826D01*
X114013215Y-68635821D01*
X114018204Y-68632261D01*
X114018369Y-68632493D01*
X114021158Y-68630414D01*
X114020983Y-68630189D01*
X114025822Y-68626422D01*
X114025823Y-68626420D01*
X114025826Y-68626419D01*
X114063008Y-68586028D01*
X114371715Y-68277320D01*
X114417590Y-68255929D01*
X114441749Y-68257797D01*
X114468944Y-68264500D01*
X114468948Y-68264500D01*
X114639052Y-68264500D01*
X114639056Y-68264500D01*
X114804225Y-68223790D01*
X114954852Y-68144734D01*
X115082183Y-68031929D01*
X115178818Y-67891930D01*
X115239140Y-67732872D01*
X115247018Y-67667995D01*
X115259645Y-67564003D01*
X115259645Y-67563996D01*
X115239140Y-67395128D01*
X115178818Y-67236070D01*
X115082183Y-67096071D01*
X114954856Y-66983269D01*
X114954853Y-66983267D01*
X114954852Y-66983266D01*
X114804225Y-66904210D01*
X114804222Y-66904209D01*
X114639058Y-66863500D01*
X114639056Y-66863500D01*
X114468944Y-66863500D01*
X114468941Y-66863500D01*
X114303777Y-66904209D01*
X114153146Y-66983267D01*
X114153143Y-66983269D01*
X114025816Y-67096071D01*
X113929181Y-67236070D01*
X113868859Y-67395128D01*
X113851433Y-67538650D01*
X113848355Y-67564000D01*
X113851497Y-67589875D01*
X113862917Y-67683933D01*
X113851463Y-67733239D01*
X113841782Y-67745178D01*
X113658136Y-67928826D01*
X113612260Y-67950218D01*
X113605810Y-67950500D01*
X110028618Y-67950500D01*
X110013433Y-67948925D01*
X109997732Y-67945633D01*
X109960963Y-67950216D01*
X109956385Y-67950500D01*
X109950878Y-67950500D01*
X109927859Y-67954341D01*
X109888279Y-67959275D01*
X109873374Y-67961134D01*
X109873372Y-67961134D01*
X109873369Y-67961135D01*
X109867497Y-67962883D01*
X109867418Y-67962618D01*
X109864097Y-67963681D01*
X109864188Y-67963944D01*
X109858392Y-67965934D01*
X109810122Y-67992055D01*
X109760787Y-68016174D01*
X109755797Y-68019737D01*
X109755635Y-68019510D01*
X109752836Y-68021597D01*
X109753008Y-68021818D01*
X109748176Y-68025578D01*
X109710992Y-68065970D01*
X109086136Y-68690826D01*
X109040260Y-68712218D01*
X109033810Y-68712500D01*
X105342189Y-68712500D01*
X105294623Y-68695187D01*
X105289863Y-68690826D01*
X105245469Y-68646432D01*
X105200480Y-68601442D01*
X105190854Y-68589588D01*
X105184587Y-68579996D01*
X105182084Y-68576164D01*
X105182083Y-68576163D01*
X105152853Y-68553412D01*
X105149415Y-68550377D01*
X105145518Y-68546480D01*
X105126504Y-68532905D01*
X105083189Y-68499191D01*
X105083186Y-68499190D01*
X105077795Y-68496272D01*
X105077928Y-68496024D01*
X105074829Y-68494429D01*
X105074706Y-68494682D01*
X105069201Y-68491990D01*
X105016596Y-68476329D01*
X104964661Y-68458499D01*
X104958615Y-68457491D01*
X104958661Y-68457214D01*
X104955206Y-68456710D01*
X104955172Y-68456991D01*
X104949089Y-68456232D01*
X104949088Y-68456232D01*
X104949086Y-68456232D01*
X104894244Y-68458500D01*
X103056189Y-68458500D01*
X103008623Y-68441187D01*
X103003863Y-68436826D01*
X101136479Y-66569441D01*
X101126853Y-66557586D01*
X101118086Y-66544166D01*
X101118083Y-66544163D01*
X101088853Y-66521412D01*
X101085415Y-66518377D01*
X101081518Y-66514480D01*
X101062504Y-66500905D01*
X101019189Y-66467191D01*
X101019186Y-66467190D01*
X101013795Y-66464272D01*
X101013928Y-66464024D01*
X101010829Y-66462429D01*
X101010706Y-66462682D01*
X101005201Y-66459990D01*
X100952596Y-66444329D01*
X100900661Y-66426499D01*
X100894615Y-66425491D01*
X100894661Y-66425214D01*
X100891206Y-66424710D01*
X100891172Y-66424991D01*
X100885089Y-66424232D01*
X100885088Y-66424232D01*
X100885086Y-66424232D01*
X100830244Y-66426500D01*
X97468189Y-66426500D01*
X97420623Y-66409187D01*
X97415863Y-66404826D01*
X96120038Y-65109000D01*
X102484254Y-65109000D01*
X102488683Y-65142646D01*
X102489000Y-65147481D01*
X102489000Y-65403792D01*
X102491908Y-65428868D01*
X102491910Y-65428874D01*
X102537213Y-65531478D01*
X102616521Y-65610786D01*
X102719124Y-65656089D01*
X102719123Y-65656089D01*
X102744210Y-65658999D01*
X103000519Y-65658999D01*
X103005354Y-65659316D01*
X103038999Y-65663745D01*
X103072645Y-65659316D01*
X103077480Y-65658999D01*
X104714000Y-65658999D01*
X104714000Y-65244194D01*
X104769254Y-65259000D01*
X104808746Y-65259000D01*
X104864000Y-65244194D01*
X104864000Y-65658999D01*
X106500516Y-65658999D01*
X106505350Y-65659316D01*
X106539000Y-65663745D01*
X106572648Y-65659316D01*
X106577483Y-65658999D01*
X106833792Y-65658999D01*
X106858868Y-65656091D01*
X106858874Y-65656089D01*
X106961478Y-65610786D01*
X107040786Y-65531478D01*
X107086089Y-65428875D01*
X107088999Y-65403789D01*
X107088999Y-65147479D01*
X107089316Y-65142644D01*
X107093745Y-65108999D01*
X107089316Y-65075354D01*
X107088999Y-65070519D01*
X107088999Y-63434000D01*
X106674195Y-63434000D01*
X106694291Y-63359000D01*
X106674195Y-63284000D01*
X107088999Y-63284000D01*
X107088999Y-61647483D01*
X107089316Y-61642648D01*
X107093745Y-61609000D01*
X107089316Y-61575350D01*
X107088999Y-61570516D01*
X107088999Y-61314207D01*
X107086091Y-61289131D01*
X107086089Y-61289125D01*
X107040786Y-61186521D01*
X106961478Y-61107213D01*
X106858875Y-61061910D01*
X106858876Y-61061910D01*
X106833789Y-61059000D01*
X106577478Y-61059000D01*
X106572643Y-61058683D01*
X106538999Y-61054254D01*
X106505356Y-61058683D01*
X106500521Y-61059000D01*
X104864000Y-61059000D01*
X104864000Y-61473805D01*
X104808746Y-61459000D01*
X104769254Y-61459000D01*
X104714000Y-61473805D01*
X104714000Y-61059000D01*
X103077481Y-61059000D01*
X103072647Y-61058683D01*
X103039001Y-61054254D01*
X103038999Y-61054254D01*
X103005351Y-61058683D01*
X103000517Y-61059000D01*
X102744207Y-61059000D01*
X102719131Y-61061908D01*
X102719125Y-61061910D01*
X102616521Y-61107213D01*
X102537213Y-61186521D01*
X102491910Y-61289124D01*
X102489000Y-61314210D01*
X102489000Y-61570521D01*
X102488683Y-61575356D01*
X102484254Y-61608999D01*
X102488683Y-61642642D01*
X102489000Y-61647476D01*
X102489000Y-63284000D01*
X102903805Y-63284000D01*
X102883709Y-63359000D01*
X102903805Y-63434000D01*
X102489000Y-63434000D01*
X102489000Y-65070517D01*
X102488683Y-65075351D01*
X102484254Y-65108998D01*
X102484254Y-65109000D01*
X96120038Y-65109000D01*
X95708216Y-64697178D01*
X95686824Y-64651302D01*
X95687082Y-64635932D01*
X95701645Y-64516002D01*
X95701645Y-64515996D01*
X95681140Y-64347128D01*
X95620818Y-64188070D01*
X95524183Y-64048071D01*
X95396856Y-63935269D01*
X95396853Y-63935267D01*
X95396852Y-63935266D01*
X95246225Y-63856210D01*
X95246222Y-63856209D01*
X95081058Y-63815500D01*
X95081056Y-63815500D01*
X94910944Y-63815500D01*
X94910941Y-63815500D01*
X94745777Y-63856209D01*
X94595146Y-63935267D01*
X94595143Y-63935269D01*
X94467816Y-64048071D01*
X94371181Y-64188070D01*
X94310859Y-64347128D01*
X94290355Y-64515996D01*
X94290355Y-64516003D01*
X94310859Y-64684871D01*
X94371181Y-64843929D01*
X94467816Y-64983928D01*
X94574001Y-65078000D01*
X94595148Y-65096734D01*
X94745775Y-65175790D01*
X94910944Y-65216500D01*
X94910948Y-65216500D01*
X95081054Y-65216500D01*
X95081056Y-65216500D01*
X95081058Y-65216499D01*
X95081061Y-65216499D01*
X95108247Y-65209798D01*
X95158575Y-65215223D01*
X95178284Y-65229321D01*
X96549137Y-66600174D01*
X96570529Y-66646050D01*
X96557428Y-66694945D01*
X96515964Y-66723979D01*
X96496811Y-66726500D01*
X92688189Y-66726500D01*
X92640623Y-66709187D01*
X92635863Y-66704826D01*
X88876174Y-62945136D01*
X88854782Y-62899260D01*
X88854500Y-62892810D01*
X88854500Y-58654098D01*
X88871813Y-58606532D01*
X88915650Y-58581222D01*
X88946204Y-58582247D01*
X89068944Y-58612500D01*
X89137329Y-58612500D01*
X89184895Y-58629813D01*
X89210205Y-58673650D01*
X89210789Y-58677580D01*
X89230859Y-58842871D01*
X89291181Y-59001929D01*
X89291182Y-59001930D01*
X89387817Y-59141929D01*
X89515148Y-59254734D01*
X89665775Y-59333790D01*
X89830944Y-59374500D01*
X89830948Y-59374500D01*
X90001052Y-59374500D01*
X90001056Y-59374500D01*
X90166225Y-59333790D01*
X90316852Y-59254734D01*
X90444183Y-59141929D01*
X90485920Y-59081462D01*
X90527189Y-59052152D01*
X90546821Y-59049500D01*
X104525179Y-59049500D01*
X104572745Y-59066813D01*
X104586079Y-59081461D01*
X104627817Y-59141929D01*
X104755148Y-59254734D01*
X104905775Y-59333790D01*
X105070944Y-59374500D01*
X105070948Y-59374500D01*
X105241052Y-59374500D01*
X105241056Y-59374500D01*
X105406225Y-59333790D01*
X105556852Y-59254734D01*
X105684183Y-59141929D01*
X105780818Y-59001930D01*
X105841140Y-58842872D01*
X105848188Y-58784826D01*
X105861645Y-58674003D01*
X105861645Y-58673996D01*
X105841140Y-58505128D01*
X105780818Y-58346070D01*
X105684183Y-58206071D01*
X105556856Y-58093269D01*
X105556853Y-58093267D01*
X105556852Y-58093266D01*
X105406225Y-58014210D01*
X105406222Y-58014209D01*
X105241058Y-57973500D01*
X105241056Y-57973500D01*
X105172671Y-57973500D01*
X105125105Y-57956187D01*
X105099795Y-57912350D01*
X105099211Y-57908420D01*
X105079140Y-57743128D01*
X105018818Y-57584070D01*
X105001818Y-57559441D01*
X104922183Y-57444071D01*
X104873442Y-57400890D01*
X104849318Y-57356388D01*
X104859444Y-57306792D01*
X104899080Y-57275308D01*
X104922513Y-57271500D01*
X107255811Y-57271500D01*
X107303377Y-57288813D01*
G37*
%TD.AperFunction*%
%TA.AperFunction,Conductor*%
G36*
X118458666Y-49718813D02*
G01*
X118463426Y-49723174D01*
X119440826Y-50700574D01*
X119462218Y-50746450D01*
X119462500Y-50752900D01*
X119462500Y-55541797D01*
X119445187Y-55589363D01*
X119437571Y-55597187D01*
X119359816Y-55666071D01*
X119263181Y-55806070D01*
X119202859Y-55965128D01*
X119182355Y-56133996D01*
X119182355Y-56134003D01*
X119202859Y-56302871D01*
X119263181Y-56461929D01*
X119354969Y-56594905D01*
X119359817Y-56601929D01*
X119487148Y-56714734D01*
X119637775Y-56793790D01*
X119802944Y-56834500D01*
X119802948Y-56834500D01*
X119956100Y-56834500D01*
X120003666Y-56851813D01*
X120008426Y-56856174D01*
X120456826Y-57304574D01*
X120478218Y-57350450D01*
X120478500Y-57356900D01*
X120478500Y-62414857D01*
X120461187Y-62462423D01*
X120417350Y-62487733D01*
X120367500Y-62478943D01*
X120355429Y-62470247D01*
X120292905Y-62414857D01*
X120288852Y-62411266D01*
X120138225Y-62332210D01*
X120138222Y-62332209D01*
X119973058Y-62291500D01*
X119973056Y-62291500D01*
X119802944Y-62291500D01*
X119802941Y-62291500D01*
X119637777Y-62332209D01*
X119487146Y-62411267D01*
X119487143Y-62411269D01*
X119359816Y-62524071D01*
X119318080Y-62584537D01*
X119276811Y-62613848D01*
X119257179Y-62616500D01*
X115756189Y-62616500D01*
X115708623Y-62599187D01*
X115703863Y-62594826D01*
X111202216Y-58093178D01*
X111180824Y-58047302D01*
X111181082Y-58031932D01*
X111195645Y-57912002D01*
X111195645Y-57911996D01*
X111175140Y-57743128D01*
X111114818Y-57584070D01*
X111018183Y-57444071D01*
X110890856Y-57331269D01*
X110890853Y-57331267D01*
X110890852Y-57331266D01*
X110740225Y-57252210D01*
X110740222Y-57252209D01*
X110575058Y-57211500D01*
X110575056Y-57211500D01*
X110404944Y-57211500D01*
X110404941Y-57211500D01*
X110239777Y-57252209D01*
X110089146Y-57331267D01*
X110089143Y-57331269D01*
X109961816Y-57444071D01*
X109865181Y-57584070D01*
X109804859Y-57743128D01*
X109784355Y-57911996D01*
X109784355Y-57912003D01*
X109804859Y-58080871D01*
X109865181Y-58239929D01*
X109938446Y-58346070D01*
X109961817Y-58379929D01*
X110089148Y-58492734D01*
X110239775Y-58571790D01*
X110404944Y-58612500D01*
X110404948Y-58612500D01*
X110575054Y-58612500D01*
X110575056Y-58612500D01*
X110575058Y-58612499D01*
X110575061Y-58612499D01*
X110602247Y-58605798D01*
X110652575Y-58611223D01*
X110672284Y-58625321D01*
X111935262Y-59888299D01*
X111956654Y-59934175D01*
X111943553Y-59983070D01*
X111902089Y-60012104D01*
X111900645Y-60012475D01*
X111763777Y-60046209D01*
X111613146Y-60125267D01*
X111613143Y-60125269D01*
X111485817Y-60238070D01*
X111466543Y-60265993D01*
X111425273Y-60295303D01*
X111374818Y-60291228D01*
X111353317Y-60276280D01*
X109570145Y-58493108D01*
X107740479Y-56663441D01*
X107730853Y-56651586D01*
X107722086Y-56638166D01*
X107722083Y-56638163D01*
X107692853Y-56615412D01*
X107689415Y-56612377D01*
X107685518Y-56608480D01*
X107666504Y-56594905D01*
X107623189Y-56561191D01*
X107623186Y-56561190D01*
X107617795Y-56558272D01*
X107617928Y-56558024D01*
X107614829Y-56556429D01*
X107614706Y-56556682D01*
X107609201Y-56553990D01*
X107556596Y-56538329D01*
X107504661Y-56520499D01*
X107498615Y-56519491D01*
X107498661Y-56519214D01*
X107495206Y-56518710D01*
X107495172Y-56518991D01*
X107489089Y-56518232D01*
X107489088Y-56518232D01*
X107489086Y-56518232D01*
X107434244Y-56520500D01*
X105167077Y-56520500D01*
X105119511Y-56503187D01*
X105094201Y-56459350D01*
X105093617Y-56437580D01*
X105099637Y-56388003D01*
X105099637Y-56387996D01*
X105079132Y-56219128D01*
X105018810Y-56060070D01*
X104922175Y-55920071D01*
X104876944Y-55880000D01*
X104796115Y-55808392D01*
X104771993Y-55763892D01*
X104782118Y-55714296D01*
X104796112Y-55697617D01*
X104922183Y-55585929D01*
X105018818Y-55445930D01*
X105079140Y-55286872D01*
X105087234Y-55220210D01*
X105099645Y-55118003D01*
X105099645Y-55117996D01*
X105085082Y-54998066D01*
X105096534Y-54948760D01*
X105106211Y-54936825D01*
X105642561Y-54400475D01*
X105654401Y-54390861D01*
X105667836Y-54382084D01*
X105690598Y-54352837D01*
X105693620Y-54349417D01*
X105697520Y-54345518D01*
X105705156Y-54334821D01*
X105711095Y-54326504D01*
X105726269Y-54307007D01*
X105744809Y-54283189D01*
X105744811Y-54283181D01*
X105747729Y-54277792D01*
X105747979Y-54277927D01*
X105749571Y-54274835D01*
X105749316Y-54274710D01*
X105752009Y-54269200D01*
X105752008Y-54269200D01*
X105752010Y-54269199D01*
X105767670Y-54216596D01*
X105785500Y-54164660D01*
X105785500Y-54164659D01*
X105786510Y-54158610D01*
X105786786Y-54158656D01*
X105787289Y-54155206D01*
X105787009Y-54155172D01*
X105787765Y-54149095D01*
X105787768Y-54149088D01*
X105785500Y-54094244D01*
X105785500Y-52256189D01*
X105802813Y-52208623D01*
X105807174Y-52203863D01*
X107321863Y-50689174D01*
X107367739Y-50667782D01*
X107374189Y-50667500D01*
X116717179Y-50667500D01*
X116764745Y-50684813D01*
X116778079Y-50699461D01*
X116819817Y-50759929D01*
X116947148Y-50872734D01*
X117097775Y-50951790D01*
X117262944Y-50992500D01*
X117262948Y-50992500D01*
X117433052Y-50992500D01*
X117433056Y-50992500D01*
X117598225Y-50951790D01*
X117748852Y-50872734D01*
X117876183Y-50759929D01*
X117972818Y-50619930D01*
X118033140Y-50460872D01*
X118042006Y-50387853D01*
X118053645Y-50292003D01*
X118053645Y-50291996D01*
X118033140Y-50123128D01*
X117972818Y-49964070D01*
X117873640Y-49820387D01*
X117874689Y-49819662D01*
X117858043Y-49777489D01*
X117874071Y-49729474D01*
X117917212Y-49702996D01*
X117932016Y-49701500D01*
X118411100Y-49701500D01*
X118458666Y-49718813D01*
G37*
%TD.AperFunction*%
%TD*%
M02*
