%TF.GenerationSoftware,KiCad,Pcbnew,7.0.9*%
%TF.CreationDate,2023-12-20T20:28:38+02:00*%
%TF.ProjectId,DRM_Watch_V3,44524d5f-5761-4746-9368-5f56332e6b69,rev?*%
%TF.SameCoordinates,Original*%
%TF.FileFunction,Soldermask,Top*%
%TF.FilePolarity,Negative*%
%FSLAX46Y46*%
G04 Gerber Fmt 4.6, Leading zero omitted, Abs format (unit mm)*
G04 Created by KiCad (PCBNEW 7.0.9) date 2023-12-20 20:28:38*
%MOMM*%
%LPD*%
G01*
G04 APERTURE LIST*
G04 Aperture macros list*
%AMRoundRect*
0 Rectangle with rounded corners*
0 $1 Rounding radius*
0 $2 $3 $4 $5 $6 $7 $8 $9 X,Y pos of 4 corners*
0 Add a 4 corners polygon primitive as box body*
4,1,4,$2,$3,$4,$5,$6,$7,$8,$9,$2,$3,0*
0 Add four circle primitives for the rounded corners*
1,1,$1+$1,$2,$3*
1,1,$1+$1,$4,$5*
1,1,$1+$1,$6,$7*
1,1,$1+$1,$8,$9*
0 Add four rect primitives between the rounded corners*
20,1,$1+$1,$2,$3,$4,$5,0*
20,1,$1+$1,$4,$5,$6,$7,0*
20,1,$1+$1,$6,$7,$8,$9,0*
20,1,$1+$1,$8,$9,$2,$3,0*%
G04 Aperture macros list end*
%ADD10C,0.010000*%
%ADD11RoundRect,0.050000X1.000000X-1.000000X1.000000X1.000000X-1.000000X1.000000X-1.000000X-1.000000X0*%
%ADD12C,1.200000*%
%ADD13RoundRect,0.200000X0.275000X-0.200000X0.275000X0.200000X-0.275000X0.200000X-0.275000X-0.200000X0*%
%ADD14RoundRect,0.350000X0.250000X-0.250000X0.250000X0.250000X-0.250000X0.250000X-0.250000X-0.250000X0*%
%ADD15RoundRect,0.102000X-1.250000X-1.250000X1.250000X-1.250000X1.250000X1.250000X-1.250000X1.250000X0*%
%ADD16RoundRect,0.200000X-0.200000X-0.275000X0.200000X-0.275000X0.200000X0.275000X-0.200000X0.275000X0*%
%ADD17C,4.100000*%
%ADD18RoundRect,0.225000X-0.250000X0.225000X-0.250000X-0.225000X0.250000X-0.225000X0.250000X0.225000X0*%
%ADD19C,0.700000*%
%ADD20RoundRect,0.200000X0.200000X0.500000X-0.200000X0.500000X-0.200000X-0.500000X0.200000X-0.500000X0*%
%ADD21RoundRect,0.102000X-0.635000X0.450000X-0.635000X-0.450000X0.635000X-0.450000X0.635000X0.450000X0*%
%ADD22RoundRect,0.102000X-0.400000X0.725000X-0.400000X-0.725000X0.400000X-0.725000X0.400000X0.725000X0*%
%ADD23C,0.800000*%
%ADD24RoundRect,0.250000X0.250000X0.475000X-0.250000X0.475000X-0.250000X-0.475000X0.250000X-0.475000X0*%
%ADD25RoundRect,0.144000X0.573000X0.258000X-0.573000X0.258000X-0.573000X-0.258000X0.573000X-0.258000X0*%
%ADD26RoundRect,0.225000X-0.225000X-0.250000X0.225000X-0.250000X0.225000X0.250000X-0.225000X0.250000X0*%
%ADD27RoundRect,0.102000X-0.750000X0.330200X-0.750000X-0.330200X0.750000X-0.330200X0.750000X0.330200X0*%
%ADD28RoundRect,0.102000X-1.000000X1.500000X-1.000000X-1.500000X1.000000X-1.500000X1.000000X1.500000X0*%
%ADD29RoundRect,0.225000X0.225000X0.250000X-0.225000X0.250000X-0.225000X-0.250000X0.225000X-0.250000X0*%
%ADD30RoundRect,0.050000X-0.150000X-0.650000X0.150000X-0.650000X0.150000X0.650000X-0.150000X0.650000X0*%
%ADD31RoundRect,0.102000X-1.000000X-0.900000X1.000000X-0.900000X1.000000X0.900000X-1.000000X0.900000X0*%
%ADD32RoundRect,0.225000X0.250000X-0.225000X0.250000X0.225000X-0.250000X0.225000X-0.250000X-0.225000X0*%
%ADD33RoundRect,0.200000X0.200000X0.275000X-0.200000X0.275000X-0.200000X-0.275000X0.200000X-0.275000X0*%
%ADD34RoundRect,0.250000X-0.475000X0.250000X-0.475000X-0.250000X0.475000X-0.250000X0.475000X0.250000X0*%
%ADD35RoundRect,0.150000X-0.512500X-0.150000X0.512500X-0.150000X0.512500X0.150000X-0.512500X0.150000X0*%
%ADD36RoundRect,0.200000X-0.275000X0.200000X-0.275000X-0.200000X0.275000X-0.200000X0.275000X0.200000X0*%
%ADD37RoundRect,0.102000X0.635000X-0.450000X0.635000X0.450000X-0.635000X0.450000X-0.635000X-0.450000X0*%
%ADD38RoundRect,0.102000X0.400000X-0.725000X0.400000X0.725000X-0.400000X0.725000X-0.400000X-0.725000X0*%
%ADD39C,0.600000*%
%ADD40O,2.204000X1.104000*%
%ADD41O,1.904000X1.104000*%
%ADD42RoundRect,0.102000X0.350000X0.375000X-0.350000X0.375000X-0.350000X-0.375000X0.350000X-0.375000X0*%
%ADD43RoundRect,0.050000X0.050000X-0.350000X0.050000X0.350000X-0.050000X0.350000X-0.050000X-0.350000X0*%
%ADD44RoundRect,0.050000X0.350000X-0.050000X0.350000X0.050000X-0.350000X0.050000X-0.350000X-0.050000X0*%
%ADD45R,4.000000X4.000000*%
%ADD46RoundRect,0.250000X0.475000X-0.250000X0.475000X0.250000X-0.475000X0.250000X-0.475000X-0.250000X0*%
G04 APERTURE END LIST*
%TO.C,J1*%
D10*
X122540000Y-68581000D02*
X121300000Y-68581000D01*
X121300000Y-67881000D01*
X122540000Y-67881000D01*
X122540000Y-68581000D01*
G36*
X122540000Y-68581000D02*
G01*
X121300000Y-68581000D01*
X121300000Y-67881000D01*
X122540000Y-67881000D01*
X122540000Y-68581000D01*
G37*
X122540000Y-67781000D02*
X121300000Y-67781000D01*
X121300000Y-67081000D01*
X122540000Y-67081000D01*
X122540000Y-67781000D01*
G36*
X122540000Y-67781000D02*
G01*
X121300000Y-67781000D01*
X121300000Y-67081000D01*
X122540000Y-67081000D01*
X122540000Y-67781000D01*
G37*
X122540000Y-66981000D02*
X121300000Y-66981000D01*
X121300000Y-66581000D01*
X122540000Y-66581000D01*
X122540000Y-66981000D01*
G36*
X122540000Y-66981000D02*
G01*
X121300000Y-66981000D01*
X121300000Y-66581000D01*
X122540000Y-66581000D01*
X122540000Y-66981000D01*
G37*
X122540000Y-66481000D02*
X121300000Y-66481000D01*
X121300000Y-66081000D01*
X122540000Y-66081000D01*
X122540000Y-66481000D01*
G36*
X122540000Y-66481000D02*
G01*
X121300000Y-66481000D01*
X121300000Y-66081000D01*
X122540000Y-66081000D01*
X122540000Y-66481000D01*
G37*
X122540000Y-65981000D02*
X121300000Y-65981000D01*
X121300000Y-65581000D01*
X122540000Y-65581000D01*
X122540000Y-65981000D01*
G36*
X122540000Y-65981000D02*
G01*
X121300000Y-65981000D01*
X121300000Y-65581000D01*
X122540000Y-65581000D01*
X122540000Y-65981000D01*
G37*
X122540000Y-65481000D02*
X121300000Y-65481000D01*
X121300000Y-65081000D01*
X122540000Y-65081000D01*
X122540000Y-65481000D01*
G36*
X122540000Y-65481000D02*
G01*
X121300000Y-65481000D01*
X121300000Y-65081000D01*
X122540000Y-65081000D01*
X122540000Y-65481000D01*
G37*
X122540000Y-64981000D02*
X121300000Y-64981000D01*
X121300000Y-64581000D01*
X122540000Y-64581000D01*
X122540000Y-64981000D01*
G36*
X122540000Y-64981000D02*
G01*
X121300000Y-64981000D01*
X121300000Y-64581000D01*
X122540000Y-64581000D01*
X122540000Y-64981000D01*
G37*
X122540000Y-64481000D02*
X121300000Y-64481000D01*
X121300000Y-64081000D01*
X122540000Y-64081000D01*
X122540000Y-64481000D01*
G36*
X122540000Y-64481000D02*
G01*
X121300000Y-64481000D01*
X121300000Y-64081000D01*
X122540000Y-64081000D01*
X122540000Y-64481000D01*
G37*
X122540000Y-63981000D02*
X121300000Y-63981000D01*
X121300000Y-63581000D01*
X122540000Y-63581000D01*
X122540000Y-63981000D01*
G36*
X122540000Y-63981000D02*
G01*
X121300000Y-63981000D01*
X121300000Y-63581000D01*
X122540000Y-63581000D01*
X122540000Y-63981000D01*
G37*
X122540000Y-63481000D02*
X121300000Y-63481000D01*
X121300000Y-63081000D01*
X122540000Y-63081000D01*
X122540000Y-63481000D01*
G36*
X122540000Y-63481000D02*
G01*
X121300000Y-63481000D01*
X121300000Y-63081000D01*
X122540000Y-63081000D01*
X122540000Y-63481000D01*
G37*
X122540000Y-62981000D02*
X121300000Y-62981000D01*
X121300000Y-62281000D01*
X122540000Y-62281000D01*
X122540000Y-62981000D01*
G36*
X122540000Y-62981000D02*
G01*
X121300000Y-62981000D01*
X121300000Y-62281000D01*
X122540000Y-62281000D01*
X122540000Y-62981000D01*
G37*
X122540000Y-62181000D02*
X121300000Y-62181000D01*
X121300000Y-61481000D01*
X122540000Y-61481000D01*
X122540000Y-62181000D01*
G36*
X122540000Y-62181000D02*
G01*
X121300000Y-62181000D01*
X121300000Y-61481000D01*
X122540000Y-61481000D01*
X122540000Y-62181000D01*
G37*
%TD*%
D11*
%TO.C,BT1*%
X92710000Y-54991000D03*
X92710000Y-58293000D03*
%TD*%
D12*
%TO.C,TP15*%
X97028000Y-71882000D03*
%TD*%
D13*
%TO.C,R3*%
X124206000Y-73469000D03*
X124206000Y-71819000D03*
%TD*%
D14*
%TO.C,D2*%
X67564000Y-70260000D03*
X67564000Y-73660000D03*
%TD*%
D15*
%TO.C,LS1*%
X77264000Y-85042000D03*
X77264000Y-79042000D03*
X83264000Y-79042000D03*
X83264000Y-85042000D03*
%TD*%
D16*
%TO.C,R14*%
X119634000Y-73660000D03*
X121284000Y-73660000D03*
%TD*%
D13*
%TO.C,R6*%
X69342000Y-73660000D03*
X69342000Y-72010000D03*
%TD*%
D17*
%TO.C,M2*%
X124460000Y-47752000D03*
%TD*%
D12*
%TO.C,TP9*%
X123952000Y-85852000D03*
%TD*%
D18*
%TO.C,C5*%
X121103000Y-83632000D03*
X121103000Y-85182000D03*
%TD*%
D12*
%TO.C,TP24*%
X113792000Y-62028000D03*
%TD*%
%TO.C,TP23*%
X110490000Y-59944000D03*
%TD*%
D13*
%TO.C,R9*%
X109728000Y-53403000D03*
X109728000Y-51753000D03*
%TD*%
D19*
%TO.C,D3*%
X122428000Y-54356000D03*
D20*
X123444000Y-54356000D03*
X121412000Y-54356000D03*
%TD*%
D12*
%TO.C,TP5*%
X74168000Y-74168000D03*
%TD*%
D21*
%TO.C,S2*%
X68703000Y-63754000D03*
X68703000Y-66802000D03*
D22*
X66818000Y-62992000D03*
D23*
X67518000Y-64428000D03*
X67518000Y-66128000D03*
D22*
X66818000Y-67564000D03*
%TD*%
D24*
%TO.C,C9*%
X107884000Y-83886000D03*
X105984000Y-83886000D03*
%TD*%
D25*
%TO.C,Q1*%
X88569000Y-80198000D03*
X88569000Y-78298000D03*
X86449000Y-79248000D03*
%TD*%
D26*
%TO.C,C6*%
X117576000Y-81280000D03*
X119126000Y-81280000D03*
%TD*%
D18*
%TO.C,C4*%
X119325000Y-83632000D03*
X119325000Y-85182000D03*
%TD*%
D27*
%TO.C,U3*%
X112156554Y-51699405D03*
X112156554Y-52969405D03*
X112156554Y-54239405D03*
X112156554Y-55509405D03*
X117953766Y-55501515D03*
X117953766Y-54231515D03*
X117953766Y-52961515D03*
X117953766Y-51691515D03*
D28*
X115062000Y-53594000D03*
%TD*%
D12*
%TO.C,TP16*%
X100584000Y-72390000D03*
%TD*%
%TO.C,TP20*%
X74168000Y-69850000D03*
%TD*%
%TO.C,TP12*%
X113792000Y-69596000D03*
%TD*%
D21*
%TO.C,S1*%
X68703000Y-50546000D03*
X68703000Y-53594000D03*
D22*
X66818000Y-49784000D03*
D23*
X67518000Y-51220000D03*
X67518000Y-52920000D03*
D22*
X66818000Y-54356000D03*
%TD*%
D29*
%TO.C,C12*%
X113805000Y-57658000D03*
X112255000Y-57658000D03*
%TD*%
D30*
%TO.C,J2*%
X95286000Y-74595000D03*
X95786000Y-74595000D03*
X96286000Y-74595000D03*
X96786000Y-74595000D03*
X97286000Y-74595000D03*
X97786000Y-74595000D03*
X98286000Y-74595000D03*
X98786000Y-74595000D03*
X99286000Y-74595000D03*
X99786000Y-74595000D03*
D31*
X93486000Y-77345000D03*
X101586000Y-77345000D03*
%TD*%
D12*
%TO.C,TP11*%
X96520000Y-44704000D03*
%TD*%
D32*
%TO.C,C7*%
X106934000Y-57938000D03*
X106934000Y-56388000D03*
%TD*%
D26*
%TO.C,C3*%
X96240000Y-61948000D03*
X97790000Y-61948000D03*
%TD*%
D33*
%TO.C,R7*%
X127063000Y-54356000D03*
X125413000Y-54356000D03*
%TD*%
D21*
%TO.C,S4*%
X68703000Y-76962000D03*
X68703000Y-80010000D03*
D22*
X66818000Y-76200000D03*
D23*
X67518000Y-77636000D03*
X67518000Y-79336000D03*
D22*
X66818000Y-80772000D03*
%TD*%
D12*
%TO.C,TP14*%
X92964000Y-70358000D03*
%TD*%
D26*
%TO.C,C13*%
X105410000Y-50830000D03*
X106960000Y-50830000D03*
%TD*%
D12*
%TO.C,TP1*%
X123952000Y-83566000D03*
%TD*%
D16*
%TO.C,R10*%
X125350000Y-57658000D03*
X127000000Y-57658000D03*
%TD*%
D34*
%TO.C,C10*%
X115007000Y-83632000D03*
X115007000Y-85532000D03*
%TD*%
D12*
%TO.C,TP7*%
X116840000Y-65532000D03*
%TD*%
D14*
%TO.C,D1*%
X67564000Y-57150000D03*
X67564000Y-60550000D03*
%TD*%
D29*
%TO.C,C11*%
X117869000Y-57658000D03*
X116319000Y-57658000D03*
%TD*%
D26*
%TO.C,C2*%
X97777000Y-66548000D03*
X99327000Y-66548000D03*
%TD*%
D13*
%TO.C,R5*%
X69342000Y-60578000D03*
X69342000Y-58928000D03*
%TD*%
D12*
%TO.C,TP4*%
X74168000Y-65024000D03*
%TD*%
%TO.C,TP19*%
X74168000Y-60706000D03*
%TD*%
%TO.C,TP6*%
X116840000Y-67818000D03*
%TD*%
D33*
%TO.C,R8*%
X127000000Y-51308000D03*
X125350000Y-51308000D03*
%TD*%
D12*
%TO.C,TP2*%
X110744000Y-81280000D03*
%TD*%
D16*
%TO.C,R4*%
X86551000Y-82550000D03*
X88201000Y-82550000D03*
%TD*%
D35*
%TO.C,U2*%
X110435000Y-83632000D03*
X110435000Y-84582000D03*
X110435000Y-85532000D03*
X112710000Y-85532000D03*
X112710000Y-83632000D03*
%TD*%
D12*
%TO.C,TP13*%
X92964000Y-72644000D03*
%TD*%
%TO.C,TP22*%
X86868000Y-85090000D03*
%TD*%
%TO.C,TP25*%
X113792000Y-64262000D03*
%TD*%
D17*
%TO.C,M3*%
X95250000Y-48006000D03*
%TD*%
D36*
%TO.C,R2*%
X126238000Y-71819000D03*
X126238000Y-73469000D03*
%TD*%
D37*
%TO.C,S3*%
X122452000Y-80352000D03*
X122452000Y-77304000D03*
D38*
X124337000Y-81114000D03*
D23*
X123637000Y-79678000D03*
X123637000Y-77978000D03*
D38*
X124337000Y-76542000D03*
%TD*%
D16*
%TO.C,R11*%
X98680000Y-48932000D03*
X100330000Y-48932000D03*
%TD*%
D33*
%TO.C,R15*%
X106235000Y-52832000D03*
X104585000Y-52832000D03*
%TD*%
D12*
%TO.C,TP8*%
X67056000Y-46482000D03*
%TD*%
%TO.C,TP17*%
X104394000Y-77978000D03*
%TD*%
D17*
%TO.C,M1*%
X71120000Y-83312000D03*
%TD*%
D39*
%TO.C,J1*%
X122990000Y-67921000D03*
X122990000Y-62141000D03*
D40*
X122500000Y-69356000D03*
X122500000Y-60706000D03*
D41*
X126670000Y-69356000D03*
X126670000Y-60706000D03*
%TD*%
D33*
%TO.C,R13*%
X121284000Y-71882000D03*
X119634000Y-71882000D03*
%TD*%
D12*
%TO.C,TP3*%
X74168000Y-56642000D03*
%TD*%
%TO.C,TP18*%
X104394000Y-80264000D03*
%TD*%
%TO.C,TP21*%
X115316000Y-59944000D03*
%TD*%
D42*
%TO.C,Y1*%
X97902000Y-64963000D03*
X97902000Y-63613000D03*
X96902000Y-63613000D03*
X96902000Y-64963000D03*
%TD*%
D33*
%TO.C,R12*%
X100330000Y-46990000D03*
X98680000Y-46990000D03*
%TD*%
D19*
%TO.C,D5*%
X122428000Y-57658000D03*
D20*
X123444000Y-57658000D03*
X121412000Y-57658000D03*
%TD*%
D12*
%TO.C,TP10*%
X127000000Y-76200000D03*
%TD*%
D32*
%TO.C,C8*%
X108712000Y-57938000D03*
X108712000Y-56388000D03*
%TD*%
D19*
%TO.C,D4*%
X122428000Y-51308000D03*
D20*
X123444000Y-51308000D03*
X121412000Y-51308000D03*
%TD*%
D13*
%TO.C,R1*%
X90932000Y-79819000D03*
X90932000Y-78169000D03*
%TD*%
D12*
%TO.C,TP26*%
X121158000Y-44704000D03*
%TD*%
D43*
%TO.C,U1*%
X102189000Y-66809000D03*
X102589000Y-66809000D03*
X102989000Y-66809000D03*
X103389000Y-66809000D03*
X103789000Y-66809000D03*
X104189000Y-66809000D03*
X104589000Y-66809000D03*
X104989000Y-66809000D03*
X105389000Y-66809000D03*
X105789000Y-66809000D03*
X106189000Y-66809000D03*
X106589000Y-66809000D03*
X106989000Y-66809000D03*
X107389000Y-66809000D03*
D44*
X108239000Y-65959000D03*
X108239000Y-65559000D03*
X108239000Y-65159000D03*
X108239000Y-64759000D03*
X108239000Y-64359000D03*
X108239000Y-63959000D03*
X108239000Y-63559000D03*
X108239000Y-63159000D03*
X108239000Y-62759000D03*
X108239000Y-62359000D03*
X108239000Y-61959000D03*
X108239000Y-61559000D03*
X108239000Y-61159000D03*
X108239000Y-60759000D03*
D43*
X107389000Y-59909000D03*
X106989000Y-59909000D03*
X106589000Y-59909000D03*
X106189000Y-59909000D03*
X105789000Y-59909000D03*
X105389000Y-59909000D03*
X104989000Y-59909000D03*
X104589000Y-59909000D03*
X104189000Y-59909000D03*
X103789000Y-59909000D03*
X103389000Y-59909000D03*
X102989000Y-59909000D03*
X102589000Y-59909000D03*
X102189000Y-59909000D03*
D44*
X101339000Y-60759000D03*
X101339000Y-61159000D03*
X101339000Y-61559000D03*
X101339000Y-61959000D03*
X101339000Y-62359000D03*
X101339000Y-62759000D03*
X101339000Y-63159000D03*
X101339000Y-63559000D03*
X101339000Y-63959000D03*
X101339000Y-64359000D03*
X101339000Y-64759000D03*
X101339000Y-65159000D03*
X101339000Y-65559000D03*
X101339000Y-65959000D03*
D45*
X104789000Y-63359000D03*
%TD*%
D46*
%TO.C,C1*%
X117293000Y-85532000D03*
X117293000Y-83632000D03*
%TD*%
M02*
