%TF.GenerationSoftware,KiCad,Pcbnew,7.0.9*%
%TF.CreationDate,2024-01-15T23:25:48+02:00*%
%TF.ProjectId,DRM_Watch_V3,44524d5f-5761-4746-9368-5f56332e6b69,rev?*%
%TF.SameCoordinates,Original*%
%TF.FileFunction,Soldermask,Top*%
%TF.FilePolarity,Negative*%
%FSLAX46Y46*%
G04 Gerber Fmt 4.6, Leading zero omitted, Abs format (unit mm)*
G04 Created by KiCad (PCBNEW 7.0.9) date 2024-01-15 23:25:48*
%MOMM*%
%LPD*%
G01*
G04 APERTURE LIST*
G04 Aperture macros list*
%AMRoundRect*
0 Rectangle with rounded corners*
0 $1 Rounding radius*
0 $2 $3 $4 $5 $6 $7 $8 $9 X,Y pos of 4 corners*
0 Add a 4 corners polygon primitive as box body*
4,1,4,$2,$3,$4,$5,$6,$7,$8,$9,$2,$3,0*
0 Add four circle primitives for the rounded corners*
1,1,$1+$1,$2,$3*
1,1,$1+$1,$4,$5*
1,1,$1+$1,$6,$7*
1,1,$1+$1,$8,$9*
0 Add four rect primitives between the rounded corners*
20,1,$1+$1,$2,$3,$4,$5,0*
20,1,$1+$1,$4,$5,$6,$7,0*
20,1,$1+$1,$6,$7,$8,$9,0*
20,1,$1+$1,$8,$9,$2,$3,0*%
G04 Aperture macros list end*
%ADD10C,0.010000*%
%ADD11C,1.200000*%
%ADD12RoundRect,0.200000X0.275000X-0.200000X0.275000X0.200000X-0.275000X0.200000X-0.275000X-0.200000X0*%
%ADD13RoundRect,0.350000X0.250000X-0.250000X0.250000X0.250000X-0.250000X0.250000X-0.250000X-0.250000X0*%
%ADD14RoundRect,0.102000X-1.250000X-1.250000X1.250000X-1.250000X1.250000X1.250000X-1.250000X1.250000X0*%
%ADD15RoundRect,0.200000X-0.200000X-0.275000X0.200000X-0.275000X0.200000X0.275000X-0.200000X0.275000X0*%
%ADD16C,4.100000*%
%ADD17RoundRect,0.225000X0.250000X-0.225000X0.250000X0.225000X-0.250000X0.225000X-0.250000X-0.225000X0*%
%ADD18RoundRect,0.225000X-0.250000X0.225000X-0.250000X-0.225000X0.250000X-0.225000X0.250000X0.225000X0*%
%ADD19C,0.700000*%
%ADD20RoundRect,0.200000X0.500000X-0.200000X0.500000X0.200000X-0.500000X0.200000X-0.500000X-0.200000X0*%
%ADD21RoundRect,0.102000X-0.635000X0.450000X-0.635000X-0.450000X0.635000X-0.450000X0.635000X0.450000X0*%
%ADD22RoundRect,0.102000X-0.400000X0.725000X-0.400000X-0.725000X0.400000X-0.725000X0.400000X0.725000X0*%
%ADD23C,0.800000*%
%ADD24RoundRect,0.250000X0.475000X-0.250000X0.475000X0.250000X-0.475000X0.250000X-0.475000X-0.250000X0*%
%ADD25RoundRect,0.144000X0.573000X0.258000X-0.573000X0.258000X-0.573000X-0.258000X0.573000X-0.258000X0*%
%ADD26RoundRect,0.050000X1.000000X-1.000000X1.000000X1.000000X-1.000000X1.000000X-1.000000X-1.000000X0*%
%ADD27RoundRect,0.102000X-0.750000X0.330200X-0.750000X-0.330200X0.750000X-0.330200X0.750000X0.330200X0*%
%ADD28RoundRect,0.102000X-1.000000X1.500000X-1.000000X-1.500000X1.000000X-1.500000X1.000000X1.500000X0*%
%ADD29RoundRect,0.225000X0.225000X0.250000X-0.225000X0.250000X-0.225000X-0.250000X0.225000X-0.250000X0*%
%ADD30RoundRect,0.050000X-0.150000X-0.650000X0.150000X-0.650000X0.150000X0.650000X-0.150000X0.650000X0*%
%ADD31RoundRect,0.102000X-1.000000X-0.900000X1.000000X-0.900000X1.000000X0.900000X-1.000000X0.900000X0*%
%ADD32RoundRect,0.225000X-0.225000X-0.250000X0.225000X-0.250000X0.225000X0.250000X-0.225000X0.250000X0*%
%ADD33RoundRect,0.200000X-0.275000X0.200000X-0.275000X-0.200000X0.275000X-0.200000X0.275000X0.200000X0*%
%ADD34R,1.000000X1.500000*%
%ADD35RoundRect,0.143300X-0.983700X-0.253700X0.983700X-0.253700X0.983700X0.253700X-0.983700X0.253700X0*%
%ADD36RoundRect,0.200000X0.200000X0.275000X-0.200000X0.275000X-0.200000X-0.275000X0.200000X-0.275000X0*%
%ADD37RoundRect,0.250000X-0.475000X0.250000X-0.475000X-0.250000X0.475000X-0.250000X0.475000X0.250000X0*%
%ADD38RoundRect,0.200000X-0.500000X0.200000X-0.500000X-0.200000X0.500000X-0.200000X0.500000X0.200000X0*%
%ADD39RoundRect,0.150000X0.512500X0.150000X-0.512500X0.150000X-0.512500X-0.150000X0.512500X-0.150000X0*%
%ADD40RoundRect,0.102000X0.635000X-0.450000X0.635000X0.450000X-0.635000X0.450000X-0.635000X-0.450000X0*%
%ADD41RoundRect,0.102000X0.400000X-0.725000X0.400000X0.725000X-0.400000X0.725000X-0.400000X-0.725000X0*%
%ADD42C,0.600000*%
%ADD43O,2.204000X1.104000*%
%ADD44O,1.904000X1.104000*%
%ADD45RoundRect,0.010000X0.750000X-0.600000X0.750000X0.600000X-0.750000X0.600000X-0.750000X-0.600000X0*%
%ADD46RoundRect,0.050000X-0.350000X-0.050000X0.350000X-0.050000X0.350000X0.050000X-0.350000X0.050000X0*%
%ADD47RoundRect,0.050000X-0.050000X-0.350000X0.050000X-0.350000X0.050000X0.350000X-0.050000X0.350000X0*%
%ADD48R,4.000000X4.000000*%
G04 APERTURE END LIST*
%TO.C,J1*%
D10*
X122540000Y-68581000D02*
X121300000Y-68581000D01*
X121300000Y-67881000D01*
X122540000Y-67881000D01*
X122540000Y-68581000D01*
G36*
X122540000Y-68581000D02*
G01*
X121300000Y-68581000D01*
X121300000Y-67881000D01*
X122540000Y-67881000D01*
X122540000Y-68581000D01*
G37*
X122540000Y-67781000D02*
X121300000Y-67781000D01*
X121300000Y-67081000D01*
X122540000Y-67081000D01*
X122540000Y-67781000D01*
G36*
X122540000Y-67781000D02*
G01*
X121300000Y-67781000D01*
X121300000Y-67081000D01*
X122540000Y-67081000D01*
X122540000Y-67781000D01*
G37*
X122540000Y-66981000D02*
X121300000Y-66981000D01*
X121300000Y-66581000D01*
X122540000Y-66581000D01*
X122540000Y-66981000D01*
G36*
X122540000Y-66981000D02*
G01*
X121300000Y-66981000D01*
X121300000Y-66581000D01*
X122540000Y-66581000D01*
X122540000Y-66981000D01*
G37*
X122540000Y-66481000D02*
X121300000Y-66481000D01*
X121300000Y-66081000D01*
X122540000Y-66081000D01*
X122540000Y-66481000D01*
G36*
X122540000Y-66481000D02*
G01*
X121300000Y-66481000D01*
X121300000Y-66081000D01*
X122540000Y-66081000D01*
X122540000Y-66481000D01*
G37*
X122540000Y-65981000D02*
X121300000Y-65981000D01*
X121300000Y-65581000D01*
X122540000Y-65581000D01*
X122540000Y-65981000D01*
G36*
X122540000Y-65981000D02*
G01*
X121300000Y-65981000D01*
X121300000Y-65581000D01*
X122540000Y-65581000D01*
X122540000Y-65981000D01*
G37*
X122540000Y-65481000D02*
X121300000Y-65481000D01*
X121300000Y-65081000D01*
X122540000Y-65081000D01*
X122540000Y-65481000D01*
G36*
X122540000Y-65481000D02*
G01*
X121300000Y-65481000D01*
X121300000Y-65081000D01*
X122540000Y-65081000D01*
X122540000Y-65481000D01*
G37*
X122540000Y-64981000D02*
X121300000Y-64981000D01*
X121300000Y-64581000D01*
X122540000Y-64581000D01*
X122540000Y-64981000D01*
G36*
X122540000Y-64981000D02*
G01*
X121300000Y-64981000D01*
X121300000Y-64581000D01*
X122540000Y-64581000D01*
X122540000Y-64981000D01*
G37*
X122540000Y-64481000D02*
X121300000Y-64481000D01*
X121300000Y-64081000D01*
X122540000Y-64081000D01*
X122540000Y-64481000D01*
G36*
X122540000Y-64481000D02*
G01*
X121300000Y-64481000D01*
X121300000Y-64081000D01*
X122540000Y-64081000D01*
X122540000Y-64481000D01*
G37*
X122540000Y-63981000D02*
X121300000Y-63981000D01*
X121300000Y-63581000D01*
X122540000Y-63581000D01*
X122540000Y-63981000D01*
G36*
X122540000Y-63981000D02*
G01*
X121300000Y-63981000D01*
X121300000Y-63581000D01*
X122540000Y-63581000D01*
X122540000Y-63981000D01*
G37*
X122540000Y-63481000D02*
X121300000Y-63481000D01*
X121300000Y-63081000D01*
X122540000Y-63081000D01*
X122540000Y-63481000D01*
G36*
X122540000Y-63481000D02*
G01*
X121300000Y-63481000D01*
X121300000Y-63081000D01*
X122540000Y-63081000D01*
X122540000Y-63481000D01*
G37*
X122540000Y-62981000D02*
X121300000Y-62981000D01*
X121300000Y-62281000D01*
X122540000Y-62281000D01*
X122540000Y-62981000D01*
G36*
X122540000Y-62981000D02*
G01*
X121300000Y-62981000D01*
X121300000Y-62281000D01*
X122540000Y-62281000D01*
X122540000Y-62981000D01*
G37*
X122540000Y-62181000D02*
X121300000Y-62181000D01*
X121300000Y-61481000D01*
X122540000Y-61481000D01*
X122540000Y-62181000D01*
G36*
X122540000Y-62181000D02*
G01*
X121300000Y-62181000D01*
X121300000Y-61481000D01*
X122540000Y-61481000D01*
X122540000Y-62181000D01*
G37*
%TD*%
D11*
%TO.C,TP15*%
X98933000Y-69723000D03*
%TD*%
D12*
%TO.C,R3*%
X125476000Y-73406000D03*
X125476000Y-71756000D03*
%TD*%
D13*
%TO.C,D2*%
X67564000Y-70260000D03*
X67564000Y-73660000D03*
%TD*%
D14*
%TO.C,LS1*%
X77264000Y-85042000D03*
X77264000Y-79042000D03*
X83264000Y-79042000D03*
X83264000Y-85042000D03*
%TD*%
D15*
%TO.C,R14*%
X121540000Y-73406000D03*
X123190000Y-73406000D03*
%TD*%
D12*
%TO.C,R6*%
X69342000Y-73660000D03*
X69342000Y-72010000D03*
%TD*%
D11*
%TO.C,TP28*%
X112014000Y-66421000D03*
%TD*%
D16*
%TO.C,M2*%
X124460000Y-47752000D03*
%TD*%
D11*
%TO.C,TP9*%
X121539000Y-44577000D03*
%TD*%
D17*
%TO.C,C5*%
X99822000Y-49530000D03*
X99822000Y-47980000D03*
%TD*%
D11*
%TO.C,TP24*%
X118364000Y-63754000D03*
%TD*%
%TO.C,TP36*%
X112649000Y-56769000D03*
%TD*%
D18*
%TO.C,C15*%
X98298000Y-47980000D03*
X98298000Y-49530000D03*
%TD*%
D12*
%TO.C,R9*%
X115189000Y-54419000D03*
X115189000Y-52769000D03*
%TD*%
D19*
%TO.C,D3*%
X124714000Y-55626000D03*
D20*
X124714000Y-56642000D03*
X124714000Y-54610000D03*
%TD*%
D11*
%TO.C,TP5*%
X74168000Y-67564000D03*
%TD*%
D21*
%TO.C,S2*%
X68703000Y-63754000D03*
X68703000Y-66802000D03*
D22*
X66818000Y-62992000D03*
D23*
X67518000Y-64428000D03*
X67518000Y-66128000D03*
D22*
X66818000Y-67564000D03*
%TD*%
D24*
%TO.C,C9*%
X120147500Y-48636000D03*
X120147500Y-46736000D03*
%TD*%
D25*
%TO.C,Q1*%
X88569000Y-80198000D03*
X88569000Y-78298000D03*
X86449000Y-79248000D03*
%TD*%
D26*
%TO.C,BT1*%
X92710000Y-54991000D03*
X92710000Y-58293000D03*
%TD*%
D17*
%TO.C,C6*%
X114305500Y-48715000D03*
X114305500Y-47165000D03*
%TD*%
D18*
%TO.C,C4*%
X104521000Y-62217000D03*
X104521000Y-63767000D03*
%TD*%
D27*
%TO.C,U3*%
X116884788Y-53093890D03*
X116884788Y-54363890D03*
X116884788Y-55633890D03*
X116884788Y-56903890D03*
X122682000Y-56896000D03*
X122682000Y-55626000D03*
X122682000Y-54356000D03*
X122682000Y-53086000D03*
D28*
X119790234Y-54988485D03*
%TD*%
D11*
%TO.C,TP16*%
X101219000Y-69723000D03*
%TD*%
%TO.C,TP20*%
X74168000Y-65278000D03*
%TD*%
%TO.C,TP12*%
X117348000Y-73406000D03*
%TD*%
D21*
%TO.C,S1*%
X68703000Y-50546000D03*
X68703000Y-53594000D03*
D22*
X66818000Y-49784000D03*
D23*
X67518000Y-51220000D03*
X67518000Y-52920000D03*
D22*
X66818000Y-54356000D03*
%TD*%
D29*
%TO.C,C12*%
X116827000Y-58674000D03*
X118377000Y-58674000D03*
%TD*%
D30*
%TO.C,J2*%
X95286000Y-74595000D03*
X95786000Y-74595000D03*
X96286000Y-74595000D03*
X96786000Y-74595000D03*
X97286000Y-74595000D03*
X97786000Y-74595000D03*
X98286000Y-74595000D03*
X98786000Y-74595000D03*
X99286000Y-74595000D03*
X99786000Y-74595000D03*
D31*
X93486000Y-77345000D03*
X101586000Y-77345000D03*
%TD*%
D11*
%TO.C,TP11*%
X93218000Y-61722000D03*
%TD*%
D32*
%TO.C,C7*%
X110985000Y-59055000D03*
X112535000Y-59055000D03*
%TD*%
D11*
%TO.C,TP30*%
X112776000Y-73406000D03*
%TD*%
D32*
%TO.C,C14*%
X122923000Y-83566000D03*
X124473000Y-83566000D03*
%TD*%
D18*
%TO.C,C3*%
X107950000Y-47980000D03*
X107950000Y-49530000D03*
%TD*%
D33*
%TO.C,R7*%
X126492000Y-55055000D03*
X126492000Y-56705000D03*
%TD*%
D21*
%TO.C,S4*%
X68703000Y-76962000D03*
X68703000Y-80010000D03*
D22*
X66818000Y-76200000D03*
D23*
X67518000Y-77636000D03*
X67518000Y-79336000D03*
D22*
X66818000Y-80772000D03*
%TD*%
D11*
%TO.C,TP37*%
X103378000Y-70231000D03*
%TD*%
%TO.C,TP14*%
X96647000Y-69723000D03*
%TD*%
D34*
%TO.C,JP1*%
X126126000Y-58674000D03*
X124826000Y-58674000D03*
%TD*%
D29*
%TO.C,C13*%
X99644000Y-52070000D03*
X98094000Y-52070000D03*
%TD*%
D35*
%TO.C,U4*%
X109645000Y-76073000D03*
X109645000Y-77343000D03*
X109645000Y-78613000D03*
X109645000Y-79883000D03*
X109645000Y-81153000D03*
X109645000Y-82423000D03*
X109645000Y-83693000D03*
X109645000Y-84963000D03*
X118955000Y-84963000D03*
X118955000Y-83693000D03*
X118955000Y-82423000D03*
X118955000Y-81153000D03*
X118955000Y-79883000D03*
X118955000Y-78613000D03*
X118955000Y-77343000D03*
X118955000Y-76073000D03*
%TD*%
D11*
%TO.C,TP34*%
X112776000Y-62484000D03*
%TD*%
%TO.C,TP1*%
X110363000Y-44577000D03*
%TD*%
D36*
%TO.C,R10*%
X111760000Y-52324000D03*
X110110000Y-52324000D03*
%TD*%
D37*
%TO.C,C10*%
X106426000Y-82870000D03*
X106426000Y-84770000D03*
%TD*%
D11*
%TO.C,TP7*%
X119634000Y-73406000D03*
%TD*%
D19*
%TO.C,D1*%
X67564000Y-59436000D03*
D38*
X67564000Y-58420000D03*
X67564000Y-60452000D03*
%TD*%
D29*
%TO.C,C11*%
X122695000Y-58674000D03*
X121145000Y-58674000D03*
%TD*%
D11*
%TO.C,TP31*%
X103886000Y-68072000D03*
%TD*%
D18*
%TO.C,C2*%
X101854000Y-47980000D03*
X101854000Y-49530000D03*
%TD*%
D12*
%TO.C,R5*%
X69342000Y-60578000D03*
X69342000Y-58928000D03*
%TD*%
D11*
%TO.C,TP4*%
X74168000Y-62992000D03*
%TD*%
%TO.C,TP19*%
X74168000Y-60706000D03*
%TD*%
%TO.C,TP29*%
X115062000Y-73406000D03*
%TD*%
%TO.C,TP6*%
X110490000Y-73406000D03*
%TD*%
D12*
%TO.C,R8*%
X126492000Y-52832000D03*
X126492000Y-51182000D03*
%TD*%
D11*
%TO.C,TP2*%
X116078000Y-44577000D03*
%TD*%
D15*
%TO.C,R4*%
X86551000Y-82550000D03*
X88201000Y-82550000D03*
%TD*%
D39*
%TO.C,U2*%
X118237000Y-48636000D03*
X118237000Y-47686000D03*
X118237000Y-46736000D03*
X115962000Y-46736000D03*
X115962000Y-48636000D03*
%TD*%
D11*
%TO.C,TP27*%
X95834000Y-53594000D03*
%TD*%
%TO.C,TP32*%
X107188000Y-70485000D03*
%TD*%
%TO.C,TP13*%
X94361000Y-69723000D03*
%TD*%
%TO.C,TP22*%
X92329000Y-82423000D03*
%TD*%
%TO.C,TP25*%
X118364000Y-66040000D03*
%TD*%
D16*
%TO.C,M3*%
X95250000Y-48006000D03*
%TD*%
D33*
%TO.C,R2*%
X127000000Y-71756000D03*
X127000000Y-73406000D03*
%TD*%
D40*
%TO.C,S3*%
X122452000Y-80352000D03*
X122452000Y-77304000D03*
D41*
X124337000Y-81114000D03*
D23*
X123637000Y-79678000D03*
X123637000Y-77978000D03*
D41*
X124337000Y-76542000D03*
%TD*%
D11*
%TO.C,TP23*%
X119253000Y-50800000D03*
%TD*%
D15*
%TO.C,R11*%
X92647000Y-65278000D03*
X94297000Y-65278000D03*
%TD*%
D11*
%TO.C,TP33*%
X107950000Y-68326000D03*
%TD*%
D15*
%TO.C,R15*%
X98044000Y-53594000D03*
X99694000Y-53594000D03*
%TD*%
D11*
%TO.C,TP8*%
X74168000Y-56134000D03*
%TD*%
%TO.C,TP17*%
X104648000Y-79248000D03*
%TD*%
D16*
%TO.C,M1*%
X71120000Y-83312000D03*
%TD*%
D42*
%TO.C,J1*%
X122990000Y-67921000D03*
X122990000Y-62141000D03*
D43*
X122500000Y-69356000D03*
X122500000Y-60706000D03*
D44*
X126670000Y-69356000D03*
X126670000Y-60706000D03*
%TD*%
D15*
%TO.C,R16*%
X122873000Y-85090000D03*
X124523000Y-85090000D03*
%TD*%
D36*
%TO.C,R13*%
X123190000Y-71882000D03*
X121540000Y-71882000D03*
%TD*%
D11*
%TO.C,TP3*%
X74168000Y-58420000D03*
%TD*%
%TO.C,TP18*%
X104648000Y-76962000D03*
%TD*%
%TO.C,TP21*%
X111379000Y-50292000D03*
%TD*%
D45*
%TO.C,Y1*%
X103632000Y-49530000D03*
X105918000Y-49530000D03*
X105918000Y-48006000D03*
X103632000Y-48006000D03*
%TD*%
D36*
%TO.C,R12*%
X94297000Y-63754000D03*
X92647000Y-63754000D03*
%TD*%
D19*
%TO.C,D5*%
X113411000Y-53340000D03*
D38*
X113411000Y-52324000D03*
X113411000Y-54356000D03*
%TD*%
D11*
%TO.C,TP35*%
X104013000Y-44577000D03*
%TD*%
%TO.C,TP10*%
X126365000Y-81915000D03*
%TD*%
D32*
%TO.C,C8*%
X110985000Y-60579000D03*
X112535000Y-60579000D03*
%TD*%
D19*
%TO.C,D4*%
X124714000Y-52261000D03*
D38*
X124714000Y-51245000D03*
X124714000Y-53277000D03*
%TD*%
D33*
%TO.C,R1*%
X90043000Y-81725000D03*
X90043000Y-83375000D03*
%TD*%
D46*
%TO.C,U1*%
X101593000Y-53647000D03*
X101593000Y-54047000D03*
X101593000Y-54447000D03*
X101593000Y-54847000D03*
X101593000Y-55247000D03*
X101593000Y-55647000D03*
X101593000Y-56047000D03*
X101593000Y-56447000D03*
X101593000Y-56847000D03*
X101593000Y-57247000D03*
X101593000Y-57647000D03*
X101593000Y-58047000D03*
X101593000Y-58447000D03*
X101593000Y-58847000D03*
D47*
X102443000Y-59697000D03*
X102843000Y-59697000D03*
X103243000Y-59697000D03*
X103643000Y-59697000D03*
X104043000Y-59697000D03*
X104443000Y-59697000D03*
X104843000Y-59697000D03*
X105243000Y-59697000D03*
X105643000Y-59697000D03*
X106043000Y-59697000D03*
X106443000Y-59697000D03*
X106843000Y-59697000D03*
X107243000Y-59697000D03*
X107643000Y-59697000D03*
D46*
X108493000Y-58847000D03*
X108493000Y-58447000D03*
X108493000Y-58047000D03*
X108493000Y-57647000D03*
X108493000Y-57247000D03*
X108493000Y-56847000D03*
X108493000Y-56447000D03*
X108493000Y-56047000D03*
X108493000Y-55647000D03*
X108493000Y-55247000D03*
X108493000Y-54847000D03*
X108493000Y-54447000D03*
X108493000Y-54047000D03*
X108493000Y-53647000D03*
D47*
X107643000Y-52797000D03*
X107243000Y-52797000D03*
X106843000Y-52797000D03*
X106443000Y-52797000D03*
X106043000Y-52797000D03*
X105643000Y-52797000D03*
X105243000Y-52797000D03*
X104843000Y-52797000D03*
X104443000Y-52797000D03*
X104043000Y-52797000D03*
X103643000Y-52797000D03*
X103243000Y-52797000D03*
X102843000Y-52797000D03*
X102443000Y-52797000D03*
D48*
X105043000Y-56247000D03*
%TD*%
D24*
%TO.C,C1*%
X108204000Y-63495000D03*
X108204000Y-61595000D03*
%TD*%
M02*
