%TF.GenerationSoftware,KiCad,Pcbnew,7.0.9*%
%TF.CreationDate,2023-12-20T20:28:38+02:00*%
%TF.ProjectId,DRM_Watch_V3,44524d5f-5761-4746-9368-5f56332e6b69,rev?*%
%TF.SameCoordinates,Original*%
%TF.FileFunction,Paste,Top*%
%TF.FilePolarity,Positive*%
%FSLAX46Y46*%
G04 Gerber Fmt 4.6, Leading zero omitted, Abs format (unit mm)*
G04 Created by KiCad (PCBNEW 7.0.9) date 2023-12-20 20:28:38*
%MOMM*%
%LPD*%
G01*
G04 APERTURE LIST*
G04 Aperture macros list*
%AMRoundRect*
0 Rectangle with rounded corners*
0 $1 Rounding radius*
0 $2 $3 $4 $5 $6 $7 $8 $9 X,Y pos of 4 corners*
0 Add a 4 corners polygon primitive as box body*
4,1,4,$2,$3,$4,$5,$6,$7,$8,$9,$2,$3,0*
0 Add four circle primitives for the rounded corners*
1,1,$1+$1,$2,$3*
1,1,$1+$1,$4,$5*
1,1,$1+$1,$6,$7*
1,1,$1+$1,$8,$9*
0 Add four rect primitives between the rounded corners*
20,1,$1+$1,$2,$3,$4,$5,0*
20,1,$1+$1,$4,$5,$6,$7,0*
20,1,$1+$1,$6,$7,$8,$9,0*
20,1,$1+$1,$8,$9,$2,$3,0*%
G04 Aperture macros list end*
%ADD10R,2.000000X2.000000*%
%ADD11RoundRect,0.200000X0.275000X-0.200000X0.275000X0.200000X-0.275000X0.200000X-0.275000X-0.200000X0*%
%ADD12RoundRect,0.250000X0.250000X-0.250000X0.250000X0.250000X-0.250000X0.250000X-0.250000X-0.250000X0*%
%ADD13R,2.500000X2.500000*%
%ADD14RoundRect,0.200000X-0.200000X-0.275000X0.200000X-0.275000X0.200000X0.275000X-0.200000X0.275000X0*%
%ADD15RoundRect,0.225000X-0.250000X0.225000X-0.250000X-0.225000X0.250000X-0.225000X0.250000X0.225000X0*%
%ADD16RoundRect,0.200000X0.200000X0.500000X-0.200000X0.500000X-0.200000X-0.500000X0.200000X-0.500000X0*%
%ADD17R,1.270000X0.900000*%
%ADD18R,0.800000X1.450000*%
%ADD19RoundRect,0.250000X0.250000X0.475000X-0.250000X0.475000X-0.250000X-0.475000X0.250000X-0.475000X0*%
%ADD20RoundRect,0.042000X0.573000X0.258000X-0.573000X0.258000X-0.573000X-0.258000X0.573000X-0.258000X0*%
%ADD21RoundRect,0.225000X-0.225000X-0.250000X0.225000X-0.250000X0.225000X0.250000X-0.225000X0.250000X0*%
%ADD22R,1.500000X0.660400*%
%ADD23R,2.000000X3.000000*%
%ADD24RoundRect,0.225000X0.225000X0.250000X-0.225000X0.250000X-0.225000X-0.250000X0.225000X-0.250000X0*%
%ADD25R,0.300000X1.300000*%
%ADD26R,2.000000X1.800000*%
%ADD27RoundRect,0.225000X0.250000X-0.225000X0.250000X0.225000X-0.250000X0.225000X-0.250000X-0.225000X0*%
%ADD28RoundRect,0.200000X0.200000X0.275000X-0.200000X0.275000X-0.200000X-0.275000X0.200000X-0.275000X0*%
%ADD29RoundRect,0.250000X-0.475000X0.250000X-0.475000X-0.250000X0.475000X-0.250000X0.475000X0.250000X0*%
%ADD30RoundRect,0.150000X-0.512500X-0.150000X0.512500X-0.150000X0.512500X0.150000X-0.512500X0.150000X0*%
%ADD31RoundRect,0.200000X-0.275000X0.200000X-0.275000X-0.200000X0.275000X-0.200000X0.275000X0.200000X0*%
%ADD32R,1.140000X0.600000*%
%ADD33R,1.140000X0.300000*%
%ADD34R,0.700000X0.750000*%
%ADD35RoundRect,0.249999X0.524597X-0.524597X0.524597X0.524597X-0.524597X0.524597X-0.524597X-0.524597X0*%
%ADD36RoundRect,0.050000X0.050000X-0.350000X0.050000X0.350000X-0.050000X0.350000X-0.050000X-0.350000X0*%
%ADD37RoundRect,0.050000X0.350000X-0.050000X0.350000X0.050000X-0.350000X0.050000X-0.350000X-0.050000X0*%
%ADD38RoundRect,0.250000X0.475000X-0.250000X0.475000X0.250000X-0.475000X0.250000X-0.475000X-0.250000X0*%
G04 APERTURE END LIST*
D10*
%TO.C,BT1*%
X92710000Y-54991000D03*
X92710000Y-58293000D03*
%TD*%
D11*
%TO.C,R3*%
X124206000Y-73469000D03*
X124206000Y-71819000D03*
%TD*%
D12*
%TO.C,D2*%
X67564000Y-70260000D03*
X67564000Y-73660000D03*
%TD*%
D13*
%TO.C,LS1*%
X77264000Y-85042000D03*
X77264000Y-79042000D03*
X83264000Y-79042000D03*
X83264000Y-85042000D03*
%TD*%
D14*
%TO.C,R14*%
X119634000Y-73660000D03*
X121284000Y-73660000D03*
%TD*%
D11*
%TO.C,R6*%
X69342000Y-73660000D03*
X69342000Y-72010000D03*
%TD*%
D15*
%TO.C,C5*%
X121103000Y-83632000D03*
X121103000Y-85182000D03*
%TD*%
D11*
%TO.C,R9*%
X109728000Y-53403000D03*
X109728000Y-51753000D03*
%TD*%
D16*
%TO.C,D3*%
X123444000Y-54356000D03*
X121412000Y-54356000D03*
%TD*%
D17*
%TO.C,S2*%
X68703000Y-63754000D03*
X68703000Y-66802000D03*
D18*
X66818000Y-62992000D03*
X66818000Y-67564000D03*
%TD*%
D19*
%TO.C,C9*%
X107884000Y-83886000D03*
X105984000Y-83886000D03*
%TD*%
D20*
%TO.C,Q1*%
X88569000Y-80198000D03*
X88569000Y-78298000D03*
X86449000Y-79248000D03*
%TD*%
D21*
%TO.C,C6*%
X117576000Y-81280000D03*
X119126000Y-81280000D03*
%TD*%
D15*
%TO.C,C4*%
X119325000Y-83632000D03*
X119325000Y-85182000D03*
%TD*%
D22*
%TO.C,U3*%
X112156554Y-51699405D03*
X112156554Y-52969405D03*
X112156554Y-54239405D03*
X112156554Y-55509405D03*
X117953766Y-55501515D03*
X117953766Y-54231515D03*
X117953766Y-52961515D03*
X117953766Y-51691515D03*
D23*
X115062000Y-53594000D03*
%TD*%
D17*
%TO.C,S1*%
X68703000Y-50546000D03*
X68703000Y-53594000D03*
D18*
X66818000Y-49784000D03*
X66818000Y-54356000D03*
%TD*%
D24*
%TO.C,C12*%
X113805000Y-57658000D03*
X112255000Y-57658000D03*
%TD*%
D25*
%TO.C,J2*%
X95286000Y-74595000D03*
X95786000Y-74595000D03*
X96286000Y-74595000D03*
X96786000Y-74595000D03*
X97286000Y-74595000D03*
X97786000Y-74595000D03*
X98286000Y-74595000D03*
X98786000Y-74595000D03*
X99286000Y-74595000D03*
X99786000Y-74595000D03*
D26*
X93486000Y-77345000D03*
X101586000Y-77345000D03*
%TD*%
D27*
%TO.C,C7*%
X106934000Y-57938000D03*
X106934000Y-56388000D03*
%TD*%
D21*
%TO.C,C3*%
X96240000Y-61948000D03*
X97790000Y-61948000D03*
%TD*%
D28*
%TO.C,R7*%
X127063000Y-54356000D03*
X125413000Y-54356000D03*
%TD*%
D17*
%TO.C,S4*%
X68703000Y-76962000D03*
X68703000Y-80010000D03*
D18*
X66818000Y-76200000D03*
X66818000Y-80772000D03*
%TD*%
D21*
%TO.C,C13*%
X105410000Y-50830000D03*
X106960000Y-50830000D03*
%TD*%
D14*
%TO.C,R10*%
X125350000Y-57658000D03*
X127000000Y-57658000D03*
%TD*%
D29*
%TO.C,C10*%
X115007000Y-83632000D03*
X115007000Y-85532000D03*
%TD*%
D12*
%TO.C,D1*%
X67564000Y-57150000D03*
X67564000Y-60550000D03*
%TD*%
D24*
%TO.C,C11*%
X117869000Y-57658000D03*
X116319000Y-57658000D03*
%TD*%
D21*
%TO.C,C2*%
X97777000Y-66548000D03*
X99327000Y-66548000D03*
%TD*%
D11*
%TO.C,R5*%
X69342000Y-60578000D03*
X69342000Y-58928000D03*
%TD*%
D28*
%TO.C,R8*%
X127000000Y-51308000D03*
X125350000Y-51308000D03*
%TD*%
D14*
%TO.C,R4*%
X86551000Y-82550000D03*
X88201000Y-82550000D03*
%TD*%
D30*
%TO.C,U2*%
X110435000Y-83632000D03*
X110435000Y-84582000D03*
X110435000Y-85532000D03*
X112710000Y-85532000D03*
X112710000Y-83632000D03*
%TD*%
D31*
%TO.C,R2*%
X126238000Y-71819000D03*
X126238000Y-73469000D03*
%TD*%
D17*
%TO.C,S3*%
X122452000Y-80352000D03*
X122452000Y-77304000D03*
D18*
X124337000Y-81114000D03*
X124337000Y-76542000D03*
%TD*%
D14*
%TO.C,R11*%
X98680000Y-48932000D03*
X100330000Y-48932000D03*
%TD*%
D28*
%TO.C,R15*%
X106235000Y-52832000D03*
X104585000Y-52832000D03*
%TD*%
D32*
%TO.C,J1*%
X121920000Y-68231000D03*
X121920000Y-67431000D03*
D33*
X121920000Y-66281000D03*
X121920000Y-65281000D03*
X121920000Y-64781000D03*
X121920000Y-63781000D03*
D32*
X121920000Y-61831000D03*
X121920000Y-62631000D03*
D33*
X121920000Y-63281000D03*
X121920000Y-64281000D03*
X121920000Y-65781000D03*
X121920000Y-66781000D03*
%TD*%
D28*
%TO.C,R13*%
X121284000Y-71882000D03*
X119634000Y-71882000D03*
%TD*%
D34*
%TO.C,Y1*%
X97902000Y-64963000D03*
X97902000Y-63613000D03*
X96902000Y-63613000D03*
X96902000Y-64963000D03*
%TD*%
D28*
%TO.C,R12*%
X100330000Y-46990000D03*
X98680000Y-46990000D03*
%TD*%
D16*
%TO.C,D5*%
X123444000Y-57658000D03*
X121412000Y-57658000D03*
%TD*%
D27*
%TO.C,C8*%
X108712000Y-57938000D03*
X108712000Y-56388000D03*
%TD*%
D16*
%TO.C,D4*%
X123444000Y-51308000D03*
X121412000Y-51308000D03*
%TD*%
D11*
%TO.C,R1*%
X90932000Y-79819000D03*
X90932000Y-78169000D03*
%TD*%
D35*
%TO.C,U1*%
X103914000Y-64234000D03*
X105664000Y-64234000D03*
X103914000Y-62484000D03*
X105664000Y-62484000D03*
D36*
X102189000Y-66809000D03*
X102589000Y-66809000D03*
X102989000Y-66809000D03*
X103389000Y-66809000D03*
X103789000Y-66809000D03*
X104189000Y-66809000D03*
X104589000Y-66809000D03*
X104989000Y-66809000D03*
X105389000Y-66809000D03*
X105789000Y-66809000D03*
X106189000Y-66809000D03*
X106589000Y-66809000D03*
X106989000Y-66809000D03*
X107389000Y-66809000D03*
D37*
X108239000Y-65959000D03*
X108239000Y-65559000D03*
X108239000Y-65159000D03*
X108239000Y-64759000D03*
X108239000Y-64359000D03*
X108239000Y-63959000D03*
X108239000Y-63559000D03*
X108239000Y-63159000D03*
X108239000Y-62759000D03*
X108239000Y-62359000D03*
X108239000Y-61959000D03*
X108239000Y-61559000D03*
X108239000Y-61159000D03*
X108239000Y-60759000D03*
D36*
X107389000Y-59909000D03*
X106989000Y-59909000D03*
X106589000Y-59909000D03*
X106189000Y-59909000D03*
X105789000Y-59909000D03*
X105389000Y-59909000D03*
X104989000Y-59909000D03*
X104589000Y-59909000D03*
X104189000Y-59909000D03*
X103789000Y-59909000D03*
X103389000Y-59909000D03*
X102989000Y-59909000D03*
X102589000Y-59909000D03*
X102189000Y-59909000D03*
D37*
X101339000Y-60759000D03*
X101339000Y-61159000D03*
X101339000Y-61559000D03*
X101339000Y-61959000D03*
X101339000Y-62359000D03*
X101339000Y-62759000D03*
X101339000Y-63159000D03*
X101339000Y-63559000D03*
X101339000Y-63959000D03*
X101339000Y-64359000D03*
X101339000Y-64759000D03*
X101339000Y-65159000D03*
X101339000Y-65559000D03*
X101339000Y-65959000D03*
%TD*%
D38*
%TO.C,C1*%
X117293000Y-85532000D03*
X117293000Y-83632000D03*
%TD*%
M02*
