%TF.GenerationSoftware,KiCad,Pcbnew,7.0.9*%
%TF.CreationDate,2024-03-02T15:09:24+02:00*%
%TF.ProjectId,DRM_Watch_V3,44524d5f-5761-4746-9368-5f56332e6b69,rev?*%
%TF.SameCoordinates,Original*%
%TF.FileFunction,Legend,Top*%
%TF.FilePolarity,Positive*%
%FSLAX46Y46*%
G04 Gerber Fmt 4.6, Leading zero omitted, Abs format (unit mm)*
G04 Created by KiCad (PCBNEW 7.0.9) date 2024-03-02 15:09:24*
%MOMM*%
%LPD*%
G01*
G04 APERTURE LIST*
%ADD10C,0.150000*%
%ADD11C,0.100000*%
%ADD12C,0.125000*%
%ADD13C,0.300000*%
%ADD14C,0.200000*%
%ADD15C,0.120000*%
%ADD16C,0.177000*%
%ADD17C,0.127000*%
%ADD18C,0.152400*%
%ADD19C,0.050800*%
G04 APERTURE END LIST*
D10*
X114888281Y-73439050D02*
X114888281Y-72674650D01*
X114686217Y-67288928D02*
X115450078Y-67288928D01*
X115068147Y-67670858D02*
X115068147Y-66906997D01*
D11*
X117146830Y-64363676D02*
X116765877Y-64363676D01*
X117223020Y-64135104D02*
X116956353Y-64935104D01*
X116956353Y-64935104D02*
X116689687Y-64135104D01*
X116423020Y-64135104D02*
X116423020Y-64935104D01*
X116423020Y-64935104D02*
X115965877Y-64135104D01*
X115965877Y-64135104D02*
X115965877Y-64935104D01*
X115699211Y-64935104D02*
X115242068Y-64935104D01*
X115470640Y-64135104D02*
X115470640Y-64935104D01*
X115013497Y-64858914D02*
X114975401Y-64897009D01*
X114975401Y-64897009D02*
X114899211Y-64935104D01*
X114899211Y-64935104D02*
X114708735Y-64935104D01*
X114708735Y-64935104D02*
X114632544Y-64897009D01*
X114632544Y-64897009D02*
X114594449Y-64858914D01*
X114594449Y-64858914D02*
X114556354Y-64782723D01*
X114556354Y-64782723D02*
X114556354Y-64706533D01*
X114556354Y-64706533D02*
X114594449Y-64592247D01*
X114594449Y-64592247D02*
X115051592Y-64135104D01*
X115051592Y-64135104D02*
X114556354Y-64135104D01*
D12*
X85014189Y-50998547D02*
X85128475Y-51036642D01*
X85128475Y-51036642D02*
X85166570Y-51074738D01*
X85166570Y-51074738D02*
X85204666Y-51150928D01*
X85204666Y-51150928D02*
X85204666Y-51265214D01*
X85204666Y-51265214D02*
X85166570Y-51341404D01*
X85166570Y-51341404D02*
X85128475Y-51379500D01*
X85128475Y-51379500D02*
X85052285Y-51417595D01*
X85052285Y-51417595D02*
X84747523Y-51417595D01*
X84747523Y-51417595D02*
X84747523Y-50617595D01*
X84747523Y-50617595D02*
X85014189Y-50617595D01*
X85014189Y-50617595D02*
X85090380Y-50655690D01*
X85090380Y-50655690D02*
X85128475Y-50693785D01*
X85128475Y-50693785D02*
X85166570Y-50769976D01*
X85166570Y-50769976D02*
X85166570Y-50846166D01*
X85166570Y-50846166D02*
X85128475Y-50922357D01*
X85128475Y-50922357D02*
X85090380Y-50960452D01*
X85090380Y-50960452D02*
X85014189Y-50998547D01*
X85014189Y-50998547D02*
X84747523Y-50998547D01*
X85890380Y-51417595D02*
X85890380Y-50998547D01*
X85890380Y-50998547D02*
X85852285Y-50922357D01*
X85852285Y-50922357D02*
X85776094Y-50884261D01*
X85776094Y-50884261D02*
X85623713Y-50884261D01*
X85623713Y-50884261D02*
X85547523Y-50922357D01*
X85890380Y-51379500D02*
X85814189Y-51417595D01*
X85814189Y-51417595D02*
X85623713Y-51417595D01*
X85623713Y-51417595D02*
X85547523Y-51379500D01*
X85547523Y-51379500D02*
X85509427Y-51303309D01*
X85509427Y-51303309D02*
X85509427Y-51227119D01*
X85509427Y-51227119D02*
X85547523Y-51150928D01*
X85547523Y-51150928D02*
X85623713Y-51112833D01*
X85623713Y-51112833D02*
X85814189Y-51112833D01*
X85814189Y-51112833D02*
X85890380Y-51074738D01*
X86157047Y-50884261D02*
X86461809Y-50884261D01*
X86271333Y-50617595D02*
X86271333Y-51303309D01*
X86271333Y-51303309D02*
X86309428Y-51379500D01*
X86309428Y-51379500D02*
X86385618Y-51417595D01*
X86385618Y-51417595D02*
X86461809Y-51417595D01*
X86614190Y-50884261D02*
X86918952Y-50884261D01*
X86728476Y-50617595D02*
X86728476Y-51303309D01*
X86728476Y-51303309D02*
X86766571Y-51379500D01*
X86766571Y-51379500D02*
X86842761Y-51417595D01*
X86842761Y-51417595D02*
X86918952Y-51417595D01*
X87490381Y-51379500D02*
X87414190Y-51417595D01*
X87414190Y-51417595D02*
X87261809Y-51417595D01*
X87261809Y-51417595D02*
X87185619Y-51379500D01*
X87185619Y-51379500D02*
X87147523Y-51303309D01*
X87147523Y-51303309D02*
X87147523Y-50998547D01*
X87147523Y-50998547D02*
X87185619Y-50922357D01*
X87185619Y-50922357D02*
X87261809Y-50884261D01*
X87261809Y-50884261D02*
X87414190Y-50884261D01*
X87414190Y-50884261D02*
X87490381Y-50922357D01*
X87490381Y-50922357D02*
X87528476Y-50998547D01*
X87528476Y-50998547D02*
X87528476Y-51074738D01*
X87528476Y-51074738D02*
X87147523Y-51150928D01*
X87871333Y-51417595D02*
X87871333Y-50884261D01*
X87871333Y-51036642D02*
X87909428Y-50960452D01*
X87909428Y-50960452D02*
X87947523Y-50922357D01*
X87947523Y-50922357D02*
X88023714Y-50884261D01*
X88023714Y-50884261D02*
X88099904Y-50884261D01*
X88290380Y-50884261D02*
X88480856Y-51417595D01*
X88671333Y-50884261D02*
X88480856Y-51417595D01*
X88480856Y-51417595D02*
X88404666Y-51608071D01*
X88404666Y-51608071D02*
X88366571Y-51646166D01*
X88366571Y-51646166D02*
X88290380Y-51684261D01*
X88785619Y-51493785D02*
X89395142Y-51493785D01*
X90042762Y-51341404D02*
X90004666Y-51379500D01*
X90004666Y-51379500D02*
X89890381Y-51417595D01*
X89890381Y-51417595D02*
X89814190Y-51417595D01*
X89814190Y-51417595D02*
X89699904Y-51379500D01*
X89699904Y-51379500D02*
X89623714Y-51303309D01*
X89623714Y-51303309D02*
X89585619Y-51227119D01*
X89585619Y-51227119D02*
X89547523Y-51074738D01*
X89547523Y-51074738D02*
X89547523Y-50960452D01*
X89547523Y-50960452D02*
X89585619Y-50808071D01*
X89585619Y-50808071D02*
X89623714Y-50731880D01*
X89623714Y-50731880D02*
X89699904Y-50655690D01*
X89699904Y-50655690D02*
X89814190Y-50617595D01*
X89814190Y-50617595D02*
X89890381Y-50617595D01*
X89890381Y-50617595D02*
X90004666Y-50655690D01*
X90004666Y-50655690D02*
X90042762Y-50693785D01*
X90690381Y-51379500D02*
X90614190Y-51417595D01*
X90614190Y-51417595D02*
X90461809Y-51417595D01*
X90461809Y-51417595D02*
X90385619Y-51379500D01*
X90385619Y-51379500D02*
X90347523Y-51303309D01*
X90347523Y-51303309D02*
X90347523Y-50998547D01*
X90347523Y-50998547D02*
X90385619Y-50922357D01*
X90385619Y-50922357D02*
X90461809Y-50884261D01*
X90461809Y-50884261D02*
X90614190Y-50884261D01*
X90614190Y-50884261D02*
X90690381Y-50922357D01*
X90690381Y-50922357D02*
X90728476Y-50998547D01*
X90728476Y-50998547D02*
X90728476Y-51074738D01*
X90728476Y-51074738D02*
X90347523Y-51150928D01*
X91185618Y-51417595D02*
X91109428Y-51379500D01*
X91109428Y-51379500D02*
X91071333Y-51303309D01*
X91071333Y-51303309D02*
X91071333Y-50617595D01*
X91604666Y-51417595D02*
X91528476Y-51379500D01*
X91528476Y-51379500D02*
X91490381Y-51303309D01*
X91490381Y-51303309D02*
X91490381Y-50617595D01*
D13*
X86025510Y-47108400D02*
X87168368Y-47108400D01*
X89327510Y-47108400D02*
X90470368Y-47108400D01*
X89898939Y-47679828D02*
X89898939Y-46536971D01*
D10*
X110109095Y-83020819D02*
X110109095Y-83830342D01*
X110109095Y-83830342D02*
X110156714Y-83925580D01*
X110156714Y-83925580D02*
X110204333Y-83973200D01*
X110204333Y-83973200D02*
X110299571Y-84020819D01*
X110299571Y-84020819D02*
X110490047Y-84020819D01*
X110490047Y-84020819D02*
X110585285Y-83973200D01*
X110585285Y-83973200D02*
X110632904Y-83925580D01*
X110632904Y-83925580D02*
X110680523Y-83830342D01*
X110680523Y-83830342D02*
X110680523Y-83020819D01*
X111585285Y-83354152D02*
X111585285Y-84020819D01*
X111347190Y-82973200D02*
X111109095Y-83687485D01*
X111109095Y-83687485D02*
X111728142Y-83687485D01*
D11*
X110057550Y-50353169D02*
X110057550Y-50734122D01*
X109828978Y-50276979D02*
X110628978Y-50543646D01*
X110628978Y-50543646D02*
X109828978Y-50810312D01*
X109828978Y-51076979D02*
X110628978Y-51076979D01*
X110628978Y-51076979D02*
X109828978Y-51534122D01*
X109828978Y-51534122D02*
X110628978Y-51534122D01*
X110628978Y-51800788D02*
X110628978Y-52257931D01*
X109828978Y-52029359D02*
X110628978Y-52029359D01*
X74763570Y-54416609D02*
X74906427Y-54464228D01*
X74906427Y-54464228D02*
X74954046Y-54511847D01*
X74954046Y-54511847D02*
X75001665Y-54607085D01*
X75001665Y-54607085D02*
X75001665Y-54749942D01*
X75001665Y-54749942D02*
X74954046Y-54845180D01*
X74954046Y-54845180D02*
X74906427Y-54892800D01*
X74906427Y-54892800D02*
X74811189Y-54940419D01*
X74811189Y-54940419D02*
X74430237Y-54940419D01*
X74430237Y-54940419D02*
X74430237Y-53940419D01*
X74430237Y-53940419D02*
X74763570Y-53940419D01*
X74763570Y-53940419D02*
X74858808Y-53988038D01*
X74858808Y-53988038D02*
X74906427Y-54035657D01*
X74906427Y-54035657D02*
X74954046Y-54130895D01*
X74954046Y-54130895D02*
X74954046Y-54226133D01*
X74954046Y-54226133D02*
X74906427Y-54321371D01*
X74906427Y-54321371D02*
X74858808Y-54368990D01*
X74858808Y-54368990D02*
X74763570Y-54416609D01*
X74763570Y-54416609D02*
X74430237Y-54416609D01*
X75858808Y-54940419D02*
X75858808Y-54416609D01*
X75858808Y-54416609D02*
X75811189Y-54321371D01*
X75811189Y-54321371D02*
X75715951Y-54273752D01*
X75715951Y-54273752D02*
X75525475Y-54273752D01*
X75525475Y-54273752D02*
X75430237Y-54321371D01*
X75858808Y-54892800D02*
X75763570Y-54940419D01*
X75763570Y-54940419D02*
X75525475Y-54940419D01*
X75525475Y-54940419D02*
X75430237Y-54892800D01*
X75430237Y-54892800D02*
X75382618Y-54797561D01*
X75382618Y-54797561D02*
X75382618Y-54702323D01*
X75382618Y-54702323D02*
X75430237Y-54607085D01*
X75430237Y-54607085D02*
X75525475Y-54559466D01*
X75525475Y-54559466D02*
X75763570Y-54559466D01*
X75763570Y-54559466D02*
X75858808Y-54511847D01*
X76192142Y-54273752D02*
X76573094Y-54273752D01*
X76334999Y-53940419D02*
X76334999Y-54797561D01*
X76334999Y-54797561D02*
X76382618Y-54892800D01*
X76382618Y-54892800D02*
X76477856Y-54940419D01*
X76477856Y-54940419D02*
X76573094Y-54940419D01*
X76763571Y-54273752D02*
X77144523Y-54273752D01*
X76906428Y-53940419D02*
X76906428Y-54797561D01*
X76906428Y-54797561D02*
X76954047Y-54892800D01*
X76954047Y-54892800D02*
X77049285Y-54940419D01*
X77049285Y-54940419D02*
X77144523Y-54940419D01*
X77858809Y-54892800D02*
X77763571Y-54940419D01*
X77763571Y-54940419D02*
X77573095Y-54940419D01*
X77573095Y-54940419D02*
X77477857Y-54892800D01*
X77477857Y-54892800D02*
X77430238Y-54797561D01*
X77430238Y-54797561D02*
X77430238Y-54416609D01*
X77430238Y-54416609D02*
X77477857Y-54321371D01*
X77477857Y-54321371D02*
X77573095Y-54273752D01*
X77573095Y-54273752D02*
X77763571Y-54273752D01*
X77763571Y-54273752D02*
X77858809Y-54321371D01*
X77858809Y-54321371D02*
X77906428Y-54416609D01*
X77906428Y-54416609D02*
X77906428Y-54511847D01*
X77906428Y-54511847D02*
X77430238Y-54607085D01*
X78335000Y-54940419D02*
X78335000Y-54273752D01*
X78335000Y-54464228D02*
X78382619Y-54368990D01*
X78382619Y-54368990D02*
X78430238Y-54321371D01*
X78430238Y-54321371D02*
X78525476Y-54273752D01*
X78525476Y-54273752D02*
X78620714Y-54273752D01*
X78858810Y-54273752D02*
X79096905Y-54940419D01*
X79335000Y-54273752D02*
X79096905Y-54940419D01*
X79096905Y-54940419D02*
X79001667Y-55178514D01*
X79001667Y-55178514D02*
X78954048Y-55226133D01*
X78954048Y-55226133D02*
X78858810Y-55273752D01*
D14*
%TO.C,Y1*%
X114215503Y-48204716D02*
G75*
G03*
X114215503Y-48204716I-100000J0D01*
G01*
D15*
%TO.C,U1*%
X113336319Y-56847182D02*
X113336319Y-56197182D01*
X113986319Y-56847182D02*
X113336319Y-56847182D01*
X119906319Y-49627182D02*
X120556319Y-49627182D01*
X119906319Y-56847182D02*
X120556319Y-56847182D01*
X120556319Y-49627182D02*
X120556319Y-50277182D01*
X120556319Y-56847182D02*
X120556319Y-56197182D01*
D16*
X113174019Y-49376382D02*
G75*
G03*
X113174019Y-49376382I-88500J0D01*
G01*
D15*
%TO.C,U2*%
X105943132Y-48248833D02*
X107743132Y-48248833D01*
X105943132Y-48248833D02*
X105143132Y-48248833D01*
X105943132Y-45128833D02*
X106743132Y-45128833D01*
X105943132Y-45128833D02*
X105143132Y-45128833D01*
%TO.C,R3*%
X123672647Y-72234361D02*
X123672647Y-71759845D01*
X124717647Y-72234361D02*
X124717647Y-71759845D01*
D11*
%TO.C,D2*%
X66802000Y-73484000D02*
X66802000Y-70436000D01*
X67818000Y-72722000D02*
X67818000Y-71198000D01*
D15*
%TO.C,C18*%
X87143000Y-79933748D02*
X87143000Y-81356252D01*
X85323000Y-79933748D02*
X85323000Y-81356252D01*
D17*
%TO.C,LS1*%
X114330147Y-66512851D02*
X117330147Y-66512851D01*
X119580147Y-71762851D02*
X119580147Y-68762851D01*
X112080147Y-71762851D02*
X112080147Y-68762851D01*
X117330147Y-74012851D02*
X114330147Y-74012851D01*
D11*
X115768147Y-67214851D02*
G75*
G03*
X115768147Y-67214851I-700000J0D01*
G01*
X119386147Y-70008851D02*
X118116147Y-70516851D01*
X118116147Y-69500851D01*
X119386147Y-70008851D01*
G36*
X119386147Y-70008851D02*
G01*
X118116147Y-70516851D01*
X118116147Y-69500851D01*
X119386147Y-70008851D01*
G37*
D15*
%TO.C,R14*%
X123856361Y-57646848D02*
X123856361Y-58121364D01*
X122811361Y-57646848D02*
X122811361Y-58121364D01*
%TO.C,R6*%
X68639506Y-72965680D02*
X68639506Y-72491164D01*
X69684506Y-72965680D02*
X69684506Y-72491164D01*
%TO.C,C5*%
X119757524Y-46640580D02*
X119757524Y-46359420D01*
X120777524Y-46640580D02*
X120777524Y-46359420D01*
%TO.C,R19*%
X104154500Y-81169742D02*
X104154500Y-81644258D01*
X103109500Y-81169742D02*
X103109500Y-81644258D01*
%TO.C,C15*%
X112297761Y-46320470D02*
X112297761Y-46601630D01*
X111277761Y-46320470D02*
X111277761Y-46601630D01*
%TO.C,R9*%
X82945500Y-48911742D02*
X82945500Y-49386258D01*
X81900500Y-48911742D02*
X81900500Y-49386258D01*
%TO.C,D3*%
X73936123Y-48303045D02*
X73936123Y-46383045D01*
X73936123Y-46383045D02*
X71251123Y-46383045D01*
X71251123Y-48303045D02*
X73936123Y-48303045D01*
D11*
%TO.C,S2*%
X66548000Y-64008000D02*
X66548000Y-66548000D01*
D17*
X68834000Y-64770000D02*
X68834000Y-65786000D01*
D14*
X69469000Y-64643000D02*
G75*
G03*
X69469000Y-64643000I-127000J0D01*
G01*
D15*
%TO.C,C9*%
X108256132Y-46950085D02*
X108256132Y-46427581D01*
X109726132Y-46950085D02*
X109726132Y-46427581D01*
D17*
%TO.C,Q1*%
X118253660Y-77853648D02*
X118913660Y-77853648D01*
X117123660Y-76553648D02*
X117123660Y-77328648D01*
X117963660Y-76553648D02*
X117123660Y-76553648D01*
X119203660Y-76553648D02*
X120043660Y-76553648D01*
X120043660Y-76553648D02*
X120043660Y-77328648D01*
D14*
X117159660Y-78981648D02*
G75*
G03*
X117159660Y-78981648I-100000J0D01*
G01*
D15*
%TO.C,R21*%
X85202500Y-84819258D02*
X85202500Y-84344742D01*
X86247500Y-84819258D02*
X86247500Y-84344742D01*
%TO.C,C6*%
X102639132Y-46604413D02*
X102639132Y-46323253D01*
X103659132Y-46604413D02*
X103659132Y-46323253D01*
%TO.C,R17*%
X84596500Y-77867742D02*
X84596500Y-78342258D01*
X83551500Y-77867742D02*
X83551500Y-78342258D01*
%TO.C,C4*%
X117510479Y-59860203D02*
X117510479Y-60141363D01*
X116490479Y-59860203D02*
X116490479Y-60141363D01*
D18*
%TO.C,U3*%
X76276200Y-50165000D02*
X77343000Y-50165000D01*
X77343000Y-50165000D02*
X78359000Y-50165000D01*
X78359000Y-50165000D02*
X79425800Y-50165000D01*
D19*
X79451200Y-50165000D02*
X79451200Y-45085000D01*
D18*
X79806800Y-49784000D02*
X79806800Y-45466000D01*
X75895200Y-45466000D02*
X75895200Y-49784000D01*
X79425800Y-45085000D02*
X76276200Y-45085000D01*
X75895200Y-49784000D02*
G75*
G03*
X76276200Y-50165000I380999J-1D01*
G01*
X78359000Y-50165000D02*
G75*
G03*
X77343000Y-50165000I-508000J0D01*
G01*
X79425800Y-50165000D02*
G75*
G03*
X79806800Y-49784000I1J380999D01*
G01*
X76276200Y-45085000D02*
G75*
G03*
X75895200Y-45466000I0J-381000D01*
G01*
X79806800Y-45466000D02*
G75*
G03*
X79425800Y-45085000I-381000J0D01*
G01*
D15*
%TO.C,D6*%
X81279000Y-79008000D02*
X77979000Y-79008000D01*
X81279000Y-79008000D02*
X81279000Y-84518000D01*
X77979000Y-79008000D02*
X77979000Y-84518000D01*
D11*
%TO.C,S1*%
X66548000Y-50800000D02*
X66548000Y-53340000D01*
D17*
X68834000Y-51562000D02*
X68834000Y-52578000D01*
D14*
X69469000Y-51435000D02*
G75*
G03*
X69469000Y-51435000I-127000J0D01*
G01*
D15*
%TO.C,C12*%
X81905870Y-46315462D02*
X81905870Y-46034302D01*
X82925870Y-46315462D02*
X82925870Y-46034302D01*
D17*
%TO.C,J2*%
X92986000Y-75880000D02*
X92986000Y-76860000D01*
X92986000Y-79140000D02*
X92986000Y-81470000D01*
X94916000Y-75880000D02*
X92986000Y-75880000D01*
X100126000Y-75880000D02*
X102086000Y-75880000D01*
X102086000Y-75880000D02*
X102086000Y-76850000D01*
X102086000Y-79170000D02*
X102086000Y-81470000D01*
X102086000Y-81480000D02*
X92986000Y-81480000D01*
X95396000Y-76250000D02*
G75*
G03*
X95396000Y-76250000I-110000J0D01*
G01*
D15*
%TO.C,C7*%
X121311319Y-55025762D02*
X121311319Y-54744602D01*
X122331319Y-55025762D02*
X122331319Y-54744602D01*
%TO.C,C14*%
X118350700Y-82488754D02*
X118631860Y-82488754D01*
X118350700Y-83508754D02*
X118631860Y-83508754D01*
%TO.C,C3*%
X119300503Y-46373636D02*
X119300503Y-46654796D01*
X118280503Y-46373636D02*
X118280503Y-46654796D01*
%TO.C,R7*%
X68850742Y-46721500D02*
X69325258Y-46721500D01*
X68850742Y-47766500D02*
X69325258Y-47766500D01*
D11*
%TO.C,S4*%
X66548000Y-77216000D02*
X66548000Y-79756000D01*
D17*
X68834000Y-77978000D02*
X68834000Y-78994000D01*
D14*
X69469000Y-77851000D02*
G75*
G03*
X69469000Y-77851000I-127000J0D01*
G01*
D15*
%TO.C,JP1*%
X67942000Y-44085000D02*
X70742000Y-44085000D01*
X67942000Y-46085000D02*
X67942000Y-44085000D01*
X70742000Y-44085000D02*
X70742000Y-46085000D01*
X70742000Y-46085000D02*
X67942000Y-46085000D01*
%TO.C,C13*%
X107122831Y-48680065D02*
X107403991Y-48680065D01*
X107122831Y-49700065D02*
X107403991Y-49700065D01*
D17*
%TO.C,U4*%
X114671000Y-86022000D02*
X107071000Y-86022000D01*
X114671000Y-75522000D02*
X107071000Y-75522000D01*
D14*
X115416000Y-86233000D02*
G75*
G03*
X115416000Y-86233000I-100000J0D01*
G01*
D15*
%TO.C,R10*%
X69672851Y-69297706D02*
X69672851Y-69772222D01*
X68627851Y-69297706D02*
X68627851Y-69772222D01*
%TO.C,C10*%
X103151000Y-78366252D02*
X103151000Y-77843748D01*
X104621000Y-78366252D02*
X104621000Y-77843748D01*
%TO.C,D1*%
X68460000Y-55815000D02*
X66540000Y-55815000D01*
X66540000Y-55815000D02*
X66540000Y-58500000D01*
X68460000Y-58500000D02*
X68460000Y-55815000D01*
%TO.C,C11*%
X72657580Y-46103000D02*
X72376420Y-46103000D01*
X72657580Y-45083000D02*
X72376420Y-45083000D01*
%TO.C,U5*%
X84795000Y-82931000D02*
X84795000Y-80006000D01*
X84795000Y-82931000D02*
X84795000Y-84431000D01*
X81575000Y-82931000D02*
X81575000Y-81431000D01*
X81575000Y-82931000D02*
X81575000Y-84431000D01*
D11*
X84634605Y-82169000D02*
G75*
G03*
X84634605Y-82169000I-179605J0D01*
G01*
D15*
%TO.C,C2*%
X113768303Y-46314574D02*
X113768303Y-46595734D01*
X112748303Y-46314574D02*
X112748303Y-46595734D01*
%TO.C,R5*%
X68690558Y-57521539D02*
X68690558Y-57047023D01*
X69735558Y-57521539D02*
X69735558Y-57047023D01*
%TO.C,G\u002A\u002A\u002A*%
G36*
X111288420Y-56274398D02*
G01*
X111296968Y-56275985D01*
X111304841Y-56279315D01*
X111308836Y-56281554D01*
X111323924Y-56293198D01*
X111334911Y-56308197D01*
X111339791Y-56319182D01*
X111341514Y-56324920D01*
X111342604Y-56331493D01*
X111343114Y-56339966D01*
X111343092Y-56351406D01*
X111342590Y-56366878D01*
X111342336Y-56372860D01*
X111340503Y-56414453D01*
X111372982Y-56414453D01*
X111392940Y-56414955D01*
X111408601Y-56416673D01*
X111421050Y-56419919D01*
X111431368Y-56425007D01*
X111440640Y-56432252D01*
X111443323Y-56434836D01*
X111454698Y-56449784D01*
X111461362Y-56466538D01*
X111463314Y-56484155D01*
X111460556Y-56501691D01*
X111453086Y-56518202D01*
X111443323Y-56530438D01*
X111434575Y-56538096D01*
X111425244Y-56543655D01*
X111414283Y-56547410D01*
X111400646Y-56549651D01*
X111383287Y-56550672D01*
X111370490Y-56550821D01*
X111335520Y-56550821D01*
X111335346Y-56559685D01*
X111335093Y-56565958D01*
X111334541Y-56576172D01*
X111333777Y-56588827D01*
X111333026Y-56600342D01*
X111331893Y-56614876D01*
X111330595Y-56625328D01*
X111328842Y-56633071D01*
X111326339Y-56639476D01*
X111323594Y-56644569D01*
X111312123Y-56659149D01*
X111297527Y-56669973D01*
X111280820Y-56676662D01*
X111263015Y-56678834D01*
X111245127Y-56676111D01*
X111242102Y-56675116D01*
X111225541Y-56666386D01*
X111211687Y-56653281D01*
X111205349Y-56644141D01*
X111202461Y-56639040D01*
X111200431Y-56634472D01*
X111199119Y-56629372D01*
X111198383Y-56622675D01*
X111198084Y-56613319D01*
X111198082Y-56600238D01*
X111198169Y-56589686D01*
X111198550Y-56548094D01*
X111154335Y-56548094D01*
X111133248Y-56547847D01*
X111116679Y-56546955D01*
X111103710Y-56545190D01*
X111093422Y-56542322D01*
X111084894Y-56538123D01*
X111077208Y-56532366D01*
X111072257Y-56527710D01*
X111060882Y-56512762D01*
X111054219Y-56496008D01*
X111052266Y-56478392D01*
X111055025Y-56460856D01*
X111062495Y-56444344D01*
X111072257Y-56432109D01*
X111079645Y-56425399D01*
X111087217Y-56420311D01*
X111095859Y-56416630D01*
X111106461Y-56414145D01*
X111119910Y-56412642D01*
X111137092Y-56411907D01*
X111157080Y-56411725D01*
X111204039Y-56411725D01*
X111205913Y-56371497D01*
X111206953Y-56352120D01*
X111208172Y-56337227D01*
X111209784Y-56325848D01*
X111212001Y-56317014D01*
X111215039Y-56309752D01*
X111219108Y-56303094D01*
X111221752Y-56299485D01*
X111234885Y-56286468D01*
X111250924Y-56278058D01*
X111269892Y-56274245D01*
X111276825Y-56273993D01*
X111288420Y-56274398D01*
G37*
G36*
X110340026Y-56006414D02*
G01*
X110369674Y-56006454D01*
X110402572Y-56006522D01*
X110438895Y-56006619D01*
X110478819Y-56006745D01*
X110522520Y-56006900D01*
X110570173Y-56007083D01*
X110621953Y-56007295D01*
X110678036Y-56007534D01*
X110738597Y-56007803D01*
X110803813Y-56008099D01*
X110873857Y-56008424D01*
X110948906Y-56008776D01*
X111029135Y-56009157D01*
X111076824Y-56009385D01*
X111160906Y-56009783D01*
X111239707Y-56010151D01*
X111313401Y-56010492D01*
X111382160Y-56010812D01*
X111446158Y-56011115D01*
X111505570Y-56011405D01*
X111560568Y-56011685D01*
X111611326Y-56011962D01*
X111658017Y-56012237D01*
X111700815Y-56012517D01*
X111739894Y-56012805D01*
X111775427Y-56013106D01*
X111807587Y-56013424D01*
X111836548Y-56013763D01*
X111862484Y-56014127D01*
X111885568Y-56014521D01*
X111905973Y-56014948D01*
X111923874Y-56015415D01*
X111939442Y-56015923D01*
X111952853Y-56016479D01*
X111964280Y-56017085D01*
X111973896Y-56017748D01*
X111981874Y-56018469D01*
X111988388Y-56019255D01*
X111993612Y-56020109D01*
X111997719Y-56021036D01*
X112000883Y-56022039D01*
X112003276Y-56023124D01*
X112005074Y-56024294D01*
X112006449Y-56025553D01*
X112007574Y-56026907D01*
X112008623Y-56028359D01*
X112009770Y-56029913D01*
X112011189Y-56031574D01*
X112012086Y-56032477D01*
X112022818Y-56042686D01*
X112022818Y-56080775D01*
X112022818Y-56118863D01*
X111886759Y-56311168D01*
X111750700Y-56503472D01*
X111748830Y-56831930D01*
X111748547Y-56882527D01*
X111748296Y-56927962D01*
X111748057Y-56968528D01*
X111747814Y-57004516D01*
X111747549Y-57036220D01*
X111747246Y-57063931D01*
X111746885Y-57087944D01*
X111746451Y-57108549D01*
X111745926Y-57126039D01*
X111745292Y-57140707D01*
X111744532Y-57152846D01*
X111743629Y-57162747D01*
X111742565Y-57170704D01*
X111741323Y-57177008D01*
X111739885Y-57181953D01*
X111738234Y-57185831D01*
X111736353Y-57188934D01*
X111734225Y-57191554D01*
X111731831Y-57193985D01*
X111729154Y-57196519D01*
X111727032Y-57198581D01*
X111717051Y-57206566D01*
X111705030Y-57213300D01*
X111693014Y-57217789D01*
X111684820Y-57219095D01*
X111683424Y-57220969D01*
X111680268Y-57226622D01*
X111675316Y-57236125D01*
X111668535Y-57249552D01*
X111659889Y-57266973D01*
X111649344Y-57288462D01*
X111636864Y-57314089D01*
X111622416Y-57343928D01*
X111605964Y-57378051D01*
X111587473Y-57416528D01*
X111566910Y-57459434D01*
X111544238Y-57506839D01*
X111519424Y-57558815D01*
X111492433Y-57615436D01*
X111463229Y-57676772D01*
X111431779Y-57742896D01*
X111398047Y-57813880D01*
X111395522Y-57819195D01*
X111369797Y-57873334D01*
X111344643Y-57926227D01*
X111320166Y-57977656D01*
X111296468Y-58027409D01*
X111273652Y-58075268D01*
X111251821Y-58121019D01*
X111231079Y-58164447D01*
X111211528Y-58205336D01*
X111193272Y-58243470D01*
X111176414Y-58278636D01*
X111161057Y-58310617D01*
X111147304Y-58339198D01*
X111135258Y-58364163D01*
X111125023Y-58385299D01*
X111116701Y-58402388D01*
X111110396Y-58415217D01*
X111106211Y-58423569D01*
X111104248Y-58427230D01*
X111104177Y-58427332D01*
X111091648Y-58439335D01*
X111076854Y-58447075D01*
X111060700Y-58450724D01*
X111044093Y-58450457D01*
X111027940Y-58446447D01*
X111013146Y-58438867D01*
X111000618Y-58427892D01*
X110991262Y-58413695D01*
X110987940Y-58405060D01*
X110987068Y-58400885D01*
X110985399Y-58391595D01*
X110982978Y-58377465D01*
X110979848Y-58358769D01*
X110976054Y-58335780D01*
X110971640Y-58308775D01*
X110966651Y-58278026D01*
X110961130Y-58243809D01*
X110955122Y-58206398D01*
X110948670Y-58166067D01*
X110941820Y-58123091D01*
X110934615Y-58077745D01*
X110927100Y-58030302D01*
X110919318Y-57981037D01*
X110911314Y-57930225D01*
X110904608Y-57887549D01*
X110896499Y-57835904D01*
X110888611Y-57785713D01*
X110880986Y-57737241D01*
X110873666Y-57690751D01*
X110866694Y-57646510D01*
X110860110Y-57604781D01*
X110853956Y-57565829D01*
X110848276Y-57529919D01*
X110843110Y-57497315D01*
X110838500Y-57468282D01*
X110834488Y-57443085D01*
X110831117Y-57421988D01*
X110828428Y-57405256D01*
X110826463Y-57393154D01*
X110825263Y-57385945D01*
X110824875Y-57383861D01*
X110823530Y-57386152D01*
X110819727Y-57393036D01*
X110813581Y-57404296D01*
X110805210Y-57419717D01*
X110794729Y-57439082D01*
X110782255Y-57462174D01*
X110767905Y-57488779D01*
X110751794Y-57518678D01*
X110734039Y-57551657D01*
X110714757Y-57587500D01*
X110694064Y-57625989D01*
X110672076Y-57666909D01*
X110648909Y-57710043D01*
X110624680Y-57755177D01*
X110599506Y-57802092D01*
X110573502Y-57850573D01*
X110546786Y-57900405D01*
X110539489Y-57914018D01*
X110512510Y-57964334D01*
X110486158Y-58013442D01*
X110460553Y-58061120D01*
X110435814Y-58107146D01*
X110412062Y-58151298D01*
X110389416Y-58193354D01*
X110367997Y-58233093D01*
X110347924Y-58270291D01*
X110329317Y-58304728D01*
X110312297Y-58336181D01*
X110296982Y-58364429D01*
X110283493Y-58389250D01*
X110271951Y-58410421D01*
X110262474Y-58427722D01*
X110255183Y-58440929D01*
X110250197Y-58449821D01*
X110247637Y-58454177D01*
X110247404Y-58454514D01*
X110234785Y-58466540D01*
X110219931Y-58474281D01*
X110203748Y-58477909D01*
X110187143Y-58477599D01*
X110171022Y-58473525D01*
X110156291Y-58465859D01*
X110143857Y-58454775D01*
X110134626Y-58440446D01*
X110131559Y-58432333D01*
X110130937Y-58429561D01*
X110130303Y-58425213D01*
X110129645Y-58419056D01*
X110128953Y-58410853D01*
X110128216Y-58400369D01*
X110127423Y-58387370D01*
X110126564Y-58371618D01*
X110125627Y-58352880D01*
X110124602Y-58330920D01*
X110123478Y-58305502D01*
X110122244Y-58276391D01*
X110120889Y-58243352D01*
X110119402Y-58206149D01*
X110117773Y-58164547D01*
X110115991Y-58118311D01*
X110114045Y-58067204D01*
X110111924Y-58010993D01*
X110110861Y-57982691D01*
X110109044Y-57934272D01*
X110107276Y-57887249D01*
X110105567Y-57841917D01*
X110103929Y-57798576D01*
X110102374Y-57757521D01*
X110100913Y-57719050D01*
X110099558Y-57683461D01*
X110098318Y-57651050D01*
X110097207Y-57622116D01*
X110096236Y-57596954D01*
X110095414Y-57575863D01*
X110094755Y-57559140D01*
X110094270Y-57547082D01*
X110093969Y-57539987D01*
X110093878Y-57538183D01*
X110093404Y-57537677D01*
X110092126Y-57539173D01*
X110089953Y-57542877D01*
X110086794Y-57548991D01*
X110082557Y-57557719D01*
X110077152Y-57569264D01*
X110070486Y-57583828D01*
X110062470Y-57601616D01*
X110053012Y-57622831D01*
X110042020Y-57647676D01*
X110029404Y-57676354D01*
X110015071Y-57709069D01*
X109998933Y-57746023D01*
X109980896Y-57787421D01*
X109960869Y-57833465D01*
X109943412Y-57873650D01*
X109925524Y-57914868D01*
X109908230Y-57954758D01*
X109891657Y-57993030D01*
X109875928Y-58029393D01*
X109861170Y-58063555D01*
X109847509Y-58095226D01*
X109835068Y-58124114D01*
X109823974Y-58149927D01*
X109814352Y-58172376D01*
X109806326Y-58191168D01*
X109800024Y-58206013D01*
X109795569Y-58216620D01*
X109793087Y-58222697D01*
X109792594Y-58224063D01*
X109793616Y-58226930D01*
X109796754Y-58234460D01*
X109801872Y-58246348D01*
X109808832Y-58262289D01*
X109817497Y-58281978D01*
X109827729Y-58305111D01*
X109839392Y-58331382D01*
X109852348Y-58360488D01*
X109866459Y-58392123D01*
X109881590Y-58425982D01*
X109897601Y-58461760D01*
X109914357Y-58499154D01*
X109931720Y-58537858D01*
X109949553Y-58577567D01*
X109967718Y-58617977D01*
X109986078Y-58658783D01*
X110004496Y-58699679D01*
X110022836Y-58740362D01*
X110040958Y-58780527D01*
X110058727Y-58819868D01*
X110076006Y-58858081D01*
X110092656Y-58894861D01*
X110108540Y-58929904D01*
X110123522Y-58962904D01*
X110137465Y-58993558D01*
X110150230Y-59021559D01*
X110161681Y-59046604D01*
X110171680Y-59068387D01*
X110180091Y-59086604D01*
X110186776Y-59100950D01*
X110191597Y-59111121D01*
X110194419Y-59116811D01*
X110195084Y-59117938D01*
X110196401Y-59115698D01*
X110199887Y-59108731D01*
X110205434Y-59097268D01*
X110212935Y-59081538D01*
X110222282Y-59061772D01*
X110233368Y-59038200D01*
X110246087Y-59011053D01*
X110260329Y-58980561D01*
X110275989Y-58946953D01*
X110292959Y-58910461D01*
X110311131Y-58871315D01*
X110330398Y-58829744D01*
X110350653Y-58785980D01*
X110371788Y-58740252D01*
X110393697Y-58692791D01*
X110416271Y-58643827D01*
X110431512Y-58610734D01*
X110459214Y-58550554D01*
X110484724Y-58495127D01*
X110508144Y-58444254D01*
X110529572Y-58397737D01*
X110549109Y-58355377D01*
X110566854Y-58316977D01*
X110582907Y-58282338D01*
X110597368Y-58251262D01*
X110610337Y-58223551D01*
X110621913Y-58199007D01*
X110632196Y-58177431D01*
X110641287Y-58158625D01*
X110649283Y-58142391D01*
X110656286Y-58128531D01*
X110662396Y-58116846D01*
X110667711Y-58107139D01*
X110672332Y-58099210D01*
X110676358Y-58092863D01*
X110679889Y-58087898D01*
X110683026Y-58084117D01*
X110685867Y-58081323D01*
X110688512Y-58079317D01*
X110691062Y-58077900D01*
X110693616Y-58076875D01*
X110696273Y-58076043D01*
X110699134Y-58075207D01*
X110701395Y-58074484D01*
X110711426Y-58071757D01*
X110721261Y-58070149D01*
X110724589Y-58069967D01*
X110741675Y-58072477D01*
X110757848Y-58079460D01*
X110771948Y-58090089D01*
X110782815Y-58103540D01*
X110788221Y-58115214D01*
X110789303Y-58119266D01*
X110791568Y-58128349D01*
X110794947Y-58142183D01*
X110799375Y-58160488D01*
X110804786Y-58182986D01*
X110811111Y-58209397D01*
X110818286Y-58239441D01*
X110826242Y-58272838D01*
X110834915Y-58309311D01*
X110844237Y-58348579D01*
X110854141Y-58390362D01*
X110864562Y-58434381D01*
X110875432Y-58480357D01*
X110886686Y-58528011D01*
X110898256Y-58577063D01*
X110901837Y-58592258D01*
X110913453Y-58641530D01*
X110924748Y-58689401D01*
X110935657Y-58735599D01*
X110946116Y-58779851D01*
X110956060Y-58821885D01*
X110965425Y-58861427D01*
X110974145Y-58898206D01*
X110982156Y-58931948D01*
X110989392Y-58962381D01*
X110995790Y-58989232D01*
X111001285Y-59012228D01*
X111005811Y-59031098D01*
X111009305Y-59045567D01*
X111011700Y-59055364D01*
X111012933Y-59060216D01*
X111013075Y-59060689D01*
X111014177Y-59059560D01*
X111016978Y-59054826D01*
X111021523Y-59046398D01*
X111027855Y-59034186D01*
X111036019Y-59018101D01*
X111046059Y-58998054D01*
X111058018Y-58973954D01*
X111071941Y-58945713D01*
X111087871Y-58913241D01*
X111105853Y-58876449D01*
X111125931Y-58835247D01*
X111148149Y-58789545D01*
X111172550Y-58739255D01*
X111199179Y-58684287D01*
X111228079Y-58624550D01*
X111250972Y-58577187D01*
X111274528Y-58528458D01*
X111297503Y-58480980D01*
X111319779Y-58434994D01*
X111341240Y-58390738D01*
X111361770Y-58348449D01*
X111381253Y-58308368D01*
X111399572Y-58270731D01*
X111416610Y-58235778D01*
X111432252Y-58203747D01*
X111446380Y-58174877D01*
X111458879Y-58149405D01*
X111469632Y-58127572D01*
X111478523Y-58109615D01*
X111485435Y-58095772D01*
X111490252Y-58086282D01*
X111492857Y-58081385D01*
X111493225Y-58080800D01*
X111505570Y-58069222D01*
X111521012Y-58061302D01*
X111538319Y-58057376D01*
X111556258Y-58057782D01*
X111567409Y-58060442D01*
X111580656Y-58066911D01*
X111593157Y-58076637D01*
X111603214Y-58088102D01*
X111608025Y-58096676D01*
X111608752Y-58100201D01*
X111610193Y-58108880D01*
X111612312Y-58122461D01*
X111615072Y-58140695D01*
X111618438Y-58163331D01*
X111622374Y-58190120D01*
X111626844Y-58220812D01*
X111631811Y-58255155D01*
X111637241Y-58292901D01*
X111643096Y-58333799D01*
X111649341Y-58377599D01*
X111655941Y-58424051D01*
X111662858Y-58472904D01*
X111670058Y-58523910D01*
X111677503Y-58576816D01*
X111685159Y-58631375D01*
X111692989Y-58687335D01*
X111693916Y-58693970D01*
X111776088Y-59282283D01*
X111806040Y-59283649D01*
X111826093Y-59285356D01*
X111841846Y-59288673D01*
X111854317Y-59293979D01*
X111864520Y-59301657D01*
X111870012Y-59307603D01*
X111871648Y-59309431D01*
X111873172Y-59310933D01*
X111874588Y-59312299D01*
X111875900Y-59313719D01*
X111877113Y-59315383D01*
X111878230Y-59317480D01*
X111879254Y-59320201D01*
X111880191Y-59323735D01*
X111881043Y-59328272D01*
X111881815Y-59334001D01*
X111882511Y-59341113D01*
X111883134Y-59349797D01*
X111883689Y-59360243D01*
X111884180Y-59372641D01*
X111884610Y-59387181D01*
X111884983Y-59404052D01*
X111885303Y-59423444D01*
X111885575Y-59445547D01*
X111885802Y-59470550D01*
X111885987Y-59498645D01*
X111886136Y-59530019D01*
X111886252Y-59564863D01*
X111886338Y-59603368D01*
X111886399Y-59645722D01*
X111886439Y-59692115D01*
X111886461Y-59742738D01*
X111886470Y-59797779D01*
X111886470Y-59857429D01*
X111886463Y-59921878D01*
X111886456Y-59991315D01*
X111886450Y-60065930D01*
X111886449Y-60101857D01*
X111886447Y-60178482D01*
X111886441Y-60249840D01*
X111886429Y-60316123D01*
X111886410Y-60377518D01*
X111886383Y-60434217D01*
X111886348Y-60486407D01*
X111886303Y-60534278D01*
X111886246Y-60578020D01*
X111886178Y-60617821D01*
X111886096Y-60653872D01*
X111886001Y-60686361D01*
X111885890Y-60715477D01*
X111885762Y-60741411D01*
X111885617Y-60764351D01*
X111885454Y-60784487D01*
X111885271Y-60802007D01*
X111885067Y-60817102D01*
X111884841Y-60829960D01*
X111884593Y-60840772D01*
X111884321Y-60849725D01*
X111884023Y-60857011D01*
X111883700Y-60862816D01*
X111883350Y-60867333D01*
X111882971Y-60870748D01*
X111882563Y-60873253D01*
X111882125Y-60875035D01*
X111882053Y-60875263D01*
X111880965Y-60878057D01*
X111879304Y-60881191D01*
X111876805Y-60884942D01*
X111873202Y-60889591D01*
X111868230Y-60895414D01*
X111861625Y-60902692D01*
X111853120Y-60911704D01*
X111842451Y-60922727D01*
X111829353Y-60936042D01*
X111813561Y-60951926D01*
X111794809Y-60970658D01*
X111772833Y-60992518D01*
X111747367Y-61017785D01*
X111733133Y-61031891D01*
X111709539Y-61055208D01*
X111686842Y-61077527D01*
X111665372Y-61098529D01*
X111645461Y-61117896D01*
X111627438Y-61135310D01*
X111611634Y-61150452D01*
X111598381Y-61163004D01*
X111588009Y-61172647D01*
X111580849Y-61179063D01*
X111577296Y-61181896D01*
X111565983Y-61188715D01*
X111108599Y-61189428D01*
X110651215Y-61190141D01*
X110652394Y-61203065D01*
X110652641Y-61207849D01*
X110652986Y-61217630D01*
X110653417Y-61231948D01*
X110653923Y-61250347D01*
X110654492Y-61272369D01*
X110655113Y-61297556D01*
X110655774Y-61325450D01*
X110656463Y-61355593D01*
X110657169Y-61387528D01*
X110657875Y-61420541D01*
X110658585Y-61453658D01*
X110659291Y-61485331D01*
X110659981Y-61515114D01*
X110660643Y-61542564D01*
X110661267Y-61567236D01*
X110661840Y-61588685D01*
X110662350Y-61606467D01*
X110662788Y-61620137D01*
X110663140Y-61629250D01*
X110663395Y-61633362D01*
X110663399Y-61633387D01*
X110664361Y-61635809D01*
X110666867Y-61639598D01*
X110671154Y-61645005D01*
X110677455Y-61652282D01*
X110686009Y-61661681D01*
X110697048Y-61673454D01*
X110710811Y-61687852D01*
X110727531Y-61705127D01*
X110747444Y-61725530D01*
X110770787Y-61749313D01*
X110793696Y-61772572D01*
X110819421Y-61798682D01*
X110841571Y-61821224D01*
X110860422Y-61840494D01*
X110876246Y-61856788D01*
X110889320Y-61870403D01*
X110899917Y-61881636D01*
X110908312Y-61890783D01*
X110914780Y-61898139D01*
X110919595Y-61904003D01*
X110923032Y-61908669D01*
X110925365Y-61912435D01*
X110926869Y-61915597D01*
X110927320Y-61916816D01*
X110931304Y-61936155D01*
X110929984Y-61954699D01*
X110923467Y-61971978D01*
X110911858Y-61987523D01*
X110911060Y-61988332D01*
X110899285Y-62000107D01*
X110863075Y-62000159D01*
X110826866Y-62000210D01*
X110709462Y-61881092D01*
X110592058Y-61761974D01*
X110477635Y-61881016D01*
X110363213Y-62000058D01*
X110317546Y-62000083D01*
X110271880Y-62000107D01*
X110264072Y-61989328D01*
X110254914Y-61972379D01*
X110250795Y-61954287D01*
X110251781Y-61935917D01*
X110257937Y-61918134D01*
X110258565Y-61916929D01*
X110261730Y-61912605D01*
X110268482Y-61904644D01*
X110278584Y-61893302D01*
X110291800Y-61878833D01*
X110307894Y-61861492D01*
X110326629Y-61841533D01*
X110347769Y-61819211D01*
X110371078Y-61794781D01*
X110395259Y-61769598D01*
X110525491Y-61634367D01*
X110525306Y-61594274D01*
X110525169Y-61578703D01*
X110524895Y-61559619D01*
X110524498Y-61537530D01*
X110523993Y-61512947D01*
X110523396Y-61486378D01*
X110522719Y-61458333D01*
X110521979Y-61429322D01*
X110521190Y-61399853D01*
X110520367Y-61370438D01*
X110519525Y-61341584D01*
X110518678Y-61313801D01*
X110517840Y-61287600D01*
X110517028Y-61263488D01*
X110516255Y-61241977D01*
X110515537Y-61223574D01*
X110514888Y-61208790D01*
X110514322Y-61198134D01*
X110513856Y-61192116D01*
X110513628Y-61190943D01*
X110510707Y-61190700D01*
X110502610Y-61190455D01*
X110489616Y-61190208D01*
X110472002Y-61189962D01*
X110450049Y-61189719D01*
X110424033Y-61189479D01*
X110394235Y-61189246D01*
X110360932Y-61189020D01*
X110324403Y-61188805D01*
X110284928Y-61188601D01*
X110242783Y-61188410D01*
X110198249Y-61188235D01*
X110151603Y-61188077D01*
X110103125Y-61187938D01*
X110053092Y-61187820D01*
X110037065Y-61187787D01*
X109562730Y-61186860D01*
X109562860Y-61224607D01*
X109562952Y-61233732D01*
X109563174Y-61247759D01*
X109563514Y-61266136D01*
X109563960Y-61288310D01*
X109564501Y-61313730D01*
X109565125Y-61341845D01*
X109565819Y-61372102D01*
X109566572Y-61403950D01*
X109567372Y-61436837D01*
X109567865Y-61456664D01*
X109572740Y-61650975D01*
X109632510Y-61709033D01*
X109650244Y-61726255D01*
X109670751Y-61746162D01*
X109692888Y-61767645D01*
X109715509Y-61789592D01*
X109737470Y-61810894D01*
X109757628Y-61830441D01*
X109760917Y-61833630D01*
X109777248Y-61849595D01*
X109792528Y-61864790D01*
X109806258Y-61878697D01*
X109817936Y-61890799D01*
X109827062Y-61900578D01*
X109833136Y-61907517D01*
X109835440Y-61910640D01*
X109841523Y-61926757D01*
X109843048Y-61944263D01*
X109840197Y-61961844D01*
X109833147Y-61978183D01*
X109824701Y-61989375D01*
X109814492Y-62000107D01*
X109775730Y-62000107D01*
X109736967Y-62000107D01*
X109695532Y-61960166D01*
X109683796Y-61948833D01*
X109668917Y-61934436D01*
X109651660Y-61917714D01*
X109632789Y-61899410D01*
X109613068Y-61880266D01*
X109593262Y-61861021D01*
X109576017Y-61844248D01*
X109497937Y-61768273D01*
X109380606Y-61884190D01*
X109263275Y-62000107D01*
X109218134Y-62000107D01*
X109172993Y-62000107D01*
X109166090Y-61991056D01*
X109156265Y-61973985D01*
X109151693Y-61955609D01*
X109152434Y-61936290D01*
X109155284Y-61924909D01*
X109156390Y-61922056D01*
X109158073Y-61918873D01*
X109160604Y-61915072D01*
X109164257Y-61910368D01*
X109169302Y-61904473D01*
X109176012Y-61897101D01*
X109184659Y-61887966D01*
X109195515Y-61876780D01*
X109208852Y-61863258D01*
X109224942Y-61847113D01*
X109244056Y-61828057D01*
X109266468Y-61805805D01*
X109292449Y-61780071D01*
X109297661Y-61774913D01*
X109435650Y-61638358D01*
X109430794Y-61416264D01*
X109430032Y-61381902D01*
X109429285Y-61349094D01*
X109428562Y-61318251D01*
X109427876Y-61289783D01*
X109427235Y-61264105D01*
X109426652Y-61241627D01*
X109426135Y-61222761D01*
X109425697Y-61207919D01*
X109425347Y-61197514D01*
X109425096Y-61191956D01*
X109425015Y-61191136D01*
X109423328Y-61190871D01*
X109418370Y-61190614D01*
X109410047Y-61190365D01*
X109398269Y-61190124D01*
X109382943Y-61189890D01*
X109363976Y-61189663D01*
X109341277Y-61189443D01*
X109314753Y-61189228D01*
X109284313Y-61189019D01*
X109249863Y-61188816D01*
X109211313Y-61188618D01*
X109168569Y-61188424D01*
X109121540Y-61188234D01*
X109070133Y-61188048D01*
X109014256Y-61187866D01*
X108953817Y-61187687D01*
X108888724Y-61187510D01*
X108818885Y-61187336D01*
X108744207Y-61187163D01*
X108664599Y-61186993D01*
X108579967Y-61186823D01*
X108490221Y-61186654D01*
X108395268Y-61186486D01*
X108295015Y-61186318D01*
X108223139Y-61186202D01*
X108125853Y-61186050D01*
X108033872Y-61185910D01*
X107947046Y-61185780D01*
X107865224Y-61185656D01*
X107788256Y-61185538D01*
X107715993Y-61185422D01*
X107648284Y-61185307D01*
X107584979Y-61185190D01*
X107525928Y-61185069D01*
X107470982Y-61184942D01*
X107419988Y-61184807D01*
X107372799Y-61184662D01*
X107329264Y-61184504D01*
X107289232Y-61184331D01*
X107252553Y-61184141D01*
X107219078Y-61183931D01*
X107188656Y-61183700D01*
X107161138Y-61183446D01*
X107136373Y-61183165D01*
X107114210Y-61182857D01*
X107094501Y-61182518D01*
X107077095Y-61182146D01*
X107061841Y-61181740D01*
X107048591Y-61181297D01*
X107037192Y-61180815D01*
X107027497Y-61180291D01*
X107019354Y-61179724D01*
X107012613Y-61179111D01*
X107007125Y-61178450D01*
X107002739Y-61177739D01*
X106999305Y-61176976D01*
X106996673Y-61176157D01*
X106994693Y-61175283D01*
X106993214Y-61174349D01*
X106992088Y-61173354D01*
X106991163Y-61172295D01*
X106990290Y-61171171D01*
X106989319Y-61169979D01*
X106988099Y-61168718D01*
X106987324Y-61168039D01*
X106977183Y-61159680D01*
X106977183Y-61062103D01*
X106977183Y-61046891D01*
X107105073Y-61046891D01*
X107178178Y-61047662D01*
X107184988Y-61047709D01*
X107197086Y-61047762D01*
X107214306Y-61047821D01*
X107236483Y-61047886D01*
X107263449Y-61047957D01*
X107295038Y-61048033D01*
X107331084Y-61048114D01*
X107371421Y-61048201D01*
X107415883Y-61048292D01*
X107464303Y-61048387D01*
X107516515Y-61048487D01*
X107572352Y-61048591D01*
X107631649Y-61048698D01*
X107694239Y-61048809D01*
X107759956Y-61048923D01*
X107828634Y-61049040D01*
X107900105Y-61049160D01*
X107974205Y-61049282D01*
X108050766Y-61049407D01*
X108129623Y-61049533D01*
X108210609Y-61049662D01*
X108293558Y-61049791D01*
X108378304Y-61049922D01*
X108464680Y-61050055D01*
X108552520Y-61050187D01*
X108641657Y-61050321D01*
X108731927Y-61050454D01*
X108823161Y-61050588D01*
X108915194Y-61050721D01*
X109007860Y-61050855D01*
X109100993Y-61050987D01*
X109194425Y-61051118D01*
X109287992Y-61051248D01*
X109381526Y-61051377D01*
X109474861Y-61051504D01*
X109567831Y-61051629D01*
X109660270Y-61051752D01*
X109752011Y-61051873D01*
X109842889Y-61051991D01*
X109932736Y-61052105D01*
X110021387Y-61052217D01*
X110108675Y-61052326D01*
X110194435Y-61052430D01*
X110278499Y-61052531D01*
X110360702Y-61052628D01*
X110440876Y-61052720D01*
X110518857Y-61052808D01*
X110594478Y-61052891D01*
X110667571Y-61052969D01*
X110737972Y-61053041D01*
X110805514Y-61053108D01*
X110870030Y-61053168D01*
X110931355Y-61053223D01*
X110965968Y-61053253D01*
X111516904Y-61053710D01*
X111633492Y-60938934D01*
X111750081Y-60824157D01*
X111750081Y-60122149D01*
X111750081Y-59420140D01*
X110483473Y-59420047D01*
X110383447Y-59420038D01*
X110288733Y-59420027D01*
X110199186Y-59420012D01*
X110114665Y-59419994D01*
X110035024Y-59419971D01*
X109960122Y-59419944D01*
X109889815Y-59419912D01*
X109823958Y-59419875D01*
X109762410Y-59419831D01*
X109705027Y-59419781D01*
X109651665Y-59419724D01*
X109602181Y-59419660D01*
X109556432Y-59419588D01*
X109514274Y-59419507D01*
X109475564Y-59419418D01*
X109440159Y-59419319D01*
X109407916Y-59419210D01*
X109378690Y-59419092D01*
X109352339Y-59418962D01*
X109328720Y-59418821D01*
X109307688Y-59418669D01*
X109289101Y-59418505D01*
X109272816Y-59418328D01*
X109258688Y-59418137D01*
X109246575Y-59417934D01*
X109236334Y-59417716D01*
X109227821Y-59417484D01*
X109220892Y-59417237D01*
X109215404Y-59416974D01*
X109211215Y-59416695D01*
X109208180Y-59416401D01*
X109206157Y-59416089D01*
X109205206Y-59415840D01*
X109187949Y-59407079D01*
X109174394Y-59394547D01*
X109164974Y-59378800D01*
X109160127Y-59360394D01*
X109159867Y-59357968D01*
X109159474Y-59348533D01*
X109160490Y-59340046D01*
X109163309Y-59330348D01*
X109166511Y-59321829D01*
X109168947Y-59315909D01*
X109173429Y-59305303D01*
X109179871Y-59290204D01*
X109182684Y-59283646D01*
X109331210Y-59283646D01*
X109725198Y-59283646D01*
X110119186Y-59283646D01*
X110118307Y-59281601D01*
X110272699Y-59281601D01*
X110275218Y-59281862D01*
X110282860Y-59282114D01*
X110295292Y-59282354D01*
X110312182Y-59282580D01*
X110333197Y-59282790D01*
X110358005Y-59282982D01*
X110386273Y-59283154D01*
X110417671Y-59283304D01*
X110451864Y-59283429D01*
X110488520Y-59283528D01*
X110527309Y-59283598D01*
X110567896Y-59283638D01*
X110597606Y-59283646D01*
X110639296Y-59283630D01*
X110679441Y-59283581D01*
X110717707Y-59283502D01*
X110753761Y-59283395D01*
X110787267Y-59283262D01*
X110817892Y-59283106D01*
X110845302Y-59282928D01*
X110869163Y-59282730D01*
X110889141Y-59282515D01*
X110904901Y-59282285D01*
X110916110Y-59282041D01*
X110920400Y-59281868D01*
X111062783Y-59281868D01*
X111065451Y-59282110D01*
X111073219Y-59282342D01*
X111085730Y-59282562D01*
X111102629Y-59282768D01*
X111123561Y-59282958D01*
X111148171Y-59283129D01*
X111176102Y-59283280D01*
X111206999Y-59283408D01*
X111240507Y-59283511D01*
X111276271Y-59283586D01*
X111313934Y-59283632D01*
X111350521Y-59283646D01*
X111389638Y-59283635D01*
X111427187Y-59283603D01*
X111462813Y-59283551D01*
X111496160Y-59283481D01*
X111526873Y-59283395D01*
X111554596Y-59283293D01*
X111578975Y-59283177D01*
X111599652Y-59283049D01*
X111616274Y-59282911D01*
X111628484Y-59282763D01*
X111635926Y-59282607D01*
X111638258Y-59282455D01*
X111637887Y-59279545D01*
X111636806Y-59271574D01*
X111635061Y-59258884D01*
X111632701Y-59241812D01*
X111629772Y-59220697D01*
X111626323Y-59195878D01*
X111622401Y-59167694D01*
X111618052Y-59136485D01*
X111613325Y-59102588D01*
X111608268Y-59066343D01*
X111602926Y-59028088D01*
X111597348Y-58988163D01*
X111591582Y-58946907D01*
X111585674Y-58904658D01*
X111579673Y-58861756D01*
X111573625Y-58818538D01*
X111567578Y-58775345D01*
X111561580Y-58732514D01*
X111555677Y-58690386D01*
X111549918Y-58649298D01*
X111544349Y-58609590D01*
X111539019Y-58571600D01*
X111533974Y-58535668D01*
X111529263Y-58502133D01*
X111524932Y-58471332D01*
X111521028Y-58443606D01*
X111517601Y-58419293D01*
X111514695Y-58398732D01*
X111512361Y-58382261D01*
X111510643Y-58370221D01*
X111509591Y-58362949D01*
X111509254Y-58360765D01*
X111509222Y-58360312D01*
X111509272Y-58359732D01*
X111509307Y-58359222D01*
X111509231Y-58358981D01*
X111508948Y-58359207D01*
X111508360Y-58360098D01*
X111507371Y-58361851D01*
X111505885Y-58364665D01*
X111503805Y-58368737D01*
X111501035Y-58374266D01*
X111497477Y-58381449D01*
X111493036Y-58390485D01*
X111487615Y-58401571D01*
X111481118Y-58414905D01*
X111473447Y-58430686D01*
X111464506Y-58449111D01*
X111454200Y-58470378D01*
X111442430Y-58494685D01*
X111429101Y-58522231D01*
X111414116Y-58553212D01*
X111397379Y-58587828D01*
X111378793Y-58626275D01*
X111358261Y-58668753D01*
X111335688Y-58715458D01*
X111310975Y-58766590D01*
X111284028Y-58822345D01*
X111271194Y-58848898D01*
X111249135Y-58894547D01*
X111227724Y-58938875D01*
X111207081Y-58981632D01*
X111187326Y-59022568D01*
X111168579Y-59061436D01*
X111150960Y-59097984D01*
X111134589Y-59131965D01*
X111119587Y-59163127D01*
X111106073Y-59191223D01*
X111094167Y-59216002D01*
X111083989Y-59237215D01*
X111075660Y-59254613D01*
X111069299Y-59267946D01*
X111065027Y-59276965D01*
X111062964Y-59281421D01*
X111062783Y-59281868D01*
X110920400Y-59281868D01*
X110922433Y-59281786D01*
X110923774Y-59281601D01*
X110923182Y-59278431D01*
X110921406Y-59270325D01*
X110918524Y-59257607D01*
X110914614Y-59240606D01*
X110909753Y-59219647D01*
X110904019Y-59195056D01*
X110897489Y-59167161D01*
X110890241Y-59136288D01*
X110882353Y-59102763D01*
X110873902Y-59066912D01*
X110864966Y-59029063D01*
X110855622Y-58989541D01*
X110845949Y-58948673D01*
X110836022Y-58906786D01*
X110825921Y-58864205D01*
X110815722Y-58821259D01*
X110805503Y-58778272D01*
X110795343Y-58735571D01*
X110785317Y-58693483D01*
X110775505Y-58652335D01*
X110765983Y-58612453D01*
X110756830Y-58574162D01*
X110748122Y-58537791D01*
X110739937Y-58503664D01*
X110732353Y-58472109D01*
X110725448Y-58443453D01*
X110719299Y-58418021D01*
X110713983Y-58396140D01*
X110709579Y-58378136D01*
X110706163Y-58364337D01*
X110703814Y-58355068D01*
X110702609Y-58350655D01*
X110702466Y-58350321D01*
X110701168Y-58352958D01*
X110697703Y-58360308D01*
X110692184Y-58372125D01*
X110684724Y-58388166D01*
X110675435Y-58408188D01*
X110664430Y-58431946D01*
X110651822Y-58459196D01*
X110637723Y-58489695D01*
X110622247Y-58523199D01*
X110605505Y-58559464D01*
X110587611Y-58598246D01*
X110568677Y-58639301D01*
X110548815Y-58682386D01*
X110528140Y-58727256D01*
X110506762Y-58773668D01*
X110487316Y-58815902D01*
X110465414Y-58863476D01*
X110444120Y-58909726D01*
X110423545Y-58954408D01*
X110403802Y-58997277D01*
X110385003Y-59038091D01*
X110367262Y-59076604D01*
X110350689Y-59112574D01*
X110335398Y-59145757D01*
X110321502Y-59175908D01*
X110309111Y-59202783D01*
X110298340Y-59226139D01*
X110289300Y-59245732D01*
X110282103Y-59261318D01*
X110276863Y-59272652D01*
X110273691Y-59279492D01*
X110272699Y-59281601D01*
X110118307Y-59281601D01*
X110115378Y-59274782D01*
X110113857Y-59271378D01*
X110110202Y-59263267D01*
X110104530Y-59250711D01*
X110096960Y-59233971D01*
X110087610Y-59213307D01*
X110076599Y-59188982D01*
X110064044Y-59161256D01*
X110050065Y-59130391D01*
X110034779Y-59096648D01*
X110018305Y-59060287D01*
X110000761Y-59021571D01*
X109982265Y-58980760D01*
X109962936Y-58938116D01*
X109942891Y-58893899D01*
X109922250Y-58848371D01*
X109918658Y-58840449D01*
X109897922Y-58794713D01*
X109877760Y-58750237D01*
X109858291Y-58707284D01*
X109839633Y-58666115D01*
X109821904Y-58626991D01*
X109805223Y-58590174D01*
X109789709Y-58555926D01*
X109775480Y-58524508D01*
X109762654Y-58496182D01*
X109751350Y-58471210D01*
X109741687Y-58449853D01*
X109733782Y-58432373D01*
X109727756Y-58419031D01*
X109723725Y-58410090D01*
X109721808Y-58405810D01*
X109721701Y-58405566D01*
X109718802Y-58399806D01*
X109716714Y-58398670D01*
X109715296Y-58400373D01*
X109713972Y-58403290D01*
X109710591Y-58410952D01*
X109705264Y-58423099D01*
X109698106Y-58439472D01*
X109689228Y-58459811D01*
X109678744Y-58483856D01*
X109666767Y-58511348D01*
X109653410Y-58542028D01*
X109638785Y-58575635D01*
X109623006Y-58611911D01*
X109606186Y-58650596D01*
X109588438Y-58691431D01*
X109569875Y-58734155D01*
X109550609Y-58778510D01*
X109530754Y-58824235D01*
X109527154Y-58832528D01*
X109507152Y-58878599D01*
X109487692Y-58923422D01*
X109468889Y-58966732D01*
X109450857Y-59008264D01*
X109433712Y-59047751D01*
X109417569Y-59084929D01*
X109402543Y-59119532D01*
X109388751Y-59151295D01*
X109376306Y-59179952D01*
X109365324Y-59205238D01*
X109355921Y-59226887D01*
X109348212Y-59244634D01*
X109342312Y-59258214D01*
X109338335Y-59267361D01*
X109336399Y-59271809D01*
X109336291Y-59272055D01*
X109331210Y-59283646D01*
X109182684Y-59283646D01*
X109188189Y-59270809D01*
X109198298Y-59247313D01*
X109210113Y-59219912D01*
X109223549Y-59188799D01*
X109238520Y-59154172D01*
X109254942Y-59116224D01*
X109272730Y-59075152D01*
X109291799Y-59031150D01*
X109312063Y-58984414D01*
X109333438Y-58935139D01*
X109355839Y-58883521D01*
X109379181Y-58829755D01*
X109403379Y-58774035D01*
X109428347Y-58716558D01*
X109454001Y-58657518D01*
X109480255Y-58597112D01*
X109507026Y-58535533D01*
X109534227Y-58472978D01*
X109561774Y-58409642D01*
X109589581Y-58345720D01*
X109617565Y-58281407D01*
X109645639Y-58216899D01*
X109673719Y-58152390D01*
X109701719Y-58088077D01*
X109729555Y-58024155D01*
X109757142Y-57960818D01*
X109784395Y-57898262D01*
X109811228Y-57836682D01*
X109837557Y-57776275D01*
X109863297Y-57717234D01*
X109888362Y-57659755D01*
X109912669Y-57604034D01*
X109936130Y-57550265D01*
X109958663Y-57498645D01*
X109980181Y-57449368D01*
X110000600Y-57402629D01*
X110019834Y-57358625D01*
X110037799Y-57317550D01*
X110054410Y-57279599D01*
X110069519Y-57245112D01*
X110218659Y-57245112D01*
X110218749Y-57253898D01*
X110219003Y-57257624D01*
X110219445Y-57266445D01*
X110220063Y-57280006D01*
X110220841Y-57297949D01*
X110221766Y-57319920D01*
X110222825Y-57345563D01*
X110224004Y-57374520D01*
X110225290Y-57406438D01*
X110226667Y-57440959D01*
X110228124Y-57477728D01*
X110229646Y-57516388D01*
X110231220Y-57556584D01*
X110232831Y-57597961D01*
X110234466Y-57640161D01*
X110236112Y-57682830D01*
X110237755Y-57725610D01*
X110239380Y-57768147D01*
X110240975Y-57810084D01*
X110242526Y-57851066D01*
X110244018Y-57890736D01*
X110245439Y-57928739D01*
X110246775Y-57964719D01*
X110248012Y-57998319D01*
X110249135Y-58029184D01*
X110250133Y-58056958D01*
X110250990Y-58081285D01*
X110251693Y-58101809D01*
X110252229Y-58118174D01*
X110252584Y-58130025D01*
X110252744Y-58137005D01*
X110252751Y-58138014D01*
X110253096Y-58147495D01*
X110254064Y-58152570D01*
X110255292Y-58153015D01*
X110256819Y-58150385D01*
X110260795Y-58143179D01*
X110267096Y-58131633D01*
X110275594Y-58115979D01*
X110286164Y-58096451D01*
X110298681Y-58073282D01*
X110313018Y-58046707D01*
X110329050Y-58016959D01*
X110346651Y-57984272D01*
X110365695Y-57948878D01*
X110386055Y-57911013D01*
X110407608Y-57870909D01*
X110430225Y-57828799D01*
X110453783Y-57784919D01*
X110478154Y-57739501D01*
X110503213Y-57692778D01*
X110506211Y-57687187D01*
X110531316Y-57640358D01*
X110555725Y-57594819D01*
X110579311Y-57550803D01*
X110601952Y-57508541D01*
X110623522Y-57468267D01*
X110643897Y-57430212D01*
X110662953Y-57394610D01*
X110680565Y-57361692D01*
X110696609Y-57331692D01*
X110710961Y-57304841D01*
X110723497Y-57281373D01*
X110734091Y-57261520D01*
X110742620Y-57245514D01*
X110748959Y-57233588D01*
X110752984Y-57225974D01*
X110754570Y-57222905D01*
X110754590Y-57222852D01*
X110751925Y-57222697D01*
X110744176Y-57222548D01*
X110731713Y-57222407D01*
X110714909Y-57222275D01*
X110694134Y-57222155D01*
X110669759Y-57222048D01*
X110642156Y-57221955D01*
X110611694Y-57221878D01*
X110578744Y-57221818D01*
X110543679Y-57221777D01*
X110506869Y-57221757D01*
X110490332Y-57221754D01*
X110226073Y-57221754D01*
X110221669Y-57232761D01*
X110218659Y-57245112D01*
X110069519Y-57245112D01*
X110069582Y-57244968D01*
X110080062Y-57221073D01*
X110939259Y-57221073D01*
X110939558Y-57223942D01*
X110940667Y-57231922D01*
X110942545Y-57244737D01*
X110945148Y-57262109D01*
X110948434Y-57283764D01*
X110952360Y-57309423D01*
X110956882Y-57338811D01*
X110961959Y-57371650D01*
X110967547Y-57407665D01*
X110973604Y-57446579D01*
X110980087Y-57488116D01*
X110986953Y-57531998D01*
X110994160Y-57577950D01*
X111001664Y-57625694D01*
X111009423Y-57674956D01*
X111011286Y-57686771D01*
X111019106Y-57736340D01*
X111026695Y-57784451D01*
X111034010Y-57830828D01*
X111041009Y-57875194D01*
X111047646Y-57917274D01*
X111053879Y-57956791D01*
X111059664Y-57993471D01*
X111064957Y-58027035D01*
X111069716Y-58057210D01*
X111073896Y-58083718D01*
X111077454Y-58106283D01*
X111080347Y-58124630D01*
X111082530Y-58138483D01*
X111083961Y-58147565D01*
X111084596Y-58151601D01*
X111084624Y-58151788D01*
X111084784Y-58151938D01*
X111085214Y-58151478D01*
X111086012Y-58150205D01*
X111087276Y-58147918D01*
X111089101Y-58144415D01*
X111091585Y-58139493D01*
X111094824Y-58132951D01*
X111098916Y-58124587D01*
X111103957Y-58114199D01*
X111110045Y-58101584D01*
X111117275Y-58086542D01*
X111125745Y-58068869D01*
X111135552Y-58048365D01*
X111146793Y-58024827D01*
X111159564Y-57998053D01*
X111173962Y-57967841D01*
X111190085Y-57933990D01*
X111208029Y-57896297D01*
X111227890Y-57854560D01*
X111249767Y-57808578D01*
X111273755Y-57758148D01*
X111299952Y-57703069D01*
X111310297Y-57681316D01*
X111332664Y-57634284D01*
X111354409Y-57588556D01*
X111375415Y-57544378D01*
X111395565Y-57501993D01*
X111414744Y-57461648D01*
X111432835Y-57423587D01*
X111449722Y-57388054D01*
X111465288Y-57355296D01*
X111479417Y-57325556D01*
X111491993Y-57299080D01*
X111502898Y-57276112D01*
X111512018Y-57256898D01*
X111519236Y-57241682D01*
X111524434Y-57230709D01*
X111527498Y-57224224D01*
X111528331Y-57222436D01*
X111527584Y-57221880D01*
X111524684Y-57221384D01*
X111519374Y-57220945D01*
X111511398Y-57220560D01*
X111500499Y-57220226D01*
X111486422Y-57219940D01*
X111468909Y-57219700D01*
X111447704Y-57219501D01*
X111422551Y-57219341D01*
X111393193Y-57219218D01*
X111359374Y-57219128D01*
X111320837Y-57219068D01*
X111277325Y-57219036D01*
X111235060Y-57219027D01*
X111195439Y-57219046D01*
X111157363Y-57219100D01*
X111121186Y-57219187D01*
X111087260Y-57219304D01*
X111055940Y-57219450D01*
X111027577Y-57219621D01*
X111002525Y-57219816D01*
X110981136Y-57220031D01*
X110963765Y-57220265D01*
X110950764Y-57220515D01*
X110942486Y-57220778D01*
X110939284Y-57221052D01*
X110939259Y-57221073D01*
X110080062Y-57221073D01*
X110083229Y-57213852D01*
X110095267Y-57186446D01*
X110105610Y-57162947D01*
X110114174Y-57143548D01*
X110120874Y-57128445D01*
X110125624Y-57117834D01*
X110128340Y-57111909D01*
X110128966Y-57110675D01*
X110135387Y-57104036D01*
X110144090Y-57097171D01*
X110148525Y-57094311D01*
X110161387Y-57086750D01*
X110885504Y-57084423D01*
X110947976Y-57084221D01*
X111009014Y-57084021D01*
X111068395Y-57083823D01*
X111125894Y-57083628D01*
X111181288Y-57083438D01*
X111234350Y-57083253D01*
X111284858Y-57083074D01*
X111332588Y-57082901D01*
X111377314Y-57082737D01*
X111418813Y-57082580D01*
X111456860Y-57082433D01*
X111491231Y-57082296D01*
X111521701Y-57082171D01*
X111548047Y-57082057D01*
X111570045Y-57081955D01*
X111587469Y-57081867D01*
X111600096Y-57081794D01*
X111607701Y-57081736D01*
X111610070Y-57081696D01*
X111610147Y-57078973D01*
X111610255Y-57071140D01*
X111610390Y-57058544D01*
X111610551Y-57041530D01*
X111610735Y-57020444D01*
X111610939Y-56995632D01*
X111611160Y-56967439D01*
X111611395Y-56936210D01*
X111611642Y-56902292D01*
X111611898Y-56866029D01*
X111612160Y-56827769D01*
X111612426Y-56787855D01*
X111612504Y-56775829D01*
X111612835Y-56726578D01*
X111613158Y-56682511D01*
X111613476Y-56643361D01*
X111613795Y-56608858D01*
X111614119Y-56578732D01*
X111614453Y-56552714D01*
X111614803Y-56530534D01*
X111615172Y-56511924D01*
X111615566Y-56496615D01*
X111615989Y-56484335D01*
X111616447Y-56474818D01*
X111616944Y-56467792D01*
X111617485Y-56462989D01*
X111618074Y-56460139D01*
X111618144Y-56459928D01*
X111620321Y-56455949D01*
X111625394Y-56447926D01*
X111633088Y-56436259D01*
X111643133Y-56421344D01*
X111655256Y-56403580D01*
X111669185Y-56383365D01*
X111684647Y-56361098D01*
X111701370Y-56337175D01*
X111719082Y-56311995D01*
X111727014Y-56300768D01*
X111744887Y-56275458D01*
X111761766Y-56251468D01*
X111777396Y-56229164D01*
X111791521Y-56208916D01*
X111803887Y-56191092D01*
X111814239Y-56176059D01*
X111822322Y-56164186D01*
X111827881Y-56155841D01*
X111830660Y-56151391D01*
X111830930Y-56150744D01*
X111828130Y-56150625D01*
X111820089Y-56150482D01*
X111807019Y-56150318D01*
X111789132Y-56150134D01*
X111766642Y-56149930D01*
X111739762Y-56149709D01*
X111708703Y-56149472D01*
X111673679Y-56149220D01*
X111634903Y-56148955D01*
X111592588Y-56148678D01*
X111546945Y-56148389D01*
X111498189Y-56148092D01*
X111446532Y-56147786D01*
X111392186Y-56147474D01*
X111335365Y-56147157D01*
X111276281Y-56146835D01*
X111215147Y-56146511D01*
X111152176Y-56146186D01*
X111087580Y-56145862D01*
X111023148Y-56145546D01*
X110216666Y-56141648D01*
X110159026Y-56197602D01*
X110147064Y-56209254D01*
X110131728Y-56224258D01*
X110113516Y-56242125D01*
X110092926Y-56262363D01*
X110070454Y-56284484D01*
X110046599Y-56307997D01*
X110021858Y-56332411D01*
X109996730Y-56357237D01*
X109971711Y-56381985D01*
X109961636Y-56391961D01*
X109821887Y-56530366D01*
X108736150Y-58705444D01*
X108684749Y-58808409D01*
X108633928Y-58910200D01*
X108583743Y-59010707D01*
X108534248Y-59109819D01*
X108485498Y-59207426D01*
X108437548Y-59303419D01*
X108390455Y-59397687D01*
X108344271Y-59490120D01*
X108299054Y-59580607D01*
X108254857Y-59669040D01*
X108211736Y-59755307D01*
X108169746Y-59839300D01*
X108128942Y-59920906D01*
X108089380Y-60000018D01*
X108051113Y-60076524D01*
X108014198Y-60150314D01*
X107978690Y-60221278D01*
X107944643Y-60289307D01*
X107912112Y-60354289D01*
X107881154Y-60416116D01*
X107851822Y-60474677D01*
X107824172Y-60529861D01*
X107798260Y-60581560D01*
X107774139Y-60629661D01*
X107751866Y-60674057D01*
X107731495Y-60714636D01*
X107713081Y-60751288D01*
X107696680Y-60783904D01*
X107682346Y-60812373D01*
X107670136Y-60836585D01*
X107660103Y-60856430D01*
X107652303Y-60871798D01*
X107646790Y-60882578D01*
X107643621Y-60888662D01*
X107642836Y-60890055D01*
X107635476Y-60897335D01*
X107626242Y-60903998D01*
X107623278Y-60905651D01*
X107618960Y-60907214D01*
X107609751Y-60910065D01*
X107596036Y-60914098D01*
X107578197Y-60919207D01*
X107556618Y-60925284D01*
X107531683Y-60932223D01*
X107503775Y-60939917D01*
X107473277Y-60948261D01*
X107440573Y-60957148D01*
X107406046Y-60966471D01*
X107370079Y-60976123D01*
X107358184Y-60979302D01*
X107105073Y-61046891D01*
X106977183Y-61046891D01*
X106977183Y-60964525D01*
X106985104Y-60953590D01*
X106992192Y-60945458D01*
X107000393Y-60938274D01*
X107002979Y-60936503D01*
X107007473Y-60934673D01*
X107017131Y-60931519D01*
X107031833Y-60927075D01*
X107051459Y-60921374D01*
X107075891Y-60914449D01*
X107105008Y-60906336D01*
X107138691Y-60897066D01*
X107176820Y-60886673D01*
X107219276Y-60875191D01*
X107265939Y-60862654D01*
X107276658Y-60859784D01*
X107313483Y-60849934D01*
X107348811Y-60840491D01*
X107382285Y-60831551D01*
X107413552Y-60823208D01*
X107442255Y-60815556D01*
X107468040Y-60808689D01*
X107490551Y-60802703D01*
X107509434Y-60797692D01*
X107524332Y-60793751D01*
X107534891Y-60790973D01*
X107540757Y-60789454D01*
X107541879Y-60789185D01*
X107543159Y-60786762D01*
X107546819Y-60779567D01*
X107552805Y-60767710D01*
X107561062Y-60751301D01*
X107571535Y-60730450D01*
X107584170Y-60705265D01*
X107598911Y-60675858D01*
X107615704Y-60642336D01*
X107634494Y-60604811D01*
X107655226Y-60563391D01*
X107677846Y-60518186D01*
X107702299Y-60469305D01*
X107728530Y-60416859D01*
X107756484Y-60360957D01*
X107786106Y-60301708D01*
X107817342Y-60239223D01*
X107850137Y-60173610D01*
X107884436Y-60104979D01*
X107920184Y-60033440D01*
X107957327Y-59959103D01*
X107995810Y-59882076D01*
X108035577Y-59802471D01*
X108076575Y-59720395D01*
X108118748Y-59635960D01*
X108162042Y-59549274D01*
X108206402Y-59460447D01*
X108251773Y-59369589D01*
X108298101Y-59276809D01*
X108345330Y-59182216D01*
X108393406Y-59085922D01*
X108442273Y-58988034D01*
X108491879Y-58888663D01*
X108542166Y-58787919D01*
X108593081Y-58685910D01*
X108625871Y-58620214D01*
X109708367Y-56451272D01*
X109784042Y-56376270D01*
X109828477Y-56332237D01*
X109869212Y-56291888D01*
X109906416Y-56255062D01*
X109940255Y-56221597D01*
X109970899Y-56191331D01*
X109998515Y-56164101D01*
X110023272Y-56139748D01*
X110045337Y-56118107D01*
X110064878Y-56099018D01*
X110082063Y-56082319D01*
X110097061Y-56067848D01*
X110110039Y-56055442D01*
X110121166Y-56044941D01*
X110130609Y-56036182D01*
X110138536Y-56029004D01*
X110145116Y-56023244D01*
X110150516Y-56018741D01*
X110154905Y-56015332D01*
X110158450Y-56012857D01*
X110161319Y-56011153D01*
X110163681Y-56010059D01*
X110164519Y-56009756D01*
X110166025Y-56009325D01*
X110167975Y-56008924D01*
X110170542Y-56008553D01*
X110173904Y-56008211D01*
X110178234Y-56007900D01*
X110183710Y-56007618D01*
X110190506Y-56007365D01*
X110198797Y-56007142D01*
X110208760Y-56006949D01*
X110220569Y-56006785D01*
X110234400Y-56006650D01*
X110250429Y-56006545D01*
X110268830Y-56006469D01*
X110289780Y-56006421D01*
X110313453Y-56006403D01*
X110340026Y-56006414D01*
G37*
%TO.C,R8*%
X68850742Y-48245500D02*
X69325258Y-48245500D01*
X68850742Y-49290500D02*
X69325258Y-49290500D01*
%TO.C,R4*%
X113040724Y-65450273D02*
X112566208Y-65450273D01*
X113040724Y-64405273D02*
X112566208Y-64405273D01*
%TO.C,R18*%
X82818500Y-77867742D02*
X82818500Y-78342258D01*
X81773500Y-77867742D02*
X81773500Y-78342258D01*
%TO.C,C16*%
X79832252Y-78634000D02*
X78409748Y-78634000D01*
X79832252Y-76814000D02*
X78409748Y-76814000D01*
%TO.C,R2*%
X126185501Y-71762742D02*
X126185501Y-72237258D01*
X125140501Y-71762742D02*
X125140501Y-72237258D01*
D11*
%TO.C,S3*%
X124607000Y-80098000D02*
X124607000Y-77558000D01*
D17*
X122321000Y-79336000D02*
X122321000Y-78320000D01*
D14*
X121940000Y-79463000D02*
G75*
G03*
X121940000Y-79463000I-127000J0D01*
G01*
D15*
%TO.C,R11*%
X85868742Y-44943500D02*
X86343258Y-44943500D01*
X85868742Y-45988500D02*
X86343258Y-45988500D01*
%TO.C,L1*%
X74840000Y-84295064D02*
X74840000Y-83090936D01*
X77560000Y-84295064D02*
X77560000Y-83090936D01*
%TO.C,C17*%
X76149252Y-81047000D02*
X74726748Y-81047000D01*
X76149252Y-79227000D02*
X74726748Y-79227000D01*
%TO.C,R15*%
X112554355Y-50322924D02*
X112554355Y-50797440D01*
X111509355Y-50322924D02*
X111509355Y-50797440D01*
D17*
%TO.C,J1*%
X123820000Y-69501000D02*
X125500000Y-69501000D01*
X123820000Y-60561000D02*
X125500000Y-60561000D01*
D14*
X121055000Y-68841000D02*
G75*
G03*
X121055000Y-68841000I-100000J0D01*
G01*
D15*
%TO.C,R16*%
X118242515Y-83984164D02*
X118717031Y-83984164D01*
X118242515Y-85029164D02*
X118717031Y-85029164D01*
%TO.C,R13*%
X124282582Y-58120292D02*
X124282582Y-57645776D01*
X125327582Y-58120292D02*
X125327582Y-57645776D01*
%TO.C,R12*%
X88916742Y-44943500D02*
X89391258Y-44943500D01*
X88916742Y-45988500D02*
X89391258Y-45988500D01*
%TO.C,R20*%
X103109500Y-84692258D02*
X103109500Y-84217742D01*
X104154500Y-84692258D02*
X104154500Y-84217742D01*
%TO.C,D5*%
X68040000Y-62685000D02*
X69960000Y-62685000D01*
X69960000Y-62685000D02*
X69960000Y-60000000D01*
X68040000Y-60000000D02*
X68040000Y-62685000D01*
D11*
%TO.C,REF\u002A\u002A*%
X73025000Y-52832000D02*
X103759000Y-52832000D01*
X103759000Y-52832000D02*
X103759000Y-73025000D01*
X103759000Y-73025000D02*
X73025000Y-73025000D01*
X73025000Y-73025000D02*
X73025000Y-52832000D01*
D15*
%TO.C,C8*%
X122331319Y-57744602D02*
X122331319Y-58025762D01*
X121311319Y-57744602D02*
X121311319Y-58025762D01*
%TO.C,D4*%
X73948000Y-50363000D02*
X73948000Y-48443000D01*
X73948000Y-48443000D02*
X71263000Y-48443000D01*
X71263000Y-50363000D02*
X73948000Y-50363000D01*
%TO.C,R1*%
X119022500Y-80423363D02*
X119022500Y-80897879D01*
X117977500Y-80423363D02*
X117977500Y-80897879D01*
%TO.C,C1*%
X119343637Y-59980015D02*
X119343637Y-59457511D01*
X120813637Y-59980015D02*
X120813637Y-59457511D01*
%TD*%
M02*
