M48
; DRILL file {KiCad 7.0.9} date Wed Dec 20 20:28:41 2023
; FORMAT={-:-/ absolute / inch / decimal}
; #@! TF.CreationDate,2023-12-20T20:28:41+02:00
; #@! TF.GenerationSoftware,Kicad,Pcbnew,7.0.9
; #@! TF.FileFunction,Plated,1,2,PTH
FMAT,2
INCH
; #@! TA.AperFunction,Plated,PTH,ComponentDrill
T1C0.0118
; #@! TA.AperFunction,Plated,PTH,ViaDrill
T2C0.0157
; #@! TA.AperFunction,Plated,PTH,ComponentDrill
T3C0.0197
; #@! TA.AperFunction,Plated,PTH,ComponentDrill
T4C0.0236
; #@! TA.AperFunction,Plated,PTH,ComponentDrill
T5C0.0866
%
G90
G05
T1
X4.0567Y-2.4256
X4.0567Y-2.4944
X4.0567Y-2.5633
X4.1256Y-2.4256
X4.1256Y-2.4944
X4.1256Y-2.5633
X4.1373Y-1.93
X4.1944Y-2.4256
X4.1944Y-2.4944
X4.1944Y-2.5633
T2
X2.7Y-1.89
X2.74Y-2.21
X2.74Y-2.73
X2.81Y-2.45
X2.81Y-2.94
X2.82Y-1.75
X2.93Y-3.3
X3.02Y-1.9
X3.04Y-2.33
X3.09Y-2.7
X3.17Y-1.76
X3.27Y-2.0
X3.32Y-2.76
X3.36Y-2.25
X3.42Y-2.49
X3.44Y-2.28
X3.46Y-2.67
X3.49Y-2.96
X3.49Y-3.39
X3.5Y-2.85
X3.51Y-2.28
X3.53Y-3.21
X3.54Y-1.75
X3.54Y-2.31
X3.56Y-2.41
X3.58Y-1.85
X3.61Y-2.7
X3.63Y-3.33
X3.65Y-1.99
X3.68Y-2.67
X3.73Y-2.73
X3.74Y-2.16
X3.74Y-2.54
X3.77Y-2.76
X3.88Y-2.0
X3.9Y-2.36
X3.91Y-2.4989
X3.99Y-2.04
X4.03Y-1.92
X4.09Y-3.26
X4.11Y-2.22
X4.11Y-2.17
X4.11Y-2.28
X4.11Y-2.74
X4.11Y-2.79
X4.14Y-2.31
X4.14Y-2.91
X4.16Y-3.01
X4.2Y-2.77
X4.22Y-3.23
X4.23Y-2.86
X4.24Y-2.12
X4.25Y-3.4
X4.29Y-2.7966
X4.29Y-3.25
X4.32Y-2.76
X4.35Y-2.28
X4.3719Y-2.7166
X4.38Y-2.54
X4.41Y-2.39
X4.46Y-2.64
X4.51Y-2.66
X4.53Y-2.21
X4.62Y-1.98
X4.66Y-2.41
X4.66Y-2.78
X4.71Y-2.27
X4.72Y-1.85
X4.72Y-2.21
X4.72Y-2.48
X4.72Y-2.64
X4.76Y-3.41
X4.81Y-1.95
X4.81Y-3.23
X4.83Y-2.87
X4.87Y-2.55
X4.91Y-2.44
X4.97Y-2.2
X4.98Y-3.19
X5.0Y-2.49
T3
X2.6582Y-2.0165
X2.6582Y-2.0835
X2.6582Y-2.5365
X2.6582Y-2.6035
X2.6582Y-3.0565
X2.6582Y-3.1235
X3.16Y-3.05
X3.84Y-3.05
X4.52Y-3.05
X4.8676Y-3.07
X4.8676Y-3.1369
T5
X2.8Y-3.28
X3.75Y-1.89
X4.9Y-1.88
T4
G00X4.8012Y-2.39
M15
G01X4.8445Y-2.39
M16
G05
G00X4.8012Y-2.7306
M15
G01X4.8445Y-2.7306
M16
G05
G00X4.9713Y-2.39
M15
G01X5.0028Y-2.39
M16
G05
G00X4.9713Y-2.7306
M15
G01X5.0028Y-2.7306
M16
G05
T0
M30
