%TF.GenerationSoftware,KiCad,Pcbnew,7.0.9*%
%TF.CreationDate,2023-12-20T20:28:44+02:00*%
%TF.ProjectId,DRM_Watch_V3,44524d5f-5761-4746-9368-5f56332e6b69,rev?*%
%TF.SameCoordinates,Original*%
%TF.FileFunction,Drillmap*%
%TF.FilePolarity,Positive*%
%FSLAX45Y45*%
G04 Gerber Fmt 4.5, Leading zero omitted, Abs format (unit mm)*
G04 Created by KiCad (PCBNEW 7.0.9) date 2023-12-20 20:28:44*
%MOMM*%
%LPD*%
G01*
G04 APERTURE LIST*
%ADD10C,0.100000*%
%ADD11C,0.200000*%
G04 APERTURE END LIST*
D10*
X12877800Y-8763000D02*
X10464800Y-8763000D01*
X6604000Y-4318000D02*
X12877800Y-4318000D01*
X10312400Y-8610600D02*
X9169400Y-8610600D01*
X10464800Y-8763000D02*
X10312400Y-8610600D01*
X9017000Y-8763000D02*
X9169400Y-8610600D01*
X6604000Y-8763000D02*
X9017000Y-8763000D01*
X12877800Y-4318000D02*
X12877800Y-8763000D01*
X6604000Y-4318000D02*
X6604000Y-8763000D01*
D11*
D10*
X12212800Y-5100800D02*
X12272800Y-5160800D01*
X12272800Y-5100800D02*
X12212800Y-5160800D01*
X12212800Y-5405600D02*
X12272800Y-5465600D01*
X12272800Y-5405600D02*
X12212800Y-5465600D01*
X12212800Y-5735800D02*
X12272800Y-5795800D01*
X12272800Y-5735800D02*
X12212800Y-5795800D01*
X12269000Y-6184100D02*
X12329000Y-6244100D01*
X12329000Y-6184100D02*
X12269000Y-6244100D01*
X12269000Y-6762100D02*
X12329000Y-6822100D01*
X12329000Y-6762100D02*
X12269000Y-6822100D01*
D11*
X6859777Y-9079484D02*
X6859777Y-8879484D01*
X6859777Y-8879484D02*
X6907396Y-8879484D01*
X6907396Y-8879484D02*
X6935967Y-8889008D01*
X6935967Y-8889008D02*
X6955015Y-8908055D01*
X6955015Y-8908055D02*
X6964539Y-8927103D01*
X6964539Y-8927103D02*
X6974062Y-8965198D01*
X6974062Y-8965198D02*
X6974062Y-8993770D01*
X6974062Y-8993770D02*
X6964539Y-9031865D01*
X6964539Y-9031865D02*
X6955015Y-9050912D01*
X6955015Y-9050912D02*
X6935967Y-9069960D01*
X6935967Y-9069960D02*
X6907396Y-9079484D01*
X6907396Y-9079484D02*
X6859777Y-9079484D01*
X7059777Y-9079484D02*
X7059777Y-8946150D01*
X7059777Y-8984246D02*
X7069301Y-8965198D01*
X7069301Y-8965198D02*
X7078824Y-8955674D01*
X7078824Y-8955674D02*
X7097872Y-8946150D01*
X7097872Y-8946150D02*
X7116920Y-8946150D01*
X7183586Y-9079484D02*
X7183586Y-8946150D01*
X7183586Y-8879484D02*
X7174062Y-8889008D01*
X7174062Y-8889008D02*
X7183586Y-8898531D01*
X7183586Y-8898531D02*
X7193110Y-8889008D01*
X7193110Y-8889008D02*
X7183586Y-8879484D01*
X7183586Y-8879484D02*
X7183586Y-8898531D01*
X7307396Y-9079484D02*
X7288348Y-9069960D01*
X7288348Y-9069960D02*
X7278824Y-9050912D01*
X7278824Y-9050912D02*
X7278824Y-8879484D01*
X7412158Y-9079484D02*
X7393110Y-9069960D01*
X7393110Y-9069960D02*
X7383586Y-9050912D01*
X7383586Y-9050912D02*
X7383586Y-8879484D01*
X7640729Y-9079484D02*
X7640729Y-8879484D01*
X7640729Y-8879484D02*
X7707396Y-9022341D01*
X7707396Y-9022341D02*
X7774062Y-8879484D01*
X7774062Y-8879484D02*
X7774062Y-9079484D01*
X7955015Y-9079484D02*
X7955015Y-8974722D01*
X7955015Y-8974722D02*
X7945491Y-8955674D01*
X7945491Y-8955674D02*
X7926443Y-8946150D01*
X7926443Y-8946150D02*
X7888348Y-8946150D01*
X7888348Y-8946150D02*
X7869301Y-8955674D01*
X7955015Y-9069960D02*
X7935967Y-9079484D01*
X7935967Y-9079484D02*
X7888348Y-9079484D01*
X7888348Y-9079484D02*
X7869301Y-9069960D01*
X7869301Y-9069960D02*
X7859777Y-9050912D01*
X7859777Y-9050912D02*
X7859777Y-9031865D01*
X7859777Y-9031865D02*
X7869301Y-9012817D01*
X7869301Y-9012817D02*
X7888348Y-9003293D01*
X7888348Y-9003293D02*
X7935967Y-9003293D01*
X7935967Y-9003293D02*
X7955015Y-8993770D01*
X8050253Y-8946150D02*
X8050253Y-9146150D01*
X8050253Y-8955674D02*
X8069301Y-8946150D01*
X8069301Y-8946150D02*
X8107396Y-8946150D01*
X8107396Y-8946150D02*
X8126443Y-8955674D01*
X8126443Y-8955674D02*
X8135967Y-8965198D01*
X8135967Y-8965198D02*
X8145491Y-8984246D01*
X8145491Y-8984246D02*
X8145491Y-9041389D01*
X8145491Y-9041389D02*
X8135967Y-9060436D01*
X8135967Y-9060436D02*
X8126443Y-9069960D01*
X8126443Y-9069960D02*
X8107396Y-9079484D01*
X8107396Y-9079484D02*
X8069301Y-9079484D01*
X8069301Y-9079484D02*
X8050253Y-9069960D01*
X8231205Y-9060436D02*
X8240729Y-9069960D01*
X8240729Y-9069960D02*
X8231205Y-9079484D01*
X8231205Y-9079484D02*
X8221682Y-9069960D01*
X8221682Y-9069960D02*
X8231205Y-9060436D01*
X8231205Y-9060436D02*
X8231205Y-9079484D01*
X8231205Y-8955674D02*
X8240729Y-8965198D01*
X8240729Y-8965198D02*
X8231205Y-8974722D01*
X8231205Y-8974722D02*
X8221682Y-8965198D01*
X8221682Y-8965198D02*
X8231205Y-8955674D01*
X8231205Y-8955674D02*
X8231205Y-8974722D01*
D10*
X6539000Y-9378000D02*
X6599000Y-9438000D01*
X6599000Y-9378000D02*
X6539000Y-9438000D01*
D11*
X6897872Y-9299484D02*
X6916920Y-9299484D01*
X6916920Y-9299484D02*
X6935967Y-9309008D01*
X6935967Y-9309008D02*
X6945491Y-9318531D01*
X6945491Y-9318531D02*
X6955015Y-9337579D01*
X6955015Y-9337579D02*
X6964539Y-9375674D01*
X6964539Y-9375674D02*
X6964539Y-9423293D01*
X6964539Y-9423293D02*
X6955015Y-9461389D01*
X6955015Y-9461389D02*
X6945491Y-9480436D01*
X6945491Y-9480436D02*
X6935967Y-9489960D01*
X6935967Y-9489960D02*
X6916920Y-9499484D01*
X6916920Y-9499484D02*
X6897872Y-9499484D01*
X6897872Y-9499484D02*
X6878824Y-9489960D01*
X6878824Y-9489960D02*
X6869301Y-9480436D01*
X6869301Y-9480436D02*
X6859777Y-9461389D01*
X6859777Y-9461389D02*
X6850253Y-9423293D01*
X6850253Y-9423293D02*
X6850253Y-9375674D01*
X6850253Y-9375674D02*
X6859777Y-9337579D01*
X6859777Y-9337579D02*
X6869301Y-9318531D01*
X6869301Y-9318531D02*
X6878824Y-9309008D01*
X6878824Y-9309008D02*
X6897872Y-9299484D01*
X7050253Y-9480436D02*
X7059777Y-9489960D01*
X7059777Y-9489960D02*
X7050253Y-9499484D01*
X7050253Y-9499484D02*
X7040729Y-9489960D01*
X7040729Y-9489960D02*
X7050253Y-9480436D01*
X7050253Y-9480436D02*
X7050253Y-9499484D01*
X7231205Y-9299484D02*
X7193110Y-9299484D01*
X7193110Y-9299484D02*
X7174062Y-9309008D01*
X7174062Y-9309008D02*
X7164539Y-9318531D01*
X7164539Y-9318531D02*
X7145491Y-9347103D01*
X7145491Y-9347103D02*
X7135967Y-9385198D01*
X7135967Y-9385198D02*
X7135967Y-9461389D01*
X7135967Y-9461389D02*
X7145491Y-9480436D01*
X7145491Y-9480436D02*
X7155015Y-9489960D01*
X7155015Y-9489960D02*
X7174062Y-9499484D01*
X7174062Y-9499484D02*
X7212158Y-9499484D01*
X7212158Y-9499484D02*
X7231205Y-9489960D01*
X7231205Y-9489960D02*
X7240729Y-9480436D01*
X7240729Y-9480436D02*
X7250253Y-9461389D01*
X7250253Y-9461389D02*
X7250253Y-9413770D01*
X7250253Y-9413770D02*
X7240729Y-9394722D01*
X7240729Y-9394722D02*
X7231205Y-9385198D01*
X7231205Y-9385198D02*
X7212158Y-9375674D01*
X7212158Y-9375674D02*
X7174062Y-9375674D01*
X7174062Y-9375674D02*
X7155015Y-9385198D01*
X7155015Y-9385198D02*
X7145491Y-9394722D01*
X7145491Y-9394722D02*
X7135967Y-9413770D01*
X7374062Y-9299484D02*
X7393110Y-9299484D01*
X7393110Y-9299484D02*
X7412158Y-9309008D01*
X7412158Y-9309008D02*
X7421682Y-9318531D01*
X7421682Y-9318531D02*
X7431205Y-9337579D01*
X7431205Y-9337579D02*
X7440729Y-9375674D01*
X7440729Y-9375674D02*
X7440729Y-9423293D01*
X7440729Y-9423293D02*
X7431205Y-9461389D01*
X7431205Y-9461389D02*
X7421682Y-9480436D01*
X7421682Y-9480436D02*
X7412158Y-9489960D01*
X7412158Y-9489960D02*
X7393110Y-9499484D01*
X7393110Y-9499484D02*
X7374062Y-9499484D01*
X7374062Y-9499484D02*
X7355015Y-9489960D01*
X7355015Y-9489960D02*
X7345491Y-9480436D01*
X7345491Y-9480436D02*
X7335967Y-9461389D01*
X7335967Y-9461389D02*
X7326443Y-9423293D01*
X7326443Y-9423293D02*
X7326443Y-9375674D01*
X7326443Y-9375674D02*
X7335967Y-9337579D01*
X7335967Y-9337579D02*
X7345491Y-9318531D01*
X7345491Y-9318531D02*
X7355015Y-9309008D01*
X7355015Y-9309008D02*
X7374062Y-9299484D01*
X7564539Y-9299484D02*
X7583586Y-9299484D01*
X7583586Y-9299484D02*
X7602634Y-9309008D01*
X7602634Y-9309008D02*
X7612158Y-9318531D01*
X7612158Y-9318531D02*
X7621682Y-9337579D01*
X7621682Y-9337579D02*
X7631205Y-9375674D01*
X7631205Y-9375674D02*
X7631205Y-9423293D01*
X7631205Y-9423293D02*
X7621682Y-9461389D01*
X7621682Y-9461389D02*
X7612158Y-9480436D01*
X7612158Y-9480436D02*
X7602634Y-9489960D01*
X7602634Y-9489960D02*
X7583586Y-9499484D01*
X7583586Y-9499484D02*
X7564539Y-9499484D01*
X7564539Y-9499484D02*
X7545491Y-9489960D01*
X7545491Y-9489960D02*
X7535967Y-9480436D01*
X7535967Y-9480436D02*
X7526443Y-9461389D01*
X7526443Y-9461389D02*
X7516920Y-9423293D01*
X7516920Y-9423293D02*
X7516920Y-9375674D01*
X7516920Y-9375674D02*
X7526443Y-9337579D01*
X7526443Y-9337579D02*
X7535967Y-9318531D01*
X7535967Y-9318531D02*
X7545491Y-9309008D01*
X7545491Y-9309008D02*
X7564539Y-9299484D01*
X7716920Y-9499484D02*
X7716920Y-9366150D01*
X7716920Y-9385198D02*
X7726443Y-9375674D01*
X7726443Y-9375674D02*
X7745491Y-9366150D01*
X7745491Y-9366150D02*
X7774063Y-9366150D01*
X7774063Y-9366150D02*
X7793110Y-9375674D01*
X7793110Y-9375674D02*
X7802634Y-9394722D01*
X7802634Y-9394722D02*
X7802634Y-9499484D01*
X7802634Y-9394722D02*
X7812158Y-9375674D01*
X7812158Y-9375674D02*
X7831205Y-9366150D01*
X7831205Y-9366150D02*
X7859777Y-9366150D01*
X7859777Y-9366150D02*
X7878824Y-9375674D01*
X7878824Y-9375674D02*
X7888348Y-9394722D01*
X7888348Y-9394722D02*
X7888348Y-9499484D01*
X7983586Y-9499484D02*
X7983586Y-9366150D01*
X7983586Y-9385198D02*
X7993110Y-9375674D01*
X7993110Y-9375674D02*
X8012158Y-9366150D01*
X8012158Y-9366150D02*
X8040729Y-9366150D01*
X8040729Y-9366150D02*
X8059777Y-9375674D01*
X8059777Y-9375674D02*
X8069301Y-9394722D01*
X8069301Y-9394722D02*
X8069301Y-9499484D01*
X8069301Y-9394722D02*
X8078824Y-9375674D01*
X8078824Y-9375674D02*
X8097872Y-9366150D01*
X8097872Y-9366150D02*
X8126443Y-9366150D01*
X8126443Y-9366150D02*
X8145491Y-9375674D01*
X8145491Y-9375674D02*
X8155015Y-9394722D01*
X8155015Y-9394722D02*
X8155015Y-9499484D01*
X8545491Y-9289960D02*
X8374063Y-9547103D01*
X8802634Y-9299484D02*
X8821682Y-9299484D01*
X8821682Y-9299484D02*
X8840729Y-9309008D01*
X8840729Y-9309008D02*
X8850253Y-9318531D01*
X8850253Y-9318531D02*
X8859777Y-9337579D01*
X8859777Y-9337579D02*
X8869301Y-9375674D01*
X8869301Y-9375674D02*
X8869301Y-9423293D01*
X8869301Y-9423293D02*
X8859777Y-9461389D01*
X8859777Y-9461389D02*
X8850253Y-9480436D01*
X8850253Y-9480436D02*
X8840729Y-9489960D01*
X8840729Y-9489960D02*
X8821682Y-9499484D01*
X8821682Y-9499484D02*
X8802634Y-9499484D01*
X8802634Y-9499484D02*
X8783587Y-9489960D01*
X8783587Y-9489960D02*
X8774063Y-9480436D01*
X8774063Y-9480436D02*
X8764539Y-9461389D01*
X8764539Y-9461389D02*
X8755015Y-9423293D01*
X8755015Y-9423293D02*
X8755015Y-9375674D01*
X8755015Y-9375674D02*
X8764539Y-9337579D01*
X8764539Y-9337579D02*
X8774063Y-9318531D01*
X8774063Y-9318531D02*
X8783587Y-9309008D01*
X8783587Y-9309008D02*
X8802634Y-9299484D01*
X8955015Y-9480436D02*
X8964539Y-9489960D01*
X8964539Y-9489960D02*
X8955015Y-9499484D01*
X8955015Y-9499484D02*
X8945491Y-9489960D01*
X8945491Y-9489960D02*
X8955015Y-9480436D01*
X8955015Y-9480436D02*
X8955015Y-9499484D01*
X9088348Y-9299484D02*
X9107396Y-9299484D01*
X9107396Y-9299484D02*
X9126444Y-9309008D01*
X9126444Y-9309008D02*
X9135968Y-9318531D01*
X9135968Y-9318531D02*
X9145491Y-9337579D01*
X9145491Y-9337579D02*
X9155015Y-9375674D01*
X9155015Y-9375674D02*
X9155015Y-9423293D01*
X9155015Y-9423293D02*
X9145491Y-9461389D01*
X9145491Y-9461389D02*
X9135968Y-9480436D01*
X9135968Y-9480436D02*
X9126444Y-9489960D01*
X9126444Y-9489960D02*
X9107396Y-9499484D01*
X9107396Y-9499484D02*
X9088348Y-9499484D01*
X9088348Y-9499484D02*
X9069301Y-9489960D01*
X9069301Y-9489960D02*
X9059777Y-9480436D01*
X9059777Y-9480436D02*
X9050253Y-9461389D01*
X9050253Y-9461389D02*
X9040729Y-9423293D01*
X9040729Y-9423293D02*
X9040729Y-9375674D01*
X9040729Y-9375674D02*
X9050253Y-9337579D01*
X9050253Y-9337579D02*
X9059777Y-9318531D01*
X9059777Y-9318531D02*
X9069301Y-9309008D01*
X9069301Y-9309008D02*
X9088348Y-9299484D01*
X9231206Y-9318531D02*
X9240729Y-9309008D01*
X9240729Y-9309008D02*
X9259777Y-9299484D01*
X9259777Y-9299484D02*
X9307396Y-9299484D01*
X9307396Y-9299484D02*
X9326444Y-9309008D01*
X9326444Y-9309008D02*
X9335968Y-9318531D01*
X9335968Y-9318531D02*
X9345491Y-9337579D01*
X9345491Y-9337579D02*
X9345491Y-9356627D01*
X9345491Y-9356627D02*
X9335968Y-9385198D01*
X9335968Y-9385198D02*
X9221682Y-9499484D01*
X9221682Y-9499484D02*
X9345491Y-9499484D01*
X9412158Y-9299484D02*
X9535968Y-9299484D01*
X9535968Y-9299484D02*
X9469301Y-9375674D01*
X9469301Y-9375674D02*
X9497872Y-9375674D01*
X9497872Y-9375674D02*
X9516920Y-9385198D01*
X9516920Y-9385198D02*
X9526444Y-9394722D01*
X9526444Y-9394722D02*
X9535968Y-9413770D01*
X9535968Y-9413770D02*
X9535968Y-9461389D01*
X9535968Y-9461389D02*
X9526444Y-9480436D01*
X9526444Y-9480436D02*
X9516920Y-9489960D01*
X9516920Y-9489960D02*
X9497872Y-9499484D01*
X9497872Y-9499484D02*
X9440729Y-9499484D01*
X9440729Y-9499484D02*
X9421682Y-9489960D01*
X9421682Y-9489960D02*
X9412158Y-9480436D01*
X9707396Y-9299484D02*
X9669301Y-9299484D01*
X9669301Y-9299484D02*
X9650253Y-9309008D01*
X9650253Y-9309008D02*
X9640729Y-9318531D01*
X9640729Y-9318531D02*
X9621682Y-9347103D01*
X9621682Y-9347103D02*
X9612158Y-9385198D01*
X9612158Y-9385198D02*
X9612158Y-9461389D01*
X9612158Y-9461389D02*
X9621682Y-9480436D01*
X9621682Y-9480436D02*
X9631206Y-9489960D01*
X9631206Y-9489960D02*
X9650253Y-9499484D01*
X9650253Y-9499484D02*
X9688349Y-9499484D01*
X9688349Y-9499484D02*
X9707396Y-9489960D01*
X9707396Y-9489960D02*
X9716920Y-9480436D01*
X9716920Y-9480436D02*
X9726444Y-9461389D01*
X9726444Y-9461389D02*
X9726444Y-9413770D01*
X9726444Y-9413770D02*
X9716920Y-9394722D01*
X9716920Y-9394722D02*
X9707396Y-9385198D01*
X9707396Y-9385198D02*
X9688349Y-9375674D01*
X9688349Y-9375674D02*
X9650253Y-9375674D01*
X9650253Y-9375674D02*
X9631206Y-9385198D01*
X9631206Y-9385198D02*
X9621682Y-9394722D01*
X9621682Y-9394722D02*
X9612158Y-9413770D01*
X9802634Y-9299484D02*
X9802634Y-9337579D01*
X9878825Y-9299484D02*
X9878825Y-9337579D01*
X10174063Y-9575674D02*
X10164539Y-9566150D01*
X10164539Y-9566150D02*
X10145491Y-9537579D01*
X10145491Y-9537579D02*
X10135968Y-9518531D01*
X10135968Y-9518531D02*
X10126444Y-9489960D01*
X10126444Y-9489960D02*
X10116920Y-9442341D01*
X10116920Y-9442341D02*
X10116920Y-9404246D01*
X10116920Y-9404246D02*
X10126444Y-9356627D01*
X10126444Y-9356627D02*
X10135968Y-9328055D01*
X10135968Y-9328055D02*
X10145491Y-9309008D01*
X10145491Y-9309008D02*
X10164539Y-9280436D01*
X10164539Y-9280436D02*
X10174063Y-9270912D01*
X10345491Y-9299484D02*
X10250253Y-9299484D01*
X10250253Y-9299484D02*
X10240730Y-9394722D01*
X10240730Y-9394722D02*
X10250253Y-9385198D01*
X10250253Y-9385198D02*
X10269301Y-9375674D01*
X10269301Y-9375674D02*
X10316920Y-9375674D01*
X10316920Y-9375674D02*
X10335968Y-9385198D01*
X10335968Y-9385198D02*
X10345491Y-9394722D01*
X10345491Y-9394722D02*
X10355015Y-9413770D01*
X10355015Y-9413770D02*
X10355015Y-9461389D01*
X10355015Y-9461389D02*
X10345491Y-9480436D01*
X10345491Y-9480436D02*
X10335968Y-9489960D01*
X10335968Y-9489960D02*
X10316920Y-9499484D01*
X10316920Y-9499484D02*
X10269301Y-9499484D01*
X10269301Y-9499484D02*
X10250253Y-9489960D01*
X10250253Y-9489960D02*
X10240730Y-9480436D01*
X10593111Y-9499484D02*
X10593111Y-9299484D01*
X10678825Y-9499484D02*
X10678825Y-9394722D01*
X10678825Y-9394722D02*
X10669301Y-9375674D01*
X10669301Y-9375674D02*
X10650253Y-9366150D01*
X10650253Y-9366150D02*
X10621682Y-9366150D01*
X10621682Y-9366150D02*
X10602634Y-9375674D01*
X10602634Y-9375674D02*
X10593111Y-9385198D01*
X10802634Y-9499484D02*
X10783587Y-9489960D01*
X10783587Y-9489960D02*
X10774063Y-9480436D01*
X10774063Y-9480436D02*
X10764539Y-9461389D01*
X10764539Y-9461389D02*
X10764539Y-9404246D01*
X10764539Y-9404246D02*
X10774063Y-9385198D01*
X10774063Y-9385198D02*
X10783587Y-9375674D01*
X10783587Y-9375674D02*
X10802634Y-9366150D01*
X10802634Y-9366150D02*
X10831206Y-9366150D01*
X10831206Y-9366150D02*
X10850253Y-9375674D01*
X10850253Y-9375674D02*
X10859777Y-9385198D01*
X10859777Y-9385198D02*
X10869301Y-9404246D01*
X10869301Y-9404246D02*
X10869301Y-9461389D01*
X10869301Y-9461389D02*
X10859777Y-9480436D01*
X10859777Y-9480436D02*
X10850253Y-9489960D01*
X10850253Y-9489960D02*
X10831206Y-9499484D01*
X10831206Y-9499484D02*
X10802634Y-9499484D01*
X10983587Y-9499484D02*
X10964539Y-9489960D01*
X10964539Y-9489960D02*
X10955015Y-9470912D01*
X10955015Y-9470912D02*
X10955015Y-9299484D01*
X11135968Y-9489960D02*
X11116920Y-9499484D01*
X11116920Y-9499484D02*
X11078825Y-9499484D01*
X11078825Y-9499484D02*
X11059777Y-9489960D01*
X11059777Y-9489960D02*
X11050253Y-9470912D01*
X11050253Y-9470912D02*
X11050253Y-9394722D01*
X11050253Y-9394722D02*
X11059777Y-9375674D01*
X11059777Y-9375674D02*
X11078825Y-9366150D01*
X11078825Y-9366150D02*
X11116920Y-9366150D01*
X11116920Y-9366150D02*
X11135968Y-9375674D01*
X11135968Y-9375674D02*
X11145492Y-9394722D01*
X11145492Y-9394722D02*
X11145492Y-9413770D01*
X11145492Y-9413770D02*
X11050253Y-9432817D01*
X11221682Y-9489960D02*
X11240730Y-9499484D01*
X11240730Y-9499484D02*
X11278825Y-9499484D01*
X11278825Y-9499484D02*
X11297872Y-9489960D01*
X11297872Y-9489960D02*
X11307396Y-9470912D01*
X11307396Y-9470912D02*
X11307396Y-9461389D01*
X11307396Y-9461389D02*
X11297872Y-9442341D01*
X11297872Y-9442341D02*
X11278825Y-9432817D01*
X11278825Y-9432817D02*
X11250253Y-9432817D01*
X11250253Y-9432817D02*
X11231206Y-9423293D01*
X11231206Y-9423293D02*
X11221682Y-9404246D01*
X11221682Y-9404246D02*
X11221682Y-9394722D01*
X11221682Y-9394722D02*
X11231206Y-9375674D01*
X11231206Y-9375674D02*
X11250253Y-9366150D01*
X11250253Y-9366150D02*
X11278825Y-9366150D01*
X11278825Y-9366150D02*
X11297872Y-9375674D01*
X11374063Y-9575674D02*
X11383587Y-9566150D01*
X11383587Y-9566150D02*
X11402634Y-9537579D01*
X11402634Y-9537579D02*
X11412158Y-9518531D01*
X11412158Y-9518531D02*
X11421682Y-9489960D01*
X11421682Y-9489960D02*
X11431206Y-9442341D01*
X11431206Y-9442341D02*
X11431206Y-9404246D01*
X11431206Y-9404246D02*
X11421682Y-9356627D01*
X11421682Y-9356627D02*
X11412158Y-9328055D01*
X11412158Y-9328055D02*
X11402634Y-9309008D01*
X11402634Y-9309008D02*
X11383587Y-9280436D01*
X11383587Y-9280436D02*
X11374063Y-9270912D01*
X11735968Y-9575674D02*
X11726444Y-9566150D01*
X11726444Y-9566150D02*
X11707396Y-9537579D01*
X11707396Y-9537579D02*
X11697872Y-9518531D01*
X11697872Y-9518531D02*
X11688349Y-9489960D01*
X11688349Y-9489960D02*
X11678825Y-9442341D01*
X11678825Y-9442341D02*
X11678825Y-9404246D01*
X11678825Y-9404246D02*
X11688349Y-9356627D01*
X11688349Y-9356627D02*
X11697872Y-9328055D01*
X11697872Y-9328055D02*
X11707396Y-9309008D01*
X11707396Y-9309008D02*
X11726444Y-9280436D01*
X11726444Y-9280436D02*
X11735968Y-9270912D01*
X11812158Y-9366150D02*
X11812158Y-9499484D01*
X11812158Y-9385198D02*
X11821682Y-9375674D01*
X11821682Y-9375674D02*
X11840730Y-9366150D01*
X11840730Y-9366150D02*
X11869301Y-9366150D01*
X11869301Y-9366150D02*
X11888349Y-9375674D01*
X11888349Y-9375674D02*
X11897872Y-9394722D01*
X11897872Y-9394722D02*
X11897872Y-9499484D01*
X12021682Y-9499484D02*
X12002634Y-9489960D01*
X12002634Y-9489960D02*
X11993111Y-9480436D01*
X11993111Y-9480436D02*
X11983587Y-9461389D01*
X11983587Y-9461389D02*
X11983587Y-9404246D01*
X11983587Y-9404246D02*
X11993111Y-9385198D01*
X11993111Y-9385198D02*
X12002634Y-9375674D01*
X12002634Y-9375674D02*
X12021682Y-9366150D01*
X12021682Y-9366150D02*
X12050253Y-9366150D01*
X12050253Y-9366150D02*
X12069301Y-9375674D01*
X12069301Y-9375674D02*
X12078825Y-9385198D01*
X12078825Y-9385198D02*
X12088349Y-9404246D01*
X12088349Y-9404246D02*
X12088349Y-9461389D01*
X12088349Y-9461389D02*
X12078825Y-9480436D01*
X12078825Y-9480436D02*
X12069301Y-9489960D01*
X12069301Y-9489960D02*
X12050253Y-9499484D01*
X12050253Y-9499484D02*
X12021682Y-9499484D01*
X12145492Y-9366150D02*
X12221682Y-9366150D01*
X12174063Y-9299484D02*
X12174063Y-9470912D01*
X12174063Y-9470912D02*
X12183587Y-9489960D01*
X12183587Y-9489960D02*
X12202634Y-9499484D01*
X12202634Y-9499484D02*
X12221682Y-9499484D01*
X12440730Y-9366150D02*
X12440730Y-9566150D01*
X12440730Y-9375674D02*
X12459777Y-9366150D01*
X12459777Y-9366150D02*
X12497873Y-9366150D01*
X12497873Y-9366150D02*
X12516920Y-9375674D01*
X12516920Y-9375674D02*
X12526444Y-9385198D01*
X12526444Y-9385198D02*
X12535968Y-9404246D01*
X12535968Y-9404246D02*
X12535968Y-9461389D01*
X12535968Y-9461389D02*
X12526444Y-9480436D01*
X12526444Y-9480436D02*
X12516920Y-9489960D01*
X12516920Y-9489960D02*
X12497873Y-9499484D01*
X12497873Y-9499484D02*
X12459777Y-9499484D01*
X12459777Y-9499484D02*
X12440730Y-9489960D01*
X12650253Y-9499484D02*
X12631206Y-9489960D01*
X12631206Y-9489960D02*
X12621682Y-9470912D01*
X12621682Y-9470912D02*
X12621682Y-9299484D01*
X12812158Y-9499484D02*
X12812158Y-9394722D01*
X12812158Y-9394722D02*
X12802634Y-9375674D01*
X12802634Y-9375674D02*
X12783587Y-9366150D01*
X12783587Y-9366150D02*
X12745492Y-9366150D01*
X12745492Y-9366150D02*
X12726444Y-9375674D01*
X12812158Y-9489960D02*
X12793111Y-9499484D01*
X12793111Y-9499484D02*
X12745492Y-9499484D01*
X12745492Y-9499484D02*
X12726444Y-9489960D01*
X12726444Y-9489960D02*
X12716920Y-9470912D01*
X12716920Y-9470912D02*
X12716920Y-9451865D01*
X12716920Y-9451865D02*
X12726444Y-9432817D01*
X12726444Y-9432817D02*
X12745492Y-9423293D01*
X12745492Y-9423293D02*
X12793111Y-9423293D01*
X12793111Y-9423293D02*
X12812158Y-9413770D01*
X12878825Y-9366150D02*
X12955015Y-9366150D01*
X12907396Y-9299484D02*
X12907396Y-9470912D01*
X12907396Y-9470912D02*
X12916920Y-9489960D01*
X12916920Y-9489960D02*
X12935968Y-9499484D01*
X12935968Y-9499484D02*
X12955015Y-9499484D01*
X13097873Y-9489960D02*
X13078825Y-9499484D01*
X13078825Y-9499484D02*
X13040730Y-9499484D01*
X13040730Y-9499484D02*
X13021682Y-9489960D01*
X13021682Y-9489960D02*
X13012158Y-9470912D01*
X13012158Y-9470912D02*
X13012158Y-9394722D01*
X13012158Y-9394722D02*
X13021682Y-9375674D01*
X13021682Y-9375674D02*
X13040730Y-9366150D01*
X13040730Y-9366150D02*
X13078825Y-9366150D01*
X13078825Y-9366150D02*
X13097873Y-9375674D01*
X13097873Y-9375674D02*
X13107396Y-9394722D01*
X13107396Y-9394722D02*
X13107396Y-9413770D01*
X13107396Y-9413770D02*
X13012158Y-9432817D01*
X13278825Y-9499484D02*
X13278825Y-9299484D01*
X13278825Y-9489960D02*
X13259777Y-9499484D01*
X13259777Y-9499484D02*
X13221682Y-9499484D01*
X13221682Y-9499484D02*
X13202634Y-9489960D01*
X13202634Y-9489960D02*
X13193111Y-9480436D01*
X13193111Y-9480436D02*
X13183587Y-9461389D01*
X13183587Y-9461389D02*
X13183587Y-9404246D01*
X13183587Y-9404246D02*
X13193111Y-9385198D01*
X13193111Y-9385198D02*
X13202634Y-9375674D01*
X13202634Y-9375674D02*
X13221682Y-9366150D01*
X13221682Y-9366150D02*
X13259777Y-9366150D01*
X13259777Y-9366150D02*
X13278825Y-9375674D01*
X13355015Y-9575674D02*
X13364539Y-9566150D01*
X13364539Y-9566150D02*
X13383587Y-9537579D01*
X13383587Y-9537579D02*
X13393111Y-9518531D01*
X13393111Y-9518531D02*
X13402634Y-9489960D01*
X13402634Y-9489960D02*
X13412158Y-9442341D01*
X13412158Y-9442341D02*
X13412158Y-9404246D01*
X13412158Y-9404246D02*
X13402634Y-9356627D01*
X13402634Y-9356627D02*
X13393111Y-9328055D01*
X13393111Y-9328055D02*
X13383587Y-9309008D01*
X13383587Y-9309008D02*
X13364539Y-9280436D01*
X13364539Y-9280436D02*
X13355015Y-9270912D01*
M02*
