%TF.GenerationSoftware,KiCad,Pcbnew,7.0.9*%
%TF.CreationDate,2024-01-15T23:25:48+02:00*%
%TF.ProjectId,DRM_Watch_V3,44524d5f-5761-4746-9368-5f56332e6b69,rev?*%
%TF.SameCoordinates,Original*%
%TF.FileFunction,Legend,Bot*%
%TF.FilePolarity,Positive*%
%FSLAX46Y46*%
G04 Gerber Fmt 4.6, Leading zero omitted, Abs format (unit mm)*
G04 Created by KiCad (PCBNEW 7.0.9) date 2024-01-15 23:25:48*
%MOMM*%
%LPD*%
G01*
G04 APERTURE LIST*
%ADD10C,0.150000*%
%ADD11C,0.400000*%
%ADD12C,0.100000*%
%ADD13C,0.120000*%
G04 APERTURE END LIST*
D10*
X111550220Y-70481819D02*
X111550220Y-69481819D01*
X111550220Y-69481819D02*
X111216887Y-70196104D01*
X111216887Y-70196104D02*
X110883554Y-69481819D01*
X110883554Y-69481819D02*
X110883554Y-70481819D01*
X109978792Y-70481819D02*
X109978792Y-69958009D01*
X109978792Y-69958009D02*
X110026411Y-69862771D01*
X110026411Y-69862771D02*
X110121649Y-69815152D01*
X110121649Y-69815152D02*
X110312125Y-69815152D01*
X110312125Y-69815152D02*
X110407363Y-69862771D01*
X109978792Y-70434200D02*
X110074030Y-70481819D01*
X110074030Y-70481819D02*
X110312125Y-70481819D01*
X110312125Y-70481819D02*
X110407363Y-70434200D01*
X110407363Y-70434200D02*
X110454982Y-70338961D01*
X110454982Y-70338961D02*
X110454982Y-70243723D01*
X110454982Y-70243723D02*
X110407363Y-70148485D01*
X110407363Y-70148485D02*
X110312125Y-70100866D01*
X110312125Y-70100866D02*
X110074030Y-70100866D01*
X110074030Y-70100866D02*
X109978792Y-70053247D01*
X109074030Y-70481819D02*
X109074030Y-69481819D01*
X109074030Y-70434200D02*
X109169268Y-70481819D01*
X109169268Y-70481819D02*
X109359744Y-70481819D01*
X109359744Y-70481819D02*
X109454982Y-70434200D01*
X109454982Y-70434200D02*
X109502601Y-70386580D01*
X109502601Y-70386580D02*
X109550220Y-70291342D01*
X109550220Y-70291342D02*
X109550220Y-70005628D01*
X109550220Y-70005628D02*
X109502601Y-69910390D01*
X109502601Y-69910390D02*
X109454982Y-69862771D01*
X109454982Y-69862771D02*
X109359744Y-69815152D01*
X109359744Y-69815152D02*
X109169268Y-69815152D01*
X109169268Y-69815152D02*
X109074030Y-69862771D01*
X108216887Y-70434200D02*
X108312125Y-70481819D01*
X108312125Y-70481819D02*
X108502601Y-70481819D01*
X108502601Y-70481819D02*
X108597839Y-70434200D01*
X108597839Y-70434200D02*
X108645458Y-70338961D01*
X108645458Y-70338961D02*
X108645458Y-69958009D01*
X108645458Y-69958009D02*
X108597839Y-69862771D01*
X108597839Y-69862771D02*
X108502601Y-69815152D01*
X108502601Y-69815152D02*
X108312125Y-69815152D01*
X108312125Y-69815152D02*
X108216887Y-69862771D01*
X108216887Y-69862771D02*
X108169268Y-69958009D01*
X108169268Y-69958009D02*
X108169268Y-70053247D01*
X108169268Y-70053247D02*
X108645458Y-70148485D01*
X106978791Y-70481819D02*
X106978791Y-69815152D01*
X106978791Y-69481819D02*
X107026410Y-69529438D01*
X107026410Y-69529438D02*
X106978791Y-69577057D01*
X106978791Y-69577057D02*
X106931172Y-69529438D01*
X106931172Y-69529438D02*
X106978791Y-69481819D01*
X106978791Y-69481819D02*
X106978791Y-69577057D01*
X106502601Y-69815152D02*
X106502601Y-70481819D01*
X106502601Y-69910390D02*
X106454982Y-69862771D01*
X106454982Y-69862771D02*
X106359744Y-69815152D01*
X106359744Y-69815152D02*
X106216887Y-69815152D01*
X106216887Y-69815152D02*
X106121649Y-69862771D01*
X106121649Y-69862771D02*
X106074030Y-69958009D01*
X106074030Y-69958009D02*
X106074030Y-70481819D01*
X104835934Y-69481819D02*
X104835934Y-70291342D01*
X104835934Y-70291342D02*
X104788315Y-70386580D01*
X104788315Y-70386580D02*
X104740696Y-70434200D01*
X104740696Y-70434200D02*
X104645458Y-70481819D01*
X104645458Y-70481819D02*
X104454982Y-70481819D01*
X104454982Y-70481819D02*
X104359744Y-70434200D01*
X104359744Y-70434200D02*
X104312125Y-70386580D01*
X104312125Y-70386580D02*
X104264506Y-70291342D01*
X104264506Y-70291342D02*
X104264506Y-69481819D01*
X103788315Y-70481819D02*
X103788315Y-69481819D01*
X103693077Y-70100866D02*
X103407363Y-70481819D01*
X103407363Y-69815152D02*
X103788315Y-70196104D01*
X102978791Y-70481819D02*
X102978791Y-69815152D01*
X102978791Y-70005628D02*
X102931172Y-69910390D01*
X102931172Y-69910390D02*
X102883553Y-69862771D01*
X102883553Y-69862771D02*
X102788315Y-69815152D01*
X102788315Y-69815152D02*
X102693077Y-69815152D01*
X101931172Y-70481819D02*
X101931172Y-69958009D01*
X101931172Y-69958009D02*
X101978791Y-69862771D01*
X101978791Y-69862771D02*
X102074029Y-69815152D01*
X102074029Y-69815152D02*
X102264505Y-69815152D01*
X102264505Y-69815152D02*
X102359743Y-69862771D01*
X101931172Y-70434200D02*
X102026410Y-70481819D01*
X102026410Y-70481819D02*
X102264505Y-70481819D01*
X102264505Y-70481819D02*
X102359743Y-70434200D01*
X102359743Y-70434200D02*
X102407362Y-70338961D01*
X102407362Y-70338961D02*
X102407362Y-70243723D01*
X102407362Y-70243723D02*
X102359743Y-70148485D01*
X102359743Y-70148485D02*
X102264505Y-70100866D01*
X102264505Y-70100866D02*
X102026410Y-70100866D01*
X102026410Y-70100866D02*
X101931172Y-70053247D01*
X101454981Y-70481819D02*
X101454981Y-69815152D01*
X101454981Y-69481819D02*
X101502600Y-69529438D01*
X101502600Y-69529438D02*
X101454981Y-69577057D01*
X101454981Y-69577057D02*
X101407362Y-69529438D01*
X101407362Y-69529438D02*
X101454981Y-69481819D01*
X101454981Y-69481819D02*
X101454981Y-69577057D01*
X100978791Y-69815152D02*
X100978791Y-70481819D01*
X100978791Y-69910390D02*
X100931172Y-69862771D01*
X100931172Y-69862771D02*
X100835934Y-69815152D01*
X100835934Y-69815152D02*
X100693077Y-69815152D01*
X100693077Y-69815152D02*
X100597839Y-69862771D01*
X100597839Y-69862771D02*
X100550220Y-69958009D01*
X100550220Y-69958009D02*
X100550220Y-70481819D01*
X99693077Y-70434200D02*
X99788315Y-70481819D01*
X99788315Y-70481819D02*
X99978791Y-70481819D01*
X99978791Y-70481819D02*
X100074029Y-70434200D01*
X100074029Y-70434200D02*
X100121648Y-70338961D01*
X100121648Y-70338961D02*
X100121648Y-69958009D01*
X100121648Y-69958009D02*
X100074029Y-69862771D01*
X100074029Y-69862771D02*
X99978791Y-69815152D01*
X99978791Y-69815152D02*
X99788315Y-69815152D01*
X99788315Y-69815152D02*
X99693077Y-69862771D01*
X99693077Y-69862771D02*
X99645458Y-69958009D01*
X99645458Y-69958009D02*
X99645458Y-70053247D01*
X99645458Y-70053247D02*
X100121648Y-70148485D01*
X111296220Y-68703819D02*
X111296220Y-67703819D01*
X111296220Y-67703819D02*
X111058125Y-67703819D01*
X111058125Y-67703819D02*
X110915268Y-67751438D01*
X110915268Y-67751438D02*
X110820030Y-67846676D01*
X110820030Y-67846676D02*
X110772411Y-67941914D01*
X110772411Y-67941914D02*
X110724792Y-68132390D01*
X110724792Y-68132390D02*
X110724792Y-68275247D01*
X110724792Y-68275247D02*
X110772411Y-68465723D01*
X110772411Y-68465723D02*
X110820030Y-68560961D01*
X110820030Y-68560961D02*
X110915268Y-68656200D01*
X110915268Y-68656200D02*
X111058125Y-68703819D01*
X111058125Y-68703819D02*
X111296220Y-68703819D01*
X109915268Y-68656200D02*
X110010506Y-68703819D01*
X110010506Y-68703819D02*
X110200982Y-68703819D01*
X110200982Y-68703819D02*
X110296220Y-68656200D01*
X110296220Y-68656200D02*
X110343839Y-68560961D01*
X110343839Y-68560961D02*
X110343839Y-68180009D01*
X110343839Y-68180009D02*
X110296220Y-68084771D01*
X110296220Y-68084771D02*
X110200982Y-68037152D01*
X110200982Y-68037152D02*
X110010506Y-68037152D01*
X110010506Y-68037152D02*
X109915268Y-68084771D01*
X109915268Y-68084771D02*
X109867649Y-68180009D01*
X109867649Y-68180009D02*
X109867649Y-68275247D01*
X109867649Y-68275247D02*
X110343839Y-68370485D01*
X109486696Y-68656200D02*
X109391458Y-68703819D01*
X109391458Y-68703819D02*
X109200982Y-68703819D01*
X109200982Y-68703819D02*
X109105744Y-68656200D01*
X109105744Y-68656200D02*
X109058125Y-68560961D01*
X109058125Y-68560961D02*
X109058125Y-68513342D01*
X109058125Y-68513342D02*
X109105744Y-68418104D01*
X109105744Y-68418104D02*
X109200982Y-68370485D01*
X109200982Y-68370485D02*
X109343839Y-68370485D01*
X109343839Y-68370485D02*
X109439077Y-68322866D01*
X109439077Y-68322866D02*
X109486696Y-68227628D01*
X109486696Y-68227628D02*
X109486696Y-68180009D01*
X109486696Y-68180009D02*
X109439077Y-68084771D01*
X109439077Y-68084771D02*
X109343839Y-68037152D01*
X109343839Y-68037152D02*
X109200982Y-68037152D01*
X109200982Y-68037152D02*
X109105744Y-68084771D01*
X108629553Y-68703819D02*
X108629553Y-68037152D01*
X108629553Y-67703819D02*
X108677172Y-67751438D01*
X108677172Y-67751438D02*
X108629553Y-67799057D01*
X108629553Y-67799057D02*
X108581934Y-67751438D01*
X108581934Y-67751438D02*
X108629553Y-67703819D01*
X108629553Y-67703819D02*
X108629553Y-67799057D01*
X107724792Y-68037152D02*
X107724792Y-68846676D01*
X107724792Y-68846676D02*
X107772411Y-68941914D01*
X107772411Y-68941914D02*
X107820030Y-68989533D01*
X107820030Y-68989533D02*
X107915268Y-69037152D01*
X107915268Y-69037152D02*
X108058125Y-69037152D01*
X108058125Y-69037152D02*
X108153363Y-68989533D01*
X107724792Y-68656200D02*
X107820030Y-68703819D01*
X107820030Y-68703819D02*
X108010506Y-68703819D01*
X108010506Y-68703819D02*
X108105744Y-68656200D01*
X108105744Y-68656200D02*
X108153363Y-68608580D01*
X108153363Y-68608580D02*
X108200982Y-68513342D01*
X108200982Y-68513342D02*
X108200982Y-68227628D01*
X108200982Y-68227628D02*
X108153363Y-68132390D01*
X108153363Y-68132390D02*
X108105744Y-68084771D01*
X108105744Y-68084771D02*
X108010506Y-68037152D01*
X108010506Y-68037152D02*
X107820030Y-68037152D01*
X107820030Y-68037152D02*
X107724792Y-68084771D01*
X107248601Y-68037152D02*
X107248601Y-68703819D01*
X107248601Y-68132390D02*
X107200982Y-68084771D01*
X107200982Y-68084771D02*
X107105744Y-68037152D01*
X107105744Y-68037152D02*
X106962887Y-68037152D01*
X106962887Y-68037152D02*
X106867649Y-68084771D01*
X106867649Y-68084771D02*
X106820030Y-68180009D01*
X106820030Y-68180009D02*
X106820030Y-68703819D01*
X105962887Y-68656200D02*
X106058125Y-68703819D01*
X106058125Y-68703819D02*
X106248601Y-68703819D01*
X106248601Y-68703819D02*
X106343839Y-68656200D01*
X106343839Y-68656200D02*
X106391458Y-68560961D01*
X106391458Y-68560961D02*
X106391458Y-68180009D01*
X106391458Y-68180009D02*
X106343839Y-68084771D01*
X106343839Y-68084771D02*
X106248601Y-68037152D01*
X106248601Y-68037152D02*
X106058125Y-68037152D01*
X106058125Y-68037152D02*
X105962887Y-68084771D01*
X105962887Y-68084771D02*
X105915268Y-68180009D01*
X105915268Y-68180009D02*
X105915268Y-68275247D01*
X105915268Y-68275247D02*
X106391458Y-68370485D01*
X105058125Y-68703819D02*
X105058125Y-67703819D01*
X105058125Y-68656200D02*
X105153363Y-68703819D01*
X105153363Y-68703819D02*
X105343839Y-68703819D01*
X105343839Y-68703819D02*
X105439077Y-68656200D01*
X105439077Y-68656200D02*
X105486696Y-68608580D01*
X105486696Y-68608580D02*
X105534315Y-68513342D01*
X105534315Y-68513342D02*
X105534315Y-68227628D01*
X105534315Y-68227628D02*
X105486696Y-68132390D01*
X105486696Y-68132390D02*
X105439077Y-68084771D01*
X105439077Y-68084771D02*
X105343839Y-68037152D01*
X105343839Y-68037152D02*
X105153363Y-68037152D01*
X105153363Y-68037152D02*
X105058125Y-68084771D01*
X103820029Y-68703819D02*
X103820029Y-67703819D01*
X103820029Y-68084771D02*
X103724791Y-68037152D01*
X103724791Y-68037152D02*
X103534315Y-68037152D01*
X103534315Y-68037152D02*
X103439077Y-68084771D01*
X103439077Y-68084771D02*
X103391458Y-68132390D01*
X103391458Y-68132390D02*
X103343839Y-68227628D01*
X103343839Y-68227628D02*
X103343839Y-68513342D01*
X103343839Y-68513342D02*
X103391458Y-68608580D01*
X103391458Y-68608580D02*
X103439077Y-68656200D01*
X103439077Y-68656200D02*
X103534315Y-68703819D01*
X103534315Y-68703819D02*
X103724791Y-68703819D01*
X103724791Y-68703819D02*
X103820029Y-68656200D01*
X103010505Y-68037152D02*
X102772410Y-68703819D01*
X102534315Y-68037152D02*
X102772410Y-68703819D01*
X102772410Y-68703819D02*
X102867648Y-68941914D01*
X102867648Y-68941914D02*
X102915267Y-68989533D01*
X102915267Y-68989533D02*
X103010505Y-69037152D01*
X101391457Y-68703819D02*
X101391457Y-67703819D01*
X101391457Y-67703819D02*
X101153362Y-67703819D01*
X101153362Y-67703819D02*
X101010505Y-67751438D01*
X101010505Y-67751438D02*
X100915267Y-67846676D01*
X100915267Y-67846676D02*
X100867648Y-67941914D01*
X100867648Y-67941914D02*
X100820029Y-68132390D01*
X100820029Y-68132390D02*
X100820029Y-68275247D01*
X100820029Y-68275247D02*
X100867648Y-68465723D01*
X100867648Y-68465723D02*
X100915267Y-68560961D01*
X100915267Y-68560961D02*
X101010505Y-68656200D01*
X101010505Y-68656200D02*
X101153362Y-68703819D01*
X101153362Y-68703819D02*
X101391457Y-68703819D01*
X100391457Y-68703819D02*
X100391457Y-68037152D01*
X100391457Y-68227628D02*
X100343838Y-68132390D01*
X100343838Y-68132390D02*
X100296219Y-68084771D01*
X100296219Y-68084771D02*
X100200981Y-68037152D01*
X100200981Y-68037152D02*
X100105743Y-68037152D01*
X99772409Y-68608580D02*
X99724790Y-68656200D01*
X99724790Y-68656200D02*
X99772409Y-68703819D01*
X99772409Y-68703819D02*
X99820028Y-68656200D01*
X99820028Y-68656200D02*
X99772409Y-68608580D01*
X99772409Y-68608580D02*
X99772409Y-68703819D01*
X98962886Y-68180009D02*
X99296219Y-68180009D01*
X99296219Y-68703819D02*
X99296219Y-67703819D01*
X99296219Y-67703819D02*
X98820029Y-67703819D01*
X98010505Y-68703819D02*
X98010505Y-68180009D01*
X98010505Y-68180009D02*
X98058124Y-68084771D01*
X98058124Y-68084771D02*
X98153362Y-68037152D01*
X98153362Y-68037152D02*
X98343838Y-68037152D01*
X98343838Y-68037152D02*
X98439076Y-68084771D01*
X98010505Y-68656200D02*
X98105743Y-68703819D01*
X98105743Y-68703819D02*
X98343838Y-68703819D01*
X98343838Y-68703819D02*
X98439076Y-68656200D01*
X98439076Y-68656200D02*
X98486695Y-68560961D01*
X98486695Y-68560961D02*
X98486695Y-68465723D01*
X98486695Y-68465723D02*
X98439076Y-68370485D01*
X98439076Y-68370485D02*
X98343838Y-68322866D01*
X98343838Y-68322866D02*
X98105743Y-68322866D01*
X98105743Y-68322866D02*
X98010505Y-68275247D01*
X97534314Y-68703819D02*
X97534314Y-68037152D01*
X97534314Y-67703819D02*
X97581933Y-67751438D01*
X97581933Y-67751438D02*
X97534314Y-67799057D01*
X97534314Y-67799057D02*
X97486695Y-67751438D01*
X97486695Y-67751438D02*
X97534314Y-67703819D01*
X97534314Y-67703819D02*
X97534314Y-67799057D01*
X96915267Y-68703819D02*
X97010505Y-68656200D01*
X97010505Y-68656200D02*
X97058124Y-68560961D01*
X97058124Y-68560961D02*
X97058124Y-67703819D01*
X96391457Y-68703819D02*
X96486695Y-68656200D01*
X96486695Y-68656200D02*
X96534314Y-68608580D01*
X96534314Y-68608580D02*
X96581933Y-68513342D01*
X96581933Y-68513342D02*
X96581933Y-68227628D01*
X96581933Y-68227628D02*
X96534314Y-68132390D01*
X96534314Y-68132390D02*
X96486695Y-68084771D01*
X96486695Y-68084771D02*
X96391457Y-68037152D01*
X96391457Y-68037152D02*
X96248600Y-68037152D01*
X96248600Y-68037152D02*
X96153362Y-68084771D01*
X96153362Y-68084771D02*
X96105743Y-68132390D01*
X96105743Y-68132390D02*
X96058124Y-68227628D01*
X96058124Y-68227628D02*
X96058124Y-68513342D01*
X96058124Y-68513342D02*
X96105743Y-68608580D01*
X96105743Y-68608580D02*
X96153362Y-68656200D01*
X96153362Y-68656200D02*
X96248600Y-68703819D01*
X96248600Y-68703819D02*
X96391457Y-68703819D01*
X95724790Y-68037152D02*
X95486695Y-68703819D01*
X95486695Y-68703819D02*
X95248600Y-68037152D01*
D11*
X111671557Y-62350057D02*
X111671557Y-59350057D01*
X111671557Y-59350057D02*
X110957271Y-59350057D01*
X110957271Y-59350057D02*
X110528700Y-59492914D01*
X110528700Y-59492914D02*
X110242985Y-59778628D01*
X110242985Y-59778628D02*
X110100128Y-60064342D01*
X110100128Y-60064342D02*
X109957271Y-60635771D01*
X109957271Y-60635771D02*
X109957271Y-61064342D01*
X109957271Y-61064342D02*
X110100128Y-61635771D01*
X110100128Y-61635771D02*
X110242985Y-61921485D01*
X110242985Y-61921485D02*
X110528700Y-62207200D01*
X110528700Y-62207200D02*
X110957271Y-62350057D01*
X110957271Y-62350057D02*
X111671557Y-62350057D01*
X106957271Y-62350057D02*
X107957271Y-60921485D01*
X108671557Y-62350057D02*
X108671557Y-59350057D01*
X108671557Y-59350057D02*
X107528700Y-59350057D01*
X107528700Y-59350057D02*
X107242985Y-59492914D01*
X107242985Y-59492914D02*
X107100128Y-59635771D01*
X107100128Y-59635771D02*
X106957271Y-59921485D01*
X106957271Y-59921485D02*
X106957271Y-60350057D01*
X106957271Y-60350057D02*
X107100128Y-60635771D01*
X107100128Y-60635771D02*
X107242985Y-60778628D01*
X107242985Y-60778628D02*
X107528700Y-60921485D01*
X107528700Y-60921485D02*
X108671557Y-60921485D01*
X105671557Y-62350057D02*
X105671557Y-59350057D01*
X105671557Y-59350057D02*
X104671557Y-61492914D01*
X104671557Y-61492914D02*
X103671557Y-59350057D01*
X103671557Y-59350057D02*
X103671557Y-62350057D01*
X100242986Y-59350057D02*
X99528700Y-62350057D01*
X99528700Y-62350057D02*
X98957272Y-60207200D01*
X98957272Y-60207200D02*
X98385843Y-62350057D01*
X98385843Y-62350057D02*
X97671558Y-59350057D01*
X95242987Y-62350057D02*
X95242987Y-60778628D01*
X95242987Y-60778628D02*
X95385844Y-60492914D01*
X95385844Y-60492914D02*
X95671558Y-60350057D01*
X95671558Y-60350057D02*
X96242987Y-60350057D01*
X96242987Y-60350057D02*
X96528701Y-60492914D01*
X95242987Y-62207200D02*
X95528701Y-62350057D01*
X95528701Y-62350057D02*
X96242987Y-62350057D01*
X96242987Y-62350057D02*
X96528701Y-62207200D01*
X96528701Y-62207200D02*
X96671558Y-61921485D01*
X96671558Y-61921485D02*
X96671558Y-61635771D01*
X96671558Y-61635771D02*
X96528701Y-61350057D01*
X96528701Y-61350057D02*
X96242987Y-61207200D01*
X96242987Y-61207200D02*
X95528701Y-61207200D01*
X95528701Y-61207200D02*
X95242987Y-61064342D01*
X94242986Y-60350057D02*
X93100129Y-60350057D01*
X93814415Y-59350057D02*
X93814415Y-61921485D01*
X93814415Y-61921485D02*
X93671558Y-62207200D01*
X93671558Y-62207200D02*
X93385843Y-62350057D01*
X93385843Y-62350057D02*
X93100129Y-62350057D01*
X90814415Y-62207200D02*
X91100129Y-62350057D01*
X91100129Y-62350057D02*
X91671557Y-62350057D01*
X91671557Y-62350057D02*
X91957272Y-62207200D01*
X91957272Y-62207200D02*
X92100129Y-62064342D01*
X92100129Y-62064342D02*
X92242986Y-61778628D01*
X92242986Y-61778628D02*
X92242986Y-60921485D01*
X92242986Y-60921485D02*
X92100129Y-60635771D01*
X92100129Y-60635771D02*
X91957272Y-60492914D01*
X91957272Y-60492914D02*
X91671557Y-60350057D01*
X91671557Y-60350057D02*
X91100129Y-60350057D01*
X91100129Y-60350057D02*
X90814415Y-60492914D01*
X89528700Y-62350057D02*
X89528700Y-59350057D01*
X88242986Y-62350057D02*
X88242986Y-60778628D01*
X88242986Y-60778628D02*
X88385843Y-60492914D01*
X88385843Y-60492914D02*
X88671557Y-60350057D01*
X88671557Y-60350057D02*
X89100128Y-60350057D01*
X89100128Y-60350057D02*
X89385843Y-60492914D01*
X89385843Y-60492914D02*
X89528700Y-60635771D01*
X84957271Y-59350057D02*
X83957271Y-62350057D01*
X83957271Y-62350057D02*
X82957271Y-59350057D01*
X82242985Y-59350057D02*
X80385842Y-59350057D01*
X80385842Y-59350057D02*
X81385842Y-60492914D01*
X81385842Y-60492914D02*
X80957271Y-60492914D01*
X80957271Y-60492914D02*
X80671557Y-60635771D01*
X80671557Y-60635771D02*
X80528699Y-60778628D01*
X80528699Y-60778628D02*
X80385842Y-61064342D01*
X80385842Y-61064342D02*
X80385842Y-61778628D01*
X80385842Y-61778628D02*
X80528699Y-62064342D01*
X80528699Y-62064342D02*
X80671557Y-62207200D01*
X80671557Y-62207200D02*
X80957271Y-62350057D01*
X80957271Y-62350057D02*
X81814414Y-62350057D01*
X81814414Y-62350057D02*
X82100128Y-62207200D01*
X82100128Y-62207200D02*
X82242985Y-62064342D01*
D10*
X110724792Y-64893819D02*
X111058125Y-64417628D01*
X111296220Y-64893819D02*
X111296220Y-63893819D01*
X111296220Y-63893819D02*
X110915268Y-63893819D01*
X110915268Y-63893819D02*
X110820030Y-63941438D01*
X110820030Y-63941438D02*
X110772411Y-63989057D01*
X110772411Y-63989057D02*
X110724792Y-64084295D01*
X110724792Y-64084295D02*
X110724792Y-64227152D01*
X110724792Y-64227152D02*
X110772411Y-64322390D01*
X110772411Y-64322390D02*
X110820030Y-64370009D01*
X110820030Y-64370009D02*
X110915268Y-64417628D01*
X110915268Y-64417628D02*
X111296220Y-64417628D01*
X109915268Y-64846200D02*
X110010506Y-64893819D01*
X110010506Y-64893819D02*
X110200982Y-64893819D01*
X110200982Y-64893819D02*
X110296220Y-64846200D01*
X110296220Y-64846200D02*
X110343839Y-64750961D01*
X110343839Y-64750961D02*
X110343839Y-64370009D01*
X110343839Y-64370009D02*
X110296220Y-64274771D01*
X110296220Y-64274771D02*
X110200982Y-64227152D01*
X110200982Y-64227152D02*
X110010506Y-64227152D01*
X110010506Y-64227152D02*
X109915268Y-64274771D01*
X109915268Y-64274771D02*
X109867649Y-64370009D01*
X109867649Y-64370009D02*
X109867649Y-64465247D01*
X109867649Y-64465247D02*
X110343839Y-64560485D01*
X109534315Y-64227152D02*
X109296220Y-64893819D01*
X109296220Y-64893819D02*
X109058125Y-64227152D01*
X108677172Y-64798580D02*
X108629553Y-64846200D01*
X108629553Y-64846200D02*
X108677172Y-64893819D01*
X108677172Y-64893819D02*
X108724791Y-64846200D01*
X108724791Y-64846200D02*
X108677172Y-64798580D01*
X108677172Y-64798580D02*
X108677172Y-64893819D01*
X108248601Y-63989057D02*
X108200982Y-63941438D01*
X108200982Y-63941438D02*
X108105744Y-63893819D01*
X108105744Y-63893819D02*
X107867649Y-63893819D01*
X107867649Y-63893819D02*
X107772411Y-63941438D01*
X107772411Y-63941438D02*
X107724792Y-63989057D01*
X107724792Y-63989057D02*
X107677173Y-64084295D01*
X107677173Y-64084295D02*
X107677173Y-64179533D01*
X107677173Y-64179533D02*
X107724792Y-64322390D01*
X107724792Y-64322390D02*
X108296220Y-64893819D01*
X108296220Y-64893819D02*
X107677173Y-64893819D01*
X106200982Y-65274771D02*
X106248601Y-65227152D01*
X106248601Y-65227152D02*
X106343839Y-65084295D01*
X106343839Y-65084295D02*
X106391458Y-64989057D01*
X106391458Y-64989057D02*
X106439077Y-64846200D01*
X106439077Y-64846200D02*
X106486696Y-64608104D01*
X106486696Y-64608104D02*
X106486696Y-64417628D01*
X106486696Y-64417628D02*
X106439077Y-64179533D01*
X106439077Y-64179533D02*
X106391458Y-64036676D01*
X106391458Y-64036676D02*
X106343839Y-63941438D01*
X106343839Y-63941438D02*
X106248601Y-63798580D01*
X106248601Y-63798580D02*
X106200982Y-63750961D01*
X105867648Y-63989057D02*
X105820029Y-63941438D01*
X105820029Y-63941438D02*
X105724791Y-63893819D01*
X105724791Y-63893819D02*
X105486696Y-63893819D01*
X105486696Y-63893819D02*
X105391458Y-63941438D01*
X105391458Y-63941438D02*
X105343839Y-63989057D01*
X105343839Y-63989057D02*
X105296220Y-64084295D01*
X105296220Y-64084295D02*
X105296220Y-64179533D01*
X105296220Y-64179533D02*
X105343839Y-64322390D01*
X105343839Y-64322390D02*
X105915267Y-64893819D01*
X105915267Y-64893819D02*
X105296220Y-64893819D01*
X104677172Y-63893819D02*
X104581934Y-63893819D01*
X104581934Y-63893819D02*
X104486696Y-63941438D01*
X104486696Y-63941438D02*
X104439077Y-63989057D01*
X104439077Y-63989057D02*
X104391458Y-64084295D01*
X104391458Y-64084295D02*
X104343839Y-64274771D01*
X104343839Y-64274771D02*
X104343839Y-64512866D01*
X104343839Y-64512866D02*
X104391458Y-64703342D01*
X104391458Y-64703342D02*
X104439077Y-64798580D01*
X104439077Y-64798580D02*
X104486696Y-64846200D01*
X104486696Y-64846200D02*
X104581934Y-64893819D01*
X104581934Y-64893819D02*
X104677172Y-64893819D01*
X104677172Y-64893819D02*
X104772410Y-64846200D01*
X104772410Y-64846200D02*
X104820029Y-64798580D01*
X104820029Y-64798580D02*
X104867648Y-64703342D01*
X104867648Y-64703342D02*
X104915267Y-64512866D01*
X104915267Y-64512866D02*
X104915267Y-64274771D01*
X104915267Y-64274771D02*
X104867648Y-64084295D01*
X104867648Y-64084295D02*
X104820029Y-63989057D01*
X104820029Y-63989057D02*
X104772410Y-63941438D01*
X104772410Y-63941438D02*
X104677172Y-63893819D01*
X103962886Y-63989057D02*
X103915267Y-63941438D01*
X103915267Y-63941438D02*
X103820029Y-63893819D01*
X103820029Y-63893819D02*
X103581934Y-63893819D01*
X103581934Y-63893819D02*
X103486696Y-63941438D01*
X103486696Y-63941438D02*
X103439077Y-63989057D01*
X103439077Y-63989057D02*
X103391458Y-64084295D01*
X103391458Y-64084295D02*
X103391458Y-64179533D01*
X103391458Y-64179533D02*
X103439077Y-64322390D01*
X103439077Y-64322390D02*
X104010505Y-64893819D01*
X104010505Y-64893819D02*
X103391458Y-64893819D01*
X102534315Y-64227152D02*
X102534315Y-64893819D01*
X102772410Y-63846200D02*
X103010505Y-64560485D01*
X103010505Y-64560485D02*
X102391458Y-64560485D01*
X102010505Y-64512866D02*
X101248601Y-64512866D01*
X100581934Y-63893819D02*
X100486696Y-63893819D01*
X100486696Y-63893819D02*
X100391458Y-63941438D01*
X100391458Y-63941438D02*
X100343839Y-63989057D01*
X100343839Y-63989057D02*
X100296220Y-64084295D01*
X100296220Y-64084295D02*
X100248601Y-64274771D01*
X100248601Y-64274771D02*
X100248601Y-64512866D01*
X100248601Y-64512866D02*
X100296220Y-64703342D01*
X100296220Y-64703342D02*
X100343839Y-64798580D01*
X100343839Y-64798580D02*
X100391458Y-64846200D01*
X100391458Y-64846200D02*
X100486696Y-64893819D01*
X100486696Y-64893819D02*
X100581934Y-64893819D01*
X100581934Y-64893819D02*
X100677172Y-64846200D01*
X100677172Y-64846200D02*
X100724791Y-64798580D01*
X100724791Y-64798580D02*
X100772410Y-64703342D01*
X100772410Y-64703342D02*
X100820029Y-64512866D01*
X100820029Y-64512866D02*
X100820029Y-64274771D01*
X100820029Y-64274771D02*
X100772410Y-64084295D01*
X100772410Y-64084295D02*
X100724791Y-63989057D01*
X100724791Y-63989057D02*
X100677172Y-63941438D01*
X100677172Y-63941438D02*
X100581934Y-63893819D01*
X99296220Y-64893819D02*
X99867648Y-64893819D01*
X99581934Y-64893819D02*
X99581934Y-63893819D01*
X99581934Y-63893819D02*
X99677172Y-64036676D01*
X99677172Y-64036676D02*
X99772410Y-64131914D01*
X99772410Y-64131914D02*
X99867648Y-64179533D01*
X98867648Y-64512866D02*
X98105744Y-64512866D01*
X97105744Y-64893819D02*
X97677172Y-64893819D01*
X97391458Y-64893819D02*
X97391458Y-63893819D01*
X97391458Y-63893819D02*
X97486696Y-64036676D01*
X97486696Y-64036676D02*
X97581934Y-64131914D01*
X97581934Y-64131914D02*
X97677172Y-64179533D01*
X96200982Y-63893819D02*
X96677172Y-63893819D01*
X96677172Y-63893819D02*
X96724791Y-64370009D01*
X96724791Y-64370009D02*
X96677172Y-64322390D01*
X96677172Y-64322390D02*
X96581934Y-64274771D01*
X96581934Y-64274771D02*
X96343839Y-64274771D01*
X96343839Y-64274771D02*
X96248601Y-64322390D01*
X96248601Y-64322390D02*
X96200982Y-64370009D01*
X96200982Y-64370009D02*
X96153363Y-64465247D01*
X96153363Y-64465247D02*
X96153363Y-64703342D01*
X96153363Y-64703342D02*
X96200982Y-64798580D01*
X96200982Y-64798580D02*
X96248601Y-64846200D01*
X96248601Y-64846200D02*
X96343839Y-64893819D01*
X96343839Y-64893819D02*
X96581934Y-64893819D01*
X96581934Y-64893819D02*
X96677172Y-64846200D01*
X96677172Y-64846200D02*
X96724791Y-64798580D01*
X95820029Y-65274771D02*
X95772410Y-65227152D01*
X95772410Y-65227152D02*
X95677172Y-65084295D01*
X95677172Y-65084295D02*
X95629553Y-64989057D01*
X95629553Y-64989057D02*
X95581934Y-64846200D01*
X95581934Y-64846200D02*
X95534315Y-64608104D01*
X95534315Y-64608104D02*
X95534315Y-64417628D01*
X95534315Y-64417628D02*
X95581934Y-64179533D01*
X95581934Y-64179533D02*
X95629553Y-64036676D01*
X95629553Y-64036676D02*
X95677172Y-63941438D01*
X95677172Y-63941438D02*
X95772410Y-63798580D01*
X95772410Y-63798580D02*
X95820029Y-63750961D01*
D12*
X126350068Y-86559847D02*
X126235782Y-86597942D01*
X126235782Y-86597942D02*
X126197687Y-86636038D01*
X126197687Y-86636038D02*
X126159591Y-86712228D01*
X126159591Y-86712228D02*
X126159591Y-86826514D01*
X126159591Y-86826514D02*
X126197687Y-86902704D01*
X126197687Y-86902704D02*
X126235782Y-86940800D01*
X126235782Y-86940800D02*
X126311972Y-86978895D01*
X126311972Y-86978895D02*
X126616734Y-86978895D01*
X126616734Y-86978895D02*
X126616734Y-86178895D01*
X126616734Y-86178895D02*
X126350068Y-86178895D01*
X126350068Y-86178895D02*
X126273877Y-86216990D01*
X126273877Y-86216990D02*
X126235782Y-86255085D01*
X126235782Y-86255085D02*
X126197687Y-86331276D01*
X126197687Y-86331276D02*
X126197687Y-86407466D01*
X126197687Y-86407466D02*
X126235782Y-86483657D01*
X126235782Y-86483657D02*
X126273877Y-86521752D01*
X126273877Y-86521752D02*
X126350068Y-86559847D01*
X126350068Y-86559847D02*
X126616734Y-86559847D01*
X125435782Y-86978895D02*
X125816734Y-86978895D01*
X125816734Y-86978895D02*
X125816734Y-86178895D01*
X125207211Y-86255085D02*
X125169115Y-86216990D01*
X125169115Y-86216990D02*
X125092925Y-86178895D01*
X125092925Y-86178895D02*
X124902449Y-86178895D01*
X124902449Y-86178895D02*
X124826258Y-86216990D01*
X124826258Y-86216990D02*
X124788163Y-86255085D01*
X124788163Y-86255085D02*
X124750068Y-86331276D01*
X124750068Y-86331276D02*
X124750068Y-86407466D01*
X124750068Y-86407466D02*
X124788163Y-86521752D01*
X124788163Y-86521752D02*
X125245306Y-86978895D01*
X125245306Y-86978895D02*
X124750068Y-86978895D01*
X86853068Y-84527847D02*
X86738782Y-84565942D01*
X86738782Y-84565942D02*
X86700687Y-84604038D01*
X86700687Y-84604038D02*
X86662591Y-84680228D01*
X86662591Y-84680228D02*
X86662591Y-84794514D01*
X86662591Y-84794514D02*
X86700687Y-84870704D01*
X86700687Y-84870704D02*
X86738782Y-84908800D01*
X86738782Y-84908800D02*
X86814972Y-84946895D01*
X86814972Y-84946895D02*
X87119734Y-84946895D01*
X87119734Y-84946895D02*
X87119734Y-84146895D01*
X87119734Y-84146895D02*
X86853068Y-84146895D01*
X86853068Y-84146895D02*
X86776877Y-84184990D01*
X86776877Y-84184990D02*
X86738782Y-84223085D01*
X86738782Y-84223085D02*
X86700687Y-84299276D01*
X86700687Y-84299276D02*
X86700687Y-84375466D01*
X86700687Y-84375466D02*
X86738782Y-84451657D01*
X86738782Y-84451657D02*
X86776877Y-84489752D01*
X86776877Y-84489752D02*
X86853068Y-84527847D01*
X86853068Y-84527847D02*
X87119734Y-84527847D01*
X85938782Y-84946895D02*
X86319734Y-84946895D01*
X86319734Y-84946895D02*
X86319734Y-84146895D01*
X85253068Y-84946895D02*
X85710211Y-84946895D01*
X85481639Y-84946895D02*
X85481639Y-84146895D01*
X85481639Y-84146895D02*
X85557830Y-84261180D01*
X85557830Y-84261180D02*
X85634020Y-84337371D01*
X85634020Y-84337371D02*
X85710211Y-84375466D01*
X98297904Y-72863419D02*
X97726476Y-72863419D01*
X98012190Y-73863419D02*
X98012190Y-72863419D01*
X97440761Y-72958657D02*
X97393142Y-72911038D01*
X97393142Y-72911038D02*
X97297904Y-72863419D01*
X97297904Y-72863419D02*
X97059809Y-72863419D01*
X97059809Y-72863419D02*
X96964571Y-72911038D01*
X96964571Y-72911038D02*
X96916952Y-72958657D01*
X96916952Y-72958657D02*
X96869333Y-73053895D01*
X96869333Y-73053895D02*
X96869333Y-73149133D01*
X96869333Y-73149133D02*
X96916952Y-73291990D01*
X96916952Y-73291990D02*
X97488380Y-73863419D01*
X97488380Y-73863419D02*
X96869333Y-73863419D01*
X123151619Y-55990895D02*
X123532571Y-55990895D01*
X123532571Y-55990895D02*
X123532571Y-55190895D01*
X122884952Y-55571847D02*
X122618286Y-55571847D01*
X122504000Y-55990895D02*
X122884952Y-55990895D01*
X122884952Y-55990895D02*
X122884952Y-55190895D01*
X122884952Y-55190895D02*
X122504000Y-55190895D01*
X122161142Y-55990895D02*
X122161142Y-55190895D01*
X122161142Y-55190895D02*
X121970666Y-55190895D01*
X121970666Y-55190895D02*
X121856380Y-55228990D01*
X121856380Y-55228990D02*
X121780190Y-55305180D01*
X121780190Y-55305180D02*
X121742095Y-55381371D01*
X121742095Y-55381371D02*
X121703999Y-55533752D01*
X121703999Y-55533752D02*
X121703999Y-55648038D01*
X121703999Y-55648038D02*
X121742095Y-55800419D01*
X121742095Y-55800419D02*
X121780190Y-55876609D01*
X121780190Y-55876609D02*
X121856380Y-55952800D01*
X121856380Y-55952800D02*
X121970666Y-55990895D01*
X121970666Y-55990895D02*
X122161142Y-55990895D01*
X120789714Y-55952800D02*
X120675428Y-55990895D01*
X120675428Y-55990895D02*
X120484952Y-55990895D01*
X120484952Y-55990895D02*
X120408761Y-55952800D01*
X120408761Y-55952800D02*
X120370666Y-55914704D01*
X120370666Y-55914704D02*
X120332571Y-55838514D01*
X120332571Y-55838514D02*
X120332571Y-55762323D01*
X120332571Y-55762323D02*
X120370666Y-55686133D01*
X120370666Y-55686133D02*
X120408761Y-55648038D01*
X120408761Y-55648038D02*
X120484952Y-55609942D01*
X120484952Y-55609942D02*
X120637333Y-55571847D01*
X120637333Y-55571847D02*
X120713523Y-55533752D01*
X120713523Y-55533752D02*
X120751618Y-55495657D01*
X120751618Y-55495657D02*
X120789714Y-55419466D01*
X120789714Y-55419466D02*
X120789714Y-55343276D01*
X120789714Y-55343276D02*
X120751618Y-55267085D01*
X120751618Y-55267085D02*
X120713523Y-55228990D01*
X120713523Y-55228990D02*
X120637333Y-55190895D01*
X120637333Y-55190895D02*
X120446856Y-55190895D01*
X120446856Y-55190895D02*
X120332571Y-55228990D01*
X120103999Y-55190895D02*
X119646856Y-55190895D01*
X119875428Y-55990895D02*
X119875428Y-55190895D01*
X119113523Y-55571847D02*
X118999237Y-55609942D01*
X118999237Y-55609942D02*
X118961142Y-55648038D01*
X118961142Y-55648038D02*
X118923046Y-55724228D01*
X118923046Y-55724228D02*
X118923046Y-55838514D01*
X118923046Y-55838514D02*
X118961142Y-55914704D01*
X118961142Y-55914704D02*
X118999237Y-55952800D01*
X118999237Y-55952800D02*
X119075427Y-55990895D01*
X119075427Y-55990895D02*
X119380189Y-55990895D01*
X119380189Y-55990895D02*
X119380189Y-55190895D01*
X119380189Y-55190895D02*
X119113523Y-55190895D01*
X119113523Y-55190895D02*
X119037332Y-55228990D01*
X119037332Y-55228990D02*
X118999237Y-55267085D01*
X118999237Y-55267085D02*
X118961142Y-55343276D01*
X118961142Y-55343276D02*
X118961142Y-55419466D01*
X118961142Y-55419466D02*
X118999237Y-55495657D01*
X118999237Y-55495657D02*
X119037332Y-55533752D01*
X119037332Y-55533752D02*
X119113523Y-55571847D01*
X119113523Y-55571847D02*
X119380189Y-55571847D01*
X118427808Y-55609942D02*
X118427808Y-55990895D01*
X118694475Y-55190895D02*
X118427808Y-55609942D01*
X118427808Y-55609942D02*
X118161142Y-55190895D01*
X81025904Y-72863419D02*
X80454476Y-72863419D01*
X80740190Y-73863419D02*
X80740190Y-72863419D01*
X79597333Y-73863419D02*
X80168761Y-73863419D01*
X79883047Y-73863419D02*
X79883047Y-72863419D01*
X79883047Y-72863419D02*
X79978285Y-73006276D01*
X79978285Y-73006276D02*
X80073523Y-73101514D01*
X80073523Y-73101514D02*
X80168761Y-73149133D01*
X73062857Y-59800895D02*
X73443809Y-59800895D01*
X73443809Y-59800895D02*
X73443809Y-59000895D01*
X72796190Y-59381847D02*
X72529524Y-59381847D01*
X72415238Y-59800895D02*
X72796190Y-59800895D01*
X72796190Y-59800895D02*
X72796190Y-59000895D01*
X72796190Y-59000895D02*
X72415238Y-59000895D01*
X72072380Y-59800895D02*
X72072380Y-59000895D01*
X72072380Y-59000895D02*
X71881904Y-59000895D01*
X71881904Y-59000895D02*
X71767618Y-59038990D01*
X71767618Y-59038990D02*
X71691428Y-59115180D01*
X71691428Y-59115180D02*
X71653333Y-59191371D01*
X71653333Y-59191371D02*
X71615237Y-59343752D01*
X71615237Y-59343752D02*
X71615237Y-59458038D01*
X71615237Y-59458038D02*
X71653333Y-59610419D01*
X71653333Y-59610419D02*
X71691428Y-59686609D01*
X71691428Y-59686609D02*
X71767618Y-59762800D01*
X71767618Y-59762800D02*
X71881904Y-59800895D01*
X71881904Y-59800895D02*
X72072380Y-59800895D01*
X70777142Y-59000895D02*
X70319999Y-59000895D01*
X70548571Y-59800895D02*
X70548571Y-59000895D01*
X69900951Y-59000895D02*
X69748570Y-59000895D01*
X69748570Y-59000895D02*
X69672380Y-59038990D01*
X69672380Y-59038990D02*
X69596189Y-59115180D01*
X69596189Y-59115180D02*
X69558094Y-59267561D01*
X69558094Y-59267561D02*
X69558094Y-59534228D01*
X69558094Y-59534228D02*
X69596189Y-59686609D01*
X69596189Y-59686609D02*
X69672380Y-59762800D01*
X69672380Y-59762800D02*
X69748570Y-59800895D01*
X69748570Y-59800895D02*
X69900951Y-59800895D01*
X69900951Y-59800895D02*
X69977142Y-59762800D01*
X69977142Y-59762800D02*
X70053332Y-59686609D01*
X70053332Y-59686609D02*
X70091428Y-59534228D01*
X70091428Y-59534228D02*
X70091428Y-59267561D01*
X70091428Y-59267561D02*
X70053332Y-59115180D01*
X70053332Y-59115180D02*
X69977142Y-59038990D01*
X69977142Y-59038990D02*
X69900951Y-59000895D01*
X69215237Y-59800895D02*
X69215237Y-59000895D01*
X69215237Y-59000895D02*
X68910475Y-59000895D01*
X68910475Y-59000895D02*
X68834285Y-59038990D01*
X68834285Y-59038990D02*
X68796190Y-59077085D01*
X68796190Y-59077085D02*
X68758094Y-59153276D01*
X68758094Y-59153276D02*
X68758094Y-59267561D01*
X68758094Y-59267561D02*
X68796190Y-59343752D01*
X68796190Y-59343752D02*
X68834285Y-59381847D01*
X68834285Y-59381847D02*
X68910475Y-59419942D01*
X68910475Y-59419942D02*
X69215237Y-59419942D01*
X115569904Y-72863419D02*
X114998476Y-72863419D01*
X115284190Y-73863419D02*
X115284190Y-72863419D01*
X114760380Y-72863419D02*
X114141333Y-72863419D01*
X114141333Y-72863419D02*
X114474666Y-73244371D01*
X114474666Y-73244371D02*
X114331809Y-73244371D01*
X114331809Y-73244371D02*
X114236571Y-73291990D01*
X114236571Y-73291990D02*
X114188952Y-73339609D01*
X114188952Y-73339609D02*
X114141333Y-73434847D01*
X114141333Y-73434847D02*
X114141333Y-73672942D01*
X114141333Y-73672942D02*
X114188952Y-73768180D01*
X114188952Y-73768180D02*
X114236571Y-73815800D01*
X114236571Y-73815800D02*
X114331809Y-73863419D01*
X114331809Y-73863419D02*
X114617523Y-73863419D01*
X114617523Y-73863419D02*
X114712761Y-73815800D01*
X114712761Y-73815800D02*
X114760380Y-73768180D01*
X112045381Y-53704895D02*
X112426333Y-53704895D01*
X112426333Y-53704895D02*
X112426333Y-52904895D01*
X111778714Y-53285847D02*
X111512048Y-53285847D01*
X111397762Y-53704895D02*
X111778714Y-53704895D01*
X111778714Y-53704895D02*
X111778714Y-52904895D01*
X111778714Y-52904895D02*
X111397762Y-52904895D01*
X111054904Y-53704895D02*
X111054904Y-52904895D01*
X111054904Y-52904895D02*
X110864428Y-52904895D01*
X110864428Y-52904895D02*
X110750142Y-52942990D01*
X110750142Y-52942990D02*
X110673952Y-53019180D01*
X110673952Y-53019180D02*
X110635857Y-53095371D01*
X110635857Y-53095371D02*
X110597761Y-53247752D01*
X110597761Y-53247752D02*
X110597761Y-53362038D01*
X110597761Y-53362038D02*
X110635857Y-53514419D01*
X110635857Y-53514419D02*
X110673952Y-53590609D01*
X110673952Y-53590609D02*
X110750142Y-53666800D01*
X110750142Y-53666800D02*
X110864428Y-53704895D01*
X110864428Y-53704895D02*
X111054904Y-53704895D01*
X109683476Y-53666800D02*
X109569190Y-53704895D01*
X109569190Y-53704895D02*
X109378714Y-53704895D01*
X109378714Y-53704895D02*
X109302523Y-53666800D01*
X109302523Y-53666800D02*
X109264428Y-53628704D01*
X109264428Y-53628704D02*
X109226333Y-53552514D01*
X109226333Y-53552514D02*
X109226333Y-53476323D01*
X109226333Y-53476323D02*
X109264428Y-53400133D01*
X109264428Y-53400133D02*
X109302523Y-53362038D01*
X109302523Y-53362038D02*
X109378714Y-53323942D01*
X109378714Y-53323942D02*
X109531095Y-53285847D01*
X109531095Y-53285847D02*
X109607285Y-53247752D01*
X109607285Y-53247752D02*
X109645380Y-53209657D01*
X109645380Y-53209657D02*
X109683476Y-53133466D01*
X109683476Y-53133466D02*
X109683476Y-53057276D01*
X109683476Y-53057276D02*
X109645380Y-52981085D01*
X109645380Y-52981085D02*
X109607285Y-52942990D01*
X109607285Y-52942990D02*
X109531095Y-52904895D01*
X109531095Y-52904895D02*
X109340618Y-52904895D01*
X109340618Y-52904895D02*
X109226333Y-52942990D01*
X108997761Y-52904895D02*
X108540618Y-52904895D01*
X108769190Y-53704895D02*
X108769190Y-52904895D01*
X108312047Y-53476323D02*
X107931094Y-53476323D01*
X108388237Y-53704895D02*
X108121570Y-52904895D01*
X108121570Y-52904895D02*
X107854904Y-53704895D01*
X107702523Y-52904895D02*
X107245380Y-52904895D01*
X107473952Y-53704895D02*
X107473952Y-52904895D01*
X106978713Y-52904895D02*
X106978713Y-53552514D01*
X106978713Y-53552514D02*
X106940618Y-53628704D01*
X106940618Y-53628704D02*
X106902523Y-53666800D01*
X106902523Y-53666800D02*
X106826332Y-53704895D01*
X106826332Y-53704895D02*
X106673951Y-53704895D01*
X106673951Y-53704895D02*
X106597761Y-53666800D01*
X106597761Y-53666800D02*
X106559666Y-53628704D01*
X106559666Y-53628704D02*
X106521570Y-53552514D01*
X106521570Y-53552514D02*
X106521570Y-52904895D01*
X106178714Y-53666800D02*
X106064428Y-53704895D01*
X106064428Y-53704895D02*
X105873952Y-53704895D01*
X105873952Y-53704895D02*
X105797761Y-53666800D01*
X105797761Y-53666800D02*
X105759666Y-53628704D01*
X105759666Y-53628704D02*
X105721571Y-53552514D01*
X105721571Y-53552514D02*
X105721571Y-53476323D01*
X105721571Y-53476323D02*
X105759666Y-53400133D01*
X105759666Y-53400133D02*
X105797761Y-53362038D01*
X105797761Y-53362038D02*
X105873952Y-53323942D01*
X105873952Y-53323942D02*
X106026333Y-53285847D01*
X106026333Y-53285847D02*
X106102523Y-53247752D01*
X106102523Y-53247752D02*
X106140618Y-53209657D01*
X106140618Y-53209657D02*
X106178714Y-53133466D01*
X106178714Y-53133466D02*
X106178714Y-53057276D01*
X106178714Y-53057276D02*
X106140618Y-52981085D01*
X106140618Y-52981085D02*
X106102523Y-52942990D01*
X106102523Y-52942990D02*
X106026333Y-52904895D01*
X106026333Y-52904895D02*
X105835856Y-52904895D01*
X105835856Y-52904895D02*
X105721571Y-52942990D01*
X123284857Y-52688895D02*
X123665809Y-52688895D01*
X123665809Y-52688895D02*
X123665809Y-51888895D01*
X123018190Y-52269847D02*
X122751524Y-52269847D01*
X122637238Y-52688895D02*
X123018190Y-52688895D01*
X123018190Y-52688895D02*
X123018190Y-51888895D01*
X123018190Y-51888895D02*
X122637238Y-51888895D01*
X122294380Y-52688895D02*
X122294380Y-51888895D01*
X122294380Y-51888895D02*
X122103904Y-51888895D01*
X122103904Y-51888895D02*
X121989618Y-51926990D01*
X121989618Y-51926990D02*
X121913428Y-52003180D01*
X121913428Y-52003180D02*
X121875333Y-52079371D01*
X121875333Y-52079371D02*
X121837237Y-52231752D01*
X121837237Y-52231752D02*
X121837237Y-52346038D01*
X121837237Y-52346038D02*
X121875333Y-52498419D01*
X121875333Y-52498419D02*
X121913428Y-52574609D01*
X121913428Y-52574609D02*
X121989618Y-52650800D01*
X121989618Y-52650800D02*
X122103904Y-52688895D01*
X122103904Y-52688895D02*
X122294380Y-52688895D01*
X120427713Y-52612704D02*
X120465809Y-52650800D01*
X120465809Y-52650800D02*
X120580094Y-52688895D01*
X120580094Y-52688895D02*
X120656285Y-52688895D01*
X120656285Y-52688895D02*
X120770571Y-52650800D01*
X120770571Y-52650800D02*
X120846761Y-52574609D01*
X120846761Y-52574609D02*
X120884856Y-52498419D01*
X120884856Y-52498419D02*
X120922952Y-52346038D01*
X120922952Y-52346038D02*
X120922952Y-52231752D01*
X120922952Y-52231752D02*
X120884856Y-52079371D01*
X120884856Y-52079371D02*
X120846761Y-52003180D01*
X120846761Y-52003180D02*
X120770571Y-51926990D01*
X120770571Y-51926990D02*
X120656285Y-51888895D01*
X120656285Y-51888895D02*
X120580094Y-51888895D01*
X120580094Y-51888895D02*
X120465809Y-51926990D01*
X120465809Y-51926990D02*
X120427713Y-51965085D01*
X120084856Y-52688895D02*
X120084856Y-51888895D01*
X120084856Y-52269847D02*
X119627713Y-52269847D01*
X119627713Y-52688895D02*
X119627713Y-51888895D01*
X119284857Y-52460323D02*
X118903904Y-52460323D01*
X119361047Y-52688895D02*
X119094380Y-51888895D01*
X119094380Y-51888895D02*
X118827714Y-52688895D01*
X118103904Y-52688895D02*
X118370571Y-52307942D01*
X118561047Y-52688895D02*
X118561047Y-51888895D01*
X118561047Y-51888895D02*
X118256285Y-51888895D01*
X118256285Y-51888895D02*
X118180095Y-51926990D01*
X118180095Y-51926990D02*
X118142000Y-51965085D01*
X118142000Y-51965085D02*
X118103904Y-52041276D01*
X118103904Y-52041276D02*
X118103904Y-52155561D01*
X118103904Y-52155561D02*
X118142000Y-52231752D01*
X118142000Y-52231752D02*
X118180095Y-52269847D01*
X118180095Y-52269847D02*
X118256285Y-52307942D01*
X118256285Y-52307942D02*
X118561047Y-52307942D01*
X117342000Y-51926990D02*
X117418190Y-51888895D01*
X117418190Y-51888895D02*
X117532476Y-51888895D01*
X117532476Y-51888895D02*
X117646762Y-51926990D01*
X117646762Y-51926990D02*
X117722952Y-52003180D01*
X117722952Y-52003180D02*
X117761047Y-52079371D01*
X117761047Y-52079371D02*
X117799143Y-52231752D01*
X117799143Y-52231752D02*
X117799143Y-52346038D01*
X117799143Y-52346038D02*
X117761047Y-52498419D01*
X117761047Y-52498419D02*
X117722952Y-52574609D01*
X117722952Y-52574609D02*
X117646762Y-52650800D01*
X117646762Y-52650800D02*
X117532476Y-52688895D01*
X117532476Y-52688895D02*
X117456285Y-52688895D01*
X117456285Y-52688895D02*
X117342000Y-52650800D01*
X117342000Y-52650800D02*
X117303904Y-52612704D01*
X117303904Y-52612704D02*
X117303904Y-52346038D01*
X117303904Y-52346038D02*
X117456285Y-52346038D01*
X116961047Y-52269847D02*
X116694381Y-52269847D01*
X116580095Y-52688895D02*
X116961047Y-52688895D01*
X116961047Y-52688895D02*
X116961047Y-51888895D01*
X116961047Y-51888895D02*
X116580095Y-51888895D01*
%TO.C,G\u002A\u002A\u002A*%
G36*
X89162108Y-49090245D02*
G01*
X89181076Y-49094058D01*
X89197115Y-49102468D01*
X89210248Y-49115485D01*
X89212892Y-49119094D01*
X89216961Y-49125752D01*
X89219999Y-49133014D01*
X89222216Y-49141848D01*
X89223828Y-49153227D01*
X89225047Y-49168120D01*
X89226087Y-49187497D01*
X89227961Y-49227725D01*
X89274920Y-49227725D01*
X89294908Y-49227907D01*
X89312090Y-49228642D01*
X89325539Y-49230145D01*
X89336141Y-49232630D01*
X89344783Y-49236311D01*
X89352355Y-49241399D01*
X89359743Y-49248109D01*
X89369505Y-49260344D01*
X89376975Y-49276856D01*
X89379734Y-49294392D01*
X89377781Y-49312008D01*
X89371118Y-49328762D01*
X89359743Y-49343710D01*
X89354792Y-49348366D01*
X89347106Y-49354123D01*
X89338578Y-49358322D01*
X89328290Y-49361190D01*
X89315321Y-49362955D01*
X89298752Y-49363847D01*
X89277665Y-49364094D01*
X89233450Y-49364094D01*
X89233831Y-49405686D01*
X89233918Y-49416238D01*
X89233916Y-49429319D01*
X89233617Y-49438675D01*
X89232881Y-49445372D01*
X89231569Y-49450472D01*
X89229539Y-49455040D01*
X89226651Y-49460141D01*
X89220313Y-49469281D01*
X89206459Y-49482386D01*
X89189898Y-49491116D01*
X89186873Y-49492111D01*
X89168985Y-49494834D01*
X89151180Y-49492662D01*
X89134473Y-49485973D01*
X89119877Y-49475149D01*
X89108406Y-49460569D01*
X89105661Y-49455476D01*
X89103158Y-49449071D01*
X89101405Y-49441328D01*
X89100107Y-49430876D01*
X89098974Y-49416342D01*
X89098223Y-49404827D01*
X89097459Y-49392172D01*
X89096907Y-49381958D01*
X89096654Y-49375685D01*
X89096480Y-49366821D01*
X89061510Y-49366821D01*
X89048713Y-49366672D01*
X89031354Y-49365651D01*
X89017717Y-49363410D01*
X89006756Y-49359655D01*
X88997425Y-49354096D01*
X88988677Y-49346438D01*
X88978914Y-49334202D01*
X88971444Y-49317691D01*
X88968686Y-49300155D01*
X88970638Y-49282538D01*
X88977302Y-49265784D01*
X88988677Y-49250836D01*
X88991360Y-49248252D01*
X89000632Y-49241007D01*
X89010950Y-49235919D01*
X89023399Y-49232673D01*
X89039060Y-49230955D01*
X89059018Y-49230453D01*
X89091497Y-49230453D01*
X89089664Y-49188860D01*
X89089410Y-49182878D01*
X89088908Y-49167406D01*
X89088886Y-49155966D01*
X89089396Y-49147493D01*
X89090486Y-49140920D01*
X89092209Y-49135182D01*
X89097089Y-49124197D01*
X89108076Y-49109198D01*
X89123164Y-49097554D01*
X89127159Y-49095315D01*
X89135032Y-49091985D01*
X89143580Y-49090398D01*
X89155175Y-49089993D01*
X89162108Y-49090245D01*
G37*
G36*
X93454817Y-53878103D02*
G01*
X93454817Y-53975680D01*
X93444676Y-53984039D01*
X93443901Y-53984718D01*
X93442681Y-53985979D01*
X93441710Y-53987171D01*
X93440837Y-53988295D01*
X93439912Y-53989354D01*
X93438786Y-53990349D01*
X93437307Y-53991283D01*
X93435327Y-53992157D01*
X93432695Y-53992976D01*
X93429261Y-53993739D01*
X93424875Y-53994450D01*
X93419387Y-53995111D01*
X93412646Y-53995724D01*
X93404503Y-53996291D01*
X93394808Y-53996815D01*
X93383409Y-53997297D01*
X93370159Y-53997740D01*
X93354905Y-53998146D01*
X93337499Y-53998518D01*
X93317790Y-53998857D01*
X93295627Y-53999165D01*
X93270862Y-53999446D01*
X93243344Y-53999700D01*
X93212922Y-53999931D01*
X93179447Y-54000141D01*
X93142768Y-54000331D01*
X93102736Y-54000504D01*
X93059201Y-54000662D01*
X93012012Y-54000807D01*
X92961018Y-54000942D01*
X92906072Y-54001069D01*
X92847021Y-54001190D01*
X92783716Y-54001307D01*
X92716007Y-54001422D01*
X92643744Y-54001538D01*
X92566776Y-54001656D01*
X92484954Y-54001780D01*
X92398128Y-54001910D01*
X92306147Y-54002050D01*
X92208861Y-54002202D01*
X92136985Y-54002318D01*
X92036732Y-54002486D01*
X91941779Y-54002654D01*
X91852033Y-54002823D01*
X91767401Y-54002993D01*
X91687793Y-54003163D01*
X91613115Y-54003336D01*
X91543276Y-54003510D01*
X91478183Y-54003687D01*
X91417744Y-54003866D01*
X91361867Y-54004048D01*
X91310460Y-54004234D01*
X91263431Y-54004424D01*
X91220687Y-54004618D01*
X91182137Y-54004816D01*
X91147687Y-54005019D01*
X91117247Y-54005228D01*
X91090723Y-54005443D01*
X91068024Y-54005663D01*
X91049057Y-54005890D01*
X91033731Y-54006124D01*
X91021953Y-54006365D01*
X91013630Y-54006614D01*
X91008672Y-54006871D01*
X91006985Y-54007136D01*
X91006904Y-54007956D01*
X91006653Y-54013514D01*
X91006303Y-54023919D01*
X91005865Y-54038761D01*
X91005348Y-54057627D01*
X91004765Y-54080105D01*
X91004124Y-54105783D01*
X91003438Y-54134251D01*
X91002715Y-54165094D01*
X91001968Y-54197902D01*
X91001206Y-54232264D01*
X90996350Y-54454358D01*
X91134339Y-54590913D01*
X91139551Y-54596071D01*
X91165532Y-54621805D01*
X91187944Y-54644057D01*
X91207058Y-54663113D01*
X91223148Y-54679258D01*
X91236485Y-54692780D01*
X91247341Y-54703966D01*
X91255988Y-54713101D01*
X91262698Y-54720473D01*
X91267743Y-54726368D01*
X91271396Y-54731072D01*
X91273927Y-54734873D01*
X91275610Y-54738056D01*
X91276716Y-54740909D01*
X91279566Y-54752290D01*
X91280307Y-54771609D01*
X91275735Y-54789985D01*
X91265910Y-54807056D01*
X91259007Y-54816107D01*
X91213866Y-54816107D01*
X91168725Y-54816107D01*
X91051394Y-54700190D01*
X90934063Y-54584273D01*
X90855983Y-54660248D01*
X90838738Y-54677021D01*
X90818932Y-54696266D01*
X90799211Y-54715410D01*
X90780340Y-54733714D01*
X90763083Y-54750436D01*
X90748204Y-54764833D01*
X90736468Y-54776166D01*
X90695033Y-54816107D01*
X90656270Y-54816107D01*
X90617508Y-54816107D01*
X90607299Y-54805375D01*
X90598853Y-54794183D01*
X90591803Y-54777844D01*
X90588952Y-54760263D01*
X90590477Y-54742757D01*
X90596560Y-54726640D01*
X90598864Y-54723517D01*
X90604938Y-54716578D01*
X90614064Y-54706799D01*
X90625742Y-54694697D01*
X90639472Y-54680790D01*
X90654752Y-54665595D01*
X90671083Y-54649630D01*
X90674372Y-54646441D01*
X90694530Y-54626894D01*
X90716491Y-54605592D01*
X90739112Y-54583645D01*
X90761249Y-54562162D01*
X90781756Y-54542255D01*
X90799490Y-54525033D01*
X90859260Y-54466975D01*
X90864135Y-54272664D01*
X90864628Y-54252837D01*
X90865428Y-54219950D01*
X90866181Y-54188102D01*
X90866875Y-54157845D01*
X90867499Y-54129730D01*
X90868040Y-54104310D01*
X90868486Y-54082136D01*
X90868826Y-54063759D01*
X90869048Y-54049732D01*
X90869140Y-54040607D01*
X90869270Y-54002860D01*
X90394935Y-54003787D01*
X90378908Y-54003820D01*
X90328875Y-54003938D01*
X90280397Y-54004077D01*
X90233751Y-54004235D01*
X90189217Y-54004410D01*
X90147072Y-54004601D01*
X90107597Y-54004805D01*
X90071068Y-54005020D01*
X90037765Y-54005246D01*
X90007967Y-54005479D01*
X89981951Y-54005719D01*
X89959998Y-54005962D01*
X89942384Y-54006208D01*
X89929390Y-54006455D01*
X89921293Y-54006700D01*
X89918372Y-54006943D01*
X89918144Y-54008116D01*
X89917678Y-54014134D01*
X89917112Y-54024790D01*
X89916463Y-54039574D01*
X89915745Y-54057977D01*
X89914972Y-54079488D01*
X89914160Y-54103600D01*
X89913322Y-54129801D01*
X89912475Y-54157584D01*
X89911633Y-54186438D01*
X89910810Y-54215853D01*
X89910021Y-54245322D01*
X89909281Y-54274333D01*
X89908604Y-54302378D01*
X89908007Y-54328947D01*
X89907502Y-54353530D01*
X89907105Y-54375619D01*
X89906831Y-54394703D01*
X89906694Y-54410274D01*
X89906509Y-54450367D01*
X90036741Y-54585598D01*
X90060922Y-54610781D01*
X90084231Y-54635211D01*
X90105371Y-54657533D01*
X90124106Y-54677492D01*
X90140200Y-54694833D01*
X90153416Y-54709302D01*
X90163518Y-54720644D01*
X90170270Y-54728605D01*
X90173435Y-54732929D01*
X90174063Y-54734134D01*
X90180219Y-54751917D01*
X90181205Y-54770287D01*
X90177086Y-54788379D01*
X90167928Y-54805328D01*
X90160120Y-54816107D01*
X90114454Y-54816083D01*
X90068787Y-54816058D01*
X89954365Y-54697016D01*
X89839942Y-54577974D01*
X89722538Y-54697092D01*
X89605134Y-54816210D01*
X89568925Y-54816159D01*
X89532715Y-54816107D01*
X89520940Y-54804332D01*
X89520142Y-54803523D01*
X89508533Y-54787978D01*
X89502016Y-54770699D01*
X89500696Y-54752155D01*
X89504680Y-54732816D01*
X89505131Y-54731597D01*
X89506635Y-54728435D01*
X89508968Y-54724669D01*
X89512405Y-54720003D01*
X89517220Y-54714139D01*
X89523688Y-54706783D01*
X89532083Y-54697636D01*
X89542680Y-54686403D01*
X89555754Y-54672788D01*
X89571578Y-54656494D01*
X89590429Y-54637224D01*
X89612579Y-54614682D01*
X89638304Y-54588572D01*
X89661213Y-54565313D01*
X89684556Y-54541530D01*
X89704469Y-54521127D01*
X89721189Y-54503852D01*
X89734952Y-54489454D01*
X89745991Y-54477681D01*
X89754545Y-54468282D01*
X89760846Y-54461005D01*
X89765133Y-54455598D01*
X89767639Y-54451809D01*
X89768601Y-54449387D01*
X89768605Y-54449362D01*
X89768860Y-54445250D01*
X89769212Y-54436137D01*
X89769650Y-54422467D01*
X89770160Y-54404685D01*
X89770733Y-54383236D01*
X89771357Y-54358564D01*
X89772019Y-54331114D01*
X89772709Y-54301331D01*
X89773415Y-54269658D01*
X89774125Y-54236541D01*
X89774831Y-54203528D01*
X89775537Y-54171593D01*
X89776226Y-54141450D01*
X89776887Y-54113556D01*
X89777508Y-54088369D01*
X89778077Y-54066347D01*
X89778583Y-54047948D01*
X89779014Y-54033630D01*
X89779359Y-54023849D01*
X89779606Y-54019065D01*
X89780785Y-54006141D01*
X89323401Y-54005428D01*
X88866017Y-54004715D01*
X88854704Y-53997896D01*
X88851151Y-53995063D01*
X88843991Y-53988647D01*
X88833619Y-53979004D01*
X88820366Y-53966452D01*
X88804562Y-53951310D01*
X88786539Y-53933896D01*
X88766628Y-53914529D01*
X88745158Y-53893527D01*
X88722461Y-53871208D01*
X88698867Y-53847891D01*
X88684633Y-53833785D01*
X88659167Y-53808518D01*
X88637191Y-53786658D01*
X88618439Y-53767926D01*
X88602647Y-53752042D01*
X88589549Y-53738727D01*
X88578880Y-53727704D01*
X88570375Y-53718692D01*
X88563770Y-53711414D01*
X88558798Y-53705591D01*
X88555195Y-53700942D01*
X88552696Y-53697191D01*
X88551035Y-53694057D01*
X88549947Y-53691263D01*
X88549875Y-53691035D01*
X88549437Y-53689253D01*
X88549029Y-53686748D01*
X88548650Y-53683333D01*
X88548300Y-53678816D01*
X88547977Y-53673011D01*
X88547679Y-53665725D01*
X88547407Y-53656772D01*
X88547159Y-53645960D01*
X88546933Y-53633102D01*
X88546729Y-53618007D01*
X88546546Y-53600487D01*
X88546383Y-53580351D01*
X88546238Y-53557411D01*
X88546110Y-53531477D01*
X88545999Y-53502361D01*
X88545904Y-53469872D01*
X88545822Y-53433821D01*
X88545754Y-53394020D01*
X88545697Y-53350278D01*
X88545652Y-53302407D01*
X88545617Y-53250217D01*
X88545590Y-53193518D01*
X88545571Y-53132123D01*
X88545559Y-53065840D01*
X88545553Y-52994482D01*
X88545551Y-52917857D01*
X88545550Y-52881930D01*
X88545544Y-52807315D01*
X88545537Y-52737878D01*
X88545530Y-52673429D01*
X88545530Y-52613779D01*
X88545539Y-52558738D01*
X88545561Y-52508115D01*
X88545601Y-52461722D01*
X88545662Y-52419368D01*
X88545748Y-52380863D01*
X88545864Y-52346019D01*
X88546013Y-52314645D01*
X88546198Y-52286550D01*
X88546425Y-52261547D01*
X88546697Y-52239444D01*
X88547017Y-52220052D01*
X88547390Y-52203181D01*
X88547820Y-52188641D01*
X88548311Y-52176243D01*
X88548866Y-52165797D01*
X88549489Y-52157113D01*
X88550185Y-52150001D01*
X88550957Y-52144272D01*
X88551809Y-52139735D01*
X88552746Y-52136201D01*
X88553770Y-52133480D01*
X88554887Y-52131383D01*
X88556100Y-52129719D01*
X88557412Y-52128299D01*
X88558828Y-52126933D01*
X88560352Y-52125431D01*
X88561988Y-52123603D01*
X88567480Y-52117657D01*
X88577683Y-52109979D01*
X88590154Y-52104673D01*
X88605907Y-52101356D01*
X88625960Y-52099649D01*
X88652141Y-52098455D01*
X88793742Y-52098455D01*
X88796074Y-52098607D01*
X88803516Y-52098763D01*
X88815726Y-52098911D01*
X88832348Y-52099049D01*
X88853025Y-52099177D01*
X88877404Y-52099293D01*
X88905127Y-52099395D01*
X88935840Y-52099481D01*
X88969187Y-52099551D01*
X89004813Y-52099603D01*
X89042362Y-52099635D01*
X89081479Y-52099646D01*
X89118066Y-52099632D01*
X89155729Y-52099586D01*
X89191493Y-52099511D01*
X89225001Y-52099408D01*
X89255898Y-52099280D01*
X89283829Y-52099129D01*
X89308439Y-52098958D01*
X89329371Y-52098768D01*
X89346270Y-52098562D01*
X89358781Y-52098342D01*
X89366549Y-52098110D01*
X89369217Y-52097868D01*
X89369109Y-52097601D01*
X89508226Y-52097601D01*
X89509567Y-52097786D01*
X89511600Y-52097868D01*
X89515890Y-52098041D01*
X89527099Y-52098285D01*
X89542859Y-52098515D01*
X89562837Y-52098730D01*
X89586698Y-52098928D01*
X89614108Y-52099106D01*
X89644733Y-52099262D01*
X89678239Y-52099395D01*
X89714293Y-52099502D01*
X89752559Y-52099581D01*
X89792704Y-52099630D01*
X89834394Y-52099646D01*
X90312814Y-52099646D01*
X90706802Y-52099646D01*
X91100790Y-52099646D01*
X91095709Y-52088055D01*
X91095601Y-52087809D01*
X91093665Y-52083361D01*
X91089688Y-52074214D01*
X91083788Y-52060634D01*
X91076079Y-52042887D01*
X91066676Y-52021238D01*
X91055694Y-51995952D01*
X91043249Y-51967295D01*
X91029457Y-51935532D01*
X91014431Y-51900929D01*
X90998288Y-51863751D01*
X90981143Y-51824264D01*
X90963111Y-51782732D01*
X90944308Y-51739422D01*
X90924848Y-51694599D01*
X90904846Y-51648528D01*
X90901246Y-51640235D01*
X90881391Y-51594510D01*
X90862125Y-51550155D01*
X90843562Y-51507431D01*
X90825814Y-51466596D01*
X90808994Y-51427911D01*
X90793215Y-51391635D01*
X90778590Y-51358028D01*
X90765233Y-51327348D01*
X90753256Y-51299856D01*
X90742772Y-51275811D01*
X90733894Y-51255472D01*
X90726736Y-51239099D01*
X90721409Y-51226952D01*
X90718028Y-51219290D01*
X90716704Y-51216373D01*
X90715286Y-51214670D01*
X90713198Y-51215806D01*
X90710299Y-51221566D01*
X90710192Y-51221810D01*
X90708275Y-51226090D01*
X90704244Y-51235031D01*
X90698218Y-51248373D01*
X90690313Y-51265853D01*
X90680650Y-51287210D01*
X90669346Y-51312182D01*
X90656520Y-51340508D01*
X90642291Y-51371926D01*
X90626777Y-51406174D01*
X90610096Y-51442991D01*
X90592367Y-51482115D01*
X90573709Y-51523284D01*
X90554240Y-51566237D01*
X90534078Y-51610713D01*
X90513342Y-51656449D01*
X90509750Y-51664371D01*
X90489109Y-51709899D01*
X90469064Y-51754116D01*
X90449735Y-51796760D01*
X90431239Y-51837571D01*
X90413695Y-51876287D01*
X90397221Y-51912648D01*
X90381935Y-51946391D01*
X90367956Y-51977256D01*
X90355401Y-52004982D01*
X90344390Y-52029307D01*
X90335040Y-52049971D01*
X90327470Y-52066711D01*
X90321798Y-52079267D01*
X90318143Y-52087378D01*
X90316622Y-52090782D01*
X90313693Y-52097601D01*
X90312814Y-52099646D01*
X89834394Y-52099646D01*
X89864104Y-52099638D01*
X89904691Y-52099598D01*
X89943480Y-52099528D01*
X89980136Y-52099429D01*
X90014329Y-52099304D01*
X90045727Y-52099154D01*
X90073995Y-52098982D01*
X90098803Y-52098790D01*
X90119818Y-52098580D01*
X90136708Y-52098354D01*
X90149140Y-52098114D01*
X90156782Y-52097862D01*
X90159301Y-52097601D01*
X90158309Y-52095492D01*
X90155137Y-52088652D01*
X90149897Y-52077318D01*
X90142700Y-52061732D01*
X90133660Y-52042139D01*
X90122889Y-52018783D01*
X90110498Y-51991908D01*
X90096602Y-51961757D01*
X90081311Y-51928574D01*
X90064738Y-51892604D01*
X90046997Y-51854091D01*
X90028198Y-51813277D01*
X90008455Y-51770408D01*
X89987880Y-51725726D01*
X89966586Y-51679476D01*
X89944684Y-51631902D01*
X89925238Y-51589668D01*
X89903860Y-51543256D01*
X89883185Y-51498386D01*
X89863323Y-51455301D01*
X89844389Y-51414246D01*
X89826495Y-51375464D01*
X89809753Y-51339199D01*
X89794277Y-51305695D01*
X89780178Y-51275196D01*
X89767570Y-51247946D01*
X89756565Y-51224188D01*
X89747276Y-51204166D01*
X89739816Y-51188125D01*
X89734297Y-51176308D01*
X89730832Y-51168958D01*
X89729534Y-51166321D01*
X89729391Y-51166655D01*
X89728186Y-51171068D01*
X89725837Y-51180337D01*
X89722421Y-51194136D01*
X89718017Y-51212140D01*
X89712701Y-51234021D01*
X89706552Y-51259453D01*
X89699647Y-51288109D01*
X89692063Y-51319664D01*
X89683878Y-51353791D01*
X89675170Y-51390162D01*
X89666017Y-51428453D01*
X89656495Y-51468335D01*
X89646683Y-51509483D01*
X89636657Y-51551571D01*
X89626497Y-51594272D01*
X89616278Y-51637259D01*
X89606079Y-51680205D01*
X89595978Y-51722786D01*
X89586051Y-51764673D01*
X89576378Y-51805541D01*
X89567034Y-51845063D01*
X89558098Y-51882912D01*
X89549647Y-51918763D01*
X89541759Y-51952288D01*
X89534511Y-51983161D01*
X89527981Y-52011056D01*
X89522247Y-52035647D01*
X89517386Y-52056606D01*
X89513476Y-52073607D01*
X89510594Y-52086325D01*
X89508818Y-52094431D01*
X89508226Y-52097601D01*
X89369109Y-52097601D01*
X89369036Y-52097421D01*
X89366973Y-52092965D01*
X89362701Y-52083946D01*
X89356340Y-52070613D01*
X89348011Y-52053215D01*
X89337833Y-52032002D01*
X89325927Y-52007223D01*
X89312413Y-51979127D01*
X89297411Y-51947965D01*
X89281040Y-51913984D01*
X89263421Y-51877436D01*
X89244674Y-51838568D01*
X89224919Y-51797632D01*
X89204276Y-51754875D01*
X89182865Y-51710547D01*
X89160806Y-51664898D01*
X89147972Y-51638345D01*
X89121025Y-51582590D01*
X89096312Y-51531458D01*
X89073739Y-51484753D01*
X89053207Y-51442275D01*
X89034621Y-51403828D01*
X89017884Y-51369212D01*
X89002899Y-51338231D01*
X88989570Y-51310685D01*
X88977800Y-51286378D01*
X88967494Y-51265111D01*
X88958553Y-51246686D01*
X88950882Y-51230905D01*
X88944385Y-51217571D01*
X88938964Y-51206485D01*
X88934523Y-51197449D01*
X88930965Y-51190266D01*
X88928195Y-51184737D01*
X88926115Y-51180665D01*
X88924629Y-51177851D01*
X88923640Y-51176098D01*
X88923052Y-51175207D01*
X88922769Y-51174981D01*
X88922693Y-51175222D01*
X88922728Y-51175732D01*
X88922778Y-51176312D01*
X88922746Y-51176765D01*
X88922409Y-51178949D01*
X88921357Y-51186221D01*
X88919639Y-51198261D01*
X88917305Y-51214732D01*
X88914399Y-51235293D01*
X88910972Y-51259606D01*
X88907068Y-51287332D01*
X88902737Y-51318133D01*
X88898026Y-51351668D01*
X88892981Y-51387600D01*
X88887651Y-51425590D01*
X88882082Y-51465298D01*
X88876323Y-51506386D01*
X88870420Y-51548514D01*
X88864422Y-51591345D01*
X88858375Y-51634538D01*
X88852327Y-51677756D01*
X88846326Y-51720658D01*
X88840418Y-51762907D01*
X88834652Y-51804163D01*
X88829074Y-51844088D01*
X88823732Y-51882343D01*
X88818675Y-51918588D01*
X88813948Y-51952485D01*
X88809599Y-51983694D01*
X88805677Y-52011878D01*
X88802228Y-52036697D01*
X88799299Y-52057812D01*
X88796939Y-52074884D01*
X88795194Y-52087574D01*
X88794113Y-52095545D01*
X88793742Y-52098455D01*
X88652141Y-52098455D01*
X88655912Y-52098283D01*
X88738084Y-51509970D01*
X88739011Y-51503335D01*
X88746841Y-51447375D01*
X88754497Y-51392816D01*
X88761942Y-51339910D01*
X88769142Y-51288904D01*
X88776059Y-51240051D01*
X88782659Y-51193599D01*
X88788904Y-51149799D01*
X88794759Y-51108901D01*
X88800189Y-51071155D01*
X88805156Y-51036812D01*
X88809626Y-51006120D01*
X88813562Y-50979331D01*
X88816928Y-50956695D01*
X88819688Y-50938461D01*
X88821807Y-50924880D01*
X88823248Y-50916201D01*
X88823975Y-50912676D01*
X88828786Y-50904102D01*
X88838843Y-50892637D01*
X88851344Y-50882911D01*
X88864591Y-50876442D01*
X88875742Y-50873782D01*
X88893681Y-50873376D01*
X88910988Y-50877302D01*
X88926430Y-50885222D01*
X88938775Y-50896800D01*
X88939143Y-50897385D01*
X88941748Y-50902282D01*
X88946565Y-50911772D01*
X88953477Y-50925615D01*
X88962368Y-50943572D01*
X88973121Y-50965405D01*
X88985620Y-50990877D01*
X88999748Y-51019747D01*
X89015390Y-51051778D01*
X89032428Y-51086731D01*
X89050747Y-51124368D01*
X89070230Y-51164449D01*
X89090760Y-51206738D01*
X89112221Y-51250994D01*
X89134497Y-51296980D01*
X89157472Y-51344458D01*
X89181028Y-51393187D01*
X89203921Y-51440550D01*
X89232821Y-51500287D01*
X89259450Y-51555255D01*
X89283851Y-51605545D01*
X89306069Y-51651247D01*
X89326147Y-51692449D01*
X89344129Y-51729241D01*
X89360059Y-51761713D01*
X89373982Y-51789954D01*
X89385941Y-51814054D01*
X89395981Y-51834101D01*
X89404145Y-51850186D01*
X89410477Y-51862398D01*
X89415022Y-51870826D01*
X89417823Y-51875560D01*
X89418925Y-51876689D01*
X89419067Y-51876216D01*
X89420300Y-51871364D01*
X89422695Y-51861567D01*
X89426189Y-51847098D01*
X89430715Y-51828228D01*
X89436210Y-51805232D01*
X89442608Y-51778381D01*
X89449844Y-51747948D01*
X89457855Y-51714206D01*
X89466575Y-51677427D01*
X89475940Y-51637885D01*
X89485884Y-51595851D01*
X89496343Y-51551599D01*
X89507252Y-51505401D01*
X89518547Y-51457530D01*
X89530163Y-51408258D01*
X89533744Y-51393063D01*
X89545314Y-51344011D01*
X89556568Y-51296357D01*
X89567438Y-51250381D01*
X89577859Y-51206362D01*
X89587763Y-51164579D01*
X89597085Y-51125311D01*
X89605758Y-51088838D01*
X89613714Y-51055441D01*
X89620889Y-51025397D01*
X89627214Y-50998986D01*
X89632625Y-50976488D01*
X89637053Y-50958183D01*
X89640432Y-50944349D01*
X89642697Y-50935266D01*
X89643779Y-50931214D01*
X89649185Y-50919540D01*
X89660052Y-50906089D01*
X89674152Y-50895460D01*
X89690325Y-50888477D01*
X89707411Y-50885967D01*
X89710739Y-50886149D01*
X89720574Y-50887757D01*
X89730605Y-50890484D01*
X89732866Y-50891207D01*
X89735727Y-50892043D01*
X89738384Y-50892875D01*
X89740938Y-50893900D01*
X89743488Y-50895317D01*
X89746133Y-50897323D01*
X89748974Y-50900117D01*
X89752111Y-50903898D01*
X89755642Y-50908863D01*
X89759668Y-50915210D01*
X89764289Y-50923139D01*
X89769604Y-50932846D01*
X89775714Y-50944531D01*
X89782717Y-50958391D01*
X89790713Y-50974625D01*
X89799804Y-50993431D01*
X89810087Y-51015007D01*
X89821663Y-51039551D01*
X89834632Y-51067262D01*
X89849093Y-51098338D01*
X89865146Y-51132977D01*
X89882891Y-51171377D01*
X89902428Y-51213737D01*
X89923856Y-51260254D01*
X89947276Y-51311127D01*
X89972786Y-51366554D01*
X90000488Y-51426734D01*
X90015729Y-51459827D01*
X90038303Y-51508791D01*
X90060212Y-51556252D01*
X90081347Y-51601980D01*
X90101602Y-51645744D01*
X90120869Y-51687315D01*
X90139041Y-51726461D01*
X90156011Y-51762953D01*
X90171671Y-51796561D01*
X90185913Y-51827053D01*
X90198632Y-51854200D01*
X90209718Y-51877772D01*
X90219065Y-51897538D01*
X90226566Y-51913268D01*
X90232113Y-51924731D01*
X90235599Y-51931698D01*
X90236916Y-51933938D01*
X90237581Y-51932811D01*
X90240403Y-51927121D01*
X90245224Y-51916950D01*
X90251909Y-51902604D01*
X90260320Y-51884387D01*
X90270319Y-51862604D01*
X90281770Y-51837559D01*
X90294535Y-51809558D01*
X90308478Y-51778904D01*
X90323460Y-51745904D01*
X90339344Y-51710861D01*
X90355994Y-51674081D01*
X90373273Y-51635868D01*
X90391042Y-51596527D01*
X90409164Y-51556362D01*
X90427504Y-51515679D01*
X90445922Y-51474783D01*
X90464282Y-51433977D01*
X90482447Y-51393567D01*
X90500280Y-51353858D01*
X90517643Y-51315154D01*
X90534399Y-51277760D01*
X90550410Y-51241982D01*
X90565541Y-51208123D01*
X90579652Y-51176488D01*
X90592608Y-51147382D01*
X90604271Y-51121111D01*
X90614503Y-51097978D01*
X90623168Y-51078289D01*
X90630128Y-51062348D01*
X90635246Y-51050460D01*
X90638384Y-51042930D01*
X90639406Y-51040063D01*
X90638913Y-51038697D01*
X90636431Y-51032620D01*
X90631976Y-51022013D01*
X90625674Y-51007168D01*
X90617648Y-50988376D01*
X90608026Y-50965927D01*
X90596932Y-50940114D01*
X90584491Y-50911226D01*
X90570830Y-50879555D01*
X90556072Y-50845393D01*
X90540343Y-50809030D01*
X90523770Y-50770758D01*
X90506476Y-50730868D01*
X90488588Y-50689650D01*
X90471131Y-50649465D01*
X90451104Y-50603421D01*
X90433067Y-50562023D01*
X90416929Y-50525069D01*
X90402596Y-50492354D01*
X90389980Y-50463676D01*
X90378988Y-50438831D01*
X90369530Y-50417616D01*
X90361514Y-50399828D01*
X90354848Y-50385264D01*
X90349443Y-50373719D01*
X90345206Y-50364991D01*
X90342047Y-50358877D01*
X90339874Y-50355173D01*
X90338596Y-50353677D01*
X90338122Y-50354183D01*
X90338031Y-50355987D01*
X90337730Y-50363082D01*
X90337245Y-50375140D01*
X90336586Y-50391863D01*
X90335764Y-50412954D01*
X90334793Y-50438116D01*
X90333682Y-50467050D01*
X90332442Y-50499461D01*
X90331087Y-50535050D01*
X90329626Y-50573521D01*
X90328071Y-50614576D01*
X90326433Y-50657917D01*
X90324724Y-50703249D01*
X90322956Y-50750272D01*
X90321139Y-50798691D01*
X90320076Y-50826993D01*
X90317955Y-50883204D01*
X90316009Y-50934311D01*
X90314227Y-50980547D01*
X90312598Y-51022149D01*
X90311111Y-51059352D01*
X90309756Y-51092391D01*
X90308522Y-51121502D01*
X90307398Y-51146920D01*
X90306373Y-51168880D01*
X90305436Y-51187618D01*
X90304577Y-51203370D01*
X90303784Y-51216369D01*
X90303047Y-51226853D01*
X90302355Y-51235056D01*
X90301697Y-51241213D01*
X90301063Y-51245561D01*
X90300441Y-51248333D01*
X90297374Y-51256446D01*
X90288143Y-51270775D01*
X90275709Y-51281859D01*
X90260978Y-51289525D01*
X90244857Y-51293599D01*
X90228252Y-51293909D01*
X90212069Y-51290281D01*
X90197215Y-51282540D01*
X90184596Y-51270514D01*
X90184363Y-51270177D01*
X90181803Y-51265821D01*
X90176817Y-51256929D01*
X90169526Y-51243722D01*
X90160049Y-51226421D01*
X90148507Y-51205250D01*
X90135018Y-51180429D01*
X90119703Y-51152181D01*
X90102683Y-51120728D01*
X90084076Y-51086291D01*
X90064003Y-51049093D01*
X90042584Y-51009354D01*
X90019938Y-50967298D01*
X89996186Y-50923146D01*
X89971447Y-50877120D01*
X89945842Y-50829442D01*
X89919490Y-50780334D01*
X89892511Y-50730018D01*
X89885214Y-50716405D01*
X89858498Y-50666573D01*
X89832494Y-50618092D01*
X89807320Y-50571177D01*
X89783091Y-50526043D01*
X89759924Y-50482909D01*
X89737936Y-50441989D01*
X89717243Y-50403500D01*
X89697961Y-50367657D01*
X89680206Y-50334678D01*
X89664095Y-50304779D01*
X89649745Y-50278174D01*
X89637271Y-50255082D01*
X89626790Y-50235717D01*
X89618419Y-50220296D01*
X89612273Y-50209036D01*
X89608470Y-50202152D01*
X89607125Y-50199861D01*
X89606737Y-50201945D01*
X89605537Y-50209154D01*
X89603572Y-50221256D01*
X89600883Y-50237988D01*
X89597512Y-50259085D01*
X89593500Y-50284282D01*
X89588890Y-50313315D01*
X89583724Y-50345919D01*
X89578044Y-50381829D01*
X89571890Y-50420781D01*
X89565306Y-50462510D01*
X89558334Y-50506751D01*
X89551014Y-50553241D01*
X89543389Y-50601713D01*
X89535501Y-50651904D01*
X89527392Y-50703549D01*
X89520686Y-50746225D01*
X89512682Y-50797037D01*
X89504900Y-50846302D01*
X89497385Y-50893745D01*
X89490180Y-50939091D01*
X89483330Y-50982067D01*
X89476878Y-51022398D01*
X89470870Y-51059809D01*
X89465349Y-51094026D01*
X89460360Y-51124775D01*
X89455946Y-51151780D01*
X89452152Y-51174769D01*
X89449022Y-51193465D01*
X89446601Y-51207595D01*
X89444932Y-51216885D01*
X89444060Y-51221060D01*
X89440738Y-51229695D01*
X89431382Y-51243892D01*
X89418854Y-51254867D01*
X89404060Y-51262447D01*
X89387907Y-51266457D01*
X89371300Y-51266724D01*
X89355146Y-51263075D01*
X89340352Y-51255335D01*
X89327823Y-51243332D01*
X89327752Y-51243230D01*
X89325789Y-51239569D01*
X89321604Y-51231217D01*
X89315299Y-51218388D01*
X89306977Y-51201299D01*
X89296742Y-51180163D01*
X89284696Y-51155198D01*
X89270943Y-51126617D01*
X89255586Y-51094636D01*
X89238728Y-51059470D01*
X89220472Y-51021336D01*
X89200921Y-50980447D01*
X89180179Y-50937019D01*
X89158348Y-50891268D01*
X89135532Y-50843409D01*
X89111834Y-50793656D01*
X89087357Y-50742227D01*
X89062203Y-50689334D01*
X89036478Y-50635195D01*
X89033953Y-50629880D01*
X89000221Y-50558896D01*
X88968771Y-50492772D01*
X88939567Y-50431436D01*
X88912576Y-50374815D01*
X88887762Y-50322839D01*
X88865090Y-50275434D01*
X88844527Y-50232528D01*
X88826036Y-50194051D01*
X88809584Y-50159928D01*
X88795136Y-50130089D01*
X88782656Y-50104462D01*
X88772111Y-50082973D01*
X88763465Y-50065552D01*
X88756684Y-50052125D01*
X88751732Y-50042622D01*
X88749395Y-50038436D01*
X88903669Y-50038436D01*
X88904502Y-50040224D01*
X88907566Y-50046709D01*
X88912764Y-50057682D01*
X88919982Y-50072898D01*
X88929102Y-50092112D01*
X88940007Y-50115080D01*
X88952583Y-50141556D01*
X88966712Y-50171296D01*
X88982278Y-50204054D01*
X88999165Y-50239587D01*
X89017256Y-50277648D01*
X89036435Y-50317993D01*
X89056585Y-50360378D01*
X89077591Y-50404556D01*
X89099336Y-50450284D01*
X89121703Y-50497316D01*
X89132048Y-50519069D01*
X89158245Y-50574148D01*
X89182233Y-50624578D01*
X89204110Y-50670560D01*
X89223971Y-50712297D01*
X89241915Y-50749990D01*
X89258038Y-50783841D01*
X89272436Y-50814053D01*
X89285207Y-50840827D01*
X89296448Y-50864365D01*
X89306255Y-50884869D01*
X89314725Y-50902542D01*
X89321955Y-50917584D01*
X89328043Y-50930199D01*
X89333084Y-50940587D01*
X89337176Y-50948951D01*
X89340415Y-50955493D01*
X89342899Y-50960415D01*
X89344724Y-50963918D01*
X89345988Y-50966205D01*
X89346786Y-50967478D01*
X89347216Y-50967938D01*
X89347376Y-50967788D01*
X89347404Y-50967601D01*
X89348039Y-50963565D01*
X89349470Y-50954483D01*
X89351653Y-50940630D01*
X89354546Y-50922283D01*
X89358104Y-50899718D01*
X89362284Y-50873210D01*
X89367043Y-50843035D01*
X89372336Y-50809471D01*
X89378121Y-50772791D01*
X89384354Y-50733274D01*
X89390991Y-50691194D01*
X89397990Y-50646828D01*
X89405305Y-50600451D01*
X89412894Y-50552340D01*
X89420714Y-50502771D01*
X89422577Y-50490956D01*
X89430336Y-50441694D01*
X89437840Y-50393950D01*
X89445047Y-50347998D01*
X89451913Y-50304116D01*
X89458396Y-50262579D01*
X89464453Y-50223665D01*
X89470041Y-50187650D01*
X89475118Y-50154811D01*
X89479640Y-50125423D01*
X89483566Y-50099764D01*
X89486852Y-50078109D01*
X89489455Y-50060737D01*
X89491333Y-50047922D01*
X89492442Y-50039942D01*
X89492556Y-50038852D01*
X89677410Y-50038852D01*
X89677430Y-50038905D01*
X89679016Y-50041974D01*
X89683041Y-50049588D01*
X89689380Y-50061514D01*
X89697909Y-50077520D01*
X89708503Y-50097373D01*
X89721039Y-50120841D01*
X89735391Y-50147692D01*
X89751435Y-50177692D01*
X89769047Y-50210610D01*
X89788103Y-50246212D01*
X89808478Y-50284267D01*
X89830048Y-50324541D01*
X89852689Y-50366803D01*
X89876275Y-50410819D01*
X89900684Y-50456358D01*
X89925789Y-50503187D01*
X89928787Y-50508778D01*
X89953846Y-50555501D01*
X89978217Y-50600919D01*
X90001775Y-50644799D01*
X90024392Y-50686909D01*
X90045945Y-50727013D01*
X90066305Y-50764878D01*
X90085349Y-50800272D01*
X90102950Y-50832959D01*
X90118982Y-50862707D01*
X90133319Y-50889282D01*
X90145836Y-50912451D01*
X90156406Y-50931979D01*
X90164904Y-50947633D01*
X90171205Y-50959179D01*
X90175181Y-50966385D01*
X90176708Y-50969015D01*
X90177936Y-50968570D01*
X90178904Y-50963495D01*
X90179249Y-50954014D01*
X90179256Y-50953005D01*
X90179416Y-50946025D01*
X90179771Y-50934174D01*
X90180307Y-50917809D01*
X90181010Y-50897285D01*
X90181867Y-50872958D01*
X90182865Y-50845184D01*
X90183988Y-50814319D01*
X90185225Y-50780719D01*
X90186561Y-50744739D01*
X90187982Y-50706736D01*
X90189474Y-50667066D01*
X90191025Y-50626084D01*
X90192620Y-50584147D01*
X90194245Y-50541610D01*
X90195888Y-50498830D01*
X90197534Y-50456161D01*
X90199169Y-50413961D01*
X90200780Y-50372584D01*
X90202354Y-50332388D01*
X90203876Y-50293728D01*
X90205333Y-50256959D01*
X90206710Y-50222438D01*
X90207996Y-50190520D01*
X90209175Y-50161563D01*
X90210234Y-50135920D01*
X90211159Y-50113949D01*
X90211937Y-50096006D01*
X90212555Y-50082445D01*
X90212997Y-50073624D01*
X90213251Y-50069898D01*
X90213341Y-50061112D01*
X90210331Y-50048761D01*
X90205927Y-50037754D01*
X89941668Y-50037754D01*
X89925131Y-50037757D01*
X89888321Y-50037777D01*
X89853256Y-50037818D01*
X89820306Y-50037878D01*
X89789844Y-50037955D01*
X89762241Y-50038048D01*
X89737866Y-50038155D01*
X89717091Y-50038275D01*
X89700287Y-50038407D01*
X89687824Y-50038548D01*
X89680075Y-50038697D01*
X89677410Y-50038852D01*
X89492556Y-50038852D01*
X89492741Y-50037073D01*
X89492716Y-50037052D01*
X89489514Y-50036778D01*
X89481236Y-50036515D01*
X89468235Y-50036265D01*
X89450864Y-50036031D01*
X89429475Y-50035816D01*
X89404423Y-50035621D01*
X89376060Y-50035450D01*
X89344740Y-50035304D01*
X89310814Y-50035187D01*
X89274637Y-50035100D01*
X89236561Y-50035046D01*
X89196940Y-50035027D01*
X89154675Y-50035036D01*
X89111163Y-50035068D01*
X89072626Y-50035128D01*
X89038807Y-50035218D01*
X89009449Y-50035341D01*
X88984296Y-50035501D01*
X88963091Y-50035700D01*
X88945578Y-50035940D01*
X88931501Y-50036226D01*
X88920602Y-50036560D01*
X88912626Y-50036945D01*
X88907316Y-50037384D01*
X88904416Y-50037880D01*
X88903669Y-50038436D01*
X88749395Y-50038436D01*
X88748576Y-50036969D01*
X88747180Y-50035095D01*
X88738986Y-50033789D01*
X88726970Y-50029300D01*
X88714949Y-50022566D01*
X88704968Y-50014581D01*
X88702846Y-50012519D01*
X88700169Y-50009985D01*
X88697775Y-50007554D01*
X88695647Y-50004934D01*
X88693766Y-50001831D01*
X88692115Y-49997953D01*
X88690677Y-49993008D01*
X88689435Y-49986704D01*
X88688371Y-49978747D01*
X88687468Y-49968846D01*
X88686708Y-49956707D01*
X88686074Y-49942039D01*
X88685549Y-49924549D01*
X88685115Y-49903944D01*
X88684754Y-49879931D01*
X88684451Y-49852220D01*
X88684186Y-49820516D01*
X88683943Y-49784528D01*
X88683704Y-49743962D01*
X88683453Y-49698527D01*
X88683170Y-49647930D01*
X88681300Y-49319472D01*
X88545241Y-49127168D01*
X88431738Y-48966744D01*
X88601070Y-48966744D01*
X88601340Y-48967391D01*
X88604119Y-48971841D01*
X88609678Y-48980186D01*
X88617761Y-48992059D01*
X88628113Y-49007092D01*
X88640479Y-49024916D01*
X88654604Y-49045164D01*
X88670234Y-49067468D01*
X88687113Y-49091458D01*
X88704986Y-49116768D01*
X88712918Y-49127995D01*
X88730630Y-49153175D01*
X88747353Y-49177098D01*
X88762815Y-49199365D01*
X88776744Y-49219580D01*
X88788867Y-49237344D01*
X88798912Y-49252259D01*
X88806606Y-49263926D01*
X88811679Y-49271949D01*
X88813856Y-49275928D01*
X88813926Y-49276139D01*
X88814515Y-49278989D01*
X88815056Y-49283792D01*
X88815553Y-49290818D01*
X88816011Y-49300335D01*
X88816434Y-49312615D01*
X88816828Y-49327924D01*
X88817197Y-49346534D01*
X88817547Y-49368714D01*
X88817881Y-49394732D01*
X88818205Y-49424858D01*
X88818524Y-49459361D01*
X88818842Y-49498511D01*
X88819165Y-49542578D01*
X88819496Y-49591829D01*
X88819574Y-49603855D01*
X88819840Y-49643769D01*
X88820102Y-49682029D01*
X88820358Y-49718292D01*
X88820605Y-49752210D01*
X88820840Y-49783439D01*
X88821061Y-49811632D01*
X88821265Y-49836444D01*
X88821449Y-49857530D01*
X88821610Y-49874544D01*
X88821745Y-49887140D01*
X88821853Y-49894973D01*
X88821930Y-49897696D01*
X88824299Y-49897736D01*
X88831904Y-49897794D01*
X88844531Y-49897867D01*
X88861955Y-49897955D01*
X88883953Y-49898057D01*
X88910299Y-49898171D01*
X88940769Y-49898296D01*
X88975140Y-49898433D01*
X89013187Y-49898580D01*
X89054686Y-49898737D01*
X89099412Y-49898901D01*
X89147142Y-49899074D01*
X89197650Y-49899253D01*
X89250712Y-49899438D01*
X89306106Y-49899628D01*
X89363605Y-49899823D01*
X89422986Y-49900021D01*
X89484024Y-49900221D01*
X89546496Y-49900423D01*
X90270613Y-49902750D01*
X90283475Y-49910311D01*
X90287910Y-49913171D01*
X90296613Y-49920036D01*
X90303034Y-49926675D01*
X90303660Y-49927909D01*
X90306376Y-49933834D01*
X90311126Y-49944445D01*
X90317826Y-49959548D01*
X90326390Y-49978947D01*
X90336733Y-50002446D01*
X90348771Y-50029852D01*
X90351938Y-50037073D01*
X90362418Y-50060968D01*
X90362481Y-50061112D01*
X90377590Y-50095599D01*
X90394201Y-50133550D01*
X90412166Y-50174625D01*
X90431400Y-50218629D01*
X90451819Y-50265368D01*
X90473337Y-50314645D01*
X90495870Y-50366265D01*
X90519331Y-50420034D01*
X90543638Y-50475755D01*
X90568703Y-50533234D01*
X90594443Y-50592275D01*
X90620772Y-50652682D01*
X90647605Y-50714262D01*
X90674858Y-50776818D01*
X90702445Y-50840155D01*
X90730281Y-50904077D01*
X90758281Y-50968390D01*
X90786361Y-51032899D01*
X90814435Y-51097407D01*
X90842419Y-51161720D01*
X90870226Y-51225642D01*
X90897773Y-51288978D01*
X90924974Y-51351533D01*
X90951745Y-51413112D01*
X90977999Y-51473518D01*
X91003653Y-51532558D01*
X91028621Y-51590035D01*
X91052819Y-51645755D01*
X91076161Y-51699521D01*
X91098562Y-51751139D01*
X91119937Y-51800414D01*
X91140201Y-51847150D01*
X91159270Y-51891152D01*
X91177058Y-51932224D01*
X91193480Y-51970172D01*
X91208451Y-52004799D01*
X91221887Y-52035912D01*
X91233702Y-52063313D01*
X91243811Y-52086809D01*
X91249316Y-52099646D01*
X91252129Y-52106204D01*
X91258571Y-52121303D01*
X91263053Y-52131909D01*
X91265489Y-52137829D01*
X91268691Y-52146348D01*
X91271510Y-52156046D01*
X91272526Y-52164533D01*
X91272133Y-52173968D01*
X91271873Y-52176394D01*
X91267026Y-52194800D01*
X91257606Y-52210547D01*
X91244051Y-52223079D01*
X91226794Y-52231840D01*
X91225843Y-52232089D01*
X91223820Y-52232401D01*
X91220785Y-52232695D01*
X91216596Y-52232974D01*
X91211108Y-52233237D01*
X91204179Y-52233484D01*
X91195666Y-52233716D01*
X91185425Y-52233934D01*
X91173312Y-52234137D01*
X91159184Y-52234328D01*
X91142899Y-52234505D01*
X91124312Y-52234669D01*
X91103280Y-52234821D01*
X91079661Y-52234962D01*
X91053310Y-52235092D01*
X91024084Y-52235210D01*
X90991841Y-52235319D01*
X90956436Y-52235418D01*
X90917726Y-52235507D01*
X90875568Y-52235588D01*
X90829819Y-52235660D01*
X90780335Y-52235724D01*
X90726973Y-52235781D01*
X90669590Y-52235831D01*
X90608042Y-52235875D01*
X90542185Y-52235912D01*
X90471878Y-52235944D01*
X90396976Y-52235971D01*
X90317335Y-52235994D01*
X90232814Y-52236012D01*
X90143267Y-52236027D01*
X90048553Y-52236038D01*
X89948527Y-52236047D01*
X88681919Y-52236140D01*
X88681919Y-52938149D01*
X88681919Y-53640157D01*
X88798508Y-53754934D01*
X88915096Y-53869710D01*
X89466032Y-53869253D01*
X89500645Y-53869223D01*
X89561970Y-53869168D01*
X89626486Y-53869108D01*
X89694028Y-53869041D01*
X89764429Y-53868969D01*
X89837522Y-53868891D01*
X89913143Y-53868808D01*
X89991124Y-53868720D01*
X90071298Y-53868628D01*
X90153501Y-53868531D01*
X90237565Y-53868430D01*
X90323325Y-53868326D01*
X90410613Y-53868217D01*
X90499264Y-53868105D01*
X90589111Y-53867991D01*
X90679989Y-53867873D01*
X90771730Y-53867752D01*
X90864169Y-53867629D01*
X90957139Y-53867504D01*
X91050474Y-53867377D01*
X91144008Y-53867248D01*
X91237575Y-53867118D01*
X91331007Y-53866987D01*
X91424140Y-53866855D01*
X91516806Y-53866721D01*
X91608839Y-53866588D01*
X91700073Y-53866454D01*
X91790343Y-53866321D01*
X91879480Y-53866187D01*
X91967320Y-53866055D01*
X92053696Y-53865922D01*
X92138442Y-53865791D01*
X92221391Y-53865662D01*
X92302377Y-53865533D01*
X92381234Y-53865407D01*
X92457795Y-53865282D01*
X92531895Y-53865160D01*
X92603366Y-53865040D01*
X92672044Y-53864923D01*
X92737761Y-53864809D01*
X92800351Y-53864698D01*
X92859648Y-53864591D01*
X92915485Y-53864487D01*
X92967697Y-53864387D01*
X93016117Y-53864292D01*
X93060579Y-53864201D01*
X93100916Y-53864114D01*
X93136962Y-53864033D01*
X93168551Y-53863957D01*
X93195517Y-53863886D01*
X93217694Y-53863821D01*
X93234914Y-53863762D01*
X93247012Y-53863709D01*
X93253822Y-53863662D01*
X93326927Y-53862891D01*
X93073816Y-53795302D01*
X93061921Y-53792123D01*
X93025954Y-53782471D01*
X92991427Y-53773148D01*
X92958723Y-53764261D01*
X92928225Y-53755917D01*
X92900317Y-53748223D01*
X92875382Y-53741284D01*
X92853803Y-53735207D01*
X92835964Y-53730098D01*
X92822249Y-53726065D01*
X92813040Y-53723214D01*
X92808722Y-53721651D01*
X92805758Y-53719998D01*
X92796524Y-53713335D01*
X92789164Y-53706055D01*
X92788379Y-53704662D01*
X92785210Y-53698578D01*
X92779697Y-53687798D01*
X92771897Y-53672430D01*
X92761864Y-53652585D01*
X92749654Y-53628373D01*
X92735320Y-53599904D01*
X92718919Y-53567288D01*
X92700505Y-53530636D01*
X92680134Y-53490057D01*
X92657861Y-53445661D01*
X92633740Y-53397560D01*
X92607828Y-53345861D01*
X92580178Y-53290677D01*
X92550846Y-53232116D01*
X92519888Y-53170289D01*
X92487357Y-53105307D01*
X92453310Y-53037278D01*
X92417802Y-52966314D01*
X92380887Y-52892524D01*
X92342620Y-52816018D01*
X92303058Y-52736906D01*
X92262254Y-52655300D01*
X92220264Y-52571307D01*
X92177143Y-52485040D01*
X92132946Y-52396607D01*
X92087729Y-52306120D01*
X92041545Y-52213687D01*
X91994452Y-52119419D01*
X91946502Y-52023426D01*
X91897752Y-51925819D01*
X91848257Y-51826707D01*
X91798072Y-51726200D01*
X91747251Y-51624409D01*
X91695850Y-51521444D01*
X90610113Y-49346366D01*
X90470364Y-49207961D01*
X90460289Y-49197985D01*
X90435270Y-49173237D01*
X90410142Y-49148411D01*
X90385401Y-49123997D01*
X90361546Y-49100484D01*
X90339074Y-49078363D01*
X90318484Y-49058125D01*
X90300272Y-49040258D01*
X90284936Y-49025254D01*
X90272974Y-49013602D01*
X90215334Y-48957648D01*
X89408852Y-48961546D01*
X89344420Y-48961862D01*
X89279824Y-48962186D01*
X89216853Y-48962511D01*
X89155719Y-48962835D01*
X89096635Y-48963157D01*
X89039814Y-48963474D01*
X88985468Y-48963786D01*
X88933811Y-48964092D01*
X88885055Y-48964389D01*
X88839412Y-48964678D01*
X88797097Y-48964955D01*
X88758321Y-48965220D01*
X88723297Y-48965472D01*
X88692238Y-48965709D01*
X88665358Y-48965930D01*
X88642868Y-48966134D01*
X88624981Y-48966318D01*
X88611911Y-48966482D01*
X88603870Y-48966625D01*
X88601070Y-48966744D01*
X88431738Y-48966744D01*
X88409182Y-48934863D01*
X88409182Y-48896775D01*
X88409182Y-48858686D01*
X88419914Y-48848477D01*
X88420811Y-48847574D01*
X88422230Y-48845913D01*
X88423377Y-48844359D01*
X88424426Y-48842907D01*
X88425551Y-48841553D01*
X88426926Y-48840294D01*
X88428724Y-48839124D01*
X88431117Y-48838039D01*
X88434281Y-48837036D01*
X88438388Y-48836109D01*
X88443612Y-48835255D01*
X88450126Y-48834469D01*
X88458104Y-48833748D01*
X88467720Y-48833085D01*
X88479147Y-48832479D01*
X88492558Y-48831923D01*
X88508126Y-48831415D01*
X88526027Y-48830948D01*
X88546432Y-48830521D01*
X88569516Y-48830127D01*
X88595452Y-48829763D01*
X88624413Y-48829424D01*
X88656573Y-48829106D01*
X88692106Y-48828805D01*
X88731185Y-48828517D01*
X88773983Y-48828237D01*
X88820674Y-48827962D01*
X88871432Y-48827685D01*
X88926430Y-48827405D01*
X88985842Y-48827115D01*
X89049840Y-48826812D01*
X89118599Y-48826492D01*
X89192293Y-48826151D01*
X89271094Y-48825783D01*
X89355176Y-48825385D01*
X89402865Y-48825157D01*
X89483094Y-48824776D01*
X89558143Y-48824424D01*
X89628187Y-48824099D01*
X89693403Y-48823803D01*
X89753964Y-48823534D01*
X89810047Y-48823295D01*
X89861827Y-48823083D01*
X89909480Y-48822900D01*
X89953181Y-48822745D01*
X89993105Y-48822619D01*
X90029428Y-48822522D01*
X90062326Y-48822454D01*
X90091974Y-48822414D01*
X90118547Y-48822403D01*
X90142220Y-48822421D01*
X90163170Y-48822469D01*
X90181571Y-48822545D01*
X90197600Y-48822650D01*
X90211431Y-48822785D01*
X90223240Y-48822949D01*
X90233203Y-48823142D01*
X90241494Y-48823365D01*
X90248290Y-48823618D01*
X90253766Y-48823900D01*
X90258096Y-48824211D01*
X90261458Y-48824553D01*
X90264025Y-48824924D01*
X90265975Y-48825325D01*
X90267481Y-48825756D01*
X90268319Y-48826059D01*
X90270681Y-48827153D01*
X90273550Y-48828857D01*
X90277095Y-48831332D01*
X90281484Y-48834741D01*
X90286884Y-48839244D01*
X90293464Y-48845004D01*
X90301391Y-48852182D01*
X90310834Y-48860941D01*
X90321961Y-48871442D01*
X90334939Y-48883848D01*
X90349937Y-48898319D01*
X90367122Y-48915018D01*
X90386663Y-48934107D01*
X90408728Y-48955748D01*
X90433485Y-48980101D01*
X90461101Y-49007331D01*
X90491745Y-49037597D01*
X90525584Y-49071062D01*
X90562788Y-49107888D01*
X90603523Y-49148237D01*
X90647958Y-49192270D01*
X90723633Y-49267272D01*
X91806129Y-51436214D01*
X91838919Y-51501910D01*
X91889834Y-51603919D01*
X91940121Y-51704663D01*
X91989727Y-51804034D01*
X92038594Y-51901922D01*
X92086670Y-51998216D01*
X92133899Y-52092809D01*
X92180227Y-52185589D01*
X92225598Y-52276447D01*
X92269958Y-52365274D01*
X92313252Y-52451960D01*
X92355425Y-52536395D01*
X92396423Y-52618471D01*
X92436190Y-52698076D01*
X92474673Y-52775103D01*
X92511816Y-52849440D01*
X92547564Y-52920979D01*
X92581863Y-52989610D01*
X92614658Y-53055223D01*
X92645894Y-53117708D01*
X92675516Y-53176957D01*
X92703470Y-53232859D01*
X92729701Y-53285305D01*
X92754154Y-53334186D01*
X92776774Y-53379391D01*
X92797506Y-53420811D01*
X92816296Y-53458336D01*
X92833089Y-53491858D01*
X92847830Y-53521265D01*
X92860465Y-53546450D01*
X92870938Y-53567301D01*
X92879195Y-53583710D01*
X92885181Y-53595567D01*
X92888841Y-53602762D01*
X92890121Y-53605185D01*
X92891243Y-53605454D01*
X92897109Y-53606973D01*
X92907668Y-53609751D01*
X92922566Y-53613692D01*
X92941449Y-53618703D01*
X92963960Y-53624689D01*
X92989745Y-53631556D01*
X93018448Y-53639208D01*
X93049715Y-53647551D01*
X93083189Y-53656491D01*
X93118517Y-53665934D01*
X93155342Y-53675784D01*
X93166061Y-53678654D01*
X93212724Y-53691191D01*
X93255180Y-53702673D01*
X93293309Y-53713066D01*
X93326992Y-53722336D01*
X93356109Y-53730449D01*
X93380541Y-53737374D01*
X93400167Y-53743075D01*
X93414869Y-53747519D01*
X93424527Y-53750673D01*
X93429021Y-53752503D01*
X93431607Y-53754274D01*
X93439808Y-53761458D01*
X93446896Y-53769590D01*
X93454817Y-53780525D01*
X93454817Y-53862891D01*
X93454817Y-53878103D01*
G37*
D13*
%TO.C,R18*%
X120285742Y-87136500D02*
X120760258Y-87136500D01*
X120285742Y-86091500D02*
X120760258Y-86091500D01*
%TO.C,R17*%
X84725742Y-87136500D02*
X85200258Y-87136500D01*
X84725742Y-86091500D02*
X85200258Y-86091500D01*
D12*
%TO.C,D7*%
X117094000Y-85852000D02*
X114046000Y-85852000D01*
X116332000Y-86868000D02*
X114808000Y-86868000D01*
%TO.C,D6*%
X81280000Y-85852000D02*
X78232000Y-85852000D01*
X80518000Y-86868000D02*
X78994000Y-86868000D01*
%TO.C,G\u002A\u002A\u002A*%
G36*
X76966229Y-52726795D02*
G01*
X77331184Y-52727321D01*
X77589548Y-52976243D01*
X77847912Y-53225166D01*
X77847912Y-54135434D01*
X77847912Y-55045703D01*
X77589548Y-55294626D01*
X77331184Y-55543548D01*
X76966229Y-55544074D01*
X76601274Y-55544601D01*
X76348776Y-55305377D01*
X76339099Y-55296185D01*
X76261593Y-55220848D01*
X76193399Y-55151624D01*
X76138633Y-55092910D01*
X76101411Y-55049100D01*
X76085847Y-55024589D01*
X76084035Y-55012512D01*
X76094885Y-54966816D01*
X76126004Y-54929716D01*
X76167596Y-54914414D01*
X76189091Y-54925988D01*
X76231044Y-54958364D01*
X76288918Y-55007710D01*
X76358219Y-55070194D01*
X76434452Y-55141982D01*
X76671217Y-55369549D01*
X76966190Y-55368865D01*
X77261163Y-55368182D01*
X77466849Y-55168294D01*
X77672535Y-54968406D01*
X77672535Y-54135434D01*
X77672535Y-53302462D01*
X77466849Y-53102575D01*
X77261163Y-52902687D01*
X76966190Y-52902003D01*
X76671217Y-52901320D01*
X76434452Y-53128887D01*
X76358537Y-53200382D01*
X76289196Y-53262914D01*
X76231263Y-53312326D01*
X76189231Y-53344783D01*
X76167596Y-53356454D01*
X76155913Y-53355226D01*
X76116178Y-53332750D01*
X76089557Y-53292034D01*
X76085847Y-53246280D01*
X76086431Y-53244514D01*
X76104795Y-53217469D01*
X76144328Y-53171649D01*
X76200912Y-53111450D01*
X76270434Y-53041266D01*
X76348776Y-52965492D01*
X76601274Y-52726268D01*
X76966229Y-52726795D01*
G37*
G36*
X79131772Y-52726281D02*
G01*
X79296044Y-52726523D01*
X79429623Y-52727171D01*
X79535786Y-52728352D01*
X79617812Y-52730194D01*
X79678981Y-52732824D01*
X79722571Y-52736370D01*
X79751861Y-52740959D01*
X79770130Y-52746719D01*
X79780657Y-52753776D01*
X79796326Y-52775274D01*
X79808165Y-52813794D01*
X79806372Y-52837758D01*
X79796349Y-52861905D01*
X79773533Y-52879119D01*
X79733486Y-52890533D01*
X79671768Y-52897282D01*
X79583940Y-52900499D01*
X79465564Y-52901320D01*
X79177979Y-52901320D01*
X79177979Y-54184055D01*
X79177921Y-54417099D01*
X79177703Y-54631503D01*
X79177275Y-54815513D01*
X79176590Y-54971500D01*
X79175597Y-55101836D01*
X79174248Y-55208894D01*
X79172494Y-55295043D01*
X79170286Y-55362657D01*
X79167576Y-55414107D01*
X79164314Y-55451764D01*
X79160451Y-55478000D01*
X79155939Y-55495186D01*
X79150729Y-55505695D01*
X79112440Y-55536433D01*
X79065244Y-55543236D01*
X79023934Y-55523594D01*
X79020854Y-55516149D01*
X79017062Y-55491033D01*
X79013791Y-55447088D01*
X79011012Y-55382516D01*
X79008695Y-55295520D01*
X79006814Y-55184302D01*
X79005339Y-55047064D01*
X79004241Y-54882008D01*
X79003492Y-54687336D01*
X79003064Y-54461251D01*
X79002928Y-54201954D01*
X79002928Y-52901320D01*
X78697838Y-52901320D01*
X78695541Y-52901320D01*
X78574490Y-52900576D01*
X78484007Y-52897676D01*
X78419738Y-52891562D01*
X78377330Y-52881174D01*
X78352428Y-52865456D01*
X78340680Y-52843349D01*
X78337731Y-52813794D01*
X78342663Y-52790344D01*
X78365239Y-52753776D01*
X78367928Y-52751398D01*
X78380548Y-52744764D01*
X78401945Y-52739389D01*
X78435400Y-52735143D01*
X78484191Y-52731900D01*
X78551597Y-52729533D01*
X78640897Y-52727913D01*
X78755369Y-52726915D01*
X78898293Y-52726409D01*
X79072948Y-52726268D01*
X79131772Y-52726281D01*
G37*
G36*
X84231982Y-48156918D02*
G01*
X84233437Y-48241670D01*
X84234577Y-48345270D01*
X84235441Y-48469736D01*
X84236068Y-48617091D01*
X84236496Y-48789354D01*
X84236762Y-48988545D01*
X84236905Y-49216685D01*
X84236962Y-49475795D01*
X84236973Y-49767895D01*
X84236972Y-49898668D01*
X84236945Y-50176222D01*
X84236855Y-50421662D01*
X84236664Y-50637008D01*
X84236332Y-50824281D01*
X84235823Y-50985500D01*
X84235098Y-51122687D01*
X84234119Y-51237863D01*
X84232847Y-51333046D01*
X84231245Y-51410258D01*
X84229275Y-51471519D01*
X84226898Y-51518850D01*
X84224076Y-51554271D01*
X84220772Y-51579803D01*
X84216946Y-51597465D01*
X84212562Y-51609279D01*
X84207580Y-51617265D01*
X84201963Y-51623443D01*
X84196637Y-51628474D01*
X84186333Y-51635731D01*
X84171570Y-51641711D01*
X84149291Y-51646539D01*
X84116442Y-51650338D01*
X84069969Y-51653230D01*
X84006815Y-51655339D01*
X83923926Y-51656789D01*
X83818247Y-51657702D01*
X83686722Y-51658201D01*
X83526297Y-51658411D01*
X83333917Y-51658453D01*
X82500883Y-51658453D01*
X82408324Y-51566551D01*
X82395485Y-51553727D01*
X82347708Y-51505438D01*
X82282594Y-51439112D01*
X82205170Y-51359889D01*
X82120463Y-51272910D01*
X82033502Y-51183315D01*
X81751239Y-50891982D01*
X81751239Y-50809097D01*
X81978806Y-50809097D01*
X82289341Y-51119992D01*
X82599875Y-51430886D01*
X83304640Y-51430886D01*
X84009406Y-51430886D01*
X84009406Y-49767895D01*
X84009406Y-48104904D01*
X83304550Y-48104904D01*
X82599694Y-48104904D01*
X82289250Y-48403939D01*
X81978806Y-48702975D01*
X81978806Y-49756036D01*
X81978806Y-50809097D01*
X81751239Y-50809097D01*
X81751239Y-49756106D01*
X81751239Y-48620231D01*
X82124155Y-48248784D01*
X82497070Y-47877337D01*
X83332011Y-47877337D01*
X83454541Y-47877350D01*
X83627122Y-47877480D01*
X83769623Y-47877852D01*
X83885095Y-47878588D01*
X83976589Y-47879813D01*
X84047156Y-47881647D01*
X84099847Y-47884215D01*
X84137714Y-47887638D01*
X84163807Y-47892040D01*
X84181179Y-47897544D01*
X84192881Y-47904272D01*
X84201963Y-47912347D01*
X84204478Y-47914932D01*
X84209815Y-47921645D01*
X84214533Y-47931042D01*
X84218671Y-47945142D01*
X84222266Y-47965967D01*
X84225356Y-47995537D01*
X84227980Y-48035871D01*
X84230176Y-48088991D01*
X84230599Y-48104904D01*
X84231982Y-48156918D01*
G37*
G36*
X75525344Y-52731200D02*
G01*
X75561912Y-52753776D01*
X75564388Y-52756820D01*
X75569187Y-52767450D01*
X75573339Y-52785575D01*
X75576891Y-52813489D01*
X75579887Y-52853484D01*
X75582375Y-52907854D01*
X75584399Y-52978891D01*
X75586005Y-53068888D01*
X75587238Y-53180139D01*
X75588145Y-53314935D01*
X75588771Y-53475569D01*
X75589162Y-53664336D01*
X75589363Y-53883526D01*
X75589420Y-54135434D01*
X75589408Y-54257363D01*
X75589290Y-54493698D01*
X75589006Y-54698386D01*
X75588511Y-54873722D01*
X75587759Y-55021998D01*
X75586705Y-55145506D01*
X75585304Y-55246540D01*
X75583508Y-55327392D01*
X75581273Y-55390355D01*
X75578553Y-55437723D01*
X75575303Y-55471788D01*
X75571476Y-55494842D01*
X75567028Y-55509179D01*
X75561912Y-55517092D01*
X75540414Y-55532761D01*
X75501894Y-55544601D01*
X75478444Y-55539668D01*
X75441876Y-55517092D01*
X75439086Y-55513967D01*
X75431079Y-55498853D01*
X75424967Y-55473448D01*
X75420507Y-55433630D01*
X75417459Y-55375282D01*
X75415581Y-55294284D01*
X75414631Y-55186517D01*
X75414368Y-55047861D01*
X75414368Y-54606137D01*
X75215746Y-54410172D01*
X75017125Y-54214208D01*
X74801687Y-54214208D01*
X74586249Y-54214208D01*
X74387628Y-54410172D01*
X74189006Y-54606137D01*
X74189006Y-55047861D01*
X74188985Y-55092691D01*
X74188543Y-55221703D01*
X74187341Y-55321056D01*
X74185139Y-55394868D01*
X74181696Y-55447258D01*
X74176768Y-55482346D01*
X74170116Y-55504251D01*
X74161498Y-55517092D01*
X74140000Y-55532761D01*
X74101480Y-55544601D01*
X74078030Y-55539668D01*
X74041463Y-55517092D01*
X74035851Y-55509862D01*
X74028756Y-55492260D01*
X74023341Y-55463323D01*
X74019390Y-55419106D01*
X74016691Y-55355662D01*
X74015028Y-55269047D01*
X74014187Y-55155315D01*
X74013955Y-55010521D01*
X74013955Y-54531457D01*
X74254651Y-54294481D01*
X74495347Y-54057504D01*
X74801341Y-54057083D01*
X75107335Y-54056661D01*
X75260851Y-54209466D01*
X75414368Y-54362272D01*
X75414368Y-53571778D01*
X75414369Y-53548667D01*
X75414512Y-53363183D01*
X75414962Y-53209336D01*
X75415822Y-53084093D01*
X75417194Y-52984426D01*
X75419179Y-52907303D01*
X75421880Y-52849694D01*
X75425398Y-52808567D01*
X75429836Y-52780892D01*
X75435294Y-52763639D01*
X75441876Y-52753776D01*
X75463374Y-52738108D01*
X75501894Y-52726268D01*
X75525344Y-52731200D01*
G37*
G36*
X81554218Y-54577232D02*
G01*
X81613778Y-54759270D01*
X81668099Y-54925933D01*
X81716355Y-55074671D01*
X81757720Y-55202932D01*
X81791367Y-55308166D01*
X81816470Y-55387823D01*
X81832203Y-55439351D01*
X81837739Y-55460201D01*
X81833268Y-55482197D01*
X81811257Y-55517092D01*
X81786755Y-55534750D01*
X81738723Y-55542858D01*
X81695523Y-55521394D01*
X81686712Y-55505274D01*
X81667608Y-55459071D01*
X81640959Y-55388184D01*
X81608498Y-55297374D01*
X81571956Y-55191397D01*
X81533065Y-55075012D01*
X81393814Y-54651837D01*
X80883017Y-54651837D01*
X80372219Y-54651837D01*
X80306648Y-54831265D01*
X80266066Y-54942313D01*
X80210264Y-55094692D01*
X80164382Y-55218894D01*
X80127102Y-55317801D01*
X80097103Y-55394295D01*
X80073064Y-55451259D01*
X80053667Y-55491576D01*
X80037590Y-55518128D01*
X80023514Y-55533797D01*
X80010119Y-55541466D01*
X79996085Y-55544017D01*
X79980091Y-55544332D01*
X79943802Y-55532260D01*
X79910179Y-55501603D01*
X79895691Y-55466007D01*
X79898137Y-55453987D01*
X79910727Y-55410416D01*
X79933094Y-55339020D01*
X79964194Y-55242849D01*
X80002980Y-55124955D01*
X80048407Y-54988388D01*
X80099429Y-54836199D01*
X80155002Y-54671440D01*
X80214079Y-54497160D01*
X80221016Y-54476785D01*
X80404208Y-54476785D01*
X80869534Y-54476785D01*
X80918372Y-54476762D01*
X81050169Y-54476325D01*
X81151580Y-54475196D01*
X81226113Y-54473188D01*
X81277275Y-54470116D01*
X81308573Y-54465795D01*
X81323513Y-54460039D01*
X81325604Y-54452663D01*
X81324601Y-54449854D01*
X81314473Y-54419734D01*
X81295062Y-54361081D01*
X81267585Y-54277613D01*
X81233266Y-54173046D01*
X81193322Y-54051098D01*
X81148976Y-53915487D01*
X81101448Y-53769929D01*
X81086068Y-53722927D01*
X81039527Y-53582351D01*
X80996356Y-53454376D01*
X80957774Y-53342457D01*
X80925000Y-53250051D01*
X80899255Y-53180615D01*
X80881757Y-53137605D01*
X80873726Y-53124479D01*
X80873407Y-53124898D01*
X80864142Y-53146798D01*
X80845212Y-53197823D01*
X80817924Y-53274239D01*
X80783589Y-53372309D01*
X80743515Y-53488295D01*
X80699012Y-53618462D01*
X80651388Y-53759073D01*
X80648978Y-53766218D01*
X80601028Y-53908221D01*
X80556020Y-54041124D01*
X80515324Y-54160913D01*
X80480309Y-54263574D01*
X80452344Y-54345092D01*
X80432797Y-54401455D01*
X80423039Y-54428646D01*
X80404208Y-54476785D01*
X80221016Y-54476785D01*
X80275614Y-54316412D01*
X80338564Y-54132245D01*
X80401881Y-53947712D01*
X80464521Y-53765862D01*
X80525437Y-53589747D01*
X80583585Y-53422418D01*
X80637918Y-53266925D01*
X80687392Y-53126320D01*
X80730961Y-53003653D01*
X80767579Y-52901976D01*
X80796201Y-52824339D01*
X80815781Y-52773794D01*
X80825273Y-52753390D01*
X80832145Y-52746496D01*
X80863910Y-52728694D01*
X80904948Y-52735885D01*
X80911313Y-52738665D01*
X80920399Y-52745376D01*
X80930279Y-52757288D01*
X80941733Y-52776561D01*
X80955539Y-52805353D01*
X80972477Y-52845822D01*
X80993327Y-52900127D01*
X81018867Y-52970426D01*
X81049877Y-53058878D01*
X81087136Y-53167641D01*
X81131423Y-53298874D01*
X81183519Y-53454735D01*
X81244201Y-53637382D01*
X81314250Y-53848975D01*
X81394444Y-54091671D01*
X81422685Y-54177234D01*
X81490244Y-54382370D01*
X81513321Y-54452663D01*
X81554218Y-54577232D01*
G37*
G36*
X84116129Y-52746832D02*
G01*
X84141356Y-52784327D01*
X84141419Y-52784651D01*
X84138187Y-52809093D01*
X84126485Y-52864834D01*
X84106916Y-52949472D01*
X84080078Y-53060606D01*
X84046572Y-53195835D01*
X84007000Y-53352757D01*
X83961960Y-53528971D01*
X83912054Y-53722075D01*
X83857883Y-53929668D01*
X83800046Y-54149349D01*
X83784230Y-54209173D01*
X83729730Y-54415430D01*
X83678090Y-54611026D01*
X83629988Y-54793384D01*
X83586100Y-54959929D01*
X83547105Y-55108084D01*
X83513681Y-55235275D01*
X83486505Y-55338924D01*
X83466254Y-55416457D01*
X83453607Y-55465297D01*
X83449241Y-55482868D01*
X83443538Y-55492652D01*
X83421732Y-55517092D01*
X83395567Y-55536013D01*
X83348539Y-55541519D01*
X83305249Y-55513966D01*
X83299444Y-55504025D01*
X83281344Y-55463158D01*
X83254342Y-55395818D01*
X83220028Y-55306194D01*
X83179994Y-55198470D01*
X83135832Y-55076835D01*
X83089132Y-54945473D01*
X83059807Y-54862291D01*
X83016375Y-54739748D01*
X82977571Y-54631055D01*
X82944782Y-54540050D01*
X82919395Y-54470574D01*
X82902795Y-54426466D01*
X82896368Y-54411565D01*
X82893806Y-54417962D01*
X82881091Y-54452750D01*
X82859030Y-54514293D01*
X82829019Y-54598660D01*
X82792455Y-54701924D01*
X82750734Y-54820155D01*
X82705251Y-54949425D01*
X82679306Y-55022736D01*
X82633714Y-55148994D01*
X82591300Y-55263293D01*
X82553701Y-55361401D01*
X82522552Y-55439086D01*
X82499488Y-55492118D01*
X82486146Y-55516264D01*
X82472188Y-55527611D01*
X82428071Y-55539978D01*
X82384487Y-55528921D01*
X82355847Y-55496612D01*
X82354497Y-55492939D01*
X82342502Y-55454489D01*
X82323230Y-55387106D01*
X82297493Y-55293930D01*
X82266104Y-55178099D01*
X82229873Y-55042752D01*
X82189614Y-54891029D01*
X82146137Y-54726067D01*
X82100255Y-54551005D01*
X82052779Y-54368983D01*
X82004522Y-54183140D01*
X81956295Y-53996613D01*
X81908910Y-53812542D01*
X81863179Y-53634066D01*
X81819914Y-53464324D01*
X81779926Y-53306454D01*
X81744028Y-53163595D01*
X81713032Y-53038886D01*
X81687749Y-52935466D01*
X81668992Y-52856473D01*
X81657571Y-52805047D01*
X81654300Y-52784327D01*
X81672855Y-52752509D01*
X81715157Y-52731397D01*
X81768382Y-52734906D01*
X81775672Y-52736692D01*
X81782125Y-52738487D01*
X81788322Y-52742524D01*
X81794923Y-52751058D01*
X81802587Y-52766348D01*
X81811974Y-52790649D01*
X81823744Y-52826220D01*
X81838557Y-52875317D01*
X81857073Y-52940196D01*
X81879952Y-53023116D01*
X81907852Y-53126332D01*
X81941435Y-53252102D01*
X81981360Y-53402684D01*
X82028286Y-53580333D01*
X82082874Y-53787306D01*
X82145783Y-54025862D01*
X82168158Y-54110583D01*
X82217595Y-54297050D01*
X82264188Y-54471799D01*
X82307183Y-54632060D01*
X82345826Y-54775066D01*
X82379365Y-54898047D01*
X82407045Y-54998235D01*
X82428114Y-55072861D01*
X82441819Y-55119156D01*
X82447405Y-55134352D01*
X82450333Y-55127945D01*
X82463725Y-55093029D01*
X82486429Y-55031333D01*
X82517010Y-54946832D01*
X82554033Y-54843499D01*
X82596064Y-54725308D01*
X82641668Y-54596234D01*
X82828632Y-54065414D01*
X82897307Y-54065414D01*
X82965982Y-54065414D01*
X83153829Y-54596597D01*
X83180748Y-54672584D01*
X83224609Y-54795816D01*
X83264031Y-54905852D01*
X83297578Y-54998726D01*
X83323814Y-55070472D01*
X83341305Y-55117124D01*
X83348613Y-55134715D01*
X83349986Y-55132035D01*
X83359161Y-55102811D01*
X83376128Y-55043703D01*
X83400135Y-54957482D01*
X83430430Y-54846916D01*
X83466259Y-54714775D01*
X83506870Y-54563830D01*
X83551511Y-54396849D01*
X83599429Y-54216603D01*
X83649872Y-54025862D01*
X83712200Y-53789510D01*
X83766867Y-53582234D01*
X83813866Y-53404306D01*
X83853857Y-53253468D01*
X83887500Y-53127463D01*
X83915453Y-53024034D01*
X83938378Y-52940925D01*
X83956934Y-52875878D01*
X83971781Y-52826636D01*
X83983578Y-52790943D01*
X83992985Y-52766540D01*
X84000663Y-52751173D01*
X84007271Y-52742582D01*
X84013469Y-52738513D01*
X84019916Y-52736706D01*
X84027273Y-52734906D01*
X84070890Y-52730021D01*
X84116129Y-52746832D01*
G37*
G36*
X80554848Y-47877355D02*
G01*
X80725991Y-47877499D01*
X80867306Y-47877891D01*
X80981820Y-47878650D01*
X81072557Y-47879897D01*
X81142543Y-47881752D01*
X81194803Y-47884333D01*
X81232363Y-47887762D01*
X81258248Y-47892158D01*
X81275483Y-47897640D01*
X81287094Y-47904330D01*
X81296105Y-47912347D01*
X81298620Y-47914932D01*
X81303957Y-47921645D01*
X81308675Y-47931042D01*
X81312813Y-47945142D01*
X81316408Y-47965967D01*
X81319498Y-47995537D01*
X81322122Y-48035871D01*
X81324318Y-48088991D01*
X81326124Y-48156918D01*
X81327578Y-48241670D01*
X81328719Y-48345270D01*
X81329583Y-48469736D01*
X81330210Y-48617091D01*
X81330638Y-48789354D01*
X81330904Y-48988545D01*
X81331047Y-49216685D01*
X81331104Y-49475795D01*
X81331115Y-49767895D01*
X81331114Y-49898668D01*
X81331087Y-50176222D01*
X81330997Y-50421662D01*
X81330806Y-50637008D01*
X81330474Y-50824281D01*
X81329965Y-50985500D01*
X81329240Y-51122687D01*
X81328261Y-51237863D01*
X81326989Y-51333046D01*
X81325387Y-51410258D01*
X81323417Y-51471519D01*
X81321040Y-51518850D01*
X81318218Y-51554271D01*
X81314914Y-51579803D01*
X81311088Y-51597465D01*
X81306704Y-51609279D01*
X81301722Y-51617265D01*
X81296105Y-51623443D01*
X81262612Y-51646278D01*
X81217331Y-51658453D01*
X81180261Y-51649927D01*
X81138558Y-51623443D01*
X81138305Y-51623189D01*
X81132598Y-51616839D01*
X81127553Y-51608557D01*
X81123128Y-51596276D01*
X81119283Y-51577928D01*
X81115978Y-51551446D01*
X81113171Y-51514763D01*
X81110822Y-51465811D01*
X81108890Y-51402522D01*
X81107334Y-51322829D01*
X81106114Y-51224666D01*
X81105189Y-51105964D01*
X81104518Y-50964656D01*
X81104060Y-50798675D01*
X81103775Y-50605953D01*
X81103622Y-50384422D01*
X81103560Y-50132017D01*
X81103548Y-49846668D01*
X81103548Y-48104904D01*
X80381723Y-48104904D01*
X79659897Y-48104904D01*
X79453949Y-48310316D01*
X79248000Y-48515728D01*
X79248000Y-48874605D01*
X79248000Y-49233482D01*
X79462176Y-49448173D01*
X79676351Y-49662864D01*
X80327431Y-49662864D01*
X80356110Y-49662863D01*
X80526708Y-49662938D01*
X80665957Y-49663493D01*
X80777040Y-49665005D01*
X80863139Y-49667951D01*
X80927434Y-49672809D01*
X80973109Y-49680058D01*
X81003344Y-49690174D01*
X81021322Y-49703636D01*
X81030224Y-49720920D01*
X81033232Y-49742505D01*
X81033527Y-49768869D01*
X81034082Y-49776858D01*
X81035374Y-49784761D01*
X81035839Y-49792223D01*
X81033880Y-49800923D01*
X81027898Y-49812536D01*
X81016293Y-49828739D01*
X80997468Y-49851208D01*
X80969824Y-49881620D01*
X80931761Y-49921650D01*
X80881682Y-49972975D01*
X80817987Y-50037273D01*
X80739079Y-50116218D01*
X80643358Y-50211487D01*
X80529225Y-50324757D01*
X80395083Y-50457704D01*
X80239333Y-50612005D01*
X80060375Y-50789335D01*
X80042054Y-50807494D01*
X79870955Y-50977045D01*
X79722754Y-51123627D01*
X79595639Y-51248747D01*
X79487799Y-51353906D01*
X79397421Y-51440609D01*
X79322694Y-51510361D01*
X79261805Y-51564665D01*
X79212942Y-51605024D01*
X79174295Y-51632944D01*
X79144049Y-51649927D01*
X79120395Y-51657479D01*
X79101519Y-51657102D01*
X79085609Y-51650301D01*
X79070855Y-51638580D01*
X79055443Y-51623443D01*
X79048140Y-51616128D01*
X79033822Y-51600502D01*
X79023966Y-51584749D01*
X79020142Y-51566983D01*
X79023923Y-51545320D01*
X79036880Y-51517878D01*
X79060584Y-51482770D01*
X79096606Y-51438114D01*
X79146518Y-51382025D01*
X79211891Y-51312618D01*
X79294297Y-51228010D01*
X79395306Y-51126317D01*
X79516491Y-51005654D01*
X79659422Y-50864137D01*
X79825671Y-50699883D01*
X79872706Y-50653395D01*
X80009645Y-50517737D01*
X80138264Y-50389863D01*
X80256484Y-50271868D01*
X80362223Y-50165847D01*
X80453402Y-50073895D01*
X80527941Y-49998110D01*
X80583758Y-49940586D01*
X80618774Y-49903418D01*
X80630908Y-49888704D01*
X80629357Y-49887433D01*
X80602704Y-49883448D01*
X80545829Y-49879946D01*
X80462415Y-49877036D01*
X80356146Y-49874824D01*
X80230706Y-49873418D01*
X80089779Y-49872926D01*
X79548650Y-49872926D01*
X79284541Y-49593889D01*
X79020433Y-49314853D01*
X79020079Y-48863048D01*
X79019726Y-48411244D01*
X79292186Y-48144290D01*
X79564646Y-47877337D01*
X80412870Y-47877337D01*
X80554848Y-47877355D01*
G37*
G36*
X78536088Y-47877786D02*
G01*
X78552129Y-47884858D01*
X78567097Y-47896882D01*
X78582804Y-47912347D01*
X78585318Y-47914932D01*
X78590655Y-47921645D01*
X78595374Y-47931042D01*
X78599511Y-47945142D01*
X78603106Y-47965967D01*
X78606197Y-47995537D01*
X78608821Y-48035871D01*
X78611017Y-48088991D01*
X78612823Y-48156918D01*
X78614277Y-48241670D01*
X78615418Y-48345270D01*
X78616282Y-48469736D01*
X78616909Y-48617091D01*
X78617336Y-48789354D01*
X78617602Y-48988545D01*
X78617745Y-49216685D01*
X78617803Y-49475795D01*
X78617814Y-49767895D01*
X78617813Y-49898668D01*
X78617786Y-50176222D01*
X78617696Y-50421662D01*
X78617505Y-50637008D01*
X78617173Y-50824281D01*
X78616664Y-50985500D01*
X78615939Y-51122687D01*
X78614959Y-51237863D01*
X78613688Y-51333046D01*
X78612086Y-51410258D01*
X78610116Y-51471519D01*
X78607739Y-51518850D01*
X78604917Y-51554271D01*
X78601612Y-51579803D01*
X78597787Y-51597465D01*
X78593402Y-51609279D01*
X78588421Y-51617265D01*
X78582804Y-51623443D01*
X78548254Y-51647516D01*
X78490296Y-51656553D01*
X78432979Y-51633609D01*
X78430320Y-51631537D01*
X78424931Y-51625685D01*
X78420175Y-51616364D01*
X78415999Y-51601471D01*
X78412348Y-51578902D01*
X78409172Y-51546556D01*
X78406415Y-51502330D01*
X78404025Y-51444121D01*
X78401948Y-51369826D01*
X78400132Y-51277343D01*
X78398524Y-51164569D01*
X78397069Y-51029401D01*
X78395716Y-50869736D01*
X78394410Y-50683473D01*
X78393098Y-50468507D01*
X78391728Y-50222737D01*
X78390247Y-49944060D01*
X78381494Y-48279355D01*
X77573362Y-49076140D01*
X77567100Y-49082314D01*
X77400793Y-49246045D01*
X77257438Y-49386632D01*
X77135331Y-49505666D01*
X77032762Y-49604736D01*
X76948026Y-49685435D01*
X76879415Y-49749353D01*
X76825223Y-49798082D01*
X76783741Y-49833213D01*
X76753263Y-49856336D01*
X76732083Y-49869044D01*
X76718492Y-49872926D01*
X76718105Y-49872921D01*
X76704268Y-49868743D01*
X76682783Y-49855684D01*
X76651944Y-49832153D01*
X76610044Y-49796558D01*
X76555375Y-49747309D01*
X76486230Y-49682813D01*
X76400903Y-49601480D01*
X76297687Y-49501717D01*
X76174875Y-49381934D01*
X76030759Y-49240538D01*
X75863633Y-49075940D01*
X75055512Y-48278953D01*
X75046759Y-49943859D01*
X75046071Y-50074414D01*
X75044646Y-50337930D01*
X75043309Y-50569492D01*
X75042007Y-50771203D01*
X75040686Y-50945164D01*
X75039294Y-51093479D01*
X75037776Y-51218250D01*
X75036080Y-51321580D01*
X75034153Y-51405571D01*
X75031941Y-51472325D01*
X75029392Y-51523946D01*
X75026452Y-51562536D01*
X75023068Y-51590198D01*
X75019186Y-51609033D01*
X75014754Y-51621145D01*
X75009719Y-51628636D01*
X75004027Y-51633609D01*
X74965592Y-51652730D01*
X74906722Y-51653840D01*
X74854203Y-51623443D01*
X74851688Y-51620858D01*
X74846351Y-51614144D01*
X74841632Y-51604748D01*
X74837495Y-51590647D01*
X74833900Y-51569822D01*
X74830809Y-51540253D01*
X74828185Y-51499918D01*
X74825989Y-51446798D01*
X74824183Y-51378872D01*
X74822729Y-51294119D01*
X74821589Y-51190520D01*
X74820724Y-51066053D01*
X74820097Y-50918699D01*
X74819670Y-50746436D01*
X74819404Y-50547245D01*
X74819261Y-50319104D01*
X74819203Y-50059994D01*
X74819192Y-49767895D01*
X74819194Y-49637122D01*
X74819220Y-49359567D01*
X74819310Y-49114128D01*
X74819502Y-48898782D01*
X74819833Y-48711509D01*
X74820342Y-48550289D01*
X74821067Y-48413102D01*
X74822047Y-48297927D01*
X74823318Y-48202744D01*
X74824920Y-48125532D01*
X74826891Y-48064270D01*
X74829267Y-48016939D01*
X74832089Y-47981518D01*
X74835394Y-47955987D01*
X74839219Y-47938324D01*
X74843604Y-47926510D01*
X74848586Y-47918525D01*
X74854203Y-47912347D01*
X74855482Y-47911066D01*
X74871059Y-47895822D01*
X74886039Y-47884135D01*
X74902236Y-47877517D01*
X74921463Y-47877479D01*
X74945533Y-47885532D01*
X74976261Y-47903189D01*
X75015459Y-47931960D01*
X75064942Y-47973358D01*
X75126523Y-48028894D01*
X75202016Y-48100079D01*
X75293234Y-48188425D01*
X75401990Y-48295444D01*
X75530100Y-48422647D01*
X75679375Y-48571545D01*
X75851630Y-48743651D01*
X76718587Y-49609965D01*
X77585418Y-48743651D01*
X77599663Y-48729414D01*
X77770054Y-48559155D01*
X77917608Y-48411987D01*
X78044137Y-48286400D01*
X78151457Y-48180880D01*
X78241381Y-48093917D01*
X78315722Y-48023999D01*
X78376293Y-47969614D01*
X78424909Y-47929252D01*
X78463383Y-47901399D01*
X78493528Y-47884545D01*
X78517158Y-47877178D01*
X78536088Y-47877786D01*
G37*
%TD*%
M02*
