%TF.GenerationSoftware,KiCad,Pcbnew,7.0.9*%
%TF.CreationDate,2024-04-18T22:58:55+03:00*%
%TF.ProjectId,DRM_Watch_V3,44524d5f-5761-4746-9368-5f56332e6b69,rev?*%
%TF.SameCoordinates,Original*%
%TF.FileFunction,Legend,Top*%
%TF.FilePolarity,Positive*%
%FSLAX46Y46*%
G04 Gerber Fmt 4.6, Leading zero omitted, Abs format (unit mm)*
G04 Created by KiCad (PCBNEW 7.0.9) date 2024-04-18 22:58:55*
%MOMM*%
%LPD*%
G01*
G04 APERTURE LIST*
%ADD10C,0.150000*%
%ADD11C,0.100000*%
%ADD12C,0.125000*%
%ADD13C,0.300000*%
%ADD14C,0.120000*%
%ADD15C,0.127000*%
%ADD16C,0.200000*%
%ADD17C,0.152400*%
%ADD18C,0.050800*%
%ADD19C,0.177000*%
G04 APERTURE END LIST*
D10*
X114759815Y-69974518D02*
X114759815Y-69210118D01*
X114557751Y-63824396D02*
X115321612Y-63824396D01*
X114939681Y-64206326D02*
X114939681Y-63442465D01*
D11*
X109646830Y-72363676D02*
X109265877Y-72363676D01*
X109723020Y-72135104D02*
X109456353Y-72935104D01*
X109456353Y-72935104D02*
X109189687Y-72135104D01*
X108923020Y-72135104D02*
X108923020Y-72935104D01*
X108923020Y-72935104D02*
X108465877Y-72135104D01*
X108465877Y-72135104D02*
X108465877Y-72935104D01*
X108199211Y-72935104D02*
X107742068Y-72935104D01*
X107970640Y-72135104D02*
X107970640Y-72935104D01*
X107513497Y-72858914D02*
X107475401Y-72897009D01*
X107475401Y-72897009D02*
X107399211Y-72935104D01*
X107399211Y-72935104D02*
X107208735Y-72935104D01*
X107208735Y-72935104D02*
X107132544Y-72897009D01*
X107132544Y-72897009D02*
X107094449Y-72858914D01*
X107094449Y-72858914D02*
X107056354Y-72782723D01*
X107056354Y-72782723D02*
X107056354Y-72706533D01*
X107056354Y-72706533D02*
X107094449Y-72592247D01*
X107094449Y-72592247D02*
X107551592Y-72135104D01*
X107551592Y-72135104D02*
X107056354Y-72135104D01*
D12*
X85014189Y-50998547D02*
X85128475Y-51036642D01*
X85128475Y-51036642D02*
X85166570Y-51074738D01*
X85166570Y-51074738D02*
X85204666Y-51150928D01*
X85204666Y-51150928D02*
X85204666Y-51265214D01*
X85204666Y-51265214D02*
X85166570Y-51341404D01*
X85166570Y-51341404D02*
X85128475Y-51379500D01*
X85128475Y-51379500D02*
X85052285Y-51417595D01*
X85052285Y-51417595D02*
X84747523Y-51417595D01*
X84747523Y-51417595D02*
X84747523Y-50617595D01*
X84747523Y-50617595D02*
X85014189Y-50617595D01*
X85014189Y-50617595D02*
X85090380Y-50655690D01*
X85090380Y-50655690D02*
X85128475Y-50693785D01*
X85128475Y-50693785D02*
X85166570Y-50769976D01*
X85166570Y-50769976D02*
X85166570Y-50846166D01*
X85166570Y-50846166D02*
X85128475Y-50922357D01*
X85128475Y-50922357D02*
X85090380Y-50960452D01*
X85090380Y-50960452D02*
X85014189Y-50998547D01*
X85014189Y-50998547D02*
X84747523Y-50998547D01*
X85890380Y-51417595D02*
X85890380Y-50998547D01*
X85890380Y-50998547D02*
X85852285Y-50922357D01*
X85852285Y-50922357D02*
X85776094Y-50884261D01*
X85776094Y-50884261D02*
X85623713Y-50884261D01*
X85623713Y-50884261D02*
X85547523Y-50922357D01*
X85890380Y-51379500D02*
X85814189Y-51417595D01*
X85814189Y-51417595D02*
X85623713Y-51417595D01*
X85623713Y-51417595D02*
X85547523Y-51379500D01*
X85547523Y-51379500D02*
X85509427Y-51303309D01*
X85509427Y-51303309D02*
X85509427Y-51227119D01*
X85509427Y-51227119D02*
X85547523Y-51150928D01*
X85547523Y-51150928D02*
X85623713Y-51112833D01*
X85623713Y-51112833D02*
X85814189Y-51112833D01*
X85814189Y-51112833D02*
X85890380Y-51074738D01*
X86157047Y-50884261D02*
X86461809Y-50884261D01*
X86271333Y-50617595D02*
X86271333Y-51303309D01*
X86271333Y-51303309D02*
X86309428Y-51379500D01*
X86309428Y-51379500D02*
X86385618Y-51417595D01*
X86385618Y-51417595D02*
X86461809Y-51417595D01*
X86614190Y-50884261D02*
X86918952Y-50884261D01*
X86728476Y-50617595D02*
X86728476Y-51303309D01*
X86728476Y-51303309D02*
X86766571Y-51379500D01*
X86766571Y-51379500D02*
X86842761Y-51417595D01*
X86842761Y-51417595D02*
X86918952Y-51417595D01*
X87490381Y-51379500D02*
X87414190Y-51417595D01*
X87414190Y-51417595D02*
X87261809Y-51417595D01*
X87261809Y-51417595D02*
X87185619Y-51379500D01*
X87185619Y-51379500D02*
X87147523Y-51303309D01*
X87147523Y-51303309D02*
X87147523Y-50998547D01*
X87147523Y-50998547D02*
X87185619Y-50922357D01*
X87185619Y-50922357D02*
X87261809Y-50884261D01*
X87261809Y-50884261D02*
X87414190Y-50884261D01*
X87414190Y-50884261D02*
X87490381Y-50922357D01*
X87490381Y-50922357D02*
X87528476Y-50998547D01*
X87528476Y-50998547D02*
X87528476Y-51074738D01*
X87528476Y-51074738D02*
X87147523Y-51150928D01*
X87871333Y-51417595D02*
X87871333Y-50884261D01*
X87871333Y-51036642D02*
X87909428Y-50960452D01*
X87909428Y-50960452D02*
X87947523Y-50922357D01*
X87947523Y-50922357D02*
X88023714Y-50884261D01*
X88023714Y-50884261D02*
X88099904Y-50884261D01*
X88290380Y-50884261D02*
X88480856Y-51417595D01*
X88671333Y-50884261D02*
X88480856Y-51417595D01*
X88480856Y-51417595D02*
X88404666Y-51608071D01*
X88404666Y-51608071D02*
X88366571Y-51646166D01*
X88366571Y-51646166D02*
X88290380Y-51684261D01*
X88785619Y-51493785D02*
X89395142Y-51493785D01*
X90042762Y-51341404D02*
X90004666Y-51379500D01*
X90004666Y-51379500D02*
X89890381Y-51417595D01*
X89890381Y-51417595D02*
X89814190Y-51417595D01*
X89814190Y-51417595D02*
X89699904Y-51379500D01*
X89699904Y-51379500D02*
X89623714Y-51303309D01*
X89623714Y-51303309D02*
X89585619Y-51227119D01*
X89585619Y-51227119D02*
X89547523Y-51074738D01*
X89547523Y-51074738D02*
X89547523Y-50960452D01*
X89547523Y-50960452D02*
X89585619Y-50808071D01*
X89585619Y-50808071D02*
X89623714Y-50731880D01*
X89623714Y-50731880D02*
X89699904Y-50655690D01*
X89699904Y-50655690D02*
X89814190Y-50617595D01*
X89814190Y-50617595D02*
X89890381Y-50617595D01*
X89890381Y-50617595D02*
X90004666Y-50655690D01*
X90004666Y-50655690D02*
X90042762Y-50693785D01*
X90690381Y-51379500D02*
X90614190Y-51417595D01*
X90614190Y-51417595D02*
X90461809Y-51417595D01*
X90461809Y-51417595D02*
X90385619Y-51379500D01*
X90385619Y-51379500D02*
X90347523Y-51303309D01*
X90347523Y-51303309D02*
X90347523Y-50998547D01*
X90347523Y-50998547D02*
X90385619Y-50922357D01*
X90385619Y-50922357D02*
X90461809Y-50884261D01*
X90461809Y-50884261D02*
X90614190Y-50884261D01*
X90614190Y-50884261D02*
X90690381Y-50922357D01*
X90690381Y-50922357D02*
X90728476Y-50998547D01*
X90728476Y-50998547D02*
X90728476Y-51074738D01*
X90728476Y-51074738D02*
X90347523Y-51150928D01*
X91185618Y-51417595D02*
X91109428Y-51379500D01*
X91109428Y-51379500D02*
X91071333Y-51303309D01*
X91071333Y-51303309D02*
X91071333Y-50617595D01*
X91604666Y-51417595D02*
X91528476Y-51379500D01*
X91528476Y-51379500D02*
X91490381Y-51303309D01*
X91490381Y-51303309D02*
X91490381Y-50617595D01*
D13*
X86025510Y-47108400D02*
X87168368Y-47108400D01*
X89327510Y-47108400D02*
X90470368Y-47108400D01*
X89898939Y-47679828D02*
X89898939Y-46536971D01*
D11*
X120776979Y-84564895D02*
X121043646Y-85364895D01*
X121043646Y-85364895D02*
X121310312Y-84564895D01*
X121576979Y-85364895D02*
X121576979Y-84564895D01*
X122224597Y-84945847D02*
X122338883Y-84983942D01*
X122338883Y-84983942D02*
X122376978Y-85022038D01*
X122376978Y-85022038D02*
X122415074Y-85098228D01*
X122415074Y-85098228D02*
X122415074Y-85212514D01*
X122415074Y-85212514D02*
X122376978Y-85288704D01*
X122376978Y-85288704D02*
X122338883Y-85326800D01*
X122338883Y-85326800D02*
X122262693Y-85364895D01*
X122262693Y-85364895D02*
X121957931Y-85364895D01*
X121957931Y-85364895D02*
X121957931Y-84564895D01*
X121957931Y-84564895D02*
X122224597Y-84564895D01*
X122224597Y-84564895D02*
X122300788Y-84602990D01*
X122300788Y-84602990D02*
X122338883Y-84641085D01*
X122338883Y-84641085D02*
X122376978Y-84717276D01*
X122376978Y-84717276D02*
X122376978Y-84793466D01*
X122376978Y-84793466D02*
X122338883Y-84869657D01*
X122338883Y-84869657D02*
X122300788Y-84907752D01*
X122300788Y-84907752D02*
X122224597Y-84945847D01*
X122224597Y-84945847D02*
X121957931Y-84945847D01*
X122757931Y-85060133D02*
X123367455Y-85060133D01*
D10*
X110109095Y-83020819D02*
X110109095Y-83830342D01*
X110109095Y-83830342D02*
X110156714Y-83925580D01*
X110156714Y-83925580D02*
X110204333Y-83973200D01*
X110204333Y-83973200D02*
X110299571Y-84020819D01*
X110299571Y-84020819D02*
X110490047Y-84020819D01*
X110490047Y-84020819D02*
X110585285Y-83973200D01*
X110585285Y-83973200D02*
X110632904Y-83925580D01*
X110632904Y-83925580D02*
X110680523Y-83830342D01*
X110680523Y-83830342D02*
X110680523Y-83020819D01*
X111585285Y-83354152D02*
X111585285Y-84020819D01*
X111347190Y-82973200D02*
X111109095Y-83687485D01*
X111109095Y-83687485D02*
X111728142Y-83687485D01*
D11*
X113630844Y-74531758D02*
X113364177Y-74150805D01*
X113173701Y-74531758D02*
X113173701Y-73731758D01*
X113173701Y-73731758D02*
X113478463Y-73731758D01*
X113478463Y-73731758D02*
X113554653Y-73769853D01*
X113554653Y-73769853D02*
X113592748Y-73807948D01*
X113592748Y-73807948D02*
X113630844Y-73884139D01*
X113630844Y-73884139D02*
X113630844Y-73998424D01*
X113630844Y-73998424D02*
X113592748Y-74074615D01*
X113592748Y-74074615D02*
X113554653Y-74112710D01*
X113554653Y-74112710D02*
X113478463Y-74150805D01*
X113478463Y-74150805D02*
X113173701Y-74150805D01*
X113859415Y-73731758D02*
X114316558Y-73731758D01*
X114087986Y-74531758D02*
X114087986Y-73731758D01*
X115040368Y-74455567D02*
X115002272Y-74493663D01*
X115002272Y-74493663D02*
X114887987Y-74531758D01*
X114887987Y-74531758D02*
X114811796Y-74531758D01*
X114811796Y-74531758D02*
X114697510Y-74493663D01*
X114697510Y-74493663D02*
X114621320Y-74417472D01*
X114621320Y-74417472D02*
X114583225Y-74341282D01*
X114583225Y-74341282D02*
X114545129Y-74188901D01*
X114545129Y-74188901D02*
X114545129Y-74074615D01*
X114545129Y-74074615D02*
X114583225Y-73922234D01*
X114583225Y-73922234D02*
X114621320Y-73846043D01*
X114621320Y-73846043D02*
X114697510Y-73769853D01*
X114697510Y-73769853D02*
X114811796Y-73731758D01*
X114811796Y-73731758D02*
X114887987Y-73731758D01*
X114887987Y-73731758D02*
X115002272Y-73769853D01*
X115002272Y-73769853D02*
X115040368Y-73807948D01*
X115649891Y-74112710D02*
X115764177Y-74150805D01*
X115764177Y-74150805D02*
X115802272Y-74188901D01*
X115802272Y-74188901D02*
X115840368Y-74265091D01*
X115840368Y-74265091D02*
X115840368Y-74379377D01*
X115840368Y-74379377D02*
X115802272Y-74455567D01*
X115802272Y-74455567D02*
X115764177Y-74493663D01*
X115764177Y-74493663D02*
X115687987Y-74531758D01*
X115687987Y-74531758D02*
X115383225Y-74531758D01*
X115383225Y-74531758D02*
X115383225Y-73731758D01*
X115383225Y-73731758D02*
X115649891Y-73731758D01*
X115649891Y-73731758D02*
X115726082Y-73769853D01*
X115726082Y-73769853D02*
X115764177Y-73807948D01*
X115764177Y-73807948D02*
X115802272Y-73884139D01*
X115802272Y-73884139D02*
X115802272Y-73960329D01*
X115802272Y-73960329D02*
X115764177Y-74036520D01*
X115764177Y-74036520D02*
X115726082Y-74074615D01*
X115726082Y-74074615D02*
X115649891Y-74112710D01*
X115649891Y-74112710D02*
X115383225Y-74112710D01*
X116145129Y-74303186D02*
X116526082Y-74303186D01*
X116068939Y-74531758D02*
X116335606Y-73731758D01*
X116335606Y-73731758D02*
X116602272Y-74531758D01*
X116754653Y-73731758D02*
X117211796Y-73731758D01*
X116983224Y-74531758D02*
X116983224Y-73731758D01*
X110057550Y-50353169D02*
X110057550Y-50734122D01*
X109828978Y-50276979D02*
X110628978Y-50543646D01*
X110628978Y-50543646D02*
X109828978Y-50810312D01*
X109828978Y-51076979D02*
X110628978Y-51076979D01*
X110628978Y-51076979D02*
X109828978Y-51534122D01*
X109828978Y-51534122D02*
X110628978Y-51534122D01*
X110628978Y-51800788D02*
X110628978Y-52257931D01*
X109828978Y-52029359D02*
X110628978Y-52029359D01*
X125776979Y-84564895D02*
X126043646Y-85364895D01*
X126043646Y-85364895D02*
X126310312Y-84564895D01*
X126576979Y-85364895D02*
X126576979Y-84564895D01*
X127224597Y-84945847D02*
X127338883Y-84983942D01*
X127338883Y-84983942D02*
X127376978Y-85022038D01*
X127376978Y-85022038D02*
X127415074Y-85098228D01*
X127415074Y-85098228D02*
X127415074Y-85212514D01*
X127415074Y-85212514D02*
X127376978Y-85288704D01*
X127376978Y-85288704D02*
X127338883Y-85326800D01*
X127338883Y-85326800D02*
X127262693Y-85364895D01*
X127262693Y-85364895D02*
X126957931Y-85364895D01*
X126957931Y-85364895D02*
X126957931Y-84564895D01*
X126957931Y-84564895D02*
X127224597Y-84564895D01*
X127224597Y-84564895D02*
X127300788Y-84602990D01*
X127300788Y-84602990D02*
X127338883Y-84641085D01*
X127338883Y-84641085D02*
X127376978Y-84717276D01*
X127376978Y-84717276D02*
X127376978Y-84793466D01*
X127376978Y-84793466D02*
X127338883Y-84869657D01*
X127338883Y-84869657D02*
X127300788Y-84907752D01*
X127300788Y-84907752D02*
X127224597Y-84945847D01*
X127224597Y-84945847D02*
X126957931Y-84945847D01*
X127757931Y-85060133D02*
X128367455Y-85060133D01*
X128062693Y-85364895D02*
X128062693Y-84755371D01*
X74763570Y-54416609D02*
X74906427Y-54464228D01*
X74906427Y-54464228D02*
X74954046Y-54511847D01*
X74954046Y-54511847D02*
X75001665Y-54607085D01*
X75001665Y-54607085D02*
X75001665Y-54749942D01*
X75001665Y-54749942D02*
X74954046Y-54845180D01*
X74954046Y-54845180D02*
X74906427Y-54892800D01*
X74906427Y-54892800D02*
X74811189Y-54940419D01*
X74811189Y-54940419D02*
X74430237Y-54940419D01*
X74430237Y-54940419D02*
X74430237Y-53940419D01*
X74430237Y-53940419D02*
X74763570Y-53940419D01*
X74763570Y-53940419D02*
X74858808Y-53988038D01*
X74858808Y-53988038D02*
X74906427Y-54035657D01*
X74906427Y-54035657D02*
X74954046Y-54130895D01*
X74954046Y-54130895D02*
X74954046Y-54226133D01*
X74954046Y-54226133D02*
X74906427Y-54321371D01*
X74906427Y-54321371D02*
X74858808Y-54368990D01*
X74858808Y-54368990D02*
X74763570Y-54416609D01*
X74763570Y-54416609D02*
X74430237Y-54416609D01*
X75858808Y-54940419D02*
X75858808Y-54416609D01*
X75858808Y-54416609D02*
X75811189Y-54321371D01*
X75811189Y-54321371D02*
X75715951Y-54273752D01*
X75715951Y-54273752D02*
X75525475Y-54273752D01*
X75525475Y-54273752D02*
X75430237Y-54321371D01*
X75858808Y-54892800D02*
X75763570Y-54940419D01*
X75763570Y-54940419D02*
X75525475Y-54940419D01*
X75525475Y-54940419D02*
X75430237Y-54892800D01*
X75430237Y-54892800D02*
X75382618Y-54797561D01*
X75382618Y-54797561D02*
X75382618Y-54702323D01*
X75382618Y-54702323D02*
X75430237Y-54607085D01*
X75430237Y-54607085D02*
X75525475Y-54559466D01*
X75525475Y-54559466D02*
X75763570Y-54559466D01*
X75763570Y-54559466D02*
X75858808Y-54511847D01*
X76192142Y-54273752D02*
X76573094Y-54273752D01*
X76334999Y-53940419D02*
X76334999Y-54797561D01*
X76334999Y-54797561D02*
X76382618Y-54892800D01*
X76382618Y-54892800D02*
X76477856Y-54940419D01*
X76477856Y-54940419D02*
X76573094Y-54940419D01*
X76763571Y-54273752D02*
X77144523Y-54273752D01*
X76906428Y-53940419D02*
X76906428Y-54797561D01*
X76906428Y-54797561D02*
X76954047Y-54892800D01*
X76954047Y-54892800D02*
X77049285Y-54940419D01*
X77049285Y-54940419D02*
X77144523Y-54940419D01*
X77858809Y-54892800D02*
X77763571Y-54940419D01*
X77763571Y-54940419D02*
X77573095Y-54940419D01*
X77573095Y-54940419D02*
X77477857Y-54892800D01*
X77477857Y-54892800D02*
X77430238Y-54797561D01*
X77430238Y-54797561D02*
X77430238Y-54416609D01*
X77430238Y-54416609D02*
X77477857Y-54321371D01*
X77477857Y-54321371D02*
X77573095Y-54273752D01*
X77573095Y-54273752D02*
X77763571Y-54273752D01*
X77763571Y-54273752D02*
X77858809Y-54321371D01*
X77858809Y-54321371D02*
X77906428Y-54416609D01*
X77906428Y-54416609D02*
X77906428Y-54511847D01*
X77906428Y-54511847D02*
X77430238Y-54607085D01*
X78335000Y-54940419D02*
X78335000Y-54273752D01*
X78335000Y-54464228D02*
X78382619Y-54368990D01*
X78382619Y-54368990D02*
X78430238Y-54321371D01*
X78430238Y-54321371D02*
X78525476Y-54273752D01*
X78525476Y-54273752D02*
X78620714Y-54273752D01*
X78858810Y-54273752D02*
X79096905Y-54940419D01*
X79335000Y-54273752D02*
X79096905Y-54940419D01*
X79096905Y-54940419D02*
X79001667Y-55178514D01*
X79001667Y-55178514D02*
X78954048Y-55226133D01*
X78954048Y-55226133D02*
X78858810Y-55273752D01*
X125864895Y-53608734D02*
X125064895Y-53608734D01*
X125064895Y-53608734D02*
X125064895Y-53418258D01*
X125064895Y-53418258D02*
X125102990Y-53303972D01*
X125102990Y-53303972D02*
X125179180Y-53227782D01*
X125179180Y-53227782D02*
X125255371Y-53189687D01*
X125255371Y-53189687D02*
X125407752Y-53151591D01*
X125407752Y-53151591D02*
X125522038Y-53151591D01*
X125522038Y-53151591D02*
X125674419Y-53189687D01*
X125674419Y-53189687D02*
X125750609Y-53227782D01*
X125750609Y-53227782D02*
X125826800Y-53303972D01*
X125826800Y-53303972D02*
X125864895Y-53418258D01*
X125864895Y-53418258D02*
X125864895Y-53608734D01*
X125064895Y-52884925D02*
X125064895Y-52389687D01*
X125064895Y-52389687D02*
X125369657Y-52656353D01*
X125369657Y-52656353D02*
X125369657Y-52542068D01*
X125369657Y-52542068D02*
X125407752Y-52465877D01*
X125407752Y-52465877D02*
X125445847Y-52427782D01*
X125445847Y-52427782D02*
X125522038Y-52389687D01*
X125522038Y-52389687D02*
X125712514Y-52389687D01*
X125712514Y-52389687D02*
X125788704Y-52427782D01*
X125788704Y-52427782D02*
X125826800Y-52465877D01*
X125826800Y-52465877D02*
X125864895Y-52542068D01*
X125864895Y-52542068D02*
X125864895Y-52770639D01*
X125864895Y-52770639D02*
X125826800Y-52846830D01*
X125826800Y-52846830D02*
X125788704Y-52884925D01*
X125331561Y-51703972D02*
X125864895Y-51703972D01*
X125026800Y-51894448D02*
X125598228Y-52084925D01*
X125598228Y-52084925D02*
X125598228Y-51589686D01*
X115099074Y-72083081D02*
X115022884Y-72044986D01*
X115022884Y-72044986D02*
X114908598Y-72044986D01*
X114908598Y-72044986D02*
X114794312Y-72083081D01*
X114794312Y-72083081D02*
X114718122Y-72159271D01*
X114718122Y-72159271D02*
X114680027Y-72235462D01*
X114680027Y-72235462D02*
X114641931Y-72387843D01*
X114641931Y-72387843D02*
X114641931Y-72502129D01*
X114641931Y-72502129D02*
X114680027Y-72654510D01*
X114680027Y-72654510D02*
X114718122Y-72730700D01*
X114718122Y-72730700D02*
X114794312Y-72806891D01*
X114794312Y-72806891D02*
X114908598Y-72844986D01*
X114908598Y-72844986D02*
X114984789Y-72844986D01*
X114984789Y-72844986D02*
X115099074Y-72806891D01*
X115099074Y-72806891D02*
X115137170Y-72768795D01*
X115137170Y-72768795D02*
X115137170Y-72502129D01*
X115137170Y-72502129D02*
X114984789Y-72502129D01*
X115480027Y-72844986D02*
X115480027Y-72044986D01*
X115480027Y-72044986D02*
X115937170Y-72844986D01*
X115937170Y-72844986D02*
X115937170Y-72044986D01*
X116318122Y-72844986D02*
X116318122Y-72044986D01*
X116318122Y-72044986D02*
X116508598Y-72044986D01*
X116508598Y-72044986D02*
X116622884Y-72083081D01*
X116622884Y-72083081D02*
X116699074Y-72159271D01*
X116699074Y-72159271D02*
X116737169Y-72235462D01*
X116737169Y-72235462D02*
X116775265Y-72387843D01*
X116775265Y-72387843D02*
X116775265Y-72502129D01*
X116775265Y-72502129D02*
X116737169Y-72654510D01*
X116737169Y-72654510D02*
X116699074Y-72730700D01*
X116699074Y-72730700D02*
X116622884Y-72806891D01*
X116622884Y-72806891D02*
X116508598Y-72844986D01*
X116508598Y-72844986D02*
X116318122Y-72844986D01*
D14*
%TO.C,R3*%
X124285802Y-71826985D02*
X124285802Y-71352469D01*
X125330802Y-71826985D02*
X125330802Y-71352469D01*
D11*
%TO.C,D2*%
X66802000Y-73484000D02*
X66802000Y-70436000D01*
X67818000Y-72722000D02*
X67818000Y-71198000D01*
D14*
%TO.C,C18*%
X87143000Y-79933748D02*
X87143000Y-81356252D01*
X85323000Y-79933748D02*
X85323000Y-81356252D01*
D15*
%TO.C,LS1*%
X114201681Y-63048319D02*
X117201681Y-63048319D01*
X119451681Y-68298319D02*
X119451681Y-65298319D01*
X111951681Y-68298319D02*
X111951681Y-65298319D01*
X117201681Y-70548319D02*
X114201681Y-70548319D01*
D11*
X115639681Y-63750319D02*
G75*
G03*
X115639681Y-63750319I-700000J0D01*
G01*
X119257681Y-66544319D02*
X117987681Y-67052319D01*
X117987681Y-66036319D01*
X119257681Y-66544319D01*
G36*
X119257681Y-66544319D02*
G01*
X117987681Y-67052319D01*
X117987681Y-66036319D01*
X119257681Y-66544319D01*
G37*
D14*
%TO.C,R14*%
X123856361Y-57646848D02*
X123856361Y-58121364D01*
X122811361Y-57646848D02*
X122811361Y-58121364D01*
%TO.C,R6*%
X68639506Y-72965680D02*
X68639506Y-72491164D01*
X69684506Y-72965680D02*
X69684506Y-72491164D01*
%TO.C,R23*%
X125327535Y-82650725D02*
X125802051Y-82650725D01*
X125327535Y-83695725D02*
X125802051Y-83695725D01*
%TO.C,C5*%
X119757524Y-46640580D02*
X119757524Y-46359420D01*
X120777524Y-46640580D02*
X120777524Y-46359420D01*
%TO.C,R19*%
X104154500Y-81169742D02*
X104154500Y-81644258D01*
X103109500Y-81169742D02*
X103109500Y-81644258D01*
%TO.C,C15*%
X112297761Y-46320470D02*
X112297761Y-46601630D01*
X111277761Y-46320470D02*
X111277761Y-46601630D01*
%TO.C,R9*%
X82945500Y-48911742D02*
X82945500Y-49386258D01*
X81900500Y-48911742D02*
X81900500Y-49386258D01*
%TO.C,D3*%
X73936123Y-48303045D02*
X73936123Y-46383045D01*
X73936123Y-46383045D02*
X71251123Y-46383045D01*
X71251123Y-48303045D02*
X73936123Y-48303045D01*
D11*
%TO.C,S2*%
X66548000Y-64008000D02*
X66548000Y-66548000D01*
D15*
X68834000Y-64770000D02*
X68834000Y-65786000D01*
D16*
X69469000Y-64643000D02*
G75*
G03*
X69469000Y-64643000I-127000J0D01*
G01*
D14*
%TO.C,C9*%
X108256132Y-46950085D02*
X108256132Y-46427581D01*
X109726132Y-46950085D02*
X109726132Y-46427581D01*
D15*
%TO.C,Q1*%
X113780631Y-59429091D02*
X113780631Y-58769091D01*
X112480631Y-60559091D02*
X113255631Y-60559091D01*
X112480631Y-59719091D02*
X112480631Y-60559091D01*
X112480631Y-58479091D02*
X112480631Y-57639091D01*
X112480631Y-57639091D02*
X113255631Y-57639091D01*
D16*
X115008631Y-60623091D02*
G75*
G03*
X115008631Y-60623091I-100000J0D01*
G01*
D14*
%TO.C,R21*%
X85202500Y-84819258D02*
X85202500Y-84344742D01*
X86247500Y-84819258D02*
X86247500Y-84344742D01*
%TO.C,C6*%
X102639132Y-46604413D02*
X102639132Y-46323253D01*
X103659132Y-46604413D02*
X103659132Y-46323253D01*
%TO.C,R17*%
X84596500Y-77867742D02*
X84596500Y-78342258D01*
X83551500Y-77867742D02*
X83551500Y-78342258D01*
%TO.C,C4*%
X117510000Y-59134420D02*
X117510000Y-59415580D01*
X116490000Y-59134420D02*
X116490000Y-59415580D01*
D17*
%TO.C,U3*%
X76276200Y-50165000D02*
X77343000Y-50165000D01*
X77343000Y-50165000D02*
X78359000Y-50165000D01*
X78359000Y-50165000D02*
X79425800Y-50165000D01*
D18*
X79451200Y-50165000D02*
X79451200Y-45085000D01*
D17*
X79806800Y-49784000D02*
X79806800Y-45466000D01*
X75895200Y-45466000D02*
X75895200Y-49784000D01*
X79425800Y-45085000D02*
X76276200Y-45085000D01*
X75895200Y-49784000D02*
G75*
G03*
X76276200Y-50165000I380999J-1D01*
G01*
X78359000Y-50165000D02*
G75*
G03*
X77343000Y-50165000I-508000J0D01*
G01*
X79425800Y-50165000D02*
G75*
G03*
X79806800Y-49784000I1J380999D01*
G01*
X76276200Y-45085000D02*
G75*
G03*
X75895200Y-45466000I0J-381000D01*
G01*
X79806800Y-45466000D02*
G75*
G03*
X79425800Y-45085000I-381000J0D01*
G01*
D14*
%TO.C,D6*%
X81279000Y-79008000D02*
X77979000Y-79008000D01*
X81279000Y-79008000D02*
X81279000Y-84518000D01*
X77979000Y-79008000D02*
X77979000Y-84518000D01*
D11*
%TO.C,S1*%
X66548000Y-50800000D02*
X66548000Y-53340000D01*
D15*
X68834000Y-51562000D02*
X68834000Y-52578000D01*
D16*
X69469000Y-51435000D02*
G75*
G03*
X69469000Y-51435000I-127000J0D01*
G01*
D14*
%TO.C,C12*%
X81905870Y-46315462D02*
X81905870Y-46034302D01*
X82925870Y-46315462D02*
X82925870Y-46034302D01*
D15*
%TO.C,J2*%
X92986000Y-75880000D02*
X92986000Y-76860000D01*
X92986000Y-79140000D02*
X92986000Y-81470000D01*
X94916000Y-75880000D02*
X92986000Y-75880000D01*
X100126000Y-75880000D02*
X102086000Y-75880000D01*
X102086000Y-75880000D02*
X102086000Y-76850000D01*
X102086000Y-79170000D02*
X102086000Y-81470000D01*
X102086000Y-81480000D02*
X92986000Y-81480000D01*
X95396000Y-76250000D02*
G75*
G03*
X95396000Y-76250000I-110000J0D01*
G01*
D14*
%TO.C,C7*%
X121311319Y-55025762D02*
X121311319Y-54744602D01*
X122331319Y-55025762D02*
X122331319Y-54744602D01*
%TO.C,D7*%
X120542631Y-76855111D02*
X117242631Y-76855111D01*
X120542631Y-76855111D02*
X120542631Y-82365111D01*
X117242631Y-76855111D02*
X117242631Y-82365111D01*
%TO.C,C14*%
X125586517Y-75132765D02*
X125305357Y-75132765D01*
X125586517Y-74112765D02*
X125305357Y-74112765D01*
%TO.C,C3*%
X119300503Y-46373636D02*
X119300503Y-46654796D01*
X118280503Y-46373636D02*
X118280503Y-46654796D01*
%TO.C,C19*%
X122094315Y-82392639D02*
X122616819Y-82392639D01*
X122094315Y-83862639D02*
X122616819Y-83862639D01*
%TO.C,R7*%
X68850742Y-46721500D02*
X69325258Y-46721500D01*
X68850742Y-47766500D02*
X69325258Y-47766500D01*
D11*
%TO.C,S4*%
X66548000Y-77216000D02*
X66548000Y-79756000D01*
D15*
X68834000Y-77978000D02*
X68834000Y-78994000D01*
D16*
X69469000Y-77851000D02*
G75*
G03*
X69469000Y-77851000I-127000J0D01*
G01*
D14*
%TO.C,JP1*%
X67942000Y-44085000D02*
X70742000Y-44085000D01*
X67942000Y-46085000D02*
X67942000Y-44085000D01*
X70742000Y-44085000D02*
X70742000Y-46085000D01*
X70742000Y-46085000D02*
X67942000Y-46085000D01*
%TO.C,C13*%
X107122831Y-48680065D02*
X107403991Y-48680065D01*
X107122831Y-49700065D02*
X107403991Y-49700065D01*
D15*
%TO.C,U4*%
X114671000Y-86022000D02*
X107071000Y-86022000D01*
X114671000Y-75522000D02*
X107071000Y-75522000D01*
D16*
X115416000Y-86233000D02*
G75*
G03*
X115416000Y-86233000I-100000J0D01*
G01*
D14*
%TO.C,R10*%
X69672851Y-69297706D02*
X69672851Y-69772222D01*
X68627851Y-69297706D02*
X68627851Y-69772222D01*
%TO.C,C10*%
X103151000Y-78366252D02*
X103151000Y-77843748D01*
X104621000Y-78366252D02*
X104621000Y-77843748D01*
%TO.C,D1*%
X68460000Y-55815000D02*
X66540000Y-55815000D01*
X66540000Y-55815000D02*
X66540000Y-58500000D01*
X68460000Y-58500000D02*
X68460000Y-55815000D01*
%TO.C,C11*%
X72657580Y-46103000D02*
X72376420Y-46103000D01*
X72657580Y-45083000D02*
X72376420Y-45083000D01*
%TO.C,U5*%
X84795000Y-82931000D02*
X84795000Y-80006000D01*
X84795000Y-82931000D02*
X84795000Y-84431000D01*
X81575000Y-82931000D02*
X81575000Y-81431000D01*
X81575000Y-82931000D02*
X81575000Y-84431000D01*
D11*
X84634605Y-82169000D02*
G75*
G03*
X84634605Y-82169000I-179605J0D01*
G01*
D14*
%TO.C,C2*%
X113768303Y-46314574D02*
X113768303Y-46595734D01*
X112748303Y-46314574D02*
X112748303Y-46595734D01*
%TO.C,R5*%
X68690558Y-57521539D02*
X68690558Y-57047023D01*
X69735558Y-57521539D02*
X69735558Y-57047023D01*
%TO.C,G\u002A\u002A\u002A*%
G36*
X110288420Y-56774398D02*
G01*
X110296968Y-56775985D01*
X110304841Y-56779315D01*
X110308836Y-56781554D01*
X110323924Y-56793198D01*
X110334911Y-56808197D01*
X110339791Y-56819182D01*
X110341514Y-56824920D01*
X110342604Y-56831493D01*
X110343114Y-56839966D01*
X110343092Y-56851406D01*
X110342590Y-56866878D01*
X110342336Y-56872860D01*
X110340503Y-56914453D01*
X110372982Y-56914453D01*
X110392940Y-56914955D01*
X110408601Y-56916673D01*
X110421050Y-56919919D01*
X110431368Y-56925007D01*
X110440640Y-56932252D01*
X110443323Y-56934836D01*
X110454698Y-56949784D01*
X110461362Y-56966538D01*
X110463314Y-56984155D01*
X110460556Y-57001691D01*
X110453086Y-57018202D01*
X110443323Y-57030438D01*
X110434575Y-57038096D01*
X110425244Y-57043655D01*
X110414283Y-57047410D01*
X110400646Y-57049651D01*
X110383287Y-57050672D01*
X110370490Y-57050821D01*
X110335520Y-57050821D01*
X110335346Y-57059685D01*
X110335093Y-57065958D01*
X110334541Y-57076172D01*
X110333777Y-57088827D01*
X110333026Y-57100342D01*
X110331893Y-57114876D01*
X110330595Y-57125328D01*
X110328842Y-57133071D01*
X110326339Y-57139476D01*
X110323594Y-57144569D01*
X110312123Y-57159149D01*
X110297527Y-57169973D01*
X110280820Y-57176662D01*
X110263015Y-57178834D01*
X110245127Y-57176111D01*
X110242102Y-57175116D01*
X110225541Y-57166386D01*
X110211687Y-57153281D01*
X110205349Y-57144141D01*
X110202461Y-57139040D01*
X110200431Y-57134472D01*
X110199119Y-57129372D01*
X110198383Y-57122675D01*
X110198084Y-57113319D01*
X110198082Y-57100238D01*
X110198169Y-57089686D01*
X110198550Y-57048094D01*
X110154335Y-57048094D01*
X110133248Y-57047847D01*
X110116679Y-57046955D01*
X110103710Y-57045190D01*
X110093422Y-57042322D01*
X110084894Y-57038123D01*
X110077208Y-57032366D01*
X110072257Y-57027710D01*
X110060882Y-57012762D01*
X110054219Y-56996008D01*
X110052266Y-56978392D01*
X110055025Y-56960856D01*
X110062495Y-56944344D01*
X110072257Y-56932109D01*
X110079645Y-56925399D01*
X110087217Y-56920311D01*
X110095859Y-56916630D01*
X110106461Y-56914145D01*
X110119910Y-56912642D01*
X110137092Y-56911907D01*
X110157080Y-56911725D01*
X110204039Y-56911725D01*
X110205913Y-56871497D01*
X110206953Y-56852120D01*
X110208172Y-56837227D01*
X110209784Y-56825848D01*
X110212001Y-56817014D01*
X110215039Y-56809752D01*
X110219108Y-56803094D01*
X110221752Y-56799485D01*
X110234885Y-56786468D01*
X110250924Y-56778058D01*
X110269892Y-56774245D01*
X110276825Y-56773993D01*
X110288420Y-56774398D01*
G37*
G36*
X109340026Y-56506414D02*
G01*
X109369674Y-56506454D01*
X109402572Y-56506522D01*
X109438895Y-56506619D01*
X109478819Y-56506745D01*
X109522520Y-56506900D01*
X109570173Y-56507083D01*
X109621953Y-56507295D01*
X109678036Y-56507534D01*
X109738597Y-56507803D01*
X109803813Y-56508099D01*
X109873857Y-56508424D01*
X109948906Y-56508776D01*
X110029135Y-56509157D01*
X110076824Y-56509385D01*
X110160906Y-56509783D01*
X110239707Y-56510151D01*
X110313401Y-56510492D01*
X110382160Y-56510812D01*
X110446158Y-56511115D01*
X110505570Y-56511405D01*
X110560568Y-56511685D01*
X110611326Y-56511962D01*
X110658017Y-56512237D01*
X110700815Y-56512517D01*
X110739894Y-56512805D01*
X110775427Y-56513106D01*
X110807587Y-56513424D01*
X110836548Y-56513763D01*
X110862484Y-56514127D01*
X110885568Y-56514521D01*
X110905973Y-56514948D01*
X110923874Y-56515415D01*
X110939442Y-56515923D01*
X110952853Y-56516479D01*
X110964280Y-56517085D01*
X110973896Y-56517748D01*
X110981874Y-56518469D01*
X110988388Y-56519255D01*
X110993612Y-56520109D01*
X110997719Y-56521036D01*
X111000883Y-56522039D01*
X111003276Y-56523124D01*
X111005074Y-56524294D01*
X111006449Y-56525553D01*
X111007574Y-56526907D01*
X111008623Y-56528359D01*
X111009770Y-56529913D01*
X111011189Y-56531574D01*
X111012086Y-56532477D01*
X111022818Y-56542686D01*
X111022818Y-56580775D01*
X111022818Y-56618863D01*
X110886759Y-56811168D01*
X110750700Y-57003472D01*
X110748830Y-57331930D01*
X110748547Y-57382527D01*
X110748296Y-57427962D01*
X110748057Y-57468528D01*
X110747814Y-57504516D01*
X110747549Y-57536220D01*
X110747246Y-57563931D01*
X110746885Y-57587944D01*
X110746451Y-57608549D01*
X110745926Y-57626039D01*
X110745292Y-57640707D01*
X110744532Y-57652846D01*
X110743629Y-57662747D01*
X110742565Y-57670704D01*
X110741323Y-57677008D01*
X110739885Y-57681953D01*
X110738234Y-57685831D01*
X110736353Y-57688934D01*
X110734225Y-57691554D01*
X110731831Y-57693985D01*
X110729154Y-57696519D01*
X110727032Y-57698581D01*
X110717051Y-57706566D01*
X110705030Y-57713300D01*
X110693014Y-57717789D01*
X110684820Y-57719095D01*
X110683424Y-57720969D01*
X110680268Y-57726622D01*
X110675316Y-57736125D01*
X110668535Y-57749552D01*
X110659889Y-57766973D01*
X110649344Y-57788462D01*
X110636864Y-57814089D01*
X110622416Y-57843928D01*
X110605964Y-57878051D01*
X110587473Y-57916528D01*
X110566910Y-57959434D01*
X110544238Y-58006839D01*
X110519424Y-58058815D01*
X110492433Y-58115436D01*
X110463229Y-58176772D01*
X110431779Y-58242896D01*
X110398047Y-58313880D01*
X110395522Y-58319195D01*
X110369797Y-58373334D01*
X110344643Y-58426227D01*
X110320166Y-58477656D01*
X110296468Y-58527409D01*
X110273652Y-58575268D01*
X110251821Y-58621019D01*
X110231079Y-58664447D01*
X110211528Y-58705336D01*
X110193272Y-58743470D01*
X110176414Y-58778636D01*
X110161057Y-58810617D01*
X110147304Y-58839198D01*
X110135258Y-58864163D01*
X110125023Y-58885299D01*
X110116701Y-58902388D01*
X110110396Y-58915217D01*
X110106211Y-58923569D01*
X110104248Y-58927230D01*
X110104177Y-58927332D01*
X110091648Y-58939335D01*
X110076854Y-58947075D01*
X110060700Y-58950724D01*
X110044093Y-58950457D01*
X110027940Y-58946447D01*
X110013146Y-58938867D01*
X110000618Y-58927892D01*
X109991262Y-58913695D01*
X109987940Y-58905060D01*
X109987068Y-58900885D01*
X109985399Y-58891595D01*
X109982978Y-58877465D01*
X109979848Y-58858769D01*
X109976054Y-58835780D01*
X109971640Y-58808775D01*
X109966651Y-58778026D01*
X109961130Y-58743809D01*
X109955122Y-58706398D01*
X109948670Y-58666067D01*
X109941820Y-58623091D01*
X109934615Y-58577745D01*
X109927100Y-58530302D01*
X109919318Y-58481037D01*
X109911314Y-58430225D01*
X109904608Y-58387549D01*
X109896499Y-58335904D01*
X109888611Y-58285713D01*
X109880986Y-58237241D01*
X109873666Y-58190751D01*
X109866694Y-58146510D01*
X109860110Y-58104781D01*
X109853956Y-58065829D01*
X109848276Y-58029919D01*
X109843110Y-57997315D01*
X109838500Y-57968282D01*
X109834488Y-57943085D01*
X109831117Y-57921988D01*
X109828428Y-57905256D01*
X109826463Y-57893154D01*
X109825263Y-57885945D01*
X109824875Y-57883861D01*
X109823530Y-57886152D01*
X109819727Y-57893036D01*
X109813581Y-57904296D01*
X109805210Y-57919717D01*
X109794729Y-57939082D01*
X109782255Y-57962174D01*
X109767905Y-57988779D01*
X109751794Y-58018678D01*
X109734039Y-58051657D01*
X109714757Y-58087500D01*
X109694064Y-58125989D01*
X109672076Y-58166909D01*
X109648909Y-58210043D01*
X109624680Y-58255177D01*
X109599506Y-58302092D01*
X109573502Y-58350573D01*
X109546786Y-58400405D01*
X109539489Y-58414018D01*
X109512510Y-58464334D01*
X109486158Y-58513442D01*
X109460553Y-58561120D01*
X109435814Y-58607146D01*
X109412062Y-58651298D01*
X109389416Y-58693354D01*
X109367997Y-58733093D01*
X109347924Y-58770291D01*
X109329317Y-58804728D01*
X109312297Y-58836181D01*
X109296982Y-58864429D01*
X109283493Y-58889250D01*
X109271951Y-58910421D01*
X109262474Y-58927722D01*
X109255183Y-58940929D01*
X109250197Y-58949821D01*
X109247637Y-58954177D01*
X109247404Y-58954514D01*
X109234785Y-58966540D01*
X109219931Y-58974281D01*
X109203748Y-58977909D01*
X109187143Y-58977599D01*
X109171022Y-58973525D01*
X109156291Y-58965859D01*
X109143857Y-58954775D01*
X109134626Y-58940446D01*
X109131559Y-58932333D01*
X109130937Y-58929561D01*
X109130303Y-58925213D01*
X109129645Y-58919056D01*
X109128953Y-58910853D01*
X109128216Y-58900369D01*
X109127423Y-58887370D01*
X109126564Y-58871618D01*
X109125627Y-58852880D01*
X109124602Y-58830920D01*
X109123478Y-58805502D01*
X109122244Y-58776391D01*
X109120889Y-58743352D01*
X109119402Y-58706149D01*
X109117773Y-58664547D01*
X109115991Y-58618311D01*
X109114045Y-58567204D01*
X109111924Y-58510993D01*
X109110861Y-58482691D01*
X109109044Y-58434272D01*
X109107276Y-58387249D01*
X109105567Y-58341917D01*
X109103929Y-58298576D01*
X109102374Y-58257521D01*
X109100913Y-58219050D01*
X109099558Y-58183461D01*
X109098318Y-58151050D01*
X109097207Y-58122116D01*
X109096236Y-58096954D01*
X109095414Y-58075863D01*
X109094755Y-58059140D01*
X109094270Y-58047082D01*
X109093969Y-58039987D01*
X109093878Y-58038183D01*
X109093404Y-58037677D01*
X109092126Y-58039173D01*
X109089953Y-58042877D01*
X109086794Y-58048991D01*
X109082557Y-58057719D01*
X109077152Y-58069264D01*
X109070486Y-58083828D01*
X109062470Y-58101616D01*
X109053012Y-58122831D01*
X109042020Y-58147676D01*
X109029404Y-58176354D01*
X109015071Y-58209069D01*
X108998933Y-58246023D01*
X108980896Y-58287421D01*
X108960869Y-58333465D01*
X108943412Y-58373650D01*
X108925524Y-58414868D01*
X108908230Y-58454758D01*
X108891657Y-58493030D01*
X108875928Y-58529393D01*
X108861170Y-58563555D01*
X108847509Y-58595226D01*
X108835068Y-58624114D01*
X108823974Y-58649927D01*
X108814352Y-58672376D01*
X108806326Y-58691168D01*
X108800024Y-58706013D01*
X108795569Y-58716620D01*
X108793087Y-58722697D01*
X108792594Y-58724063D01*
X108793616Y-58726930D01*
X108796754Y-58734460D01*
X108801872Y-58746348D01*
X108808832Y-58762289D01*
X108817497Y-58781978D01*
X108827729Y-58805111D01*
X108839392Y-58831382D01*
X108852348Y-58860488D01*
X108866459Y-58892123D01*
X108881590Y-58925982D01*
X108897601Y-58961760D01*
X108914357Y-58999154D01*
X108931720Y-59037858D01*
X108949553Y-59077567D01*
X108967718Y-59117977D01*
X108986078Y-59158783D01*
X109004496Y-59199679D01*
X109022836Y-59240362D01*
X109040958Y-59280527D01*
X109058727Y-59319868D01*
X109076006Y-59358081D01*
X109092656Y-59394861D01*
X109108540Y-59429904D01*
X109123522Y-59462904D01*
X109137465Y-59493558D01*
X109150230Y-59521559D01*
X109161681Y-59546604D01*
X109171680Y-59568387D01*
X109180091Y-59586604D01*
X109186776Y-59600950D01*
X109191597Y-59611121D01*
X109194419Y-59616811D01*
X109195084Y-59617938D01*
X109196401Y-59615698D01*
X109199887Y-59608731D01*
X109205434Y-59597268D01*
X109212935Y-59581538D01*
X109222282Y-59561772D01*
X109233368Y-59538200D01*
X109246087Y-59511053D01*
X109260329Y-59480561D01*
X109275989Y-59446953D01*
X109292959Y-59410461D01*
X109311131Y-59371315D01*
X109330398Y-59329744D01*
X109350653Y-59285980D01*
X109371788Y-59240252D01*
X109393697Y-59192791D01*
X109416271Y-59143827D01*
X109431512Y-59110734D01*
X109459214Y-59050554D01*
X109484724Y-58995127D01*
X109508144Y-58944254D01*
X109529572Y-58897737D01*
X109549109Y-58855377D01*
X109566854Y-58816977D01*
X109582907Y-58782338D01*
X109597368Y-58751262D01*
X109610337Y-58723551D01*
X109621913Y-58699007D01*
X109632196Y-58677431D01*
X109641287Y-58658625D01*
X109649283Y-58642391D01*
X109656286Y-58628531D01*
X109662396Y-58616846D01*
X109667711Y-58607139D01*
X109672332Y-58599210D01*
X109676358Y-58592863D01*
X109679889Y-58587898D01*
X109683026Y-58584117D01*
X109685867Y-58581323D01*
X109688512Y-58579317D01*
X109691062Y-58577900D01*
X109693616Y-58576875D01*
X109696273Y-58576043D01*
X109699134Y-58575207D01*
X109701395Y-58574484D01*
X109711426Y-58571757D01*
X109721261Y-58570149D01*
X109724589Y-58569967D01*
X109741675Y-58572477D01*
X109757848Y-58579460D01*
X109771948Y-58590089D01*
X109782815Y-58603540D01*
X109788221Y-58615214D01*
X109789303Y-58619266D01*
X109791568Y-58628349D01*
X109794947Y-58642183D01*
X109799375Y-58660488D01*
X109804786Y-58682986D01*
X109811111Y-58709397D01*
X109818286Y-58739441D01*
X109826242Y-58772838D01*
X109834915Y-58809311D01*
X109844237Y-58848579D01*
X109854141Y-58890362D01*
X109864562Y-58934381D01*
X109875432Y-58980357D01*
X109886686Y-59028011D01*
X109898256Y-59077063D01*
X109901837Y-59092258D01*
X109913453Y-59141530D01*
X109924748Y-59189401D01*
X109935657Y-59235599D01*
X109946116Y-59279851D01*
X109956060Y-59321885D01*
X109965425Y-59361427D01*
X109974145Y-59398206D01*
X109982156Y-59431948D01*
X109989392Y-59462381D01*
X109995790Y-59489232D01*
X110001285Y-59512228D01*
X110005811Y-59531098D01*
X110009305Y-59545567D01*
X110011700Y-59555364D01*
X110012933Y-59560216D01*
X110013075Y-59560689D01*
X110014177Y-59559560D01*
X110016978Y-59554826D01*
X110021523Y-59546398D01*
X110027855Y-59534186D01*
X110036019Y-59518101D01*
X110046059Y-59498054D01*
X110058018Y-59473954D01*
X110071941Y-59445713D01*
X110087871Y-59413241D01*
X110105853Y-59376449D01*
X110125931Y-59335247D01*
X110148149Y-59289545D01*
X110172550Y-59239255D01*
X110199179Y-59184287D01*
X110228079Y-59124550D01*
X110250972Y-59077187D01*
X110274528Y-59028458D01*
X110297503Y-58980980D01*
X110319779Y-58934994D01*
X110341240Y-58890738D01*
X110361770Y-58848449D01*
X110381253Y-58808368D01*
X110399572Y-58770731D01*
X110416610Y-58735778D01*
X110432252Y-58703747D01*
X110446380Y-58674877D01*
X110458879Y-58649405D01*
X110469632Y-58627572D01*
X110478523Y-58609615D01*
X110485435Y-58595772D01*
X110490252Y-58586282D01*
X110492857Y-58581385D01*
X110493225Y-58580800D01*
X110505570Y-58569222D01*
X110521012Y-58561302D01*
X110538319Y-58557376D01*
X110556258Y-58557782D01*
X110567409Y-58560442D01*
X110580656Y-58566911D01*
X110593157Y-58576637D01*
X110603214Y-58588102D01*
X110608025Y-58596676D01*
X110608752Y-58600201D01*
X110610193Y-58608880D01*
X110612312Y-58622461D01*
X110615072Y-58640695D01*
X110618438Y-58663331D01*
X110622374Y-58690120D01*
X110626844Y-58720812D01*
X110631811Y-58755155D01*
X110637241Y-58792901D01*
X110643096Y-58833799D01*
X110649341Y-58877599D01*
X110655941Y-58924051D01*
X110662858Y-58972904D01*
X110670058Y-59023910D01*
X110677503Y-59076816D01*
X110685159Y-59131375D01*
X110692989Y-59187335D01*
X110693916Y-59193970D01*
X110776088Y-59782283D01*
X110806040Y-59783649D01*
X110826093Y-59785356D01*
X110841846Y-59788673D01*
X110854317Y-59793979D01*
X110864520Y-59801657D01*
X110870012Y-59807603D01*
X110871648Y-59809431D01*
X110873172Y-59810933D01*
X110874588Y-59812299D01*
X110875900Y-59813719D01*
X110877113Y-59815383D01*
X110878230Y-59817480D01*
X110879254Y-59820201D01*
X110880191Y-59823735D01*
X110881043Y-59828272D01*
X110881815Y-59834001D01*
X110882511Y-59841113D01*
X110883134Y-59849797D01*
X110883689Y-59860243D01*
X110884180Y-59872641D01*
X110884610Y-59887181D01*
X110884983Y-59904052D01*
X110885303Y-59923444D01*
X110885575Y-59945547D01*
X110885802Y-59970550D01*
X110885987Y-59998645D01*
X110886136Y-60030019D01*
X110886252Y-60064863D01*
X110886338Y-60103368D01*
X110886399Y-60145722D01*
X110886439Y-60192115D01*
X110886461Y-60242738D01*
X110886470Y-60297779D01*
X110886470Y-60357429D01*
X110886463Y-60421878D01*
X110886456Y-60491315D01*
X110886450Y-60565930D01*
X110886449Y-60601857D01*
X110886447Y-60678482D01*
X110886441Y-60749840D01*
X110886429Y-60816123D01*
X110886410Y-60877518D01*
X110886383Y-60934217D01*
X110886348Y-60986407D01*
X110886303Y-61034278D01*
X110886246Y-61078020D01*
X110886178Y-61117821D01*
X110886096Y-61153872D01*
X110886001Y-61186361D01*
X110885890Y-61215477D01*
X110885762Y-61241411D01*
X110885617Y-61264351D01*
X110885454Y-61284487D01*
X110885271Y-61302007D01*
X110885067Y-61317102D01*
X110884841Y-61329960D01*
X110884593Y-61340772D01*
X110884321Y-61349725D01*
X110884023Y-61357011D01*
X110883700Y-61362816D01*
X110883350Y-61367333D01*
X110882971Y-61370748D01*
X110882563Y-61373253D01*
X110882125Y-61375035D01*
X110882053Y-61375263D01*
X110880965Y-61378057D01*
X110879304Y-61381191D01*
X110876805Y-61384942D01*
X110873202Y-61389591D01*
X110868230Y-61395414D01*
X110861625Y-61402692D01*
X110853120Y-61411704D01*
X110842451Y-61422727D01*
X110829353Y-61436042D01*
X110813561Y-61451926D01*
X110794809Y-61470658D01*
X110772833Y-61492518D01*
X110747367Y-61517785D01*
X110733133Y-61531891D01*
X110709539Y-61555208D01*
X110686842Y-61577527D01*
X110665372Y-61598529D01*
X110645461Y-61617896D01*
X110627438Y-61635310D01*
X110611634Y-61650452D01*
X110598381Y-61663004D01*
X110588009Y-61672647D01*
X110580849Y-61679063D01*
X110577296Y-61681896D01*
X110565983Y-61688715D01*
X110108599Y-61689428D01*
X109651215Y-61690141D01*
X109652394Y-61703065D01*
X109652641Y-61707849D01*
X109652986Y-61717630D01*
X109653417Y-61731948D01*
X109653923Y-61750347D01*
X109654492Y-61772369D01*
X109655113Y-61797556D01*
X109655774Y-61825450D01*
X109656463Y-61855593D01*
X109657169Y-61887528D01*
X109657875Y-61920541D01*
X109658585Y-61953658D01*
X109659291Y-61985331D01*
X109659981Y-62015114D01*
X109660643Y-62042564D01*
X109661267Y-62067236D01*
X109661840Y-62088685D01*
X109662350Y-62106467D01*
X109662788Y-62120137D01*
X109663140Y-62129250D01*
X109663395Y-62133362D01*
X109663399Y-62133387D01*
X109664361Y-62135809D01*
X109666867Y-62139598D01*
X109671154Y-62145005D01*
X109677455Y-62152282D01*
X109686009Y-62161681D01*
X109697048Y-62173454D01*
X109710811Y-62187852D01*
X109727531Y-62205127D01*
X109747444Y-62225530D01*
X109770787Y-62249313D01*
X109793696Y-62272572D01*
X109819421Y-62298682D01*
X109841571Y-62321224D01*
X109860422Y-62340494D01*
X109876246Y-62356788D01*
X109889320Y-62370403D01*
X109899917Y-62381636D01*
X109908312Y-62390783D01*
X109914780Y-62398139D01*
X109919595Y-62404003D01*
X109923032Y-62408669D01*
X109925365Y-62412435D01*
X109926869Y-62415597D01*
X109927320Y-62416816D01*
X109931304Y-62436155D01*
X109929984Y-62454699D01*
X109923467Y-62471978D01*
X109911858Y-62487523D01*
X109911060Y-62488332D01*
X109899285Y-62500107D01*
X109863075Y-62500159D01*
X109826866Y-62500210D01*
X109709462Y-62381092D01*
X109592058Y-62261974D01*
X109477635Y-62381016D01*
X109363213Y-62500058D01*
X109317546Y-62500083D01*
X109271880Y-62500107D01*
X109264072Y-62489328D01*
X109254914Y-62472379D01*
X109250795Y-62454287D01*
X109251781Y-62435917D01*
X109257937Y-62418134D01*
X109258565Y-62416929D01*
X109261730Y-62412605D01*
X109268482Y-62404644D01*
X109278584Y-62393302D01*
X109291800Y-62378833D01*
X109307894Y-62361492D01*
X109326629Y-62341533D01*
X109347769Y-62319211D01*
X109371078Y-62294781D01*
X109395259Y-62269598D01*
X109525491Y-62134367D01*
X109525306Y-62094274D01*
X109525169Y-62078703D01*
X109524895Y-62059619D01*
X109524498Y-62037530D01*
X109523993Y-62012947D01*
X109523396Y-61986378D01*
X109522719Y-61958333D01*
X109521979Y-61929322D01*
X109521190Y-61899853D01*
X109520367Y-61870438D01*
X109519525Y-61841584D01*
X109518678Y-61813801D01*
X109517840Y-61787600D01*
X109517028Y-61763488D01*
X109516255Y-61741977D01*
X109515537Y-61723574D01*
X109514888Y-61708790D01*
X109514322Y-61698134D01*
X109513856Y-61692116D01*
X109513628Y-61690943D01*
X109510707Y-61690700D01*
X109502610Y-61690455D01*
X109489616Y-61690208D01*
X109472002Y-61689962D01*
X109450049Y-61689719D01*
X109424033Y-61689479D01*
X109394235Y-61689246D01*
X109360932Y-61689020D01*
X109324403Y-61688805D01*
X109284928Y-61688601D01*
X109242783Y-61688410D01*
X109198249Y-61688235D01*
X109151603Y-61688077D01*
X109103125Y-61687938D01*
X109053092Y-61687820D01*
X109037065Y-61687787D01*
X108562730Y-61686860D01*
X108562860Y-61724607D01*
X108562952Y-61733732D01*
X108563174Y-61747759D01*
X108563514Y-61766136D01*
X108563960Y-61788310D01*
X108564501Y-61813730D01*
X108565125Y-61841845D01*
X108565819Y-61872102D01*
X108566572Y-61903950D01*
X108567372Y-61936837D01*
X108567865Y-61956664D01*
X108572740Y-62150975D01*
X108632510Y-62209033D01*
X108650244Y-62226255D01*
X108670751Y-62246162D01*
X108692888Y-62267645D01*
X108715509Y-62289592D01*
X108737470Y-62310894D01*
X108757628Y-62330441D01*
X108760917Y-62333630D01*
X108777248Y-62349595D01*
X108792528Y-62364790D01*
X108806258Y-62378697D01*
X108817936Y-62390799D01*
X108827062Y-62400578D01*
X108833136Y-62407517D01*
X108835440Y-62410640D01*
X108841523Y-62426757D01*
X108843048Y-62444263D01*
X108840197Y-62461844D01*
X108833147Y-62478183D01*
X108824701Y-62489375D01*
X108814492Y-62500107D01*
X108775730Y-62500107D01*
X108736967Y-62500107D01*
X108695532Y-62460166D01*
X108683796Y-62448833D01*
X108668917Y-62434436D01*
X108651660Y-62417714D01*
X108632789Y-62399410D01*
X108613068Y-62380266D01*
X108593262Y-62361021D01*
X108576017Y-62344248D01*
X108497937Y-62268273D01*
X108380606Y-62384190D01*
X108263275Y-62500107D01*
X108218134Y-62500107D01*
X108172993Y-62500107D01*
X108166090Y-62491056D01*
X108156265Y-62473985D01*
X108151693Y-62455609D01*
X108152434Y-62436290D01*
X108155284Y-62424909D01*
X108156390Y-62422056D01*
X108158073Y-62418873D01*
X108160604Y-62415072D01*
X108164257Y-62410368D01*
X108169302Y-62404473D01*
X108176012Y-62397101D01*
X108184659Y-62387966D01*
X108195515Y-62376780D01*
X108208852Y-62363258D01*
X108224942Y-62347113D01*
X108244056Y-62328057D01*
X108266468Y-62305805D01*
X108292449Y-62280071D01*
X108297661Y-62274913D01*
X108435650Y-62138358D01*
X108430794Y-61916264D01*
X108430032Y-61881902D01*
X108429285Y-61849094D01*
X108428562Y-61818251D01*
X108427876Y-61789783D01*
X108427235Y-61764105D01*
X108426652Y-61741627D01*
X108426135Y-61722761D01*
X108425697Y-61707919D01*
X108425347Y-61697514D01*
X108425096Y-61691956D01*
X108425015Y-61691136D01*
X108423328Y-61690871D01*
X108418370Y-61690614D01*
X108410047Y-61690365D01*
X108398269Y-61690124D01*
X108382943Y-61689890D01*
X108363976Y-61689663D01*
X108341277Y-61689443D01*
X108314753Y-61689228D01*
X108284313Y-61689019D01*
X108249863Y-61688816D01*
X108211313Y-61688618D01*
X108168569Y-61688424D01*
X108121540Y-61688234D01*
X108070133Y-61688048D01*
X108014256Y-61687866D01*
X107953817Y-61687687D01*
X107888724Y-61687510D01*
X107818885Y-61687336D01*
X107744207Y-61687163D01*
X107664599Y-61686993D01*
X107579967Y-61686823D01*
X107490221Y-61686654D01*
X107395268Y-61686486D01*
X107295015Y-61686318D01*
X107223139Y-61686202D01*
X107125853Y-61686050D01*
X107033872Y-61685910D01*
X106947046Y-61685780D01*
X106865224Y-61685656D01*
X106788256Y-61685538D01*
X106715993Y-61685422D01*
X106648284Y-61685307D01*
X106584979Y-61685190D01*
X106525928Y-61685069D01*
X106470982Y-61684942D01*
X106419988Y-61684807D01*
X106372799Y-61684662D01*
X106329264Y-61684504D01*
X106289232Y-61684331D01*
X106252553Y-61684141D01*
X106219078Y-61683931D01*
X106188656Y-61683700D01*
X106161138Y-61683446D01*
X106136373Y-61683165D01*
X106114210Y-61682857D01*
X106094501Y-61682518D01*
X106077095Y-61682146D01*
X106061841Y-61681740D01*
X106048591Y-61681297D01*
X106037192Y-61680815D01*
X106027497Y-61680291D01*
X106019354Y-61679724D01*
X106012613Y-61679111D01*
X106007125Y-61678450D01*
X106002739Y-61677739D01*
X105999305Y-61676976D01*
X105996673Y-61676157D01*
X105994693Y-61675283D01*
X105993214Y-61674349D01*
X105992088Y-61673354D01*
X105991163Y-61672295D01*
X105990290Y-61671171D01*
X105989319Y-61669979D01*
X105988099Y-61668718D01*
X105987324Y-61668039D01*
X105977183Y-61659680D01*
X105977183Y-61562103D01*
X105977183Y-61546891D01*
X106105073Y-61546891D01*
X106178178Y-61547662D01*
X106184988Y-61547709D01*
X106197086Y-61547762D01*
X106214306Y-61547821D01*
X106236483Y-61547886D01*
X106263449Y-61547957D01*
X106295038Y-61548033D01*
X106331084Y-61548114D01*
X106371421Y-61548201D01*
X106415883Y-61548292D01*
X106464303Y-61548387D01*
X106516515Y-61548487D01*
X106572352Y-61548591D01*
X106631649Y-61548698D01*
X106694239Y-61548809D01*
X106759956Y-61548923D01*
X106828634Y-61549040D01*
X106900105Y-61549160D01*
X106974205Y-61549282D01*
X107050766Y-61549407D01*
X107129623Y-61549533D01*
X107210609Y-61549662D01*
X107293558Y-61549791D01*
X107378304Y-61549922D01*
X107464680Y-61550055D01*
X107552520Y-61550187D01*
X107641657Y-61550321D01*
X107731927Y-61550454D01*
X107823161Y-61550588D01*
X107915194Y-61550721D01*
X108007860Y-61550855D01*
X108100993Y-61550987D01*
X108194425Y-61551118D01*
X108287992Y-61551248D01*
X108381526Y-61551377D01*
X108474861Y-61551504D01*
X108567831Y-61551629D01*
X108660270Y-61551752D01*
X108752011Y-61551873D01*
X108842889Y-61551991D01*
X108932736Y-61552105D01*
X109021387Y-61552217D01*
X109108675Y-61552326D01*
X109194435Y-61552430D01*
X109278499Y-61552531D01*
X109360702Y-61552628D01*
X109440876Y-61552720D01*
X109518857Y-61552808D01*
X109594478Y-61552891D01*
X109667571Y-61552969D01*
X109737972Y-61553041D01*
X109805514Y-61553108D01*
X109870030Y-61553168D01*
X109931355Y-61553223D01*
X109965968Y-61553253D01*
X110516904Y-61553710D01*
X110633492Y-61438934D01*
X110750081Y-61324157D01*
X110750081Y-60622149D01*
X110750081Y-59920140D01*
X109483473Y-59920047D01*
X109383447Y-59920038D01*
X109288733Y-59920027D01*
X109199186Y-59920012D01*
X109114665Y-59919994D01*
X109035024Y-59919971D01*
X108960122Y-59919944D01*
X108889815Y-59919912D01*
X108823958Y-59919875D01*
X108762410Y-59919831D01*
X108705027Y-59919781D01*
X108651665Y-59919724D01*
X108602181Y-59919660D01*
X108556432Y-59919588D01*
X108514274Y-59919507D01*
X108475564Y-59919418D01*
X108440159Y-59919319D01*
X108407916Y-59919210D01*
X108378690Y-59919092D01*
X108352339Y-59918962D01*
X108328720Y-59918821D01*
X108307688Y-59918669D01*
X108289101Y-59918505D01*
X108272816Y-59918328D01*
X108258688Y-59918137D01*
X108246575Y-59917934D01*
X108236334Y-59917716D01*
X108227821Y-59917484D01*
X108220892Y-59917237D01*
X108215404Y-59916974D01*
X108211215Y-59916695D01*
X108208180Y-59916401D01*
X108206157Y-59916089D01*
X108205206Y-59915840D01*
X108187949Y-59907079D01*
X108174394Y-59894547D01*
X108164974Y-59878800D01*
X108160127Y-59860394D01*
X108159867Y-59857968D01*
X108159474Y-59848533D01*
X108160490Y-59840046D01*
X108163309Y-59830348D01*
X108166511Y-59821829D01*
X108168947Y-59815909D01*
X108173429Y-59805303D01*
X108179871Y-59790204D01*
X108182684Y-59783646D01*
X108331210Y-59783646D01*
X108725198Y-59783646D01*
X109119186Y-59783646D01*
X109118307Y-59781601D01*
X109272699Y-59781601D01*
X109275218Y-59781862D01*
X109282860Y-59782114D01*
X109295292Y-59782354D01*
X109312182Y-59782580D01*
X109333197Y-59782790D01*
X109358005Y-59782982D01*
X109386273Y-59783154D01*
X109417671Y-59783304D01*
X109451864Y-59783429D01*
X109488520Y-59783528D01*
X109527309Y-59783598D01*
X109567896Y-59783638D01*
X109597606Y-59783646D01*
X109639296Y-59783630D01*
X109679441Y-59783581D01*
X109717707Y-59783502D01*
X109753761Y-59783395D01*
X109787267Y-59783262D01*
X109817892Y-59783106D01*
X109845302Y-59782928D01*
X109869163Y-59782730D01*
X109889141Y-59782515D01*
X109904901Y-59782285D01*
X109916110Y-59782041D01*
X109920400Y-59781868D01*
X110062783Y-59781868D01*
X110065451Y-59782110D01*
X110073219Y-59782342D01*
X110085730Y-59782562D01*
X110102629Y-59782768D01*
X110123561Y-59782958D01*
X110148171Y-59783129D01*
X110176102Y-59783280D01*
X110206999Y-59783408D01*
X110240507Y-59783511D01*
X110276271Y-59783586D01*
X110313934Y-59783632D01*
X110350521Y-59783646D01*
X110389638Y-59783635D01*
X110427187Y-59783603D01*
X110462813Y-59783551D01*
X110496160Y-59783481D01*
X110526873Y-59783395D01*
X110554596Y-59783293D01*
X110578975Y-59783177D01*
X110599652Y-59783049D01*
X110616274Y-59782911D01*
X110628484Y-59782763D01*
X110635926Y-59782607D01*
X110638258Y-59782455D01*
X110637887Y-59779545D01*
X110636806Y-59771574D01*
X110635061Y-59758884D01*
X110632701Y-59741812D01*
X110629772Y-59720697D01*
X110626323Y-59695878D01*
X110622401Y-59667694D01*
X110618052Y-59636485D01*
X110613325Y-59602588D01*
X110608268Y-59566343D01*
X110602926Y-59528088D01*
X110597348Y-59488163D01*
X110591582Y-59446907D01*
X110585674Y-59404658D01*
X110579673Y-59361756D01*
X110573625Y-59318538D01*
X110567578Y-59275345D01*
X110561580Y-59232514D01*
X110555677Y-59190386D01*
X110549918Y-59149298D01*
X110544349Y-59109590D01*
X110539019Y-59071600D01*
X110533974Y-59035668D01*
X110529263Y-59002133D01*
X110524932Y-58971332D01*
X110521028Y-58943606D01*
X110517601Y-58919293D01*
X110514695Y-58898732D01*
X110512361Y-58882261D01*
X110510643Y-58870221D01*
X110509591Y-58862949D01*
X110509254Y-58860765D01*
X110509222Y-58860312D01*
X110509272Y-58859732D01*
X110509307Y-58859222D01*
X110509231Y-58858981D01*
X110508948Y-58859207D01*
X110508360Y-58860098D01*
X110507371Y-58861851D01*
X110505885Y-58864665D01*
X110503805Y-58868737D01*
X110501035Y-58874266D01*
X110497477Y-58881449D01*
X110493036Y-58890485D01*
X110487615Y-58901571D01*
X110481118Y-58914905D01*
X110473447Y-58930686D01*
X110464506Y-58949111D01*
X110454200Y-58970378D01*
X110442430Y-58994685D01*
X110429101Y-59022231D01*
X110414116Y-59053212D01*
X110397379Y-59087828D01*
X110378793Y-59126275D01*
X110358261Y-59168753D01*
X110335688Y-59215458D01*
X110310975Y-59266590D01*
X110284028Y-59322345D01*
X110271194Y-59348898D01*
X110249135Y-59394547D01*
X110227724Y-59438875D01*
X110207081Y-59481632D01*
X110187326Y-59522568D01*
X110168579Y-59561436D01*
X110150960Y-59597984D01*
X110134589Y-59631965D01*
X110119587Y-59663127D01*
X110106073Y-59691223D01*
X110094167Y-59716002D01*
X110083989Y-59737215D01*
X110075660Y-59754613D01*
X110069299Y-59767946D01*
X110065027Y-59776965D01*
X110062964Y-59781421D01*
X110062783Y-59781868D01*
X109920400Y-59781868D01*
X109922433Y-59781786D01*
X109923774Y-59781601D01*
X109923182Y-59778431D01*
X109921406Y-59770325D01*
X109918524Y-59757607D01*
X109914614Y-59740606D01*
X109909753Y-59719647D01*
X109904019Y-59695056D01*
X109897489Y-59667161D01*
X109890241Y-59636288D01*
X109882353Y-59602763D01*
X109873902Y-59566912D01*
X109864966Y-59529063D01*
X109855622Y-59489541D01*
X109845949Y-59448673D01*
X109836022Y-59406786D01*
X109825921Y-59364205D01*
X109815722Y-59321259D01*
X109805503Y-59278272D01*
X109795343Y-59235571D01*
X109785317Y-59193483D01*
X109775505Y-59152335D01*
X109765983Y-59112453D01*
X109756830Y-59074162D01*
X109748122Y-59037791D01*
X109739937Y-59003664D01*
X109732353Y-58972109D01*
X109725448Y-58943453D01*
X109719299Y-58918021D01*
X109713983Y-58896140D01*
X109709579Y-58878136D01*
X109706163Y-58864337D01*
X109703814Y-58855068D01*
X109702609Y-58850655D01*
X109702466Y-58850321D01*
X109701168Y-58852958D01*
X109697703Y-58860308D01*
X109692184Y-58872125D01*
X109684724Y-58888166D01*
X109675435Y-58908188D01*
X109664430Y-58931946D01*
X109651822Y-58959196D01*
X109637723Y-58989695D01*
X109622247Y-59023199D01*
X109605505Y-59059464D01*
X109587611Y-59098246D01*
X109568677Y-59139301D01*
X109548815Y-59182386D01*
X109528140Y-59227256D01*
X109506762Y-59273668D01*
X109487316Y-59315902D01*
X109465414Y-59363476D01*
X109444120Y-59409726D01*
X109423545Y-59454408D01*
X109403802Y-59497277D01*
X109385003Y-59538091D01*
X109367262Y-59576604D01*
X109350689Y-59612574D01*
X109335398Y-59645757D01*
X109321502Y-59675908D01*
X109309111Y-59702783D01*
X109298340Y-59726139D01*
X109289300Y-59745732D01*
X109282103Y-59761318D01*
X109276863Y-59772652D01*
X109273691Y-59779492D01*
X109272699Y-59781601D01*
X109118307Y-59781601D01*
X109115378Y-59774782D01*
X109113857Y-59771378D01*
X109110202Y-59763267D01*
X109104530Y-59750711D01*
X109096960Y-59733971D01*
X109087610Y-59713307D01*
X109076599Y-59688982D01*
X109064044Y-59661256D01*
X109050065Y-59630391D01*
X109034779Y-59596648D01*
X109018305Y-59560287D01*
X109000761Y-59521571D01*
X108982265Y-59480760D01*
X108962936Y-59438116D01*
X108942891Y-59393899D01*
X108922250Y-59348371D01*
X108918658Y-59340449D01*
X108897922Y-59294713D01*
X108877760Y-59250237D01*
X108858291Y-59207284D01*
X108839633Y-59166115D01*
X108821904Y-59126991D01*
X108805223Y-59090174D01*
X108789709Y-59055926D01*
X108775480Y-59024508D01*
X108762654Y-58996182D01*
X108751350Y-58971210D01*
X108741687Y-58949853D01*
X108733782Y-58932373D01*
X108727756Y-58919031D01*
X108723725Y-58910090D01*
X108721808Y-58905810D01*
X108721701Y-58905566D01*
X108718802Y-58899806D01*
X108716714Y-58898670D01*
X108715296Y-58900373D01*
X108713972Y-58903290D01*
X108710591Y-58910952D01*
X108705264Y-58923099D01*
X108698106Y-58939472D01*
X108689228Y-58959811D01*
X108678744Y-58983856D01*
X108666767Y-59011348D01*
X108653410Y-59042028D01*
X108638785Y-59075635D01*
X108623006Y-59111911D01*
X108606186Y-59150596D01*
X108588438Y-59191431D01*
X108569875Y-59234155D01*
X108550609Y-59278510D01*
X108530754Y-59324235D01*
X108527154Y-59332528D01*
X108507152Y-59378599D01*
X108487692Y-59423422D01*
X108468889Y-59466732D01*
X108450857Y-59508264D01*
X108433712Y-59547751D01*
X108417569Y-59584929D01*
X108402543Y-59619532D01*
X108388751Y-59651295D01*
X108376306Y-59679952D01*
X108365324Y-59705238D01*
X108355921Y-59726887D01*
X108348212Y-59744634D01*
X108342312Y-59758214D01*
X108338335Y-59767361D01*
X108336399Y-59771809D01*
X108336291Y-59772055D01*
X108331210Y-59783646D01*
X108182684Y-59783646D01*
X108188189Y-59770809D01*
X108198298Y-59747313D01*
X108210113Y-59719912D01*
X108223549Y-59688799D01*
X108238520Y-59654172D01*
X108254942Y-59616224D01*
X108272730Y-59575152D01*
X108291799Y-59531150D01*
X108312063Y-59484414D01*
X108333438Y-59435139D01*
X108355839Y-59383521D01*
X108379181Y-59329755D01*
X108403379Y-59274035D01*
X108428347Y-59216558D01*
X108454001Y-59157518D01*
X108480255Y-59097112D01*
X108507026Y-59035533D01*
X108534227Y-58972978D01*
X108561774Y-58909642D01*
X108589581Y-58845720D01*
X108617565Y-58781407D01*
X108645639Y-58716899D01*
X108673719Y-58652390D01*
X108701719Y-58588077D01*
X108729555Y-58524155D01*
X108757142Y-58460818D01*
X108784395Y-58398262D01*
X108811228Y-58336682D01*
X108837557Y-58276275D01*
X108863297Y-58217234D01*
X108888362Y-58159755D01*
X108912669Y-58104034D01*
X108936130Y-58050265D01*
X108958663Y-57998645D01*
X108980181Y-57949368D01*
X109000600Y-57902629D01*
X109019834Y-57858625D01*
X109037799Y-57817550D01*
X109054410Y-57779599D01*
X109069519Y-57745112D01*
X109218659Y-57745112D01*
X109218749Y-57753898D01*
X109219003Y-57757624D01*
X109219445Y-57766445D01*
X109220063Y-57780006D01*
X109220841Y-57797949D01*
X109221766Y-57819920D01*
X109222825Y-57845563D01*
X109224004Y-57874520D01*
X109225290Y-57906438D01*
X109226667Y-57940959D01*
X109228124Y-57977728D01*
X109229646Y-58016388D01*
X109231220Y-58056584D01*
X109232831Y-58097961D01*
X109234466Y-58140161D01*
X109236112Y-58182830D01*
X109237755Y-58225610D01*
X109239380Y-58268147D01*
X109240975Y-58310084D01*
X109242526Y-58351066D01*
X109244018Y-58390736D01*
X109245439Y-58428739D01*
X109246775Y-58464719D01*
X109248012Y-58498319D01*
X109249135Y-58529184D01*
X109250133Y-58556958D01*
X109250990Y-58581285D01*
X109251693Y-58601809D01*
X109252229Y-58618174D01*
X109252584Y-58630025D01*
X109252744Y-58637005D01*
X109252751Y-58638014D01*
X109253096Y-58647495D01*
X109254064Y-58652570D01*
X109255292Y-58653015D01*
X109256819Y-58650385D01*
X109260795Y-58643179D01*
X109267096Y-58631633D01*
X109275594Y-58615979D01*
X109286164Y-58596451D01*
X109298681Y-58573282D01*
X109313018Y-58546707D01*
X109329050Y-58516959D01*
X109346651Y-58484272D01*
X109365695Y-58448878D01*
X109386055Y-58411013D01*
X109407608Y-58370909D01*
X109430225Y-58328799D01*
X109453783Y-58284919D01*
X109478154Y-58239501D01*
X109503213Y-58192778D01*
X109506211Y-58187187D01*
X109531316Y-58140358D01*
X109555725Y-58094819D01*
X109579311Y-58050803D01*
X109601952Y-58008541D01*
X109623522Y-57968267D01*
X109643897Y-57930212D01*
X109662953Y-57894610D01*
X109680565Y-57861692D01*
X109696609Y-57831692D01*
X109710961Y-57804841D01*
X109723497Y-57781373D01*
X109734091Y-57761520D01*
X109742620Y-57745514D01*
X109748959Y-57733588D01*
X109752984Y-57725974D01*
X109754570Y-57722905D01*
X109754590Y-57722852D01*
X109751925Y-57722697D01*
X109744176Y-57722548D01*
X109731713Y-57722407D01*
X109714909Y-57722275D01*
X109694134Y-57722155D01*
X109669759Y-57722048D01*
X109642156Y-57721955D01*
X109611694Y-57721878D01*
X109578744Y-57721818D01*
X109543679Y-57721777D01*
X109506869Y-57721757D01*
X109490332Y-57721754D01*
X109226073Y-57721754D01*
X109221669Y-57732761D01*
X109218659Y-57745112D01*
X109069519Y-57745112D01*
X109069582Y-57744968D01*
X109080062Y-57721073D01*
X109939259Y-57721073D01*
X109939558Y-57723942D01*
X109940667Y-57731922D01*
X109942545Y-57744737D01*
X109945148Y-57762109D01*
X109948434Y-57783764D01*
X109952360Y-57809423D01*
X109956882Y-57838811D01*
X109961959Y-57871650D01*
X109967547Y-57907665D01*
X109973604Y-57946579D01*
X109980087Y-57988116D01*
X109986953Y-58031998D01*
X109994160Y-58077950D01*
X110001664Y-58125694D01*
X110009423Y-58174956D01*
X110011286Y-58186771D01*
X110019106Y-58236340D01*
X110026695Y-58284451D01*
X110034010Y-58330828D01*
X110041009Y-58375194D01*
X110047646Y-58417274D01*
X110053879Y-58456791D01*
X110059664Y-58493471D01*
X110064957Y-58527035D01*
X110069716Y-58557210D01*
X110073896Y-58583718D01*
X110077454Y-58606283D01*
X110080347Y-58624630D01*
X110082530Y-58638483D01*
X110083961Y-58647565D01*
X110084596Y-58651601D01*
X110084624Y-58651788D01*
X110084784Y-58651938D01*
X110085214Y-58651478D01*
X110086012Y-58650205D01*
X110087276Y-58647918D01*
X110089101Y-58644415D01*
X110091585Y-58639493D01*
X110094824Y-58632951D01*
X110098916Y-58624587D01*
X110103957Y-58614199D01*
X110110045Y-58601584D01*
X110117275Y-58586542D01*
X110125745Y-58568869D01*
X110135552Y-58548365D01*
X110146793Y-58524827D01*
X110159564Y-58498053D01*
X110173962Y-58467841D01*
X110190085Y-58433990D01*
X110208029Y-58396297D01*
X110227890Y-58354560D01*
X110249767Y-58308578D01*
X110273755Y-58258148D01*
X110299952Y-58203069D01*
X110310297Y-58181316D01*
X110332664Y-58134284D01*
X110354409Y-58088556D01*
X110375415Y-58044378D01*
X110395565Y-58001993D01*
X110414744Y-57961648D01*
X110432835Y-57923587D01*
X110449722Y-57888054D01*
X110465288Y-57855296D01*
X110479417Y-57825556D01*
X110491993Y-57799080D01*
X110502898Y-57776112D01*
X110512018Y-57756898D01*
X110519236Y-57741682D01*
X110524434Y-57730709D01*
X110527498Y-57724224D01*
X110528331Y-57722436D01*
X110527584Y-57721880D01*
X110524684Y-57721384D01*
X110519374Y-57720945D01*
X110511398Y-57720560D01*
X110500499Y-57720226D01*
X110486422Y-57719940D01*
X110468909Y-57719700D01*
X110447704Y-57719501D01*
X110422551Y-57719341D01*
X110393193Y-57719218D01*
X110359374Y-57719128D01*
X110320837Y-57719068D01*
X110277325Y-57719036D01*
X110235060Y-57719027D01*
X110195439Y-57719046D01*
X110157363Y-57719100D01*
X110121186Y-57719187D01*
X110087260Y-57719304D01*
X110055940Y-57719450D01*
X110027577Y-57719621D01*
X110002525Y-57719816D01*
X109981136Y-57720031D01*
X109963765Y-57720265D01*
X109950764Y-57720515D01*
X109942486Y-57720778D01*
X109939284Y-57721052D01*
X109939259Y-57721073D01*
X109080062Y-57721073D01*
X109083229Y-57713852D01*
X109095267Y-57686446D01*
X109105610Y-57662947D01*
X109114174Y-57643548D01*
X109120874Y-57628445D01*
X109125624Y-57617834D01*
X109128340Y-57611909D01*
X109128966Y-57610675D01*
X109135387Y-57604036D01*
X109144090Y-57597171D01*
X109148525Y-57594311D01*
X109161387Y-57586750D01*
X109885504Y-57584423D01*
X109947976Y-57584221D01*
X110009014Y-57584021D01*
X110068395Y-57583823D01*
X110125894Y-57583628D01*
X110181288Y-57583438D01*
X110234350Y-57583253D01*
X110284858Y-57583074D01*
X110332588Y-57582901D01*
X110377314Y-57582737D01*
X110418813Y-57582580D01*
X110456860Y-57582433D01*
X110491231Y-57582296D01*
X110521701Y-57582171D01*
X110548047Y-57582057D01*
X110570045Y-57581955D01*
X110587469Y-57581867D01*
X110600096Y-57581794D01*
X110607701Y-57581736D01*
X110610070Y-57581696D01*
X110610147Y-57578973D01*
X110610255Y-57571140D01*
X110610390Y-57558544D01*
X110610551Y-57541530D01*
X110610735Y-57520444D01*
X110610939Y-57495632D01*
X110611160Y-57467439D01*
X110611395Y-57436210D01*
X110611642Y-57402292D01*
X110611898Y-57366029D01*
X110612160Y-57327769D01*
X110612426Y-57287855D01*
X110612504Y-57275829D01*
X110612835Y-57226578D01*
X110613158Y-57182511D01*
X110613476Y-57143361D01*
X110613795Y-57108858D01*
X110614119Y-57078732D01*
X110614453Y-57052714D01*
X110614803Y-57030534D01*
X110615172Y-57011924D01*
X110615566Y-56996615D01*
X110615989Y-56984335D01*
X110616447Y-56974818D01*
X110616944Y-56967792D01*
X110617485Y-56962989D01*
X110618074Y-56960139D01*
X110618144Y-56959928D01*
X110620321Y-56955949D01*
X110625394Y-56947926D01*
X110633088Y-56936259D01*
X110643133Y-56921344D01*
X110655256Y-56903580D01*
X110669185Y-56883365D01*
X110684647Y-56861098D01*
X110701370Y-56837175D01*
X110719082Y-56811995D01*
X110727014Y-56800768D01*
X110744887Y-56775458D01*
X110761766Y-56751468D01*
X110777396Y-56729164D01*
X110791521Y-56708916D01*
X110803887Y-56691092D01*
X110814239Y-56676059D01*
X110822322Y-56664186D01*
X110827881Y-56655841D01*
X110830660Y-56651391D01*
X110830930Y-56650744D01*
X110828130Y-56650625D01*
X110820089Y-56650482D01*
X110807019Y-56650318D01*
X110789132Y-56650134D01*
X110766642Y-56649930D01*
X110739762Y-56649709D01*
X110708703Y-56649472D01*
X110673679Y-56649220D01*
X110634903Y-56648955D01*
X110592588Y-56648678D01*
X110546945Y-56648389D01*
X110498189Y-56648092D01*
X110446532Y-56647786D01*
X110392186Y-56647474D01*
X110335365Y-56647157D01*
X110276281Y-56646835D01*
X110215147Y-56646511D01*
X110152176Y-56646186D01*
X110087580Y-56645862D01*
X110023148Y-56645546D01*
X109216666Y-56641648D01*
X109159026Y-56697602D01*
X109147064Y-56709254D01*
X109131728Y-56724258D01*
X109113516Y-56742125D01*
X109092926Y-56762363D01*
X109070454Y-56784484D01*
X109046599Y-56807997D01*
X109021858Y-56832411D01*
X108996730Y-56857237D01*
X108971711Y-56881985D01*
X108961636Y-56891961D01*
X108821887Y-57030366D01*
X107736150Y-59205444D01*
X107684749Y-59308409D01*
X107633928Y-59410200D01*
X107583743Y-59510707D01*
X107534248Y-59609819D01*
X107485498Y-59707426D01*
X107437548Y-59803419D01*
X107390455Y-59897687D01*
X107344271Y-59990120D01*
X107299054Y-60080607D01*
X107254857Y-60169040D01*
X107211736Y-60255307D01*
X107169746Y-60339300D01*
X107128942Y-60420906D01*
X107089380Y-60500018D01*
X107051113Y-60576524D01*
X107014198Y-60650314D01*
X106978690Y-60721278D01*
X106944643Y-60789307D01*
X106912112Y-60854289D01*
X106881154Y-60916116D01*
X106851822Y-60974677D01*
X106824172Y-61029861D01*
X106798260Y-61081560D01*
X106774139Y-61129661D01*
X106751866Y-61174057D01*
X106731495Y-61214636D01*
X106713081Y-61251288D01*
X106696680Y-61283904D01*
X106682346Y-61312373D01*
X106670136Y-61336585D01*
X106660103Y-61356430D01*
X106652303Y-61371798D01*
X106646790Y-61382578D01*
X106643621Y-61388662D01*
X106642836Y-61390055D01*
X106635476Y-61397335D01*
X106626242Y-61403998D01*
X106623278Y-61405651D01*
X106618960Y-61407214D01*
X106609751Y-61410065D01*
X106596036Y-61414098D01*
X106578197Y-61419207D01*
X106556618Y-61425284D01*
X106531683Y-61432223D01*
X106503775Y-61439917D01*
X106473277Y-61448261D01*
X106440573Y-61457148D01*
X106406046Y-61466471D01*
X106370079Y-61476123D01*
X106358184Y-61479302D01*
X106105073Y-61546891D01*
X105977183Y-61546891D01*
X105977183Y-61464525D01*
X105985104Y-61453590D01*
X105992192Y-61445458D01*
X106000393Y-61438274D01*
X106002979Y-61436503D01*
X106007473Y-61434673D01*
X106017131Y-61431519D01*
X106031833Y-61427075D01*
X106051459Y-61421374D01*
X106075891Y-61414449D01*
X106105008Y-61406336D01*
X106138691Y-61397066D01*
X106176820Y-61386673D01*
X106219276Y-61375191D01*
X106265939Y-61362654D01*
X106276658Y-61359784D01*
X106313483Y-61349934D01*
X106348811Y-61340491D01*
X106382285Y-61331551D01*
X106413552Y-61323208D01*
X106442255Y-61315556D01*
X106468040Y-61308689D01*
X106490551Y-61302703D01*
X106509434Y-61297692D01*
X106524332Y-61293751D01*
X106534891Y-61290973D01*
X106540757Y-61289454D01*
X106541879Y-61289185D01*
X106543159Y-61286762D01*
X106546819Y-61279567D01*
X106552805Y-61267710D01*
X106561062Y-61251301D01*
X106571535Y-61230450D01*
X106584170Y-61205265D01*
X106598911Y-61175858D01*
X106615704Y-61142336D01*
X106634494Y-61104811D01*
X106655226Y-61063391D01*
X106677846Y-61018186D01*
X106702299Y-60969305D01*
X106728530Y-60916859D01*
X106756484Y-60860957D01*
X106786106Y-60801708D01*
X106817342Y-60739223D01*
X106850137Y-60673610D01*
X106884436Y-60604979D01*
X106920184Y-60533440D01*
X106957327Y-60459103D01*
X106995810Y-60382076D01*
X107035577Y-60302471D01*
X107076575Y-60220395D01*
X107118748Y-60135960D01*
X107162042Y-60049274D01*
X107206402Y-59960447D01*
X107251773Y-59869589D01*
X107298101Y-59776809D01*
X107345330Y-59682216D01*
X107393406Y-59585922D01*
X107442273Y-59488034D01*
X107491879Y-59388663D01*
X107542166Y-59287919D01*
X107593081Y-59185910D01*
X107625871Y-59120214D01*
X108708367Y-56951272D01*
X108784042Y-56876270D01*
X108828477Y-56832237D01*
X108869212Y-56791888D01*
X108906416Y-56755062D01*
X108940255Y-56721597D01*
X108970899Y-56691331D01*
X108998515Y-56664101D01*
X109023272Y-56639748D01*
X109045337Y-56618107D01*
X109064878Y-56599018D01*
X109082063Y-56582319D01*
X109097061Y-56567848D01*
X109110039Y-56555442D01*
X109121166Y-56544941D01*
X109130609Y-56536182D01*
X109138536Y-56529004D01*
X109145116Y-56523244D01*
X109150516Y-56518741D01*
X109154905Y-56515332D01*
X109158450Y-56512857D01*
X109161319Y-56511153D01*
X109163681Y-56510059D01*
X109164519Y-56509756D01*
X109166025Y-56509325D01*
X109167975Y-56508924D01*
X109170542Y-56508553D01*
X109173904Y-56508211D01*
X109178234Y-56507900D01*
X109183710Y-56507618D01*
X109190506Y-56507365D01*
X109198797Y-56507142D01*
X109208760Y-56506949D01*
X109220569Y-56506785D01*
X109234400Y-56506650D01*
X109250429Y-56506545D01*
X109268830Y-56506469D01*
X109289780Y-56506421D01*
X109313453Y-56506403D01*
X109340026Y-56506414D01*
G37*
%TO.C,R22*%
X122069794Y-72603693D02*
X122544310Y-72603693D01*
X122069794Y-73648693D02*
X122544310Y-73648693D01*
%TO.C,R8*%
X68850742Y-48245500D02*
X69325258Y-48245500D01*
X68850742Y-49290500D02*
X69325258Y-49290500D01*
%TO.C,R4*%
X112913858Y-62083166D02*
X112439342Y-62083166D01*
X112913858Y-61038166D02*
X112439342Y-61038166D01*
%TO.C,R18*%
X82818500Y-77867742D02*
X82818500Y-78342258D01*
X81773500Y-77867742D02*
X81773500Y-78342258D01*
%TO.C,C16*%
X79832252Y-78634000D02*
X78409748Y-78634000D01*
X79832252Y-76814000D02*
X78409748Y-76814000D01*
%TO.C,U2*%
X105943132Y-48248833D02*
X107743132Y-48248833D01*
X105943132Y-48248833D02*
X105143132Y-48248833D01*
X105943132Y-45128833D02*
X106743132Y-45128833D01*
X105943132Y-45128833D02*
X105143132Y-45128833D01*
%TO.C,R2*%
X126798656Y-71355366D02*
X126798656Y-71829882D01*
X125753656Y-71355366D02*
X125753656Y-71829882D01*
D11*
%TO.C,S3*%
X124607000Y-80098000D02*
X124607000Y-77558000D01*
D15*
X122321000Y-79336000D02*
X122321000Y-78320000D01*
D16*
X121940000Y-79463000D02*
G75*
G03*
X121940000Y-79463000I-127000J0D01*
G01*
D14*
%TO.C,R11*%
X85868742Y-44943500D02*
X86343258Y-44943500D01*
X85868742Y-45988500D02*
X86343258Y-45988500D01*
%TO.C,L1*%
X74840000Y-84295064D02*
X74840000Y-83090936D01*
X77560000Y-84295064D02*
X77560000Y-83090936D01*
D15*
%TO.C,Q2*%
X119229155Y-74280185D02*
X118569155Y-74280185D01*
X120359155Y-75580185D02*
X120359155Y-74805185D01*
X119519155Y-75580185D02*
X120359155Y-75580185D01*
X118279155Y-75580185D02*
X117439155Y-75580185D01*
X117439155Y-75580185D02*
X117439155Y-74805185D01*
D16*
X120523155Y-73152185D02*
G75*
G03*
X120523155Y-73152185I-100000J0D01*
G01*
D14*
%TO.C,C17*%
X76149252Y-81047000D02*
X74726748Y-81047000D01*
X76149252Y-79227000D02*
X74726748Y-79227000D01*
%TO.C,R15*%
X112554355Y-50322924D02*
X112554355Y-50797440D01*
X111509355Y-50322924D02*
X111509355Y-50797440D01*
D15*
%TO.C,J1*%
X123820000Y-69501000D02*
X125500000Y-69501000D01*
X123820000Y-60561000D02*
X125500000Y-60561000D01*
D16*
X121055000Y-68841000D02*
G75*
G03*
X121055000Y-68841000I-100000J0D01*
G01*
D14*
%TO.C,R16*%
X122072918Y-74076688D02*
X122547434Y-74076688D01*
X122072918Y-75121688D02*
X122547434Y-75121688D01*
%TO.C,R13*%
X124282582Y-58120292D02*
X124282582Y-57645776D01*
X125327582Y-58120292D02*
X125327582Y-57645776D01*
D16*
%TO.C,Y1*%
X114215503Y-48204716D02*
G75*
G03*
X114215503Y-48204716I-100000J0D01*
G01*
D14*
%TO.C,R12*%
X88916742Y-44943500D02*
X89391258Y-44943500D01*
X88916742Y-45988500D02*
X89391258Y-45988500D01*
%TO.C,R20*%
X103109500Y-84692258D02*
X103109500Y-84217742D01*
X104154500Y-84692258D02*
X104154500Y-84217742D01*
%TO.C,D5*%
X68040000Y-62685000D02*
X69960000Y-62685000D01*
X69960000Y-62685000D02*
X69960000Y-60000000D01*
X68040000Y-60000000D02*
X68040000Y-62685000D01*
D11*
%TO.C,REF\u002A\u002A*%
X73025000Y-52832000D02*
X103759000Y-52832000D01*
X103759000Y-52832000D02*
X103759000Y-73025000D01*
X103759000Y-73025000D02*
X73025000Y-73025000D01*
X73025000Y-73025000D02*
X73025000Y-52832000D01*
D14*
%TO.C,C8*%
X122331319Y-57744602D02*
X122331319Y-58025762D01*
X121311319Y-57744602D02*
X121311319Y-58025762D01*
%TO.C,D4*%
X73948000Y-50363000D02*
X73948000Y-48443000D01*
X73948000Y-48443000D02*
X71263000Y-48443000D01*
X71263000Y-50363000D02*
X73948000Y-50363000D01*
%TO.C,R1*%
X121462390Y-70272024D02*
X121936906Y-70272024D01*
X121462390Y-71317024D02*
X121936906Y-71317024D01*
%TO.C,U1*%
X113336319Y-56847182D02*
X113336319Y-56197182D01*
X113986319Y-56847182D02*
X113336319Y-56847182D01*
X119906319Y-49627182D02*
X120556319Y-49627182D01*
X119906319Y-56847182D02*
X120556319Y-56847182D01*
X120556319Y-49627182D02*
X120556319Y-50277182D01*
X120556319Y-56847182D02*
X120556319Y-56197182D01*
D19*
X113174019Y-49376382D02*
G75*
G03*
X113174019Y-49376382I-88500J0D01*
G01*
D14*
%TO.C,C1*%
X119343637Y-59980015D02*
X119343637Y-59457511D01*
X120813637Y-59980015D02*
X120813637Y-59457511D01*
%TD*%
M02*
