0
SECTION
2
HEADER
9
$INSUNITS
70
4
9
$ACADVER
1
AC1014
9
$HANDSEED
5
FFFF
0
ENDSEC
0
SECTION
2
TABLES
0
TABLE
2
VPORT
5
8
100
AcDbSymbolTable
0
ENDTAB
0
TABLE
2
LTYPE
5
5
100
AcDbSymbolTable
0
LTYPE
5
14
100
AcDbSymbolTableRecord
100
AcDbLinetypeTableRecord
2
BYBLOCK
70
0
0
LTYPE
5
15
100
AcDbSymbolTableRecord
100
AcDbLinetypeTableRecord
2
BYLAYER
70
0
0
ENDTAB
0
TABLE
2
LAYER
5
2
100
AcDbSymbolTable
70
2
0
LAYER
5
50
100
AcDbSymbolTableRecord
100
AcDbLayerTableRecord
2
0
70
0
6
CONTINUOUS
0
ENDTAB
0
TABLE
2
STYLE
5
3
100
AcDbSymbolTable
70
1
0
STYLE
5
11
100
AcDbSymbolTableRecord
100
AcDbTextStyleTableRecord
2
STANDARD
70
0
0
ENDTAB
0
TABLE
2
VIEW
5
6
100
AcDbSymbolTable
70
0
0
ENDTAB
0
TABLE
2
UCS
5
7
100
AcDbSymbolTable
70
0
0
ENDTAB
0
TABLE
2
APPID
5
9
100
AcDbSymbolTable
70
2
0
APPID
5
12
100
AcDbSymbolTableRecord
100
AcDbRegAppTableRecord
2
ACAD
70
0
0
ENDTAB
0
TABLE
2
DIMSTYLE
5
A
100
AcDbSymbolTable
70
1
0
ENDTAB
0
TABLE
2
BLOCK_RECORD
5
1
100
AcDbSymbolTable
70
1
0
BLOCK_RECORD
5
1F
100
AcDbSymbolTableRecord
100
AcDbBlockTableRecord
2
*MODEL_SPACE
0
BLOCK_RECORD
5
1B
100
AcDbSymbolTableRecord
100
AcDbBlockTableRecord
2
*PAPER_SPACE
0
ENDTAB
0
ENDSEC
0
SECTION
2
BLOCKS
0
BLOCK
5
20
100
AcDbEntity
100
AcDbBlockBegin
2
*MODEL_SPACE
0
ENDBLK
5
21
100
AcDbEntity
100
AcDbBlockEnd
0
BLOCK
5
1C
100
AcDbEntity
100
AcDbBlockBegin
2
*PAPER_SPACE
0
ENDBLK
5
1D
100
AcDbEntity
100
AcDbBlockEnd
0
ENDSEC
0
SECTION
2
ENTITIES
0
LWPOLYLINE
5
100
100
AcDbEntity
8
0
100
AcDbPolyline
90
24
70
1
43
0.0
10
108.15900000000001
20
39.680000000000014
10
113.45189321881341
20
39.680000000000085
10
115.85189321881339
20
42.079999999999998
10
128.75667965644033
20
42.079999999999998
10
129.87799999999996
20
43.201320343559615
10
129.87799999999999
20
87.608679656440955
10
128.75667965643981
20
88.72999999999999
10
115.85189321881344
20
88.72999999999999
10
113.45189321881347
20
91.129999999999995
10
108.15900000000001
20
91.129999999999995
10
108.15900000000001
20
88.72999999999999
10
86.658999999999992
20
88.72999999999999
10
86.658999999999992
20
91.129999999999995
10
81.366106781186545
20
91.129999999999995
10
78.966106781186497
20
88.72999999999999
10
66.06132034355953
20
88.72999999999999
10
64.939999999999969
20
87.608679656440188
10
64.939999999999998
20
43.201320343559615
10
66.061320343559672
20
42.080000000000013
10
78.96610678118661
20
42.080000000000013
10
81.366106781186559
20
39.680000000000007
10
86.658999999999992
20
39.680000000000007
10
86.658999999999992
20
42.080000000000013
10
108.15900000000001
20
42.080000000000013
0
CIRCLE
5
101
100
AcDbEntity
8
0
100
AcDbCircle
10
112.83057287525382
20
41.180000000000035
30
0
40
1.3499999999999979
210
0
220
0
230
1
0
CIRCLE
5
102
100
AcDbEntity
8
0
100
AcDbCircle
10
81.987427124746205
20
41.180000000000007
30
0
40
1.3499999999999979
210
0
220
0
230
1
0
CIRCLE
5
103
100
AcDbEntity
8
0
100
AcDbCircle
10
81.987427124746205
20
89.63000000000001
30
0
40
1.3499999999999979
210
0
220
0
230
1
0
CIRCLE
5
104
100
AcDbEntity
8
0
100
AcDbCircle
10
112.83057287525386
20
89.629999999999995
30
0
40
1.3499999999999979
210
0
220
0
230
1
0
LWPOLYLINE
5
105
100
AcDbEntity
8
0
100
AcDbPolyline
90
8
70
1
43
0.0
10
128.07800000000003
20
82.13000000000001
10
128.078
20
45.380000000000003
42
-0.41421356237309503
10
126.57800000000002
20
43.88000000000001
10
68.240000000000009
20
43.88000000000001
42
-0.41421356237309503
10
66.740000000000009
20
45.380000000000003
10
66.740000000000009
20
82.13000000000001
42
-0.41421356237309503
10
68.240000000000009
20
83.63000000000001
10
126.57800000000002
20
83.63000000000001
42
-0.41421356237309503
0
SPLINE
5
106
100
AcDbEntity
8
0
100
AcDbSpline
70
4
71
3
72
8
73
4
74
0
42
0.000000001
43
0.0000000001
44
0.0000000001
40
0
40
0
40
0
40
0
40
1
40
1
40
1
40
1
41
1
41
1
41
1
41
1
10
107.75894955380406
20
84.746427705861578
30
0
10
107.79125798517572
20
84.75797038157188
30
0
10
107.82549939106774
20
84.787848769021693
30
0
10
107.84344856057281
20
84.820322898972137
30
0
0
SPLINE
5
107
100
AcDbEntity
8
0
100
AcDbSpline
70
4
71
3
72
8
73
4
74
0
42
0.000000001
43
0.0000000001
44
0.0000000001
40
0
40
0
40
0
40
0
40
1
40
1
40
1
40
1
41
1
41
1
41
1
41
1
10
107.84344856057281
20
84.820322898972137
30
0
10
107.85471506320688
20
84.840702059729466
30
0
10
107.85565395159379
20
84.954471910049065
30
0
10
107.85565395159379
20
86.285689656987302
30
0
0
SPLINE
5
108
100
AcDbEntity
8
0
100
AcDbSpline
70
4
71
3
72
8
73
4
74
0
42
0.000000001
43
0.0000000001
44
0.0000000001
40
0
40
0
40
0
40
0
40
1
40
1
40
1
40
1
41
1
41
1
41
1
41
1
10
107.85565395159379
20
86.285689656987302
30
0
10
107.85565395159379
20
87.917458712374113
30
0
10
107.86206041905375
20
87.750007078452867
30
0
10
107.79794059937713
20
87.801866204022787
30
0
0
LINE
5
109
100
AcDbEntity
8
0
100
AcDbLine
10
107.79794059937713
20
87.801866204022787
30
0
11
107.76960856520876
21
87.824730711787694
31
0
0
LINE
5
110
100
AcDbEntity
8
0
100
AcDbLine
10
107.76960856520876
20
87.824730711787694
30
0
11
107.09908445881905
21
87.826663686308052
31
0
0
SPLINE
5
111
100
AcDbEntity
8
0
100
AcDbSpline
70
4
71
3
72
8
73
4
74
0
42
0.000000001
43
0.0000000001
44
0.0000000001
40
0
40
0
40
0
40
0
40
1
40
1
40
1
40
1
41
1
41
1
41
1
41
1
10
107.09908445881905
20
87.826663686308024
30
0
10
106.44225687265043
20
87.828596660828367
30
0
10
106.42795265052152
20
87.828320461417348
30
0
10
106.39824004065488
20
87.813961252220338
30
0
0
SPLINE
5
112
100
AcDbEntity
8
0
100
AcDbSpline
70
4
71
3
72
8
73
4
74
0
42
0.000000001
43
0.0000000001
44
0.0000000001
40
0
40
0
40
0
40
0
40
1
40
1
40
1
40
1
41
1
41
1
41
1
41
1
10
106.39824004065488
20
87.813961252220338
30
0
10
106.35648758033723
20
87.793747711037398
30
0
10
105.82442027938528
20
87.259968226551209
30
0
10
105.80879067930462
20
87.222634114096266
30
0
0
SPLINE
5
113
100
AcDbEntity
8
0
100
AcDbSpline
70
4
71
3
72
8
73
4
74
0
42
0.000000001
43
0.0000000001
44
0.0000000001
40
0
40
0
40
0
40
0
40
1
40
1
40
1
40
1
41
1
41
1
41
1
41
1
10
105.80879067930462
20
87.222634114096266
30
0
10
105.79155950186117
20
87.181378644175709
30
0
10
105.79166989735421
20
85.375033758694087
30
0
10
105.80890107479766
20
85.333778394112741
30
0
0
SPLINE
5
114
100
AcDbEntity
8
0
100
AcDbSpline
70
4
71
3
72
8
73
4
74
0
42
0.000000001
43
0.0000000001
44
0.0000000001
40
0
40
0
40
0
40
0
40
1
40
1
40
1
40
1
41
1
41
1
41
1
41
1
10
105.80890107479766
20
85.333778394112741
30
0
10
105.83839289367822
20
85.26325210697614
30
0
10
106.36642865234992
20
84.760731796316477
30
0
10
106.42949903013779
20
84.743224472131601
30
0
0
SPLINE
5
115
100
AcDbEntity
8
0
100
AcDbSpline
70
4
71
3
72
8
73
4
74
0
42
0.000000001
43
0.0000000001
44
0.0000000001
40
0
40
0
40
0
40
0
40
1
40
1
40
1
40
1
41
1
41
1
41
1
41
1
10
106.42949903013779
20
84.743224472131601
30
0
10
106.47467564684554
20
84.730687710287867
30
0
10
107.72316176829578
20
84.733670021357767
30
0
10
107.75894955380406
20
84.746427705861578
30
0
0
SPLINE
5
116
100
AcDbEntity
8
0
100
AcDbSpline
70
4
71
3
72
8
73
4
74
0
42
0.000000001
43
0.0000000001
44
0.0000000001
40
0
40
0
40
0
40
0
40
1
40
1
40
1
40
1
41
1
41
1
41
1
41
1
10
105.44124784628094
20
84.743611067035673
30
0
10
105.45383988487559
20
84.747311370167168
30
0
10
105.47753256951673
20
84.764763443935905
30
0
10
105.49376976616597
20
84.782436414029959
30
0
0
LINE
5
117
100
AcDbEntity
8
0
100
AcDbLine
10
105.49376976616594
20
84.782436414029959
30
0
11
105.52342717828608
21
84.814523949076346
31
0
0
LINE
5
118
100
AcDbEntity
8
0
100
AcDbLine
10
105.52342717828608
20
84.814523949076346
30
0
11
105.52839771429242
21
84.920506624563671
31
0
0
SPLINE
5
119
100
AcDbEntity
8
0
100
AcDbSpline
70
4
71
3
72
8
73
4
74
0
42
0.000000001
43
0.0000000001
44
0.0000000001
40
0
40
0
40
0
40
0
40
1
40
1
40
1
40
1
41
1
41
1
41
1
41
1
10
105.52839771429245
20
84.920506624563671
30
0
10
105.5412657416197
20
85.194879743354761
30
0
10
105.52939190576508
20
87.742606577529074
30
0
10
105.5151428813827
20
87.766133668930649
30
0
0
SPLINE
5
120
100
AcDbEntity
8
0
100
AcDbSpline
70
4
71
3
72
8
73
4
74
0
42
0.000000001
43
0.0000000001
44
0.0000000001
40
0
40
0
40
0
40
0
40
1
40
1
40
1
40
1
41
1
41
1
41
1
41
1
10
105.5151428813827
20
87.766133668930649
30
0
10
105.46853049123015
20
87.843121673943358
30
0
10
105.34266572438702
20
87.847429415634622
30
0
10
105.29704731502868
20
87.773644776025904
30
0
0
SPLINE
5
121
100
AcDbEntity
8
0
100
AcDbSpline
70
4
71
3
72
8
73
4
74
0
42
0.000000001
43
0.0000000001
44
0.0000000001
40
0
40
0
40
0
40
0
40
1
40
1
40
1
40
1
41
1
41
1
41
1
41
1
10
105.29704731502868
20
87.773644776025904
30
0
10
105.28224610250265
20
87.749675681295329
30
0
10
105.28202531151658
20
87.740728800755278
30
0
10
105.28202531151658
20
87.061257603147055
30
0
0
LINE
5
122
100
AcDbEntity
8
0
100
AcDbLine
10
105.28202531151656
20
87.061257603147055
30
0
11
105.28202531151658
21
86.373170922156319
31
0
0
LINE
5
123
100
AcDbEntity
8
0
100
AcDbLine
10
105.28202531151658
20
86.373170922156319
30
0
11
104.65060269886257
21
87.005753319522526
31
0
0
SPLINE
5
124
100
AcDbEntity
8
0
100
AcDbSpline
70
4
71
3
72
8
73
4
74
0
42
0.000000001
43
0.0000000001
44
0.0000000001
40
0
40
0
40
0
40
0
40
1
40
1
40
1
40
1
41
1
41
1
41
1
41
1
10
104.65060269886257
20
87.00575331952254
30
0
10
103.99057164195074
20
87.666999358893079
30
0
10
103.87238357544243
20
87.78137667410725
30
0
10
103.82157383909167
20
87.807996524741355
30
0
0
SPLINE
5
125
100
AcDbEntity
8
0
100
AcDbSpline
70
4
71
3
72
8
73
4
74
0
42
0.000000001
43
0.0000000001
44
0.0000000001
40
0
40
0
40
0
40
0
40
1
40
1
40
1
40
1
41
1
41
1
41
1
41
1
10
103.82157383909167
20
87.807996524741355
30
0
10
103.70421416013799
20
87.869465325166445
30
0
10
103.58851125629364
20
87.772705782299795
30
0
10
103.62982192396073
20
87.647448612025229
30
0
0
SPLINE
5
126
100
AcDbEntity
8
0
100
AcDbSpline
70
4
71
3
72
8
73
4
74
0
42
0.000000001
43
0.0000000001
44
0.0000000001
40
0
40
0
40
0
40
0
40
1
40
1
40
1
40
1
41
1
41
1
41
1
41
1
10
103.62982192396073
20
87.647448612025229
30
0
10
103.64070177902113
20
87.614366832836609
30
0
10
103.69410749488574
20
87.558696955972522
30
0
10
104.24274317896604
20
87.009177475912622
30
0
0
LINE
5
127
100
AcDbEntity
8
0
100
AcDbLine
10
104.24274317896602
20
87.009177475912608
30
0
11
104.84367978126686
21
86.407191484392655
31
0
0
LINE
5
128
100
AcDbEntity
8
0
100
AcDbLine
10
104.84367978126686
20
86.407191484392655
30
0
11
104.46089394306657
21
86.407025680474661
31
0
0
SPLINE
5
129
100
AcDbEntity
8
0
100
AcDbSpline
70
4
71
3
72
8
73
4
74
0
42
0.000000001
43
0.0000000001
44
0.0000000001
40
0
40
0
40
0
40
0
40
1
40
1
40
1
40
1
41
1
41
1
41
1
41
1
10
104.46089394306657
20
86.407025680474661
30
0
10
104.11422723486253
20
86.406860087235088
30
0
10
104.07551254670929
20
86.405645104776383
30
0
10
104.05082567059553
20
86.394157653147403
30
0
0
SPLINE
5
130
100
AcDbEntity
8
0
100
AcDbSpline
70
4
71
3
72
8
73
4
74
0
42
0.000000001
43
0.0000000001
44
0.0000000001
40
0
40
0
40
0
40
0
40
1
40
1
40
1
40
1
41
1
41
1
41
1
41
1
10
104.05082567059553
20
86.394157653147403
30
0
10
104.01188977009937
20
86.37598748197783
30
0
10
103.65108485436282
20
86.004799596238797
30
0
10
103.63241748211772
20
85.963709930236234
30
0
0
SPLINE
5
131
100
AcDbEntity
8
0
100
AcDbSpline
70
4
71
3
72
8
73
4
74
0
42
0.000000001
43
0.0000000001
44
0.0000000001
40
0
40
0
40
0
40
0
40
1
40
1
40
1
40
1
41
1
41
1
41
1
41
1
10
103.63241748211772
20
85.963709930236234
30
0
10
103.61386092672251
20
85.922841160558946
30
0
10
103.60977418669576
20
85.233152796866207
30
0
10
103.62783354101545
20
85.189964457764532
30
0
0
SPLINE
5
132
100
AcDbEntity
8
0
100
AcDbSpline
70
4
71
3
72
8
73
4
74
0
42
0.000000001
43
0.0000000001
44
0.0000000001
40
0
40
0
40
0
40
0
40
1
40
1
40
1
40
1
41
1
41
1
41
1
41
1
10
103.62783354101545
20
85.189964457764532
30
0
10
103.65390120350591
20
85.127501518536405
30
0
10
103.99913192758675
20
84.786247165324099
30
0
10
104.06916143500467
20
84.753662587211011
30
0
0
LINE
5
133
100
AcDbEntity
8
0
100
AcDbLine
10
104.06916143500467
20
84.753662587211025
30
0
11
104.10754493667878
21
84.735768694456866
31
0
0
LINE
5
134
100
AcDbEntity
8
0
100
AcDbLine
10
104.10754493667878
20
84.735768694456866
30
0
11
104.76288123563842
21
84.736376212021042
31
0
0
SPLINE
5
135
100
AcDbEntity
8
0
100
AcDbSpline
70
4
71
3
72
8
73
4
74
0
42
0.000000001
43
0.0000000001
44
0.0000000001
40
0
40
0
40
0
40
0
40
1
40
1
40
1
40
1
41
1
41
1
41
1
41
1
10
104.76288123563842
20
84.736376212021028
30
0
10
105.12959568110743
20
84.736707556508989
30
0
10
105.42837960827526
20
84.739910790238966
30
0
10
105.44124784628094
20
84.743611067035673
30
0
0
SPLINE
5
136
100
AcDbEntity
8
0
100
AcDbSpline
70
4
71
3
72
8
73
4
74
0
42
0.000000001
43
0.0000000001
44
0.0000000001
40
0
40
0
40
0
40
0
40
1
40
1
40
1
40
1
41
1
41
1
41
1
41
1
10
103.29381427983097
20
84.751232543289177
30
0
10
103.31717556731456
20
84.760510873656386
30
0
10
103.35821024624904
20
84.799557116975976
30
0
10
103.37179605495949
20
84.825459107222485
30
0
0
SPLINE
5
137
100
AcDbEntity
8
0
100
AcDbSpline
70
4
71
3
72
8
73
4
74
0
42
0.000000001
43
0.0000000001
44
0.0000000001
40
0
40
0
40
0
40
0
40
1
40
1
40
1
40
1
41
1
41
1
41
1
41
1
10
103.37179605495949
20
84.825459107222485
30
0
10
103.38698386238957
20
84.854509080782833
30
0
10
103.38748106346509
20
87.705824653217775
30
0
10
103.37229325603502
20
87.742109376453556
30
0
0
SPLINE
5
138
100
AcDbEntity
8
0
100
AcDbSpline
70
4
71
3
72
8
73
4
74
0
42
0.000000001
43
0.0000000001
44
0.0000000001
40
0
40
0
40
0
40
0
40
1
40
1
40
1
40
1
41
1
41
1
41
1
41
1
10
103.37229325603502
20
87.742109376453556
30
0
10
103.3384936954632
20
87.822852935013884
30
0
10
103.23460985108377
20
87.852731348798514
30
0
10
103.16921948251468
20
87.800540826071028
30
0
0
SPLINE
5
139
100
AcDbEntity
8
0
100
AcDbSpline
70
4
71
3
72
8
73
4
74
0
42
0.000000001
43
0.0000000001
44
0.0000000001
40
0
40
0
40
0
40
0
40
1
40
1
40
1
40
1
41
1
41
1
41
1
41
1
10
103.16921948251468
20
87.800540826071028
30
0
10
103.11227942544535
20
87.75508800995226
30
0
10
103.11713935528024
20
87.87946180560408
30
0
10
103.11713935528024
20
86.459934195263756
30
0
0
LINE
5
140
100
AcDbEntity
8
0
100
AcDbLine
10
103.11713935528024
20
86.459934195263756
30
0
11
103.11708415753372
21
85.1907928979888
31
0
0
LINE
5
141
100
AcDbEntity
8
0
100
AcDbLine
10
103.11708415753372
20
85.1907928979888
30
0
11
102.52398984880728
21
85.783776863891802
31
0
0
SPLINE
5
142
100
AcDbEntity
8
0
100
AcDbSpline
70
4
71
3
72
8
73
4
74
0
42
0.000000001
43
0.0000000001
44
0.0000000001
40
0
40
0
40
0
40
0
40
1
40
1
40
1
40
1
41
1
41
1
41
1
41
1
10
102.52398984880728
20
85.783776863891802
30
0
10
101.88439333474292
20
86.423207679377384
30
0
10
101.90239791267294
20
86.407191484392655
30
0
10
101.82220654225623
20
86.407191484392655
30
0
0
SPLINE
5
143
100
AcDbEntity
8
0
100
AcDbSpline
70
4
71
3
72
8
73
4
74
0
42
0.000000001
43
0.0000000001
44
0.0000000001
40
0
40
0
40
0
40
0
40
1
40
1
40
1
40
1
41
1
41
1
41
1
41
1
10
101.82220654225623
20
86.407191484392655
30
0
10
101.74190519770332
20
86.407191484392655
30
0
10
101.76432770213921
20
86.427073628418057
30
0
10
101.1308615087934
20
85.794049227722837
30
0
0
LINE
5
144
100
AcDbEntity
8
0
100
AcDbLine
10
101.13086150879342
20
85.794049227722837
30
0
11
100.53997595264148
21
85.203661030655269
31
0
0
LINE
5
145
100
AcDbEntity
8
0
100
AcDbLine
10
100.53997595264148
20
85.203661030655269
30
0
11
100.53804361015642
21
86.462640359592228
31
0
0
LINE
5
146
100
AcDbEntity
8
0
100
AcDbLine
10
100.53804361015642
20
86.462640359592228
30
0
11
100.53611042495767
21
87.72161984653799
31
0
0
LINE
5
147
100
AcDbEntity
8
0
100
AcDbLine
10
100.53611042495767
20
87.72161984653799
30
0
11
100.52070140518465
21
87.751111665418549
31
0
0
SPLINE
5
148
100
AcDbEntity
8
0
100
AcDbSpline
70
4
71
3
72
8
73
4
74
0
42
0.000000001
43
0.0000000001
44
0.0000000001
40
0
40
0
40
0
40
0
40
1
40
1
40
1
40
1
41
1
41
1
41
1
41
1
10
100.52070140518465
20
87.751111665418549
30
0
10
100.45774142288982
20
87.871729696844326
30
0
10
100.29487436210614
20
87.844170852484083
30
0
10
100.2741082114227
20
87.709414402847415
30
0
0
SPLINE
5
149
100
AcDbEntity
8
0
100
AcDbSpline
70
4
71
3
72
8
73
4
74
0
42
0.000000001
43
0.0000000001
44
0.0000000001
40
0
40
0
40
0
40
0
40
1
40
1
40
1
40
1
41
1
41
1
41
1
41
1
10
100.2741082114227
20
87.709414402847415
30
0
10
100.26002478027989
20
87.617956793144671
30
0
10
100.26880669961565
20
84.846445759209132
30
0
10
100.28322047452392
20
84.820322898972165
30
0
0
SPLINE
5
150
100
AcDbEntity
8
0
100
AcDbSpline
70
4
71
3
72
8
73
4
74
0
42
0.000000001
43
0.0000000001
44
0.0000000001
40
0
40
0
40
0
40
0
40
1
40
1
40
1
40
1
41
1
41
1
41
1
41
1
10
100.28322047452392
20
84.820322898972165
30
0
10
100.32215637502006
20
84.750017534495626
30
0
10
100.39290387449959
20
84.725109683052167
30
0
10
100.46304377741055
20
84.756976269103632
30
0
0
SPLINE
5
151
100
AcDbEntity
8
0
100
AcDbSpline
70
4
71
3
72
8
73
4
74
0
42
0.000000001
43
0.0000000001
44
0.0000000001
40
0
40
0
40
0
40
0
40
1
40
1
40
1
40
1
41
1
41
1
41
1
41
1
10
100.46304377741055
20
84.756976269103632
30
0
10
100.50943516589861
20
84.77801817150646
30
0
10
100.65960000327303
20
84.922384375002693
30
0
10
101.2589354495679
20
85.522050955107076
30
0
0
SPLINE
5
152
100
AcDbEntity
8
0
100
AcDbSpline
70
4
71
3
72
8
73
4
74
0
42
0.000000001
43
0.0000000001
44
0.0000000001
40
0
40
0
40
0
40
0
40
1
40
1
40
1
40
1
41
1
41
1
41
1
41
1
10
101.2589354495679
20
85.522050955107076
30
0
10
101.56335270705718
20
85.826633805835939
30
0
10
101.81673901585276
20
86.07582297911172
30
0
10
101.82204094901665
20
86.07582297911172
30
0
0
SPLINE
5
153
100
AcDbEntity
8
0
100
AcDbSpline
70
4
71
3
72
8
73
4
74
0
42
0.000000001
43
0.0000000001
44
0.0000000001
40
0
40
0
40
0
40
0
40
1
40
1
40
1
40
1
41
1
41
1
41
1
41
1
10
101.82204094901665
20
86.07582297911172
30
0
10
101.82739807992706
20
86.07582297911172
30
0
10
102.10188172588522
20
85.806420369992196
30
0
10
102.43209023577552
20
85.477095234724629
30
0
0
SPLINE
5
154
100
AcDbEntity
8
0
100
AcDbSpline
70
4
71
3
72
8
73
4
74
0
42
0.000000001
43
0.0000000001
44
0.0000000001
40
0
40
0
40
0
40
0
40
1
40
1
40
1
40
1
41
1
41
1
41
1
41
1
10
102.43209023577552
20
85.477095234724629
30
0
10
102.76224396927616
20
85.147770204796288
30
0
10
103.05688574799231
20
84.855834537739
30
0
10
103.08676416177691
20
84.828275719713588
30
0
0
SPLINE
5
155
100
AcDbEntity
8
0
100
AcDbSpline
70
4
71
3
72
8
73
4
74
0
42
0.000000001
43
0.0000000001
44
0.0000000001
40
0
40
0
40
0
40
0
40
1
40
1
40
1
40
1
41
1
41
1
41
1
41
1
10
103.08676416177691
20
84.828275719713588
30
0
10
103.16783911749481
20
84.753662587211011
30
0
10
103.23599021610364
20
84.728312890447341
30
0
10
103.29381427983097
20
84.751232543289177
30
0
0
SPLINE
5
156
100
AcDbEntity
8
0
100
AcDbSpline
70
4
71
3
72
8
73
4
74
0
42
0.000000001
43
0.0000000001
44
0.0000000001
40
0
40
0
40
0
40
0
40
1
40
1
40
1
40
1
41
1
41
1
41
1
41
1
10
93.061928515337868
20
84.794531383223102
30
0
10
93.180944969400841
20
84.801158747008358
30
0
10
93.245009749339758
20
84.883338131683104
30
0
10
93.205466252275045
20
84.978717046181856
30
0
0
SPLINE
5
157
100
AcDbEntity
8
0
100
AcDbSpline
70
4
71
3
72
8
73
4
74
0
42
0.000000001
43
0.0000000001
44
0.0000000001
40
0
40
0
40
0
40
0
40
1
40
1
40
1
40
1
41
1
41
1
41
1
41
1
10
93.205466252275045
20
84.978717046181856
30
0
10
93.174427421742948
20
85.053606325425847
30
0
10
93.1457094247058
20
85.059570947565646
30
0
10
92.813456070053149
20
85.059626197981757
30
0
0
LINE
5
158
100
AcDbEntity
8
0
100
AcDbLine
10
92.813456070053135
20
85.059626197981743
30
0
11
92.535604940200415
21
85.059626197981757
31
0
0
LINE
5
159
100
AcDbEntity
8
0
100
AcDbLine
10
92.535604940200415
20
85.059626197981757
30
0
11
92.533671755001663
21
86.414039797172819
31
0
0
LINE
5
160
100
AcDbEntity
8
0
100
AcDbLine
10
92.533671755001663
20
86.414039797172819
30
0
11
92.531738569802897
21
87.768398040608545
31
0
0
LINE
5
161
100
AcDbEntity
8
0
100
AcDbLine
10
92.531738569802897
20
87.768398040608545
30
0
11
92.516330392743583
21
87.789218967681649
31
0
0
SPLINE
5
162
100
AcDbEntity
8
0
100
AcDbSpline
70
4
71
3
72
8
73
4
74
0
42
0.000000001
43
0.0000000001
44
0.0000000001
40
0
40
0
40
0
40
0
40
1
40
1
40
1
40
1
41
1
41
1
41
1
41
1
10
92.516330392743583
20
87.789218967681649
30
0
10
92.459002266021244
20
87.866538369851881
30
0
10
92.344681412624112
20
87.862009626496132
30
0
10
92.297295621985015
20
87.780548286552587
30
0
0
SPLINE
5
163
100
AcDbEntity
8
0
100
AcDbSpline
70
4
71
3
72
8
73
4
74
0
42
0.000000001
43
0.0000000001
44
0.0000000001
40
0
40
0
40
0
40
0
40
1
40
1
40
1
40
1
41
1
41
1
41
1
41
1
10
92.297295621985015
20
87.780548286552587
30
0
10
92.290889312533864
20
87.769557825320732
30
0
10
92.28779655330132
20
87.423112118781191
30
0
10
92.285034137834216
20
86.414591985316434
30
0
0
LINE
5
164
100
AcDbEntity
8
0
100
AcDbLine
10
92.285034137834216
20
86.414591985316434
30
0
11
92.28133462474679
21
85.063326448443647
31
0
0
LINE
5
165
100
AcDbEntity
8
0
100
AcDbLine
10
92.28133462474679
20
85.063326448443647
30
0
11
91.975756529153202
21
85.059626197981771
31
0
0
SPLINE
5
166
100
AcDbEntity
8
0
100
AcDbSpline
70
4
71
3
72
8
73
4
74
0
42
0.000000001
43
0.0000000001
44
0.0000000001
40
0
40
0
40
0
40
0
40
1
40
1
40
1
40
1
41
1
41
1
41
1
41
1
10
91.975756529153202
20
85.059626197981757
30
0
10
91.644608814858358
20
85.055649748108834
30
0
10
91.655766344078728
20
85.057140929978601
30
0
10
91.616055989703909
20
85.011909115524332
30
0
0
SPLINE
5
167
100
AcDbEntity
8
0
100
AcDbSpline
70
4
71
3
72
8
73
4
74
0
42
0.000000001
43
0.0000000001
44
0.0000000001
40
0
40
0
40
0
40
0
40
1
40
1
40
1
40
1
41
1
41
1
41
1
41
1
10
91.616055989703909
20
85.011909115524332
30
0
10
91.555306445410992
20
84.942763562094811
30
0
10
91.592861138173589
20
84.813640284770756
30
0
10
91.67835444175418
20
84.79756891837431
30
0
0
SPLINE
5
168
100
AcDbEntity
8
0
100
AcDbSpline
70
4
71
3
72
8
73
4
74
0
42
0.000000001
43
0.0000000001
44
0.0000000001
40
0
40
0
40
0
40
0
40
1
40
1
40
1
40
1
41
1
41
1
41
1
41
1
10
91.67835444175418
20
84.79756891837431
30
0
10
91.707237610674071
20
84.792156563382562
30
0
10
92.969144052934382
20
84.789395148637965
30
0
10
93.061928515337868
20
84.794531383223102
30
0
0
SPLINE
5
169
100
AcDbEntity
8
0
100
AcDbSpline
70
4
71
3
72
8
73
4
74
0
42
0.000000001
43
0.0000000001
44
0.0000000001
40
0
40
0
40
0
40
0
40
1
40
1
40
1
40
1
41
1
41
1
41
1
41
1
10
90.466208557303887
20
84.794034313821584
30
0
10
90.562911638353484
20
84.797845065115723
30
0
10
90.575946733669241
20
84.799998962296158
30
0
10
90.603725947658717
20
84.816622595840641
30
0
0
SPLINE
5
170
100
AcDbEntity
8
0
100
AcDbSpline
70
4
71
3
72
8
73
4
74
0
42
0.000000001
43
0.0000000001
44
0.0000000001
40
0
40
0
40
0
40
0
40
1
40
1
40
1
40
1
41
1
41
1
41
1
41
1
10
90.603725947658717
20
84.816622595840641
30
0
10
90.64868135202353
20
84.843629146718044
30
0
10
91.120494835009112
20
85.313012612116552
30
0
10
91.133197901132078
20
85.343443319384022
30
0
0
SPLINE
5
171
100
AcDbEntity
8
0
100
AcDbSpline
70
4
71
3
72
8
73
4
74
0
42
0.000000001
43
0.0000000001
44
0.0000000001
40
0
40
0
40
0
40
0
40
1
40
1
40
1
40
1
41
1
41
1
41
1
41
1
10
91.133197901132078
20
85.343443319384022
30
0
10
91.151975247513377
20
85.388398987096878
30
0
10
91.148496525412028
20
87.267368938153425
30
0
10
91.129552321720638
20
87.304040256293263
30
0
0
SPLINE
5
172
100
AcDbEntity
8
0
100
AcDbSpline
70
4
71
3
72
8
73
4
74
0
42
0.000000001
43
0.0000000001
44
0.0000000001
40
0
40
0
40
0
40
0
40
1
40
1
40
1
40
1
41
1
41
1
41
1
41
1
10
91.129552321720638
20
87.304040256293263
30
0
10
91.10939461031947
20
87.343141750028991
30
0
10
90.64012106638755
20
87.80744433659774
30
0
10
90.598755622330771
20
87.829314652889977
30
0
0
LINE
5
173
100
AcDbEntity
8
0
100
AcDbLine
10
90.598755622330771
20
87.829314652889991
30
0
11
90.565618434717209
21
87.846821819066037
31
0
0
LINE
5
174
100
AcDbEntity
8
0
100
AcDbLine
10
90.565618434717209
20
87.846821819066037
30
0
11
90.16797555420915
21
87.846821819066037
31
0
0
LINE
5
175
100
AcDbEntity
8
0
100
AcDbLine
10
90.16797555420915
20
87.846821819066037
30
0
11
89.770334359128455
21
87.846821819066037
31
0
0
LINE
5
176
100
AcDbEntity
8
0
100
AcDbLine
10
89.770334359128455
20
87.846821819066037
30
0
11
89.740842750926333
21
87.829038453478958
31
0
0
SPLINE
5
177
100
AcDbEntity
8
0
100
AcDbSpline
70
4
71
3
72
8
73
4
74
0
42
0.000000001
43
0.0000000001
44
0.0000000001
40
0
40
0
40
0
40
0
40
1
40
1
40
1
40
1
41
1
41
1
41
1
41
1
10
89.740842750926333
20
87.829038453478958
30
0
10
89.699642478752281
20
87.804130575700697
30
0
10
89.231031307778608
20
87.337398024214508
30
0
10
89.213745564623892
20
87.304040256293263
30
0
0
SPLINE
5
178
100
AcDbEntity
8
0
100
AcDbSpline
70
4
71
3
72
8
73
4
74
0
42
0.000000001
43
0.0000000001
44
0.0000000001
40
0
40
0
40
0
40
0
40
1
40
1
40
1
40
1
41
1
41
1
41
1
41
1
10
89.213745564623892
20
87.304040256293263
30
0
10
89.167960929990727
20
87.21562020807653
30
0
10
89.23086613589588
20
87.111625546847222
30
0
10
89.330110841426489
20
87.111736153018711
30
0
0
SPLINE
5
179
100
AcDbEntity
8
0
100
AcDbSpline
70
4
71
3
72
8
73
4
74
0
42
0.000000001
43
0.0000000001
44
0.0000000001
40
0
40
0
40
0
40
0
40
1
40
1
40
1
40
1
41
1
41
1
41
1
41
1
10
89.330110841426489
20
87.111736153018711
30
0
10
89.391856473297864
20
87.111791350765216
30
0
10
89.410025380396903
20
87.124051992202311
30
0
10
89.545720823759694
20
87.257317259969255
30
0
0
SPLINE
5
180
100
AcDbEntity
8
0
100
AcDbSpline
70
4
71
3
72
8
73
4
74
0
42
0.000000001
43
0.0000000001
44
0.0000000001
40
0
40
0
40
0
40
0
40
1
40
1
40
1
40
1
41
1
41
1
41
1
41
1
10
89.545720823759694
20
87.257317259969255
30
0
10
89.692020976164002
20
87.401020800824426
30
0
10
89.856434416563943
20
87.548479895227217
30
0
10
89.891835133141711
20
87.567699244937529
30
0
0
SPLINE
5
181
100
AcDbEntity
8
0
100
AcDbSpline
70
4
71
3
72
8
73
4
74
0
42
0.000000001
43
0.0000000001
44
0.0000000001
40
0
40
0
40
0
40
0
40
1
40
1
40
1
40
1
41
1
41
1
41
1
41
1
10
89.891835133141711
20
87.567699244937529
30
0
10
89.915749662161033
20
87.580733076182767
30
0
10
89.935797820782838
20
87.581727056976973
30
0
10
90.17162113362059
20
87.581727056976973
30
0
0
LINE
5
182
100
AcDbEntity
8
0
100
AcDbLine
10
90.171621133620562
20
87.581727056976973
30
0
11
90.425670658088109
21
87.581727056976973
31
0
0
LINE
5
183
100
AcDbEntity
8
0
100
AcDbLine
10
90.425670658088109
20
87.581727056976973
30
0
11
90.46018821072154
21
87.561458318047514
31
0
0
SPLINE
5
184
100
AcDbEntity
8
0
100
AcDbSpline
70
4
71
3
72
8
73
4
74
0
42
0.000000001
43
0.0000000001
44
0.0000000001
40
0
40
0
40
0
40
0
40
1
40
1
40
1
40
1
41
1
41
1
41
1
41
1
10
90.460188210721526
20
87.561458318047514
30
0
10
90.541208390049732
20
87.513796538675805
30
0
10
90.835352546333496
20
87.228212035992755
30
0
10
90.863740199605232
20
87.169560006067627
30
0
0
SPLINE
5
185
100
AcDbEntity
8
0
100
AcDbSpline
70
4
71
3
72
8
73
4
74
0
42
0.000000001
43
0.0000000001
44
0.0000000001
40
0
40
0
40
0
40
0
40
1
40
1
40
1
40
1
41
1
41
1
41
1
41
1
10
90.863740199605232
20
87.169560006067627
30
0
10
90.887597424093812
20
87.120241240908172
30
0
10
90.886935051135566
20
85.517356513172558
30
0
10
90.863022207543622
20
85.470412620523248
30
0
0
SPLINE
5
186
100
AcDbEntity
8
0
100
AcDbSpline
70
4
71
3
72
8
73
4
74
0
42
0.000000001
43
0.0000000001
44
0.0000000001
40
0
40
0
40
0
40
0
40
1
40
1
40
1
40
1
41
1
41
1
41
1
41
1
10
90.863022207543622
20
85.470412620523248
30
0
10
90.833363742031395
20
85.412257475655991
30
0
10
90.516961831837619
20
85.108503012481805
30
0
10
90.449915530872858
20
85.073764563523071
30
0
0
SPLINE
5
187
100
AcDbEntity
8
0
100
AcDbSpline
70
4
71
3
72
8
73
4
74
0
42
0.000000001
43
0.0000000001
44
0.0000000001
40
0
40
0
40
0
40
0
40
1
40
1
40
1
40
1
41
1
41
1
41
1
41
1
10
90.449915530872858
20
85.073764563523071
30
0
10
90.424511084054316
20
85.060620284115188
30
0
10
90.404794954625331
20
85.059626197981757
30
0
10
90.170075596717993
20
85.059736646144415
30
0
0
LINE
5
188
100
AcDbEntity
8
0
100
AcDbLine
10
90.170075596717979
20
85.05973664614443
30
0
11
89.917571609153057
21
85.059847094307059
31
0
0
LINE
5
189
100
AcDbEntity
8
0
100
AcDbLine
10
89.917571609153057
20
85.059847094307059
30
0
11
89.88603726297282
21
85.077851461558652
31
0
0
SPLINE
5
190
100
AcDbEntity
8
0
100
AcDbSpline
70
4
71
3
72
8
73
4
74
0
42
0.000000001
43
0.0000000001
44
0.0000000001
40
0
40
0
40
0
40
0
40
1
40
1
40
1
40
1
41
1
41
1
41
1
41
1
10
89.88603726297282
20
85.077851461558652
30
0
10
89.848482570210209
20
85.099335182946845
30
0
10
89.753764922607985
20
85.185049172174303
30
0
10
89.568034196773084
20
85.365589782417715
30
0
0
SPLINE
5
191
100
AcDbEntity
8
0
100
AcDbSpline
70
4
71
3
72
8
73
4
74
0
42
0.000000001
43
0.0000000001
44
0.0000000001
40
0
40
0
40
0
40
0
40
1
40
1
40
1
40
1
41
1
41
1
41
1
41
1
10
89.568034196773084
20
85.365589782417715
30
0
10
89.424164430643089
20
85.505482466639506
30
0
10
89.388101341107088
20
85.530942637900637
30
0
10
89.33403283092737
20
85.530942637900637
30
0
0
SPLINE
5
192
100
AcDbEntity
8
0
100
AcDbSpline
70
4
71
3
72
8
73
4
74
0
42
0.000000001
43
0.0000000001
44
0.0000000001
40
0
40
0
40
0
40
0
40
1
40
1
40
1
40
1
41
1
41
1
41
1
41
1
10
89.33403283092737
20
85.530942637900637
30
0
10
89.233517313156256
20
85.530942637900637
30
0
10
89.169396914113946
20
85.431145533547962
30
0
10
89.212144408617945
20
85.341123697290016
30
0
0
SPLINE
5
193
100
AcDbEntity
8
0
100
AcDbSpline
70
4
71
3
72
8
73
4
74
0
42
0.000000001
43
0.0000000001
44
0.0000000001
40
0
40
0
40
0
40
0
40
1
40
1
40
1
40
1
41
1
41
1
41
1
41
1
10
89.212144408617945
20
85.341123697290016
30
0
10
89.232025709929673
20
85.299205591063185
30
0
10
89.699254830456113
20
84.839431800519819
30
0
10
89.746475449212511
20
84.815407587047119
30
0
0
LINE
5
194
100
AcDbEntity
8
0
100
AcDbLine
10
89.746475449212525
20
84.815407587047119
30
0
11
89.785024544126173
21
84.795691167935288
31
0
0
LINE
5
195
100
AcDbEntity
8
0
100
AcDbLine
10
89.785024544126173
20
84.795691167935288
30
0
11
90.072211256207254
21
84.792764080946739
31
0
0
SPLINE
5
196
100
AcDbEntity
8
0
100
AcDbSpline
70
4
71
3
72
8
73
4
74
0
42
0.000000001
43
0.0000000001
44
0.0000000001
40
0
40
0
40
0
40
0
40
1
40
1
40
1
40
1
41
1
41
1
41
1
41
1
10
90.072211256207254
20
84.792764080946739
30
0
10
90.230162768052679
20
84.791162450914328
30
0
10
90.407500065561678
20
84.791714744397169
30
0
10
90.466208557303887
20
84.794034313821584
30
0
0
SPLINE
5
197
100
AcDbEntity
8
0
100
AcDbSpline
70
4
71
3
72
8
73
4
74
0
42
0.000000001
43
0.0000000001
44
0.0000000001
40
0
40
0
40
0
40
0
40
1
40
1
40
1
40
1
41
1
41
1
41
1
41
1
10
97.730523578369684
20
84.808338404276469
30
0
10
97.792544777616826
20
84.846832380448021
30
0
10
97.813586495676006
20
84.906147336362281
30
0
10
97.793704351650604
20
84.986007151612611
30
0
0
SPLINE
5
198
100
AcDbEntity
8
0
100
AcDbSpline
70
4
71
3
72
8
73
4
74
0
42
0.000000001
43
0.0000000001
44
0.0000000001
40
0
40
0
40
0
40
0
40
1
40
1
40
1
40
1
41
1
41
1
41
1
41
1
10
97.793704351650604
20
84.986007151612611
30
0
10
97.78172012030295
20
85.034110776304516
30
0
10
97.625148130763677
20
85.627923182431772
30
0
10
97.557825419709502
20
85.880702105337221
30
0
0
SPLINE
5
199
100
AcDbEntity
8
0
100
AcDbSpline
70
4
71
3
72
8
73
4
74
0
42
0.000000001
43
0.0000000001
44
0.0000000001
40
0
40
0
40
0
40
0
40
1
40
1
40
1
40
1
41
1
41
1
41
1
41
1
10
97.557825419709502
20
85.880702105337221
30
0
10
97.537335679115529
20
85.957634807264185
30
0
10
97.502376544509914
20
86.090182188308717
30
0
10
97.480064014210228
20
86.175233488560309
30
0
0
SPLINE
5
200
100
AcDbEntity
8
0
100
AcDbSpline
70
4
71
3
72
8
73
4
74
0
42
0.000000001
43
0.0000000001
44
0.0000000001
40
0
40
0
40
0
40
0
40
1
40
1
40
1
40
1
41
1
41
1
41
1
41
1
10
97.480064014210228
20
86.175233488560309
30
0
10
97.457807103013906
20
86.260284683472705
30
0
10
97.416275644360738
20
86.417684744548978
30
0
10
97.387778438309667
20
86.525048153743427
30
0
0
SPLINE
5
201
100
AcDbEntity
8
0
100
AcDbSpline
70
4
71
3
72
8
73
4
74
0
42
0.000000001
43
0.0000000001
44
0.0000000001
40
0
40
0
40
0
40
0
40
1
40
1
40
1
40
1
41
1
41
1
41
1
41
1
10
97.387778438309667
20
86.525048153743427
30
0
10
97.288588509168733
20
86.898942309150158
30
0
10
97.253850165549224
20
87.030385208568219
30
0
10
97.215466242518289
20
87.176739505326907
30
0
0
SPLINE
5
202
100
AcDbEntity
8
0
100
AcDbSpline
70
4
71
3
72
8
73
4
74
0
42
0.000000001
43
0.0000000001
44
0.0000000001
40
0
40
0
40
0
40
0
40
1
40
1
40
1
40
1
41
1
41
1
41
1
41
1
10
97.215466242518289
20
87.176739505326907
30
0
10
97.032606642216152
20
87.874104674693655
30
0
10
97.046026857687039
20
87.843121673943358
30
0
10
96.926292411562429
20
87.843121673943358
30
0
0
SPLINE
5
203
100
AcDbEntity
8
0
100
AcDbSpline
70
4
71
3
72
8
73
4
74
0
42
0.000000001
43
0.0000000001
44
0.0000000001
40
0
40
0
40
0
40
0
40
1
40
1
40
1
40
1
41
1
41
1
41
1
41
1
10
96.926292411562429
20
87.843121673943358
30
0
10
96.839308347468943
20
87.843121673943358
30
0
10
96.808987508998456
20
87.803578387557053
30
0
10
96.735866085061687
20
87.594263897825115
30
0
0
SPLINE
5
204
100
AcDbEntity
8
0
100
AcDbSpline
70
4
71
3
72
8
73
4
74
0
42
0.000000001
43
0.0000000001
44
0.0000000001
40
0
40
0
40
0
40
0
40
1
40
1
40
1
40
1
41
1
41
1
41
1
41
1
10
96.735866085061687
20
87.594263897825115
30
0
10
96.706595267845628
20
87.510427580032243
30
0
10
96.65390712268578
20
87.360649126883473
30
0
10
96.618837592587141
20
87.261404210674428
30
0
0
SPLINE
5
205
100
AcDbEntity
8
0
100
AcDbSpline
70
4
71
3
72
8
73
4
74
0
42
0.000000001
43
0.0000000001
44
0.0000000001
40
0
40
0
40
0
40
0
40
1
40
1
40
1
40
1
41
1
41
1
41
1
41
1
10
96.618837592587141
20
87.261404210674428
30
0
10
96.583767219774828
20
87.162159294465397
30
0
10
96.530527939863461
20
87.010116469638746
30
0
10
96.500539130585778
20
86.923518789770895
30
0
0
SPLINE
5
206
100
AcDbEntity
8
0
100
AcDbSpline
70
4
71
3
72
8
73
4
74
0
42
0.000000001
43
0.0000000001
44
0.0000000001
40
0
40
0
40
0
40
0
40
1
40
1
40
1
40
1
41
1
41
1
41
1
41
1
10
96.500539130585778
20
86.923518789770895
30
0
10
96.47055032130811
20
86.836921109903017
30
0
10
96.444261867831557
20
86.764296255006514
30
0
10
96.442107891646728
20
86.762142278821685
30
0
0
SPLINE
5
207
100
AcDbEntity
8
0
100
AcDbSpline
70
4
71
3
72
8
73
4
74
0
42
0.000000001
43
0.0000000001
44
0.0000000001
40
0
40
0
40
0
40
0
40
1
40
1
40
1
40
1
41
1
41
1
41
1
41
1
10
96.442107891646728
20
86.762142278821685
30
0
10
96.434651560941148
20
86.754631382404853
30
0
10
96.429184034537684
20
86.767775609143115
30
0
10
96.370421609119489
20
86.935006241399847
30
0
0
SPLINE
5
208
100
AcDbEntity
8
0
100
AcDbSpline
70
4
71
3
72
8
73
4
74
0
42
0.000000001
43
0.0000000001
44
0.0000000001
40
0
40
0
40
0
40
0
40
1
40
1
40
1
40
1
41
1
41
1
41
1
41
1
10
96.370421609119489
20
86.935006241399847
30
0
10
96.337947637177862
20
87.027458042575248
30
0
10
96.283381925922612
20
87.182593837312851
30
0
10
96.249140783378635
20
87.279795172830092
30
0
0
SPLINE
5
209
100
AcDbEntity
8
0
100
AcDbSpline
70
4
71
3
72
8
73
4
74
0
42
0.000000001
43
0.0000000001
44
0.0000000001
40
0
40
0
40
0
40
0
40
1
40
1
40
1
40
1
41
1
41
1
41
1
41
1
10
96.249140783378635
20
87.279795172830092
30
0
10
96.21495441722432
20
87.376996508347332
30
0
10
96.167458231092183
20
87.513244350532176
30
0
10
96.143710559382939
20
87.582555444531636
30
0
0
SPLINE
5
210
100
AcDbEntity
8
0
100
AcDbSpline
70
4
71
3
72
8
73
4
74
0
42
0.000000001
43
0.0000000001
44
0.0000000001
40
0
40
0
40
0
40
0
40
1
40
1
40
1
40
1
41
1
41
1
41
1
41
1
10
96.143710559382939
20
87.582555444531636
30
0
10
96.068489935651016
20
87.801921401769334
30
0
10
96.041979848474682
20
87.8372673419574
30
0
10
95.949197071498588
20
87.841906691484638
30
0
0
SPLINE
5
211
100
AcDbEntity
8
0
100
AcDbSpline
70
4
71
3
72
8
73
4
74
0
42
0.000000001
43
0.0000000001
44
0.0000000001
40
0
40
0
40
0
40
0
40
1
40
1
40
1
40
1
41
1
41
1
41
1
41
1
10
95.949197071498588
20
87.841906691484638
30
0
10
95.853542326276056
20
87.846766621319517
30
0
10
95.825983060558983
20
87.809708708275608
30
0
10
95.772080564975681
20
87.603818374933752
30
0
0
SPLINE
5
212
100
AcDbEntity
8
0
100
AcDbSpline
70
4
71
3
72
8
73
4
74
0
42
0.000000001
43
0.0000000001
44
0.0000000001
40
0
40
0
40
0
40
0
40
1
40
1
40
1
40
1
41
1
41
1
41
1
41
1
10
95.772080564975681
20
87.603818374933752
30
0
10
95.715306101145927
20
87.386771987120468
30
0
10
95.643951005097819
20
87.116706689025051
30
0
10
95.61744176063516
20
87.018400555863721
30
0
0
SPLINE
5
213
100
AcDbEntity
8
0
100
AcDbSpline
70
4
71
3
72
8
73
4
74
0
42
0.000000001
43
0.0000000001
44
0.0000000001
40
0
40
0
40
0
40
0
40
1
40
1
40
1
40
1
41
1
41
1
41
1
41
1
10
95.61744176063516
20
87.018400555863721
30
0
10
95.603800754178195
20
86.967756412752507
30
0
10
95.578726651125109
20
86.873316439310258
30
0
10
95.561716475346145
20
86.80853387798814
30
0
0
SPLINE
5
214
100
AcDbEntity
8
0
100
AcDbSpline
70
4
71
3
72
8
73
4
74
0
42
0.000000001
43
0.0000000001
44
0.0000000001
40
0
40
0
40
0
40
0
40
1
40
1
40
1
40
1
41
1
41
1
41
1
41
1
10
95.561716475346145
20
86.80853387798814
30
0
10
95.483569106978081
20
86.510357547388864
30
0
10
95.449990337392364
20
86.382890992504514
30
0
10
95.403653725293992
20
86.208370360156238
30
0
0
SPLINE
5
215
100
AcDbEntity
8
0
100
AcDbSpline
70
4
71
3
72
8
73
4
74
0
42
0.000000001
43
0.0000000001
44
0.0000000001
40
0
40
0
40
0
40
0
40
1
40
1
40
1
40
1
41
1
41
1
41
1
41
1
10
95.403653725293992
20
86.208370360156238
30
0
10
95.314350513132922
20
85.872086516615482
30
0
10
95.242774626098736
20
85.600640537482576
30
0
10
95.15424418238895
20
85.262147572680064
30
0
0
SPLINE
5
216
100
AcDbEntity
8
0
100
AcDbSpline
70
4
71
3
72
8
73
4
74
0
42
0.000000001
43
0.0000000001
44
0.0000000001
40
0
40
0
40
0
40
0
40
1
40
1
40
1
40
1
41
1
41
1
41
1
41
1
10
95.15424418238895
20
85.262147572680064
30
0
10
95.132042047582303
20
85.177096325098077
30
0
10
95.105312012133567
20
85.078127608300065
30
0
10
95.09487331768851
20
85.042229321959525
30
0
0
SPLINE
5
217
100
AcDbEntity
8
0
100
AcDbSpline
70
4
71
3
72
8
73
4
74
0
42
0.000000001
43
0.0000000001
44
0.0000000001
40
0
40
0
40
0
40
0
40
1
40
1
40
1
40
1
41
1
41
1
41
1
41
1
10
95.09487331768851
20
85.042229321959525
30
0
10
95.065216537603646
20
84.940278294091641
30
0
10
95.070020848335176
20
84.880190122034449
30
0
10
95.111331516002252
20
84.836007670464539
30
0
0
SPLINE
5
218
100
AcDbEntity
8
0
100
AcDbSpline
70
4
71
3
72
8
73
4
74
0
42
0.000000001
43
0.0000000001
44
0.0000000001
40
0
40
0
40
0
40
0
40
1
40
1
40
1
40
1
41
1
41
1
41
1
41
1
10
95.111331516002252
20
84.836007670464539
30
0
10
95.1641848330448
20
84.779454102960074
30
0
10
95.252604881261533
20
84.779564551122718
30
0
10
95.305182630928357
20
84.836228566789828
30
0
0
SPLINE
5
219
100
AcDbEntity
8
0
100
AcDbSpline
70
4
71
3
72
8
73
4
74
0
42
0.000000001
43
0.0000000001
44
0.0000000001
40
0
40
0
40
0
40
0
40
1
40
1
40
1
40
1
41
1
41
1
41
1
41
1
10
95.305182630928357
20
84.836228566789828
30
0
10
95.342571309094538
20
84.876489845237742
30
0
10
95.328101915082925
20
84.828220495632266
30
0
10
95.514330684707033
20
85.534587690615993
30
0
0
SPLINE
5
220
100
AcDbEntity
8
0
100
AcDbSpline
70
4
71
3
72
8
73
4
74
0
42
0.000000001
43
0.0000000001
44
0.0000000001
40
0
40
0
40
0
40
0
40
1
40
1
40
1
40
1
41
1
41
1
41
1
41
1
10
95.514330684707033
20
85.534587690615993
30
0
10
95.56342886955882
20
85.720816776257749
30
0
10
95.641686633419937
20
86.017170738508142
30
0
10
95.688410051100789
20
86.193679648462492
30
0
0
SPLINE
5
221
100
AcDbEntity
8
0
100
AcDbSpline
70
4
71
3
72
8
73
4
74
0
42
0.000000001
43
0.0000000001
44
0.0000000001
40
0
40
0
40
0
40
0
40
1
40
1
40
1
40
1
41
1
41
1
41
1
41
1
10
95.688410051100789
20
86.193679648462492
30
0
10
95.708236576022827
20
86.268568875036891
30
0
10
95.745792111499114
20
86.411057433433314
30
0
10
95.77180415488624
20
86.510302349642359
30
0
0
SPLINE
5
222
100
AcDbEntity
8
0
100
AcDbSpline
70
4
71
3
72
8
73
4
74
0
42
0.000000001
43
0.0000000001
44
0.0000000001
40
0
40
0
40
0
40
0
40
1
40
1
40
1
40
1
41
1
41
1
41
1
41
1
10
95.77180415488624
20
86.510302349642359
30
0
10
95.797871817376716
20
86.609547055172968
30
0
10
95.837746500920545
20
86.760319699794366
30
0
10
95.860500613192414
20
86.845371000045972
30
0
0
SPLINE
5
223
100
AcDbEntity
8
0
100
AcDbSpline
70
4
71
3
72
8
73
4
74
0
42
0.000000001
43
0.0000000001
44
0.0000000001
40
0
40
0
40
0
40
0
40
1
40
1
40
1
40
1
41
1
41
1
41
1
41
1
10
95.860500613192414
20
86.845371000045972
30
0
10
95.883254725464269
20
86.930422300297579
30
0
10
95.915839092898949
20
87.054354092620372
30
0
10
95.933015283274301
20
87.120848837476757
30
0
0
LINE
5
224
100
AcDbEntity
8
0
100
AcDbLine
10
95.933015283274315
20
87.120848837476757
30
0
11
95.964163666585748
21
87.241743068313554
31
0
0
LINE
5
225
100
AcDbEntity
8
0
100
AcDbLine
10
95.964163666585748
20
87.241743068313554
30
0
11
96.01050027868412
21
87.109803178498368
31
0
0
SPLINE
5
226
100
AcDbEntity
8
0
100
AcDbSpline
70
4
71
3
72
8
73
4
74
0
42
0.000000001
43
0.0000000001
44
0.0000000001
40
0
40
0
40
0
40
0
40
1
40
1
40
1
40
1
41
1
41
1
41
1
41
1
10
96.010500278684106
20
87.109803178498368
30
0
10
96.0360151209957
20
87.037233521348384
30
0
10
96.083069725155667
20
86.90336044633446
30
0
10
96.115102115125154
20
86.812234233789241
30
0
0
SPLINE
5
227
100
AcDbEntity
8
0
100
AcDbSpline
70
4
71
3
72
8
73
4
74
0
42
0.000000001
43
0.0000000001
44
0.0000000001
40
0
40
0
40
0
40
0
40
1
40
1
40
1
40
1
41
1
41
1
41
1
41
1
10
96.115102115125154
20
86.812234233789241
30
0
10
96.343083977102197
20
86.163193743448517
30
0
10
96.325797391233792
20
86.19401104562003
30
0
10
96.456743300254743
20
86.202350434930736
30
0
0
SPLINE
5
228
100
AcDbEntity
8
0
100
AcDbSpline
70
4
71
3
72
8
73
4
74
0
42
0.000000001
43
0.0000000001
44
0.0000000001
40
0
40
0
40
0
40
0
40
1
40
1
40
1
40
1
41
1
41
1
41
1
41
1
10
96.456743300254743
20
86.202350434930736
30
0
10
96.535442646088001
20
86.207376274022806
30
0
10
96.557037184326077
20
86.234438022646728
30
0
10
96.617070421984792
20
86.403546326338073
30
0
0
SPLINE
5
229
100
AcDbEntity
8
0
100
AcDbSpline
70
4
71
3
72
8
73
4
74
0
42
0.000000001
43
0.0000000001
44
0.0000000001
40
0
40
0
40
0
40
0
40
1
40
1
40
1
40
1
41
1
41
1
41
1
41
1
10
96.617070421984792
20
86.403546326338073
30
0
10
96.686326318237747
20
86.598667200112573
30
0
10
96.770825219667273
20
86.838301896279717
30
0
10
96.824727715250575
20
86.992609092784249
30
0
0
SPLINE
5
230
100
AcDbEntity
8
0
100
AcDbSpline
70
4
71
3
72
8
73
4
74
0
42
0.000000001
43
0.0000000001
44
0.0000000001
40
0
40
0
40
0
40
0
40
1
40
1
40
1
40
1
41
1
41
1
41
1
41
1
10
96.824727715250575
20
86.992609092784249
30
0
10
96.890615284895233
20
87.18126824868267
30
0
10
96.906023461954547
20
87.223628305568894
30
0
10
96.910552205310296
20
87.228156838246235
30
0
0
SPLINE
5
231
100
AcDbEntity
8
0
100
AcDbSpline
70
4
71
3
72
8
73
4
74
0
42
0.000000001
43
0.0000000001
44
0.0000000001
40
0
40
0
40
0
40
0
40
1
40
1
40
1
40
1
41
1
41
1
41
1
41
1
10
96.910552205310296
20
87.228156838246235
30
0
10
96.912485390509062
20
87.230089812766579
30
0
10
96.926292411562429
20
87.184471403408253
30
0
10
96.941203387546224
20
87.126868552023836
30
0
0
SPLINE
5
232
100
AcDbEntity
8
0
100
AcDbSpline
70
4
71
3
72
8
73
4
74
0
42
0.000000001
43
0.0000000001
44
0.0000000001
40
0
40
0
40
0
40
0
40
1
40
1
40
1
40
1
41
1
41
1
41
1
41
1
10
96.941203387546224
20
87.126868552023836
30
0
10
96.956115206243695
20
87.069210502892901
30
0
10
96.988147596213167
20
86.947543082247989
30
0
10
97.012448088101294
20
86.856416659024362
30
0
0
SPLINE
5
233
100
AcDbEntity
8
0
100
AcDbSpline
70
4
71
3
72
8
73
4
74
0
42
0.000000001
43
0.0000000001
44
0.0000000001
40
0
40
0
40
0
40
0
40
1
40
1
40
1
40
1
41
1
41
1
41
1
41
1
10
97.012448088101294
20
86.856416659024362
30
0
10
97.036692960886057
20
86.765290235800734
30
0
10
97.07960562727277
20
86.602919744057303
30
0
10
97.107827265948075
20
86.495556334862869
30
0
0
SPLINE
5
234
100
AcDbEntity
8
0
100
AcDbSpline
70
4
71
3
72
8
73
4
74
0
42
0.000000001
43
0.0000000001
44
0.0000000001
40
0
40
0
40
0
40
0
40
1
40
1
40
1
40
1
41
1
41
1
41
1
41
1
10
97.107827265948075
20
86.495556334862869
30
0
10
97.213865086512342
20
86.091894266503758
30
0
10
97.226070108846073
20
86.045613168169552
30
0
10
97.274118272443417
20
85.865956195896942
30
0
0
SPLINE
5
235
100
AcDbEntity
8
0
100
AcDbSpline
70
4
71
3
72
8
73
4
74
0
42
0.000000001
43
0.0000000001
44
0.0000000001
40
0
40
0
40
0
40
0
40
1
40
1
40
1
40
1
41
1
41
1
41
1
41
1
10
97.274118272443417
20
85.865956195896942
30
0
10
97.301235956188336
20
85.764723107421048
30
0
10
97.339232230923102
20
85.620577879254512
30
0
10
97.358618016586661
20
85.545633349594382
30
0
0
SPLINE
5
236
100
AcDbEntity
8
0
100
AcDbSpline
70
4
71
3
72
8
73
4
74
0
42
0.000000001
43
0.0000000001
44
0.0000000001
40
0
40
0
40
0
40
0
40
1
40
1
40
1
40
1
41
1
41
1
41
1
41
1
10
97.358618016586661
20
85.545633349594382
30
0
10
97.533690942417778
20
84.869475886548415
30
0
10
97.538882058731787
20
84.853846339137363
30
0
10
97.601565630937174
20
84.81109979268625
30
0
0
SPLINE
5
237
100
AcDbEntity
8
0
100
AcDbSpline
70
4
71
3
72
8
73
4
74
0
42
0.000000001
43
0.0000000001
44
0.0000000001
40
0
40
0
40
0
40
0
40
1
40
1
40
1
40
1
41
1
41
1
41
1
41
1
10
97.601565630937174
20
84.81109979268625
30
0
10
97.633212058037842
20
84.789616071298056
30
0
10
97.698104382817732
20
84.788180139844442
30
0
10
97.730523578369684
20
84.808338404276469
30
0
0
SPLINE
5
238
100
AcDbEntity
8
0
100
AcDbSpline
70
4
71
3
72
8
73
4
74
0
42
0.000000001
43
0.0000000001
44
0.0000000001
40
0
40
0
40
0
40
0
40
1
40
1
40
1
40
1
41
1
41
1
41
1
41
1
10
94.357910928259457
20
84.803091721528702
30
0
10
94.383811733439842
20
84.817340561567462
30
0
10
94.421422045305803
20
84.856331607140518
30
0
10
94.434897879880054
20
84.882896312697724
30
0
0
SPLINE
5
239
100
AcDbEntity
8
0
100
AcDbSpline
70
4
71
3
72
8
73
4
74
0
42
0.000000001
43
0.0000000001
44
0.0000000001
40
0
40
0
40
0
40
0
40
1
40
1
40
1
40
1
41
1
41
1
41
1
41
1
10
94.434897879880054
20
84.882896312697724
30
0
10
94.447489707796279
20
84.907693715978553
30
0
10
94.737658783616865
20
85.776541956207552
30
0
10
94.891026775716867
20
86.248907732675974
30
0
0
SPLINE
5
240
100
AcDbEntity
8
0
100
AcDbSpline
70
4
71
3
72
8
73
4
74
0
42
0.000000001
43
0.0000000001
44
0.0000000001
40
0
40
0
40
0
40
0
40
1
40
1
40
1
40
1
41
1
41
1
41
1
41
1
10
94.891026775716867
20
86.248907732675974
30
0
10
94.931785465918722
20
86.374441102361573
30
0
10
95.051685083926031
20
86.737289598789914
30
0
10
95.157502113504208
20
87.055237677921554
30
0
0
SPLINE
5
241
100
AcDbEntity
8
0
100
AcDbSpline
70
4
71
3
72
8
73
4
74
0
42
0.000000001
43
0.0000000001
44
0.0000000001
40
0
40
0
40
0
40
0
40
1
40
1
40
1
40
1
41
1
41
1
41
1
41
1
10
95.157502113504208
20
87.055237677921554
30
0
10
95.386809564111431
20
87.744484354302898
30
0
10
95.387748347159146
20
87.749012886980239
30
0
10
95.314405289522597
20
87.8134088533983
30
0
0
SPLINE
5
242
100
AcDbEntity
8
0
100
AcDbSpline
70
4
71
3
72
8
73
4
74
0
42
0.000000001
43
0.0000000001
44
0.0000000001
40
0
40
0
40
0
40
0
40
1
40
1
40
1
40
1
41
1
41
1
41
1
41
1
10
95.314405289522597
20
87.8134088533983
30
0
10
95.255753259597441
20
87.86493679248909
30
0
10
95.186772930720281
20
87.860849841783931
30
0
10
95.129722899514746
20
87.802473800591372
30
0
0
LINE
5
243
100
AcDbEntity
8
0
100
AcDbLine
10
95.129722899514746
20
87.802473800591372
30
0
11
95.0915049910802
21
87.763372306855672
31
0
0
LINE
5
244
100
AcDbEntity
8
0
100
AcDbLine
10
95.0915049910802
20
87.763372306855672
30
0
11
95.00214615981578
21
87.488446868246953
31
0
0
SPLINE
5
245
100
AcDbEntity
8
0
100
AcDbSpline
70
4
71
3
72
8
73
4
74
0
42
0.000000001
43
0.0000000001
44
0.0000000001
40
0
40
0
40
0
40
0
40
1
40
1
40
1
40
1
41
1
41
1
41
1
41
1
10
95.00214615981578
20
87.488446868246939
30
0
10
94.833644715318542
20
86.970241786094888
30
0
10
94.824035251141794
20
86.942627743988155
30
0
10
94.806361859690909
20
86.924954773894115
30
0
0
LINE
5
246
100
AcDbEntity
8
0
100
AcDbLine
10
94.806361859690895
20
86.924954773894115
30
0
11
94.78935168391196
21
86.907944387436729
31
0
0
LINE
5
247
100
AcDbEntity
8
0
100
AcDbLine
10
94.78935168391196
20
86.907944387436729
30
0
11
94.311408301564668
21
86.907944387436729
31
0
0
SPLINE
5
248
100
AcDbEntity
8
0
100
AcDbSpline
70
4
71
3
72
8
73
4
74
0
42
0.000000001
43
0.0000000001
44
0.0000000001
40
0
40
0
40
0
40
0
40
1
40
1
40
1
40
1
41
1
41
1
41
1
41
1
10
94.311408301564668
20
86.907944387436729
30
0
10
93.849700641117678
20
86.907944387436729
30
0
10
93.832800860831767
20
86.908441588512261
30
0
10
93.815294326690974
20
86.922193411819109
30
0
0
SPLINE
5
249
100
AcDbEntity
8
0
100
AcDbSpline
70
4
71
3
72
8
73
4
74
0
42
0.000000001
43
0.0000000001
44
0.0000000001
40
0
40
0
40
0
40
0
40
1
40
1
40
1
40
1
41
1
41
1
41
1
41
1
10
93.815294326690974
20
86.922193411819109
30
0
10
93.794748966993637
20
86.938320002296891
30
0
10
93.78094194594027
20
86.97355533631351
30
0
10
93.606641788560438
20
87.452879926394345
30
0
0
SPLINE
5
250
100
AcDbEntity
8
0
100
AcDbSpline
70
4
71
3
72
8
73
4
74
0
42
0.000000001
43
0.0000000001
44
0.0000000001
40
0
40
0
40
0
40
0
40
1
40
1
40
1
40
1
41
1
41
1
41
1
41
1
10
93.606641788560438
20
87.452879926394345
30
0
10
93.528881225774853
20
87.666612763989008
30
0
10
93.49784239524277
20
87.746141129412209
30
0
10
93.481109472266951
20
87.774804560738104
30
0
0
SPLINE
5
251
100
AcDbEntity
8
0
100
AcDbSpline
70
4
71
3
72
8
73
4
74
0
42
0.000000001
43
0.0000000001
44
0.0000000001
40
0
40
0
40
0
40
0
40
1
40
1
40
1
40
1
41
1
41
1
41
1
41
1
10
93.481109472266951
20
87.774804560738104
30
0
10
93.408705197678117
20
87.898294560410335
30
0
10
93.236173053614323
20
87.859911058736216
30
0
10
93.229269543087639
20
87.718747878291552
30
0
0
SPLINE
5
252
100
AcDbEntity
8
0
100
AcDbSpline
70
4
71
3
72
8
73
4
74
0
42
0.000000001
43
0.0000000001
44
0.0000000001
40
0
40
0
40
0
40
0
40
1
40
1
40
1
40
1
41
1
41
1
41
1
41
1
10
93.229269543087639
20
87.718747878291552
30
0
10
93.227059947799432
20
87.673902869419763
30
0
10
93.231533072051832
20
87.656561085804853
30
0
10
93.286761156265328
20
87.497062351629452
30
0
0
SPLINE
5
253
100
AcDbEntity
8
0
100
AcDbSpline
70
4
71
3
72
8
73
4
74
0
42
0.000000001
43
0.0000000001
44
0.0000000001
40
0
40
0
40
0
40
0
40
1
40
1
40
1
40
1
41
1
41
1
41
1
41
1
10
93.286761156265328
20
87.497062351629452
30
0
10
93.319733171996177
20
87.401849188379089
30
0
10
93.414117104978203
20
87.123499593380274
30
0
10
93.496573268429643
20
86.878507976981112
30
0
0
SPLINE
5
254
100
AcDbEntity
8
0
100
AcDbSpline
70
4
71
3
72
8
73
4
74
0
42
0.000000001
43
0.0000000001
44
0.0000000001
40
0
40
0
40
0
40
0
40
1
40
1
40
1
40
1
41
1
41
1
41
1
41
1
10
93.496573268429643
20
86.878507976981112
30
0
10
93.966618738099186
20
85.481182185429802
30
0
10
94.157045064599941
20
84.923157591145625
30
0
10
94.177701662504006
20
84.882896312697724
30
0
0
SPLINE
5
255
100
AcDbEntity
8
0
100
AcDbSpline
70
4
71
3
72
8
73
4
74
0
42
0.000000001
43
0.0000000001
44
0.0000000001
40
0
40
0
40
0
40
0
40
1
40
1
40
1
40
1
41
1
41
1
41
1
41
1
10
94.177701662504006
20
84.882896312697724
30
0
10
94.214096781232826
20
84.812038681073162
30
0
10
94.302792396825325
20
84.772771515093481
30
0
10
94.357910928259457
20
84.803091721528702
30
0
0
SPLINE
5
256
100
AcDbEntity
8
0
100
AcDbSpline
70
4
71
3
72
8
73
4
74
0
42
0.000000001
43
0.0000000001
44
0.0000000001
40
0
40
0
40
0
40
0
40
1
40
1
40
1
40
1
41
1
41
1
41
1
41
1
10
88.687863571458593
20
84.807951809372412
30
0
10
88.770926488764914
20
84.86130211681207
30
0
10
88.765900544333633
20
84.756534450118266
30
0
10
88.763470158059334
20
86.38631514889461
30
0
0
LINE
5
257
100
AcDbEntity
8
0
100
AcDbLine
10
88.763470158059334
20
86.386315148894596
30
0
11
88.761483039184583
21
87.751111665418563
31
0
0
LINE
5
258
100
AcDbEntity
8
0
100
AcDbLine
10
88.761483039184583
20
87.751111665418563
30
0
11
88.744362467912609
21
87.778559903607331
31
0
0
SPLINE
5
259
100
AcDbEntity
8
0
100
AcDbSpline
70
4
71
3
72
8
73
4
74
0
42
0.000000001
43
0.0000000001
44
0.0000000001
40
0
40
0
40
0
40
0
40
1
40
1
40
1
40
1
41
1
41
1
41
1
41
1
10
88.744362467912609
20
87.778559903607317
30
0
10
88.6954850740469
20
87.857260092154263
30
0
10
88.604745035048921
20
87.872061094001864
30
0
10
88.53963191928294
20
87.812028277700009
30
0
0
SPLINE
5
260
100
AcDbEntity
8
0
100
AcDbSpline
70
4
71
3
72
8
73
4
74
0
42
0.000000001
43
0.0000000001
44
0.0000000001
40
0
40
0
40
0
40
0
40
1
40
1
40
1
40
1
41
1
41
1
41
1
41
1
10
88.53963191928294
20
87.812028277700009
30
0
10
88.492190509540478
20
87.768287645115493
30
0
10
88.492797263395346
20
87.775080549470715
30
0
10
88.492687710615996
20
87.29824133273226
30
0
0
LINE
5
261
100
AcDbEntity
8
0
100
AcDbLine
10
88.492687710615996
20
87.29824133273226
30
0
11
88.492632091512618
21
86.867462318002723
31
0
0
LINE
5
262
100
AcDbEntity
8
0
100
AcDbLine
10
88.492632091512618
20
86.867462318002723
30
0
11
88.476119959522904
21
86.841670854923308
31
0
0
SPLINE
5
263
100
AcDbEntity
8
0
100
AcDbSpline
70
4
71
3
72
8
73
4
74
0
42
0.000000001
43
0.0000000001
44
0.0000000001
40
0
40
0
40
0
40
0
40
1
40
1
40
1
40
1
41
1
41
1
41
1
41
1
10
88.476119959522904
20
86.841670854923279
30
0
10
88.441767578772186
20
86.788044348072589
30
0
10
88.108521507395864
20
86.469543870118898
30
0
10
88.072401113329107
20
86.45579204681205
30
0
0
SPLINE
5
264
100
AcDbEntity
8
0
100
AcDbSpline
70
4
71
3
72
8
73
4
74
0
42
0.000000001
43
0.0000000001
44
0.0000000001
40
0
40
0
40
0
40
0
40
1
40
1
40
1
40
1
41
1
41
1
41
1
41
1
10
88.072401113329107
20
86.45579204681205
30
0
10
88.013915098000382
20
86.433590544040669
30
0
10
87.717893375621202
20
86.441101440457516
30
0
10
87.682711764602161
20
86.465733118824758
30
0
0
SPLINE
5
265
100
AcDbEntity
8
0
100
AcDbSpline
70
4
71
3
72
8
73
4
74
0
42
0.000000001
43
0.0000000001
44
0.0000000001
40
0
40
0
40
0
40
0
40
1
40
1
40
1
40
1
41
1
41
1
41
1
41
1
10
87.682711764602161
20
86.465733118824758
30
0
10
87.649741434298676
20
86.488818628254165
30
0
10
87.315003759695756
20
86.815105991357285
30
0
10
87.29799442663051
20
86.84073186119717
30
0
0
SPLINE
5
266
100
AcDbEntity
8
0
100
AcDbSpline
70
4
71
3
72
8
73
4
74
0
42
0.000000001
43
0.0000000001
44
0.0000000001
40
0
40
0
40
0
40
0
40
1
40
1
40
1
40
1
41
1
41
1
41
1
41
1
10
87.29799442663051
20
86.84073186119717
30
0
10
87.286174524451894
20
86.858570635209205
30
0
10
87.285126188624815
20
86.893585178239746
30
0
10
87.284905397638752
20
87.287195673753899
30
0
0
SPLINE
5
267
100
AcDbEntity
8
0
100
AcDbSpline
70
4
71
3
72
8
73
4
74
0
42
0.000000001
43
0.0000000001
44
0.0000000001
40
0
40
0
40
0
40
0
40
1
40
1
40
1
40
1
41
1
41
1
41
1
41
1
10
87.284905397638752
20
87.287195673753899
30
0
10
87.284682921225283
20
87.718747878291552
30
0
10
87.282584564143804
20
87.756744995740007
30
0
10
87.25723573642864
20
87.791041546708925
30
0
0
SPLINE
5
268
100
AcDbEntity
8
0
100
AcDbSpline
70
4
71
3
72
8
73
4
74
0
42
0.000000001
43
0.0000000001
44
0.0000000001
40
0
40
0
40
0
40
0
40
1
40
1
40
1
40
1
41
1
41
1
41
1
41
1
10
87.25723573642864
20
87.791041546708925
30
0
10
87.18295389574439
20
87.891391049883637
30
0
10
87.038421756656149
20
87.855879305777563
30
0
10
87.019368000185409
20
87.732554899344919
30
0
0
SPLINE
5
269
100
AcDbEntity
8
0
100
AcDbSpline
70
4
71
3
72
8
73
4
74
0
42
0.000000001
43
0.0000000001
44
0.0000000001
40
0
40
0
40
0
40
0
40
1
40
1
40
1
40
1
41
1
41
1
41
1
41
1
10
87.019368000185409
20
87.732554899344919
30
0
10
87.004787367967054
20
87.638059728156165
30
0
10
87.013900473781945
20
86.739443574974757
30
0
10
87.029750232813427
20
86.709123368539537
30
0
0
SPLINE
5
270
100
AcDbEntity
8
0
100
AcDbSpline
70
4
71
3
72
8
73
4
74
0
42
0.000000001
43
0.0000000001
44
0.0000000001
40
0
40
0
40
0
40
0
40
1
40
1
40
1
40
1
41
1
41
1
41
1
41
1
10
87.029750232813427
20
86.709123368539537
30
0
10
87.052284396812894
20
86.665879726352131
30
0
10
87.489083126089497
20
86.236426194913577
30
0
10
87.53194017337286
20
86.215384266175974
30
0
0
LINE
5
271
100
AcDbEntity
8
0
100
AcDbLine
10
87.53194017337286
20
86.215384266175974
30
0
11
87.568556083087771
21
86.197324701177848
31
0
0
LINE
5
272
100
AcDbEntity
8
0
100
AcDbLine
10
87.568556083087771
20
86.197324701177848
30
0
11
87.888878297355035
21
86.197324701177877
31
0
0
LINE
5
273
100
AcDbEntity
8
0
100
AcDbLine
10
87.888878297355035
20
86.197324701177877
30
0
11
88.209202197049706
21
86.197324701177877
31
0
0
LINE
5
274
100
AcDbEntity
8
0
100
AcDbLine
10
88.209202197049706
20
86.197324701177877
30
0
11
88.241124191526126
21
86.214390180042543
31
0
0
SPLINE
5
275
100
AcDbEntity
8
0
100
AcDbSpline
70
4
71
3
72
8
73
4
74
0
42
0.000000001
43
0.0000000001
44
0.0000000001
40
0
40
0
40
0
40
0
40
1
40
1
40
1
40
1
41
1
41
1
41
1
41
1
10
88.241124191526126
20
86.214390180042543
30
0
10
88.258741963873632
20
86.22377895857241
30
0
10
88.321701103454799
20
86.277571164001884
30
0
10
88.381071968155254
20
86.333959032927581
30
0
0
LINE
5
276
100
AcDbEntity
8
0
100
AcDbLine
10
88.381071968155226
20
86.333959032927595
30
0
11
88.48904213120457
21
86.436462301608714
31
0
0
LINE
5
277
100
AcDbEntity
8
0
100
AcDbLine
10
88.48904213120457
20
86.436462301608714
30
0
11
88.492687710615996
21
85.661557044424811
31
0
0
SPLINE
5
278
100
AcDbEntity
8
0
100
AcDbSpline
70
4
71
3
72
8
73
4
74
0
42
0.000000001
43
0.0000000001
44
0.0000000001
40
0
40
0
40
0
40
0
40
1
40
1
40
1
40
1
41
1
41
1
41
1
41
1
10
88.492687710615996
20
85.661557044424811
30
0
10
88.496830491102969
20
84.795967314676716
30
0
10
88.492411300526541
20
84.86218578111766
30
0
10
88.548798958773816
20
84.819163087925148
30
0
0
SPLINE
5
279
100
AcDbEntity
8
0
100
AcDbSpline
70
4
71
3
72
8
73
4
74
0
42
0.000000001
43
0.0000000001
44
0.0000000001
40
0
40
0
40
0
40
0
40
1
40
1
40
1
40
1
41
1
41
1
41
1
41
1
10
88.548798958773816
20
84.819163087925148
30
0
10
88.584366532661676
20
84.792046115219918
30
0
10
88.654284801872876
20
84.786412837568079
30
0
10
88.687863571458593
20
84.807951809372412
30
0
0
SPLINE
5
280
100
AcDbEntity
8
0
100
AcDbSpline
70
4
71
3
72
8
73
4
74
0
42
0.000000001
43
0.0000000001
44
0.0000000001
40
0
40
0
40
0
40
0
40
1
40
1
40
1
40
1
41
1
41
1
41
1
41
1
10
106.52283462729278
20
85.018315582984286
30
0
10
106.48461671885825
20
85.036375147982412
30
0
10
106.10000830163068
20
85.42462861792535
30
0
10
106.06979870136692
20
85.475714553687126
30
0
0
LINE
5
281
100
AcDbEntity
8
0
100
AcDbLine
10
106.06979870136695
20
85.475714553687112
30
0
11
106.04803878056771
21
85.51249647799844
31
0
0
LINE
5
282
100
AcDbEntity
8
0
100
AcDbLine
10
106.04803878056771
20
85.51249647799844
30
0
11
106.04792838507466
21
86.280498119316434
31
0
0
SPLINE
5
283
100
AcDbEntity
8
0
100
AcDbSpline
70
4
71
3
72
8
73
4
74
0
42
0.000000001
43
0.0000000001
44
0.0000000001
40
0
40
0
40
0
40
0
40
1
40
1
40
1
40
1
41
1
41
1
41
1
41
1
10
106.04792838507467
20
86.280498119316434
30
0
10
106.04787297664973
20
87.048223771901817
30
0
10
106.04787297664973
20
87.048444773566317
30
0
10
106.0635025767304
20
87.079427774316628
30
0
0
SPLINE
5
284
100
AcDbEntity
8
0
100
AcDbSpline
70
4
71
3
72
8
73
4
74
0
42
0.000000001
43
0.0000000001
44
0.0000000001
40
0
40
0
40
0
40
0
40
1
40
1
40
1
40
1
41
1
41
1
41
1
41
1
10
106.0635025767304
20
87.079427774316628
30
0
10
106.08714027430344
20
87.126481957119765
30
0
10
106.48301514149546
20
87.521859833914689
30
0
10
106.52973813781948
20
87.545110936583654
30
0
0
LINE
5
285
100
AcDbEntity
8
0
100
AcDbLine
10
106.52973813781946
20
87.545110936583654
30
0
11
106.56624386271977
21
87.563336094821324
31
0
0
LINE
5
286
100
AcDbEntity
8
0
100
AcDbLine
10
106.56624386271977
20
87.563336094821324
30
0
11
107.07572296065703
21
87.563336094821324
31
0
0
LINE
5
287
100
AcDbEntity
8
0
100
AcDbLine
10
107.07572296065703
20
87.563336094821324
30
0
11
107.58525725634081
21
87.563336094821324
31
0
0
LINE
5
288
100
AcDbEntity
8
0
100
AcDbLine
10
107.58525725634081
20
87.563336094821324
30
0
11
107.58928890396028
21
87.539367210769171
31
0
0
SPLINE
5
289
100
AcDbEntity
8
0
100
AcDbSpline
70
4
71
3
72
8
73
4
74
0
42
0.000000001
43
0.0000000001
44
0.0000000001
40
0
40
0
40
0
40
0
40
1
40
1
40
1
40
1
41
1
41
1
41
1
41
1
10
107.58928890396028
20
87.539367210769171
30
0
10
107.59668940488407
20
87.495129377109123
30
0
10
107.59343094707276
20
85.027704361514154
30
0
10
107.5859199453167
20
85.013621193719359
30
0
0
SPLINE
5
290
100
AcDbEntity
8
0
100
AcDbSpline
70
4
71
3
72
8
73
4
74
0
42
0.000000001
43
0.0000000001
44
0.0000000001
40
0
40
0
40
0
40
0
40
1
40
1
40
1
40
1
41
1
41
1
41
1
41
1
10
107.5859199453167
20
85.013621193719359
30
0
10
107.57470869309877
20
84.992634515397882
30
0
10
106.56784544008254
20
84.997052757921395
30
0
10
106.52283462729278
20
85.018315582984286
30
0
0
SPLINE
5
291
100
AcDbEntity
8
0
100
AcDbSpline
70
4
71
3
72
8
73
4
74
0
42
0.000000001
43
0.0000000001
44
0.0000000001
40
0
40
0
40
0
40
0
40
1
40
1
40
1
40
1
41
1
41
1
41
1
41
1
10
104.20695523544894
20
85.016106461722529
30
0
10
104.16431940050853
20
85.03538106184898
30
0
10
103.91849897519788
20
85.277998016416419
30
0
10
103.89745725713868
20
85.321462502259507
30
0
0
SPLINE
5
292
100
AcDbEntity
8
0
100
AcDbSpline
70
4
71
3
72
8
73
4
74
0
42
0.000000001
43
0.0000000001
44
0.0000000001
40
0
40
0
40
0
40
0
40
1
40
1
40
1
40
1
41
1
41
1
41
1
41
1
10
103.89745725713868
20
85.321462502259507
30
0
10
103.87586314025747
20
85.366086825484416
30
0
10
103.87514514819584
20
85.784991846350508
30
0
10
103.89662886958403
20
85.827075598486516
30
0
0
SPLINE
5
293
100
AcDbEntity
8
0
100
AcDbSpline
70
4
71
3
72
8
73
4
74
0
42
0.000000001
43
0.0000000001
44
0.0000000001
40
0
40
0
40
0
40
0
40
1
40
1
40
1
40
1
41
1
41
1
41
1
41
1
10
103.89662886958403
20
85.827075598486516
30
0
10
103.91678700234203
20
85.866674187958552
30
0
10
104.17431567026775
20
86.131161458818255
30
0
10
104.20623724338732
20
86.145134178450391
30
0
0
SPLINE
5
294
100
AcDbEntity
8
0
100
AcDbSpline
70
4
71
3
72
8
73
4
74
0
42
0.000000001
43
0.0000000001
44
0.0000000001
40
0
40
0
40
0
40
0
40
1
40
1
40
1
40
1
41
1
41
1
41
1
41
1
10
104.20623724338732
20
86.145134178450391
30
0
10
104.22926734439179
20
86.155185645956124
30
0
10
104.29625929032369
20
86.156953027236909
30
0
10
104.72239895552599
20
86.15860980234622
30
0
0
SPLINE
5
295
100
AcDbEntity
8
0
100
AcDbSpline
70
4
71
3
72
8
73
4
74
0
42
0.000000001
43
0.0000000001
44
0.0000000001
40
0
40
0
40
0
40
0
40
1
40
1
40
1
40
1
41
1
41
1
41
1
41
1
10
104.72239895552599
20
86.15860980234622
30
0
10
105.24308941102042
20
86.160653277698813
30
0
10
105.2254716386729
20
86.159438295240079
30
0
10
105.26545671770978
20
86.195888822393854
30
0
0
LINE
5
296
100
AcDbEntity
8
0
100
AcDbLine
10
105.26545671770978
20
86.195888822393854
30
0
11
105.28202531151658
21
86.210966023652475
31
0
0
LINE
5
297
100
AcDbEntity
8
0
100
AcDbLine
10
105.28202531151658
20
86.210966023652475
30
0
11
105.28202531151658
21
85.610139711505497
31
0
0
SPLINE
5
298
100
AcDbEntity
8
0
100
AcDbSpline
70
4
71
3
72
8
73
4
74
0
42
0.000000001
43
0.0000000001
44
0.0000000001
40
0
40
0
40
0
40
0
40
1
40
1
40
1
40
1
41
1
41
1
41
1
41
1
10
105.28202531151658
20
85.610139711505468
30
0
10
105.28202531151658
20
85.136393201329966
30
0
10
105.28009233699623
20
85.008540209550347
30
0
10
105.27285742931201
20
85.005613096226995
30
0
0
SPLINE
5
299
100
AcDbEntity
8
0
100
AcDbSpline
70
4
71
3
72
8
73
4
74
0
42
0.000000001
43
0.0000000001
44
0.0000000001
40
0
40
0
40
0
40
0
40
1
40
1
40
1
40
1
41
1
41
1
41
1
41
1
10
105.27285742931201
20
85.005613096226995
30
0
10
105.23872647158265
20
84.991861325589753
30
0
10
104.23876683443233
20
85.001636699023663
30
0
10
104.20695523544894
20
85.016106461722529
30
0
0
SPLINE
5
300
100
AcDbEntity
8
0
100
AcDbSpline
70
4
71
3
72
8
73
4
74
0
42
0.000000001
43
0.0000000001
44
0.0000000001
40
0
40
0
40
0
40
0
40
1
40
1
40
1
40
1
41
1
41
1
41
1
41
1
10
94.213488341950566
20
85.636207373995958
30
0
10
94.015882094833671
20
86.214555878621312
30
0
10
93.880077098691515
20
86.627662028596021
30
0
10
93.885600244198343
20
86.633239950492523
30
0
0
SPLINE
5
301
100
AcDbEntity
8
0
100
AcDbSpline
70
4
71
3
72
8
73
4
74
0
42
0.000000001
43
0.0000000001
44
0.0000000001
40
0
40
0
40
0
40
0
40
1
40
1
40
1
40
1
41
1
41
1
41
1
41
1
10
93.885600244198343
20
86.633239950492523
30
0
10
93.891895315442767
20
86.639536075129058
30
0
10
94.711314711036948
20
86.641745038381984
30
0
10
94.717444610398644
20
86.635504322170391
30
0
0
SPLINE
5
302
100
AcDbEntity
8
0
100
AcDbSpline
70
4
71
3
72
8
73
4
74
0
42
0.000000001
43
0.0000000001
44
0.0000000001
40
0
40
0
40
0
40
0
40
1
40
1
40
1
40
1
41
1
41
1
41
1
41
1
10
94.717444610398644
20
86.635504322170391
30
0
10
94.71937779559741
20
86.633460952157023
30
0
10
94.643936380879396
20
86.399846181215381
30
0
10
94.549772396169743
20
86.116360351631442
30
0
0
SPLINE
5
303
100
AcDbEntity
8
0
100
AcDbSpline
70
4
71
3
72
8
73
4
74
0
42
0.000000001
43
0.0000000001
44
0.0000000001
40
0
40
0
40
0
40
0
40
1
40
1
40
1
40
1
41
1
41
1
41
1
41
1
10
94.549772396169743
20
86.116360351631442
30
0
10
94.45555363507043
20
85.832819324300999
30
0
10
94.36254922439457
20
85.550327686189718
30
0
10
94.343053885951647
20
85.488582686353595
30
0
0
SPLINE
5
304
100
AcDbEntity
8
0
100
AcDbSpline
70
4
71
3
72
8
73
4
74
0
42
0.000000001
43
0.0000000001
44
0.0000000001
40
0
40
0
40
0
40
0
40
1
40
1
40
1
40
1
41
1
41
1
41
1
41
1
10
94.343053885951647
20
85.488582686353595
30
0
10
94.323558547508739
20
85.426837686517487
30
0
10
94.305775603278491
20
85.378126517926631
30
0
10
94.303510388886934
20
85.380335639188374
30
0
0
SPLINE
5
305
100
AcDbEntity
8
0
100
AcDbSpline
70
4
71
3
72
8
73
4
74
0
42
0.000000001
43
0.0000000001
44
0.0000000001
40
0
40
0
40
0
40
0
40
1
40
1
40
1
40
1
41
1
41
1
41
1
41
1
10
94.303510388886934
20
85.380335639188374
30
0
10
94.301300793598728
20
85.382600010866256
30
0
10
94.260764579810328
20
85.49775056855816
30
0
10
94.213488341950566
20
85.636207373995958
30
0
0
ENDSEC
0
SECTION
2
OBJECTS
0
DICTIONARY
5
C
100
AcDbDictionary
3
ACAD_GROUP
350
D
3
ACAD_MLINESTYLE
350
17
0
DICTIONARY
5
D
100
AcDbDictionary
0
DICTIONARY
5
1A
330
C
100
AcDbDictionary
0
DICTIONARY
5
17
100
AcDbDictionary
0
ENDSEC
0
EOF
