0
SECTION
2
HEADER
9
$INSUNITS
70
4
9
$ACADVER
1
AC1014
9
$HANDSEED
5
FFFF
0
ENDSEC
0
SECTION
2
TABLES
0
TABLE
2
VPORT
5
8
100
AcDbSymbolTable
0
ENDTAB
0
TABLE
2
LTYPE
5
5
100
AcDbSymbolTable
0
LTYPE
5
14
100
AcDbSymbolTableRecord
100
AcDbLinetypeTableRecord
2
BYBLOCK
70
0
0
LTYPE
5
15
100
AcDbSymbolTableRecord
100
AcDbLinetypeTableRecord
2
BYLAYER
70
0
0
ENDTAB
0
TABLE
2
LAYER
5
2
100
AcDbSymbolTable
70
2
0
LAYER
5
50
100
AcDbSymbolTableRecord
100
AcDbLayerTableRecord
2
0
70
0
6
CONTINUOUS
0
ENDTAB
0
TABLE
2
STYLE
5
3
100
AcDbSymbolTable
70
1
0
STYLE
5
11
100
AcDbSymbolTableRecord
100
AcDbTextStyleTableRecord
2
STANDARD
70
0
0
ENDTAB
0
TABLE
2
VIEW
5
6
100
AcDbSymbolTable
70
0
0
ENDTAB
0
TABLE
2
UCS
5
7
100
AcDbSymbolTable
70
0
0
ENDTAB
0
TABLE
2
APPID
5
9
100
AcDbSymbolTable
70
2
0
APPID
5
12
100
AcDbSymbolTableRecord
100
AcDbRegAppTableRecord
2
ACAD
70
0
0
ENDTAB
0
TABLE
2
DIMSTYLE
5
A
100
AcDbSymbolTable
70
1
0
ENDTAB
0
TABLE
2
BLOCK_RECORD
5
1
100
AcDbSymbolTable
70
1
0
BLOCK_RECORD
5
1F
100
AcDbSymbolTableRecord
100
AcDbBlockTableRecord
2
*MODEL_SPACE
0
BLOCK_RECORD
5
1B
100
AcDbSymbolTableRecord
100
AcDbBlockTableRecord
2
*PAPER_SPACE
0
ENDTAB
0
ENDSEC
0
SECTION
2
BLOCKS
0
BLOCK
5
20
100
AcDbEntity
100
AcDbBlockBegin
2
*MODEL_SPACE
0
ENDBLK
5
21
100
AcDbEntity
100
AcDbBlockEnd
0
BLOCK
5
1C
100
AcDbEntity
100
AcDbBlockBegin
2
*PAPER_SPACE
0
ENDBLK
5
1D
100
AcDbEntity
100
AcDbBlockEnd
0
ENDSEC
0
SECTION
2
ENTITIES
0
SPLINE
5
100
100
AcDbEntity
8
0
100
AcDbSpline
70
4
71
3
72
8
73
4
74
0
42
0.000000001
43
0.0000000001
44
0.0000000001
40
0
40
0
40
0
40
0
40
1
40
1
40
1
40
1
41
1
41
1
41
1
41
1
10
3.5501792252063757
20
-1.1805708050727846
30
0
10
3.3953979651133226
20
-1.2358687510093056
30
0
10
3.2313563287258154
20
-1.3790083050727846
30
0
10
3.1453665435314182
20
-1.5345833837985996
30
0
0
SPLINE
5
101
100
AcDbEntity
8
0
100
AcDbSpline
70
4
71
3
72
8
73
4
74
0
42
0.000000001
43
0.0000000001
44
0.0000000001
40
0
40
0
40
0
40
0
40
1
40
1
40
1
40
1
41
1
41
1
41
1
41
1
10
3.1453665435314182
20
-1.5345833837985996
30
0
10
3.0913916707038886
20
-1.6322146226962408
30
0
10
3.0868937015533455
20
-2.1772562742233279
30
0
10
3.0868937015533455
20
-8.5547729651133224
30
0
0
SPLINE
5
102
100
AcDbEntity
8
0
100
AcDbSpline
70
4
71
3
72
8
73
4
74
0
42
0.000000001
43
0.0000000001
44
0.0000000001
40
0
40
0
40
0
40
0
40
1
40
1
40
1
40
1
41
1
41
1
41
1
41
1
10
3.0868937015533455
20
-8.5547729651133224
30
0
10
3.0868937015533455
20
-16.372152511278792
30
0
10
3.0562019884586338
20
-15.569935448964438
30
0
10
3.363383305072785
20
-15.81837898095449
30
0
0
LINE
5
103
100
AcDbEntity
8
0
100
AcDbLine
10
3.363383305072785
20
-15.81837898095449
30
0
11
3.4991146842638661
21
-15.927916868527731
31
0
0
LINE
5
104
100
AcDbEntity
8
0
100
AcDbLine
10
3.4991146842638661
20
-15.927916868527731
30
0
11
6.7114206274350501
21
-15.937177244822184
31
0
0
SPLINE
5
105
100
AcDbEntity
8
0
100
AcDbSpline
70
4
71
3
72
8
73
4
74
0
42
0.000000001
43
0.0000000001
44
0.0000000001
40
0
40
0
40
0
40
0
40
1
40
1
40
1
40
1
41
1
41
1
41
1
41
1
10
6.7114206274350501
20
-15.937177244822188
30
0
10
9.858110117912295
20
-15.94643762111664
30
0
10
9.9266379117965702
20
-15.945114421844483
30
0
10
10.068983268737794
20
-15.876323199272157
30
0
0
SPLINE
5
106
100
AcDbEntity
8
0
100
AcDbSpline
70
4
71
3
72
8
73
4
74
0
42
0.000000001
43
0.0000000001
44
0.0000000001
40
0
40
0
40
0
40
0
40
1
40
1
40
1
40
1
41
1
41
1
41
1
41
1
10
10.068983268737794
20
-15.876323199272157
30
0
10
10.269008406003318
20
-15.779485400517784
30
0
10
12.818003940582276
20
-13.22228724161784
30
0
10
12.892881274223329
20
-13.043429255485536
30
0
0
SPLINE
5
107
100
AcDbEntity
8
0
100
AcDbSpline
70
4
71
3
72
8
73
4
74
0
42
0.000000001
43
0.0000000001
44
0.0000000001
40
0
40
0
40
0
40
0
40
1
40
1
40
1
40
1
41
1
41
1
41
1
41
1
10
12.892881274223329
20
-13.043429255485536
30
0
10
12.975431346893311
20
-12.845785069465638
30
0
10
12.974902470906578
20
-4.1920582969983426
30
0
10
12.892352398236595
20
-3.9944146156311038
30
0
0
SPLINE
5
108
100
AcDbEntity
8
0
100
AcDbSpline
70
4
71
3
72
8
73
4
74
0
42
0.000000001
43
0.0000000001
44
0.0000000001
40
0
40
0
40
0
40
0
40
1
40
1
40
1
40
1
41
1
41
1
41
1
41
1
10
12.892352398236595
20
-3.9944146156311038
30
0
10
12.75106479326884
20
-3.6565415859222417
30
0
10
10.221383325258893
20
-1.2490979681412382
30
0
10
9.9192296107610076
20
-1.1652249485254289
30
0
0
SPLINE
5
109
100
AcDbEntity
8
0
100
AcDbSpline
70
4
71
3
72
8
73
4
74
0
42
0.000000001
43
0.0000000001
44
0.0000000001
40
0
40
0
40
0
40
0
40
1
40
1
40
1
40
1
41
1
41
1
41
1
41
1
10
9.9192296107610076
20
-1.1652249485254289
30
0
10
9.7028002341588344
20
-1.1051645954449973
30
0
10
3.721629162629446
20
-1.1194520692030592
30
0
10
3.5501792252063757
20
-1.1805708050727846
30
0
0
SPLINE
5
110
100
AcDbEntity
8
0
100
AcDbSpline
70
4
71
3
72
8
73
4
74
0
42
0.000000001
43
0.0000000001
44
0.0000000001
40
0
40
0
40
0
40
0
40
1
40
1
40
1
40
1
41
1
41
1
41
1
41
1
10
14.653683034578961
20
-1.1670770237843198
30
0
10
14.593357865015669
20
-1.1848042100667955
30
0
10
14.479852398236595
20
-1.2684125393629075
30
0
10
14.402064228057863
20
-1.3530791252851486
30
0
0
LINE
5
111
100
AcDbEntity
8
0
100
AcDbLine
10
14.402064228057863
20
-1.3530791252851486
30
0
11
14.259983309110007
21
-1.5068021287520728
31
0
0
LINE
5
112
100
AcDbEntity
8
0
100
AcDbLine
10
14.259983309110007
20
-1.5068021287520728
30
0
11
14.236170768737795
21
-2.0145374586184821
31
0
0
SPLINE
5
113
100
AcDbEntity
8
0
100
AcDbSpline
70
4
71
3
72
8
73
4
74
0
42
0.000000001
43
0.0000000001
44
0.0000000001
40
0
40
0
40
0
40
0
40
1
40
1
40
1
40
1
41
1
41
1
41
1
41
1
10
14.236170768737795
20
-2.0145374586184821
30
0
10
14.174523409207664
20
-3.328987441460292
30
0
10
14.231407856941225
20
-15.534481581052146
30
0
10
14.299671212832134
20
-15.647193733851116
30
0
0
SPLINE
5
114
100
AcDbEntity
8
0
100
AcDbSpline
70
4
71
3
72
8
73
4
74
0
42
0.000000001
43
0.0000000001
44
0.0000000001
40
0
40
0
40
0
40
0
40
1
40
1
40
1
40
1
41
1
41
1
41
1
41
1
10
14.299671212832134
20
-15.647193733851116
30
0
10
14.522979005177818
20
-16.016023166974385
30
0
10
15.125964244206749
20
-16.036660432815555
30
0
10
15.34451013406118
20
-15.683177487055461
30
0
0
SPLINE
5
115
100
AcDbEntity
8
0
100
AcDbSpline
70
4
71
3
72
8
73
4
74
0
42
0.000000001
43
0.0000000001
44
0.0000000001
40
0
40
0
40
0
40
0
40
1
40
1
40
1
40
1
41
1
41
1
41
1
41
1
10
15.34451013406118
20
-15.683177487055461
30
0
10
15.415418879191083
20
-15.568347811698915
30
0
10
15.416476631164553
20
-15.525485642751061
30
0
10
15.416476631164553
20
-12.270316521326702
30
0
0
LINE
5
116
100
AcDbEntity
8
0
100
AcDbLine
10
15.416476631164551
20
-12.270316521326702
30
0
11
15.416476631164553
21
-8.9738728682200133
31
0
0
LINE
5
117
100
AcDbEntity
8
0
100
AcDbLine
10
15.416476631164553
20
-8.9738728682200133
30
0
11
18.441457525889081
21
-12.004409988721214
31
0
0
SPLINE
5
118
100
AcDbEntity
8
0
100
AcDbSpline
70
4
71
3
72
8
73
4
74
0
42
0.000000001
43
0.0000000001
44
0.0000000001
40
0
40
0
40
0
40
0
40
1
40
1
40
1
40
1
41
1
41
1
41
1
41
1
10
18.441457525889081
20
-12.004409988721214
30
0
10
21.603494008382164
20
-15.172267134984336
30
0
10
22.169702180226647
20
-15.72021899223328
30
0
10
22.413118362426761
20
-15.847747747103377
30
0
0
SPLINE
5
119
100
AcDbEntity
8
0
100
AcDbSpline
70
4
71
3
72
8
73
4
74
0
42
0.000000001
43
0.0000000001
44
0.0000000001
40
0
40
0
40
0
40
0
40
1
40
1
40
1
40
1
41
1
41
1
41
1
41
1
10
22.413118362426761
20
-15.847747747103377
30
0
10
22.975357945760095
20
-16.14222872257233
30
0
10
23.529660352071133
20
-15.67867901325226
30
0
10
23.331751728057863
20
-15.078604610761008
30
0
0
SPLINE
5
120
100
AcDbEntity
8
0
100
AcDbSpline
70
4
71
3
72
8
73
4
74
0
42
0.000000001
43
0.0000000001
44
0.0000000001
40
0
40
0
40
0
40
0
40
1
40
1
40
1
40
1
41
1
41
1
41
1
41
1
10
23.331751728057863
20
-15.078604610761008
30
0
10
23.279629182815555
20
-14.920118443171187
30
0
10
23.02377634048462
20
-14.653418596585595
30
0
10
20.395406007766724
20
-12.020814228057864
30
0
0
LINE
5
121
100
AcDbEntity
8
0
100
AcDbLine
10
20.395406007766731
20
-12.020814228057862
30
0
11
17.516475629806521
21
-9.1368565003077205
31
0
0
LINE
5
122
100
AcDbEntity
8
0
100
AcDbLine
10
17.516475629806521
20
-9.1368565003077205
30
0
11
19.350302648544314
21
-9.1360621770222998
31
0
0
SPLINE
5
123
100
AcDbEntity
8
0
100
AcDbSpline
70
4
71
3
72
8
73
4
74
0
42
0.000000001
43
0.0000000001
44
0.0000000001
40
0
40
0
40
0
40
0
40
1
40
1
40
1
40
1
41
1
41
1
41
1
41
1
10
19.350302648544314
20
-9.1360621770222998
30
0
10
21.011092344919842
20
-9.1352688630421977
30
0
10
21.196564308802287
20
-9.1294481992721561
30
0
10
21.31483268737793
20
-9.0744148174921673
30
0
0
SPLINE
5
124
100
AcDbEntity
8
0
100
AcDbSpline
70
4
71
3
72
8
73
4
74
0
42
0.000000001
43
0.0000000001
44
0.0000000001
40
0
40
0
40
0
40
0
40
1
40
1
40
1
40
1
41
1
41
1
41
1
41
1
10
21.31483268737793
20
-9.0744148174921673
30
0
10
21.501364421844485
20
-8.987366271018983
30
0
10
23.229886579513554
20
-7.2091020147005729
30
0
10
23.31931708653768
20
-7.0122521519660967
30
0
0
SPLINE
5
125
100
AcDbEntity
8
0
100
AcDbSpline
70
4
71
3
72
8
73
4
74
0
42
0.000000001
43
0.0000000001
44
0.0000000001
40
0
40
0
40
0
40
0
40
1
40
1
40
1
40
1
41
1
41
1
41
1
41
1
10
23.31931708653768
20
-7.0122521519660967
30
0
10
23.408216698964441
20
-6.8164605458577485
30
0
10
23.42779520352682
20
-3.5123436490694688
30
0
10
23.341277551651004
20
-3.3054395914077759
30
0
0
SPLINE
5
126
100
AcDbEntity
8
0
100
AcDbSpline
70
4
71
3
72
8
73
4
74
0
42
0.000000001
43
0.0000000001
44
0.0000000001
40
0
40
0
40
0
40
0
40
1
40
1
40
1
40
1
41
1
41
1
41
1
41
1
10
23.341277551651004
20
-3.3054395914077759
30
0
10
23.216394186019901
20
-3.0061959564685825
30
0
10
21.562483914693196
20
-1.3713354398806894
30
0
10
21.226990826924641
20
-1.2152312328418098
30
0
0
LINE
5
127
100
AcDbEntity
8
0
100
AcDbLine
10
21.226990826924638
20
-1.2152312328418102
30
0
11
21.043105491002404
21
-1.1295062641302747
31
0
0
LINE
5
128
100
AcDbEntity
8
0
100
AcDbLine
10
21.043105491002404
20
-1.1295062641302747
30
0
11
17.903560368220013
21
-1.1324167221784593
31
0
0
SPLINE
5
129
100
AcDbEntity
8
0
100
AcDbSpline
70
4
71
3
72
8
73
4
74
0
42
0.000000001
43
0.0000000001
44
0.0000000001
40
0
40
0
40
0
40
0
40
1
40
1
40
1
40
1
41
1
41
1
41
1
41
1
10
17.903560368220013
20
-1.1324167221784593
30
0
10
16.146727196375533
20
-1.134004107117653
30
0
10
14.71533140341441
20
-1.1493499636650086
30
0
10
14.653683034578961
20
-1.1670770237843198
30
0
0
SPLINE
5
130
100
AcDbEntity
8
0
100
AcDbSpline
70
4
71
3
72
8
73
4
74
0
42
0.000000001
43
0.0000000001
44
0.0000000001
40
0
40
0
40
0
40
0
40
1
40
1
40
1
40
1
41
1
41
1
41
1
41
1
10
24.941476631164555
20
-1.2035895268122356
30
0
10
24.829558801651004
20
-1.2480395853519441
30
0
10
24.632972367604577
20
-1.4350999434789025
30
0
10
24.56788630485535
20
-1.5591896166404089
30
0
0
SPLINE
5
131
100
AcDbEntity
8
0
100
AcDbSpline
70
4
71
3
72
8
73
4
74
0
42
0.000000001
43
0.0000000001
44
0.0000000001
40
0
40
0
40
0
40
0
40
1
40
1
40
1
40
1
41
1
41
1
41
1
41
1
10
24.56788630485535
20
-1.5591896166404089
30
0
10
24.495125484466556
20
-1.6983604560295742
30
0
10
24.492743523915614
20
-15.358268984158837
30
0
10
24.565504344304404
20
-15.532099620501203
30
0
0
SPLINE
5
132
100
AcDbEntity
8
0
100
AcDbSpline
70
4
71
3
72
8
73
4
74
0
42
0.000000001
43
0.0000000001
44
0.0000000001
40
0
40
0
40
0
40
0
40
1
40
1
40
1
40
1
41
1
41
1
41
1
41
1
10
24.565504344304404
20
-15.532099620501203
30
0
10
24.727429215113325
20
-15.918920930226646
30
0
10
25.225109593073533
20
-16.06206061045329
30
0
10
25.538377777735395
20
-15.812029441197716
30
0
0
SPLINE
5
133
100
AcDbEntity
8
0
100
AcDbSpline
70
4
71
3
72
8
73
4
74
0
42
0.000000001
43
0.0000000001
44
0.0000000001
40
0
40
0
40
0
40
0
40
1
40
1
40
1
40
1
41
1
41
1
41
1
41
1
10
25.538377777735395
20
-15.812029441197716
30
0
10
25.811162726084397
20
-15.594276865323387
30
0
10
25.787880071004238
20
-16.190119250615439
30
0
10
25.787880071004238
20
-9.3895330588022894
30
0
0
LINE
5
134
100
AcDbEntity
8
0
100
AcDbLine
10
25.787880071004238
20
-9.3895330588022858
30
0
11
25.788144508997604
21
-3.3094084322452555
31
0
0
LINE
5
135
100
AcDbEntity
8
0
100
AcDbLine
10
25.788144508997604
20
-3.3094084322452555
30
0
11
28.629504505793257
21
-6.1502398053805045
31
0
0
SPLINE
5
136
100
AcDbEntity
8
0
100
AcDbSpline
70
4
71
3
72
8
73
4
74
0
42
0.000000001
43
0.0000000001
44
0.0000000001
40
0
40
0
40
0
40
0
40
1
40
1
40
1
40
1
41
1
41
1
41
1
41
1
10
28.62950450579326
20
-6.1502398053805045
30
0
10
31.69364442825318
20
-9.213585909207664
30
0
10
31.607389195760092
20
-9.1368565003077205
30
0
10
31.991565116246544
20
-9.1368565003077205
30
0
0
SPLINE
5
137
100
AcDbEntity
8
0
100
AcDbSpline
70
4
71
3
72
8
73
4
74
0
42
0.000000001
43
0.0000000001
44
0.0000000001
40
0
40
0
40
0
40
0
40
1
40
1
40
1
40
1
41
1
41
1
41
1
41
1
10
31.991565116246544
20
-9.1368565003077205
30
0
10
32.376267894109098
20
-9.1368565003077205
30
0
10
32.268847529093428
20
-9.2321066617965712
30
0
10
35.303618685404466
20
-6.1994520187377944
30
0
0
LINE
5
138
100
AcDbEntity
8
0
100
AcDbLine
10
35.303618685404466
20
-6.1994520187377953
30
0
11
38.134397125244142
21
-3.3710562964280455
31
0
0
LINE
5
139
100
AcDbEntity
8
0
100
AcDbLine
10
38.134397125244142
20
-3.3710562964280455
30
0
11
38.143654473622647
21
-9.4024975856145243
31
0
0
LINE
5
140
100
AcDbEntity
8
0
100
AcDbLine
10
38.143654473622647
20
-9.4024975856145243
30
0
11
38.152915859222418
21
-15.433939631779992
31
0
0
LINE
5
141
100
AcDbEntity
8
0
100
AcDbLine
10
38.152915859222418
20
-15.433939631779992
30
0
11
38.226736450195318
21
-15.575227236747743
31
0
0
SPLINE
5
142
100
AcDbEntity
8
0
100
AcDbSpline
70
4
71
3
72
8
73
4
74
0
42
0.000000001
43
0.0000000001
44
0.0000000001
40
0
40
0
40
0
40
0
40
1
40
1
40
1
40
1
41
1
41
1
41
1
41
1
10
38.226736450195318
20
-15.575227236747743
30
0
10
38.528361288706463
20
-16.153076736132306
30
0
10
39.308614857991543
20
-16.021049507459008
30
0
10
39.408100064595544
20
-15.375466537475589
30
0
0
SPLINE
5
143
100
AcDbEntity
8
0
100
AcDbSpline
70
4
71
3
72
8
73
4
74
0
42
0.000000001
43
0.0000000001
44
0.0000000001
40
0
40
0
40
0
40
0
40
1
40
1
40
1
40
1
41
1
41
1
41
1
41
1
10
39.408100064595544
20
-15.375466537475589
30
0
10
39.475570106506353
20
-14.937317005793256
30
0
10
39.433498223622642
20
-1.6597311874230705
30
0
10
39.364445590972906
20
-1.5345833837985996
30
0
0
SPLINE
5
144
100
AcDbEntity
8
0
100
AcDbSpline
70
4
71
3
72
8
73
4
74
0
42
0.000000001
43
0.0000000001
44
0.0000000001
40
0
40
0
40
0
40
0
40
1
40
1
40
1
40
1
41
1
41
1
41
1
41
1
10
39.364445590972906
20
-1.5345833837985996
30
0
10
39.17791385650635
20
-1.1977687368790311
30
0
10
38.838981056213385
20
-1.0784417231877645
30
0
10
38.502959092458092
20
-1.2311062177022301
30
0
0
SPLINE
5
145
100
AcDbEntity
8
0
100
AcDbSpline
70
4
71
3
72
8
73
4
74
0
42
0.000000001
43
0.0000000001
44
0.0000000001
40
0
40
0
40
0
40
0
40
1
40
1
40
1
40
1
41
1
41
1
41
1
41
1
10
38.502959092458092
20
-1.2311062177022301
30
0
10
38.280710061391197
20
-1.3319124788045886
30
0
10
37.561309528350833
20
-2.023533270756404
30
0
10
34.690049870808927
20
-4.896379303932191
30
0
0
SPLINE
5
146
100
AcDbEntity
8
0
100
AcDbSpline
70
4
71
3
72
8
73
4
74
0
42
0.000000001
43
0.0000000001
44
0.0000000001
40
0
40
0
40
0
40
0
40
1
40
1
40
1
40
1
41
1
41
1
41
1
41
1
10
34.690049870808927
20
-4.896379303932191
30
0
10
33.231666262944543
20
-6.3555562257766729
30
0
10
32.017758607864387
20
-7.5493565003077201
30
0
10
31.992358430226648
20
-7.5493565003077201
30
0
0
SPLINE
5
147
100
AcDbEntity
8
0
100
AcDbSpline
70
4
71
3
72
8
73
4
74
0
42
0.000000001
43
0.0000000001
44
0.0000000001
40
0
40
0
40
0
40
0
40
1
40
1
40
1
40
1
41
1
41
1
41
1
41
1
10
31.992358430226648
20
-7.5493565003077201
30
0
10
31.966693814595544
20
-7.5493565003077201
30
0
10
30.651714324951179
20
-6.2587189316749576
30
0
10
29.069771560033168
20
-4.6810081839561466
30
0
0
SPLINE
5
148
100
AcDbEntity
8
0
100
AcDbSpline
70
4
71
3
72
8
73
4
74
0
42
0.000000001
43
0.0000000001
44
0.0000000001
40
0
40
0
40
0
40
0
40
1
40
1
40
1
40
1
41
1
41
1
41
1
41
1
10
29.069771560033168
20
-4.6810081839561466
30
0
10
27.488091214497889
20
-3.1032979408899948
30
0
10
26.076539373397832
20
-1.7047103742758436
30
0
10
25.933399693171189
20
-1.5726832717657091
30
0
0
SPLINE
5
149
100
AcDbEntity
8
0
100
AcDbSpline
70
4
71
3
72
8
73
4
74
0
42
0.000000001
43
0.0000000001
44
0.0000000001
40
0
40
0
40
0
40
0
40
1
40
1
40
1
40
1
41
1
41
1
41
1
41
1
10
25.933399693171189
20
-1.5726832717657091
30
0
10
25.544990746180218
20
-1.2152312328418098
30
0
10
25.218496624628706
20
-1.0937874535719554
30
0
10
24.941476631164555
20
-1.2035895268122356
30
0
0
SPLINE
5
150
100
AcDbEntity
8
0
100
AcDbSpline
70
4
71
3
72
8
73
4
74
0
42
0.000000001
43
0.0000000001
44
0.0000000001
40
0
40
0
40
0
40
0
40
1
40
1
40
1
40
1
41
1
41
1
41
1
41
1
10
73.959770139058435
20
-1.4110229651133221
30
0
10
73.389593378702813
20
-1.4427729348341625
30
0
10
73.082675743103039
20
-1.8364729126294457
30
0
10
73.272118314107274
20
-2.2934083918730424
30
0
0
SPLINE
5
151
100
AcDbEntity
8
0
100
AcDbSpline
70
4
71
3
72
8
73
4
74
0
42
0.000000001
43
0.0000000001
44
0.0000000001
40
0
40
0
40
0
40
0
40
1
40
1
40
1
40
1
41
1
41
1
41
1
41
1
10
73.272118314107274
20
-2.2934083918730424
30
0
10
73.420817248026538
20
-2.6521833777427677
30
0
10
73.558397674560553
20
-2.6807583252588914
30
0
10
75.150136756896984
20
-2.6810230155785879
30
0
0
LINE
5
152
100
AcDbEntity
8
0
100
AcDbLine
10
75.150136756896998
20
-2.6810230155785879
30
0
11
76.481248982747417
21
-2.6810230155785879
31
0
0
LINE
5
153
100
AcDbEntity
8
0
100
AcDbLine
10
76.481248982747417
20
-2.6810230155785879
30
0
11
76.490510368347188
21
-9.1696649789810198
31
0
0
LINE
5
154
100
AcDbEntity
8
0
100
AcDbLine
10
76.490510368347188
20
-9.1696649789810198
30
0
11
76.499771753946945
21
-15.658041747411096
31
0
0
LINE
5
155
100
AcDbEntity
8
0
100
AcDbLine
10
76.499771753946945
20
-15.658041747411096
30
0
11
76.573588307698571
21
-15.757789373397827
31
0
0
SPLINE
5
156
100
AcDbEntity
8
0
100
AcDbSpline
70
4
71
3
72
8
73
4
74
0
42
0.000000001
43
0.0000000001
44
0.0000000001
40
0
40
0
40
0
40
0
40
1
40
1
40
1
40
1
41
1
41
1
41
1
41
1
10
76.573588307698571
20
-15.757789373397831
30
0
10
76.848232396443706
20
-16.128206443786624
30
0
10
77.395913759867355
20
-16.106510416666669
30
0
10
77.622926712036133
20
-15.71625040372213
30
0
0
SPLINE
5
157
100
AcDbEntity
8
0
100
AcDbSpline
70
4
71
3
72
8
73
4
74
0
42
0.000000001
43
0.0000000001
44
0.0000000001
40
0
40
0
40
0
40
0
40
1
40
1
40
1
40
1
41
1
41
1
41
1
41
1
10
77.622926712036133
20
-15.71625040372213
30
0
10
77.653617668151867
20
-15.663597973187766
30
0
10
77.668434270222988
20
-14.003867038091027
30
0
10
77.681668281555176
20
-9.1723103682200122
30
0
0
LINE
5
158
100
AcDbEntity
8
0
100
AcDbLine
10
77.68166828155519
20
-9.1723103682200122
30
0
11
77.699391682942718
21
-2.6987499495347347
31
0
0
LINE
5
159
100
AcDbEntity
8
0
100
AcDbLine
10
77.699391682942718
20
-2.6987499495347347
30
0
11
79.163336563110363
21
-2.6810230155785879
31
0
0
SPLINE
5
160
100
AcDbEntity
8
0
100
AcDbSpline
70
4
71
3
72
8
73
4
74
0
42
0.000000001
43
0.0000000001
44
0.0000000001
40
0
40
0
40
0
40
0
40
1
40
1
40
1
40
1
41
1
41
1
41
1
41
1
10
79.163336563110363
20
-2.6810230155785879
30
0
10
80.749778811136892
20
-2.6619728823502866
30
0
10
80.696326001485204
20
-2.6691167453924818
30
0
10
80.886567942301454
20
-2.4524229307969412
30
0
0
SPLINE
5
161
100
AcDbEntity
8
0
100
AcDbSpline
70
4
71
3
72
8
73
4
74
0
42
0.000000001
43
0.0000000001
44
0.0000000001
40
0
40
0
40
0
40
0
40
1
40
1
40
1
40
1
41
1
41
1
41
1
41
1
10
80.886567942301454
20
-2.4524229307969412
30
0
10
81.177603149414068
20
-2.1211646358172103
30
0
10
80.997688420613628
20
-1.5025687237580621
30
0
10
80.588112322489437
20
-1.4255750030279164
30
0
0
SPLINE
5
162
100
AcDbEntity
8
0
100
AcDbSpline
70
4
71
3
72
8
73
4
74
0
42
0.000000001
43
0.0000000001
44
0.0000000001
40
0
40
0
40
0
40
0
40
1
40
1
40
1
40
1
41
1
41
1
41
1
41
1
10
80.588112322489437
20
-1.4255750030279164
30
0
10
80.44974060058594
20
-1.3996458232402804
30
0
10
74.404276275634771
20
-1.3864166061083476
30
0
10
73.959770139058435
20
-1.4110229651133221
30
0
0
SPLINE
5
163
100
AcDbEntity
8
0
100
AcDbSpline
70
4
71
3
72
8
73
4
74
0
42
0.000000001
43
0.0000000001
44
0.0000000001
40
0
40
0
40
0
40
0
40
1
40
1
40
1
40
1
41
1
41
1
41
1
41
1
10
86.395186805725103
20
-1.4086416353782019
30
0
10
85.93190759023031
20
-1.4268979499737424
30
0
10
85.86945985158286
20
-1.4372167090574903
30
0
10
85.736376889546733
20
-1.5168561975161237
30
0
0
SPLINE
5
164
100
AcDbEntity
8
0
100
AcDbSpline
70
4
71
3
72
8
73
4
74
0
42
0.000000001
43
0.0000000001
44
0.0000000001
40
0
40
0
40
0
40
0
40
1
40
1
40
1
40
1
41
1
41
1
41
1
41
1
10
85.736376889546733
20
-1.5168561975161237
30
0
10
85.521007283528661
20
-1.6462375322977705
30
0
10
83.260672060648616
20
-3.8949311753114069
30
0
10
83.199814987182634
20
-4.0407167494297038
30
0
0
SPLINE
5
165
100
AcDbEntity
8
0
100
AcDbSpline
70
4
71
3
72
8
73
4
74
0
42
0.000000001
43
0.0000000001
44
0.0000000001
40
0
40
0
40
0
40
0
40
1
40
1
40
1
40
1
41
1
41
1
41
1
41
1
10
83.199814987182634
20
-4.0407167494297038
30
0
10
83.109857622782386
20
-4.2560876170794177
30
0
10
83.126523272196465
20
-13.257742118835452
30
0
10
83.217280006408714
20
-13.433424830436708
30
0
0
SPLINE
5
166
100
AcDbEntity
8
0
100
AcDbSpline
70
4
71
3
72
8
73
4
74
0
42
0.000000001
43
0.0000000001
44
0.0000000001
40
0
40
0
40
0
40
0
40
1
40
1
40
1
40
1
41
1
41
1
41
1
41
1
10
83.217280006408714
20
-13.433424830436708
30
0
10
83.313850339253747
20
-13.620749878883364
30
0
10
85.562017377217629
20
-15.845102357864382
30
0
10
85.760188420613616
20
-15.949877333641053
30
0
0
LINE
5
167
100
AcDbEntity
8
0
100
AcDbLine
10
85.760188420613616
20
-15.949877333641053
30
0
11
85.918940035502118
21
-16.033749596277875
31
0
0
LINE
5
168
100
AcDbEntity
8
0
100
AcDbLine
10
85.918940035502118
20
-16.033749596277875
30
0
11
87.823943265279141
21
-16.033749596277875
31
0
0
LINE
5
169
100
AcDbEntity
8
0
100
AcDbLine
10
87.823943265279141
20
-16.033749596277875
30
0
11
89.728938420613616
21
-16.033749596277875
31
0
0
LINE
5
170
100
AcDbEntity
8
0
100
AcDbLine
10
89.728938420613616
20
-16.033749596277875
30
0
11
89.870225016276052
21
-15.9485541343689
31
0
0
SPLINE
5
171
100
AcDbEntity
8
0
100
AcDbSpline
70
4
71
3
72
8
73
4
74
0
42
0.000000001
43
0.0000000001
44
0.0000000001
40
0
40
0
40
0
40
0
40
1
40
1
40
1
40
1
41
1
41
1
41
1
41
1
10
89.870225016276052
20
-15.9485541343689
30
0
10
90.067604764302587
20
-15.829226994514467
30
0
10
92.312598546346038
20
-13.59323318799337
30
0
10
92.395410029093426
20
-13.433424830436708
30
0
0
SPLINE
5
172
100
AcDbEntity
8
0
100
AcDbSpline
70
4
71
3
72
8
73
4
74
0
42
0.000000001
43
0.0000000001
44
0.0000000001
40
0
40
0
40
0
40
0
40
1
40
1
40
1
40
1
41
1
41
1
41
1
41
1
10
92.395410029093426
20
-13.433424830436708
30
0
10
92.614752260843929
20
-13.009827462832135
30
0
10
92.313389841715505
20
-12.511616190274559
30
0
10
91.837934366862001
20
-12.512146075566612
30
0
0
SPLINE
5
173
100
AcDbEntity
8
0
100
AcDbSpline
70
4
71
3
72
8
73
4
74
0
42
0.000000001
43
0.0000000001
44
0.0000000001
40
0
40
0
40
0
40
0
40
1
40
1
40
1
40
1
41
1
41
1
41
1
41
1
10
91.837934366862001
20
-12.512146075566612
30
0
10
91.542127164204913
20
-12.512410513559979
30
0
10
91.455084673563647
20
-12.57114804585775
30
0
10
90.805003229777043
20
-13.209587152798971
30
0
0
SPLINE
5
174
100
AcDbEntity
8
0
100
AcDbSpline
70
4
71
3
72
8
73
4
74
0
42
0.000000001
43
0.0000000001
44
0.0000000001
40
0
40
0
40
0
40
0
40
1
40
1
40
1
40
1
41
1
41
1
41
1
41
1
10
90.805003229777043
20
-13.209587152798971
30
0
10
90.104117393493667
20
-13.898033301035566
30
0
10
89.316455523173033
20
-14.60447132587433
30
0
10
89.146859931945812
20
-14.696546212832136
30
0
0
SPLINE
5
175
100
AcDbEntity
8
0
100
AcDbSpline
70
4
71
3
72
8
73
4
74
0
42
0.000000001
43
0.0000000001
44
0.0000000001
40
0
40
0
40
0
40
0
40
1
40
1
40
1
40
1
41
1
41
1
41
1
41
1
10
89.146859931945812
20
-14.696546212832136
30
0
10
89.03229166666668
20
-14.758987895647685
30
0
10
88.93624617258709
20
-14.763749798138939
30
0
10
87.806478246053075
20
-14.763749798138939
30
0
0
LINE
5
176
100
AcDbEntity
8
0
100
AcDbLine
10
87.806478246053075
20
-14.763749798138939
30
0
11
86.589393297831222
21
-14.763749798138939
31
0
0
LINE
5
177
100
AcDbEntity
8
0
100
AcDbLine
10
86.589393297831222
20
-14.763749798138939
30
0
11
86.424028714497908
21
-14.666647561391198
31
0
0
SPLINE
5
178
100
AcDbEntity
8
0
100
AcDbSpline
70
4
71
3
72
8
73
4
74
0
42
0.000000001
43
0.0000000001
44
0.0000000001
40
0
40
0
40
0
40
0
40
1
40
1
40
1
40
1
41
1
41
1
41
1
41
1
10
86.424028714497894
20
-14.666647561391198
30
0
10
86.035882186889665
20
-14.438312419255578
30
0
10
84.626714324951195
20
-13.070151623090108
30
0
10
84.490716489156085
20
-12.789165059725445
30
0
0
SPLINE
5
179
100
AcDbEntity
8
0
100
AcDbSpline
70
4
71
3
72
8
73
4
74
0
42
0.000000001
43
0.0000000001
44
0.0000000001
40
0
40
0
40
0
40
0
40
1
40
1
40
1
40
1
41
1
41
1
41
1
41
1
10
84.490716489156085
20
-12.789165059725445
30
0
10
84.37642275492351
20
-12.552891731262207
30
0
10
84.379596010843926
20
-4.8738894581794749
30
0
10
84.494156201680525
20
-4.6489935239156095
30
0
0
SPLINE
5
180
100
AcDbEntity
8
0
100
AcDbSpline
70
4
71
3
72
8
73
4
74
0
42
0.000000001
43
0.0000000001
44
0.0000000001
40
0
40
0
40
0
40
0
40
1
40
1
40
1
40
1
41
1
41
1
41
1
41
1
10
84.494156201680525
20
-4.6489935239156095
30
0
10
84.636242167154961
20
-4.3703874071439115
30
0
10
86.152041117350265
20
-2.9151790738105774
30
0
10
86.47324244181317
20
-2.7487562338511151
30
0
0
SPLINE
5
181
100
AcDbEntity
8
0
100
AcDbSpline
70
4
71
3
72
8
73
4
74
0
42
0.000000001
43
0.0000000001
44
0.0000000001
40
0
40
0
40
0
40
0
40
1
40
1
40
1
40
1
41
1
41
1
41
1
41
1
10
86.47324244181317
20
-2.7487562338511151
30
0
10
86.594948514302587
20
-2.6857854227224993
30
0
10
86.689403343200695
20
-2.6810230155785879
30
0
10
87.813882509867369
20
-2.6815521438916528
30
0
0
LINE
5
182
100
AcDbEntity
8
0
100
AcDbLine
10
87.813882509867369
20
-2.6815521438916528
30
0
11
89.023563194274914
21
-2.6820812722047176
31
0
0
LINE
5
183
100
AcDbEntity
8
0
100
AcDbLine
10
89.023563194274914
20
-2.6820812722047176
30
0
11
89.174636014302578
21
-2.7683354953924817
31
0
0
SPLINE
5
184
100
AcDbEntity
8
0
100
AcDbSpline
70
4
71
3
72
8
73
4
74
0
42
0.000000001
43
0.0000000001
44
0.0000000001
40
0
40
0
40
0
40
0
40
1
40
1
40
1
40
1
41
1
41
1
41
1
41
1
10
89.174636014302578
20
-2.7683354953924821
30
0
10
89.354550743103047
20
-2.8712583959102633
30
0
10
89.808318265279155
20
-3.2818917413552606
30
0
10
90.698105684916186
20
-4.1468146721522023
30
0
0
SPLINE
5
185
100
AcDbEntity
8
0
100
AcDbSpline
70
4
71
3
72
8
73
4
74
0
42
0.000000001
43
0.0000000001
44
0.0000000001
40
0
40
0
40
0
40
0
40
1
40
1
40
1
40
1
41
1
41
1
41
1
41
1
10
90.698105684916186
20
-4.1468146721522023
30
0
10
91.387348175048842
20
-4.817004001140595
30
0
10
91.560117022196465
20
-4.9389770348866788
30
0
10
91.819145139058449
20
-4.9389770348866788
30
0
0
SPLINE
5
186
100
AcDbEntity
8
0
100
AcDbSpline
70
4
71
3
72
8
73
4
74
0
42
0.000000001
43
0.0000000001
44
0.0000000001
40
0
40
0
40
0
40
0
40
1
40
1
40
1
40
1
41
1
41
1
41
1
41
1
10
91.819145139058449
20
-4.9389770348866788
30
0
10
92.300688743591323
20
-4.9389770348866788
30
0
10
92.607872835795106
20
-4.4608751614888513
30
0
10
92.40308074951173
20
-4.0296040455500295
30
0
0
SPLINE
5
187
100
AcDbEntity
8
0
100
AcDbSpline
70
4
71
3
72
8
73
4
74
0
42
0.000000001
43
0.0000000001
44
0.0000000001
40
0
40
0
40
0
40
0
40
1
40
1
40
1
40
1
41
1
41
1
41
1
41
1
10
92.40308074951173
20
-4.0296040455500295
30
0
10
92.307834625244155
20
-3.8287853419780737
30
0
10
90.069461886088064
20
-1.6261291424433395
30
0
10
89.843240229288753
20
-1.5110354075829191
30
0
0
LINE
5
188
100
AcDbEntity
8
0
100
AcDbLine
10
89.843240229288767
20
-1.5110354075829189
30
0
11
89.658561579386401
21
-1.4165791908899947
31
0
0
LINE
5
189
100
AcDbEntity
8
0
100
AcDbLine
10
89.658561579386401
20
-1.4165791908899947
30
0
11
88.282725016276061
21
-1.4025562812884649
31
0
0
SPLINE
5
190
100
AcDbEntity
8
0
100
AcDbSpline
70
4
71
3
72
8
73
4
74
0
42
0.000000001
43
0.0000000001
44
0.0000000001
40
0
40
0
40
0
40
0
40
1
40
1
40
1
40
1
41
1
41
1
41
1
41
1
10
88.282725016276061
20
-1.4025562812884651
30
0
10
87.526020558675143
20
-1.3948832899332047
30
0
10
86.67644386291505
20
-1.3975291838248574
30
0
10
86.395186805725103
20
-1.4086416353782019
30
0
0
SPLINE
5
191
100
AcDbEntity
8
0
100
AcDbSpline
70
4
71
3
72
8
73
4
74
0
42
0.000000001
43
0.0000000001
44
0.0000000001
40
0
40
0
40
0
40
0
40
1
40
1
40
1
40
1
41
1
41
1
41
1
41
1
10
51.593750000000007
20
-1.4771687984466555
30
0
10
51.296622625986743
20
-1.6615833888451261
30
0
10
51.195817248026536
20
-1.9457458575566613
30
0
10
51.291067409515385
20
-2.3283333837985993
30
0
0
SPLINE
5
192
100
AcDbEntity
8
0
100
AcDbSpline
70
4
71
3
72
8
73
4
74
0
42
0.000000001
43
0.0000000001
44
0.0000000001
40
0
40
0
40
0
40
0
40
1
40
1
40
1
40
1
41
1
41
1
41
1
41
1
10
51.291067409515385
20
-2.3283333837985993
30
0
10
51.348480733235682
20
-2.5587852915128071
30
0
10
52.098576259613047
20
-5.4035855054855357
30
0
10
52.421101792653403
20
-6.6145833333333348
30
0
0
SPLINE
5
193
100
AcDbEntity
8
0
100
AcDbSpline
70
4
71
3
72
8
73
4
74
0
42
0.000000001
43
0.0000000001
44
0.0000000001
40
0
40
0
40
0
40
0
40
1
40
1
40
1
40
1
41
1
41
1
41
1
41
1
10
52.421101792653403
20
-6.6145833333333348
30
0
10
52.519262790679939
20
-6.9831478238105777
30
0
10
52.686742877960214
20
-7.618147722880046
30
0
10
52.793636385599783
20
-8.0256062984466574
30
0
0
SPLINE
5
194
100
AcDbEntity
8
0
100
AcDbSpline
70
4
71
3
72
8
73
4
74
0
42
0.000000001
43
0.0000000001
44
0.0000000001
40
0
40
0
40
0
40
0
40
1
40
1
40
1
40
1
41
1
41
1
41
1
41
1
10
52.793636385599783
20
-8.0256062984466574
30
0
10
52.900263436635342
20
-8.433064369360606
30
0
10
53.099229812622077
20
-9.1871269702911391
30
0
10
53.23575248718263
20
-9.701477034886679
30
0
0
SPLINE
5
195
100
AcDbEntity
8
0
100
AcDbSpline
70
4
71
3
72
8
73
4
74
0
42
0.000000001
43
0.0000000001
44
0.0000000001
40
0
40
0
40
0
40
0
40
1
40
1
40
1
40
1
41
1
41
1
41
1
41
1
10
53.23575248718263
20
-9.701477034886679
30
0
10
53.710945542653405
20
-11.492706322669985
30
0
10
53.877367877960218
20
-12.122414938608808
30
0
10
54.061255232493089
20
-12.823560166358948
30
0
0
SPLINE
5
196
100
AcDbEntity
8
0
100
AcDbSpline
70
4
71
3
72
8
73
4
74
0
42
0.000000001
43
0.0000000001
44
0.0000000001
40
0
40
0
40
0
40
0
40
1
40
1
40
1
40
1
41
1
41
1
41
1
41
1
10
54.061255232493089
20
-12.823560166358948
30
0
10
54.937287839253756
20
-16.164454634984338
30
0
10
54.872995090484629
20
-16.016023166974385
30
0
10
55.446611563364669
20
-16.016023166974385
30
0
0
SPLINE
5
197
100
AcDbEntity
8
0
100
AcDbSpline
70
4
71
3
72
8
73
4
74
0
42
0.000000001
43
0.0000000001
44
0.0000000001
40
0
40
0
40
0
40
0
40
1
40
1
40
1
40
1
41
1
41
1
41
1
41
1
10
55.446611563364669
20
-16.016023166974385
30
0
10
55.863329505920419
20
-16.016023166974385
30
0
10
56.008588727315278
20
-15.826581605275473
30
0
10
56.358894379933687
20
-14.823810529708865
30
0
0
SPLINE
5
198
100
AcDbEntity
8
0
100
AcDbSpline
70
4
71
3
72
8
73
4
74
0
42
0.000000001
43
0.0000000001
44
0.0000000001
40
0
40
0
40
0
40
0
40
1
40
1
40
1
40
1
41
1
41
1
41
1
41
1
10
56.358894379933687
20
-14.823810529708865
30
0
10
56.499123223622647
20
-14.422172617912295
30
0
10
56.751538372039803
20
-13.704623150825503
30
0
10
56.919547335306817
20
-13.22916666666667
30
0
0
SPLINE
5
199
100
AcDbEntity
8
0
100
AcDbSpline
70
4
71
3
72
8
73
4
74
0
42
0.000000001
43
0.0000000001
44
0.0000000001
40
0
40
0
40
0
40
0
40
1
40
1
40
1
40
1
41
1
41
1
41
1
41
1
10
56.919547335306817
20
-13.22916666666667
30
0
10
57.087560335795089
20
-12.753710182507835
30
0
10
57.34261582692465
20
-12.025312701861067
30
0
10
57.486284383138027
20
-11.610445825258893
30
0
0
SPLINE
5
200
100
AcDbEntity
8
0
100
AcDbSpline
70
4
71
3
72
8
73
4
74
0
42
0.000000001
43
0.0000000001
44
0.0000000001
40
0
40
0
40
0
40
0
40
1
40
1
40
1
40
1
41
1
41
1
41
1
41
1
10
57.486284383138027
20
-11.610445825258893
30
0
10
57.629952939351412
20
-11.195578948656719
30
0
10
57.755894056955981
20
-10.847652228673301
30
0
10
57.766213194529222
20
-10.837333091100058
30
0
0
SPLINE
5
201
100
AcDbEntity
8
0
100
AcDbSpline
70
4
71
3
72
8
73
4
74
0
42
0.000000001
43
0.0000000001
44
0.0000000001
40
0
40
0
40
0
40
0
40
1
40
1
40
1
40
1
41
1
41
1
41
1
41
1
10
57.766213194529222
20
-10.837333091100058
30
0
10
57.801934528350841
20
-10.80135034720103
30
0
10
57.82812801996868
20
-10.864320906003318
30
0
10
58.109643459320075
20
-11.66547920703888
30
0
0
SPLINE
5
202
100
AcDbEntity
8
0
100
AcDbSpline
70
4
71
3
72
8
73
4
74
0
42
0.000000001
43
0.0000000001
44
0.0000000001
40
0
40
0
40
0
40
0
40
1
40
1
40
1
40
1
41
1
41
1
41
1
41
1
10
58.109643459320075
20
-11.66547920703888
30
0
10
58.265217781066909
20
-12.108391650517783
30
0
10
58.526627858479827
20
-12.851606742540998
30
0
10
58.690668233235684
20
-13.317272965113325
30
0
0
SPLINE
5
203
100
AcDbEntity
8
0
100
AcDbSpline
70
4
71
3
72
8
73
4
74
0
42
0.000000001
43
0.0000000001
44
0.0000000001
40
0
40
0
40
0
40
0
40
1
40
1
40
1
40
1
41
1
41
1
41
1
41
1
10
58.690668233235684
20
-13.317272965113325
30
0
10
58.854446188608811
20
-13.782939187685649
30
0
10
59.081988016764335
20
-14.435667030016583
30
0
10
59.195756912231452
20
-14.767718386650088
30
0
0
SPLINE
5
204
100
AcDbEntity
8
0
100
AcDbSpline
70
4
71
3
72
8
73
4
74
0
42
0.000000001
43
0.0000000001
44
0.0000000001
40
0
40
0
40
0
40
0
40
1
40
1
40
1
40
1
41
1
41
1
41
1
41
1
10
59.195756912231452
20
-14.767718386650088
30
0
10
59.556119283040374
20
-15.818643418947858
30
0
10
59.683122189839686
20
-15.987976590792341
30
0
10
60.127620251973475
20
-16.010202503204347
30
0
0
SPLINE
5
205
100
AcDbEntity
8
0
100
AcDbSpline
70
4
71
3
72
8
73
4
74
0
42
0.000000001
43
0.0000000001
44
0.0000000001
40
0
40
0
40
0
40
0
40
1
40
1
40
1
40
1
41
1
41
1
41
1
41
1
10
60.127620251973475
20
-16.010202503204347
30
0
10
60.585877164204916
20
-16.03348515828451
30
0
10
60.717906411488862
20
-15.85595037142436
30
0
10
60.976139195760098
20
-14.869583535194399
30
0
0
SPLINE
5
206
100
AcDbEntity
8
0
100
AcDbSpline
70
4
71
3
72
8
73
4
74
0
42
0.000000001
43
0.0000000001
44
0.0000000001
40
0
40
0
40
0
40
0
40
1
40
1
40
1
40
1
41
1
41
1
41
1
41
1
10
60.976139195760098
20
-14.869583535194399
30
0
10
61.248130830128993
20
-13.829770954449973
30
0
10
61.589974466959639
20
-12.535958615938824
30
0
10
61.716973336537684
20
-12.064999596277875
30
0
0
SPLINE
5
207
100
AcDbEntity
8
0
100
AcDbSpline
70
4
71
3
72
8
73
4
74
0
42
0.000000001
43
0.0000000001
44
0.0000000001
40
0
40
0
40
0
40
0
40
1
40
1
40
1
40
1
41
1
41
1
41
1
41
1
10
61.716973336537684
20
-12.064999596277875
30
0
10
61.782323837280288
20
-11.822376728057865
30
0
10
61.90244731903077
20
-11.36993947029114
30
0
10
61.98393863042196
20
-11.059583131472269
30
0
0
SPLINE
5
208
100
AcDbEntity
8
0
100
AcDbSpline
70
4
71
3
72
8
73
4
74
0
42
0.000000001
43
0.0000000001
44
0.0000000001
40
0
40
0
40
0
40
0
40
1
40
1
40
1
40
1
41
1
41
1
41
1
41
1
10
61.98393863042196
20
-11.059583131472269
30
0
10
62.358322270711277
20
-9.6310981750488303
30
0
10
62.519189389546725
20
-9.0204391876856498
30
0
10
62.741176001230883
20
-8.1843563993771884
30
0
0
SPLINE
5
209
100
AcDbEntity
8
0
100
AcDbSpline
70
4
71
3
72
8
73
4
74
0
42
0.000000001
43
0.0000000001
44
0.0000000001
40
0
40
0
40
0
40
0
40
1
40
1
40
1
40
1
41
1
41
1
41
1
41
1
10
62.741176001230883
20
-8.1843563993771884
30
0
10
63.16900437672934
20
-6.5733082969983423
30
0
10
63.511905765533456
20
-5.2728814760843923
30
0
10
63.936032009124766
20
-3.6512500504652663
30
0
0
SPLINE
5
210
100
AcDbEntity
8
0
100
AcDbSpline
70
4
71
3
72
8
73
4
74
0
42
0.000000001
43
0.0000000001
44
0.0000000001
40
0
40
0
40
0
40
0
40
1
40
1
40
1
40
1
41
1
41
1
41
1
41
1
10
63.936032009124766
20
-3.6512500504652663
30
0
10
64.042396640777596
20
-3.2437917272249859
30
0
10
64.170453262329104
20
-2.7696584423383079
30
0
10
64.220462322235107
20
-2.5976791242758432
30
0
0
SPLINE
5
211
100
AcDbEntity
8
0
100
AcDbSpline
70
4
71
3
72
8
73
4
74
0
42
0.000000001
43
0.0000000001
44
0.0000000001
40
0
40
0
40
0
40
0
40
1
40
1
40
1
40
1
41
1
41
1
41
1
41
1
10
64.220462322235107
20
-2.5976791242758432
30
0
10
64.362540213267025
20
-2.1092583656311037
30
0
10
64.339524014790868
20
-1.8213916202386224
30
0
10
64.141615390777588
20
-1.6097250292698546
30
0
0
SPLINE
5
212
100
AcDbEntity
8
0
100
AcDbSpline
70
4
71
3
72
8
73
4
74
0
42
0.000000001
43
0.0000000001
44
0.0000000001
40
0
40
0
40
0
40
0
40
1
40
1
40
1
40
1
41
1
41
1
41
1
41
1
10
64.141615390777588
20
-1.6097250292698546
30
0
10
63.888408946990978
20
-1.338791651527087
30
0
10
63.464811579386406
20
-1.3393207798401516
30
0
10
63.212925306955981
20
-1.6107832858959836
30
0
0
SPLINE
5
213
100
AcDbEntity
8
0
100
AcDbSpline
70
4
71
3
72
8
73
4
74
0
42
0.000000001
43
0.0000000001
44
0.0000000001
40
0
40
0
40
0
40
0
40
1
40
1
40
1
40
1
41
1
41
1
41
1
41
1
10
63.212925306955981
20
-1.6107832858959836
30
0
10
63.033805910746267
20
-1.8036645601193113
30
0
10
63.103125000000013
20
-1.5724187076091769
30
0
10
62.210951582590752
20
-4.9564395308494573
30
0
0
SPLINE
5
214
100
AcDbEntity
8
0
100
AcDbSpline
70
4
71
3
72
8
73
4
74
0
42
0.000000001
43
0.0000000001
44
0.0000000001
40
0
40
0
40
0
40
0
40
1
40
1
40
1
40
1
41
1
41
1
41
1
41
1
10
62.210951582590752
20
-4.9564395308494573
30
0
10
61.975734996795666
20
-5.8486144622166956
30
0
10
61.600822480519625
20
-7.268368927637737
30
0
10
61.376982784271249
20
-8.1139770348866787
30
0
0
SPLINE
5
215
100
AcDbEntity
8
0
100
AcDbSpline
70
4
71
3
72
8
73
4
74
0
42
0.000000001
43
0.0000000001
44
0.0000000001
40
0
40
0
40
0
40
0
40
1
40
1
40
1
40
1
41
1
41
1
41
1
41
1
10
61.376982784271249
20
-8.1139770348866787
30
0
10
61.281999079386402
20
-8.4727517684300757
30
0
10
61.102080313364681
20
-9.1553772528966277
30
0
10
60.977463404337577
20
-9.6308337370554611
30
0
0
SPLINE
5
216
100
AcDbEntity
8
0
100
AcDbSpline
70
4
71
3
72
8
73
4
74
0
42
0.000000001
43
0.0000000001
44
0.0000000001
40
0
40
0
40
0
40
0
40
1
40
1
40
1
40
1
41
1
41
1
41
1
41
1
10
60.977463404337577
20
-9.6308337370554611
30
0
10
60.852580038706478
20
-10.10628921190898
30
0
10
60.661550839742034
20
-10.828601590792339
30
0
10
60.552541828155526
20
-11.23606016635895
30
0
0
SPLINE
5
217
100
AcDbEntity
8
0
100
AcDbSpline
70
4
71
3
72
8
73
4
74
0
42
0.000000001
43
0.0000000001
44
0.0000000001
40
0
40
0
40
0
40
0
40
1
40
1
40
1
40
1
41
1
41
1
41
1
41
1
10
60.552541828155526
20
-11.23606016635895
30
0
10
60.443532816569025
20
-11.643518741925558
30
0
10
60.287429618835453
20
-12.237243604660035
30
0
10
60.205142974853523
20
-12.555802567799887
30
0
0
LINE
5
218
100
AcDbEntity
8
0
100
AcDbLine
10
60.205142974853516
20
-12.555802567799887
30
0
11
60.055919202168788
21
-13.134975266456605
31
0
0
LINE
5
219
100
AcDbEntity
8
0
100
AcDbLine
10
60.055919202168788
20
-13.134975266456605
30
0
11
59.833932590484629
21
-12.502885699272158
31
0
0
SPLINE
5
220
100
AcDbEntity
8
0
100
AcDbSpline
70
4
71
3
72
8
73
4
74
0
42
0.000000001
43
0.0000000001
44
0.0000000001
40
0
40
0
40
0
40
0
40
1
40
1
40
1
40
1
41
1
41
1
41
1
41
1
10
59.833932590484629
20
-12.502885699272158
30
0
10
59.711697642008474
20
-12.155223417282105
30
0
10
59.486271317799897
20
-11.513872464497885
30
0
10
59.33281250000001
20
-11.077310570081076
30
0
0
SPLINE
5
221
100
AcDbEntity
8
0
100
AcDbSpline
70
4
71
3
72
8
73
4
74
0
42
0.000000001
43
0.0000000001
44
0.0000000001
40
0
40
0
40
0
40
0
40
1
40
1
40
1
40
1
41
1
41
1
41
1
41
1
10
59.33281250000001
20
-11.077310570081076
30
0
10
58.240610917409271
20
-7.9679270227750152
30
0
10
58.323426437377933
20
-8.1155646721522032
30
0
10
57.696098772684735
20
-8.1555165092150386
30
0
0
SPLINE
5
222
100
AcDbEntity
8
0
100
AcDbSpline
70
4
71
3
72
8
73
4
74
0
42
0.000000001
43
0.0000000001
44
0.0000000001
40
0
40
0
40
0
40
0
40
1
40
1
40
1
40
1
41
1
41
1
41
1
41
1
10
57.696098772684735
20
-8.1555165092150386
30
0
10
57.319070752461762
20
-8.1795939922332774
30
0
10
57.215616957346604
20
-8.3092397650082912
30
0
10
56.928013388315847
20
-9.1193934996922827
30
0
0
SPLINE
5
223
100
AcDbEntity
8
0
100
AcDbSpline
70
4
71
3
72
8
73
4
74
0
42
0.000000001
43
0.0000000001
44
0.0000000001
40
0
40
0
40
0
40
0
40
1
40
1
40
1
40
1
41
1
41
1
41
1
41
1
10
56.928013388315847
20
-9.1193934996922827
30
0
10
56.596226469675706
20
-10.054166666666669
30
0
10
56.191414292653405
20
-11.202193935712179
30
0
10
55.933181508382162
20
-11.941439429918928
30
0
0
SPLINE
5
224
100
AcDbEntity
8
0
100
AcDbSpline
70
4
71
3
72
8
73
4
74
0
42
0.000000001
43
0.0000000001
44
0.0000000001
40
0
40
0
40
0
40
0
40
1
40
1
40
1
40
1
41
1
41
1
41
1
41
1
10
55.933181508382162
20
-11.941439429918928
30
0
10
55.617531363169363
20
-12.845256193478905
30
0
10
55.543714809417736
20
-13.048192167282107
30
0
10
55.522018782297778
20
-13.069887185096743
30
0
0
SPLINE
5
225
100
AcDbEntity
8
0
100
AcDbSpline
70
4
71
3
72
8
73
4
74
0
42
0.000000001
43
0.0000000001
44
0.0000000001
40
0
40
0
40
0
40
0
40
1
40
1
40
1
40
1
41
1
41
1
41
1
41
1
10
55.522018782297778
20
-13.069887185096743
30
0
10
55.512757396698007
20
-13.079147561391196
30
0
10
55.446611563364669
20
-12.860601671536765
30
0
10
55.375176970163984
20
-12.584641448656718
30
0
0
SPLINE
5
226
100
AcDbEntity
8
0
100
AcDbSpline
70
4
71
3
72
8
73
4
74
0
42
0.000000001
43
0.0000000001
44
0.0000000001
40
0
40
0
40
0
40
0
40
1
40
1
40
1
40
1
41
1
41
1
41
1
41
1
10
55.375176970163984
20
-12.584641448656718
30
0
10
55.303738339742033
20
-12.308416787783308
30
0
10
55.150279521942153
20
-11.725539938608806
30
0
10
55.033862209320077
20
-11.288977034886681
30
0
0
SPLINE
5
227
100
AcDbEntity
8
0
100
AcDbSpline
70
4
71
3
72
8
73
4
74
0
42
0.000000001
43
0.0000000001
44
0.0000000001
40
0
40
0
40
0
40
0
40
1
40
1
40
1
40
1
41
1
41
1
41
1
41
1
10
55.033862209320077
20
-11.288977034886681
30
0
10
54.91771135330201
20
-10.852414131164551
30
0
10
54.712127971649174
20
-10.074539494514468
30
0
10
54.576925468444834
20
-9.5601894299189265
30
0
0
SPLINE
5
228
100
AcDbEntity
8
0
100
AcDbSpline
70
4
71
3
72
8
73
4
74
0
42
0.000000001
43
0.0000000001
44
0.0000000001
40
0
40
0
40
0
40
0
40
1
40
1
40
1
40
1
41
1
41
1
41
1
41
1
10
54.576925468444834
20
-9.5601894299189265
30
0
10
54.068925952911385
20
-7.6263498425483709
30
0
10
54.010454877217612
20
-7.4046291828155528
30
0
10
53.780268669128418
20
-6.5439395308494577
30
0
0
SPLINE
5
229
100
AcDbEntity
8
0
100
AcDbSpline
70
4
71
3
72
8
73
4
74
0
42
0.000000001
43
0.0000000001
44
0.0000000001
40
0
40
0
40
0
40
0
40
1
40
1
40
1
40
1
41
1
41
1
41
1
41
1
10
53.780268669128418
20
-6.5439395308494577
30
0
10
53.650354925791433
20
-6.0589582324028024
30
0
10
53.468324693044032
20
-5.3683960755666105
30
0
10
53.375452454884851
20
-5.0093563993771886
30
0
0
SPLINE
5
230
100
AcDbEntity
8
0
100
AcDbSpline
70
4
71
3
72
8
73
4
74
0
42
0.000000001
43
0.0000000001
44
0.0000000001
40
0
40
0
40
0
40
0
40
1
40
1
40
1
40
1
41
1
41
1
41
1
41
1
10
53.375452454884851
20
-5.0093563993771886
30
0
10
52.536723772684738
20
-1.7700625151395799
30
0
10
52.511854489644378
20
-1.6951854338248573
30
0
10
52.211553859710698
20
-1.4903978894154233
30
0
0
SPLINE
5
231
100
AcDbEntity
8
0
100
AcDbSpline
70
4
71
3
72
8
73
4
74
0
42
0.000000001
43
0.0000000001
44
0.0000000001
40
0
40
0
40
0
40
0
40
1
40
1
40
1
40
1
41
1
41
1
41
1
41
1
10
52.211553859710698
20
-1.4903978894154233
30
0
10
52.059944089253747
20
-1.3874749888976416
30
0
10
51.749061902364105
20
-1.380595816175143
30
0
10
51.593750000000007
20
-1.4771687984466555
30
0
0
SPLINE
5
232
100
AcDbEntity
8
0
100
AcDbSpline
70
4
71
3
72
8
73
4
74
0
42
0.000000001
43
0.0000000001
44
0.0000000001
40
0
40
0
40
0
40
0
40
1
40
1
40
1
40
1
41
1
41
1
41
1
41
1
10
67.751056734720876
20
-1.4520333111286166
30
0
10
67.626972738901785
20
-1.5202957838773727
30
0
10
67.44679155349732
20
-1.7070917040109637
30
0
10
67.382232348124205
20
-1.8343562732140226
30
0
0
SPLINE
5
233
100
AcDbEntity
8
0
100
AcDbSpline
70
4
71
3
72
8
73
4
74
0
42
0.000000001
43
0.0000000001
44
0.0000000001
40
0
40
0
40
0
40
0
40
1
40
1
40
1
40
1
41
1
41
1
41
1
41
1
10
67.382232348124205
20
-1.8343562732140226
30
0
10
67.321908187866214
20
-1.9531541585922243
30
0
10
65.931783898671469
20
-6.115579251448314
30
0
10
65.197037887573245
20
-8.3785603682200129
30
0
0
SPLINE
5
234
100
AcDbEntity
8
0
100
AcDbSpline
70
4
71
3
72
8
73
4
74
0
42
0.000000001
43
0.0000000001
44
0.0000000001
40
0
40
0
40
0
40
0
40
1
40
1
40
1
40
1
41
1
41
1
41
1
41
1
10
65.197037887573245
20
-8.3785603682200129
30
0
10
65.001773643493664
20
-8.9799579699834204
30
0
10
64.427365875244149
20
-10.718270389238995
30
0
10
63.920424111684177
20
-12.241476631164552
30
0
0
SPLINE
5
235
100
AcDbEntity
8
0
100
AcDbSpline
70
4
71
3
72
8
73
4
74
0
42
0.000000001
43
0.0000000001
44
0.0000000001
40
0
40
0
40
0
40
0
40
1
40
1
40
1
40
1
41
1
41
1
41
1
41
1
10
63.920424111684177
20
-12.241476631164552
30
0
10
62.821871980031347
20
-15.543477519353232
30
0
10
62.817374515533459
20
-15.565172537167868
30
0
10
63.168741957346612
20
-15.873676800727846
30
0
0
SPLINE
5
236
100
AcDbEntity
8
0
100
AcDbSpline
70
4
71
3
72
8
73
4
74
0
42
0.000000001
43
0.0000000001
44
0.0000000001
40
0
40
0
40
0
40
0
40
1
40
1
40
1
40
1
41
1
41
1
41
1
41
1
10
63.168741957346612
20
-15.873676800727846
30
0
10
63.449728520711268
20
-16.120533704757694
30
0
10
63.780195267995204
20
-16.100954190889997
30
0
10
64.053507073720311
20
-15.82128981749217
30
0
0
LINE
5
237
100
AcDbEntity
8
0
100
AcDbLine
10
64.053507073720311
20
-15.821289817492168
30
0
11
64.236599095662442
21
-15.633964769045514
31
0
0
LINE
5
238
100
AcDbEntity
8
0
100
AcDbLine
10
64.236599095662442
20
-15.633964769045514
30
0
11
64.664693927764901
21
-14.316868766148886
31
0
0
SPLINE
5
239
100
AcDbEntity
8
0
100
AcDbSpline
70
4
71
3
72
8
73
4
74
0
42
0.000000001
43
0.0000000001
44
0.0000000001
40
0
40
0
40
0
40
0
40
1
40
1
40
1
40
1
41
1
41
1
41
1
41
1
10
64.664693927764901
20
-14.316868766148886
30
0
10
65.471940358479827
20
-11.834283502896628
30
0
10
65.517976792653414
20
-11.701991836229961
30
0
10
65.602645397186294
20
-11.617325250307719
30
0
0
LINE
5
240
100
AcDbEntity
8
0
100
AcDbLine
10
65.602645397186294
20
-11.617325250307719
30
0
11
65.684136708577483
21
-11.535832929611207
31
0
0
LINE
5
241
100
AcDbEntity
8
0
100
AcDbLine
10
65.684136708577483
20
-11.535832929611207
30
0
11
67.973838678995776
21
-11.535832929611207
31
0
0
SPLINE
5
242
100
AcDbEntity
8
0
100
AcDbSpline
70
4
71
3
72
8
73
4
74
0
42
0.000000001
43
0.0000000001
44
0.0000000001
40
0
40
0
40
0
40
0
40
1
40
1
40
1
40
1
41
1
41
1
41
1
41
1
10
67.973838678995776
20
-11.535832929611207
30
0
10
70.185759544372559
20
-11.535832929611207
30
0
10
70.266721979777031
20
-11.538214890162152
30
0
10
70.350591214497896
20
-11.604096285502116
30
0
0
SPLINE
5
243
100
AcDbEntity
8
0
100
AcDbSpline
70
4
71
3
72
8
73
4
74
0
42
0.000000001
43
0.0000000001
44
0.0000000001
40
0
40
0
40
0
40
0
40
1
40
1
40
1
40
1
41
1
41
1
41
1
41
1
10
70.350591214497896
20
-11.604096285502116
30
0
10
70.449018669128435
20
-11.681354570388795
30
0
10
70.515164502461758
20
-11.850157856941227
30
0
10
71.350191052754738
20
-14.146476833025616
30
0
0
SPLINE
5
244
100
AcDbEntity
8
0
100
AcDbSpline
70
4
71
3
72
8
73
4
74
0
42
0.000000001
43
0.0000000001
44
0.0000000001
40
0
40
0
40
0
40
0
40
1
40
1
40
1
40
1
41
1
41
1
41
1
41
1
10
71.350191052754738
20
-14.146476833025616
30
0
10
71.72272160847983
20
-15.170415059725446
30
0
10
71.871420542399107
20
-15.551414696375531
30
0
10
71.951583607991537
20
-15.688733712832136
30
0
0
SPLINE
5
245
100
AcDbEntity
8
0
100
AcDbSpline
70
4
71
3
72
8
73
4
74
0
42
0.000000001
43
0.0000000001
44
0.0000000001
40
0
40
0
40
0
40
0
40
1
40
1
40
1
40
1
41
1
41
1
41
1
41
1
10
71.951583607991537
20
-15.688733712832136
30
0
10
72.298453585306817
20
-16.280342062314354
30
0
10
73.125010045369478
20
-16.096456726392113
30
0
10
73.158082962036147
20
-15.420180781682335
30
0
0
SPLINE
5
246
100
AcDbEntity
8
0
100
AcDbSpline
70
4
71
3
72
8
73
4
74
0
42
0.000000001
43
0.0000000001
44
0.0000000001
40
0
40
0
40
0
40
0
40
1
40
1
40
1
40
1
41
1
41
1
41
1
41
1
10
73.158082962036147
20
-15.420180781682335
30
0
10
73.16866855621339
20
-15.205340051651003
30
0
10
73.147238985697442
20
-15.122260093688967
30
0
10
72.882655652364107
20
-14.358143297831219
30
0
0
SPLINE
5
247
100
AcDbEntity
8
0
100
AcDbSpline
70
4
71
3
72
8
73
4
74
0
42
0.000000001
43
0.0000000001
44
0.0000000001
40
0
40
0
40
0
40
0
40
1
40
1
40
1
40
1
41
1
41
1
41
1
41
1
10
72.882655652364107
20
-14.358143297831219
30
0
10
72.724695332845059
20
-13.902001889546714
30
0
10
72.27252655029298
20
-12.568501647313436
30
0
10
71.877500597635915
20
-11.39481077194214
30
0
0
SPLINE
5
248
100
AcDbEntity
8
0
100
AcDbSpline
70
4
71
3
72
8
73
4
74
0
42
0.000000001
43
0.0000000001
44
0.0000000001
40
0
40
0
40
0
40
0
40
1
40
1
40
1
40
1
41
1
41
1
41
1
41
1
10
71.877500597635915
20
-11.39481077194214
30
0
10
69.625635464986175
20
-4.7005876978238428
30
0
10
68.713352648417171
20
-2.0272375474373501
30
0
10
68.614392280578627
20
-1.8343562732140226
30
0
0
SPLINE
5
249
100
AcDbEntity
8
0
100
AcDbSpline
70
4
71
3
72
8
73
4
74
0
42
0.000000001
43
0.0000000001
44
0.0000000001
40
0
40
0
40
0
40
0
40
1
40
1
40
1
40
1
41
1
41
1
41
1
41
1
10
68.614392280578627
20
-1.8343562732140226
30
0
10
68.440032768249523
20
-1.4948958585659666
30
0
10
68.015115229288753
20
-1.3067771176497143
30
0
10
67.751056734720876
20
-1.4520333111286166
30
0
0
SPLINE
5
250
100
AcDbEntity
8
0
100
AcDbSpline
70
4
71
3
72
8
73
4
74
0
42
0.000000001
43
0.0000000001
44
0.0000000001
40
0
40
0
40
0
40
0
40
1
40
1
40
1
40
1
41
1
41
1
41
1
41
1
10
94.914773368835469
20
-1.4753167231877649
30
0
10
94.516840616861998
20
-1.7309041182200116
30
0
10
94.540918604532891
20
-1.228989578286807
30
0
10
94.552561950683597
20
-9.0368434270222995
30
0
0
LINE
5
251
100
AcDbEntity
8
0
100
AcDbLine
10
94.552561950683597
20
-9.0368434270223013
30
0
11
94.56208171844483
21
-15.575227236747743
31
0
0
LINE
5
252
100
AcDbEntity
8
0
100
AcDbLine
10
94.56208171844483
20
-15.575227236747743
30
0
11
94.644101905822765
21
-15.70672458012899
31
0
0
SPLINE
5
253
100
AcDbEntity
8
0
100
AcDbSpline
70
4
71
3
72
8
73
4
74
0
42
0.000000001
43
0.0000000001
44
0.0000000001
40
0
40
0
40
0
40
0
40
1
40
1
40
1
40
1
41
1
41
1
41
1
41
1
10
94.644101905822765
20
-15.70672458012899
30
0
10
94.878260739644389
20
-16.083756637573245
30
0
10
95.312972577412935
20
-16.154664373397829
30
0
10
95.624912516276055
20
-15.867062822977704
30
0
0
SPLINE
5
254
100
AcDbEntity
8
0
100
AcDbSpline
70
4
71
3
72
8
73
4
74
0
42
0.000000001
43
0.0000000001
44
0.0000000001
40
0
40
0
40
0
40
0
40
1
40
1
40
1
40
1
41
1
41
1
41
1
41
1
10
95.624912516276055
20
-15.867062822977704
30
0
10
95.852191925048828
20
-15.657512871424359
30
0
10
95.849285125732436
20
-15.690055902798974
30
0
10
95.849809964497894
20
-13.405643701553347
30
0
0
LINE
5
255
100
AcDbEntity
8
0
100
AcDbLine
10
95.849809964497894
20
-13.405643701553345
30
0
11
95.850076421101903
21
-11.341893903414411
31
0
0
LINE
5
256
100
AcDbEntity
8
0
100
AcDbLine
10
95.850076421101903
20
-11.341893903414411
30
0
11
95.929181734720871
21
-11.218333737055463
31
0
0
SPLINE
5
257
100
AcDbEntity
8
0
100
AcDbSpline
70
4
71
3
72
8
73
4
74
0
42
0.000000001
43
0.0000000001
44
0.0000000001
40
0
40
0
40
0
40
0
40
1
40
1
40
1
40
1
41
1
41
1
41
1
41
1
10
95.929181734720871
20
-11.218333737055461
30
0
10
96.093755022684746
20
-10.961423142751059
30
0
10
97.690249951680514
20
-9.4355705022811911
30
0
10
97.863293329874693
20
-9.3696891069412249
30
0
0
SPLINE
5
258
100
AcDbEntity
8
0
100
AcDbSpline
70
4
71
3
72
8
73
4
74
0
42
0.000000001
43
0.0000000001
44
0.0000000001
40
0
40
0
40
0
40
0
40
1
40
1
40
1
40
1
41
1
41
1
41
1
41
1
10
97.863293329874693
20
-9.3696891069412249
30
0
10
98.143484560648616
20
-9.2633275032043478
30
0
10
99.561647351582849
20
-9.2993102471033744
30
0
10
99.730193265279155
20
-9.4173141876856512
30
0
0
SPLINE
5
259
100
AcDbEntity
8
0
100
AcDbSpline
70
4
71
3
72
8
73
4
74
0
42
0.000000001
43
0.0000000001
44
0.0000000001
40
0
40
0
40
0
40
0
40
1
40
1
40
1
40
1
41
1
41
1
41
1
41
1
10
99.730193265279155
20
-9.4173141876856512
30
0
10
99.888145510355656
20
-9.5279108365376803
30
0
10
101.49178632100424
20
-11.091068410873415
30
0
10
101.57327359517417
20
-11.21383526325226
30
0
0
SPLINE
5
260
100
AcDbEntity
8
0
100
AcDbSpline
70
4
71
3
72
8
73
4
74
0
42
0.000000001
43
0.0000000001
44
0.0000000001
40
0
40
0
40
0
40
0
40
1
40
1
40
1
40
1
41
1
41
1
41
1
41
1
10
101.57327359517417
20
-11.21383526325226
30
0
10
101.62989966074628
20
-11.299296172459922
30
0
10
101.63492196400961
20
-11.467041707038881
30
0
10
101.63597971598308
20
-13.352726833025617
30
0
0
SPLINE
5
261
100
AcDbEntity
8
0
100
AcDbSpline
70
4
71
3
72
8
73
4
74
0
42
0.000000001
43
0.0000000001
44
0.0000000001
40
0
40
0
40
0
40
0
40
1
40
1
40
1
40
1
41
1
41
1
41
1
41
1
10
101.63597971598308
20
-13.352726833025617
30
0
10
101.63704554239911
20
-15.420180781682335
30
0
10
101.64709822336833
20
-15.602215051651003
30
0
10
101.76853783925375
20
-15.766520873705547
30
0
0
SPLINE
5
262
100
AcDbEntity
8
0
100
AcDbSpline
70
4
71
3
72
8
73
4
74
0
42
0.000000001
43
0.0000000001
44
0.0000000001
40
0
40
0
40
0
40
0
40
1
40
1
40
1
40
1
41
1
41
1
41
1
41
1
10
101.76853783925375
20
-15.766520873705547
30
0
10
102.12440274556479
20
-16.247269145647685
30
0
10
102.81681849161785
20
-16.077141650517785
30
0
10
102.90810006459554
20
-15.486326615015669
30
0
0
SPLINE
5
263
100
AcDbEntity
8
0
100
AcDbSpline
70
4
71
3
72
8
73
4
74
0
42
0.000000001
43
0.0000000001
44
0.0000000001
40
0
40
0
40
0
40
0
40
1
40
1
40
1
40
1
41
1
41
1
41
1
41
1
10
102.90810006459554
20
-15.486326615015669
30
0
10
102.9779520670573
20
-15.033624919255576
30
0
10
102.9342935562134
20
-10.728589526812238
30
0
10
102.85836149851482
20
-10.583333333333336
30
0
0
SPLINE
5
264
100
AcDbEntity
8
0
100
AcDbSpline
70
4
71
3
72
8
73
4
74
0
42
0.000000001
43
0.0000000001
44
0.0000000001
40
0
40
0
40
0
40
0
40
1
40
1
40
1
40
1
41
1
41
1
41
1
41
1
10
102.85836149851482
20
-10.583333333333336
30
0
10
102.75040620168051
20
-10.376164333025617
30
0
10
100.65781752268475
20
-8.3187645792961131
30
0
10
100.45250059763592
20
-8.21795819203059
30
0
0
LINE
5
265
100
AcDbEntity
8
0
100
AcDbLine
10
100.45250059763592
20
-8.21795819203059
30
0
11
100.27708333333335
21
-8.1314395308494589
31
0
0
LINE
5
266
100
AcDbEntity
8
0
100
AcDbLine
10
100.27708333333335
20
-8.1314395308494589
30
0
11
98.742503229777029
21
-8.1314395308494589
31
0
0
LINE
5
267
100
AcDbEntity
8
0
100
AcDbLine
10
98.742503229777029
20
-8.1314395308494589
30
0
11
97.207915051778173
21
-8.1314395308494589
31
0
0
LINE
5
268
100
AcDbEntity
8
0
100
AcDbLine
10
97.207915051778173
20
-8.1314395308494589
30
0
11
97.054985109965031
21
-8.213195784886679
31
0
0
SPLINE
5
269
100
AcDbEntity
8
0
100
AcDbSpline
70
4
71
3
72
8
73
4
74
0
42
0.000000001
43
0.0000000001
44
0.0000000001
40
0
40
0
40
0
40
0
40
1
40
1
40
1
40
1
41
1
41
1
41
1
41
1
10
97.054985109965031
20
-8.213195784886679
30
0
10
96.970582962036147
20
-8.2581749717394519
30
0
10
96.668962160746275
20
-8.5158793846766159
30
0
10
96.384531847635913
20
-8.7860189437866225
30
0
0
LINE
5
270
100
AcDbEntity
8
0
100
AcDbLine
10
96.384531847635913
20
-8.7860189437866225
30
0
11
95.867274983723973
21
-9.2770853439966849
31
0
0
LINE
5
271
100
AcDbEntity
8
0
100
AcDbLine
10
95.867274983723973
20
-9.2770853439966849
30
0
11
95.849809964497894
21
-5.5647165576616935
31
0
0
SPLINE
5
272
100
AcDbEntity
8
0
100
AcDbSpline
70
4
71
3
72
8
73
4
74
0
42
0.000000001
43
0.0000000001
44
0.0000000001
40
0
40
0
40
0
40
0
40
1
40
1
40
1
40
1
41
1
41
1
41
1
41
1
10
95.849809964497894
20
-5.5647165576616935
30
0
10
95.829962984720879
20
-1.4179021378358205
30
0
10
95.85113417307538
20
-1.7351375232140227
30
0
10
95.580995623270695
20
-1.5290270318587624
30
0
0
SPLINE
5
273
100
AcDbEntity
8
0
100
AcDbSpline
70
4
71
3
72
8
73
4
74
0
42
0.000000001
43
0.0000000001
44
0.0000000001
40
0
40
0
40
0
40
0
40
1
40
1
40
1
40
1
41
1
41
1
41
1
41
1
10
95.580995623270695
20
-1.5290270318587624
30
0
10
95.41060066223146
20
-1.3991166949272158
30
0
10
95.075640487670924
20
-1.372129132350286
30
0
10
94.914773368835469
20
-1.4753167231877649
30
0
0
SPLINE
5
274
100
AcDbEntity
8
0
100
AcDbSpline
70
4
71
3
72
8
73
4
74
0
42
0.000000001
43
0.0000000001
44
0.0000000001
40
0
40
0
40
0
40
0
40
1
40
1
40
1
40
1
41
1
41
1
41
1
41
1
10
9.4720831314722709
20
-2.4831146438916525
30
0
10
9.6551751534144099
20
-2.5696333050727849
30
0
10
11.497733672459923
20
-4.4296543200810756
30
0
10
11.642459980646771
20
-4.6743937015533454
30
0
0
LINE
5
275
100
AcDbEntity
8
0
100
AcDbLine
10
11.64245998064677
20
-4.6743937015533445
30
0
11
11.746706080436709
21
-4.8506062984466558
31
0
0
LINE
5
276
100
AcDbEntity
8
0
100
AcDbLine
10
11.746706080436709
20
-4.8506062984466558
30
0
11
11.747234956423444
21
-8.5299016634623221
31
0
0
SPLINE
5
277
100
AcDbEntity
8
0
100
AcDbSpline
70
4
71
3
72
8
73
4
74
0
42
0.000000001
43
0.0000000001
44
0.0000000001
40
0
40
0
40
0
40
0
40
1
40
1
40
1
40
1
41
1
41
1
41
1
41
1
10
11.747234956423442
20
-8.5299016634623221
30
0
10
11.747500403722128
20
-12.207874838511151
30
0
10
11.747500403722128
20
-12.20893359978994
30
0
10
11.672623070081077
20
-12.357365067799888
30
0
0
SPLINE
5
278
100
AcDbEntity
8
0
100
AcDbSpline
70
4
71
3
72
8
73
4
74
0
42
0.000000001
43
0.0000000001
44
0.0000000001
40
0
40
0
40
0
40
0
40
1
40
1
40
1
40
1
41
1
41
1
41
1
41
1
10
11.672623070081077
20
-12.357365067799888
30
0
10
11.559381031990053
20
-12.58278937339783
30
0
10
9.6628478924433399
20
-14.476941561698915
30
0
10
9.4390102148056041
20
-14.588331524531048
30
0
0
LINE
5
279
100
AcDbEntity
8
0
100
AcDbLine
10
9.4390102148056041
20
-14.58833152453105
30
0
11
9.2641208171844482
21
-14.675643499692283
31
0
0
LINE
5
280
100
AcDbEntity
8
0
100
AcDbLine
10
9.2641208171844482
20
-14.675643499692283
30
0
11
6.8233394662539171
21
-14.675643499692283
31
0
0
LINE
5
281
100
AcDbEntity
8
0
100
AcDbLine
10
6.8233394662539171
20
-14.675643499692283
30
0
11
4.3822936773300176
21
-14.675643499692283
31
0
0
LINE
5
282
100
AcDbEntity
8
0
100
AcDbLine
10
4.3822936773300176
20
-14.675643499692283
30
0
11
4.362979106108348
21
-14.560814833641054
31
0
0
SPLINE
5
283
100
AcDbEntity
8
0
100
AcDbSpline
70
4
71
3
72
8
73
4
74
0
42
0.000000001
43
0.0000000001
44
0.0000000001
40
0
40
0
40
0
40
0
40
1
40
1
40
1
40
1
41
1
41
1
41
1
41
1
10
4.362979106108348
20
-14.560814833641054
30
0
10
4.3275252381960554
20
-14.348882921536765
30
0
10
4.3431356588999437
20
-2.5280938307444254
30
0
10
4.3791189074516303
20
-2.4606250504652665
30
0
0
SPLINE
5
284
100
AcDbEntity
8
0
100
AcDbSpline
70
4
71
3
72
8
73
4
74
0
42
0.000000001
43
0.0000000001
44
0.0000000001
40
0
40
0
40
0
40
0
40
1
40
1
40
1
40
1
41
1
41
1
41
1
41
1
10
4.3791189074516303
20
-2.4606250504652665
30
0
10
4.4328290899594629
20
-2.3600833535194403
30
0
10
9.2564480781555183
20
-2.3812500000000005
30
0
10
9.4720831314722709
20
-2.4831146438916525
30
0
0
SPLINE
5
285
100
AcDbEntity
8
0
100
AcDbSpline
70
4
71
3
72
8
73
4
74
0
42
0.000000001
43
0.0000000001
44
0.0000000001
40
0
40
0
40
0
40
0
40
1
40
1
40
1
40
1
41
1
41
1
41
1
41
1
10
20.566856702168788
20
-2.4725313206513726
30
0
10
20.771113856633505
20
-2.5648708979288743
30
0
10
21.948775339126591
20
-3.7271853884061183
30
0
10
22.049580717086794
20
-3.9354123930136371
30
0
0
SPLINE
5
286
100
AcDbEntity
8
0
100
AcDbSpline
70
4
71
3
72
8
73
4
74
0
42
0.000000001
43
0.0000000001
44
0.0000000001
40
0
40
0
40
0
40
0
40
1
40
1
40
1
40
1
41
1
41
1
41
1
41
1
10
22.049580717086794
20
-3.9354123930136371
30
0
10
22.153032493591311
20
-4.1491958757241569
30
0
10
22.156472206115726
20
-6.1560604691505443
30
0
10
22.053549305597944
20
-6.3576727390289314
30
0
0
SPLINE
5
287
100
AcDbEntity
8
0
100
AcDbSpline
70
4
71
3
72
8
73
4
74
0
42
0.000000001
43
0.0000000001
44
0.0000000001
40
0
40
0
40
0
40
0
40
1
40
1
40
1
40
1
41
1
41
1
41
1
41
1
10
22.053549305597944
20
-6.3576727390289314
30
0
10
21.956976954142256
20
-6.5473792433738716
30
0
10
20.723224337895715
20
-7.8144687096277892
30
0
10
20.5702964146932
20
-7.8814083615938832
30
0
0
SPLINE
5
288
100
AcDbEntity
8
0
100
AcDbSpline
70
4
71
3
72
8
73
4
74
0
42
0.000000001
43
0.0000000001
44
0.0000000001
40
0
40
0
40
0
40
0
40
1
40
1
40
1
40
1
41
1
41
1
41
1
41
1
10
20.5702964146932
20
-7.8814083615938832
30
0
10
20.459965213139853
20
-7.9295623183250443
30
0
10
20.139024289449058
20
-7.9380293806393958
30
0
10
18.09750040372213
20
-7.9459665576616931
30
0
0
SPLINE
5
289
100
AcDbEntity
8
0
100
AcDbSpline
70
4
71
3
72
8
73
4
74
0
42
0.000000001
43
0.0000000001
44
0.0000000001
40
0
40
0
40
0
40
0
40
1
40
1
40
1
40
1
41
1
41
1
41
1
41
1
10
18.09750040372213
20
-7.9459665576616931
30
0
10
15.603008365631105
20
-7.9557563145955417
30
0
10
15.687410513559978
20
-7.9499356508255019
30
0
10
15.495852438608807
20
-8.1245606104532886
30
0
0
LINE
5
290
100
AcDbEntity
8
0
100
AcDbLine
10
15.495852438608807
20
-8.1245606104532886
30
0
11
15.416476631164553
21
-8.1967915455500293
31
0
0
LINE
5
291
100
AcDbEntity
8
0
100
AcDbLine
10
15.416476631164553
20
-8.1967915455500293
30
0
11
15.416476631164553
21
-5.3183895389239
31
0
0
SPLINE
5
292
100
AcDbEntity
8
0
100
AcDbSpline
70
4
71
3
72
8
73
4
74
0
42
0.000000001
43
0.0000000001
44
0.0000000001
40
0
40
0
40
0
40
0
40
1
40
1
40
1
40
1
41
1
41
1
41
1
41
1
10
15.416476631164553
20
-5.3183895389239
30
0
10
15.416476631164553
20
-3.0487936874230708
30
0
10
15.425737007459006
20
-2.4362833817799889
30
0
10
15.460397561391197
20
-2.4222603460152947
30
0
0
SPLINE
5
293
100
AcDbEntity
8
0
100
AcDbSpline
70
4
71
3
72
8
73
4
74
0
42
0.000000001
43
0.0000000001
44
0.0000000001
40
0
40
0
40
0
40
0
40
1
40
1
40
1
40
1
41
1
41
1
41
1
41
1
10
15.460397561391197
20
-2.4222603460152947
30
0
10
15.623910069465639
20
-2.3563792030016586
30
0
10
20.414455636342371
20
-2.4032104651133226
30
0
10
20.566856702168788
20
-2.4725313206513726
30
0
0
SPLINE
5
294
100
AcDbEntity
8
0
100
AcDbSpline
70
4
71
3
72
8
73
4
74
0
42
0.000000001
43
0.0000000001
44
0.0000000001
40
0
40
0
40
0
40
0
40
1
40
1
40
1
40
1
41
1
41
1
41
1
41
1
10
68.442947642008477
20
-5.4432729045550037
30
0
10
69.389627583821621
20
-8.2139896035194404
30
0
10
70.040233866373711
20
-10.193073320388795
30
0
10
70.013773918151855
20
-10.219795687993368
30
0
0
SPLINE
5
295
100
AcDbEntity
8
0
100
AcDbSpline
70
4
71
3
72
8
73
4
74
0
42
0.000000001
43
0.0000000001
44
0.0000000001
40
0
40
0
40
0
40
0
40
1
40
1
40
1
40
1
41
1
41
1
41
1
41
1
10
70.013773918151855
20
-10.219795687993368
30
0
10
69.983615875244155
20
-10.249958777427675
30
0
10
66.057991472880047
20
-10.260541343688967
30
0
10
66.028624725341814
20
-10.230643701553346
30
0
0
SPLINE
5
296
100
AcDbEntity
8
0
100
AcDbSpline
70
4
71
3
72
8
73
4
74
0
42
0.000000001
43
0.0000000001
44
0.0000000001
40
0
40
0
40
0
40
0
40
1
40
1
40
1
40
1
41
1
41
1
41
1
41
1
10
66.028624725341814
20
-10.230643701553346
30
0
10
66.019363339742029
20
-10.220854449272156
30
0
10
66.38078346252442
20
-9.1016670703887943
30
0
10
66.83189853032431
20
-7.7435604691505446
30
0
0
SPLINE
5
297
100
AcDbEntity
8
0
100
AcDbSpline
70
4
71
3
72
8
73
4
74
0
42
0.000000001
43
0.0000000001
44
0.0000000001
40
0
40
0
40
0
40
0
40
1
40
1
40
1
40
1
41
1
41
1
41
1
41
1
10
66.83189853032431
20
-7.7435604691505446
30
0
10
67.283276017506935
20
-6.3851894299189258
30
0
10
67.728835868835461
20
-5.0318457404772445
30
0
10
67.822232945760106
20
-4.7360415657361354
30
0
0
SPLINE
5
298
100
AcDbEntity
8
0
100
AcDbSpline
70
4
71
3
72
8
73
4
74
0
42
0.000000001
43
0.0000000001
44
0.0000000001
40
0
40
0
40
0
40
0
40
1
40
1
40
1
40
1
41
1
41
1
41
1
41
1
10
67.822232945760106
20
-4.7360415657361354
30
0
10
67.915630022684738
20
-4.4402373909950263
30
0
10
68.000823465983075
20
-4.2068748990694687
30
0
10
68.011675516764328
20
-4.217458222309749
30
0
0
SPLINE
5
299
100
AcDbEntity
8
0
100
AcDbSpline
70
4
71
3
72
8
73
4
74
0
42
0.000000001
43
0.0000000001
44
0.0000000001
40
0
40
0
40
0
40
0
40
1
40
1
40
1
40
1
41
1
41
1
41
1
41
1
10
68.011675516764328
20
-4.217458222309749
30
0
10
68.022261110941585
20
-4.2283062358697263
30
0
10
68.216459528605156
20
-4.7799624959627796
30
0
10
68.442947642008477
20
-5.4432729045550037
30
0
0
ENDSEC
0
SECTION
2
OBJECTS
0
DICTIONARY
5
C
100
AcDbDictionary
3
ACAD_GROUP
350
D
3
ACAD_MLINESTYLE
350
17
0
DICTIONARY
5
D
100
AcDbDictionary
0
DICTIONARY
5
1A
330
C
100
AcDbDictionary
0
DICTIONARY
5
17
100
AcDbDictionary
0
ENDSEC
0
EOF
