M48
; DRILL file {KiCad 7.0.9} date Tue Oct  8 00:31:02 2024
; FORMAT={-:-/ absolute / inch / decimal}
; #@! TF.CreationDate,2024-10-08T00:31:02+03:00
; #@! TF.GenerationSoftware,Kicad,Pcbnew,7.0.9
; #@! TF.FileFunction,Plated,1,2,PTH
FMAT,2
INCH
; #@! TA.AperFunction,Plated,PTH,ComponentDrill
T1C0.0118
; #@! TA.AperFunction,Plated,PTH,ViaDrill
T2C0.0157
; #@! TA.AperFunction,Plated,PTH,ComponentDrill
T3C0.0197
; #@! TA.AperFunction,Plated,PTH,ComponentDrill
T4C0.0236
; #@! TA.AperFunction,Plated,PTH,ComponentDrill
T5C0.0906
%
G90
G05
T1
X4.5353Y-2.0271
X4.5353Y-2.096
X4.5353Y-2.1648
X4.6042Y-2.0271
X4.6042Y-2.096
X4.6042Y-2.1648
X4.6731Y-2.0271
X4.6731Y-2.096
X4.6731Y-2.1648
T2
X2.6969Y-3.3661
X2.7756Y-2.3819
X2.7756Y-2.6575
X2.7953Y-2.7756
X2.815Y-2.8543
X2.815Y-1.805
X2.8346Y-2.1457
X2.8543Y-3.0709
X2.874Y-2.3622
X2.9134Y-2.2441
X2.9134Y-2.6181
X2.9921Y-2.4409
X2.9921Y-2.7756
X3.065Y-1.84
X3.0709Y-2.1457
X3.1693Y-2.9528
X3.18Y-3.415
X3.185Y-1.78
X3.189Y-2.5787
X3.2283Y-2.185
X3.248Y-2.7756
X3.2874Y-2.9528
X3.3071Y-1.811
X3.3661Y-2.126
X3.385Y-1.94
X3.3858Y-3.0315
X3.4055Y-2.6772
X3.415Y-3.415
X3.4252Y-2.815
X3.46Y-1.765
X3.4646Y-2.0079
X3.5433Y-3.0315
X3.5433Y-3.2677
X3.555Y-1.955
X3.6024Y-2.4016
X3.6614Y-2.185
X3.715Y-3.013
X3.7516Y-2.7851
X3.7598Y-2.4803
X3.7598Y-3.2874
X3.76Y-3.1
X3.7795Y-2.874
X3.8Y-3.03
X3.8386Y-2.3031
X3.845Y-3.105
X3.8583Y-2.6772
X3.878Y-2.4606
X3.878Y-2.7362
X3.878Y-2.815
X3.8892Y-3.0308
X3.8976Y-1.8898
X3.935Y-3.105
X3.937Y-2.185
X3.937Y-2.2638
X3.9961Y-1.8701
X4.0354Y-2.7165
X4.1142Y-2.2835
X4.1339Y-2.0079
X4.1339Y-2.1457
X4.1535Y-2.251
X4.1929Y-2.185
X4.2451Y-2.1147
X4.28Y-3.27
X4.2913Y-2.6181
X4.2913Y-3.0512
X4.3307Y-2.3819
X4.3413Y-2.0205
X4.3504Y-1.811
X4.3504Y-2.5197
X4.3701Y-3.3268
X4.4094Y-1.8898
X4.4098Y-2.2143
X4.4488Y-3.1299
X4.4685Y-2.3425
X4.4685Y-3.2677
X4.4882Y-1.9291
X4.5472Y-2.3425
X4.566Y-2.3818
X4.5669Y-2.6378
X4.6063Y-2.8346
X4.626Y-1.9094
X4.6454Y-2.3304
X4.7371Y-2.2593
X4.75Y-2.4665
X4.7561Y-2.6549
X4.7638Y-2.8543
X4.782Y-2.4026
X4.7835Y-1.8898
X4.7835Y-2.9921
X4.7886Y-2.09
X4.8031Y-1.9685
X4.8228Y-1.7913
X4.8425Y-2.9921
X4.8467Y-2.0824
X4.8622Y-2.185
X4.8622Y-2.5394
X4.8622Y-2.5984
X4.9016Y-2.0276
X4.9016Y-2.0669
X4.9016Y-2.2047
X4.9016Y-2.4606
X4.9606Y-2.2638
X4.9803Y-2.0669
X4.9803Y-3.0709
X4.9803Y-3.1496
X4.9803Y-3.2087
X5.0Y-2.3228
T3
X2.6582Y-2.0165
X2.6582Y-2.0835
X2.6582Y-2.5365
X2.6582Y-2.6035
X2.6582Y-3.0565
X2.6582Y-3.1235
X4.8676Y-3.07
X4.8676Y-3.1369
T5
X2.8Y-3.28
X3.75Y-1.89
X4.9Y-1.88
T4
G00X4.8012Y-2.39
M15
G01X4.8445Y-2.39
M16
G05
G00X4.8012Y-2.7306
M15
G01X4.8445Y-2.7306
M16
G05
G00X4.9713Y-2.39
M15
G01X5.0028Y-2.39
M16
G05
G00X4.9713Y-2.7306
M15
G01X5.0028Y-2.7306
M16
G05
T0
M30
