%TF.GenerationSoftware,KiCad,Pcbnew,7.0.9*%
%TF.CreationDate,2024-10-08T00:30:49+03:00*%
%TF.ProjectId,DRM_Watch_V3,44524d5f-5761-4746-9368-5f56332e6b69,rev?*%
%TF.SameCoordinates,Original*%
%TF.FileFunction,Legend,Bot*%
%TF.FilePolarity,Positive*%
%FSLAX46Y46*%
G04 Gerber Fmt 4.6, Leading zero omitted, Abs format (unit mm)*
G04 Created by KiCad (PCBNEW 7.0.9) date 2024-10-08 00:30:49*
%MOMM*%
%LPD*%
G01*
G04 APERTURE LIST*
%ADD10C,0.150000*%
%ADD11C,0.400000*%
%ADD12C,0.100000*%
G04 APERTURE END LIST*
D10*
X118163220Y-72869819D02*
X118163220Y-71869819D01*
X118163220Y-71869819D02*
X117925125Y-71869819D01*
X117925125Y-71869819D02*
X117782268Y-71917438D01*
X117782268Y-71917438D02*
X117687030Y-72012676D01*
X117687030Y-72012676D02*
X117639411Y-72107914D01*
X117639411Y-72107914D02*
X117591792Y-72298390D01*
X117591792Y-72298390D02*
X117591792Y-72441247D01*
X117591792Y-72441247D02*
X117639411Y-72631723D01*
X117639411Y-72631723D02*
X117687030Y-72726961D01*
X117687030Y-72726961D02*
X117782268Y-72822200D01*
X117782268Y-72822200D02*
X117925125Y-72869819D01*
X117925125Y-72869819D02*
X118163220Y-72869819D01*
X116782268Y-72822200D02*
X116877506Y-72869819D01*
X116877506Y-72869819D02*
X117067982Y-72869819D01*
X117067982Y-72869819D02*
X117163220Y-72822200D01*
X117163220Y-72822200D02*
X117210839Y-72726961D01*
X117210839Y-72726961D02*
X117210839Y-72346009D01*
X117210839Y-72346009D02*
X117163220Y-72250771D01*
X117163220Y-72250771D02*
X117067982Y-72203152D01*
X117067982Y-72203152D02*
X116877506Y-72203152D01*
X116877506Y-72203152D02*
X116782268Y-72250771D01*
X116782268Y-72250771D02*
X116734649Y-72346009D01*
X116734649Y-72346009D02*
X116734649Y-72441247D01*
X116734649Y-72441247D02*
X117210839Y-72536485D01*
X116353696Y-72822200D02*
X116258458Y-72869819D01*
X116258458Y-72869819D02*
X116067982Y-72869819D01*
X116067982Y-72869819D02*
X115972744Y-72822200D01*
X115972744Y-72822200D02*
X115925125Y-72726961D01*
X115925125Y-72726961D02*
X115925125Y-72679342D01*
X115925125Y-72679342D02*
X115972744Y-72584104D01*
X115972744Y-72584104D02*
X116067982Y-72536485D01*
X116067982Y-72536485D02*
X116210839Y-72536485D01*
X116210839Y-72536485D02*
X116306077Y-72488866D01*
X116306077Y-72488866D02*
X116353696Y-72393628D01*
X116353696Y-72393628D02*
X116353696Y-72346009D01*
X116353696Y-72346009D02*
X116306077Y-72250771D01*
X116306077Y-72250771D02*
X116210839Y-72203152D01*
X116210839Y-72203152D02*
X116067982Y-72203152D01*
X116067982Y-72203152D02*
X115972744Y-72250771D01*
X115496553Y-72869819D02*
X115496553Y-72203152D01*
X115496553Y-71869819D02*
X115544172Y-71917438D01*
X115544172Y-71917438D02*
X115496553Y-71965057D01*
X115496553Y-71965057D02*
X115448934Y-71917438D01*
X115448934Y-71917438D02*
X115496553Y-71869819D01*
X115496553Y-71869819D02*
X115496553Y-71965057D01*
X114591792Y-72203152D02*
X114591792Y-73012676D01*
X114591792Y-73012676D02*
X114639411Y-73107914D01*
X114639411Y-73107914D02*
X114687030Y-73155533D01*
X114687030Y-73155533D02*
X114782268Y-73203152D01*
X114782268Y-73203152D02*
X114925125Y-73203152D01*
X114925125Y-73203152D02*
X115020363Y-73155533D01*
X114591792Y-72822200D02*
X114687030Y-72869819D01*
X114687030Y-72869819D02*
X114877506Y-72869819D01*
X114877506Y-72869819D02*
X114972744Y-72822200D01*
X114972744Y-72822200D02*
X115020363Y-72774580D01*
X115020363Y-72774580D02*
X115067982Y-72679342D01*
X115067982Y-72679342D02*
X115067982Y-72393628D01*
X115067982Y-72393628D02*
X115020363Y-72298390D01*
X115020363Y-72298390D02*
X114972744Y-72250771D01*
X114972744Y-72250771D02*
X114877506Y-72203152D01*
X114877506Y-72203152D02*
X114687030Y-72203152D01*
X114687030Y-72203152D02*
X114591792Y-72250771D01*
X114115601Y-72203152D02*
X114115601Y-72869819D01*
X114115601Y-72298390D02*
X114067982Y-72250771D01*
X114067982Y-72250771D02*
X113972744Y-72203152D01*
X113972744Y-72203152D02*
X113829887Y-72203152D01*
X113829887Y-72203152D02*
X113734649Y-72250771D01*
X113734649Y-72250771D02*
X113687030Y-72346009D01*
X113687030Y-72346009D02*
X113687030Y-72869819D01*
X112829887Y-72822200D02*
X112925125Y-72869819D01*
X112925125Y-72869819D02*
X113115601Y-72869819D01*
X113115601Y-72869819D02*
X113210839Y-72822200D01*
X113210839Y-72822200D02*
X113258458Y-72726961D01*
X113258458Y-72726961D02*
X113258458Y-72346009D01*
X113258458Y-72346009D02*
X113210839Y-72250771D01*
X113210839Y-72250771D02*
X113115601Y-72203152D01*
X113115601Y-72203152D02*
X112925125Y-72203152D01*
X112925125Y-72203152D02*
X112829887Y-72250771D01*
X112829887Y-72250771D02*
X112782268Y-72346009D01*
X112782268Y-72346009D02*
X112782268Y-72441247D01*
X112782268Y-72441247D02*
X113258458Y-72536485D01*
X111925125Y-72869819D02*
X111925125Y-71869819D01*
X111925125Y-72822200D02*
X112020363Y-72869819D01*
X112020363Y-72869819D02*
X112210839Y-72869819D01*
X112210839Y-72869819D02*
X112306077Y-72822200D01*
X112306077Y-72822200D02*
X112353696Y-72774580D01*
X112353696Y-72774580D02*
X112401315Y-72679342D01*
X112401315Y-72679342D02*
X112401315Y-72393628D01*
X112401315Y-72393628D02*
X112353696Y-72298390D01*
X112353696Y-72298390D02*
X112306077Y-72250771D01*
X112306077Y-72250771D02*
X112210839Y-72203152D01*
X112210839Y-72203152D02*
X112020363Y-72203152D01*
X112020363Y-72203152D02*
X111925125Y-72250771D01*
X110687029Y-72869819D02*
X110687029Y-71869819D01*
X110687029Y-72250771D02*
X110591791Y-72203152D01*
X110591791Y-72203152D02*
X110401315Y-72203152D01*
X110401315Y-72203152D02*
X110306077Y-72250771D01*
X110306077Y-72250771D02*
X110258458Y-72298390D01*
X110258458Y-72298390D02*
X110210839Y-72393628D01*
X110210839Y-72393628D02*
X110210839Y-72679342D01*
X110210839Y-72679342D02*
X110258458Y-72774580D01*
X110258458Y-72774580D02*
X110306077Y-72822200D01*
X110306077Y-72822200D02*
X110401315Y-72869819D01*
X110401315Y-72869819D02*
X110591791Y-72869819D01*
X110591791Y-72869819D02*
X110687029Y-72822200D01*
X109877505Y-72203152D02*
X109639410Y-72869819D01*
X109401315Y-72203152D02*
X109639410Y-72869819D01*
X109639410Y-72869819D02*
X109734648Y-73107914D01*
X109734648Y-73107914D02*
X109782267Y-73155533D01*
X109782267Y-73155533D02*
X109877505Y-73203152D01*
X108258457Y-72869819D02*
X108258457Y-71869819D01*
X108258457Y-71869819D02*
X108020362Y-71869819D01*
X108020362Y-71869819D02*
X107877505Y-71917438D01*
X107877505Y-71917438D02*
X107782267Y-72012676D01*
X107782267Y-72012676D02*
X107734648Y-72107914D01*
X107734648Y-72107914D02*
X107687029Y-72298390D01*
X107687029Y-72298390D02*
X107687029Y-72441247D01*
X107687029Y-72441247D02*
X107734648Y-72631723D01*
X107734648Y-72631723D02*
X107782267Y-72726961D01*
X107782267Y-72726961D02*
X107877505Y-72822200D01*
X107877505Y-72822200D02*
X108020362Y-72869819D01*
X108020362Y-72869819D02*
X108258457Y-72869819D01*
X107258457Y-72869819D02*
X107258457Y-72203152D01*
X107258457Y-72393628D02*
X107210838Y-72298390D01*
X107210838Y-72298390D02*
X107163219Y-72250771D01*
X107163219Y-72250771D02*
X107067981Y-72203152D01*
X107067981Y-72203152D02*
X106972743Y-72203152D01*
X106639409Y-72774580D02*
X106591790Y-72822200D01*
X106591790Y-72822200D02*
X106639409Y-72869819D01*
X106639409Y-72869819D02*
X106687028Y-72822200D01*
X106687028Y-72822200D02*
X106639409Y-72774580D01*
X106639409Y-72774580D02*
X106639409Y-72869819D01*
X105829886Y-72346009D02*
X106163219Y-72346009D01*
X106163219Y-72869819D02*
X106163219Y-71869819D01*
X106163219Y-71869819D02*
X105687029Y-71869819D01*
X104877505Y-72869819D02*
X104877505Y-72346009D01*
X104877505Y-72346009D02*
X104925124Y-72250771D01*
X104925124Y-72250771D02*
X105020362Y-72203152D01*
X105020362Y-72203152D02*
X105210838Y-72203152D01*
X105210838Y-72203152D02*
X105306076Y-72250771D01*
X104877505Y-72822200D02*
X104972743Y-72869819D01*
X104972743Y-72869819D02*
X105210838Y-72869819D01*
X105210838Y-72869819D02*
X105306076Y-72822200D01*
X105306076Y-72822200D02*
X105353695Y-72726961D01*
X105353695Y-72726961D02*
X105353695Y-72631723D01*
X105353695Y-72631723D02*
X105306076Y-72536485D01*
X105306076Y-72536485D02*
X105210838Y-72488866D01*
X105210838Y-72488866D02*
X104972743Y-72488866D01*
X104972743Y-72488866D02*
X104877505Y-72441247D01*
X104401314Y-72869819D02*
X104401314Y-72203152D01*
X104401314Y-71869819D02*
X104448933Y-71917438D01*
X104448933Y-71917438D02*
X104401314Y-71965057D01*
X104401314Y-71965057D02*
X104353695Y-71917438D01*
X104353695Y-71917438D02*
X104401314Y-71869819D01*
X104401314Y-71869819D02*
X104401314Y-71965057D01*
X103782267Y-72869819D02*
X103877505Y-72822200D01*
X103877505Y-72822200D02*
X103925124Y-72726961D01*
X103925124Y-72726961D02*
X103925124Y-71869819D01*
X103258457Y-72869819D02*
X103353695Y-72822200D01*
X103353695Y-72822200D02*
X103401314Y-72774580D01*
X103401314Y-72774580D02*
X103448933Y-72679342D01*
X103448933Y-72679342D02*
X103448933Y-72393628D01*
X103448933Y-72393628D02*
X103401314Y-72298390D01*
X103401314Y-72298390D02*
X103353695Y-72250771D01*
X103353695Y-72250771D02*
X103258457Y-72203152D01*
X103258457Y-72203152D02*
X103115600Y-72203152D01*
X103115600Y-72203152D02*
X103020362Y-72250771D01*
X103020362Y-72250771D02*
X102972743Y-72298390D01*
X102972743Y-72298390D02*
X102925124Y-72393628D01*
X102925124Y-72393628D02*
X102925124Y-72679342D01*
X102925124Y-72679342D02*
X102972743Y-72774580D01*
X102972743Y-72774580D02*
X103020362Y-72822200D01*
X103020362Y-72822200D02*
X103115600Y-72869819D01*
X103115600Y-72869819D02*
X103258457Y-72869819D01*
X102591790Y-72203152D02*
X102353695Y-72869819D01*
X102353695Y-72869819D02*
X102115600Y-72203152D01*
X89091792Y-82369819D02*
X89425125Y-81893628D01*
X89663220Y-82369819D02*
X89663220Y-81369819D01*
X89663220Y-81369819D02*
X89282268Y-81369819D01*
X89282268Y-81369819D02*
X89187030Y-81417438D01*
X89187030Y-81417438D02*
X89139411Y-81465057D01*
X89139411Y-81465057D02*
X89091792Y-81560295D01*
X89091792Y-81560295D02*
X89091792Y-81703152D01*
X89091792Y-81703152D02*
X89139411Y-81798390D01*
X89139411Y-81798390D02*
X89187030Y-81846009D01*
X89187030Y-81846009D02*
X89282268Y-81893628D01*
X89282268Y-81893628D02*
X89663220Y-81893628D01*
X88282268Y-82322200D02*
X88377506Y-82369819D01*
X88377506Y-82369819D02*
X88567982Y-82369819D01*
X88567982Y-82369819D02*
X88663220Y-82322200D01*
X88663220Y-82322200D02*
X88710839Y-82226961D01*
X88710839Y-82226961D02*
X88710839Y-81846009D01*
X88710839Y-81846009D02*
X88663220Y-81750771D01*
X88663220Y-81750771D02*
X88567982Y-81703152D01*
X88567982Y-81703152D02*
X88377506Y-81703152D01*
X88377506Y-81703152D02*
X88282268Y-81750771D01*
X88282268Y-81750771D02*
X88234649Y-81846009D01*
X88234649Y-81846009D02*
X88234649Y-81941247D01*
X88234649Y-81941247D02*
X88710839Y-82036485D01*
X87901315Y-81703152D02*
X87663220Y-82369819D01*
X87663220Y-82369819D02*
X87425125Y-81703152D01*
X87044172Y-82274580D02*
X86996553Y-82322200D01*
X86996553Y-82322200D02*
X87044172Y-82369819D01*
X87044172Y-82369819D02*
X87091791Y-82322200D01*
X87091791Y-82322200D02*
X87044172Y-82274580D01*
X87044172Y-82274580D02*
X87044172Y-82369819D01*
X86139411Y-81703152D02*
X86139411Y-82369819D01*
X86377506Y-81322200D02*
X86615601Y-82036485D01*
X86615601Y-82036485D02*
X85996554Y-82036485D01*
X84567982Y-82750771D02*
X84615601Y-82703152D01*
X84615601Y-82703152D02*
X84710839Y-82560295D01*
X84710839Y-82560295D02*
X84758458Y-82465057D01*
X84758458Y-82465057D02*
X84806077Y-82322200D01*
X84806077Y-82322200D02*
X84853696Y-82084104D01*
X84853696Y-82084104D02*
X84853696Y-81893628D01*
X84853696Y-81893628D02*
X84806077Y-81655533D01*
X84806077Y-81655533D02*
X84758458Y-81512676D01*
X84758458Y-81512676D02*
X84710839Y-81417438D01*
X84710839Y-81417438D02*
X84615601Y-81274580D01*
X84615601Y-81274580D02*
X84567982Y-81226961D01*
X84234648Y-81465057D02*
X84187029Y-81417438D01*
X84187029Y-81417438D02*
X84091791Y-81369819D01*
X84091791Y-81369819D02*
X83853696Y-81369819D01*
X83853696Y-81369819D02*
X83758458Y-81417438D01*
X83758458Y-81417438D02*
X83710839Y-81465057D01*
X83710839Y-81465057D02*
X83663220Y-81560295D01*
X83663220Y-81560295D02*
X83663220Y-81655533D01*
X83663220Y-81655533D02*
X83710839Y-81798390D01*
X83710839Y-81798390D02*
X84282267Y-82369819D01*
X84282267Y-82369819D02*
X83663220Y-82369819D01*
X83044172Y-81369819D02*
X82948934Y-81369819D01*
X82948934Y-81369819D02*
X82853696Y-81417438D01*
X82853696Y-81417438D02*
X82806077Y-81465057D01*
X82806077Y-81465057D02*
X82758458Y-81560295D01*
X82758458Y-81560295D02*
X82710839Y-81750771D01*
X82710839Y-81750771D02*
X82710839Y-81988866D01*
X82710839Y-81988866D02*
X82758458Y-82179342D01*
X82758458Y-82179342D02*
X82806077Y-82274580D01*
X82806077Y-82274580D02*
X82853696Y-82322200D01*
X82853696Y-82322200D02*
X82948934Y-82369819D01*
X82948934Y-82369819D02*
X83044172Y-82369819D01*
X83044172Y-82369819D02*
X83139410Y-82322200D01*
X83139410Y-82322200D02*
X83187029Y-82274580D01*
X83187029Y-82274580D02*
X83234648Y-82179342D01*
X83234648Y-82179342D02*
X83282267Y-81988866D01*
X83282267Y-81988866D02*
X83282267Y-81750771D01*
X83282267Y-81750771D02*
X83234648Y-81560295D01*
X83234648Y-81560295D02*
X83187029Y-81465057D01*
X83187029Y-81465057D02*
X83139410Y-81417438D01*
X83139410Y-81417438D02*
X83044172Y-81369819D01*
X82329886Y-81465057D02*
X82282267Y-81417438D01*
X82282267Y-81417438D02*
X82187029Y-81369819D01*
X82187029Y-81369819D02*
X81948934Y-81369819D01*
X81948934Y-81369819D02*
X81853696Y-81417438D01*
X81853696Y-81417438D02*
X81806077Y-81465057D01*
X81806077Y-81465057D02*
X81758458Y-81560295D01*
X81758458Y-81560295D02*
X81758458Y-81655533D01*
X81758458Y-81655533D02*
X81806077Y-81798390D01*
X81806077Y-81798390D02*
X82377505Y-82369819D01*
X82377505Y-82369819D02*
X81758458Y-82369819D01*
X80901315Y-81703152D02*
X80901315Y-82369819D01*
X81139410Y-81322200D02*
X81377505Y-82036485D01*
X81377505Y-82036485D02*
X80758458Y-82036485D01*
X80377505Y-81988866D02*
X79615601Y-81988866D01*
X78948934Y-81369819D02*
X78853696Y-81369819D01*
X78853696Y-81369819D02*
X78758458Y-81417438D01*
X78758458Y-81417438D02*
X78710839Y-81465057D01*
X78710839Y-81465057D02*
X78663220Y-81560295D01*
X78663220Y-81560295D02*
X78615601Y-81750771D01*
X78615601Y-81750771D02*
X78615601Y-81988866D01*
X78615601Y-81988866D02*
X78663220Y-82179342D01*
X78663220Y-82179342D02*
X78710839Y-82274580D01*
X78710839Y-82274580D02*
X78758458Y-82322200D01*
X78758458Y-82322200D02*
X78853696Y-82369819D01*
X78853696Y-82369819D02*
X78948934Y-82369819D01*
X78948934Y-82369819D02*
X79044172Y-82322200D01*
X79044172Y-82322200D02*
X79091791Y-82274580D01*
X79091791Y-82274580D02*
X79139410Y-82179342D01*
X79139410Y-82179342D02*
X79187029Y-81988866D01*
X79187029Y-81988866D02*
X79187029Y-81750771D01*
X79187029Y-81750771D02*
X79139410Y-81560295D01*
X79139410Y-81560295D02*
X79091791Y-81465057D01*
X79091791Y-81465057D02*
X79044172Y-81417438D01*
X79044172Y-81417438D02*
X78948934Y-81369819D01*
X77758458Y-81703152D02*
X77758458Y-82369819D01*
X77996553Y-81322200D02*
X78234648Y-82036485D01*
X78234648Y-82036485D02*
X77615601Y-82036485D01*
X77234648Y-81988866D02*
X76472744Y-81988866D01*
X75472744Y-82369819D02*
X76044172Y-82369819D01*
X75758458Y-82369819D02*
X75758458Y-81369819D01*
X75758458Y-81369819D02*
X75853696Y-81512676D01*
X75853696Y-81512676D02*
X75948934Y-81607914D01*
X75948934Y-81607914D02*
X76044172Y-81655533D01*
X74901315Y-81798390D02*
X74996553Y-81750771D01*
X74996553Y-81750771D02*
X75044172Y-81703152D01*
X75044172Y-81703152D02*
X75091791Y-81607914D01*
X75091791Y-81607914D02*
X75091791Y-81560295D01*
X75091791Y-81560295D02*
X75044172Y-81465057D01*
X75044172Y-81465057D02*
X74996553Y-81417438D01*
X74996553Y-81417438D02*
X74901315Y-81369819D01*
X74901315Y-81369819D02*
X74710839Y-81369819D01*
X74710839Y-81369819D02*
X74615601Y-81417438D01*
X74615601Y-81417438D02*
X74567982Y-81465057D01*
X74567982Y-81465057D02*
X74520363Y-81560295D01*
X74520363Y-81560295D02*
X74520363Y-81607914D01*
X74520363Y-81607914D02*
X74567982Y-81703152D01*
X74567982Y-81703152D02*
X74615601Y-81750771D01*
X74615601Y-81750771D02*
X74710839Y-81798390D01*
X74710839Y-81798390D02*
X74901315Y-81798390D01*
X74901315Y-81798390D02*
X74996553Y-81846009D01*
X74996553Y-81846009D02*
X75044172Y-81893628D01*
X75044172Y-81893628D02*
X75091791Y-81988866D01*
X75091791Y-81988866D02*
X75091791Y-82179342D01*
X75091791Y-82179342D02*
X75044172Y-82274580D01*
X75044172Y-82274580D02*
X74996553Y-82322200D01*
X74996553Y-82322200D02*
X74901315Y-82369819D01*
X74901315Y-82369819D02*
X74710839Y-82369819D01*
X74710839Y-82369819D02*
X74615601Y-82322200D01*
X74615601Y-82322200D02*
X74567982Y-82274580D01*
X74567982Y-82274580D02*
X74520363Y-82179342D01*
X74520363Y-82179342D02*
X74520363Y-81988866D01*
X74520363Y-81988866D02*
X74567982Y-81893628D01*
X74567982Y-81893628D02*
X74615601Y-81846009D01*
X74615601Y-81846009D02*
X74710839Y-81798390D01*
X74187029Y-82750771D02*
X74139410Y-82703152D01*
X74139410Y-82703152D02*
X74044172Y-82560295D01*
X74044172Y-82560295D02*
X73996553Y-82465057D01*
X73996553Y-82465057D02*
X73948934Y-82322200D01*
X73948934Y-82322200D02*
X73901315Y-82084104D01*
X73901315Y-82084104D02*
X73901315Y-81893628D01*
X73901315Y-81893628D02*
X73948934Y-81655533D01*
X73948934Y-81655533D02*
X73996553Y-81512676D01*
X73996553Y-81512676D02*
X74044172Y-81417438D01*
X74044172Y-81417438D02*
X74139410Y-81274580D01*
X74139410Y-81274580D02*
X74187029Y-81226961D01*
D11*
X119022557Y-68612057D02*
X119022557Y-65612057D01*
X119022557Y-65612057D02*
X118308271Y-65612057D01*
X118308271Y-65612057D02*
X117879700Y-65754914D01*
X117879700Y-65754914D02*
X117593985Y-66040628D01*
X117593985Y-66040628D02*
X117451128Y-66326342D01*
X117451128Y-66326342D02*
X117308271Y-66897771D01*
X117308271Y-66897771D02*
X117308271Y-67326342D01*
X117308271Y-67326342D02*
X117451128Y-67897771D01*
X117451128Y-67897771D02*
X117593985Y-68183485D01*
X117593985Y-68183485D02*
X117879700Y-68469200D01*
X117879700Y-68469200D02*
X118308271Y-68612057D01*
X118308271Y-68612057D02*
X119022557Y-68612057D01*
X114308271Y-68612057D02*
X115308271Y-67183485D01*
X116022557Y-68612057D02*
X116022557Y-65612057D01*
X116022557Y-65612057D02*
X114879700Y-65612057D01*
X114879700Y-65612057D02*
X114593985Y-65754914D01*
X114593985Y-65754914D02*
X114451128Y-65897771D01*
X114451128Y-65897771D02*
X114308271Y-66183485D01*
X114308271Y-66183485D02*
X114308271Y-66612057D01*
X114308271Y-66612057D02*
X114451128Y-66897771D01*
X114451128Y-66897771D02*
X114593985Y-67040628D01*
X114593985Y-67040628D02*
X114879700Y-67183485D01*
X114879700Y-67183485D02*
X116022557Y-67183485D01*
X113022557Y-68612057D02*
X113022557Y-65612057D01*
X113022557Y-65612057D02*
X112022557Y-67754914D01*
X112022557Y-67754914D02*
X111022557Y-65612057D01*
X111022557Y-65612057D02*
X111022557Y-68612057D01*
X107593986Y-65612057D02*
X106879700Y-68612057D01*
X106879700Y-68612057D02*
X106308272Y-66469200D01*
X106308272Y-66469200D02*
X105736843Y-68612057D01*
X105736843Y-68612057D02*
X105022558Y-65612057D01*
X102593987Y-68612057D02*
X102593987Y-67040628D01*
X102593987Y-67040628D02*
X102736844Y-66754914D01*
X102736844Y-66754914D02*
X103022558Y-66612057D01*
X103022558Y-66612057D02*
X103593987Y-66612057D01*
X103593987Y-66612057D02*
X103879701Y-66754914D01*
X102593987Y-68469200D02*
X102879701Y-68612057D01*
X102879701Y-68612057D02*
X103593987Y-68612057D01*
X103593987Y-68612057D02*
X103879701Y-68469200D01*
X103879701Y-68469200D02*
X104022558Y-68183485D01*
X104022558Y-68183485D02*
X104022558Y-67897771D01*
X104022558Y-67897771D02*
X103879701Y-67612057D01*
X103879701Y-67612057D02*
X103593987Y-67469200D01*
X103593987Y-67469200D02*
X102879701Y-67469200D01*
X102879701Y-67469200D02*
X102593987Y-67326342D01*
X101593986Y-66612057D02*
X100451129Y-66612057D01*
X101165415Y-65612057D02*
X101165415Y-68183485D01*
X101165415Y-68183485D02*
X101022558Y-68469200D01*
X101022558Y-68469200D02*
X100736843Y-68612057D01*
X100736843Y-68612057D02*
X100451129Y-68612057D01*
X98165415Y-68469200D02*
X98451129Y-68612057D01*
X98451129Y-68612057D02*
X99022557Y-68612057D01*
X99022557Y-68612057D02*
X99308272Y-68469200D01*
X99308272Y-68469200D02*
X99451129Y-68326342D01*
X99451129Y-68326342D02*
X99593986Y-68040628D01*
X99593986Y-68040628D02*
X99593986Y-67183485D01*
X99593986Y-67183485D02*
X99451129Y-66897771D01*
X99451129Y-66897771D02*
X99308272Y-66754914D01*
X99308272Y-66754914D02*
X99022557Y-66612057D01*
X99022557Y-66612057D02*
X98451129Y-66612057D01*
X98451129Y-66612057D02*
X98165415Y-66754914D01*
X96879700Y-68612057D02*
X96879700Y-65612057D01*
X95593986Y-68612057D02*
X95593986Y-67040628D01*
X95593986Y-67040628D02*
X95736843Y-66754914D01*
X95736843Y-66754914D02*
X96022557Y-66612057D01*
X96022557Y-66612057D02*
X96451128Y-66612057D01*
X96451128Y-66612057D02*
X96736843Y-66754914D01*
X96736843Y-66754914D02*
X96879700Y-66897771D01*
X92308271Y-65612057D02*
X91308271Y-68612057D01*
X91308271Y-68612057D02*
X90308271Y-65612057D01*
X89593985Y-65612057D02*
X87736842Y-65612057D01*
X87736842Y-65612057D02*
X88736842Y-66754914D01*
X88736842Y-66754914D02*
X88308271Y-66754914D01*
X88308271Y-66754914D02*
X88022557Y-66897771D01*
X88022557Y-66897771D02*
X87879699Y-67040628D01*
X87879699Y-67040628D02*
X87736842Y-67326342D01*
X87736842Y-67326342D02*
X87736842Y-68040628D01*
X87736842Y-68040628D02*
X87879699Y-68326342D01*
X87879699Y-68326342D02*
X88022557Y-68469200D01*
X88022557Y-68469200D02*
X88308271Y-68612057D01*
X88308271Y-68612057D02*
X89165414Y-68612057D01*
X89165414Y-68612057D02*
X89451128Y-68469200D01*
X89451128Y-68469200D02*
X89593985Y-68326342D01*
D10*
X118417220Y-74647819D02*
X118417220Y-73647819D01*
X118417220Y-73647819D02*
X118083887Y-74362104D01*
X118083887Y-74362104D02*
X117750554Y-73647819D01*
X117750554Y-73647819D02*
X117750554Y-74647819D01*
X116845792Y-74647819D02*
X116845792Y-74124009D01*
X116845792Y-74124009D02*
X116893411Y-74028771D01*
X116893411Y-74028771D02*
X116988649Y-73981152D01*
X116988649Y-73981152D02*
X117179125Y-73981152D01*
X117179125Y-73981152D02*
X117274363Y-74028771D01*
X116845792Y-74600200D02*
X116941030Y-74647819D01*
X116941030Y-74647819D02*
X117179125Y-74647819D01*
X117179125Y-74647819D02*
X117274363Y-74600200D01*
X117274363Y-74600200D02*
X117321982Y-74504961D01*
X117321982Y-74504961D02*
X117321982Y-74409723D01*
X117321982Y-74409723D02*
X117274363Y-74314485D01*
X117274363Y-74314485D02*
X117179125Y-74266866D01*
X117179125Y-74266866D02*
X116941030Y-74266866D01*
X116941030Y-74266866D02*
X116845792Y-74219247D01*
X115941030Y-74647819D02*
X115941030Y-73647819D01*
X115941030Y-74600200D02*
X116036268Y-74647819D01*
X116036268Y-74647819D02*
X116226744Y-74647819D01*
X116226744Y-74647819D02*
X116321982Y-74600200D01*
X116321982Y-74600200D02*
X116369601Y-74552580D01*
X116369601Y-74552580D02*
X116417220Y-74457342D01*
X116417220Y-74457342D02*
X116417220Y-74171628D01*
X116417220Y-74171628D02*
X116369601Y-74076390D01*
X116369601Y-74076390D02*
X116321982Y-74028771D01*
X116321982Y-74028771D02*
X116226744Y-73981152D01*
X116226744Y-73981152D02*
X116036268Y-73981152D01*
X116036268Y-73981152D02*
X115941030Y-74028771D01*
X115083887Y-74600200D02*
X115179125Y-74647819D01*
X115179125Y-74647819D02*
X115369601Y-74647819D01*
X115369601Y-74647819D02*
X115464839Y-74600200D01*
X115464839Y-74600200D02*
X115512458Y-74504961D01*
X115512458Y-74504961D02*
X115512458Y-74124009D01*
X115512458Y-74124009D02*
X115464839Y-74028771D01*
X115464839Y-74028771D02*
X115369601Y-73981152D01*
X115369601Y-73981152D02*
X115179125Y-73981152D01*
X115179125Y-73981152D02*
X115083887Y-74028771D01*
X115083887Y-74028771D02*
X115036268Y-74124009D01*
X115036268Y-74124009D02*
X115036268Y-74219247D01*
X115036268Y-74219247D02*
X115512458Y-74314485D01*
X113845791Y-74647819D02*
X113845791Y-73981152D01*
X113845791Y-73647819D02*
X113893410Y-73695438D01*
X113893410Y-73695438D02*
X113845791Y-73743057D01*
X113845791Y-73743057D02*
X113798172Y-73695438D01*
X113798172Y-73695438D02*
X113845791Y-73647819D01*
X113845791Y-73647819D02*
X113845791Y-73743057D01*
X113369601Y-73981152D02*
X113369601Y-74647819D01*
X113369601Y-74076390D02*
X113321982Y-74028771D01*
X113321982Y-74028771D02*
X113226744Y-73981152D01*
X113226744Y-73981152D02*
X113083887Y-73981152D01*
X113083887Y-73981152D02*
X112988649Y-74028771D01*
X112988649Y-74028771D02*
X112941030Y-74124009D01*
X112941030Y-74124009D02*
X112941030Y-74647819D01*
X111702934Y-73647819D02*
X111702934Y-74457342D01*
X111702934Y-74457342D02*
X111655315Y-74552580D01*
X111655315Y-74552580D02*
X111607696Y-74600200D01*
X111607696Y-74600200D02*
X111512458Y-74647819D01*
X111512458Y-74647819D02*
X111321982Y-74647819D01*
X111321982Y-74647819D02*
X111226744Y-74600200D01*
X111226744Y-74600200D02*
X111179125Y-74552580D01*
X111179125Y-74552580D02*
X111131506Y-74457342D01*
X111131506Y-74457342D02*
X111131506Y-73647819D01*
X110655315Y-74647819D02*
X110655315Y-73647819D01*
X110560077Y-74266866D02*
X110274363Y-74647819D01*
X110274363Y-73981152D02*
X110655315Y-74362104D01*
X109845791Y-74647819D02*
X109845791Y-73981152D01*
X109845791Y-74171628D02*
X109798172Y-74076390D01*
X109798172Y-74076390D02*
X109750553Y-74028771D01*
X109750553Y-74028771D02*
X109655315Y-73981152D01*
X109655315Y-73981152D02*
X109560077Y-73981152D01*
X108798172Y-74647819D02*
X108798172Y-74124009D01*
X108798172Y-74124009D02*
X108845791Y-74028771D01*
X108845791Y-74028771D02*
X108941029Y-73981152D01*
X108941029Y-73981152D02*
X109131505Y-73981152D01*
X109131505Y-73981152D02*
X109226743Y-74028771D01*
X108798172Y-74600200D02*
X108893410Y-74647819D01*
X108893410Y-74647819D02*
X109131505Y-74647819D01*
X109131505Y-74647819D02*
X109226743Y-74600200D01*
X109226743Y-74600200D02*
X109274362Y-74504961D01*
X109274362Y-74504961D02*
X109274362Y-74409723D01*
X109274362Y-74409723D02*
X109226743Y-74314485D01*
X109226743Y-74314485D02*
X109131505Y-74266866D01*
X109131505Y-74266866D02*
X108893410Y-74266866D01*
X108893410Y-74266866D02*
X108798172Y-74219247D01*
X108321981Y-74647819D02*
X108321981Y-73981152D01*
X108321981Y-73647819D02*
X108369600Y-73695438D01*
X108369600Y-73695438D02*
X108321981Y-73743057D01*
X108321981Y-73743057D02*
X108274362Y-73695438D01*
X108274362Y-73695438D02*
X108321981Y-73647819D01*
X108321981Y-73647819D02*
X108321981Y-73743057D01*
X107845791Y-73981152D02*
X107845791Y-74647819D01*
X107845791Y-74076390D02*
X107798172Y-74028771D01*
X107798172Y-74028771D02*
X107702934Y-73981152D01*
X107702934Y-73981152D02*
X107560077Y-73981152D01*
X107560077Y-73981152D02*
X107464839Y-74028771D01*
X107464839Y-74028771D02*
X107417220Y-74124009D01*
X107417220Y-74124009D02*
X107417220Y-74647819D01*
X106560077Y-74600200D02*
X106655315Y-74647819D01*
X106655315Y-74647819D02*
X106845791Y-74647819D01*
X106845791Y-74647819D02*
X106941029Y-74600200D01*
X106941029Y-74600200D02*
X106988648Y-74504961D01*
X106988648Y-74504961D02*
X106988648Y-74124009D01*
X106988648Y-74124009D02*
X106941029Y-74028771D01*
X106941029Y-74028771D02*
X106845791Y-73981152D01*
X106845791Y-73981152D02*
X106655315Y-73981152D01*
X106655315Y-73981152D02*
X106560077Y-74028771D01*
X106560077Y-74028771D02*
X106512458Y-74124009D01*
X106512458Y-74124009D02*
X106512458Y-74219247D01*
X106512458Y-74219247D02*
X106988648Y-74314485D01*
D12*
X96808704Y-78310408D02*
X96846800Y-78272312D01*
X96846800Y-78272312D02*
X96884895Y-78158027D01*
X96884895Y-78158027D02*
X96884895Y-78081836D01*
X96884895Y-78081836D02*
X96846800Y-77967550D01*
X96846800Y-77967550D02*
X96770609Y-77891360D01*
X96770609Y-77891360D02*
X96694419Y-77853265D01*
X96694419Y-77853265D02*
X96542038Y-77815169D01*
X96542038Y-77815169D02*
X96427752Y-77815169D01*
X96427752Y-77815169D02*
X96275371Y-77853265D01*
X96275371Y-77853265D02*
X96199180Y-77891360D01*
X96199180Y-77891360D02*
X96122990Y-77967550D01*
X96122990Y-77967550D02*
X96084895Y-78081836D01*
X96084895Y-78081836D02*
X96084895Y-78158027D01*
X96084895Y-78158027D02*
X96122990Y-78272312D01*
X96122990Y-78272312D02*
X96161085Y-78310408D01*
X96846800Y-78615169D02*
X96884895Y-78729455D01*
X96884895Y-78729455D02*
X96884895Y-78919931D01*
X96884895Y-78919931D02*
X96846800Y-78996122D01*
X96846800Y-78996122D02*
X96808704Y-79034217D01*
X96808704Y-79034217D02*
X96732514Y-79072312D01*
X96732514Y-79072312D02*
X96656323Y-79072312D01*
X96656323Y-79072312D02*
X96580133Y-79034217D01*
X96580133Y-79034217D02*
X96542038Y-78996122D01*
X96542038Y-78996122D02*
X96503942Y-78919931D01*
X96503942Y-78919931D02*
X96465847Y-78767550D01*
X96465847Y-78767550D02*
X96427752Y-78691360D01*
X96427752Y-78691360D02*
X96389657Y-78653265D01*
X96389657Y-78653265D02*
X96313466Y-78615169D01*
X96313466Y-78615169D02*
X96237276Y-78615169D01*
X96237276Y-78615169D02*
X96161085Y-78653265D01*
X96161085Y-78653265D02*
X96122990Y-78691360D01*
X96122990Y-78691360D02*
X96084895Y-78767550D01*
X96084895Y-78767550D02*
X96084895Y-78958027D01*
X96084895Y-78958027D02*
X96122990Y-79072312D01*
X86445847Y-78157931D02*
X86483942Y-78272217D01*
X86483942Y-78272217D02*
X86522038Y-78310312D01*
X86522038Y-78310312D02*
X86598228Y-78348408D01*
X86598228Y-78348408D02*
X86712514Y-78348408D01*
X86712514Y-78348408D02*
X86788704Y-78310312D01*
X86788704Y-78310312D02*
X86826800Y-78272217D01*
X86826800Y-78272217D02*
X86864895Y-78196027D01*
X86864895Y-78196027D02*
X86864895Y-77891265D01*
X86864895Y-77891265D02*
X86064895Y-77891265D01*
X86064895Y-77891265D02*
X86064895Y-78157931D01*
X86064895Y-78157931D02*
X86102990Y-78234122D01*
X86102990Y-78234122D02*
X86141085Y-78272217D01*
X86141085Y-78272217D02*
X86217276Y-78310312D01*
X86217276Y-78310312D02*
X86293466Y-78310312D01*
X86293466Y-78310312D02*
X86369657Y-78272217D01*
X86369657Y-78272217D02*
X86407752Y-78234122D01*
X86407752Y-78234122D02*
X86445847Y-78157931D01*
X86445847Y-78157931D02*
X86445847Y-77891265D01*
X86864895Y-79072217D02*
X86864895Y-78691265D01*
X86864895Y-78691265D02*
X86064895Y-78691265D01*
X86445847Y-79338884D02*
X86445847Y-79605550D01*
X86864895Y-79719836D02*
X86864895Y-79338884D01*
X86864895Y-79338884D02*
X86064895Y-79338884D01*
X86064895Y-79338884D02*
X86064895Y-79719836D01*
X86864895Y-80062694D02*
X86064895Y-80062694D01*
X86064895Y-80062694D02*
X86864895Y-80519837D01*
X86864895Y-80519837D02*
X86064895Y-80519837D01*
X85454990Y-50459312D02*
X85416895Y-50383122D01*
X85416895Y-50383122D02*
X85416895Y-50268836D01*
X85416895Y-50268836D02*
X85454990Y-50154550D01*
X85454990Y-50154550D02*
X85531180Y-50078360D01*
X85531180Y-50078360D02*
X85607371Y-50040265D01*
X85607371Y-50040265D02*
X85759752Y-50002169D01*
X85759752Y-50002169D02*
X85874038Y-50002169D01*
X85874038Y-50002169D02*
X86026419Y-50040265D01*
X86026419Y-50040265D02*
X86102609Y-50078360D01*
X86102609Y-50078360D02*
X86178800Y-50154550D01*
X86178800Y-50154550D02*
X86216895Y-50268836D01*
X86216895Y-50268836D02*
X86216895Y-50345027D01*
X86216895Y-50345027D02*
X86178800Y-50459312D01*
X86178800Y-50459312D02*
X86140704Y-50497408D01*
X86140704Y-50497408D02*
X85874038Y-50497408D01*
X85874038Y-50497408D02*
X85874038Y-50345027D01*
X86216895Y-50840265D02*
X85416895Y-50840265D01*
X85416895Y-50840265D02*
X86216895Y-51297408D01*
X86216895Y-51297408D02*
X85416895Y-51297408D01*
X86216895Y-51678360D02*
X85416895Y-51678360D01*
X85416895Y-51678360D02*
X85416895Y-51868836D01*
X85416895Y-51868836D02*
X85454990Y-51983122D01*
X85454990Y-51983122D02*
X85531180Y-52059312D01*
X85531180Y-52059312D02*
X85607371Y-52097407D01*
X85607371Y-52097407D02*
X85759752Y-52135503D01*
X85759752Y-52135503D02*
X85874038Y-52135503D01*
X85874038Y-52135503D02*
X86026419Y-52097407D01*
X86026419Y-52097407D02*
X86102609Y-52059312D01*
X86102609Y-52059312D02*
X86178800Y-51983122D01*
X86178800Y-51983122D02*
X86216895Y-51868836D01*
X86216895Y-51868836D02*
X86216895Y-51678360D01*
X123864895Y-65153265D02*
X123064895Y-65153265D01*
X123064895Y-65153265D02*
X123064895Y-65343741D01*
X123064895Y-65343741D02*
X123102990Y-65458027D01*
X123102990Y-65458027D02*
X123179180Y-65534217D01*
X123179180Y-65534217D02*
X123255371Y-65572312D01*
X123255371Y-65572312D02*
X123407752Y-65610408D01*
X123407752Y-65610408D02*
X123522038Y-65610408D01*
X123522038Y-65610408D02*
X123674419Y-65572312D01*
X123674419Y-65572312D02*
X123750609Y-65534217D01*
X123750609Y-65534217D02*
X123826800Y-65458027D01*
X123826800Y-65458027D02*
X123864895Y-65343741D01*
X123864895Y-65343741D02*
X123864895Y-65153265D01*
X123560133Y-65953265D02*
X123560133Y-66562789D01*
X123864895Y-66258027D02*
X123255371Y-66258027D01*
X81945847Y-71657931D02*
X81983942Y-71772217D01*
X81983942Y-71772217D02*
X82022038Y-71810312D01*
X82022038Y-71810312D02*
X82098228Y-71848408D01*
X82098228Y-71848408D02*
X82212514Y-71848408D01*
X82212514Y-71848408D02*
X82288704Y-71810312D01*
X82288704Y-71810312D02*
X82326800Y-71772217D01*
X82326800Y-71772217D02*
X82364895Y-71696027D01*
X82364895Y-71696027D02*
X82364895Y-71391265D01*
X82364895Y-71391265D02*
X81564895Y-71391265D01*
X81564895Y-71391265D02*
X81564895Y-71657931D01*
X81564895Y-71657931D02*
X81602990Y-71734122D01*
X81602990Y-71734122D02*
X81641085Y-71772217D01*
X81641085Y-71772217D02*
X81717276Y-71810312D01*
X81717276Y-71810312D02*
X81793466Y-71810312D01*
X81793466Y-71810312D02*
X81869657Y-71772217D01*
X81869657Y-71772217D02*
X81907752Y-71734122D01*
X81907752Y-71734122D02*
X81945847Y-71657931D01*
X81945847Y-71657931D02*
X81945847Y-71391265D01*
X81564895Y-72191265D02*
X82212514Y-72191265D01*
X82212514Y-72191265D02*
X82288704Y-72229360D01*
X82288704Y-72229360D02*
X82326800Y-72267455D01*
X82326800Y-72267455D02*
X82364895Y-72343646D01*
X82364895Y-72343646D02*
X82364895Y-72496027D01*
X82364895Y-72496027D02*
X82326800Y-72572217D01*
X82326800Y-72572217D02*
X82288704Y-72610312D01*
X82288704Y-72610312D02*
X82212514Y-72648408D01*
X82212514Y-72648408D02*
X81564895Y-72648408D01*
X81564895Y-72915074D02*
X81564895Y-73372217D01*
X82364895Y-73143645D02*
X81564895Y-73143645D01*
X81564895Y-73562693D02*
X81564895Y-74057931D01*
X81564895Y-74057931D02*
X81869657Y-73791265D01*
X81869657Y-73791265D02*
X81869657Y-73905550D01*
X81869657Y-73905550D02*
X81907752Y-73981741D01*
X81907752Y-73981741D02*
X81945847Y-74019836D01*
X81945847Y-74019836D02*
X82022038Y-74057931D01*
X82022038Y-74057931D02*
X82212514Y-74057931D01*
X82212514Y-74057931D02*
X82288704Y-74019836D01*
X82288704Y-74019836D02*
X82326800Y-73981741D01*
X82326800Y-73981741D02*
X82364895Y-73905550D01*
X82364895Y-73905550D02*
X82364895Y-73676979D01*
X82364895Y-73676979D02*
X82326800Y-73600788D01*
X82326800Y-73600788D02*
X82288704Y-73562693D01*
X97227895Y-79910646D02*
X97227895Y-80063027D01*
X97227895Y-80063027D02*
X97265990Y-80139217D01*
X97265990Y-80139217D02*
X97342180Y-80215408D01*
X97342180Y-80215408D02*
X97494561Y-80253503D01*
X97494561Y-80253503D02*
X97761228Y-80253503D01*
X97761228Y-80253503D02*
X97913609Y-80215408D01*
X97913609Y-80215408D02*
X97989800Y-80139217D01*
X97989800Y-80139217D02*
X98027895Y-80063027D01*
X98027895Y-80063027D02*
X98027895Y-79910646D01*
X98027895Y-79910646D02*
X97989800Y-79834455D01*
X97989800Y-79834455D02*
X97913609Y-79758265D01*
X97913609Y-79758265D02*
X97761228Y-79720169D01*
X97761228Y-79720169D02*
X97494561Y-79720169D01*
X97494561Y-79720169D02*
X97342180Y-79758265D01*
X97342180Y-79758265D02*
X97265990Y-79834455D01*
X97265990Y-79834455D02*
X97227895Y-79910646D01*
X98027895Y-80596360D02*
X97227895Y-80596360D01*
X97227895Y-80596360D02*
X98027895Y-81053503D01*
X98027895Y-81053503D02*
X97227895Y-81053503D01*
X76864895Y-74772217D02*
X76864895Y-74391265D01*
X76864895Y-74391265D02*
X76064895Y-74391265D01*
X76445847Y-75038884D02*
X76445847Y-75305550D01*
X76864895Y-75419836D02*
X76864895Y-75038884D01*
X76864895Y-75038884D02*
X76064895Y-75038884D01*
X76064895Y-75038884D02*
X76064895Y-75419836D01*
X76864895Y-75762694D02*
X76064895Y-75762694D01*
X76064895Y-75762694D02*
X76064895Y-75953170D01*
X76064895Y-75953170D02*
X76102990Y-76067456D01*
X76102990Y-76067456D02*
X76179180Y-76143646D01*
X76179180Y-76143646D02*
X76255371Y-76181741D01*
X76255371Y-76181741D02*
X76407752Y-76219837D01*
X76407752Y-76219837D02*
X76522038Y-76219837D01*
X76522038Y-76219837D02*
X76674419Y-76181741D01*
X76674419Y-76181741D02*
X76750609Y-76143646D01*
X76750609Y-76143646D02*
X76826800Y-76067456D01*
X76826800Y-76067456D02*
X76864895Y-75953170D01*
X76864895Y-75953170D02*
X76864895Y-75762694D01*
X76445847Y-77438884D02*
X76483942Y-77553170D01*
X76483942Y-77553170D02*
X76522038Y-77591265D01*
X76522038Y-77591265D02*
X76598228Y-77629361D01*
X76598228Y-77629361D02*
X76712514Y-77629361D01*
X76712514Y-77629361D02*
X76788704Y-77591265D01*
X76788704Y-77591265D02*
X76826800Y-77553170D01*
X76826800Y-77553170D02*
X76864895Y-77476980D01*
X76864895Y-77476980D02*
X76864895Y-77172218D01*
X76864895Y-77172218D02*
X76064895Y-77172218D01*
X76064895Y-77172218D02*
X76064895Y-77438884D01*
X76064895Y-77438884D02*
X76102990Y-77515075D01*
X76102990Y-77515075D02*
X76141085Y-77553170D01*
X76141085Y-77553170D02*
X76217276Y-77591265D01*
X76217276Y-77591265D02*
X76293466Y-77591265D01*
X76293466Y-77591265D02*
X76369657Y-77553170D01*
X76369657Y-77553170D02*
X76407752Y-77515075D01*
X76407752Y-77515075D02*
X76445847Y-77438884D01*
X76445847Y-77438884D02*
X76445847Y-77172218D01*
X76064895Y-78124599D02*
X76064895Y-78276980D01*
X76064895Y-78276980D02*
X76102990Y-78353170D01*
X76102990Y-78353170D02*
X76179180Y-78429361D01*
X76179180Y-78429361D02*
X76331561Y-78467456D01*
X76331561Y-78467456D02*
X76598228Y-78467456D01*
X76598228Y-78467456D02*
X76750609Y-78429361D01*
X76750609Y-78429361D02*
X76826800Y-78353170D01*
X76826800Y-78353170D02*
X76864895Y-78276980D01*
X76864895Y-78276980D02*
X76864895Y-78124599D01*
X76864895Y-78124599D02*
X76826800Y-78048408D01*
X76826800Y-78048408D02*
X76750609Y-77972218D01*
X76750609Y-77972218D02*
X76598228Y-77934122D01*
X76598228Y-77934122D02*
X76331561Y-77934122D01*
X76331561Y-77934122D02*
X76179180Y-77972218D01*
X76179180Y-77972218D02*
X76102990Y-78048408D01*
X76102990Y-78048408D02*
X76064895Y-78124599D01*
X76064895Y-78696027D02*
X76064895Y-79153170D01*
X76864895Y-78924598D02*
X76064895Y-78924598D01*
X126173200Y-56146830D02*
X126135104Y-56032544D01*
X126135104Y-56032544D02*
X126135104Y-55842068D01*
X126135104Y-55842068D02*
X126173200Y-55765877D01*
X126173200Y-55765877D02*
X126211295Y-55727782D01*
X126211295Y-55727782D02*
X126287485Y-55689687D01*
X126287485Y-55689687D02*
X126363676Y-55689687D01*
X126363676Y-55689687D02*
X126439866Y-55727782D01*
X126439866Y-55727782D02*
X126477961Y-55765877D01*
X126477961Y-55765877D02*
X126516057Y-55842068D01*
X126516057Y-55842068D02*
X126554152Y-55994449D01*
X126554152Y-55994449D02*
X126592247Y-56070639D01*
X126592247Y-56070639D02*
X126630342Y-56108734D01*
X126630342Y-56108734D02*
X126706533Y-56146830D01*
X126706533Y-56146830D02*
X126782723Y-56146830D01*
X126782723Y-56146830D02*
X126858914Y-56108734D01*
X126858914Y-56108734D02*
X126897009Y-56070639D01*
X126897009Y-56070639D02*
X126935104Y-55994449D01*
X126935104Y-55994449D02*
X126935104Y-55803972D01*
X126935104Y-55803972D02*
X126897009Y-55689687D01*
X126211295Y-55346829D02*
X126173200Y-55308734D01*
X126173200Y-55308734D02*
X126135104Y-55346829D01*
X126135104Y-55346829D02*
X126173200Y-55384925D01*
X126173200Y-55384925D02*
X126211295Y-55346829D01*
X126211295Y-55346829D02*
X126135104Y-55346829D01*
X126935104Y-54965877D02*
X126287485Y-54965877D01*
X126287485Y-54965877D02*
X126211295Y-54927782D01*
X126211295Y-54927782D02*
X126173200Y-54889687D01*
X126173200Y-54889687D02*
X126135104Y-54813496D01*
X126135104Y-54813496D02*
X126135104Y-54661115D01*
X126135104Y-54661115D02*
X126173200Y-54584925D01*
X126173200Y-54584925D02*
X126211295Y-54546830D01*
X126211295Y-54546830D02*
X126287485Y-54508734D01*
X126287485Y-54508734D02*
X126935104Y-54508734D01*
X126173200Y-54165878D02*
X126135104Y-54051592D01*
X126135104Y-54051592D02*
X126135104Y-53861116D01*
X126135104Y-53861116D02*
X126173200Y-53784925D01*
X126173200Y-53784925D02*
X126211295Y-53746830D01*
X126211295Y-53746830D02*
X126287485Y-53708735D01*
X126287485Y-53708735D02*
X126363676Y-53708735D01*
X126363676Y-53708735D02*
X126439866Y-53746830D01*
X126439866Y-53746830D02*
X126477961Y-53784925D01*
X126477961Y-53784925D02*
X126516057Y-53861116D01*
X126516057Y-53861116D02*
X126554152Y-54013497D01*
X126554152Y-54013497D02*
X126592247Y-54089687D01*
X126592247Y-54089687D02*
X126630342Y-54127782D01*
X126630342Y-54127782D02*
X126706533Y-54165878D01*
X126706533Y-54165878D02*
X126782723Y-54165878D01*
X126782723Y-54165878D02*
X126858914Y-54127782D01*
X126858914Y-54127782D02*
X126897009Y-54089687D01*
X126897009Y-54089687D02*
X126935104Y-54013497D01*
X126935104Y-54013497D02*
X126935104Y-53823020D01*
X126935104Y-53823020D02*
X126897009Y-53708735D01*
X126554152Y-53099211D02*
X126516057Y-52984925D01*
X126516057Y-52984925D02*
X126477961Y-52946830D01*
X126477961Y-52946830D02*
X126401771Y-52908734D01*
X126401771Y-52908734D02*
X126287485Y-52908734D01*
X126287485Y-52908734D02*
X126211295Y-52946830D01*
X126211295Y-52946830D02*
X126173200Y-52984925D01*
X126173200Y-52984925D02*
X126135104Y-53061115D01*
X126135104Y-53061115D02*
X126135104Y-53365877D01*
X126135104Y-53365877D02*
X126935104Y-53365877D01*
X126935104Y-53365877D02*
X126935104Y-53099211D01*
X126935104Y-53099211D02*
X126897009Y-53023020D01*
X126897009Y-53023020D02*
X126858914Y-52984925D01*
X126858914Y-52984925D02*
X126782723Y-52946830D01*
X126782723Y-52946830D02*
X126706533Y-52946830D01*
X126706533Y-52946830D02*
X126630342Y-52984925D01*
X126630342Y-52984925D02*
X126592247Y-53023020D01*
X126592247Y-53023020D02*
X126554152Y-53099211D01*
X126554152Y-53099211D02*
X126554152Y-53365877D01*
X88326800Y-45853169D02*
X88364895Y-45967455D01*
X88364895Y-45967455D02*
X88364895Y-46157931D01*
X88364895Y-46157931D02*
X88326800Y-46234122D01*
X88326800Y-46234122D02*
X88288704Y-46272217D01*
X88288704Y-46272217D02*
X88212514Y-46310312D01*
X88212514Y-46310312D02*
X88136323Y-46310312D01*
X88136323Y-46310312D02*
X88060133Y-46272217D01*
X88060133Y-46272217D02*
X88022038Y-46234122D01*
X88022038Y-46234122D02*
X87983942Y-46157931D01*
X87983942Y-46157931D02*
X87945847Y-46005550D01*
X87945847Y-46005550D02*
X87907752Y-45929360D01*
X87907752Y-45929360D02*
X87869657Y-45891265D01*
X87869657Y-45891265D02*
X87793466Y-45853169D01*
X87793466Y-45853169D02*
X87717276Y-45853169D01*
X87717276Y-45853169D02*
X87641085Y-45891265D01*
X87641085Y-45891265D02*
X87602990Y-45929360D01*
X87602990Y-45929360D02*
X87564895Y-46005550D01*
X87564895Y-46005550D02*
X87564895Y-46196027D01*
X87564895Y-46196027D02*
X87602990Y-46310312D01*
X88288704Y-46653170D02*
X88326800Y-46691265D01*
X88326800Y-46691265D02*
X88364895Y-46653170D01*
X88364895Y-46653170D02*
X88326800Y-46615074D01*
X88326800Y-46615074D02*
X88288704Y-46653170D01*
X88288704Y-46653170D02*
X88364895Y-46653170D01*
X87945847Y-47300788D02*
X87983942Y-47415074D01*
X87983942Y-47415074D02*
X88022038Y-47453169D01*
X88022038Y-47453169D02*
X88098228Y-47491265D01*
X88098228Y-47491265D02*
X88212514Y-47491265D01*
X88212514Y-47491265D02*
X88288704Y-47453169D01*
X88288704Y-47453169D02*
X88326800Y-47415074D01*
X88326800Y-47415074D02*
X88364895Y-47338884D01*
X88364895Y-47338884D02*
X88364895Y-47034122D01*
X88364895Y-47034122D02*
X87564895Y-47034122D01*
X87564895Y-47034122D02*
X87564895Y-47300788D01*
X87564895Y-47300788D02*
X87602990Y-47376979D01*
X87602990Y-47376979D02*
X87641085Y-47415074D01*
X87641085Y-47415074D02*
X87717276Y-47453169D01*
X87717276Y-47453169D02*
X87793466Y-47453169D01*
X87793466Y-47453169D02*
X87869657Y-47415074D01*
X87869657Y-47415074D02*
X87907752Y-47376979D01*
X87907752Y-47376979D02*
X87945847Y-47300788D01*
X87945847Y-47300788D02*
X87945847Y-47034122D01*
X88136323Y-47796026D02*
X88136323Y-48176979D01*
X88364895Y-47719836D02*
X87564895Y-47986503D01*
X87564895Y-47986503D02*
X88364895Y-48253169D01*
X87564895Y-48405550D02*
X87564895Y-48862693D01*
X88364895Y-48634121D02*
X87564895Y-48634121D01*
X111324800Y-83911169D02*
X111362895Y-84025455D01*
X111362895Y-84025455D02*
X111362895Y-84215931D01*
X111362895Y-84215931D02*
X111324800Y-84292122D01*
X111324800Y-84292122D02*
X111286704Y-84330217D01*
X111286704Y-84330217D02*
X111210514Y-84368312D01*
X111210514Y-84368312D02*
X111134323Y-84368312D01*
X111134323Y-84368312D02*
X111058133Y-84330217D01*
X111058133Y-84330217D02*
X111020038Y-84292122D01*
X111020038Y-84292122D02*
X110981942Y-84215931D01*
X110981942Y-84215931D02*
X110943847Y-84063550D01*
X110943847Y-84063550D02*
X110905752Y-83987360D01*
X110905752Y-83987360D02*
X110867657Y-83949265D01*
X110867657Y-83949265D02*
X110791466Y-83911169D01*
X110791466Y-83911169D02*
X110715276Y-83911169D01*
X110715276Y-83911169D02*
X110639085Y-83949265D01*
X110639085Y-83949265D02*
X110600990Y-83987360D01*
X110600990Y-83987360D02*
X110562895Y-84063550D01*
X110562895Y-84063550D02*
X110562895Y-84254027D01*
X110562895Y-84254027D02*
X110600990Y-84368312D01*
X111286704Y-85168313D02*
X111324800Y-85130217D01*
X111324800Y-85130217D02*
X111362895Y-85015932D01*
X111362895Y-85015932D02*
X111362895Y-84939741D01*
X111362895Y-84939741D02*
X111324800Y-84825455D01*
X111324800Y-84825455D02*
X111248609Y-84749265D01*
X111248609Y-84749265D02*
X111172419Y-84711170D01*
X111172419Y-84711170D02*
X111020038Y-84673074D01*
X111020038Y-84673074D02*
X110905752Y-84673074D01*
X110905752Y-84673074D02*
X110753371Y-84711170D01*
X110753371Y-84711170D02*
X110677180Y-84749265D01*
X110677180Y-84749265D02*
X110600990Y-84825455D01*
X110600990Y-84825455D02*
X110562895Y-84939741D01*
X110562895Y-84939741D02*
X110562895Y-85015932D01*
X110562895Y-85015932D02*
X110600990Y-85130217D01*
X110600990Y-85130217D02*
X110639085Y-85168313D01*
X111362895Y-85892122D02*
X111362895Y-85511170D01*
X111362895Y-85511170D02*
X110562895Y-85511170D01*
X115186214Y-60776447D02*
X114386214Y-60776447D01*
X114386214Y-60776447D02*
X114386214Y-60966923D01*
X114386214Y-60966923D02*
X114424309Y-61081209D01*
X114424309Y-61081209D02*
X114500499Y-61157399D01*
X114500499Y-61157399D02*
X114576690Y-61195494D01*
X114576690Y-61195494D02*
X114729071Y-61233590D01*
X114729071Y-61233590D02*
X114843357Y-61233590D01*
X114843357Y-61233590D02*
X114995738Y-61195494D01*
X114995738Y-61195494D02*
X115071928Y-61157399D01*
X115071928Y-61157399D02*
X115148119Y-61081209D01*
X115148119Y-61081209D02*
X115186214Y-60966923D01*
X115186214Y-60966923D02*
X115186214Y-60776447D01*
X115186214Y-61995494D02*
X115186214Y-61538351D01*
X115186214Y-61766923D02*
X114386214Y-61766923D01*
X114386214Y-61766923D02*
X114500499Y-61690732D01*
X114500499Y-61690732D02*
X114576690Y-61614542D01*
X114576690Y-61614542D02*
X114614785Y-61538351D01*
X114386214Y-62262161D02*
X114386214Y-62757399D01*
X114386214Y-62757399D02*
X114690976Y-62490733D01*
X114690976Y-62490733D02*
X114690976Y-62605018D01*
X114690976Y-62605018D02*
X114729071Y-62681209D01*
X114729071Y-62681209D02*
X114767166Y-62719304D01*
X114767166Y-62719304D02*
X114843357Y-62757399D01*
X114843357Y-62757399D02*
X115033833Y-62757399D01*
X115033833Y-62757399D02*
X115110023Y-62719304D01*
X115110023Y-62719304D02*
X115148119Y-62681209D01*
X115148119Y-62681209D02*
X115186214Y-62605018D01*
X115186214Y-62605018D02*
X115186214Y-62376447D01*
X115186214Y-62376447D02*
X115148119Y-62300256D01*
X115148119Y-62300256D02*
X115110023Y-62262161D01*
X95703800Y-79720169D02*
X95741895Y-79834455D01*
X95741895Y-79834455D02*
X95741895Y-80024931D01*
X95741895Y-80024931D02*
X95703800Y-80101122D01*
X95703800Y-80101122D02*
X95665704Y-80139217D01*
X95665704Y-80139217D02*
X95589514Y-80177312D01*
X95589514Y-80177312D02*
X95513323Y-80177312D01*
X95513323Y-80177312D02*
X95437133Y-80139217D01*
X95437133Y-80139217D02*
X95399038Y-80101122D01*
X95399038Y-80101122D02*
X95360942Y-80024931D01*
X95360942Y-80024931D02*
X95322847Y-79872550D01*
X95322847Y-79872550D02*
X95284752Y-79796360D01*
X95284752Y-79796360D02*
X95246657Y-79758265D01*
X95246657Y-79758265D02*
X95170466Y-79720169D01*
X95170466Y-79720169D02*
X95094276Y-79720169D01*
X95094276Y-79720169D02*
X95018085Y-79758265D01*
X95018085Y-79758265D02*
X94979990Y-79796360D01*
X94979990Y-79796360D02*
X94941895Y-79872550D01*
X94941895Y-79872550D02*
X94941895Y-80063027D01*
X94941895Y-80063027D02*
X94979990Y-80177312D01*
X95741895Y-80520170D02*
X94941895Y-80520170D01*
X94941895Y-80520170D02*
X94941895Y-80710646D01*
X94941895Y-80710646D02*
X94979990Y-80824932D01*
X94979990Y-80824932D02*
X95056180Y-80901122D01*
X95056180Y-80901122D02*
X95132371Y-80939217D01*
X95132371Y-80939217D02*
X95284752Y-80977313D01*
X95284752Y-80977313D02*
X95399038Y-80977313D01*
X95399038Y-80977313D02*
X95551419Y-80939217D01*
X95551419Y-80939217D02*
X95627609Y-80901122D01*
X95627609Y-80901122D02*
X95703800Y-80824932D01*
X95703800Y-80824932D02*
X95741895Y-80710646D01*
X95741895Y-80710646D02*
X95741895Y-80520170D01*
X95513323Y-81282074D02*
X95513323Y-81663027D01*
X95741895Y-81205884D02*
X94941895Y-81472551D01*
X94941895Y-81472551D02*
X95741895Y-81739217D01*
X120686214Y-58276447D02*
X119886214Y-58276447D01*
X119886214Y-58276447D02*
X119886214Y-58466923D01*
X119886214Y-58466923D02*
X119924309Y-58581209D01*
X119924309Y-58581209D02*
X120000499Y-58657399D01*
X120000499Y-58657399D02*
X120076690Y-58695494D01*
X120076690Y-58695494D02*
X120229071Y-58733590D01*
X120229071Y-58733590D02*
X120343357Y-58733590D01*
X120343357Y-58733590D02*
X120495738Y-58695494D01*
X120495738Y-58695494D02*
X120571928Y-58657399D01*
X120571928Y-58657399D02*
X120648119Y-58581209D01*
X120648119Y-58581209D02*
X120686214Y-58466923D01*
X120686214Y-58466923D02*
X120686214Y-58276447D01*
X119962404Y-59038351D02*
X119924309Y-59076447D01*
X119924309Y-59076447D02*
X119886214Y-59152637D01*
X119886214Y-59152637D02*
X119886214Y-59343113D01*
X119886214Y-59343113D02*
X119924309Y-59419304D01*
X119924309Y-59419304D02*
X119962404Y-59457399D01*
X119962404Y-59457399D02*
X120038595Y-59495494D01*
X120038595Y-59495494D02*
X120114785Y-59495494D01*
X120114785Y-59495494D02*
X120229071Y-59457399D01*
X120229071Y-59457399D02*
X120686214Y-59000256D01*
X120686214Y-59000256D02*
X120686214Y-59495494D01*
X120686214Y-60257399D02*
X120686214Y-59800256D01*
X120686214Y-60028828D02*
X119886214Y-60028828D01*
X119886214Y-60028828D02*
X120000499Y-59952637D01*
X120000499Y-59952637D02*
X120076690Y-59876447D01*
X120076690Y-59876447D02*
X120114785Y-59800256D01*
X101064895Y-48315074D02*
X101064895Y-48810312D01*
X101064895Y-48810312D02*
X101369657Y-48543646D01*
X101369657Y-48543646D02*
X101369657Y-48657931D01*
X101369657Y-48657931D02*
X101407752Y-48734122D01*
X101407752Y-48734122D02*
X101445847Y-48772217D01*
X101445847Y-48772217D02*
X101522038Y-48810312D01*
X101522038Y-48810312D02*
X101712514Y-48810312D01*
X101712514Y-48810312D02*
X101788704Y-48772217D01*
X101788704Y-48772217D02*
X101826800Y-48734122D01*
X101826800Y-48734122D02*
X101864895Y-48657931D01*
X101864895Y-48657931D02*
X101864895Y-48429360D01*
X101864895Y-48429360D02*
X101826800Y-48353169D01*
X101826800Y-48353169D02*
X101788704Y-48315074D01*
X101064895Y-49038884D02*
X101864895Y-49305551D01*
X101864895Y-49305551D02*
X101064895Y-49572217D01*
X101064895Y-49762693D02*
X101064895Y-50257931D01*
X101064895Y-50257931D02*
X101369657Y-49991265D01*
X101369657Y-49991265D02*
X101369657Y-50105550D01*
X101369657Y-50105550D02*
X101407752Y-50181741D01*
X101407752Y-50181741D02*
X101445847Y-50219836D01*
X101445847Y-50219836D02*
X101522038Y-50257931D01*
X101522038Y-50257931D02*
X101712514Y-50257931D01*
X101712514Y-50257931D02*
X101788704Y-50219836D01*
X101788704Y-50219836D02*
X101826800Y-50181741D01*
X101826800Y-50181741D02*
X101864895Y-50105550D01*
X101864895Y-50105550D02*
X101864895Y-49876979D01*
X101864895Y-49876979D02*
X101826800Y-49800788D01*
X101826800Y-49800788D02*
X101788704Y-49762693D01*
X125435104Y-61723020D02*
X124635104Y-61456353D01*
X124635104Y-61456353D02*
X125435104Y-61189687D01*
X125054152Y-60656354D02*
X125016057Y-60542068D01*
X125016057Y-60542068D02*
X124977961Y-60503973D01*
X124977961Y-60503973D02*
X124901771Y-60465877D01*
X124901771Y-60465877D02*
X124787485Y-60465877D01*
X124787485Y-60465877D02*
X124711295Y-60503973D01*
X124711295Y-60503973D02*
X124673200Y-60542068D01*
X124673200Y-60542068D02*
X124635104Y-60618258D01*
X124635104Y-60618258D02*
X124635104Y-60923020D01*
X124635104Y-60923020D02*
X125435104Y-60923020D01*
X125435104Y-60923020D02*
X125435104Y-60656354D01*
X125435104Y-60656354D02*
X125397009Y-60580163D01*
X125397009Y-60580163D02*
X125358914Y-60542068D01*
X125358914Y-60542068D02*
X125282723Y-60503973D01*
X125282723Y-60503973D02*
X125206533Y-60503973D01*
X125206533Y-60503973D02*
X125130342Y-60542068D01*
X125130342Y-60542068D02*
X125092247Y-60580163D01*
X125092247Y-60580163D02*
X125054152Y-60656354D01*
X125054152Y-60656354D02*
X125054152Y-60923020D01*
X125435104Y-60123020D02*
X124787485Y-60123020D01*
X124787485Y-60123020D02*
X124711295Y-60084925D01*
X124711295Y-60084925D02*
X124673200Y-60046830D01*
X124673200Y-60046830D02*
X124635104Y-59970639D01*
X124635104Y-59970639D02*
X124635104Y-59818258D01*
X124635104Y-59818258D02*
X124673200Y-59742068D01*
X124673200Y-59742068D02*
X124711295Y-59703973D01*
X124711295Y-59703973D02*
X124787485Y-59665877D01*
X124787485Y-59665877D02*
X125435104Y-59665877D01*
X124673200Y-59323021D02*
X124635104Y-59208735D01*
X124635104Y-59208735D02*
X124635104Y-59018259D01*
X124635104Y-59018259D02*
X124673200Y-58942068D01*
X124673200Y-58942068D02*
X124711295Y-58903973D01*
X124711295Y-58903973D02*
X124787485Y-58865878D01*
X124787485Y-58865878D02*
X124863676Y-58865878D01*
X124863676Y-58865878D02*
X124939866Y-58903973D01*
X124939866Y-58903973D02*
X124977961Y-58942068D01*
X124977961Y-58942068D02*
X125016057Y-59018259D01*
X125016057Y-59018259D02*
X125054152Y-59170640D01*
X125054152Y-59170640D02*
X125092247Y-59246830D01*
X125092247Y-59246830D02*
X125130342Y-59284925D01*
X125130342Y-59284925D02*
X125206533Y-59323021D01*
X125206533Y-59323021D02*
X125282723Y-59323021D01*
X125282723Y-59323021D02*
X125358914Y-59284925D01*
X125358914Y-59284925D02*
X125397009Y-59246830D01*
X125397009Y-59246830D02*
X125435104Y-59170640D01*
X125435104Y-59170640D02*
X125435104Y-58980163D01*
X125435104Y-58980163D02*
X125397009Y-58865878D01*
X116848227Y-62241323D02*
X116048227Y-62241323D01*
X116048227Y-62241323D02*
X116048227Y-62431799D01*
X116048227Y-62431799D02*
X116086322Y-62546085D01*
X116086322Y-62546085D02*
X116162512Y-62622275D01*
X116162512Y-62622275D02*
X116238703Y-62660370D01*
X116238703Y-62660370D02*
X116391084Y-62698466D01*
X116391084Y-62698466D02*
X116505370Y-62698466D01*
X116505370Y-62698466D02*
X116657751Y-62660370D01*
X116657751Y-62660370D02*
X116733941Y-62622275D01*
X116733941Y-62622275D02*
X116810132Y-62546085D01*
X116810132Y-62546085D02*
X116848227Y-62431799D01*
X116848227Y-62431799D02*
X116848227Y-62241323D01*
X116848227Y-63460370D02*
X116848227Y-63003227D01*
X116848227Y-63231799D02*
X116048227Y-63231799D01*
X116048227Y-63231799D02*
X116162512Y-63155608D01*
X116162512Y-63155608D02*
X116238703Y-63079418D01*
X116238703Y-63079418D02*
X116276798Y-63003227D01*
X116314893Y-64146085D02*
X116848227Y-64146085D01*
X116010132Y-63955609D02*
X116581560Y-63765132D01*
X116581560Y-63765132D02*
X116581560Y-64260371D01*
X75445847Y-63657931D02*
X75483942Y-63772217D01*
X75483942Y-63772217D02*
X75522038Y-63810312D01*
X75522038Y-63810312D02*
X75598228Y-63848408D01*
X75598228Y-63848408D02*
X75712514Y-63848408D01*
X75712514Y-63848408D02*
X75788704Y-63810312D01*
X75788704Y-63810312D02*
X75826800Y-63772217D01*
X75826800Y-63772217D02*
X75864895Y-63696027D01*
X75864895Y-63696027D02*
X75864895Y-63391265D01*
X75864895Y-63391265D02*
X75064895Y-63391265D01*
X75064895Y-63391265D02*
X75064895Y-63657931D01*
X75064895Y-63657931D02*
X75102990Y-63734122D01*
X75102990Y-63734122D02*
X75141085Y-63772217D01*
X75141085Y-63772217D02*
X75217276Y-63810312D01*
X75217276Y-63810312D02*
X75293466Y-63810312D01*
X75293466Y-63810312D02*
X75369657Y-63772217D01*
X75369657Y-63772217D02*
X75407752Y-63734122D01*
X75407752Y-63734122D02*
X75445847Y-63657931D01*
X75445847Y-63657931D02*
X75445847Y-63391265D01*
X75064895Y-64191265D02*
X75712514Y-64191265D01*
X75712514Y-64191265D02*
X75788704Y-64229360D01*
X75788704Y-64229360D02*
X75826800Y-64267455D01*
X75826800Y-64267455D02*
X75864895Y-64343646D01*
X75864895Y-64343646D02*
X75864895Y-64496027D01*
X75864895Y-64496027D02*
X75826800Y-64572217D01*
X75826800Y-64572217D02*
X75788704Y-64610312D01*
X75788704Y-64610312D02*
X75712514Y-64648408D01*
X75712514Y-64648408D02*
X75064895Y-64648408D01*
X75064895Y-64915074D02*
X75064895Y-65372217D01*
X75864895Y-65143645D02*
X75064895Y-65143645D01*
X75141085Y-65600788D02*
X75102990Y-65638884D01*
X75102990Y-65638884D02*
X75064895Y-65715074D01*
X75064895Y-65715074D02*
X75064895Y-65905550D01*
X75064895Y-65905550D02*
X75102990Y-65981741D01*
X75102990Y-65981741D02*
X75141085Y-66019836D01*
X75141085Y-66019836D02*
X75217276Y-66057931D01*
X75217276Y-66057931D02*
X75293466Y-66057931D01*
X75293466Y-66057931D02*
X75407752Y-66019836D01*
X75407752Y-66019836D02*
X75864895Y-65562693D01*
X75864895Y-65562693D02*
X75864895Y-66057931D01*
X74864895Y-58272217D02*
X74864895Y-57891265D01*
X74864895Y-57891265D02*
X74064895Y-57891265D01*
X74445847Y-58538884D02*
X74445847Y-58805550D01*
X74864895Y-58919836D02*
X74864895Y-58538884D01*
X74864895Y-58538884D02*
X74064895Y-58538884D01*
X74064895Y-58538884D02*
X74064895Y-58919836D01*
X74864895Y-59262694D02*
X74064895Y-59262694D01*
X74064895Y-59262694D02*
X74064895Y-59453170D01*
X74064895Y-59453170D02*
X74102990Y-59567456D01*
X74102990Y-59567456D02*
X74179180Y-59643646D01*
X74179180Y-59643646D02*
X74255371Y-59681741D01*
X74255371Y-59681741D02*
X74407752Y-59719837D01*
X74407752Y-59719837D02*
X74522038Y-59719837D01*
X74522038Y-59719837D02*
X74674419Y-59681741D01*
X74674419Y-59681741D02*
X74750609Y-59643646D01*
X74750609Y-59643646D02*
X74826800Y-59567456D01*
X74826800Y-59567456D02*
X74864895Y-59453170D01*
X74864895Y-59453170D02*
X74864895Y-59262694D01*
X74064895Y-60557932D02*
X74064895Y-61015075D01*
X74864895Y-60786503D02*
X74064895Y-60786503D01*
X74064895Y-61434123D02*
X74064895Y-61586504D01*
X74064895Y-61586504D02*
X74102990Y-61662694D01*
X74102990Y-61662694D02*
X74179180Y-61738885D01*
X74179180Y-61738885D02*
X74331561Y-61776980D01*
X74331561Y-61776980D02*
X74598228Y-61776980D01*
X74598228Y-61776980D02*
X74750609Y-61738885D01*
X74750609Y-61738885D02*
X74826800Y-61662694D01*
X74826800Y-61662694D02*
X74864895Y-61586504D01*
X74864895Y-61586504D02*
X74864895Y-61434123D01*
X74864895Y-61434123D02*
X74826800Y-61357932D01*
X74826800Y-61357932D02*
X74750609Y-61281742D01*
X74750609Y-61281742D02*
X74598228Y-61243646D01*
X74598228Y-61243646D02*
X74331561Y-61243646D01*
X74331561Y-61243646D02*
X74179180Y-61281742D01*
X74179180Y-61281742D02*
X74102990Y-61357932D01*
X74102990Y-61357932D02*
X74064895Y-61434123D01*
X74864895Y-62119837D02*
X74064895Y-62119837D01*
X74064895Y-62119837D02*
X74064895Y-62424599D01*
X74064895Y-62424599D02*
X74102990Y-62500789D01*
X74102990Y-62500789D02*
X74141085Y-62538884D01*
X74141085Y-62538884D02*
X74217276Y-62576980D01*
X74217276Y-62576980D02*
X74331561Y-62576980D01*
X74331561Y-62576980D02*
X74407752Y-62538884D01*
X74407752Y-62538884D02*
X74445847Y-62500789D01*
X74445847Y-62500789D02*
X74483942Y-62424599D01*
X74483942Y-62424599D02*
X74483942Y-62119837D01*
X109038800Y-83911169D02*
X109076895Y-84025455D01*
X109076895Y-84025455D02*
X109076895Y-84215931D01*
X109076895Y-84215931D02*
X109038800Y-84292122D01*
X109038800Y-84292122D02*
X109000704Y-84330217D01*
X109000704Y-84330217D02*
X108924514Y-84368312D01*
X108924514Y-84368312D02*
X108848323Y-84368312D01*
X108848323Y-84368312D02*
X108772133Y-84330217D01*
X108772133Y-84330217D02*
X108734038Y-84292122D01*
X108734038Y-84292122D02*
X108695942Y-84215931D01*
X108695942Y-84215931D02*
X108657847Y-84063550D01*
X108657847Y-84063550D02*
X108619752Y-83987360D01*
X108619752Y-83987360D02*
X108581657Y-83949265D01*
X108581657Y-83949265D02*
X108505466Y-83911169D01*
X108505466Y-83911169D02*
X108429276Y-83911169D01*
X108429276Y-83911169D02*
X108353085Y-83949265D01*
X108353085Y-83949265D02*
X108314990Y-83987360D01*
X108314990Y-83987360D02*
X108276895Y-84063550D01*
X108276895Y-84063550D02*
X108276895Y-84254027D01*
X108276895Y-84254027D02*
X108314990Y-84368312D01*
X109076895Y-84711170D02*
X108276895Y-84711170D01*
X108276895Y-84711170D02*
X108276895Y-84901646D01*
X108276895Y-84901646D02*
X108314990Y-85015932D01*
X108314990Y-85015932D02*
X108391180Y-85092122D01*
X108391180Y-85092122D02*
X108467371Y-85130217D01*
X108467371Y-85130217D02*
X108619752Y-85168313D01*
X108619752Y-85168313D02*
X108734038Y-85168313D01*
X108734038Y-85168313D02*
X108886419Y-85130217D01*
X108886419Y-85130217D02*
X108962609Y-85092122D01*
X108962609Y-85092122D02*
X109038800Y-85015932D01*
X109038800Y-85015932D02*
X109076895Y-84901646D01*
X109076895Y-84901646D02*
X109076895Y-84711170D01*
X108848323Y-85473074D02*
X108848323Y-85854027D01*
X109076895Y-85396884D02*
X108276895Y-85663551D01*
X108276895Y-85663551D02*
X109076895Y-85930217D01*
X110102990Y-47310312D02*
X110064895Y-47234122D01*
X110064895Y-47234122D02*
X110064895Y-47119836D01*
X110064895Y-47119836D02*
X110102990Y-47005550D01*
X110102990Y-47005550D02*
X110179180Y-46929360D01*
X110179180Y-46929360D02*
X110255371Y-46891265D01*
X110255371Y-46891265D02*
X110407752Y-46853169D01*
X110407752Y-46853169D02*
X110522038Y-46853169D01*
X110522038Y-46853169D02*
X110674419Y-46891265D01*
X110674419Y-46891265D02*
X110750609Y-46929360D01*
X110750609Y-46929360D02*
X110826800Y-47005550D01*
X110826800Y-47005550D02*
X110864895Y-47119836D01*
X110864895Y-47119836D02*
X110864895Y-47196027D01*
X110864895Y-47196027D02*
X110826800Y-47310312D01*
X110826800Y-47310312D02*
X110788704Y-47348408D01*
X110788704Y-47348408D02*
X110522038Y-47348408D01*
X110522038Y-47348408D02*
X110522038Y-47196027D01*
X110864895Y-47691265D02*
X110064895Y-47691265D01*
X110064895Y-47691265D02*
X110864895Y-48148408D01*
X110864895Y-48148408D02*
X110064895Y-48148408D01*
X110864895Y-48529360D02*
X110064895Y-48529360D01*
X110064895Y-48529360D02*
X110064895Y-48719836D01*
X110064895Y-48719836D02*
X110102990Y-48834122D01*
X110102990Y-48834122D02*
X110179180Y-48910312D01*
X110179180Y-48910312D02*
X110255371Y-48948407D01*
X110255371Y-48948407D02*
X110407752Y-48986503D01*
X110407752Y-48986503D02*
X110522038Y-48986503D01*
X110522038Y-48986503D02*
X110674419Y-48948407D01*
X110674419Y-48948407D02*
X110750609Y-48910312D01*
X110750609Y-48910312D02*
X110826800Y-48834122D01*
X110826800Y-48834122D02*
X110864895Y-48719836D01*
X110864895Y-48719836D02*
X110864895Y-48529360D01*
X89988895Y-50560979D02*
X90788895Y-50827646D01*
X90788895Y-50827646D02*
X89988895Y-51094312D01*
X90369847Y-51627645D02*
X90407942Y-51741931D01*
X90407942Y-51741931D02*
X90446038Y-51780026D01*
X90446038Y-51780026D02*
X90522228Y-51818122D01*
X90522228Y-51818122D02*
X90636514Y-51818122D01*
X90636514Y-51818122D02*
X90712704Y-51780026D01*
X90712704Y-51780026D02*
X90750800Y-51741931D01*
X90750800Y-51741931D02*
X90788895Y-51665741D01*
X90788895Y-51665741D02*
X90788895Y-51360979D01*
X90788895Y-51360979D02*
X89988895Y-51360979D01*
X89988895Y-51360979D02*
X89988895Y-51627645D01*
X89988895Y-51627645D02*
X90026990Y-51703836D01*
X90026990Y-51703836D02*
X90065085Y-51741931D01*
X90065085Y-51741931D02*
X90141276Y-51780026D01*
X90141276Y-51780026D02*
X90217466Y-51780026D01*
X90217466Y-51780026D02*
X90293657Y-51741931D01*
X90293657Y-51741931D02*
X90331752Y-51703836D01*
X90331752Y-51703836D02*
X90369847Y-51627645D01*
X90369847Y-51627645D02*
X90369847Y-51360979D01*
X90560323Y-52122883D02*
X90560323Y-52503836D01*
X90788895Y-52046693D02*
X89988895Y-52313360D01*
X89988895Y-52313360D02*
X90788895Y-52580026D01*
X89988895Y-52732407D02*
X89988895Y-53189550D01*
X90788895Y-52960978D02*
X89988895Y-52960978D01*
X85849734Y-86686847D02*
X85583068Y-86686847D01*
X85468782Y-87105895D02*
X85849734Y-87105895D01*
X85849734Y-87105895D02*
X85849734Y-86305895D01*
X85849734Y-86305895D02*
X85468782Y-86305895D01*
X84744972Y-87105895D02*
X85125924Y-87105895D01*
X85125924Y-87105895D02*
X85125924Y-86305895D01*
X84059258Y-87105895D02*
X84516401Y-87105895D01*
X84287829Y-87105895D02*
X84287829Y-86305895D01*
X84287829Y-86305895D02*
X84364020Y-86420180D01*
X84364020Y-86420180D02*
X84440210Y-86496371D01*
X84440210Y-86496371D02*
X84516401Y-86534466D01*
X79880734Y-86686847D02*
X79614068Y-86686847D01*
X79499782Y-87105895D02*
X79880734Y-87105895D01*
X79880734Y-87105895D02*
X79880734Y-86305895D01*
X79880734Y-86305895D02*
X79499782Y-86305895D01*
X78775972Y-87105895D02*
X79156924Y-87105895D01*
X79156924Y-87105895D02*
X79156924Y-86305895D01*
X78547401Y-86382085D02*
X78509305Y-86343990D01*
X78509305Y-86343990D02*
X78433115Y-86305895D01*
X78433115Y-86305895D02*
X78242639Y-86305895D01*
X78242639Y-86305895D02*
X78166448Y-86343990D01*
X78166448Y-86343990D02*
X78128353Y-86382085D01*
X78128353Y-86382085D02*
X78090258Y-86458276D01*
X78090258Y-86458276D02*
X78090258Y-86534466D01*
X78090258Y-86534466D02*
X78128353Y-86648752D01*
X78128353Y-86648752D02*
X78585496Y-87105895D01*
X78585496Y-87105895D02*
X78090258Y-87105895D01*
X94560800Y-77688169D02*
X94598895Y-77802455D01*
X94598895Y-77802455D02*
X94598895Y-77992931D01*
X94598895Y-77992931D02*
X94560800Y-78069122D01*
X94560800Y-78069122D02*
X94522704Y-78107217D01*
X94522704Y-78107217D02*
X94446514Y-78145312D01*
X94446514Y-78145312D02*
X94370323Y-78145312D01*
X94370323Y-78145312D02*
X94294133Y-78107217D01*
X94294133Y-78107217D02*
X94256038Y-78069122D01*
X94256038Y-78069122D02*
X94217942Y-77992931D01*
X94217942Y-77992931D02*
X94179847Y-77840550D01*
X94179847Y-77840550D02*
X94141752Y-77764360D01*
X94141752Y-77764360D02*
X94103657Y-77726265D01*
X94103657Y-77726265D02*
X94027466Y-77688169D01*
X94027466Y-77688169D02*
X93951276Y-77688169D01*
X93951276Y-77688169D02*
X93875085Y-77726265D01*
X93875085Y-77726265D02*
X93836990Y-77764360D01*
X93836990Y-77764360D02*
X93798895Y-77840550D01*
X93798895Y-77840550D02*
X93798895Y-78031027D01*
X93798895Y-78031027D02*
X93836990Y-78145312D01*
X94522704Y-78945313D02*
X94560800Y-78907217D01*
X94560800Y-78907217D02*
X94598895Y-78792932D01*
X94598895Y-78792932D02*
X94598895Y-78716741D01*
X94598895Y-78716741D02*
X94560800Y-78602455D01*
X94560800Y-78602455D02*
X94484609Y-78526265D01*
X94484609Y-78526265D02*
X94408419Y-78488170D01*
X94408419Y-78488170D02*
X94256038Y-78450074D01*
X94256038Y-78450074D02*
X94141752Y-78450074D01*
X94141752Y-78450074D02*
X93989371Y-78488170D01*
X93989371Y-78488170D02*
X93913180Y-78526265D01*
X93913180Y-78526265D02*
X93836990Y-78602455D01*
X93836990Y-78602455D02*
X93798895Y-78716741D01*
X93798895Y-78716741D02*
X93798895Y-78792932D01*
X93798895Y-78792932D02*
X93836990Y-78907217D01*
X93836990Y-78907217D02*
X93875085Y-78945313D01*
X94598895Y-79669122D02*
X94598895Y-79288170D01*
X94598895Y-79288170D02*
X93798895Y-79288170D01*
X112445847Y-59657931D02*
X112483942Y-59772217D01*
X112483942Y-59772217D02*
X112522038Y-59810312D01*
X112522038Y-59810312D02*
X112598228Y-59848408D01*
X112598228Y-59848408D02*
X112712514Y-59848408D01*
X112712514Y-59848408D02*
X112788704Y-59810312D01*
X112788704Y-59810312D02*
X112826800Y-59772217D01*
X112826800Y-59772217D02*
X112864895Y-59696027D01*
X112864895Y-59696027D02*
X112864895Y-59391265D01*
X112864895Y-59391265D02*
X112064895Y-59391265D01*
X112064895Y-59391265D02*
X112064895Y-59657931D01*
X112064895Y-59657931D02*
X112102990Y-59734122D01*
X112102990Y-59734122D02*
X112141085Y-59772217D01*
X112141085Y-59772217D02*
X112217276Y-59810312D01*
X112217276Y-59810312D02*
X112293466Y-59810312D01*
X112293466Y-59810312D02*
X112369657Y-59772217D01*
X112369657Y-59772217D02*
X112407752Y-59734122D01*
X112407752Y-59734122D02*
X112445847Y-59657931D01*
X112445847Y-59657931D02*
X112445847Y-59391265D01*
X112064895Y-60191265D02*
X112712514Y-60191265D01*
X112712514Y-60191265D02*
X112788704Y-60229360D01*
X112788704Y-60229360D02*
X112826800Y-60267455D01*
X112826800Y-60267455D02*
X112864895Y-60343646D01*
X112864895Y-60343646D02*
X112864895Y-60496027D01*
X112864895Y-60496027D02*
X112826800Y-60572217D01*
X112826800Y-60572217D02*
X112788704Y-60610312D01*
X112788704Y-60610312D02*
X112712514Y-60648408D01*
X112712514Y-60648408D02*
X112064895Y-60648408D01*
X112064895Y-60953169D02*
X112064895Y-61486503D01*
X112064895Y-61486503D02*
X112864895Y-60953169D01*
X112864895Y-60953169D02*
X112864895Y-61486503D01*
X112064895Y-61715074D02*
X112064895Y-62248408D01*
X112064895Y-62248408D02*
X112864895Y-61715074D01*
X112864895Y-61715074D02*
X112864895Y-62248408D01*
X125364895Y-66891265D02*
X124564895Y-66891265D01*
X124564895Y-66891265D02*
X124564895Y-67081741D01*
X124564895Y-67081741D02*
X124602990Y-67196027D01*
X124602990Y-67196027D02*
X124679180Y-67272217D01*
X124679180Y-67272217D02*
X124755371Y-67310312D01*
X124755371Y-67310312D02*
X124907752Y-67348408D01*
X124907752Y-67348408D02*
X125022038Y-67348408D01*
X125022038Y-67348408D02*
X125174419Y-67310312D01*
X125174419Y-67310312D02*
X125250609Y-67272217D01*
X125250609Y-67272217D02*
X125326800Y-67196027D01*
X125326800Y-67196027D02*
X125364895Y-67081741D01*
X125364895Y-67081741D02*
X125364895Y-66891265D01*
X125060133Y-67691265D02*
X125060133Y-68300789D01*
X80564895Y-45776979D02*
X81364895Y-46043646D01*
X81364895Y-46043646D02*
X80564895Y-46310312D01*
X80945847Y-46843645D02*
X80983942Y-46957931D01*
X80983942Y-46957931D02*
X81022038Y-46996026D01*
X81022038Y-46996026D02*
X81098228Y-47034122D01*
X81098228Y-47034122D02*
X81212514Y-47034122D01*
X81212514Y-47034122D02*
X81288704Y-46996026D01*
X81288704Y-46996026D02*
X81326800Y-46957931D01*
X81326800Y-46957931D02*
X81364895Y-46881741D01*
X81364895Y-46881741D02*
X81364895Y-46576979D01*
X81364895Y-46576979D02*
X80564895Y-46576979D01*
X80564895Y-46576979D02*
X80564895Y-46843645D01*
X80564895Y-46843645D02*
X80602990Y-46919836D01*
X80602990Y-46919836D02*
X80641085Y-46957931D01*
X80641085Y-46957931D02*
X80717276Y-46996026D01*
X80717276Y-46996026D02*
X80793466Y-46996026D01*
X80793466Y-46996026D02*
X80869657Y-46957931D01*
X80869657Y-46957931D02*
X80907752Y-46919836D01*
X80907752Y-46919836D02*
X80945847Y-46843645D01*
X80945847Y-46843645D02*
X80945847Y-46576979D01*
X80564895Y-47376979D02*
X81212514Y-47376979D01*
X81212514Y-47376979D02*
X81288704Y-47415074D01*
X81288704Y-47415074D02*
X81326800Y-47453169D01*
X81326800Y-47453169D02*
X81364895Y-47529360D01*
X81364895Y-47529360D02*
X81364895Y-47681741D01*
X81364895Y-47681741D02*
X81326800Y-47757931D01*
X81326800Y-47757931D02*
X81288704Y-47796026D01*
X81288704Y-47796026D02*
X81212514Y-47834122D01*
X81212514Y-47834122D02*
X80564895Y-47834122D01*
X81326800Y-48176978D02*
X81364895Y-48291264D01*
X81364895Y-48291264D02*
X81364895Y-48481740D01*
X81364895Y-48481740D02*
X81326800Y-48557931D01*
X81326800Y-48557931D02*
X81288704Y-48596026D01*
X81288704Y-48596026D02*
X81212514Y-48634121D01*
X81212514Y-48634121D02*
X81136323Y-48634121D01*
X81136323Y-48634121D02*
X81060133Y-48596026D01*
X81060133Y-48596026D02*
X81022038Y-48557931D01*
X81022038Y-48557931D02*
X80983942Y-48481740D01*
X80983942Y-48481740D02*
X80945847Y-48329359D01*
X80945847Y-48329359D02*
X80907752Y-48253169D01*
X80907752Y-48253169D02*
X80869657Y-48215074D01*
X80869657Y-48215074D02*
X80793466Y-48176978D01*
X80793466Y-48176978D02*
X80717276Y-48176978D01*
X80717276Y-48176978D02*
X80641085Y-48215074D01*
X80641085Y-48215074D02*
X80602990Y-48253169D01*
X80602990Y-48253169D02*
X80564895Y-48329359D01*
X80564895Y-48329359D02*
X80564895Y-48519836D01*
X80564895Y-48519836D02*
X80602990Y-48634121D01*
X118186214Y-59776447D02*
X117386214Y-59776447D01*
X117386214Y-59776447D02*
X117386214Y-59966923D01*
X117386214Y-59966923D02*
X117424309Y-60081209D01*
X117424309Y-60081209D02*
X117500499Y-60157399D01*
X117500499Y-60157399D02*
X117576690Y-60195494D01*
X117576690Y-60195494D02*
X117729071Y-60233590D01*
X117729071Y-60233590D02*
X117843357Y-60233590D01*
X117843357Y-60233590D02*
X117995738Y-60195494D01*
X117995738Y-60195494D02*
X118071928Y-60157399D01*
X118071928Y-60157399D02*
X118148119Y-60081209D01*
X118148119Y-60081209D02*
X118186214Y-59966923D01*
X118186214Y-59966923D02*
X118186214Y-59776447D01*
X118186214Y-60995494D02*
X118186214Y-60538351D01*
X118186214Y-60766923D02*
X117386214Y-60766923D01*
X117386214Y-60766923D02*
X117500499Y-60690732D01*
X117500499Y-60690732D02*
X117576690Y-60614542D01*
X117576690Y-60614542D02*
X117614785Y-60538351D01*
X117729071Y-61452637D02*
X117690976Y-61376447D01*
X117690976Y-61376447D02*
X117652880Y-61338352D01*
X117652880Y-61338352D02*
X117576690Y-61300256D01*
X117576690Y-61300256D02*
X117538595Y-61300256D01*
X117538595Y-61300256D02*
X117462404Y-61338352D01*
X117462404Y-61338352D02*
X117424309Y-61376447D01*
X117424309Y-61376447D02*
X117386214Y-61452637D01*
X117386214Y-61452637D02*
X117386214Y-61605018D01*
X117386214Y-61605018D02*
X117424309Y-61681209D01*
X117424309Y-61681209D02*
X117462404Y-61719304D01*
X117462404Y-61719304D02*
X117538595Y-61757399D01*
X117538595Y-61757399D02*
X117576690Y-61757399D01*
X117576690Y-61757399D02*
X117652880Y-61719304D01*
X117652880Y-61719304D02*
X117690976Y-61681209D01*
X117690976Y-61681209D02*
X117729071Y-61605018D01*
X117729071Y-61605018D02*
X117729071Y-61452637D01*
X117729071Y-61452637D02*
X117767166Y-61376447D01*
X117767166Y-61376447D02*
X117805261Y-61338352D01*
X117805261Y-61338352D02*
X117881452Y-61300256D01*
X117881452Y-61300256D02*
X118033833Y-61300256D01*
X118033833Y-61300256D02*
X118110023Y-61338352D01*
X118110023Y-61338352D02*
X118148119Y-61376447D01*
X118148119Y-61376447D02*
X118186214Y-61452637D01*
X118186214Y-61452637D02*
X118186214Y-61605018D01*
X118186214Y-61605018D02*
X118148119Y-61681209D01*
X118148119Y-61681209D02*
X118110023Y-61719304D01*
X118110023Y-61719304D02*
X118033833Y-61757399D01*
X118033833Y-61757399D02*
X117881452Y-61757399D01*
X117881452Y-61757399D02*
X117805261Y-61719304D01*
X117805261Y-61719304D02*
X117767166Y-61681209D01*
X117767166Y-61681209D02*
X117729071Y-61605018D01*
X99551990Y-80177312D02*
X99513895Y-80101122D01*
X99513895Y-80101122D02*
X99513895Y-79986836D01*
X99513895Y-79986836D02*
X99551990Y-79872550D01*
X99551990Y-79872550D02*
X99628180Y-79796360D01*
X99628180Y-79796360D02*
X99704371Y-79758265D01*
X99704371Y-79758265D02*
X99856752Y-79720169D01*
X99856752Y-79720169D02*
X99971038Y-79720169D01*
X99971038Y-79720169D02*
X100123419Y-79758265D01*
X100123419Y-79758265D02*
X100199609Y-79796360D01*
X100199609Y-79796360D02*
X100275800Y-79872550D01*
X100275800Y-79872550D02*
X100313895Y-79986836D01*
X100313895Y-79986836D02*
X100313895Y-80063027D01*
X100313895Y-80063027D02*
X100275800Y-80177312D01*
X100275800Y-80177312D02*
X100237704Y-80215408D01*
X100237704Y-80215408D02*
X99971038Y-80215408D01*
X99971038Y-80215408D02*
X99971038Y-80063027D01*
X100313895Y-80558265D02*
X99513895Y-80558265D01*
X99513895Y-80558265D02*
X100313895Y-81015408D01*
X100313895Y-81015408D02*
X99513895Y-81015408D01*
X100313895Y-81396360D02*
X99513895Y-81396360D01*
X99513895Y-81396360D02*
X99513895Y-81586836D01*
X99513895Y-81586836D02*
X99551990Y-81701122D01*
X99551990Y-81701122D02*
X99628180Y-81777312D01*
X99628180Y-81777312D02*
X99704371Y-81815407D01*
X99704371Y-81815407D02*
X99856752Y-81853503D01*
X99856752Y-81853503D02*
X99971038Y-81853503D01*
X99971038Y-81853503D02*
X100123419Y-81815407D01*
X100123419Y-81815407D02*
X100199609Y-81777312D01*
X100199609Y-81777312D02*
X100275800Y-81701122D01*
X100275800Y-81701122D02*
X100313895Y-81586836D01*
X100313895Y-81586836D02*
X100313895Y-81396360D01*
X121276979Y-72935104D02*
X121543646Y-72135104D01*
X121543646Y-72135104D02*
X121810312Y-72935104D01*
X122076979Y-72135104D02*
X122076979Y-72935104D01*
X122724597Y-72554152D02*
X122838883Y-72516057D01*
X122838883Y-72516057D02*
X122876978Y-72477961D01*
X122876978Y-72477961D02*
X122915074Y-72401771D01*
X122915074Y-72401771D02*
X122915074Y-72287485D01*
X122915074Y-72287485D02*
X122876978Y-72211295D01*
X122876978Y-72211295D02*
X122838883Y-72173200D01*
X122838883Y-72173200D02*
X122762693Y-72135104D01*
X122762693Y-72135104D02*
X122457931Y-72135104D01*
X122457931Y-72135104D02*
X122457931Y-72935104D01*
X122457931Y-72935104D02*
X122724597Y-72935104D01*
X122724597Y-72935104D02*
X122800788Y-72897009D01*
X122800788Y-72897009D02*
X122838883Y-72858914D01*
X122838883Y-72858914D02*
X122876978Y-72782723D01*
X122876978Y-72782723D02*
X122876978Y-72706533D01*
X122876978Y-72706533D02*
X122838883Y-72630342D01*
X122838883Y-72630342D02*
X122800788Y-72592247D01*
X122800788Y-72592247D02*
X122724597Y-72554152D01*
X122724597Y-72554152D02*
X122457931Y-72554152D01*
X71945847Y-55657931D02*
X71983942Y-55772217D01*
X71983942Y-55772217D02*
X72022038Y-55810312D01*
X72022038Y-55810312D02*
X72098228Y-55848408D01*
X72098228Y-55848408D02*
X72212514Y-55848408D01*
X72212514Y-55848408D02*
X72288704Y-55810312D01*
X72288704Y-55810312D02*
X72326800Y-55772217D01*
X72326800Y-55772217D02*
X72364895Y-55696027D01*
X72364895Y-55696027D02*
X72364895Y-55391265D01*
X72364895Y-55391265D02*
X71564895Y-55391265D01*
X71564895Y-55391265D02*
X71564895Y-55657931D01*
X71564895Y-55657931D02*
X71602990Y-55734122D01*
X71602990Y-55734122D02*
X71641085Y-55772217D01*
X71641085Y-55772217D02*
X71717276Y-55810312D01*
X71717276Y-55810312D02*
X71793466Y-55810312D01*
X71793466Y-55810312D02*
X71869657Y-55772217D01*
X71869657Y-55772217D02*
X71907752Y-55734122D01*
X71907752Y-55734122D02*
X71945847Y-55657931D01*
X71945847Y-55657931D02*
X71945847Y-55391265D01*
X71564895Y-56191265D02*
X72212514Y-56191265D01*
X72212514Y-56191265D02*
X72288704Y-56229360D01*
X72288704Y-56229360D02*
X72326800Y-56267455D01*
X72326800Y-56267455D02*
X72364895Y-56343646D01*
X72364895Y-56343646D02*
X72364895Y-56496027D01*
X72364895Y-56496027D02*
X72326800Y-56572217D01*
X72326800Y-56572217D02*
X72288704Y-56610312D01*
X72288704Y-56610312D02*
X72212514Y-56648408D01*
X72212514Y-56648408D02*
X71564895Y-56648408D01*
X71564895Y-56915074D02*
X71564895Y-57372217D01*
X72364895Y-57143645D02*
X71564895Y-57143645D01*
X72364895Y-58057931D02*
X72364895Y-57600788D01*
X72364895Y-57829360D02*
X71564895Y-57829360D01*
X71564895Y-57829360D02*
X71679180Y-57753169D01*
X71679180Y-57753169D02*
X71755371Y-57676979D01*
X71755371Y-57676979D02*
X71793466Y-57600788D01*
X98370895Y-77777074D02*
X98370895Y-78272312D01*
X98370895Y-78272312D02*
X98675657Y-78005646D01*
X98675657Y-78005646D02*
X98675657Y-78119931D01*
X98675657Y-78119931D02*
X98713752Y-78196122D01*
X98713752Y-78196122D02*
X98751847Y-78234217D01*
X98751847Y-78234217D02*
X98828038Y-78272312D01*
X98828038Y-78272312D02*
X99018514Y-78272312D01*
X99018514Y-78272312D02*
X99094704Y-78234217D01*
X99094704Y-78234217D02*
X99132800Y-78196122D01*
X99132800Y-78196122D02*
X99170895Y-78119931D01*
X99170895Y-78119931D02*
X99170895Y-77891360D01*
X99170895Y-77891360D02*
X99132800Y-77815169D01*
X99132800Y-77815169D02*
X99094704Y-77777074D01*
X98637561Y-78538979D02*
X99170895Y-78729455D01*
X99170895Y-78729455D02*
X98637561Y-78919932D01*
X98370895Y-79148503D02*
X98370895Y-79643741D01*
X98370895Y-79643741D02*
X98675657Y-79377075D01*
X98675657Y-79377075D02*
X98675657Y-79491360D01*
X98675657Y-79491360D02*
X98713752Y-79567551D01*
X98713752Y-79567551D02*
X98751847Y-79605646D01*
X98751847Y-79605646D02*
X98828038Y-79643741D01*
X98828038Y-79643741D02*
X99018514Y-79643741D01*
X99018514Y-79643741D02*
X99094704Y-79605646D01*
X99094704Y-79605646D02*
X99132800Y-79567551D01*
X99132800Y-79567551D02*
X99170895Y-79491360D01*
X99170895Y-79491360D02*
X99170895Y-79262789D01*
X99170895Y-79262789D02*
X99132800Y-79186598D01*
X99132800Y-79186598D02*
X99094704Y-79148503D01*
X73864895Y-71772217D02*
X73864895Y-71391265D01*
X73864895Y-71391265D02*
X73064895Y-71391265D01*
X73445847Y-72038884D02*
X73445847Y-72305550D01*
X73864895Y-72419836D02*
X73864895Y-72038884D01*
X73864895Y-72038884D02*
X73064895Y-72038884D01*
X73064895Y-72038884D02*
X73064895Y-72419836D01*
X73864895Y-72762694D02*
X73064895Y-72762694D01*
X73064895Y-72762694D02*
X73064895Y-72953170D01*
X73064895Y-72953170D02*
X73102990Y-73067456D01*
X73102990Y-73067456D02*
X73179180Y-73143646D01*
X73179180Y-73143646D02*
X73255371Y-73181741D01*
X73255371Y-73181741D02*
X73407752Y-73219837D01*
X73407752Y-73219837D02*
X73522038Y-73219837D01*
X73522038Y-73219837D02*
X73674419Y-73181741D01*
X73674419Y-73181741D02*
X73750609Y-73143646D01*
X73750609Y-73143646D02*
X73826800Y-73067456D01*
X73826800Y-73067456D02*
X73864895Y-72953170D01*
X73864895Y-72953170D02*
X73864895Y-72762694D01*
X73826800Y-74134122D02*
X73864895Y-74248408D01*
X73864895Y-74248408D02*
X73864895Y-74438884D01*
X73864895Y-74438884D02*
X73826800Y-74515075D01*
X73826800Y-74515075D02*
X73788704Y-74553170D01*
X73788704Y-74553170D02*
X73712514Y-74591265D01*
X73712514Y-74591265D02*
X73636323Y-74591265D01*
X73636323Y-74591265D02*
X73560133Y-74553170D01*
X73560133Y-74553170D02*
X73522038Y-74515075D01*
X73522038Y-74515075D02*
X73483942Y-74438884D01*
X73483942Y-74438884D02*
X73445847Y-74286503D01*
X73445847Y-74286503D02*
X73407752Y-74210313D01*
X73407752Y-74210313D02*
X73369657Y-74172218D01*
X73369657Y-74172218D02*
X73293466Y-74134122D01*
X73293466Y-74134122D02*
X73217276Y-74134122D01*
X73217276Y-74134122D02*
X73141085Y-74172218D01*
X73141085Y-74172218D02*
X73102990Y-74210313D01*
X73102990Y-74210313D02*
X73064895Y-74286503D01*
X73064895Y-74286503D02*
X73064895Y-74476980D01*
X73064895Y-74476980D02*
X73102990Y-74591265D01*
X73064895Y-74819837D02*
X73064895Y-75276980D01*
X73864895Y-75048408D02*
X73064895Y-75048408D01*
X73636323Y-75505551D02*
X73636323Y-75886504D01*
X73864895Y-75429361D02*
X73064895Y-75696028D01*
X73064895Y-75696028D02*
X73864895Y-75962694D01*
X117135104Y-47608734D02*
X117935104Y-47608734D01*
X117935104Y-47608734D02*
X117935104Y-47418258D01*
X117935104Y-47418258D02*
X117897009Y-47303972D01*
X117897009Y-47303972D02*
X117820819Y-47227782D01*
X117820819Y-47227782D02*
X117744628Y-47189687D01*
X117744628Y-47189687D02*
X117592247Y-47151591D01*
X117592247Y-47151591D02*
X117477961Y-47151591D01*
X117477961Y-47151591D02*
X117325580Y-47189687D01*
X117325580Y-47189687D02*
X117249390Y-47227782D01*
X117249390Y-47227782D02*
X117173200Y-47303972D01*
X117173200Y-47303972D02*
X117135104Y-47418258D01*
X117135104Y-47418258D02*
X117135104Y-47608734D01*
X117668438Y-46465877D02*
X117135104Y-46465877D01*
X117973200Y-46656353D02*
X117401771Y-46846830D01*
X117401771Y-46846830D02*
X117401771Y-46351591D01*
X117935104Y-45665877D02*
X117935104Y-46046829D01*
X117935104Y-46046829D02*
X117554152Y-46084925D01*
X117554152Y-46084925D02*
X117592247Y-46046829D01*
X117592247Y-46046829D02*
X117630342Y-45970639D01*
X117630342Y-45970639D02*
X117630342Y-45780163D01*
X117630342Y-45780163D02*
X117592247Y-45703972D01*
X117592247Y-45703972D02*
X117554152Y-45665877D01*
X117554152Y-45665877D02*
X117477961Y-45627782D01*
X117477961Y-45627782D02*
X117287485Y-45627782D01*
X117287485Y-45627782D02*
X117211295Y-45665877D01*
X117211295Y-45665877D02*
X117173200Y-45703972D01*
X117173200Y-45703972D02*
X117135104Y-45780163D01*
X117135104Y-45780163D02*
X117135104Y-45970639D01*
X117135104Y-45970639D02*
X117173200Y-46046829D01*
X117173200Y-46046829D02*
X117211295Y-46084925D01*
X124945847Y-76891265D02*
X124945847Y-77157931D01*
X125364895Y-77272217D02*
X125364895Y-76891265D01*
X125364895Y-76891265D02*
X124564895Y-76891265D01*
X124564895Y-76891265D02*
X124564895Y-77272217D01*
X125364895Y-77615075D02*
X124564895Y-77615075D01*
X124564895Y-77615075D02*
X125364895Y-78072218D01*
X125364895Y-78072218D02*
X124564895Y-78072218D01*
%TO.C,G\u002A\u002A\u002A*%
G36*
X81218229Y-61410795D02*
G01*
X81583184Y-61411321D01*
X81841548Y-61660243D01*
X82099912Y-61909166D01*
X82099912Y-62819434D01*
X82099912Y-63729703D01*
X81841548Y-63978626D01*
X81583184Y-64227548D01*
X81218229Y-64228074D01*
X80853274Y-64228601D01*
X80600776Y-63989377D01*
X80591099Y-63980185D01*
X80513593Y-63904848D01*
X80445399Y-63835624D01*
X80390633Y-63776910D01*
X80353411Y-63733100D01*
X80337847Y-63708589D01*
X80336035Y-63696512D01*
X80346885Y-63650816D01*
X80378004Y-63613716D01*
X80419596Y-63598414D01*
X80441091Y-63609988D01*
X80483044Y-63642364D01*
X80540918Y-63691710D01*
X80610219Y-63754194D01*
X80686452Y-63825982D01*
X80923217Y-64053549D01*
X81218190Y-64052865D01*
X81513163Y-64052182D01*
X81718849Y-63852294D01*
X81924535Y-63652406D01*
X81924535Y-62819434D01*
X81924535Y-61986462D01*
X81718849Y-61786575D01*
X81513163Y-61586687D01*
X81218190Y-61586003D01*
X80923217Y-61585320D01*
X80686452Y-61812887D01*
X80610537Y-61884382D01*
X80541196Y-61946914D01*
X80483263Y-61996326D01*
X80441231Y-62028783D01*
X80419596Y-62040454D01*
X80407913Y-62039226D01*
X80368178Y-62016750D01*
X80341557Y-61976034D01*
X80337847Y-61930280D01*
X80338431Y-61928514D01*
X80356795Y-61901469D01*
X80396328Y-61855649D01*
X80452912Y-61795450D01*
X80522434Y-61725266D01*
X80600776Y-61649492D01*
X80853274Y-61410268D01*
X81218229Y-61410795D01*
G37*
G36*
X83383772Y-61410281D02*
G01*
X83548044Y-61410523D01*
X83681623Y-61411171D01*
X83787786Y-61412352D01*
X83869812Y-61414194D01*
X83930981Y-61416824D01*
X83974571Y-61420370D01*
X84003861Y-61424959D01*
X84022130Y-61430719D01*
X84032657Y-61437776D01*
X84048326Y-61459274D01*
X84060165Y-61497794D01*
X84058372Y-61521758D01*
X84048349Y-61545905D01*
X84025533Y-61563119D01*
X83985486Y-61574533D01*
X83923768Y-61581282D01*
X83835940Y-61584499D01*
X83717564Y-61585320D01*
X83429979Y-61585320D01*
X83429979Y-62868055D01*
X83429921Y-63101099D01*
X83429703Y-63315503D01*
X83429275Y-63499513D01*
X83428590Y-63655500D01*
X83427597Y-63785836D01*
X83426248Y-63892894D01*
X83424494Y-63979043D01*
X83422286Y-64046657D01*
X83419576Y-64098107D01*
X83416314Y-64135764D01*
X83412451Y-64162000D01*
X83407939Y-64179186D01*
X83402729Y-64189695D01*
X83364440Y-64220433D01*
X83317244Y-64227236D01*
X83275934Y-64207594D01*
X83272854Y-64200149D01*
X83269062Y-64175033D01*
X83265791Y-64131088D01*
X83263012Y-64066516D01*
X83260695Y-63979520D01*
X83258814Y-63868302D01*
X83257339Y-63731064D01*
X83256241Y-63566008D01*
X83255492Y-63371336D01*
X83255064Y-63145251D01*
X83254928Y-62885954D01*
X83254928Y-61585320D01*
X82949838Y-61585320D01*
X82947541Y-61585320D01*
X82826490Y-61584576D01*
X82736007Y-61581676D01*
X82671738Y-61575562D01*
X82629330Y-61565174D01*
X82604428Y-61549456D01*
X82592680Y-61527349D01*
X82589731Y-61497794D01*
X82594663Y-61474344D01*
X82617239Y-61437776D01*
X82619928Y-61435398D01*
X82632548Y-61428764D01*
X82653945Y-61423389D01*
X82687400Y-61419143D01*
X82736191Y-61415900D01*
X82803597Y-61413533D01*
X82892897Y-61411913D01*
X83007369Y-61410915D01*
X83150293Y-61410409D01*
X83324948Y-61410268D01*
X83383772Y-61410281D01*
G37*
G36*
X88483982Y-56840918D02*
G01*
X88485437Y-56925670D01*
X88486577Y-57029270D01*
X88487441Y-57153736D01*
X88488068Y-57301091D01*
X88488496Y-57473354D01*
X88488762Y-57672545D01*
X88488905Y-57900685D01*
X88488962Y-58159795D01*
X88488973Y-58451895D01*
X88488972Y-58582668D01*
X88488945Y-58860222D01*
X88488855Y-59105662D01*
X88488664Y-59321008D01*
X88488332Y-59508281D01*
X88487823Y-59669500D01*
X88487098Y-59806687D01*
X88486119Y-59921863D01*
X88484847Y-60017046D01*
X88483245Y-60094258D01*
X88481275Y-60155519D01*
X88478898Y-60202850D01*
X88476076Y-60238271D01*
X88472772Y-60263803D01*
X88468946Y-60281465D01*
X88464562Y-60293279D01*
X88459580Y-60301265D01*
X88453963Y-60307443D01*
X88448637Y-60312474D01*
X88438333Y-60319731D01*
X88423570Y-60325711D01*
X88401291Y-60330539D01*
X88368442Y-60334338D01*
X88321969Y-60337230D01*
X88258815Y-60339339D01*
X88175926Y-60340789D01*
X88070247Y-60341702D01*
X87938722Y-60342201D01*
X87778297Y-60342411D01*
X87585917Y-60342453D01*
X86752883Y-60342453D01*
X86660324Y-60250551D01*
X86647485Y-60237727D01*
X86599708Y-60189438D01*
X86534594Y-60123112D01*
X86457170Y-60043889D01*
X86372463Y-59956910D01*
X86285502Y-59867315D01*
X86003239Y-59575982D01*
X86003239Y-59493097D01*
X86230806Y-59493097D01*
X86541341Y-59803992D01*
X86851875Y-60114886D01*
X87556640Y-60114886D01*
X88261406Y-60114886D01*
X88261406Y-58451895D01*
X88261406Y-56788904D01*
X87556550Y-56788904D01*
X86851694Y-56788904D01*
X86541250Y-57087939D01*
X86230806Y-57386975D01*
X86230806Y-58440036D01*
X86230806Y-59493097D01*
X86003239Y-59493097D01*
X86003239Y-58440106D01*
X86003239Y-57304231D01*
X86376155Y-56932784D01*
X86749070Y-56561337D01*
X87584011Y-56561337D01*
X87706541Y-56561350D01*
X87879122Y-56561480D01*
X88021623Y-56561852D01*
X88137095Y-56562588D01*
X88228589Y-56563813D01*
X88299156Y-56565647D01*
X88351847Y-56568215D01*
X88389714Y-56571638D01*
X88415807Y-56576040D01*
X88433179Y-56581544D01*
X88444881Y-56588272D01*
X88453963Y-56596347D01*
X88456478Y-56598932D01*
X88461815Y-56605645D01*
X88466533Y-56615042D01*
X88470671Y-56629142D01*
X88474266Y-56649967D01*
X88477356Y-56679537D01*
X88479980Y-56719871D01*
X88482176Y-56772991D01*
X88482599Y-56788904D01*
X88483982Y-56840918D01*
G37*
G36*
X79777344Y-61415200D02*
G01*
X79813912Y-61437776D01*
X79816388Y-61440820D01*
X79821187Y-61451450D01*
X79825339Y-61469575D01*
X79828891Y-61497489D01*
X79831887Y-61537484D01*
X79834375Y-61591854D01*
X79836399Y-61662891D01*
X79838005Y-61752888D01*
X79839238Y-61864139D01*
X79840145Y-61998935D01*
X79840771Y-62159569D01*
X79841162Y-62348336D01*
X79841363Y-62567526D01*
X79841420Y-62819434D01*
X79841408Y-62941363D01*
X79841290Y-63177698D01*
X79841006Y-63382386D01*
X79840511Y-63557722D01*
X79839759Y-63705998D01*
X79838705Y-63829506D01*
X79837304Y-63930540D01*
X79835508Y-64011392D01*
X79833273Y-64074355D01*
X79830553Y-64121723D01*
X79827303Y-64155788D01*
X79823476Y-64178842D01*
X79819028Y-64193179D01*
X79813912Y-64201092D01*
X79792414Y-64216761D01*
X79753894Y-64228601D01*
X79730444Y-64223668D01*
X79693876Y-64201092D01*
X79691086Y-64197967D01*
X79683079Y-64182853D01*
X79676967Y-64157448D01*
X79672507Y-64117630D01*
X79669459Y-64059282D01*
X79667581Y-63978284D01*
X79666631Y-63870517D01*
X79666368Y-63731861D01*
X79666368Y-63290137D01*
X79467746Y-63094172D01*
X79269125Y-62898208D01*
X79053687Y-62898208D01*
X78838249Y-62898208D01*
X78639628Y-63094172D01*
X78441006Y-63290137D01*
X78441006Y-63731861D01*
X78440985Y-63776691D01*
X78440543Y-63905703D01*
X78439341Y-64005056D01*
X78437139Y-64078868D01*
X78433696Y-64131258D01*
X78428768Y-64166346D01*
X78422116Y-64188251D01*
X78413498Y-64201092D01*
X78392000Y-64216761D01*
X78353480Y-64228601D01*
X78330030Y-64223668D01*
X78293463Y-64201092D01*
X78287851Y-64193862D01*
X78280756Y-64176260D01*
X78275341Y-64147323D01*
X78271390Y-64103106D01*
X78268691Y-64039662D01*
X78267028Y-63953047D01*
X78266187Y-63839315D01*
X78265955Y-63694521D01*
X78265955Y-63215457D01*
X78506651Y-62978481D01*
X78747347Y-62741504D01*
X79053341Y-62741083D01*
X79359335Y-62740661D01*
X79512851Y-62893466D01*
X79666368Y-63046272D01*
X79666368Y-62255778D01*
X79666369Y-62232667D01*
X79666512Y-62047183D01*
X79666962Y-61893336D01*
X79667822Y-61768093D01*
X79669194Y-61668426D01*
X79671179Y-61591303D01*
X79673880Y-61533694D01*
X79677398Y-61492567D01*
X79681836Y-61464892D01*
X79687294Y-61447639D01*
X79693876Y-61437776D01*
X79715374Y-61422108D01*
X79753894Y-61410268D01*
X79777344Y-61415200D01*
G37*
G36*
X85806218Y-63261232D02*
G01*
X85865778Y-63443270D01*
X85920099Y-63609933D01*
X85968355Y-63758671D01*
X86009720Y-63886932D01*
X86043367Y-63992166D01*
X86068470Y-64071823D01*
X86084203Y-64123351D01*
X86089739Y-64144201D01*
X86085268Y-64166197D01*
X86063257Y-64201092D01*
X86038755Y-64218750D01*
X85990723Y-64226858D01*
X85947523Y-64205394D01*
X85938712Y-64189274D01*
X85919608Y-64143071D01*
X85892959Y-64072184D01*
X85860498Y-63981374D01*
X85823956Y-63875397D01*
X85785065Y-63759012D01*
X85645814Y-63335837D01*
X85135017Y-63335837D01*
X84624219Y-63335837D01*
X84558648Y-63515265D01*
X84518066Y-63626313D01*
X84462264Y-63778692D01*
X84416382Y-63902894D01*
X84379102Y-64001801D01*
X84349103Y-64078295D01*
X84325064Y-64135259D01*
X84305667Y-64175576D01*
X84289590Y-64202128D01*
X84275514Y-64217797D01*
X84262119Y-64225466D01*
X84248085Y-64228017D01*
X84232091Y-64228332D01*
X84195802Y-64216260D01*
X84162179Y-64185603D01*
X84147691Y-64150007D01*
X84150137Y-64137987D01*
X84162727Y-64094416D01*
X84185094Y-64023020D01*
X84216194Y-63926849D01*
X84254980Y-63808955D01*
X84300407Y-63672388D01*
X84351429Y-63520199D01*
X84407002Y-63355440D01*
X84466079Y-63181160D01*
X84473016Y-63160785D01*
X84656208Y-63160785D01*
X85121534Y-63160785D01*
X85170372Y-63160762D01*
X85302169Y-63160325D01*
X85403580Y-63159196D01*
X85478113Y-63157188D01*
X85529275Y-63154116D01*
X85560573Y-63149795D01*
X85575513Y-63144039D01*
X85577604Y-63136663D01*
X85576601Y-63133854D01*
X85566473Y-63103734D01*
X85547062Y-63045081D01*
X85519585Y-62961613D01*
X85485266Y-62857046D01*
X85445322Y-62735098D01*
X85400976Y-62599487D01*
X85353448Y-62453929D01*
X85338068Y-62406927D01*
X85291527Y-62266351D01*
X85248356Y-62138376D01*
X85209774Y-62026457D01*
X85177000Y-61934051D01*
X85151255Y-61864615D01*
X85133757Y-61821605D01*
X85125726Y-61808479D01*
X85125407Y-61808898D01*
X85116142Y-61830798D01*
X85097212Y-61881823D01*
X85069924Y-61958239D01*
X85035589Y-62056309D01*
X84995515Y-62172295D01*
X84951012Y-62302462D01*
X84903388Y-62443073D01*
X84900978Y-62450218D01*
X84853028Y-62592221D01*
X84808020Y-62725124D01*
X84767324Y-62844913D01*
X84732309Y-62947574D01*
X84704344Y-63029092D01*
X84684797Y-63085455D01*
X84675039Y-63112646D01*
X84656208Y-63160785D01*
X84473016Y-63160785D01*
X84527614Y-63000412D01*
X84590564Y-62816245D01*
X84653881Y-62631712D01*
X84716521Y-62449862D01*
X84777437Y-62273747D01*
X84835585Y-62106418D01*
X84889918Y-61950925D01*
X84939392Y-61810320D01*
X84982961Y-61687653D01*
X85019579Y-61585976D01*
X85048201Y-61508339D01*
X85067781Y-61457794D01*
X85077273Y-61437390D01*
X85084145Y-61430496D01*
X85115910Y-61412694D01*
X85156948Y-61419885D01*
X85163313Y-61422665D01*
X85172399Y-61429376D01*
X85182279Y-61441288D01*
X85193733Y-61460561D01*
X85207539Y-61489353D01*
X85224477Y-61529822D01*
X85245327Y-61584127D01*
X85270867Y-61654426D01*
X85301877Y-61742878D01*
X85339136Y-61851641D01*
X85383423Y-61982874D01*
X85435519Y-62138735D01*
X85496201Y-62321382D01*
X85566250Y-62532975D01*
X85646444Y-62775671D01*
X85674685Y-62861234D01*
X85742244Y-63066370D01*
X85765321Y-63136663D01*
X85806218Y-63261232D01*
G37*
G36*
X88368129Y-61430832D02*
G01*
X88393356Y-61468327D01*
X88393419Y-61468651D01*
X88390187Y-61493093D01*
X88378485Y-61548834D01*
X88358916Y-61633472D01*
X88332078Y-61744606D01*
X88298572Y-61879835D01*
X88259000Y-62036757D01*
X88213960Y-62212971D01*
X88164054Y-62406075D01*
X88109883Y-62613668D01*
X88052046Y-62833349D01*
X88036230Y-62893173D01*
X87981730Y-63099430D01*
X87930090Y-63295026D01*
X87881988Y-63477384D01*
X87838100Y-63643929D01*
X87799105Y-63792084D01*
X87765681Y-63919275D01*
X87738505Y-64022924D01*
X87718254Y-64100457D01*
X87705607Y-64149297D01*
X87701241Y-64166868D01*
X87695538Y-64176652D01*
X87673732Y-64201092D01*
X87647567Y-64220013D01*
X87600539Y-64225519D01*
X87557249Y-64197966D01*
X87551444Y-64188025D01*
X87533344Y-64147158D01*
X87506342Y-64079818D01*
X87472028Y-63990194D01*
X87431994Y-63882470D01*
X87387832Y-63760835D01*
X87341132Y-63629473D01*
X87311807Y-63546291D01*
X87268375Y-63423748D01*
X87229571Y-63315055D01*
X87196782Y-63224050D01*
X87171395Y-63154574D01*
X87154795Y-63110466D01*
X87148368Y-63095565D01*
X87145806Y-63101962D01*
X87133091Y-63136750D01*
X87111030Y-63198293D01*
X87081019Y-63282660D01*
X87044455Y-63385924D01*
X87002734Y-63504155D01*
X86957251Y-63633425D01*
X86931306Y-63706736D01*
X86885714Y-63832994D01*
X86843300Y-63947293D01*
X86805701Y-64045401D01*
X86774552Y-64123086D01*
X86751488Y-64176118D01*
X86738146Y-64200264D01*
X86724188Y-64211611D01*
X86680071Y-64223978D01*
X86636487Y-64212921D01*
X86607847Y-64180612D01*
X86606497Y-64176939D01*
X86594502Y-64138489D01*
X86575230Y-64071106D01*
X86549493Y-63977930D01*
X86518104Y-63862099D01*
X86481873Y-63726752D01*
X86441614Y-63575029D01*
X86398137Y-63410067D01*
X86352255Y-63235005D01*
X86304779Y-63052983D01*
X86256522Y-62867140D01*
X86208295Y-62680613D01*
X86160910Y-62496542D01*
X86115179Y-62318066D01*
X86071914Y-62148324D01*
X86031926Y-61990454D01*
X85996028Y-61847595D01*
X85965032Y-61722886D01*
X85939749Y-61619466D01*
X85920992Y-61540473D01*
X85909571Y-61489047D01*
X85906300Y-61468327D01*
X85924855Y-61436509D01*
X85967157Y-61415397D01*
X86020382Y-61418906D01*
X86027672Y-61420692D01*
X86034125Y-61422487D01*
X86040322Y-61426524D01*
X86046923Y-61435058D01*
X86054587Y-61450348D01*
X86063974Y-61474649D01*
X86075744Y-61510220D01*
X86090557Y-61559317D01*
X86109073Y-61624196D01*
X86131952Y-61707116D01*
X86159852Y-61810332D01*
X86193435Y-61936102D01*
X86233360Y-62086684D01*
X86280286Y-62264333D01*
X86334874Y-62471306D01*
X86397783Y-62709862D01*
X86420158Y-62794583D01*
X86469595Y-62981050D01*
X86516188Y-63155799D01*
X86559183Y-63316060D01*
X86597826Y-63459066D01*
X86631365Y-63582047D01*
X86659045Y-63682235D01*
X86680114Y-63756861D01*
X86693819Y-63803156D01*
X86699405Y-63818352D01*
X86702333Y-63811945D01*
X86715725Y-63777029D01*
X86738429Y-63715333D01*
X86769010Y-63630832D01*
X86806033Y-63527499D01*
X86848064Y-63409308D01*
X86893668Y-63280234D01*
X87080632Y-62749414D01*
X87149307Y-62749414D01*
X87217982Y-62749414D01*
X87405829Y-63280597D01*
X87432748Y-63356584D01*
X87476609Y-63479816D01*
X87516031Y-63589852D01*
X87549578Y-63682726D01*
X87575814Y-63754472D01*
X87593305Y-63801124D01*
X87600613Y-63818715D01*
X87601986Y-63816035D01*
X87611161Y-63786811D01*
X87628128Y-63727703D01*
X87652135Y-63641482D01*
X87682430Y-63530916D01*
X87718259Y-63398775D01*
X87758870Y-63247830D01*
X87803511Y-63080849D01*
X87851429Y-62900603D01*
X87901872Y-62709862D01*
X87964200Y-62473510D01*
X88018867Y-62266234D01*
X88065866Y-62088306D01*
X88105857Y-61937468D01*
X88139500Y-61811463D01*
X88167453Y-61708034D01*
X88190378Y-61624925D01*
X88208934Y-61559878D01*
X88223781Y-61510636D01*
X88235578Y-61474943D01*
X88244985Y-61450540D01*
X88252663Y-61435173D01*
X88259271Y-61426582D01*
X88265469Y-61422513D01*
X88271916Y-61420706D01*
X88279273Y-61418906D01*
X88322890Y-61414021D01*
X88368129Y-61430832D01*
G37*
G36*
X84806848Y-56561355D02*
G01*
X84977991Y-56561499D01*
X85119306Y-56561891D01*
X85233820Y-56562650D01*
X85324557Y-56563897D01*
X85394543Y-56565752D01*
X85446803Y-56568333D01*
X85484363Y-56571762D01*
X85510248Y-56576158D01*
X85527483Y-56581640D01*
X85539094Y-56588330D01*
X85548105Y-56596347D01*
X85550620Y-56598932D01*
X85555957Y-56605645D01*
X85560675Y-56615042D01*
X85564813Y-56629142D01*
X85568408Y-56649967D01*
X85571498Y-56679537D01*
X85574122Y-56719871D01*
X85576318Y-56772991D01*
X85578124Y-56840918D01*
X85579578Y-56925670D01*
X85580719Y-57029270D01*
X85581583Y-57153736D01*
X85582210Y-57301091D01*
X85582638Y-57473354D01*
X85582904Y-57672545D01*
X85583047Y-57900685D01*
X85583104Y-58159795D01*
X85583115Y-58451895D01*
X85583114Y-58582668D01*
X85583087Y-58860222D01*
X85582997Y-59105662D01*
X85582806Y-59321008D01*
X85582474Y-59508281D01*
X85581965Y-59669500D01*
X85581240Y-59806687D01*
X85580261Y-59921863D01*
X85578989Y-60017046D01*
X85577387Y-60094258D01*
X85575417Y-60155519D01*
X85573040Y-60202850D01*
X85570218Y-60238271D01*
X85566914Y-60263803D01*
X85563088Y-60281465D01*
X85558704Y-60293279D01*
X85553722Y-60301265D01*
X85548105Y-60307443D01*
X85514612Y-60330278D01*
X85469331Y-60342453D01*
X85432261Y-60333927D01*
X85390558Y-60307443D01*
X85390305Y-60307189D01*
X85384598Y-60300839D01*
X85379553Y-60292557D01*
X85375128Y-60280276D01*
X85371283Y-60261928D01*
X85367978Y-60235446D01*
X85365171Y-60198763D01*
X85362822Y-60149811D01*
X85360890Y-60086522D01*
X85359334Y-60006829D01*
X85358114Y-59908666D01*
X85357189Y-59789964D01*
X85356518Y-59648656D01*
X85356060Y-59482675D01*
X85355775Y-59289953D01*
X85355622Y-59068422D01*
X85355560Y-58816017D01*
X85355548Y-58530668D01*
X85355548Y-56788904D01*
X84633723Y-56788904D01*
X83911897Y-56788904D01*
X83705949Y-56994316D01*
X83500000Y-57199728D01*
X83500000Y-57558605D01*
X83500000Y-57917482D01*
X83714176Y-58132173D01*
X83928351Y-58346864D01*
X84579431Y-58346864D01*
X84608110Y-58346863D01*
X84778708Y-58346938D01*
X84917957Y-58347493D01*
X85029040Y-58349005D01*
X85115139Y-58351951D01*
X85179434Y-58356809D01*
X85225109Y-58364058D01*
X85255344Y-58374174D01*
X85273322Y-58387636D01*
X85282224Y-58404920D01*
X85285232Y-58426505D01*
X85285527Y-58452869D01*
X85286082Y-58460858D01*
X85287374Y-58468761D01*
X85287839Y-58476223D01*
X85285880Y-58484923D01*
X85279898Y-58496536D01*
X85268293Y-58512739D01*
X85249468Y-58535208D01*
X85221824Y-58565620D01*
X85183761Y-58605650D01*
X85133682Y-58656975D01*
X85069987Y-58721273D01*
X84991079Y-58800218D01*
X84895358Y-58895487D01*
X84781225Y-59008757D01*
X84647083Y-59141704D01*
X84491333Y-59296005D01*
X84312375Y-59473335D01*
X84294054Y-59491494D01*
X84122955Y-59661045D01*
X83974754Y-59807627D01*
X83847639Y-59932747D01*
X83739799Y-60037906D01*
X83649421Y-60124609D01*
X83574694Y-60194361D01*
X83513805Y-60248665D01*
X83464942Y-60289024D01*
X83426295Y-60316944D01*
X83396049Y-60333927D01*
X83372395Y-60341479D01*
X83353519Y-60341102D01*
X83337609Y-60334301D01*
X83322855Y-60322580D01*
X83307443Y-60307443D01*
X83300140Y-60300128D01*
X83285822Y-60284502D01*
X83275966Y-60268749D01*
X83272142Y-60250983D01*
X83275923Y-60229320D01*
X83288880Y-60201878D01*
X83312584Y-60166770D01*
X83348606Y-60122114D01*
X83398518Y-60066025D01*
X83463891Y-59996618D01*
X83546297Y-59912010D01*
X83647306Y-59810317D01*
X83768491Y-59689654D01*
X83911422Y-59548137D01*
X84077671Y-59383883D01*
X84124706Y-59337395D01*
X84261645Y-59201737D01*
X84390264Y-59073863D01*
X84508484Y-58955868D01*
X84614223Y-58849847D01*
X84705402Y-58757895D01*
X84779941Y-58682110D01*
X84835758Y-58624586D01*
X84870774Y-58587418D01*
X84882908Y-58572704D01*
X84881357Y-58571433D01*
X84854704Y-58567448D01*
X84797829Y-58563946D01*
X84714415Y-58561036D01*
X84608146Y-58558824D01*
X84482706Y-58557418D01*
X84341779Y-58556926D01*
X83800650Y-58556926D01*
X83536541Y-58277889D01*
X83272433Y-57998853D01*
X83272079Y-57547048D01*
X83271726Y-57095244D01*
X83544186Y-56828290D01*
X83816646Y-56561337D01*
X84664870Y-56561337D01*
X84806848Y-56561355D01*
G37*
G36*
X82788088Y-56561786D02*
G01*
X82804129Y-56568858D01*
X82819097Y-56580882D01*
X82834804Y-56596347D01*
X82837318Y-56598932D01*
X82842655Y-56605645D01*
X82847374Y-56615042D01*
X82851511Y-56629142D01*
X82855106Y-56649967D01*
X82858197Y-56679537D01*
X82860821Y-56719871D01*
X82863017Y-56772991D01*
X82864823Y-56840918D01*
X82866277Y-56925670D01*
X82867418Y-57029270D01*
X82868282Y-57153736D01*
X82868909Y-57301091D01*
X82869336Y-57473354D01*
X82869602Y-57672545D01*
X82869745Y-57900685D01*
X82869803Y-58159795D01*
X82869814Y-58451895D01*
X82869813Y-58582668D01*
X82869786Y-58860222D01*
X82869696Y-59105662D01*
X82869505Y-59321008D01*
X82869173Y-59508281D01*
X82868664Y-59669500D01*
X82867939Y-59806687D01*
X82866959Y-59921863D01*
X82865688Y-60017046D01*
X82864086Y-60094258D01*
X82862116Y-60155519D01*
X82859739Y-60202850D01*
X82856917Y-60238271D01*
X82853612Y-60263803D01*
X82849787Y-60281465D01*
X82845402Y-60293279D01*
X82840421Y-60301265D01*
X82834804Y-60307443D01*
X82800254Y-60331516D01*
X82742296Y-60340553D01*
X82684979Y-60317609D01*
X82682320Y-60315537D01*
X82676931Y-60309685D01*
X82672175Y-60300364D01*
X82667999Y-60285471D01*
X82664348Y-60262902D01*
X82661172Y-60230556D01*
X82658415Y-60186330D01*
X82656025Y-60128121D01*
X82653948Y-60053826D01*
X82652132Y-59961343D01*
X82650524Y-59848569D01*
X82649069Y-59713401D01*
X82647716Y-59553736D01*
X82646410Y-59367473D01*
X82645098Y-59152507D01*
X82643728Y-58906737D01*
X82642247Y-58628060D01*
X82633494Y-56963355D01*
X81825362Y-57760140D01*
X81819100Y-57766314D01*
X81652793Y-57930045D01*
X81509438Y-58070632D01*
X81387331Y-58189666D01*
X81284762Y-58288736D01*
X81200026Y-58369435D01*
X81131415Y-58433353D01*
X81077223Y-58482082D01*
X81035741Y-58517213D01*
X81005263Y-58540336D01*
X80984083Y-58553044D01*
X80970492Y-58556926D01*
X80970105Y-58556921D01*
X80956268Y-58552743D01*
X80934783Y-58539684D01*
X80903944Y-58516153D01*
X80862044Y-58480558D01*
X80807375Y-58431309D01*
X80738230Y-58366813D01*
X80652903Y-58285480D01*
X80549687Y-58185717D01*
X80426875Y-58065934D01*
X80282759Y-57924538D01*
X80115633Y-57759940D01*
X79307512Y-56962953D01*
X79298759Y-58627859D01*
X79298071Y-58758414D01*
X79296646Y-59021930D01*
X79295309Y-59253492D01*
X79294007Y-59455203D01*
X79292686Y-59629164D01*
X79291294Y-59777479D01*
X79289776Y-59902250D01*
X79288080Y-60005580D01*
X79286153Y-60089571D01*
X79283941Y-60156325D01*
X79281392Y-60207946D01*
X79278452Y-60246536D01*
X79275068Y-60274198D01*
X79271186Y-60293033D01*
X79266754Y-60305145D01*
X79261719Y-60312636D01*
X79256027Y-60317609D01*
X79217592Y-60336730D01*
X79158722Y-60337840D01*
X79106203Y-60307443D01*
X79103688Y-60304858D01*
X79098351Y-60298144D01*
X79093632Y-60288748D01*
X79089495Y-60274647D01*
X79085900Y-60253822D01*
X79082809Y-60224253D01*
X79080185Y-60183918D01*
X79077989Y-60130798D01*
X79076183Y-60062872D01*
X79074729Y-59978119D01*
X79073589Y-59874520D01*
X79072724Y-59750053D01*
X79072097Y-59602699D01*
X79071670Y-59430436D01*
X79071404Y-59231245D01*
X79071261Y-59003104D01*
X79071203Y-58743994D01*
X79071192Y-58451895D01*
X79071194Y-58321122D01*
X79071220Y-58043567D01*
X79071310Y-57798128D01*
X79071502Y-57582782D01*
X79071833Y-57395509D01*
X79072342Y-57234289D01*
X79073067Y-57097102D01*
X79074047Y-56981927D01*
X79075318Y-56886744D01*
X79076920Y-56809532D01*
X79078891Y-56748270D01*
X79081267Y-56700939D01*
X79084089Y-56665518D01*
X79087394Y-56639987D01*
X79091219Y-56622324D01*
X79095604Y-56610510D01*
X79100586Y-56602525D01*
X79106203Y-56596347D01*
X79107482Y-56595066D01*
X79123059Y-56579822D01*
X79138039Y-56568135D01*
X79154236Y-56561517D01*
X79173463Y-56561479D01*
X79197533Y-56569532D01*
X79228261Y-56587189D01*
X79267459Y-56615960D01*
X79316942Y-56657358D01*
X79378523Y-56712894D01*
X79454016Y-56784079D01*
X79545234Y-56872425D01*
X79653990Y-56979444D01*
X79782100Y-57106647D01*
X79931375Y-57255545D01*
X80103630Y-57427651D01*
X80970587Y-58293965D01*
X81837418Y-57427651D01*
X81851663Y-57413414D01*
X82022054Y-57243155D01*
X82169608Y-57095987D01*
X82296137Y-56970400D01*
X82403457Y-56864880D01*
X82493381Y-56777917D01*
X82567722Y-56707999D01*
X82628293Y-56653614D01*
X82676909Y-56613252D01*
X82715383Y-56585399D01*
X82745528Y-56568545D01*
X82769158Y-56561178D01*
X82788088Y-56561786D01*
G37*
G36*
X93230108Y-56774245D02*
G01*
X93249076Y-56778058D01*
X93265115Y-56786468D01*
X93278248Y-56799485D01*
X93280892Y-56803094D01*
X93284961Y-56809752D01*
X93287999Y-56817014D01*
X93290216Y-56825848D01*
X93291828Y-56837227D01*
X93293047Y-56852120D01*
X93294087Y-56871497D01*
X93295961Y-56911725D01*
X93342920Y-56911725D01*
X93362908Y-56911907D01*
X93380090Y-56912642D01*
X93393539Y-56914145D01*
X93404141Y-56916630D01*
X93412783Y-56920311D01*
X93420355Y-56925399D01*
X93427743Y-56932109D01*
X93437505Y-56944344D01*
X93444975Y-56960856D01*
X93447734Y-56978392D01*
X93445781Y-56996008D01*
X93439118Y-57012762D01*
X93427743Y-57027710D01*
X93422792Y-57032366D01*
X93415106Y-57038123D01*
X93406578Y-57042322D01*
X93396290Y-57045190D01*
X93383321Y-57046955D01*
X93366752Y-57047847D01*
X93345665Y-57048094D01*
X93301450Y-57048094D01*
X93301831Y-57089686D01*
X93301918Y-57100238D01*
X93301916Y-57113319D01*
X93301617Y-57122675D01*
X93300881Y-57129372D01*
X93299569Y-57134472D01*
X93297539Y-57139040D01*
X93294651Y-57144141D01*
X93288313Y-57153281D01*
X93274459Y-57166386D01*
X93257898Y-57175116D01*
X93254873Y-57176111D01*
X93236985Y-57178834D01*
X93219180Y-57176662D01*
X93202473Y-57169973D01*
X93187877Y-57159149D01*
X93176406Y-57144569D01*
X93173661Y-57139476D01*
X93171158Y-57133071D01*
X93169405Y-57125328D01*
X93168107Y-57114876D01*
X93166974Y-57100342D01*
X93166223Y-57088827D01*
X93165459Y-57076172D01*
X93164907Y-57065958D01*
X93164654Y-57059685D01*
X93164480Y-57050821D01*
X93129510Y-57050821D01*
X93116713Y-57050672D01*
X93099354Y-57049651D01*
X93085717Y-57047410D01*
X93074756Y-57043655D01*
X93065425Y-57038096D01*
X93056677Y-57030438D01*
X93046914Y-57018202D01*
X93039444Y-57001691D01*
X93036686Y-56984155D01*
X93038638Y-56966538D01*
X93045302Y-56949784D01*
X93056677Y-56934836D01*
X93059360Y-56932252D01*
X93068632Y-56925007D01*
X93078950Y-56919919D01*
X93091399Y-56916673D01*
X93107060Y-56914955D01*
X93127018Y-56914453D01*
X93159497Y-56914453D01*
X93157664Y-56872860D01*
X93157410Y-56866878D01*
X93156908Y-56851406D01*
X93156886Y-56839966D01*
X93157396Y-56831493D01*
X93158486Y-56824920D01*
X93160209Y-56819182D01*
X93165089Y-56808197D01*
X93176076Y-56793198D01*
X93191164Y-56781554D01*
X93195159Y-56779315D01*
X93203032Y-56775985D01*
X93211580Y-56774398D01*
X93223175Y-56773993D01*
X93230108Y-56774245D01*
G37*
G36*
X97522817Y-61562103D02*
G01*
X97522817Y-61659680D01*
X97512676Y-61668039D01*
X97511901Y-61668718D01*
X97510681Y-61669979D01*
X97509710Y-61671171D01*
X97508837Y-61672295D01*
X97507912Y-61673354D01*
X97506786Y-61674349D01*
X97505307Y-61675283D01*
X97503327Y-61676157D01*
X97500695Y-61676976D01*
X97497261Y-61677739D01*
X97492875Y-61678450D01*
X97487387Y-61679111D01*
X97480646Y-61679724D01*
X97472503Y-61680291D01*
X97462808Y-61680815D01*
X97451409Y-61681297D01*
X97438159Y-61681740D01*
X97422905Y-61682146D01*
X97405499Y-61682518D01*
X97385790Y-61682857D01*
X97363627Y-61683165D01*
X97338862Y-61683446D01*
X97311344Y-61683700D01*
X97280922Y-61683931D01*
X97247447Y-61684141D01*
X97210768Y-61684331D01*
X97170736Y-61684504D01*
X97127201Y-61684662D01*
X97080012Y-61684807D01*
X97029018Y-61684942D01*
X96974072Y-61685069D01*
X96915021Y-61685190D01*
X96851716Y-61685307D01*
X96784007Y-61685422D01*
X96711744Y-61685538D01*
X96634776Y-61685656D01*
X96552954Y-61685780D01*
X96466128Y-61685910D01*
X96374147Y-61686050D01*
X96276861Y-61686202D01*
X96204985Y-61686318D01*
X96104732Y-61686486D01*
X96009779Y-61686654D01*
X95920033Y-61686823D01*
X95835401Y-61686993D01*
X95755793Y-61687163D01*
X95681115Y-61687336D01*
X95611276Y-61687510D01*
X95546183Y-61687687D01*
X95485744Y-61687866D01*
X95429867Y-61688048D01*
X95378460Y-61688234D01*
X95331431Y-61688424D01*
X95288687Y-61688618D01*
X95250137Y-61688816D01*
X95215687Y-61689019D01*
X95185247Y-61689228D01*
X95158723Y-61689443D01*
X95136024Y-61689663D01*
X95117057Y-61689890D01*
X95101731Y-61690124D01*
X95089953Y-61690365D01*
X95081630Y-61690614D01*
X95076672Y-61690871D01*
X95074985Y-61691136D01*
X95074904Y-61691956D01*
X95074653Y-61697514D01*
X95074303Y-61707919D01*
X95073865Y-61722761D01*
X95073348Y-61741627D01*
X95072765Y-61764105D01*
X95072124Y-61789783D01*
X95071438Y-61818251D01*
X95070715Y-61849094D01*
X95069968Y-61881902D01*
X95069206Y-61916264D01*
X95064350Y-62138358D01*
X95202339Y-62274913D01*
X95207551Y-62280071D01*
X95233532Y-62305805D01*
X95255944Y-62328057D01*
X95275058Y-62347113D01*
X95291148Y-62363258D01*
X95304485Y-62376780D01*
X95315341Y-62387966D01*
X95323988Y-62397101D01*
X95330698Y-62404473D01*
X95335743Y-62410368D01*
X95339396Y-62415072D01*
X95341927Y-62418873D01*
X95343610Y-62422056D01*
X95344716Y-62424909D01*
X95347566Y-62436290D01*
X95348307Y-62455609D01*
X95343735Y-62473985D01*
X95333910Y-62491056D01*
X95327007Y-62500107D01*
X95281866Y-62500107D01*
X95236725Y-62500107D01*
X95119394Y-62384190D01*
X95002063Y-62268273D01*
X94923983Y-62344248D01*
X94906738Y-62361021D01*
X94886932Y-62380266D01*
X94867211Y-62399410D01*
X94848340Y-62417714D01*
X94831083Y-62434436D01*
X94816204Y-62448833D01*
X94804468Y-62460166D01*
X94763033Y-62500107D01*
X94724270Y-62500107D01*
X94685508Y-62500107D01*
X94675299Y-62489375D01*
X94666853Y-62478183D01*
X94659803Y-62461844D01*
X94656952Y-62444263D01*
X94658477Y-62426757D01*
X94664560Y-62410640D01*
X94666864Y-62407517D01*
X94672938Y-62400578D01*
X94682064Y-62390799D01*
X94693742Y-62378697D01*
X94707472Y-62364790D01*
X94722752Y-62349595D01*
X94739083Y-62333630D01*
X94742372Y-62330441D01*
X94762530Y-62310894D01*
X94784491Y-62289592D01*
X94807112Y-62267645D01*
X94829249Y-62246162D01*
X94849756Y-62226255D01*
X94867490Y-62209033D01*
X94927260Y-62150975D01*
X94932135Y-61956664D01*
X94932628Y-61936837D01*
X94933428Y-61903950D01*
X94934181Y-61872102D01*
X94934875Y-61841845D01*
X94935499Y-61813730D01*
X94936040Y-61788310D01*
X94936486Y-61766136D01*
X94936826Y-61747759D01*
X94937048Y-61733732D01*
X94937140Y-61724607D01*
X94937270Y-61686860D01*
X94462935Y-61687787D01*
X94446908Y-61687820D01*
X94396875Y-61687938D01*
X94348397Y-61688077D01*
X94301751Y-61688235D01*
X94257217Y-61688410D01*
X94215072Y-61688601D01*
X94175597Y-61688805D01*
X94139068Y-61689020D01*
X94105765Y-61689246D01*
X94075967Y-61689479D01*
X94049951Y-61689719D01*
X94027998Y-61689962D01*
X94010384Y-61690208D01*
X93997390Y-61690455D01*
X93989293Y-61690700D01*
X93986372Y-61690943D01*
X93986144Y-61692116D01*
X93985678Y-61698134D01*
X93985112Y-61708790D01*
X93984463Y-61723574D01*
X93983745Y-61741977D01*
X93982972Y-61763488D01*
X93982160Y-61787600D01*
X93981322Y-61813801D01*
X93980475Y-61841584D01*
X93979633Y-61870438D01*
X93978810Y-61899853D01*
X93978021Y-61929322D01*
X93977281Y-61958333D01*
X93976604Y-61986378D01*
X93976007Y-62012947D01*
X93975502Y-62037530D01*
X93975105Y-62059619D01*
X93974831Y-62078703D01*
X93974694Y-62094274D01*
X93974509Y-62134367D01*
X94104741Y-62269598D01*
X94128922Y-62294781D01*
X94152231Y-62319211D01*
X94173371Y-62341533D01*
X94192106Y-62361492D01*
X94208200Y-62378833D01*
X94221416Y-62393302D01*
X94231518Y-62404644D01*
X94238270Y-62412605D01*
X94241435Y-62416929D01*
X94242063Y-62418134D01*
X94248219Y-62435917D01*
X94249205Y-62454287D01*
X94245086Y-62472379D01*
X94235928Y-62489328D01*
X94228120Y-62500107D01*
X94182454Y-62500083D01*
X94136787Y-62500058D01*
X94022365Y-62381016D01*
X93907942Y-62261974D01*
X93790538Y-62381092D01*
X93673134Y-62500210D01*
X93636925Y-62500159D01*
X93600715Y-62500107D01*
X93588940Y-62488332D01*
X93588142Y-62487523D01*
X93576533Y-62471978D01*
X93570016Y-62454699D01*
X93568696Y-62436155D01*
X93572680Y-62416816D01*
X93573131Y-62415597D01*
X93574635Y-62412435D01*
X93576968Y-62408669D01*
X93580405Y-62404003D01*
X93585220Y-62398139D01*
X93591688Y-62390783D01*
X93600083Y-62381636D01*
X93610680Y-62370403D01*
X93623754Y-62356788D01*
X93639578Y-62340494D01*
X93658429Y-62321224D01*
X93680579Y-62298682D01*
X93706304Y-62272572D01*
X93729213Y-62249313D01*
X93752556Y-62225530D01*
X93772469Y-62205127D01*
X93789189Y-62187852D01*
X93802952Y-62173454D01*
X93813991Y-62161681D01*
X93822545Y-62152282D01*
X93828846Y-62145005D01*
X93833133Y-62139598D01*
X93835639Y-62135809D01*
X93836601Y-62133387D01*
X93836605Y-62133362D01*
X93836860Y-62129250D01*
X93837212Y-62120137D01*
X93837650Y-62106467D01*
X93838160Y-62088685D01*
X93838733Y-62067236D01*
X93839357Y-62042564D01*
X93840019Y-62015114D01*
X93840709Y-61985331D01*
X93841415Y-61953658D01*
X93842125Y-61920541D01*
X93842831Y-61887528D01*
X93843537Y-61855593D01*
X93844226Y-61825450D01*
X93844887Y-61797556D01*
X93845508Y-61772369D01*
X93846077Y-61750347D01*
X93846583Y-61731948D01*
X93847014Y-61717630D01*
X93847359Y-61707849D01*
X93847606Y-61703065D01*
X93848785Y-61690141D01*
X93391401Y-61689428D01*
X92934017Y-61688715D01*
X92922704Y-61681896D01*
X92919151Y-61679063D01*
X92911991Y-61672647D01*
X92901619Y-61663004D01*
X92888366Y-61650452D01*
X92872562Y-61635310D01*
X92854539Y-61617896D01*
X92834628Y-61598529D01*
X92813158Y-61577527D01*
X92790461Y-61555208D01*
X92766867Y-61531891D01*
X92752633Y-61517785D01*
X92727167Y-61492518D01*
X92705191Y-61470658D01*
X92686439Y-61451926D01*
X92670647Y-61436042D01*
X92657549Y-61422727D01*
X92646880Y-61411704D01*
X92638375Y-61402692D01*
X92631770Y-61395414D01*
X92626798Y-61389591D01*
X92623195Y-61384942D01*
X92620696Y-61381191D01*
X92619035Y-61378057D01*
X92617947Y-61375263D01*
X92617875Y-61375035D01*
X92617437Y-61373253D01*
X92617029Y-61370748D01*
X92616650Y-61367333D01*
X92616300Y-61362816D01*
X92615977Y-61357011D01*
X92615679Y-61349725D01*
X92615407Y-61340772D01*
X92615159Y-61329960D01*
X92614933Y-61317102D01*
X92614729Y-61302007D01*
X92614546Y-61284487D01*
X92614383Y-61264351D01*
X92614238Y-61241411D01*
X92614110Y-61215477D01*
X92613999Y-61186361D01*
X92613904Y-61153872D01*
X92613822Y-61117821D01*
X92613754Y-61078020D01*
X92613697Y-61034278D01*
X92613652Y-60986407D01*
X92613617Y-60934217D01*
X92613590Y-60877518D01*
X92613571Y-60816123D01*
X92613559Y-60749840D01*
X92613553Y-60678482D01*
X92613551Y-60601857D01*
X92613550Y-60565930D01*
X92613544Y-60491315D01*
X92613537Y-60421878D01*
X92613530Y-60357429D01*
X92613530Y-60297779D01*
X92613539Y-60242738D01*
X92613561Y-60192115D01*
X92613601Y-60145722D01*
X92613662Y-60103368D01*
X92613748Y-60064863D01*
X92613864Y-60030019D01*
X92614013Y-59998645D01*
X92614198Y-59970550D01*
X92614425Y-59945547D01*
X92614697Y-59923444D01*
X92615017Y-59904052D01*
X92615390Y-59887181D01*
X92615820Y-59872641D01*
X92616311Y-59860243D01*
X92616866Y-59849797D01*
X92617489Y-59841113D01*
X92618185Y-59834001D01*
X92618957Y-59828272D01*
X92619809Y-59823735D01*
X92620746Y-59820201D01*
X92621770Y-59817480D01*
X92622887Y-59815383D01*
X92624100Y-59813719D01*
X92625412Y-59812299D01*
X92626828Y-59810933D01*
X92628352Y-59809431D01*
X92629988Y-59807603D01*
X92635480Y-59801657D01*
X92645683Y-59793979D01*
X92658154Y-59788673D01*
X92673907Y-59785356D01*
X92693960Y-59783649D01*
X92720141Y-59782455D01*
X92861742Y-59782455D01*
X92864074Y-59782607D01*
X92871516Y-59782763D01*
X92883726Y-59782911D01*
X92900348Y-59783049D01*
X92921025Y-59783177D01*
X92945404Y-59783293D01*
X92973127Y-59783395D01*
X93003840Y-59783481D01*
X93037187Y-59783551D01*
X93072813Y-59783603D01*
X93110362Y-59783635D01*
X93149479Y-59783646D01*
X93186066Y-59783632D01*
X93223729Y-59783586D01*
X93259493Y-59783511D01*
X93293001Y-59783408D01*
X93323898Y-59783280D01*
X93351829Y-59783129D01*
X93376439Y-59782958D01*
X93397371Y-59782768D01*
X93414270Y-59782562D01*
X93426781Y-59782342D01*
X93434549Y-59782110D01*
X93437217Y-59781868D01*
X93437109Y-59781601D01*
X93576226Y-59781601D01*
X93577567Y-59781786D01*
X93579600Y-59781868D01*
X93583890Y-59782041D01*
X93595099Y-59782285D01*
X93610859Y-59782515D01*
X93630837Y-59782730D01*
X93654698Y-59782928D01*
X93682108Y-59783106D01*
X93712733Y-59783262D01*
X93746239Y-59783395D01*
X93782293Y-59783502D01*
X93820559Y-59783581D01*
X93860704Y-59783630D01*
X93902394Y-59783646D01*
X94380814Y-59783646D01*
X94774802Y-59783646D01*
X95168790Y-59783646D01*
X95163709Y-59772055D01*
X95163601Y-59771809D01*
X95161665Y-59767361D01*
X95157688Y-59758214D01*
X95151788Y-59744634D01*
X95144079Y-59726887D01*
X95134676Y-59705238D01*
X95123694Y-59679952D01*
X95111249Y-59651295D01*
X95097457Y-59619532D01*
X95082431Y-59584929D01*
X95066288Y-59547751D01*
X95049143Y-59508264D01*
X95031111Y-59466732D01*
X95012308Y-59423422D01*
X94992848Y-59378599D01*
X94972846Y-59332528D01*
X94969246Y-59324235D01*
X94949391Y-59278510D01*
X94930125Y-59234155D01*
X94911562Y-59191431D01*
X94893814Y-59150596D01*
X94876994Y-59111911D01*
X94861215Y-59075635D01*
X94846590Y-59042028D01*
X94833233Y-59011348D01*
X94821256Y-58983856D01*
X94810772Y-58959811D01*
X94801894Y-58939472D01*
X94794736Y-58923099D01*
X94789409Y-58910952D01*
X94786028Y-58903290D01*
X94784704Y-58900373D01*
X94783286Y-58898670D01*
X94781198Y-58899806D01*
X94778299Y-58905566D01*
X94778192Y-58905810D01*
X94776275Y-58910090D01*
X94772244Y-58919031D01*
X94766218Y-58932373D01*
X94758313Y-58949853D01*
X94748650Y-58971210D01*
X94737346Y-58996182D01*
X94724520Y-59024508D01*
X94710291Y-59055926D01*
X94694777Y-59090174D01*
X94678096Y-59126991D01*
X94660367Y-59166115D01*
X94641709Y-59207284D01*
X94622240Y-59250237D01*
X94602078Y-59294713D01*
X94581342Y-59340449D01*
X94577750Y-59348371D01*
X94557109Y-59393899D01*
X94537064Y-59438116D01*
X94517735Y-59480760D01*
X94499239Y-59521571D01*
X94481695Y-59560287D01*
X94465221Y-59596648D01*
X94449935Y-59630391D01*
X94435956Y-59661256D01*
X94423401Y-59688982D01*
X94412390Y-59713307D01*
X94403040Y-59733971D01*
X94395470Y-59750711D01*
X94389798Y-59763267D01*
X94386143Y-59771378D01*
X94384622Y-59774782D01*
X94381693Y-59781601D01*
X94380814Y-59783646D01*
X93902394Y-59783646D01*
X93932104Y-59783638D01*
X93972691Y-59783598D01*
X94011480Y-59783528D01*
X94048136Y-59783429D01*
X94082329Y-59783304D01*
X94113727Y-59783154D01*
X94141995Y-59782982D01*
X94166803Y-59782790D01*
X94187818Y-59782580D01*
X94204708Y-59782354D01*
X94217140Y-59782114D01*
X94224782Y-59781862D01*
X94227301Y-59781601D01*
X94226309Y-59779492D01*
X94223137Y-59772652D01*
X94217897Y-59761318D01*
X94210700Y-59745732D01*
X94201660Y-59726139D01*
X94190889Y-59702783D01*
X94178498Y-59675908D01*
X94164602Y-59645757D01*
X94149311Y-59612574D01*
X94132738Y-59576604D01*
X94114997Y-59538091D01*
X94096198Y-59497277D01*
X94076455Y-59454408D01*
X94055880Y-59409726D01*
X94034586Y-59363476D01*
X94012684Y-59315902D01*
X93993238Y-59273668D01*
X93971860Y-59227256D01*
X93951185Y-59182386D01*
X93931323Y-59139301D01*
X93912389Y-59098246D01*
X93894495Y-59059464D01*
X93877753Y-59023199D01*
X93862277Y-58989695D01*
X93848178Y-58959196D01*
X93835570Y-58931946D01*
X93824565Y-58908188D01*
X93815276Y-58888166D01*
X93807816Y-58872125D01*
X93802297Y-58860308D01*
X93798832Y-58852958D01*
X93797534Y-58850321D01*
X93797391Y-58850655D01*
X93796186Y-58855068D01*
X93793837Y-58864337D01*
X93790421Y-58878136D01*
X93786017Y-58896140D01*
X93780701Y-58918021D01*
X93774552Y-58943453D01*
X93767647Y-58972109D01*
X93760063Y-59003664D01*
X93751878Y-59037791D01*
X93743170Y-59074162D01*
X93734017Y-59112453D01*
X93724495Y-59152335D01*
X93714683Y-59193483D01*
X93704657Y-59235571D01*
X93694497Y-59278272D01*
X93684278Y-59321259D01*
X93674079Y-59364205D01*
X93663978Y-59406786D01*
X93654051Y-59448673D01*
X93644378Y-59489541D01*
X93635034Y-59529063D01*
X93626098Y-59566912D01*
X93617647Y-59602763D01*
X93609759Y-59636288D01*
X93602511Y-59667161D01*
X93595981Y-59695056D01*
X93590247Y-59719647D01*
X93585386Y-59740606D01*
X93581476Y-59757607D01*
X93578594Y-59770325D01*
X93576818Y-59778431D01*
X93576226Y-59781601D01*
X93437109Y-59781601D01*
X93437036Y-59781421D01*
X93434973Y-59776965D01*
X93430701Y-59767946D01*
X93424340Y-59754613D01*
X93416011Y-59737215D01*
X93405833Y-59716002D01*
X93393927Y-59691223D01*
X93380413Y-59663127D01*
X93365411Y-59631965D01*
X93349040Y-59597984D01*
X93331421Y-59561436D01*
X93312674Y-59522568D01*
X93292919Y-59481632D01*
X93272276Y-59438875D01*
X93250865Y-59394547D01*
X93228806Y-59348898D01*
X93215972Y-59322345D01*
X93189025Y-59266590D01*
X93164312Y-59215458D01*
X93141739Y-59168753D01*
X93121207Y-59126275D01*
X93102621Y-59087828D01*
X93085884Y-59053212D01*
X93070899Y-59022231D01*
X93057570Y-58994685D01*
X93045800Y-58970378D01*
X93035494Y-58949111D01*
X93026553Y-58930686D01*
X93018882Y-58914905D01*
X93012385Y-58901571D01*
X93006964Y-58890485D01*
X93002523Y-58881449D01*
X92998965Y-58874266D01*
X92996195Y-58868737D01*
X92994115Y-58864665D01*
X92992629Y-58861851D01*
X92991640Y-58860098D01*
X92991052Y-58859207D01*
X92990769Y-58858981D01*
X92990693Y-58859222D01*
X92990728Y-58859732D01*
X92990778Y-58860312D01*
X92990746Y-58860765D01*
X92990409Y-58862949D01*
X92989357Y-58870221D01*
X92987639Y-58882261D01*
X92985305Y-58898732D01*
X92982399Y-58919293D01*
X92978972Y-58943606D01*
X92975068Y-58971332D01*
X92970737Y-59002133D01*
X92966026Y-59035668D01*
X92960981Y-59071600D01*
X92955651Y-59109590D01*
X92950082Y-59149298D01*
X92944323Y-59190386D01*
X92938420Y-59232514D01*
X92932422Y-59275345D01*
X92926375Y-59318538D01*
X92920327Y-59361756D01*
X92914326Y-59404658D01*
X92908418Y-59446907D01*
X92902652Y-59488163D01*
X92897074Y-59528088D01*
X92891732Y-59566343D01*
X92886675Y-59602588D01*
X92881948Y-59636485D01*
X92877599Y-59667694D01*
X92873677Y-59695878D01*
X92870228Y-59720697D01*
X92867299Y-59741812D01*
X92864939Y-59758884D01*
X92863194Y-59771574D01*
X92862113Y-59779545D01*
X92861742Y-59782455D01*
X92720141Y-59782455D01*
X92723912Y-59782283D01*
X92806084Y-59193970D01*
X92807011Y-59187335D01*
X92814841Y-59131375D01*
X92822497Y-59076816D01*
X92829942Y-59023910D01*
X92837142Y-58972904D01*
X92844059Y-58924051D01*
X92850659Y-58877599D01*
X92856904Y-58833799D01*
X92862759Y-58792901D01*
X92868189Y-58755155D01*
X92873156Y-58720812D01*
X92877626Y-58690120D01*
X92881562Y-58663331D01*
X92884928Y-58640695D01*
X92887688Y-58622461D01*
X92889807Y-58608880D01*
X92891248Y-58600201D01*
X92891975Y-58596676D01*
X92896786Y-58588102D01*
X92906843Y-58576637D01*
X92919344Y-58566911D01*
X92932591Y-58560442D01*
X92943742Y-58557782D01*
X92961681Y-58557376D01*
X92978988Y-58561302D01*
X92994430Y-58569222D01*
X93006775Y-58580800D01*
X93007143Y-58581385D01*
X93009748Y-58586282D01*
X93014565Y-58595772D01*
X93021477Y-58609615D01*
X93030368Y-58627572D01*
X93041121Y-58649405D01*
X93053620Y-58674877D01*
X93067748Y-58703747D01*
X93083390Y-58735778D01*
X93100428Y-58770731D01*
X93118747Y-58808368D01*
X93138230Y-58848449D01*
X93158760Y-58890738D01*
X93180221Y-58934994D01*
X93202497Y-58980980D01*
X93225472Y-59028458D01*
X93249028Y-59077187D01*
X93271921Y-59124550D01*
X93300821Y-59184287D01*
X93327450Y-59239255D01*
X93351851Y-59289545D01*
X93374069Y-59335247D01*
X93394147Y-59376449D01*
X93412129Y-59413241D01*
X93428059Y-59445713D01*
X93441982Y-59473954D01*
X93453941Y-59498054D01*
X93463981Y-59518101D01*
X93472145Y-59534186D01*
X93478477Y-59546398D01*
X93483022Y-59554826D01*
X93485823Y-59559560D01*
X93486925Y-59560689D01*
X93487067Y-59560216D01*
X93488300Y-59555364D01*
X93490695Y-59545567D01*
X93494189Y-59531098D01*
X93498715Y-59512228D01*
X93504210Y-59489232D01*
X93510608Y-59462381D01*
X93517844Y-59431948D01*
X93525855Y-59398206D01*
X93534575Y-59361427D01*
X93543940Y-59321885D01*
X93553884Y-59279851D01*
X93564343Y-59235599D01*
X93575252Y-59189401D01*
X93586547Y-59141530D01*
X93598163Y-59092258D01*
X93601744Y-59077063D01*
X93613314Y-59028011D01*
X93624568Y-58980357D01*
X93635438Y-58934381D01*
X93645859Y-58890362D01*
X93655763Y-58848579D01*
X93665085Y-58809311D01*
X93673758Y-58772838D01*
X93681714Y-58739441D01*
X93688889Y-58709397D01*
X93695214Y-58682986D01*
X93700625Y-58660488D01*
X93705053Y-58642183D01*
X93708432Y-58628349D01*
X93710697Y-58619266D01*
X93711779Y-58615214D01*
X93717185Y-58603540D01*
X93728052Y-58590089D01*
X93742152Y-58579460D01*
X93758325Y-58572477D01*
X93775411Y-58569967D01*
X93778739Y-58570149D01*
X93788574Y-58571757D01*
X93798605Y-58574484D01*
X93800866Y-58575207D01*
X93803727Y-58576043D01*
X93806384Y-58576875D01*
X93808938Y-58577900D01*
X93811488Y-58579317D01*
X93814133Y-58581323D01*
X93816974Y-58584117D01*
X93820111Y-58587898D01*
X93823642Y-58592863D01*
X93827668Y-58599210D01*
X93832289Y-58607139D01*
X93837604Y-58616846D01*
X93843714Y-58628531D01*
X93850717Y-58642391D01*
X93858713Y-58658625D01*
X93867804Y-58677431D01*
X93878087Y-58699007D01*
X93889663Y-58723551D01*
X93902632Y-58751262D01*
X93917093Y-58782338D01*
X93933146Y-58816977D01*
X93950891Y-58855377D01*
X93970428Y-58897737D01*
X93991856Y-58944254D01*
X94015276Y-58995127D01*
X94040786Y-59050554D01*
X94068488Y-59110734D01*
X94083729Y-59143827D01*
X94106303Y-59192791D01*
X94128212Y-59240252D01*
X94149347Y-59285980D01*
X94169602Y-59329744D01*
X94188869Y-59371315D01*
X94207041Y-59410461D01*
X94224011Y-59446953D01*
X94239671Y-59480561D01*
X94253913Y-59511053D01*
X94266632Y-59538200D01*
X94277718Y-59561772D01*
X94287065Y-59581538D01*
X94294566Y-59597268D01*
X94300113Y-59608731D01*
X94303599Y-59615698D01*
X94304916Y-59617938D01*
X94305581Y-59616811D01*
X94308403Y-59611121D01*
X94313224Y-59600950D01*
X94319909Y-59586604D01*
X94328320Y-59568387D01*
X94338319Y-59546604D01*
X94349770Y-59521559D01*
X94362535Y-59493558D01*
X94376478Y-59462904D01*
X94391460Y-59429904D01*
X94407344Y-59394861D01*
X94423994Y-59358081D01*
X94441273Y-59319868D01*
X94459042Y-59280527D01*
X94477164Y-59240362D01*
X94495504Y-59199679D01*
X94513922Y-59158783D01*
X94532282Y-59117977D01*
X94550447Y-59077567D01*
X94568280Y-59037858D01*
X94585643Y-58999154D01*
X94602399Y-58961760D01*
X94618410Y-58925982D01*
X94633541Y-58892123D01*
X94647652Y-58860488D01*
X94660608Y-58831382D01*
X94672271Y-58805111D01*
X94682503Y-58781978D01*
X94691168Y-58762289D01*
X94698128Y-58746348D01*
X94703246Y-58734460D01*
X94706384Y-58726930D01*
X94707406Y-58724063D01*
X94706913Y-58722697D01*
X94704431Y-58716620D01*
X94699976Y-58706013D01*
X94693674Y-58691168D01*
X94685648Y-58672376D01*
X94676026Y-58649927D01*
X94664932Y-58624114D01*
X94652491Y-58595226D01*
X94638830Y-58563555D01*
X94624072Y-58529393D01*
X94608343Y-58493030D01*
X94591770Y-58454758D01*
X94574476Y-58414868D01*
X94556588Y-58373650D01*
X94539131Y-58333465D01*
X94519104Y-58287421D01*
X94501067Y-58246023D01*
X94484929Y-58209069D01*
X94470596Y-58176354D01*
X94457980Y-58147676D01*
X94446988Y-58122831D01*
X94437530Y-58101616D01*
X94429514Y-58083828D01*
X94422848Y-58069264D01*
X94417443Y-58057719D01*
X94413206Y-58048991D01*
X94410047Y-58042877D01*
X94407874Y-58039173D01*
X94406596Y-58037677D01*
X94406122Y-58038183D01*
X94406031Y-58039987D01*
X94405730Y-58047082D01*
X94405245Y-58059140D01*
X94404586Y-58075863D01*
X94403764Y-58096954D01*
X94402793Y-58122116D01*
X94401682Y-58151050D01*
X94400442Y-58183461D01*
X94399087Y-58219050D01*
X94397626Y-58257521D01*
X94396071Y-58298576D01*
X94394433Y-58341917D01*
X94392724Y-58387249D01*
X94390956Y-58434272D01*
X94389139Y-58482691D01*
X94388076Y-58510993D01*
X94385955Y-58567204D01*
X94384009Y-58618311D01*
X94382227Y-58664547D01*
X94380598Y-58706149D01*
X94379111Y-58743352D01*
X94377756Y-58776391D01*
X94376522Y-58805502D01*
X94375398Y-58830920D01*
X94374373Y-58852880D01*
X94373436Y-58871618D01*
X94372577Y-58887370D01*
X94371784Y-58900369D01*
X94371047Y-58910853D01*
X94370355Y-58919056D01*
X94369697Y-58925213D01*
X94369063Y-58929561D01*
X94368441Y-58932333D01*
X94365374Y-58940446D01*
X94356143Y-58954775D01*
X94343709Y-58965859D01*
X94328978Y-58973525D01*
X94312857Y-58977599D01*
X94296252Y-58977909D01*
X94280069Y-58974281D01*
X94265215Y-58966540D01*
X94252596Y-58954514D01*
X94252363Y-58954177D01*
X94249803Y-58949821D01*
X94244817Y-58940929D01*
X94237526Y-58927722D01*
X94228049Y-58910421D01*
X94216507Y-58889250D01*
X94203018Y-58864429D01*
X94187703Y-58836181D01*
X94170683Y-58804728D01*
X94152076Y-58770291D01*
X94132003Y-58733093D01*
X94110584Y-58693354D01*
X94087938Y-58651298D01*
X94064186Y-58607146D01*
X94039447Y-58561120D01*
X94013842Y-58513442D01*
X93987490Y-58464334D01*
X93960511Y-58414018D01*
X93953214Y-58400405D01*
X93926498Y-58350573D01*
X93900494Y-58302092D01*
X93875320Y-58255177D01*
X93851091Y-58210043D01*
X93827924Y-58166909D01*
X93805936Y-58125989D01*
X93785243Y-58087500D01*
X93765961Y-58051657D01*
X93748206Y-58018678D01*
X93732095Y-57988779D01*
X93717745Y-57962174D01*
X93705271Y-57939082D01*
X93694790Y-57919717D01*
X93686419Y-57904296D01*
X93680273Y-57893036D01*
X93676470Y-57886152D01*
X93675125Y-57883861D01*
X93674737Y-57885945D01*
X93673537Y-57893154D01*
X93671572Y-57905256D01*
X93668883Y-57921988D01*
X93665512Y-57943085D01*
X93661500Y-57968282D01*
X93656890Y-57997315D01*
X93651724Y-58029919D01*
X93646044Y-58065829D01*
X93639890Y-58104781D01*
X93633306Y-58146510D01*
X93626334Y-58190751D01*
X93619014Y-58237241D01*
X93611389Y-58285713D01*
X93603501Y-58335904D01*
X93595392Y-58387549D01*
X93588686Y-58430225D01*
X93580682Y-58481037D01*
X93572900Y-58530302D01*
X93565385Y-58577745D01*
X93558180Y-58623091D01*
X93551330Y-58666067D01*
X93544878Y-58706398D01*
X93538870Y-58743809D01*
X93533349Y-58778026D01*
X93528360Y-58808775D01*
X93523946Y-58835780D01*
X93520152Y-58858769D01*
X93517022Y-58877465D01*
X93514601Y-58891595D01*
X93512932Y-58900885D01*
X93512060Y-58905060D01*
X93508738Y-58913695D01*
X93499382Y-58927892D01*
X93486854Y-58938867D01*
X93472060Y-58946447D01*
X93455907Y-58950457D01*
X93439300Y-58950724D01*
X93423146Y-58947075D01*
X93408352Y-58939335D01*
X93395823Y-58927332D01*
X93395752Y-58927230D01*
X93393789Y-58923569D01*
X93389604Y-58915217D01*
X93383299Y-58902388D01*
X93374977Y-58885299D01*
X93364742Y-58864163D01*
X93352696Y-58839198D01*
X93338943Y-58810617D01*
X93323586Y-58778636D01*
X93306728Y-58743470D01*
X93288472Y-58705336D01*
X93268921Y-58664447D01*
X93248179Y-58621019D01*
X93226348Y-58575268D01*
X93203532Y-58527409D01*
X93179834Y-58477656D01*
X93155357Y-58426227D01*
X93130203Y-58373334D01*
X93104478Y-58319195D01*
X93101953Y-58313880D01*
X93068221Y-58242896D01*
X93036771Y-58176772D01*
X93007567Y-58115436D01*
X92980576Y-58058815D01*
X92955762Y-58006839D01*
X92933090Y-57959434D01*
X92912527Y-57916528D01*
X92894036Y-57878051D01*
X92877584Y-57843928D01*
X92863136Y-57814089D01*
X92850656Y-57788462D01*
X92840111Y-57766973D01*
X92831465Y-57749552D01*
X92824684Y-57736125D01*
X92819732Y-57726622D01*
X92817395Y-57722436D01*
X92971669Y-57722436D01*
X92972502Y-57724224D01*
X92975566Y-57730709D01*
X92980764Y-57741682D01*
X92987982Y-57756898D01*
X92997102Y-57776112D01*
X93008007Y-57799080D01*
X93020583Y-57825556D01*
X93034712Y-57855296D01*
X93050278Y-57888054D01*
X93067165Y-57923587D01*
X93085256Y-57961648D01*
X93104435Y-58001993D01*
X93124585Y-58044378D01*
X93145591Y-58088556D01*
X93167336Y-58134284D01*
X93189703Y-58181316D01*
X93200048Y-58203069D01*
X93226245Y-58258148D01*
X93250233Y-58308578D01*
X93272110Y-58354560D01*
X93291971Y-58396297D01*
X93309915Y-58433990D01*
X93326038Y-58467841D01*
X93340436Y-58498053D01*
X93353207Y-58524827D01*
X93364448Y-58548365D01*
X93374255Y-58568869D01*
X93382725Y-58586542D01*
X93389955Y-58601584D01*
X93396043Y-58614199D01*
X93401084Y-58624587D01*
X93405176Y-58632951D01*
X93408415Y-58639493D01*
X93410899Y-58644415D01*
X93412724Y-58647918D01*
X93413988Y-58650205D01*
X93414786Y-58651478D01*
X93415216Y-58651938D01*
X93415376Y-58651788D01*
X93415404Y-58651601D01*
X93416039Y-58647565D01*
X93417470Y-58638483D01*
X93419653Y-58624630D01*
X93422546Y-58606283D01*
X93426104Y-58583718D01*
X93430284Y-58557210D01*
X93435043Y-58527035D01*
X93440336Y-58493471D01*
X93446121Y-58456791D01*
X93452354Y-58417274D01*
X93458991Y-58375194D01*
X93465990Y-58330828D01*
X93473305Y-58284451D01*
X93480894Y-58236340D01*
X93488714Y-58186771D01*
X93490577Y-58174956D01*
X93498336Y-58125694D01*
X93505840Y-58077950D01*
X93513047Y-58031998D01*
X93519913Y-57988116D01*
X93526396Y-57946579D01*
X93532453Y-57907665D01*
X93538041Y-57871650D01*
X93543118Y-57838811D01*
X93547640Y-57809423D01*
X93551566Y-57783764D01*
X93554852Y-57762109D01*
X93557455Y-57744737D01*
X93559333Y-57731922D01*
X93560442Y-57723942D01*
X93560556Y-57722852D01*
X93745410Y-57722852D01*
X93745430Y-57722905D01*
X93747016Y-57725974D01*
X93751041Y-57733588D01*
X93757380Y-57745514D01*
X93765909Y-57761520D01*
X93776503Y-57781373D01*
X93789039Y-57804841D01*
X93803391Y-57831692D01*
X93819435Y-57861692D01*
X93837047Y-57894610D01*
X93856103Y-57930212D01*
X93876478Y-57968267D01*
X93898048Y-58008541D01*
X93920689Y-58050803D01*
X93944275Y-58094819D01*
X93968684Y-58140358D01*
X93993789Y-58187187D01*
X93996787Y-58192778D01*
X94021846Y-58239501D01*
X94046217Y-58284919D01*
X94069775Y-58328799D01*
X94092392Y-58370909D01*
X94113945Y-58411013D01*
X94134305Y-58448878D01*
X94153349Y-58484272D01*
X94170950Y-58516959D01*
X94186982Y-58546707D01*
X94201319Y-58573282D01*
X94213836Y-58596451D01*
X94224406Y-58615979D01*
X94232904Y-58631633D01*
X94239205Y-58643179D01*
X94243181Y-58650385D01*
X94244708Y-58653015D01*
X94245936Y-58652570D01*
X94246904Y-58647495D01*
X94247249Y-58638014D01*
X94247256Y-58637005D01*
X94247416Y-58630025D01*
X94247771Y-58618174D01*
X94248307Y-58601809D01*
X94249010Y-58581285D01*
X94249867Y-58556958D01*
X94250865Y-58529184D01*
X94251988Y-58498319D01*
X94253225Y-58464719D01*
X94254561Y-58428739D01*
X94255982Y-58390736D01*
X94257474Y-58351066D01*
X94259025Y-58310084D01*
X94260620Y-58268147D01*
X94262245Y-58225610D01*
X94263888Y-58182830D01*
X94265534Y-58140161D01*
X94267169Y-58097961D01*
X94268780Y-58056584D01*
X94270354Y-58016388D01*
X94271876Y-57977728D01*
X94273333Y-57940959D01*
X94274710Y-57906438D01*
X94275996Y-57874520D01*
X94277175Y-57845563D01*
X94278234Y-57819920D01*
X94279159Y-57797949D01*
X94279937Y-57780006D01*
X94280555Y-57766445D01*
X94280997Y-57757624D01*
X94281251Y-57753898D01*
X94281341Y-57745112D01*
X94278331Y-57732761D01*
X94273927Y-57721754D01*
X94009668Y-57721754D01*
X93993131Y-57721757D01*
X93956321Y-57721777D01*
X93921256Y-57721818D01*
X93888306Y-57721878D01*
X93857844Y-57721955D01*
X93830241Y-57722048D01*
X93805866Y-57722155D01*
X93785091Y-57722275D01*
X93768287Y-57722407D01*
X93755824Y-57722548D01*
X93748075Y-57722697D01*
X93745410Y-57722852D01*
X93560556Y-57722852D01*
X93560741Y-57721073D01*
X93560716Y-57721052D01*
X93557514Y-57720778D01*
X93549236Y-57720515D01*
X93536235Y-57720265D01*
X93518864Y-57720031D01*
X93497475Y-57719816D01*
X93472423Y-57719621D01*
X93444060Y-57719450D01*
X93412740Y-57719304D01*
X93378814Y-57719187D01*
X93342637Y-57719100D01*
X93304561Y-57719046D01*
X93264940Y-57719027D01*
X93222675Y-57719036D01*
X93179163Y-57719068D01*
X93140626Y-57719128D01*
X93106807Y-57719218D01*
X93077449Y-57719341D01*
X93052296Y-57719501D01*
X93031091Y-57719700D01*
X93013578Y-57719940D01*
X92999501Y-57720226D01*
X92988602Y-57720560D01*
X92980626Y-57720945D01*
X92975316Y-57721384D01*
X92972416Y-57721880D01*
X92971669Y-57722436D01*
X92817395Y-57722436D01*
X92816576Y-57720969D01*
X92815180Y-57719095D01*
X92806986Y-57717789D01*
X92794970Y-57713300D01*
X92782949Y-57706566D01*
X92772968Y-57698581D01*
X92770846Y-57696519D01*
X92768169Y-57693985D01*
X92765775Y-57691554D01*
X92763647Y-57688934D01*
X92761766Y-57685831D01*
X92760115Y-57681953D01*
X92758677Y-57677008D01*
X92757435Y-57670704D01*
X92756371Y-57662747D01*
X92755468Y-57652846D01*
X92754708Y-57640707D01*
X92754074Y-57626039D01*
X92753549Y-57608549D01*
X92753115Y-57587944D01*
X92752754Y-57563931D01*
X92752451Y-57536220D01*
X92752186Y-57504516D01*
X92751943Y-57468528D01*
X92751704Y-57427962D01*
X92751453Y-57382527D01*
X92751170Y-57331930D01*
X92749300Y-57003472D01*
X92613241Y-56811168D01*
X92499738Y-56650744D01*
X92669070Y-56650744D01*
X92669340Y-56651391D01*
X92672119Y-56655841D01*
X92677678Y-56664186D01*
X92685761Y-56676059D01*
X92696113Y-56691092D01*
X92708479Y-56708916D01*
X92722604Y-56729164D01*
X92738234Y-56751468D01*
X92755113Y-56775458D01*
X92772986Y-56800768D01*
X92780918Y-56811995D01*
X92798630Y-56837175D01*
X92815353Y-56861098D01*
X92830815Y-56883365D01*
X92844744Y-56903580D01*
X92856867Y-56921344D01*
X92866912Y-56936259D01*
X92874606Y-56947926D01*
X92879679Y-56955949D01*
X92881856Y-56959928D01*
X92881926Y-56960139D01*
X92882515Y-56962989D01*
X92883056Y-56967792D01*
X92883553Y-56974818D01*
X92884011Y-56984335D01*
X92884434Y-56996615D01*
X92884828Y-57011924D01*
X92885197Y-57030534D01*
X92885547Y-57052714D01*
X92885881Y-57078732D01*
X92886205Y-57108858D01*
X92886524Y-57143361D01*
X92886842Y-57182511D01*
X92887165Y-57226578D01*
X92887496Y-57275829D01*
X92887574Y-57287855D01*
X92887840Y-57327769D01*
X92888102Y-57366029D01*
X92888358Y-57402292D01*
X92888605Y-57436210D01*
X92888840Y-57467439D01*
X92889061Y-57495632D01*
X92889265Y-57520444D01*
X92889449Y-57541530D01*
X92889610Y-57558544D01*
X92889745Y-57571140D01*
X92889853Y-57578973D01*
X92889930Y-57581696D01*
X92892299Y-57581736D01*
X92899904Y-57581794D01*
X92912531Y-57581867D01*
X92929955Y-57581955D01*
X92951953Y-57582057D01*
X92978299Y-57582171D01*
X93008769Y-57582296D01*
X93043140Y-57582433D01*
X93081187Y-57582580D01*
X93122686Y-57582737D01*
X93167412Y-57582901D01*
X93215142Y-57583074D01*
X93265650Y-57583253D01*
X93318712Y-57583438D01*
X93374106Y-57583628D01*
X93431605Y-57583823D01*
X93490986Y-57584021D01*
X93552024Y-57584221D01*
X93614496Y-57584423D01*
X94338613Y-57586750D01*
X94351475Y-57594311D01*
X94355910Y-57597171D01*
X94364613Y-57604036D01*
X94371034Y-57610675D01*
X94371660Y-57611909D01*
X94374376Y-57617834D01*
X94379126Y-57628445D01*
X94385826Y-57643548D01*
X94394390Y-57662947D01*
X94404733Y-57686446D01*
X94416771Y-57713852D01*
X94419938Y-57721073D01*
X94430418Y-57744968D01*
X94430481Y-57745112D01*
X94445590Y-57779599D01*
X94462201Y-57817550D01*
X94480166Y-57858625D01*
X94499400Y-57902629D01*
X94519819Y-57949368D01*
X94541337Y-57998645D01*
X94563870Y-58050265D01*
X94587331Y-58104034D01*
X94611638Y-58159755D01*
X94636703Y-58217234D01*
X94662443Y-58276275D01*
X94688772Y-58336682D01*
X94715605Y-58398262D01*
X94742858Y-58460818D01*
X94770445Y-58524155D01*
X94798281Y-58588077D01*
X94826281Y-58652390D01*
X94854361Y-58716899D01*
X94882435Y-58781407D01*
X94910419Y-58845720D01*
X94938226Y-58909642D01*
X94965773Y-58972978D01*
X94992974Y-59035533D01*
X95019745Y-59097112D01*
X95045999Y-59157518D01*
X95071653Y-59216558D01*
X95096621Y-59274035D01*
X95120819Y-59329755D01*
X95144161Y-59383521D01*
X95166562Y-59435139D01*
X95187937Y-59484414D01*
X95208201Y-59531150D01*
X95227270Y-59575152D01*
X95245058Y-59616224D01*
X95261480Y-59654172D01*
X95276451Y-59688799D01*
X95289887Y-59719912D01*
X95301702Y-59747313D01*
X95311811Y-59770809D01*
X95317316Y-59783646D01*
X95320129Y-59790204D01*
X95326571Y-59805303D01*
X95331053Y-59815909D01*
X95333489Y-59821829D01*
X95336691Y-59830348D01*
X95339510Y-59840046D01*
X95340526Y-59848533D01*
X95340133Y-59857968D01*
X95339873Y-59860394D01*
X95335026Y-59878800D01*
X95325606Y-59894547D01*
X95312051Y-59907079D01*
X95294794Y-59915840D01*
X95293843Y-59916089D01*
X95291820Y-59916401D01*
X95288785Y-59916695D01*
X95284596Y-59916974D01*
X95279108Y-59917237D01*
X95272179Y-59917484D01*
X95263666Y-59917716D01*
X95253425Y-59917934D01*
X95241312Y-59918137D01*
X95227184Y-59918328D01*
X95210899Y-59918505D01*
X95192312Y-59918669D01*
X95171280Y-59918821D01*
X95147661Y-59918962D01*
X95121310Y-59919092D01*
X95092084Y-59919210D01*
X95059841Y-59919319D01*
X95024436Y-59919418D01*
X94985726Y-59919507D01*
X94943568Y-59919588D01*
X94897819Y-59919660D01*
X94848335Y-59919724D01*
X94794973Y-59919781D01*
X94737590Y-59919831D01*
X94676042Y-59919875D01*
X94610185Y-59919912D01*
X94539878Y-59919944D01*
X94464976Y-59919971D01*
X94385335Y-59919994D01*
X94300814Y-59920012D01*
X94211267Y-59920027D01*
X94116553Y-59920038D01*
X94016527Y-59920047D01*
X92749919Y-59920140D01*
X92749919Y-60622149D01*
X92749919Y-61324157D01*
X92866508Y-61438934D01*
X92983096Y-61553710D01*
X93534032Y-61553253D01*
X93568645Y-61553223D01*
X93629970Y-61553168D01*
X93694486Y-61553108D01*
X93762028Y-61553041D01*
X93832429Y-61552969D01*
X93905522Y-61552891D01*
X93981143Y-61552808D01*
X94059124Y-61552720D01*
X94139298Y-61552628D01*
X94221501Y-61552531D01*
X94305565Y-61552430D01*
X94391325Y-61552326D01*
X94478613Y-61552217D01*
X94567264Y-61552105D01*
X94657111Y-61551991D01*
X94747989Y-61551873D01*
X94839730Y-61551752D01*
X94932169Y-61551629D01*
X95025139Y-61551504D01*
X95118474Y-61551377D01*
X95212008Y-61551248D01*
X95305575Y-61551118D01*
X95399007Y-61550987D01*
X95492140Y-61550855D01*
X95584806Y-61550721D01*
X95676839Y-61550588D01*
X95768073Y-61550454D01*
X95858343Y-61550321D01*
X95947480Y-61550187D01*
X96035320Y-61550055D01*
X96121696Y-61549922D01*
X96206442Y-61549791D01*
X96289391Y-61549662D01*
X96370377Y-61549533D01*
X96449234Y-61549407D01*
X96525795Y-61549282D01*
X96599895Y-61549160D01*
X96671366Y-61549040D01*
X96740044Y-61548923D01*
X96805761Y-61548809D01*
X96868351Y-61548698D01*
X96927648Y-61548591D01*
X96983485Y-61548487D01*
X97035697Y-61548387D01*
X97084117Y-61548292D01*
X97128579Y-61548201D01*
X97168916Y-61548114D01*
X97204962Y-61548033D01*
X97236551Y-61547957D01*
X97263517Y-61547886D01*
X97285694Y-61547821D01*
X97302914Y-61547762D01*
X97315012Y-61547709D01*
X97321822Y-61547662D01*
X97394927Y-61546891D01*
X97141816Y-61479302D01*
X97129921Y-61476123D01*
X97093954Y-61466471D01*
X97059427Y-61457148D01*
X97026723Y-61448261D01*
X96996225Y-61439917D01*
X96968317Y-61432223D01*
X96943382Y-61425284D01*
X96921803Y-61419207D01*
X96903964Y-61414098D01*
X96890249Y-61410065D01*
X96881040Y-61407214D01*
X96876722Y-61405651D01*
X96873758Y-61403998D01*
X96864524Y-61397335D01*
X96857164Y-61390055D01*
X96856379Y-61388662D01*
X96853210Y-61382578D01*
X96847697Y-61371798D01*
X96839897Y-61356430D01*
X96829864Y-61336585D01*
X96817654Y-61312373D01*
X96803320Y-61283904D01*
X96786919Y-61251288D01*
X96768505Y-61214636D01*
X96748134Y-61174057D01*
X96725861Y-61129661D01*
X96701740Y-61081560D01*
X96675828Y-61029861D01*
X96648178Y-60974677D01*
X96618846Y-60916116D01*
X96587888Y-60854289D01*
X96555357Y-60789307D01*
X96521310Y-60721278D01*
X96485802Y-60650314D01*
X96448887Y-60576524D01*
X96410620Y-60500018D01*
X96371058Y-60420906D01*
X96330254Y-60339300D01*
X96288264Y-60255307D01*
X96245143Y-60169040D01*
X96200946Y-60080607D01*
X96155729Y-59990120D01*
X96109545Y-59897687D01*
X96062452Y-59803419D01*
X96014502Y-59707426D01*
X95965752Y-59609819D01*
X95916257Y-59510707D01*
X95866072Y-59410200D01*
X95815251Y-59308409D01*
X95763850Y-59205444D01*
X94678113Y-57030366D01*
X94538364Y-56891961D01*
X94528289Y-56881985D01*
X94503270Y-56857237D01*
X94478142Y-56832411D01*
X94453401Y-56807997D01*
X94429546Y-56784484D01*
X94407074Y-56762363D01*
X94386484Y-56742125D01*
X94368272Y-56724258D01*
X94352936Y-56709254D01*
X94340974Y-56697602D01*
X94283334Y-56641648D01*
X93476852Y-56645546D01*
X93412420Y-56645862D01*
X93347824Y-56646186D01*
X93284853Y-56646511D01*
X93223719Y-56646835D01*
X93164635Y-56647157D01*
X93107814Y-56647474D01*
X93053468Y-56647786D01*
X93001811Y-56648092D01*
X92953055Y-56648389D01*
X92907412Y-56648678D01*
X92865097Y-56648955D01*
X92826321Y-56649220D01*
X92791297Y-56649472D01*
X92760238Y-56649709D01*
X92733358Y-56649930D01*
X92710868Y-56650134D01*
X92692981Y-56650318D01*
X92679911Y-56650482D01*
X92671870Y-56650625D01*
X92669070Y-56650744D01*
X92499738Y-56650744D01*
X92477182Y-56618863D01*
X92477182Y-56580775D01*
X92477182Y-56542686D01*
X92487914Y-56532477D01*
X92488811Y-56531574D01*
X92490230Y-56529913D01*
X92491377Y-56528359D01*
X92492426Y-56526907D01*
X92493551Y-56525553D01*
X92494926Y-56524294D01*
X92496724Y-56523124D01*
X92499117Y-56522039D01*
X92502281Y-56521036D01*
X92506388Y-56520109D01*
X92511612Y-56519255D01*
X92518126Y-56518469D01*
X92526104Y-56517748D01*
X92535720Y-56517085D01*
X92547147Y-56516479D01*
X92560558Y-56515923D01*
X92576126Y-56515415D01*
X92594027Y-56514948D01*
X92614432Y-56514521D01*
X92637516Y-56514127D01*
X92663452Y-56513763D01*
X92692413Y-56513424D01*
X92724573Y-56513106D01*
X92760106Y-56512805D01*
X92799185Y-56512517D01*
X92841983Y-56512237D01*
X92888674Y-56511962D01*
X92939432Y-56511685D01*
X92994430Y-56511405D01*
X93053842Y-56511115D01*
X93117840Y-56510812D01*
X93186599Y-56510492D01*
X93260293Y-56510151D01*
X93339094Y-56509783D01*
X93423176Y-56509385D01*
X93470865Y-56509157D01*
X93551094Y-56508776D01*
X93626143Y-56508424D01*
X93696187Y-56508099D01*
X93761403Y-56507803D01*
X93821964Y-56507534D01*
X93878047Y-56507295D01*
X93929827Y-56507083D01*
X93977480Y-56506900D01*
X94021181Y-56506745D01*
X94061105Y-56506619D01*
X94097428Y-56506522D01*
X94130326Y-56506454D01*
X94159974Y-56506414D01*
X94186547Y-56506403D01*
X94210220Y-56506421D01*
X94231170Y-56506469D01*
X94249571Y-56506545D01*
X94265600Y-56506650D01*
X94279431Y-56506785D01*
X94291240Y-56506949D01*
X94301203Y-56507142D01*
X94309494Y-56507365D01*
X94316290Y-56507618D01*
X94321766Y-56507900D01*
X94326096Y-56508211D01*
X94329458Y-56508553D01*
X94332025Y-56508924D01*
X94333975Y-56509325D01*
X94335481Y-56509756D01*
X94336319Y-56510059D01*
X94338681Y-56511153D01*
X94341550Y-56512857D01*
X94345095Y-56515332D01*
X94349484Y-56518741D01*
X94354884Y-56523244D01*
X94361464Y-56529004D01*
X94369391Y-56536182D01*
X94378834Y-56544941D01*
X94389961Y-56555442D01*
X94402939Y-56567848D01*
X94417937Y-56582319D01*
X94435122Y-56599018D01*
X94454663Y-56618107D01*
X94476728Y-56639748D01*
X94501485Y-56664101D01*
X94529101Y-56691331D01*
X94559745Y-56721597D01*
X94593584Y-56755062D01*
X94630788Y-56791888D01*
X94671523Y-56832237D01*
X94715958Y-56876270D01*
X94791633Y-56951272D01*
X95874129Y-59120214D01*
X95906919Y-59185910D01*
X95957834Y-59287919D01*
X96008121Y-59388663D01*
X96057727Y-59488034D01*
X96106594Y-59585922D01*
X96154670Y-59682216D01*
X96201899Y-59776809D01*
X96248227Y-59869589D01*
X96293598Y-59960447D01*
X96337958Y-60049274D01*
X96381252Y-60135960D01*
X96423425Y-60220395D01*
X96464423Y-60302471D01*
X96504190Y-60382076D01*
X96542673Y-60459103D01*
X96579816Y-60533440D01*
X96615564Y-60604979D01*
X96649863Y-60673610D01*
X96682658Y-60739223D01*
X96713894Y-60801708D01*
X96743516Y-60860957D01*
X96771470Y-60916859D01*
X96797701Y-60969305D01*
X96822154Y-61018186D01*
X96844774Y-61063391D01*
X96865506Y-61104811D01*
X96884296Y-61142336D01*
X96901089Y-61175858D01*
X96915830Y-61205265D01*
X96928465Y-61230450D01*
X96938938Y-61251301D01*
X96947195Y-61267710D01*
X96953181Y-61279567D01*
X96956841Y-61286762D01*
X96958121Y-61289185D01*
X96959243Y-61289454D01*
X96965109Y-61290973D01*
X96975668Y-61293751D01*
X96990566Y-61297692D01*
X97009449Y-61302703D01*
X97031960Y-61308689D01*
X97057745Y-61315556D01*
X97086448Y-61323208D01*
X97117715Y-61331551D01*
X97151189Y-61340491D01*
X97186517Y-61349934D01*
X97223342Y-61359784D01*
X97234061Y-61362654D01*
X97280724Y-61375191D01*
X97323180Y-61386673D01*
X97361309Y-61397066D01*
X97394992Y-61406336D01*
X97424109Y-61414449D01*
X97448541Y-61421374D01*
X97468167Y-61427075D01*
X97482869Y-61431519D01*
X97492527Y-61434673D01*
X97497021Y-61436503D01*
X97499607Y-61438274D01*
X97507808Y-61445458D01*
X97514896Y-61453590D01*
X97522817Y-61464525D01*
X97522817Y-61546891D01*
X97522817Y-61562103D01*
G37*
%TD*%
M02*
