%TF.GenerationSoftware,KiCad,Pcbnew,7.0.9*%
%TF.CreationDate,2024-10-08T00:30:49+03:00*%
%TF.ProjectId,DRM_Watch_V3,44524d5f-5761-4746-9368-5f56332e6b69,rev?*%
%TF.SameCoordinates,Original*%
%TF.FileFunction,Soldermask,Bot*%
%TF.FilePolarity,Negative*%
%FSLAX46Y46*%
G04 Gerber Fmt 4.6, Leading zero omitted, Abs format (unit mm)*
G04 Created by KiCad (PCBNEW 7.0.9) date 2024-10-08 00:30:49*
%MOMM*%
%LPD*%
G01*
G04 APERTURE LIST*
%ADD10C,4.300000*%
%ADD11C,0.800000*%
%ADD12C,0.600000*%
%ADD13O,2.204000X1.104000*%
%ADD14O,1.904000X1.104000*%
%ADD15C,1.200000*%
G04 APERTURE END LIST*
D10*
%TO.C,M2*%
X124460000Y-47752000D03*
%TD*%
D11*
%TO.C,S2*%
X67518000Y-64428000D03*
X67518000Y-66128000D03*
%TD*%
%TO.C,S1*%
X67518000Y-51220000D03*
X67518000Y-52920000D03*
%TD*%
%TO.C,S4*%
X67518000Y-77636000D03*
X67518000Y-79336000D03*
%TD*%
D10*
%TO.C,M3*%
X95250000Y-48006000D03*
%TD*%
D11*
%TO.C,S3*%
X123637000Y-79678000D03*
X123637000Y-77978000D03*
%TD*%
D10*
%TO.C,M1*%
X71120000Y-83312000D03*
%TD*%
D12*
%TO.C,J1*%
X122990000Y-67921000D03*
X122990000Y-62141000D03*
D13*
X122500000Y-69356000D03*
X122500000Y-60706000D03*
D14*
X126670000Y-69356000D03*
X126670000Y-60706000D03*
%TD*%
D15*
%TO.C,TP15*%
X96520000Y-76962000D03*
%TD*%
%TO.C,TP38*%
X86500000Y-77000000D03*
%TD*%
%TO.C,TP9*%
X85852000Y-49149000D03*
%TD*%
%TO.C,TP24*%
X123500000Y-64262000D03*
%TD*%
%TO.C,TP5*%
X82000000Y-70500000D03*
%TD*%
%TO.C,TP16*%
X97663000Y-78867000D03*
%TD*%
%TO.C,TP20*%
X76500000Y-73500000D03*
%TD*%
%TO.C,TP12*%
X126500000Y-57000000D03*
%TD*%
%TO.C,TP11*%
X88000000Y-45000000D03*
%TD*%
%TO.C,TP30*%
X110998000Y-83058000D03*
%TD*%
%TO.C,TP37*%
X114821319Y-59885182D03*
%TD*%
%TO.C,TP14*%
X95377000Y-78867000D03*
%TD*%
%TO.C,TP34*%
X120321319Y-57385182D03*
%TD*%
%TO.C,TP1*%
X101500000Y-47500000D03*
%TD*%
%TO.C,TP7*%
X125000000Y-62500000D03*
%TD*%
%TO.C,TP31*%
X116483332Y-61350058D03*
%TD*%
%TO.C,TP4*%
X75500000Y-62500000D03*
%TD*%
%TO.C,TP19*%
X74500000Y-57000000D03*
%TD*%
%TO.C,TP29*%
X108712000Y-83058000D03*
%TD*%
%TO.C,TP6*%
X110500000Y-46000000D03*
%TD*%
%TO.C,TP2*%
X90424000Y-49784000D03*
%TD*%
%TO.C,TP26*%
X86741000Y-86741000D03*
%TD*%
%TO.C,TP32*%
X80772000Y-86741000D03*
%TD*%
%TO.C,TP13*%
X94234000Y-76835000D03*
%TD*%
%TO.C,TP22*%
X112500000Y-58500000D03*
%TD*%
%TO.C,TP25*%
X125000000Y-66000000D03*
%TD*%
%TO.C,TP23*%
X81000000Y-45000000D03*
%TD*%
%TO.C,TP33*%
X117821319Y-58885182D03*
%TD*%
%TO.C,TP17*%
X99949000Y-78867000D03*
%TD*%
%TO.C,TP42*%
X120500000Y-72500000D03*
%TD*%
%TO.C,TP3*%
X72000000Y-54500000D03*
%TD*%
%TO.C,TP18*%
X98806000Y-76962000D03*
%TD*%
%TO.C,TP21*%
X73500000Y-70500000D03*
%TD*%
%TO.C,TP35*%
X117500000Y-48500000D03*
%TD*%
%TO.C,TP10*%
X125000000Y-76000000D03*
%TD*%
M02*
