%TF.GenerationSoftware,KiCad,Pcbnew,7.0.9*%
%TF.CreationDate,2024-10-08T00:30:49+03:00*%
%TF.ProjectId,DRM_Watch_V3,44524d5f-5761-4746-9368-5f56332e6b69,rev?*%
%TF.SameCoordinates,Original*%
%TF.FileFunction,Copper,L2,Bot*%
%TF.FilePolarity,Positive*%
%FSLAX46Y46*%
G04 Gerber Fmt 4.6, Leading zero omitted, Abs format (unit mm)*
G04 Created by KiCad (PCBNEW 7.0.9) date 2024-10-08 00:30:49*
%MOMM*%
%LPD*%
G01*
G04 APERTURE LIST*
%TA.AperFunction,ComponentPad*%
%ADD10C,3.700000*%
%TD*%
%TA.AperFunction,ComponentPad*%
%ADD11C,0.700000*%
%TD*%
%TA.AperFunction,ComponentPad*%
%ADD12O,2.000000X0.900000*%
%TD*%
%TA.AperFunction,ComponentPad*%
%ADD13O,1.700000X0.900000*%
%TD*%
%TA.AperFunction,ComponentPad*%
%ADD14C,0.500000*%
%TD*%
%TA.AperFunction,SMDPad,CuDef*%
%ADD15R,4.000000X4.000000*%
%TD*%
%TA.AperFunction,SMDPad,CuDef*%
%ADD16C,1.200000*%
%TD*%
%TA.AperFunction,ViaPad*%
%ADD17C,0.800000*%
%TD*%
%TA.AperFunction,Conductor*%
%ADD18C,0.150000*%
%TD*%
%TA.AperFunction,Conductor*%
%ADD19C,0.250000*%
%TD*%
%TA.AperFunction,Conductor*%
%ADD20C,0.200000*%
%TD*%
G04 APERTURE END LIST*
D10*
%TO.P,M2,1*%
%TO.N,GND*%
X124460000Y-47752000D03*
%TD*%
D11*
%TO.P,S2,3,Shield*%
%TO.N,GND*%
X67518000Y-64428000D03*
X67518000Y-66128000D03*
%TD*%
%TO.P,S1,3,Shield*%
%TO.N,GND*%
X67518000Y-51220000D03*
X67518000Y-52920000D03*
%TD*%
%TO.P,S4,3,Shield*%
%TO.N,GND*%
X67518000Y-77636000D03*
X67518000Y-79336000D03*
%TD*%
D10*
%TO.P,M3,1*%
%TO.N,GND*%
X95250000Y-48006000D03*
%TD*%
D11*
%TO.P,S3,3,Shield*%
%TO.N,GND*%
X123637000Y-79678000D03*
X123637000Y-77978000D03*
%TD*%
D10*
%TO.P,M1,1*%
%TO.N,GND*%
X71120000Y-83312000D03*
%TD*%
D12*
%TO.P,J1,S1,SHIELD*%
%TO.N,GND*%
X122500000Y-69356000D03*
%TO.P,J1,S2,SHIELD*%
X122500000Y-60706000D03*
D13*
%TO.P,J1,S3,SHIELD*%
X126670000Y-69356000D03*
%TO.P,J1,S4,SHIELD*%
X126670000Y-60706000D03*
%TD*%
D14*
%TO.P,U1,57,GND*%
%TO.N,GND*%
X115196319Y-51487182D03*
X115196319Y-53237182D03*
X115196319Y-54987182D03*
X116946319Y-51487182D03*
X116946319Y-53237182D03*
D15*
X116946319Y-53237182D03*
D14*
X116946319Y-54987182D03*
X118696319Y-51487182D03*
X118696319Y-53237182D03*
X118696319Y-54987182D03*
%TD*%
D16*
%TO.P,TP15,1,1*%
%TO.N,Net-(J2-CS)*%
X96520000Y-76962000D03*
%TD*%
%TO.P,TP38,1,1*%
%TO.N,Net-(U1-GPIO8{slash}ADC1_CH7)*%
X86500000Y-77000000D03*
%TD*%
%TO.P,TP9,1,1*%
%TO.N,GND*%
X85852000Y-49149000D03*
%TD*%
%TO.P,TP24,1,1*%
%TO.N,Net-(J1-DP1)*%
X123500000Y-64262000D03*
%TD*%
%TO.P,TP5,1,1*%
%TO.N,Net-(U1-GPIO2{slash}ADC1_CH1)*%
X82000000Y-70500000D03*
%TD*%
%TO.P,TP16,1,1*%
%TO.N,Net-(J2-ON\u005COFF)*%
X97663000Y-78867000D03*
%TD*%
%TO.P,TP20,1,1*%
%TO.N,Net-(U1-GPIO37)*%
X76500000Y-73500000D03*
%TD*%
%TO.P,TP12,1,1*%
%TO.N,Net-(U1-GPIO3{slash}ADC1_CH2)*%
X126500000Y-57000000D03*
%TD*%
%TO.P,TP11,1,1*%
%TO.N,Net-(U1-GPIO4{slash}ADC1_CH3)*%
X88000000Y-45000000D03*
%TD*%
%TO.P,TP30,1,1*%
%TO.N,Net-(U1-GPIO35)*%
X110998000Y-83058000D03*
%TD*%
%TO.P,TP37,1,1*%
%TO.N,Net-(U1-GPIO13{slash}ADC2_CH2)*%
X114821319Y-59885182D03*
%TD*%
%TO.P,TP14,1,1*%
%TO.N,Net-(J2-SDA)*%
X95377000Y-78867000D03*
%TD*%
%TO.P,TP34,1,1*%
%TO.N,Net-(U1-GPIO21)*%
X120321319Y-57385182D03*
%TD*%
%TO.P,TP1,1,1*%
%TO.N,+3V3*%
X101500000Y-47500000D03*
%TD*%
%TO.P,TP7,1,1*%
%TO.N,VBUS*%
X125000000Y-62500000D03*
%TD*%
%TO.P,TP31,1,1*%
%TO.N,Net-(U1-GPIO14{slash}ADC2_CH3)*%
X116483332Y-61350058D03*
%TD*%
%TO.P,TP4,1,1*%
%TO.N,Net-(U1-GPIO1{slash}ADC1_CH0)*%
X75500000Y-62500000D03*
%TD*%
%TO.P,TP19,1,1*%
%TO.N,Net-(U1-GPIO36)*%
X74500000Y-57000000D03*
%TD*%
%TO.P,TP29,1,1*%
%TO.N,Net-(U1-GPIO33)*%
X108712000Y-83058000D03*
%TD*%
%TO.P,TP6,1,1*%
%TO.N,GND*%
X110500000Y-46000000D03*
%TD*%
%TO.P,TP2,1,1*%
%TO.N,VCC*%
X90424000Y-49784000D03*
%TD*%
%TO.P,TP26,1,1*%
%TO.N,Net-(R21-Pad1)*%
X86741000Y-86741000D03*
%TD*%
%TO.P,TP32,1,1*%
%TO.N,Net-(U5-VB)*%
X80772000Y-86741000D03*
%TD*%
%TO.P,TP13,1,1*%
%TO.N,Net-(J2-SCL)*%
X94234000Y-76835000D03*
%TD*%
%TO.P,TP22,1,1*%
%TO.N,Net-(U1-GPIO12{slash}ADC2_CH1)*%
X112500000Y-58500000D03*
%TD*%
%TO.P,TP25,1,1*%
%TO.N,Net-(J1-DN1)*%
X125000000Y-66000000D03*
%TD*%
%TO.P,TP23,1,1*%
%TO.N,VBUS*%
X81000000Y-45000000D03*
%TD*%
%TO.P,TP33,1,1*%
%TO.N,Net-(U1-GPIO18{slash}ADC2_CH7{slash}DAC_2)*%
X117821319Y-58885182D03*
%TD*%
%TO.P,TP17,1,1*%
%TO.N,GND*%
X99949000Y-78867000D03*
%TD*%
%TO.P,TP42,1,1*%
%TO.N,Net-(U1-GPIO9{slash}ADC1_CH8)*%
X120500000Y-72500000D03*
%TD*%
%TO.P,TP3,1,1*%
%TO.N,Net-(U1-GPIO0{slash}BOOT)*%
X72000000Y-54500000D03*
%TD*%
%TO.P,TP18,1,1*%
%TO.N,+3V3*%
X98806000Y-76962000D03*
%TD*%
%TO.P,TP21,1,1*%
%TO.N,Net-(U1-GPIO38)*%
X73500000Y-70500000D03*
%TD*%
%TO.P,TP35,1,1*%
%TO.N,Net-(U1-GPIO45)*%
X117500000Y-48500000D03*
%TD*%
%TO.P,TP10,1,1*%
%TO.N,Net-(U1-CHIP_PU{slash}RESET)*%
X125000000Y-76000000D03*
%TD*%
D17*
%TO.N,Net-(U1-GPIO2{slash}ADC1_CH1)*%
X82500000Y-70500000D03*
%TO.N,VCC*%
X80500000Y-75000000D03*
X98500000Y-62500000D03*
X90297000Y-49657000D03*
X126500000Y-81500000D03*
X110500000Y-64000000D03*
%TO.N,+3V3*%
X113500000Y-83000000D03*
X121500000Y-76000000D03*
X121500000Y-48000000D03*
X101500000Y-47500000D03*
X98786004Y-76981996D03*
X112000000Y-48000000D03*
%TO.N,Net-(J1-DP1)*%
X123500000Y-64500000D03*
%TO.N,Net-(J1-DN1)*%
X123500000Y-66000000D03*
%TO.N,GND*%
X123500000Y-55500000D03*
X95500000Y-63000000D03*
X77851000Y-46736000D03*
X90000000Y-77000000D03*
X88000000Y-51000000D03*
X113000000Y-79500000D03*
X68500000Y-85500000D03*
X122500000Y-45500000D03*
X78000000Y-54500000D03*
X100000000Y-55500000D03*
X99949000Y-78867002D03*
X106500000Y-55500000D03*
X102500000Y-69000000D03*
X71501000Y-45847000D03*
X109000000Y-77500000D03*
X121463044Y-61026906D03*
X126500000Y-52500000D03*
X109000000Y-66500000D03*
X83500000Y-75000000D03*
X82000000Y-55500000D03*
X93000000Y-55500000D03*
X81000000Y-65500000D03*
X110500000Y-46000000D03*
X87000000Y-71500000D03*
X85979002Y-49276001D03*
X99000000Y-48000000D03*
X91500000Y-61000000D03*
X110269252Y-51321865D03*
X76000000Y-70500000D03*
X72500000Y-78000000D03*
X126500000Y-80000000D03*
X105000000Y-51000000D03*
X126500000Y-78000000D03*
X110000000Y-60500000D03*
X95500000Y-83500000D03*
X73000000Y-60000000D03*
X116000000Y-67000000D03*
X90000000Y-83000000D03*
X74000000Y-66500000D03*
%TO.N,Net-(J2-SCL)*%
X94361000Y-76530498D03*
X95290644Y-70742408D03*
X98000000Y-68000000D03*
%TO.N,Net-(J2-SDA)*%
X95503992Y-78740000D03*
X98500000Y-71500000D03*
X96000000Y-73000000D03*
%TO.N,Net-(J2-CS)*%
X96520000Y-76962004D03*
%TO.N,Net-(J2-ON\u005COFF)*%
X97663000Y-78867010D03*
%TO.N,Net-(U1-GPIO0{slash}BOOT)*%
X72000000Y-54500000D03*
%TO.N,Net-(U1-GPIO1{slash}ADC1_CH0)*%
X76000000Y-62000000D03*
%TO.N,Net-(U1-CHIP_PU{slash}RESET)*%
X123000000Y-76000000D03*
X113999984Y-49000000D03*
%TO.N,Net-(U1-GPIO12{slash}ADC2_CH1)*%
X113500000Y-59500000D03*
%TO.N,Net-(U1-GPIO33)*%
X108712000Y-83058000D03*
X121631589Y-53086184D03*
%TO.N,VBUS*%
X127000000Y-59000000D03*
X120804250Y-67434643D03*
X80899000Y-45212000D03*
X120650703Y-62649509D03*
X84000000Y-46000000D03*
X124500000Y-62500000D03*
%TO.N,Net-(U1-GPIO35)*%
X123106070Y-52893938D03*
X111000000Y-84500000D03*
%TO.N,Net-(D5-A)*%
X70500000Y-67500000D03*
X70500000Y-60500000D03*
%TO.N,Net-(U1-GPIO4{slash}ADC1_CH3)*%
X85500000Y-54000000D03*
X87884000Y-44831000D03*
%TO.N,Net-(U1-GPIO3{slash}ADC1_CH2)*%
X107825000Y-53712182D03*
X124500000Y-56000000D03*
X126000000Y-57500000D03*
%TO.N,Net-(U1-GPIO36)*%
X124500000Y-52500000D03*
X100000000Y-57500000D03*
X74000000Y-57000000D03*
X104500008Y-58000000D03*
%TO.N,Net-(U1-GPIO37)*%
X71500000Y-72500000D03*
X124500000Y-51500000D03*
X105500000Y-57175000D03*
X97500000Y-58500000D03*
%TO.N,Net-(U1-GPIO38)*%
X86500000Y-68000000D03*
X122000000Y-50000000D03*
X105000000Y-54500000D03*
X71000000Y-70500000D03*
%TO.N,Net-(U1-GPIO14{slash}ADC2_CH3)*%
X115976791Y-60498736D03*
%TO.N,Net-(U1-GPIO18{slash}ADC2_CH7{slash}DAC_2)*%
X117992578Y-59193089D03*
%TO.N,Net-(U1-GPIO21)*%
X120321319Y-57385182D03*
%TO.N,Net-(U1-GPIO45)*%
X117500000Y-48500000D03*
%TO.N,Net-(U1-GPIO13{slash}ADC2_CH2)*%
X115500000Y-59500064D03*
%TO.N,Net-(R21-Pad1)*%
X86741000Y-86740992D03*
%TO.N,Net-(U1-GPIO8{slash}ADC1_CH7)*%
X86000000Y-77000000D03*
X98500000Y-69500000D03*
%TO.N,Net-(U5-VB)*%
X80772000Y-86741012D03*
%TO.N,Net-(U1-GPIO9{slash}ADC1_CH8)*%
X121000000Y-72500000D03*
X117000000Y-72000000D03*
X112008797Y-56242807D03*
%TD*%
D18*
%TO.N,Net-(U1-GPIO2{slash}ADC1_CH1)*%
X82500000Y-70500000D02*
X82000000Y-70500000D01*
D19*
%TO.N,VCC*%
X98500000Y-62500000D02*
X101000000Y-62500000D01*
X100000000Y-51500000D02*
X101000000Y-52500000D01*
X80500000Y-75000000D02*
X86500000Y-81000000D01*
X86500000Y-81000000D02*
X104000000Y-81000000D01*
X101000000Y-62500000D02*
X102000000Y-63500000D01*
X92140000Y-51500000D02*
X100000000Y-51500000D01*
X90424000Y-49784000D02*
X92140000Y-51500000D01*
X101000000Y-52500000D02*
X101000000Y-62500000D01*
X104000000Y-81000000D02*
X109000000Y-86000000D01*
X123000000Y-81500000D02*
X126500000Y-81500000D01*
X118500000Y-86000000D02*
X123000000Y-81500000D01*
X110500000Y-64000000D02*
X102500000Y-64000000D01*
X109000000Y-86000000D02*
X118500000Y-86000000D01*
X102500000Y-64000000D02*
X102000000Y-63500000D01*
D20*
%TO.N,+3V3*%
X112000000Y-48000000D02*
X112000000Y-49000000D01*
D19*
X102500000Y-65000000D02*
X111500000Y-65000000D01*
X111500000Y-63000000D02*
X103000000Y-63000000D01*
X102000000Y-62000000D02*
X102000000Y-51350000D01*
X112000000Y-64500000D02*
X112000000Y-63500000D01*
X98806000Y-76962000D02*
X101000000Y-74768000D01*
X120500000Y-76000000D02*
X113500000Y-83000000D01*
X102000000Y-51350000D02*
X103675000Y-49675000D01*
D20*
X111500000Y-49500000D02*
X111500000Y-49675000D01*
X121500000Y-48000000D02*
X119825000Y-49675000D01*
X103675000Y-49675000D02*
X101500000Y-47500000D01*
D19*
X112000000Y-63500000D02*
X111500000Y-63000000D01*
X101000000Y-66500000D02*
X102500000Y-65000000D01*
D20*
X119825000Y-49675000D02*
X111500000Y-49675000D01*
X112000000Y-49000000D02*
X111500000Y-49500000D01*
X98806000Y-76962000D02*
X98786004Y-76981996D01*
X111500000Y-49675000D02*
X103675000Y-49675000D01*
D19*
X101000000Y-74768000D02*
X101000000Y-66500000D01*
X121500000Y-76000000D02*
X120500000Y-76000000D01*
X103000000Y-63000000D02*
X102000000Y-62000000D01*
X111500000Y-65000000D02*
X112000000Y-64500000D01*
D18*
%TO.N,Net-(J1-DP1)*%
X123500000Y-64500000D02*
X123500000Y-64262000D01*
%TO.N,Net-(J1-DN1)*%
X123500000Y-66000000D02*
X125000000Y-66000000D01*
%TO.N,Net-(J2-SCL)*%
X94361000Y-76708000D02*
X94234000Y-76835000D01*
X94361000Y-76530498D02*
X94361000Y-76708000D01*
X95000000Y-71000000D02*
X95033052Y-71000000D01*
X98000000Y-68000000D02*
X95000000Y-71000000D01*
X95033052Y-71000000D02*
X95290644Y-70742408D01*
%TO.N,Net-(J2-SDA)*%
X95503992Y-78740008D02*
X95503992Y-78740000D01*
X95377000Y-78867000D02*
X95503992Y-78740008D01*
X98500000Y-71500000D02*
X97500000Y-71500000D01*
X97500000Y-71500000D02*
X96000000Y-73000000D01*
%TO.N,Net-(J2-CS)*%
X96520000Y-76962000D02*
X96520000Y-76962004D01*
%TO.N,Net-(J2-ON\u005COFF)*%
X97663000Y-78867000D02*
X97663000Y-78867010D01*
%TO.N,Net-(U1-GPIO1{slash}ADC1_CH0)*%
X76000000Y-62000000D02*
X75500000Y-62500000D01*
D20*
%TO.N,Net-(U1-CHIP_PU{slash}RESET)*%
X125000000Y-60823717D02*
X126500000Y-62323717D01*
X113999984Y-49000000D02*
X118499984Y-44500000D01*
X123000000Y-70500000D02*
X123000000Y-76000000D01*
X126500000Y-67000000D02*
X123000000Y-70500000D01*
X127500000Y-54000000D02*
X125000000Y-56500000D01*
X127500000Y-46500000D02*
X127500000Y-54000000D01*
D18*
X125000000Y-76000000D02*
X123000000Y-76000000D01*
D20*
X118499984Y-44500000D02*
X125500000Y-44500000D01*
X125500000Y-44500000D02*
X127500000Y-46500000D01*
X126500000Y-62323717D02*
X126500000Y-67000000D01*
X125000000Y-56500000D02*
X125000000Y-60823717D01*
D18*
%TO.N,Net-(U1-GPIO12{slash}ADC2_CH1)*%
X113500000Y-59500000D02*
X112500000Y-58500000D01*
D20*
%TO.N,Net-(U1-GPIO33)*%
X118000000Y-62459620D02*
X121631589Y-58828031D01*
X108712000Y-82288000D02*
X118000000Y-73000000D01*
X118000000Y-73000000D02*
X118000000Y-62459620D01*
X121631589Y-58828031D02*
X121631589Y-53086184D01*
X108712000Y-83058000D02*
X108712000Y-82288000D01*
D19*
%TO.N,VBUS*%
X89500000Y-47500000D02*
X93000000Y-44000000D01*
X126000000Y-44000000D02*
X128000000Y-46000000D01*
X128000000Y-46000000D02*
X128000000Y-58000000D01*
X128000000Y-58000000D02*
X127000000Y-59000000D01*
X93000000Y-44000000D02*
X126000000Y-44000000D01*
X85500000Y-47500000D02*
X89500000Y-47500000D01*
X84000000Y-46000000D02*
X85500000Y-47500000D01*
D20*
X120650703Y-67281096D02*
X120650703Y-62649509D01*
D19*
X80899000Y-45212000D02*
X80899000Y-44958000D01*
X80899000Y-44958000D02*
X80645000Y-44704000D01*
D20*
X124500000Y-62500000D02*
X125000000Y-62500000D01*
X120804250Y-67434643D02*
X120650703Y-67281096D01*
%TO.N,Net-(U1-GPIO35)*%
X122450000Y-53550008D02*
X123106070Y-52893938D01*
X122450000Y-59004594D02*
X122450000Y-53550008D01*
D19*
X110998000Y-83058000D02*
X110998000Y-84498000D01*
D20*
X119000000Y-62454594D02*
X122450000Y-59004594D01*
X110998000Y-83058000D02*
X119000000Y-75056000D01*
X119000000Y-75056000D02*
X119000000Y-62454594D01*
D19*
X110998000Y-84498000D02*
X111000000Y-84500000D01*
D18*
%TO.N,Net-(D5-A)*%
X70500000Y-60500000D02*
X70500000Y-67500000D01*
%TO.N,Net-(U1-GPIO4{slash}ADC1_CH3)*%
X85027000Y-51027000D02*
X82000000Y-48000000D01*
X82000000Y-48000000D02*
X82000000Y-46500000D01*
X85027000Y-53527000D02*
X85027000Y-51027000D01*
X84000000Y-44500000D02*
X87553000Y-44500000D01*
X87757000Y-44577000D02*
X87757000Y-44704000D01*
X87757000Y-44704000D02*
X87884000Y-44831000D01*
X82000000Y-46500000D02*
X84000000Y-44500000D01*
X87553000Y-44500000D02*
X87884000Y-44831000D01*
X85500000Y-54000000D02*
X85027000Y-53527000D01*
%TO.N,Net-(U1-GPIO3{slash}ADC1_CH2)*%
X122000000Y-49000000D02*
X123500000Y-50500000D01*
X109500000Y-50000000D02*
X120000000Y-50000000D01*
X123500000Y-50500000D02*
X125000000Y-50500000D01*
X121000000Y-49000000D02*
X122000000Y-49000000D01*
X126000000Y-57500000D02*
X126500000Y-57000000D01*
X125500000Y-51000000D02*
X125500000Y-54500000D01*
X107825000Y-51675000D02*
X109500000Y-50000000D01*
X125000000Y-50500000D02*
X125500000Y-51000000D01*
X120000000Y-50000000D02*
X121000000Y-49000000D01*
X124500000Y-55500000D02*
X124500000Y-56000000D01*
X125500000Y-54500000D02*
X124500000Y-55500000D01*
X107825000Y-53712182D02*
X107825000Y-51675000D01*
%TO.N,Net-(U1-GPIO36)*%
X110000000Y-57500000D02*
X109500000Y-58000000D01*
X109500000Y-58000000D02*
X104500008Y-58000000D01*
X90500000Y-57500000D02*
X90000000Y-57000000D01*
X121424264Y-52000000D02*
X120500000Y-52924264D01*
X124000000Y-52000000D02*
X121424264Y-52000000D01*
X100000000Y-57500000D02*
X90500000Y-57500000D01*
X118495508Y-57500000D02*
X110000000Y-57500000D01*
X90000000Y-57000000D02*
X74500000Y-57000000D01*
X74500000Y-57000000D02*
X74000000Y-57000000D01*
X124500000Y-52500000D02*
X124000000Y-52000000D01*
X120500000Y-52924264D02*
X120500000Y-55495508D01*
X120500000Y-55495508D02*
X118495508Y-57500000D01*
%TO.N,Net-(U1-GPIO37)*%
X121000000Y-51500000D02*
X120000000Y-52500000D01*
X76500000Y-73500000D02*
X72500000Y-73500000D01*
X117891752Y-57175000D02*
X105500000Y-57175000D01*
X97500000Y-58500000D02*
X82500000Y-73500000D01*
X82500000Y-73500000D02*
X76500000Y-73500000D01*
X72500000Y-73500000D02*
X71500000Y-72500000D01*
X124500000Y-51500000D02*
X121000000Y-51500000D01*
X120000000Y-52500000D02*
X120000000Y-55066752D01*
X120000000Y-55066752D02*
X117891752Y-57175000D01*
%TO.N,Net-(U1-GPIO38)*%
X113190656Y-50312082D02*
X109002738Y-54500000D01*
X122000000Y-50000000D02*
X121687918Y-50312082D01*
X121687918Y-50312082D02*
X113190656Y-50312082D01*
X71000000Y-70500000D02*
X73500000Y-70500000D01*
X109002738Y-54500000D02*
X105000000Y-54500000D01*
X76000000Y-68000000D02*
X73500000Y-70500000D01*
X86500000Y-68000000D02*
X76000000Y-68000000D01*
%TO.N,Net-(U1-GPIO14{slash}ADC2_CH3)*%
X116321319Y-61188045D02*
X116483332Y-61350058D01*
X116483332Y-61350058D02*
X116483332Y-61005277D01*
X116321319Y-60885182D02*
X116321319Y-61188045D01*
X116483332Y-61005277D02*
X115976791Y-60498736D01*
%TO.N,Net-(U1-GPIO18{slash}ADC2_CH7{slash}DAC_2)*%
X117992578Y-59056441D02*
X117992578Y-59193089D01*
X117821319Y-58885182D02*
X117992578Y-59056441D01*
%TO.N,Net-(U1-GPIO13{slash}ADC2_CH2)*%
X115114882Y-59885182D02*
X115500000Y-59500064D01*
X114821319Y-59885182D02*
X115114882Y-59885182D01*
D19*
%TO.N,Net-(R21-Pad1)*%
X86741000Y-86741000D02*
X86741000Y-86740992D01*
D18*
%TO.N,Net-(U1-GPIO8{slash}ADC1_CH7)*%
X86000000Y-77000000D02*
X86500000Y-77000000D01*
X91500000Y-72000000D02*
X86500000Y-77000000D01*
X98500000Y-69500000D02*
X96000000Y-72000000D01*
X96000000Y-72000000D02*
X91500000Y-72000000D01*
%TO.N,Net-(U1-GPIO9{slash}ADC1_CH8)*%
X104000000Y-56500000D02*
X103000000Y-57500000D01*
X103000000Y-57500000D02*
X103000000Y-61000000D01*
X104000000Y-62000000D02*
X112000000Y-62000000D01*
X113000000Y-68000000D02*
X117000000Y-72000000D01*
X112000000Y-62000000D02*
X113000000Y-63000000D01*
X111751604Y-56500000D02*
X104000000Y-56500000D01*
X112008797Y-56242807D02*
X111751604Y-56500000D01*
X103000000Y-61000000D02*
X104000000Y-62000000D01*
X113000000Y-63000000D02*
X113000000Y-68000000D01*
X121000000Y-72500000D02*
X120500000Y-72500000D01*
%TD*%
%TA.AperFunction,Conductor*%
%TO.N,GND*%
G36*
X117021319Y-54851987D02*
G01*
X116966065Y-54837182D01*
X116926573Y-54837182D01*
X116871319Y-54851987D01*
X116871319Y-53372376D01*
X116926573Y-53387182D01*
X116966065Y-53387182D01*
X117021319Y-53372376D01*
X117021319Y-54851987D01*
G37*
%TD.AperFunction*%
%TA.AperFunction,Conductor*%
G36*
X116791028Y-53237182D02*
G01*
X116811124Y-53312182D01*
X115331514Y-53312182D01*
X115351610Y-53237182D01*
X115331514Y-53162182D01*
X116811124Y-53162182D01*
X116791028Y-53237182D01*
G37*
%TD.AperFunction*%
%TA.AperFunction,Conductor*%
G36*
X118541028Y-53237182D02*
G01*
X118561124Y-53312182D01*
X117081514Y-53312182D01*
X117101610Y-53237182D01*
X117081514Y-53162182D01*
X118561124Y-53162182D01*
X118541028Y-53237182D01*
G37*
%TD.AperFunction*%
%TA.AperFunction,Conductor*%
G36*
X117021319Y-53101987D02*
G01*
X116966065Y-53087182D01*
X116926573Y-53087182D01*
X116871319Y-53101987D01*
X116871319Y-51622376D01*
X116926573Y-51637182D01*
X116966065Y-51637182D01*
X117021319Y-51622376D01*
X117021319Y-53101987D01*
G37*
%TD.AperFunction*%
%TA.AperFunction,Conductor*%
G36*
X92720586Y-43705313D02*
G01*
X92745896Y-43749150D01*
X92737106Y-43799000D01*
X92725345Y-43814326D01*
X90215296Y-46324378D01*
X89386848Y-47152826D01*
X89340972Y-47174218D01*
X89334522Y-47174500D01*
X85665479Y-47174500D01*
X85617913Y-47157187D01*
X85613153Y-47152826D01*
X84614575Y-46154249D01*
X84593183Y-46108373D01*
X84593533Y-46092269D01*
X84605682Y-46000000D01*
X84585044Y-45843238D01*
X84524536Y-45697159D01*
X84428282Y-45571718D01*
X84428279Y-45571715D01*
X84302841Y-45475464D01*
X84156761Y-45414955D01*
X84000000Y-45394318D01*
X83843239Y-45414955D01*
X83843238Y-45414955D01*
X83697158Y-45475464D01*
X83571720Y-45571715D01*
X83571715Y-45571720D01*
X83475464Y-45697158D01*
X83414955Y-45843238D01*
X83414955Y-45843239D01*
X83394318Y-46000000D01*
X83414955Y-46156760D01*
X83414955Y-46156761D01*
X83475464Y-46302841D01*
X83571715Y-46428279D01*
X83571720Y-46428284D01*
X83606861Y-46455248D01*
X83697159Y-46524536D01*
X83843238Y-46585044D01*
X84000000Y-46605682D01*
X84092264Y-46593534D01*
X84141682Y-46604490D01*
X84154248Y-46614574D01*
X84713891Y-47174218D01*
X85258652Y-47718979D01*
X85260821Y-47721346D01*
X85287545Y-47753194D01*
X85323541Y-47773976D01*
X85323548Y-47773980D01*
X85326272Y-47775716D01*
X85360314Y-47799553D01*
X85360315Y-47799553D01*
X85360316Y-47799554D01*
X85364945Y-47800794D01*
X85382800Y-47808189D01*
X85386955Y-47810588D01*
X85427915Y-47817809D01*
X85431028Y-47818500D01*
X85471193Y-47829263D01*
X85512598Y-47825640D01*
X85515817Y-47825500D01*
X89484174Y-47825500D01*
X89487394Y-47825640D01*
X89513546Y-47827928D01*
X89528805Y-47829264D01*
X89528805Y-47829263D01*
X89528807Y-47829264D01*
X89568967Y-47818502D01*
X89572100Y-47817807D01*
X89613045Y-47810588D01*
X89617194Y-47808191D01*
X89635055Y-47800794D01*
X89639684Y-47799554D01*
X89673733Y-47775712D01*
X89676450Y-47773980D01*
X89712455Y-47753194D01*
X89739187Y-47721334D01*
X89741348Y-47718976D01*
X92079045Y-45381281D01*
X109987347Y-45381281D01*
X110499999Y-45893933D01*
X111012652Y-45381281D01*
X111001945Y-45370575D01*
X110849302Y-45274663D01*
X110679154Y-45215126D01*
X110679143Y-45215123D01*
X110500000Y-45194938D01*
X110320856Y-45215123D01*
X110320845Y-45215126D01*
X110150697Y-45274663D01*
X110150695Y-45274663D01*
X109998053Y-45370576D01*
X109987347Y-45381281D01*
X92079045Y-45381281D01*
X93113153Y-44347174D01*
X93159030Y-44325782D01*
X93165479Y-44325500D01*
X118070861Y-44325500D01*
X118118427Y-44342813D01*
X118143737Y-44386650D01*
X118134947Y-44436500D01*
X118123187Y-44451826D01*
X114185474Y-48389537D01*
X114139598Y-48410929D01*
X114123492Y-48410578D01*
X113999984Y-48394318D01*
X113999983Y-48394318D01*
X113843223Y-48414955D01*
X113843222Y-48414955D01*
X113697142Y-48475464D01*
X113571704Y-48571715D01*
X113571699Y-48571720D01*
X113475448Y-48697158D01*
X113414939Y-48843238D01*
X113414939Y-48843239D01*
X113394302Y-49000000D01*
X113414939Y-49156760D01*
X113414940Y-49156764D01*
X113462748Y-49272182D01*
X113464956Y-49322752D01*
X113434141Y-49362911D01*
X113394381Y-49374500D01*
X112232149Y-49374500D01*
X112184583Y-49357187D01*
X112159273Y-49313350D01*
X112168063Y-49263500D01*
X112180296Y-49249657D01*
X112179606Y-49249028D01*
X112196074Y-49230963D01*
X112216837Y-49208186D01*
X112217995Y-49206975D01*
X112232174Y-49192797D01*
X112234673Y-49189147D01*
X112237848Y-49185138D01*
X112259916Y-49160933D01*
X112264514Y-49149063D01*
X112272465Y-49133977D01*
X112279657Y-49123480D01*
X112287153Y-49091607D01*
X112288669Y-49086711D01*
X112290132Y-49082937D01*
X112300500Y-49056173D01*
X112300500Y-49043446D01*
X112302466Y-49026502D01*
X112305379Y-49014119D01*
X112300854Y-48981683D01*
X112300500Y-48976573D01*
X112300500Y-48562825D01*
X112317813Y-48515259D01*
X112329452Y-48504117D01*
X112428279Y-48428284D01*
X112428282Y-48428282D01*
X112524536Y-48302841D01*
X112585044Y-48156762D01*
X112605682Y-48000000D01*
X112585044Y-47843238D01*
X112524536Y-47697159D01*
X112428282Y-47571718D01*
X112428279Y-47571715D01*
X112302841Y-47475464D01*
X112156761Y-47414955D01*
X112000000Y-47394318D01*
X111843239Y-47414955D01*
X111843238Y-47414955D01*
X111697158Y-47475464D01*
X111571720Y-47571715D01*
X111571715Y-47571720D01*
X111475464Y-47697158D01*
X111414955Y-47843238D01*
X111414955Y-47843239D01*
X111394318Y-48000000D01*
X111414955Y-48156760D01*
X111414955Y-48156761D01*
X111475464Y-48302841D01*
X111571715Y-48428279D01*
X111571720Y-48428284D01*
X111670548Y-48504117D01*
X111697746Y-48546808D01*
X111699500Y-48562825D01*
X111699500Y-48844876D01*
X111682187Y-48892442D01*
X111677826Y-48897202D01*
X111330708Y-49244319D01*
X111320865Y-49251405D01*
X111321245Y-49251908D01*
X111315773Y-49256040D01*
X111283174Y-49291797D01*
X111281997Y-49293029D01*
X111267822Y-49307206D01*
X111265326Y-49310851D01*
X111262145Y-49314866D01*
X111240083Y-49339067D01*
X111239843Y-49339456D01*
X111239439Y-49339773D01*
X111235465Y-49344134D01*
X111234742Y-49343475D01*
X111200083Y-49370784D01*
X111176927Y-49374500D01*
X103830124Y-49374500D01*
X103782558Y-49357187D01*
X103777798Y-49352826D01*
X102271291Y-47846320D01*
X102249899Y-47800444D01*
X102253769Y-47769556D01*
X102285368Y-47679255D01*
X102305565Y-47500000D01*
X102285368Y-47320745D01*
X102242283Y-47197614D01*
X102225790Y-47150479D01*
X102166425Y-47056001D01*
X102129816Y-46997738D01*
X102002262Y-46870184D01*
X101963054Y-46845547D01*
X101849520Y-46774209D01*
X101679263Y-46714634D01*
X101679256Y-46714632D01*
X101679255Y-46714632D01*
X101500000Y-46694435D01*
X101320745Y-46714632D01*
X101320736Y-46714634D01*
X101150479Y-46774209D01*
X100997739Y-46870183D01*
X100870183Y-46997739D01*
X100774209Y-47150479D01*
X100714634Y-47320736D01*
X100714632Y-47320745D01*
X100694435Y-47500000D01*
X100714632Y-47679254D01*
X100714634Y-47679263D01*
X100774209Y-47849520D01*
X100805886Y-47899933D01*
X100870184Y-48002262D01*
X100997738Y-48129816D01*
X101044348Y-48159103D01*
X101150479Y-48225790D01*
X101320736Y-48285365D01*
X101320745Y-48285368D01*
X101500000Y-48305565D01*
X101679255Y-48285368D01*
X101769554Y-48253770D01*
X101820167Y-48254400D01*
X101846320Y-48271291D01*
X103180025Y-49604996D01*
X103201417Y-49650872D01*
X103188316Y-49699767D01*
X103180025Y-49709648D01*
X101781030Y-51108641D01*
X101778650Y-51110822D01*
X101746808Y-51137542D01*
X101746805Y-51137545D01*
X101726019Y-51173546D01*
X101724285Y-51176268D01*
X101700447Y-51210312D01*
X101700445Y-51210317D01*
X101699201Y-51214959D01*
X101691815Y-51232790D01*
X101689412Y-51236951D01*
X101689412Y-51236952D01*
X101682193Y-51277884D01*
X101681495Y-51281033D01*
X101670735Y-51321192D01*
X101670735Y-51321194D01*
X101674359Y-51362598D01*
X101674500Y-51365825D01*
X101674500Y-61984173D01*
X101674359Y-61987400D01*
X101670735Y-62028805D01*
X101670735Y-62028806D01*
X101681495Y-62068964D01*
X101682193Y-62072114D01*
X101689411Y-62113044D01*
X101691811Y-62117200D01*
X101699203Y-62135047D01*
X101700445Y-62139682D01*
X101700446Y-62139685D01*
X101724288Y-62173736D01*
X101726022Y-62176458D01*
X101734812Y-62191681D01*
X101746806Y-62212455D01*
X101746808Y-62212457D01*
X101746807Y-62212457D01*
X101757262Y-62221229D01*
X101778658Y-62239182D01*
X101781027Y-62241353D01*
X102758647Y-63218973D01*
X102760819Y-63221343D01*
X102787545Y-63253194D01*
X102823546Y-63273979D01*
X102826270Y-63275715D01*
X102860314Y-63299553D01*
X102860316Y-63299554D01*
X102864949Y-63300795D01*
X102882795Y-63308186D01*
X102886955Y-63310588D01*
X102886958Y-63310588D01*
X102886959Y-63310589D01*
X102886958Y-63310589D01*
X102927888Y-63317806D01*
X102931038Y-63318504D01*
X102971193Y-63329264D01*
X102971193Y-63329263D01*
X102971194Y-63329264D01*
X102979040Y-63328577D01*
X103012610Y-63325640D01*
X103015829Y-63325500D01*
X110187181Y-63325500D01*
X110234747Y-63342813D01*
X110260057Y-63386650D01*
X110251267Y-63436500D01*
X110215499Y-63467867D01*
X110197159Y-63475463D01*
X110071720Y-63571715D01*
X110071715Y-63571720D01*
X110015066Y-63645548D01*
X109972375Y-63672746D01*
X109956358Y-63674500D01*
X102665478Y-63674500D01*
X102617912Y-63657187D01*
X102613152Y-63652826D01*
X101347174Y-62386848D01*
X101325782Y-62340972D01*
X101325500Y-62334522D01*
X101325500Y-52515825D01*
X101325641Y-52512598D01*
X101326744Y-52500000D01*
X101329264Y-52471193D01*
X101318502Y-52431033D01*
X101317806Y-52427889D01*
X101310589Y-52386958D01*
X101310588Y-52386956D01*
X101310588Y-52386955D01*
X101308186Y-52382795D01*
X101300795Y-52364949D01*
X101299554Y-52360316D01*
X101275715Y-52326270D01*
X101273979Y-52323546D01*
X101253193Y-52287543D01*
X101221347Y-52260821D01*
X101218966Y-52258640D01*
X100241357Y-51281031D01*
X100239176Y-51278651D01*
X100236363Y-51275299D01*
X100212455Y-51246806D01*
X100195088Y-51236778D01*
X100176458Y-51226022D01*
X100173736Y-51224288D01*
X100139685Y-51200446D01*
X100139682Y-51200445D01*
X100135047Y-51199203D01*
X100117200Y-51191811D01*
X100113044Y-51189411D01*
X100072114Y-51182193D01*
X100068964Y-51181495D01*
X100028806Y-51170735D01*
X100028805Y-51170735D01*
X99995818Y-51173622D01*
X99987394Y-51174359D01*
X99984174Y-51174500D01*
X92305479Y-51174500D01*
X92257913Y-51157187D01*
X92253153Y-51152826D01*
X91204456Y-50104129D01*
X91183064Y-50058253D01*
X91186934Y-50027365D01*
X91209368Y-49963255D01*
X91229565Y-49784000D01*
X91209368Y-49604745D01*
X91197812Y-49571720D01*
X91149790Y-49434479D01*
X91112102Y-49374500D01*
X91053816Y-49281738D01*
X90926262Y-49154184D01*
X90877392Y-49123477D01*
X90773520Y-49058209D01*
X90603263Y-48998634D01*
X90603256Y-48998632D01*
X90603255Y-48998632D01*
X90424000Y-48978435D01*
X90244745Y-48998632D01*
X90244736Y-48998634D01*
X90074479Y-49058209D01*
X89921739Y-49154183D01*
X89794183Y-49281739D01*
X89698209Y-49434479D01*
X89638634Y-49604736D01*
X89638632Y-49604745D01*
X89618435Y-49784000D01*
X89635321Y-49933873D01*
X89638632Y-49963254D01*
X89638634Y-49963263D01*
X89698209Y-50133520D01*
X89744498Y-50207187D01*
X89794184Y-50286262D01*
X89921738Y-50413816D01*
X89944764Y-50428284D01*
X90074479Y-50509790D01*
X90244736Y-50569365D01*
X90244745Y-50569368D01*
X90424000Y-50589565D01*
X90603255Y-50569368D01*
X90667363Y-50546935D01*
X90717976Y-50547565D01*
X90744129Y-50564456D01*
X91898652Y-51718979D01*
X91900824Y-51721349D01*
X91927545Y-51753194D01*
X91963550Y-51773981D01*
X91966250Y-51775700D01*
X92000316Y-51799553D01*
X92004949Y-51800794D01*
X92022790Y-51808183D01*
X92026955Y-51810588D01*
X92035717Y-51812133D01*
X92067899Y-51817808D01*
X92071049Y-51818506D01*
X92111193Y-51829263D01*
X92111193Y-51829262D01*
X92111194Y-51829263D01*
X92119006Y-51828579D01*
X92152598Y-51825640D01*
X92155817Y-51825500D01*
X99834522Y-51825500D01*
X99882088Y-51842813D01*
X99886848Y-51847174D01*
X100652826Y-52613152D01*
X100674218Y-52659028D01*
X100674500Y-52665478D01*
X100674500Y-57187180D01*
X100657187Y-57234746D01*
X100613350Y-57260056D01*
X100563500Y-57251266D01*
X100532133Y-57215499D01*
X100526883Y-57202826D01*
X100524536Y-57197159D01*
X100428282Y-57071718D01*
X100428279Y-57071715D01*
X100302841Y-56975464D01*
X100156761Y-56914955D01*
X100000000Y-56894318D01*
X99843239Y-56914955D01*
X99843238Y-56914955D01*
X99697158Y-56975464D01*
X99571720Y-57071715D01*
X99571715Y-57071720D01*
X99476700Y-57195548D01*
X99434009Y-57222746D01*
X99417992Y-57224500D01*
X90644768Y-57224500D01*
X90597202Y-57207187D01*
X90592442Y-57202826D01*
X90219145Y-56829529D01*
X90209942Y-56818314D01*
X90198626Y-56801378D01*
X90198624Y-56801376D01*
X90192335Y-56797174D01*
X90178644Y-56788025D01*
X90178641Y-56788023D01*
X90135975Y-56759515D01*
X90107495Y-56740485D01*
X90027133Y-56724500D01*
X90027132Y-56724500D01*
X90027130Y-56724499D01*
X90000001Y-56719103D01*
X90000000Y-56719103D01*
X89980017Y-56723078D01*
X89965580Y-56724500D01*
X75304196Y-56724500D01*
X75256630Y-56707187D01*
X75234348Y-56674940D01*
X75225789Y-56650478D01*
X75129816Y-56497738D01*
X75002262Y-56370184D01*
X74929359Y-56324376D01*
X74849520Y-56274209D01*
X74679263Y-56214634D01*
X74679256Y-56214632D01*
X74679255Y-56214632D01*
X74500000Y-56194435D01*
X74320745Y-56214632D01*
X74320736Y-56214634D01*
X74150479Y-56274209D01*
X73997735Y-56370186D01*
X73987360Y-56380560D01*
X73944698Y-56401597D01*
X73843238Y-56414955D01*
X73697158Y-56475464D01*
X73571720Y-56571715D01*
X73571715Y-56571720D01*
X73475464Y-56697158D01*
X73414955Y-56843238D01*
X73414955Y-56843239D01*
X73394318Y-57000000D01*
X73414955Y-57156760D01*
X73414955Y-57156761D01*
X73475464Y-57302841D01*
X73571715Y-57428279D01*
X73571720Y-57428284D01*
X73600673Y-57450500D01*
X73697159Y-57524536D01*
X73843238Y-57585044D01*
X73944697Y-57598401D01*
X73987362Y-57619440D01*
X73997738Y-57629816D01*
X74150479Y-57725790D01*
X74318267Y-57784501D01*
X74320745Y-57785368D01*
X74500000Y-57805565D01*
X74679255Y-57785368D01*
X74753139Y-57759515D01*
X74849520Y-57725790D01*
X74867278Y-57714632D01*
X75002262Y-57629816D01*
X75129816Y-57502262D01*
X75225789Y-57349522D01*
X75234348Y-57325058D01*
X75266399Y-57285881D01*
X75304196Y-57275500D01*
X89855232Y-57275500D01*
X89902798Y-57292813D01*
X89907558Y-57297174D01*
X90280853Y-57670469D01*
X90290055Y-57681682D01*
X90301374Y-57698622D01*
X90301376Y-57698624D01*
X90322985Y-57713063D01*
X90322991Y-57713067D01*
X90324376Y-57713992D01*
X90324378Y-57713994D01*
X90325333Y-57714632D01*
X90392505Y-57759515D01*
X90472867Y-57775500D01*
X90472868Y-57775500D01*
X90499999Y-57780897D01*
X90500000Y-57780897D01*
X90519984Y-57776921D01*
X90534420Y-57775500D01*
X97307891Y-57775500D01*
X97355457Y-57792813D01*
X97380767Y-57836650D01*
X97371977Y-57886500D01*
X97336210Y-57917867D01*
X97197158Y-57975464D01*
X97071720Y-58071715D01*
X97071715Y-58071720D01*
X96975464Y-58197158D01*
X96914955Y-58343238D01*
X96914955Y-58343239D01*
X96894318Y-58500000D01*
X96914690Y-58654749D01*
X96903734Y-58704168D01*
X96893649Y-58716733D01*
X82407558Y-73202826D01*
X82361682Y-73224218D01*
X82355232Y-73224500D01*
X77304196Y-73224500D01*
X77256630Y-73207187D01*
X77234348Y-73174940D01*
X77229447Y-73160933D01*
X77225789Y-73150478D01*
X77129816Y-72997738D01*
X77002262Y-72870184D01*
X76915865Y-72815897D01*
X76849520Y-72774209D01*
X76679263Y-72714634D01*
X76679256Y-72714632D01*
X76679255Y-72714632D01*
X76500000Y-72694435D01*
X76320745Y-72714632D01*
X76320736Y-72714634D01*
X76150479Y-72774209D01*
X75997739Y-72870183D01*
X75870183Y-72997739D01*
X75774211Y-73150477D01*
X75765652Y-73174940D01*
X75733601Y-73214119D01*
X75695804Y-73224500D01*
X72644768Y-73224500D01*
X72597202Y-73207187D01*
X72592442Y-73202826D01*
X72106350Y-72716734D01*
X72084958Y-72670858D01*
X72085309Y-72654749D01*
X72105682Y-72500000D01*
X72085044Y-72343238D01*
X72024536Y-72197159D01*
X71988717Y-72150478D01*
X71928284Y-72071720D01*
X71928279Y-72071715D01*
X71802841Y-71975464D01*
X71656761Y-71914955D01*
X71500000Y-71894318D01*
X71343239Y-71914955D01*
X71343238Y-71914955D01*
X71197158Y-71975464D01*
X71071720Y-72071715D01*
X71071715Y-72071720D01*
X70975464Y-72197158D01*
X70914955Y-72343238D01*
X70914955Y-72343239D01*
X70894318Y-72500000D01*
X70914955Y-72656760D01*
X70914955Y-72656761D01*
X70975464Y-72802841D01*
X71071715Y-72928279D01*
X71071720Y-72928284D01*
X71141321Y-72981690D01*
X71197159Y-73024536D01*
X71343238Y-73085044D01*
X71500000Y-73105682D01*
X71654749Y-73085309D01*
X71704168Y-73096265D01*
X71716734Y-73106350D01*
X72280854Y-73670470D01*
X72290056Y-73681683D01*
X72301375Y-73698623D01*
X72301376Y-73698624D01*
X72321355Y-73711974D01*
X72392506Y-73759516D01*
X72499999Y-73780897D01*
X72500000Y-73780897D01*
X72500001Y-73780897D01*
X72519985Y-73776922D01*
X72534421Y-73775500D01*
X75695804Y-73775500D01*
X75743370Y-73792813D01*
X75765651Y-73825058D01*
X75774211Y-73849522D01*
X75870184Y-74002262D01*
X75997738Y-74129816D01*
X76093712Y-74190120D01*
X76150479Y-74225790D01*
X76320736Y-74285365D01*
X76320745Y-74285368D01*
X76500000Y-74305565D01*
X76679255Y-74285368D01*
X76747481Y-74261494D01*
X76849520Y-74225790D01*
X76849522Y-74225789D01*
X77002262Y-74129816D01*
X77129816Y-74002262D01*
X77225789Y-73849522D01*
X77234348Y-73825058D01*
X77266399Y-73785881D01*
X77304196Y-73775500D01*
X82465580Y-73775500D01*
X82480016Y-73776921D01*
X82500000Y-73780897D01*
X82500001Y-73780897D01*
X82504622Y-73779977D01*
X82527132Y-73775500D01*
X82527133Y-73775500D01*
X82607495Y-73759515D01*
X82649465Y-73731471D01*
X82675622Y-73713994D01*
X82675622Y-73713993D01*
X82683636Y-73708639D01*
X82683639Y-73708636D01*
X82698624Y-73698624D01*
X82709948Y-73681674D01*
X82719141Y-73670473D01*
X85647207Y-70742407D01*
X94684962Y-70742407D01*
X94699063Y-70849522D01*
X94705600Y-70899170D01*
X94719682Y-70933168D01*
X94723892Y-70975919D01*
X94719103Y-71000000D01*
X94740485Y-71107495D01*
X94801376Y-71198624D01*
X94892505Y-71259515D01*
X94972867Y-71275500D01*
X94972868Y-71275500D01*
X95000000Y-71280897D01*
X95006769Y-71280897D01*
X95035088Y-71286530D01*
X95111833Y-71318319D01*
X95133882Y-71327452D01*
X95290644Y-71348090D01*
X95447406Y-71327452D01*
X95593485Y-71266944D01*
X95718926Y-71170690D01*
X95815180Y-71045249D01*
X95875688Y-70899170D01*
X95896326Y-70742408D01*
X95875688Y-70585646D01*
X95875687Y-70585643D01*
X95873603Y-70580611D01*
X95871397Y-70530040D01*
X95889643Y-70499971D01*
X97783266Y-68606348D01*
X97829141Y-68584957D01*
X97845241Y-68585307D01*
X98000000Y-68605682D01*
X98156762Y-68585044D01*
X98302841Y-68524536D01*
X98428282Y-68428282D01*
X98524536Y-68302841D01*
X98585044Y-68156762D01*
X98605682Y-68000000D01*
X98585044Y-67843238D01*
X98524536Y-67697159D01*
X98492451Y-67655345D01*
X98428284Y-67571720D01*
X98428279Y-67571715D01*
X98302841Y-67475464D01*
X98156761Y-67414955D01*
X98000000Y-67394318D01*
X97843239Y-67414955D01*
X97843238Y-67414955D01*
X97697158Y-67475464D01*
X97571720Y-67571715D01*
X97571715Y-67571720D01*
X97475464Y-67697158D01*
X97414955Y-67843238D01*
X97414955Y-67843239D01*
X97394318Y-68000000D01*
X97414690Y-68154749D01*
X97403734Y-68204168D01*
X97393649Y-68216733D01*
X95478170Y-70132212D01*
X95432294Y-70153604D01*
X95416186Y-70153253D01*
X95290644Y-70136726D01*
X95133883Y-70157363D01*
X95133882Y-70157363D01*
X94987802Y-70217872D01*
X94862364Y-70314123D01*
X94862359Y-70314128D01*
X94766108Y-70439566D01*
X94705599Y-70585646D01*
X94705599Y-70585647D01*
X94684962Y-70742407D01*
X85647207Y-70742407D01*
X97283266Y-59106348D01*
X97329141Y-59084957D01*
X97345241Y-59085307D01*
X97500000Y-59105682D01*
X97656762Y-59085044D01*
X97802841Y-59024536D01*
X97928282Y-58928282D01*
X98024536Y-58802841D01*
X98085044Y-58656762D01*
X98105682Y-58500000D01*
X98085044Y-58343238D01*
X98024536Y-58197159D01*
X97980434Y-58139684D01*
X97928284Y-58071720D01*
X97928279Y-58071715D01*
X97802841Y-57975464D01*
X97663790Y-57917867D01*
X97626470Y-57883669D01*
X97619863Y-57833483D01*
X97647061Y-57790792D01*
X97692109Y-57775500D01*
X99417992Y-57775500D01*
X99465558Y-57792813D01*
X99476700Y-57804452D01*
X99571715Y-57928279D01*
X99571720Y-57928284D01*
X99633207Y-57975464D01*
X99697159Y-58024536D01*
X99843238Y-58085044D01*
X100000000Y-58105682D01*
X100156762Y-58085044D01*
X100302841Y-58024536D01*
X100428282Y-57928282D01*
X100524536Y-57802841D01*
X100532133Y-57784501D01*
X100566330Y-57747180D01*
X100616516Y-57740573D01*
X100659208Y-57767770D01*
X100674500Y-57812819D01*
X100674500Y-62100500D01*
X100657187Y-62148066D01*
X100613350Y-62173376D01*
X100600500Y-62174500D01*
X99043642Y-62174500D01*
X98996076Y-62157187D01*
X98984934Y-62145548D01*
X98928284Y-62071720D01*
X98928279Y-62071715D01*
X98802841Y-61975464D01*
X98656761Y-61914955D01*
X98500000Y-61894318D01*
X98343239Y-61914955D01*
X98343238Y-61914955D01*
X98197158Y-61975464D01*
X98071720Y-62071715D01*
X98071715Y-62071720D01*
X97975464Y-62197158D01*
X97914955Y-62343238D01*
X97914955Y-62343239D01*
X97894318Y-62500000D01*
X97914955Y-62656760D01*
X97914955Y-62656761D01*
X97975464Y-62802841D01*
X98071715Y-62928279D01*
X98071720Y-62928284D01*
X98103084Y-62952350D01*
X98197159Y-63024536D01*
X98343238Y-63085044D01*
X98500000Y-63105682D01*
X98656762Y-63085044D01*
X98802841Y-63024536D01*
X98928282Y-62928282D01*
X98955734Y-62892506D01*
X98984934Y-62854452D01*
X99027625Y-62827254D01*
X99043642Y-62825500D01*
X100834522Y-62825500D01*
X100882088Y-62842813D01*
X100886848Y-62847174D01*
X102258647Y-64218973D01*
X102260819Y-64221343D01*
X102287545Y-64253194D01*
X102323546Y-64273979D01*
X102326270Y-64275715D01*
X102360314Y-64299553D01*
X102360316Y-64299554D01*
X102364949Y-64300795D01*
X102382795Y-64308186D01*
X102386955Y-64310588D01*
X102386958Y-64310588D01*
X102386959Y-64310589D01*
X102386958Y-64310589D01*
X102427888Y-64317806D01*
X102431038Y-64318504D01*
X102471193Y-64329264D01*
X102471193Y-64329263D01*
X102471194Y-64329264D01*
X102479040Y-64328577D01*
X102512610Y-64325640D01*
X102515829Y-64325500D01*
X109956358Y-64325500D01*
X110003924Y-64342813D01*
X110015066Y-64354452D01*
X110071715Y-64428279D01*
X110071720Y-64428284D01*
X110197159Y-64524536D01*
X110215499Y-64532133D01*
X110252820Y-64566330D01*
X110259427Y-64616516D01*
X110232230Y-64659208D01*
X110187181Y-64674500D01*
X102515815Y-64674500D01*
X102512594Y-64674359D01*
X102503674Y-64673578D01*
X102471194Y-64670736D01*
X102431044Y-64681494D01*
X102427894Y-64682192D01*
X102386953Y-64689412D01*
X102386951Y-64689412D01*
X102382790Y-64691815D01*
X102364959Y-64699201D01*
X102360317Y-64700445D01*
X102360312Y-64700447D01*
X102326265Y-64724287D01*
X102323544Y-64726021D01*
X102287549Y-64746803D01*
X102287543Y-64746808D01*
X102260832Y-64778639D01*
X102258651Y-64781020D01*
X100781031Y-66258641D01*
X100778650Y-66260822D01*
X100746808Y-66287542D01*
X100746805Y-66287545D01*
X100726019Y-66323546D01*
X100724285Y-66326268D01*
X100700447Y-66360312D01*
X100700445Y-66360317D01*
X100699201Y-66364959D01*
X100691815Y-66382790D01*
X100689412Y-66386951D01*
X100689412Y-66386952D01*
X100682193Y-66427884D01*
X100681495Y-66431033D01*
X100670735Y-66471192D01*
X100670735Y-66471194D01*
X100674359Y-66512598D01*
X100674500Y-66515825D01*
X100674500Y-74602521D01*
X100657187Y-74650087D01*
X100652826Y-74654847D01*
X99126130Y-76181542D01*
X99080254Y-76202934D01*
X99049364Y-76199064D01*
X98985258Y-76176633D01*
X98985257Y-76176632D01*
X98985255Y-76176632D01*
X98806000Y-76156435D01*
X98626745Y-76176632D01*
X98626736Y-76176634D01*
X98456479Y-76236209D01*
X98303739Y-76332183D01*
X98176183Y-76459739D01*
X98080209Y-76612479D01*
X98020634Y-76782736D01*
X98020632Y-76782745D01*
X98000435Y-76962000D01*
X98020632Y-77141254D01*
X98020634Y-77141263D01*
X98080209Y-77311520D01*
X98136123Y-77400505D01*
X98176184Y-77464262D01*
X98303738Y-77591816D01*
X98381320Y-77640564D01*
X98456479Y-77687790D01*
X98612847Y-77742505D01*
X98626745Y-77747368D01*
X98806000Y-77767565D01*
X98985255Y-77747368D01*
X99053481Y-77723494D01*
X99155520Y-77687790D01*
X99155522Y-77687789D01*
X99308262Y-77591816D01*
X99435816Y-77464262D01*
X99531789Y-77311522D01*
X99591368Y-77141255D01*
X99611565Y-76962000D01*
X99591368Y-76782745D01*
X99568935Y-76718634D01*
X99569566Y-76668020D01*
X99586454Y-76641870D01*
X101218983Y-75009341D01*
X101221329Y-75007191D01*
X101253194Y-74980455D01*
X101273980Y-74944450D01*
X101275712Y-74941733D01*
X101299553Y-74907685D01*
X101299554Y-74907684D01*
X101300794Y-74903054D01*
X101308193Y-74885192D01*
X101310588Y-74881045D01*
X101317807Y-74840100D01*
X101318504Y-74836960D01*
X101329264Y-74796807D01*
X101325640Y-74755391D01*
X101325500Y-74752170D01*
X101325500Y-66665478D01*
X101342813Y-66617912D01*
X101347174Y-66613152D01*
X102613153Y-65347174D01*
X102659030Y-65325782D01*
X102665479Y-65325500D01*
X111484174Y-65325500D01*
X111487394Y-65325640D01*
X111513546Y-65327928D01*
X111528805Y-65329264D01*
X111528805Y-65329263D01*
X111528807Y-65329264D01*
X111568967Y-65318502D01*
X111572100Y-65317807D01*
X111613045Y-65310588D01*
X111617194Y-65308191D01*
X111635055Y-65300794D01*
X111639684Y-65299554D01*
X111673733Y-65275712D01*
X111676450Y-65273980D01*
X111712455Y-65253194D01*
X111739187Y-65221334D01*
X111741348Y-65218976D01*
X112218983Y-64741341D01*
X112221329Y-64739191D01*
X112253194Y-64712455D01*
X112273980Y-64676450D01*
X112275712Y-64673733D01*
X112287298Y-64657187D01*
X112299554Y-64639684D01*
X112300794Y-64635054D01*
X112308193Y-64617192D01*
X112310588Y-64613045D01*
X112317807Y-64572100D01*
X112318504Y-64568960D01*
X112319967Y-64563500D01*
X112329264Y-64528807D01*
X112325640Y-64487391D01*
X112325500Y-64484170D01*
X112325500Y-63515825D01*
X112325641Y-63512598D01*
X112329264Y-63471193D01*
X112325309Y-63456435D01*
X112318502Y-63431033D01*
X112317806Y-63427889D01*
X112310589Y-63386958D01*
X112310588Y-63386956D01*
X112310588Y-63386955D01*
X112308186Y-63382795D01*
X112300795Y-63364949D01*
X112299554Y-63360316D01*
X112287298Y-63342813D01*
X112275715Y-63326270D01*
X112273979Y-63323546D01*
X112266498Y-63310589D01*
X112253194Y-63287545D01*
X112253193Y-63287543D01*
X112221347Y-63260821D01*
X112218966Y-63258640D01*
X111741357Y-62781031D01*
X111739176Y-62778651D01*
X111736363Y-62775299D01*
X111712455Y-62746806D01*
X111695088Y-62736778D01*
X111676458Y-62726022D01*
X111673736Y-62724288D01*
X111639685Y-62700446D01*
X111639682Y-62700445D01*
X111635047Y-62699203D01*
X111617200Y-62691811D01*
X111613044Y-62689411D01*
X111572114Y-62682193D01*
X111568964Y-62681495D01*
X111528806Y-62670735D01*
X111528805Y-62670735D01*
X111495818Y-62673622D01*
X111487394Y-62674359D01*
X111484174Y-62674500D01*
X103165478Y-62674500D01*
X103117912Y-62657187D01*
X103113152Y-62652826D01*
X102347174Y-61886848D01*
X102325782Y-61840972D01*
X102325500Y-61834522D01*
X102325500Y-51515478D01*
X102342813Y-51467912D01*
X102347174Y-51463152D01*
X103813152Y-49997174D01*
X103859028Y-49975782D01*
X103865478Y-49975500D01*
X108956232Y-49975500D01*
X109003798Y-49992813D01*
X109029108Y-50036650D01*
X109020318Y-50086500D01*
X109008558Y-50101826D01*
X107654529Y-51455853D01*
X107643319Y-51465053D01*
X107626377Y-51476374D01*
X107626376Y-51476375D01*
X107611005Y-51499378D01*
X107593528Y-51525533D01*
X107565485Y-51567504D01*
X107554895Y-51620747D01*
X107544103Y-51674999D01*
X107548078Y-51694983D01*
X107549500Y-51709420D01*
X107549500Y-53130174D01*
X107532187Y-53177740D01*
X107520548Y-53188882D01*
X107396720Y-53283897D01*
X107396715Y-53283902D01*
X107300464Y-53409340D01*
X107239955Y-53555420D01*
X107239955Y-53555421D01*
X107219318Y-53712182D01*
X107239955Y-53868942D01*
X107239955Y-53868943D01*
X107300464Y-54015023D01*
X107369852Y-54105452D01*
X107385074Y-54153728D01*
X107365702Y-54200494D01*
X107320803Y-54223867D01*
X107311144Y-54224500D01*
X105582008Y-54224500D01*
X105534442Y-54207187D01*
X105523300Y-54195548D01*
X105428284Y-54071720D01*
X105428279Y-54071715D01*
X105302841Y-53975464D01*
X105156761Y-53914955D01*
X105000000Y-53894318D01*
X104843239Y-53914955D01*
X104843238Y-53914955D01*
X104697158Y-53975464D01*
X104571720Y-54071715D01*
X104571715Y-54071720D01*
X104475464Y-54197158D01*
X104414955Y-54343238D01*
X104414955Y-54343239D01*
X104394318Y-54500000D01*
X104414955Y-54656760D01*
X104414955Y-54656761D01*
X104475464Y-54802841D01*
X104571715Y-54928279D01*
X104571720Y-54928284D01*
X104631703Y-54974310D01*
X104697159Y-55024536D01*
X104843238Y-55085044D01*
X105000000Y-55105682D01*
X105156762Y-55085044D01*
X105302841Y-55024536D01*
X105351523Y-54987181D01*
X114741692Y-54987181D01*
X114745566Y-55014125D01*
X114746319Y-55024656D01*
X114746319Y-55256879D01*
X114757922Y-55315217D01*
X114802126Y-55381373D01*
X114802127Y-55381374D01*
X114868283Y-55425578D01*
X114926622Y-55437182D01*
X116871319Y-55437182D01*
X116871319Y-55122376D01*
X116926573Y-55137182D01*
X116966065Y-55137182D01*
X117021319Y-55122376D01*
X117021319Y-55437182D01*
X118966016Y-55437182D01*
X119024354Y-55425578D01*
X119084356Y-55385486D01*
X119089560Y-55384212D01*
X119094623Y-55375219D01*
X119134715Y-55315217D01*
X119146319Y-55256879D01*
X119146319Y-55024656D01*
X119147072Y-55014125D01*
X119150945Y-54987181D01*
X119147072Y-54960238D01*
X119146319Y-54949707D01*
X119146319Y-53312182D01*
X118831514Y-53312182D01*
X118851610Y-53237182D01*
X118831514Y-53162182D01*
X119146319Y-53162182D01*
X119146319Y-51524656D01*
X119147072Y-51514125D01*
X119150945Y-51487181D01*
X119147072Y-51460238D01*
X119146319Y-51449707D01*
X119146319Y-51217484D01*
X119134715Y-51159146D01*
X119090511Y-51092990D01*
X119090510Y-51092989D01*
X119024354Y-51048785D01*
X118966016Y-51037182D01*
X117021319Y-51037182D01*
X117021319Y-51351987D01*
X116966065Y-51337182D01*
X116926573Y-51337182D01*
X116871319Y-51351987D01*
X116871319Y-51037182D01*
X114926622Y-51037182D01*
X114868283Y-51048785D01*
X114802127Y-51092989D01*
X114802126Y-51092990D01*
X114757922Y-51159146D01*
X114746319Y-51217484D01*
X114746319Y-51449707D01*
X114745566Y-51460238D01*
X114741692Y-51487181D01*
X114745566Y-51514125D01*
X114746319Y-51524656D01*
X114746319Y-53162182D01*
X115061124Y-53162182D01*
X115041028Y-53237182D01*
X115061124Y-53312182D01*
X114746319Y-53312182D01*
X114746319Y-54949707D01*
X114745566Y-54960238D01*
X114741692Y-54987181D01*
X105351523Y-54987181D01*
X105428282Y-54928282D01*
X105523300Y-54804452D01*
X105565991Y-54777254D01*
X105582008Y-54775500D01*
X108968318Y-54775500D01*
X108982754Y-54776921D01*
X109002738Y-54780897D01*
X109002739Y-54780897D01*
X109007360Y-54779977D01*
X109029870Y-54775500D01*
X109029871Y-54775500D01*
X109110233Y-54759515D01*
X109152203Y-54731471D01*
X109178360Y-54713994D01*
X109178360Y-54713993D01*
X109186374Y-54708639D01*
X109186376Y-54708636D01*
X109201362Y-54698624D01*
X109212682Y-54681681D01*
X109221879Y-54670474D01*
X113283098Y-50609256D01*
X113328974Y-50587864D01*
X113335424Y-50587582D01*
X121653498Y-50587582D01*
X121667934Y-50589003D01*
X121687918Y-50592979D01*
X121687919Y-50592979D01*
X121692540Y-50592059D01*
X121715050Y-50587582D01*
X121715051Y-50587582D01*
X121783774Y-50573912D01*
X121826528Y-50578123D01*
X121843235Y-50585043D01*
X121843236Y-50585043D01*
X121843238Y-50585044D01*
X122000000Y-50605682D01*
X122156762Y-50585044D01*
X122302841Y-50524536D01*
X122428282Y-50428282D01*
X122524536Y-50302841D01*
X122585044Y-50156762D01*
X122586642Y-50144621D01*
X122610012Y-50099721D01*
X122656777Y-50080348D01*
X122705054Y-50095566D01*
X122712335Y-50101951D01*
X123280853Y-50670469D01*
X123290055Y-50681682D01*
X123301376Y-50698624D01*
X123324376Y-50713992D01*
X123324378Y-50713994D01*
X123392505Y-50759515D01*
X123500000Y-50780897D01*
X123519983Y-50776921D01*
X123534420Y-50775500D01*
X124307891Y-50775500D01*
X124355457Y-50792813D01*
X124380767Y-50836650D01*
X124371977Y-50886500D01*
X124336210Y-50917867D01*
X124197158Y-50975464D01*
X124071720Y-51071715D01*
X124071715Y-51071720D01*
X123976700Y-51195548D01*
X123934009Y-51222746D01*
X123917992Y-51224500D01*
X121034421Y-51224500D01*
X121019985Y-51223078D01*
X121000001Y-51219103D01*
X120999999Y-51219103D01*
X120892506Y-51240483D01*
X120826307Y-51284715D01*
X120826305Y-51284718D01*
X120801376Y-51301375D01*
X120801374Y-51301377D01*
X120790053Y-51318319D01*
X120780853Y-51329529D01*
X119829529Y-52280853D01*
X119818319Y-52290053D01*
X119801377Y-52301374D01*
X119801375Y-52301376D01*
X119740484Y-52392506D01*
X119739422Y-52396008D01*
X119739063Y-52399654D01*
X119719103Y-52500000D01*
X119723078Y-52519983D01*
X119724500Y-52534420D01*
X119724500Y-54921984D01*
X119707187Y-54969550D01*
X119702826Y-54974310D01*
X119208478Y-55468657D01*
X119188934Y-55477769D01*
X119185145Y-55490772D01*
X119177794Y-55499341D01*
X117799310Y-56877826D01*
X117753434Y-56899218D01*
X117746984Y-56899500D01*
X112357405Y-56899500D01*
X112309839Y-56882187D01*
X112284529Y-56838350D01*
X112293319Y-56788500D01*
X112312357Y-56766792D01*
X112437076Y-56671091D01*
X112437079Y-56671089D01*
X112533333Y-56545648D01*
X112593841Y-56399569D01*
X112614479Y-56242807D01*
X112593841Y-56086045D01*
X112533333Y-55939966D01*
X112459112Y-55843239D01*
X112437081Y-55814527D01*
X112437076Y-55814522D01*
X112311638Y-55718271D01*
X112165558Y-55657762D01*
X112008797Y-55637125D01*
X111852036Y-55657762D01*
X111852035Y-55657762D01*
X111705955Y-55718271D01*
X111580517Y-55814522D01*
X111580512Y-55814527D01*
X111484261Y-55939965D01*
X111423752Y-56086045D01*
X111413996Y-56160159D01*
X111390623Y-56205058D01*
X111343857Y-56224430D01*
X111340629Y-56224500D01*
X104034421Y-56224500D01*
X104019985Y-56223078D01*
X104000001Y-56219103D01*
X103999999Y-56219103D01*
X103892506Y-56240483D01*
X103826307Y-56284715D01*
X103826305Y-56284718D01*
X103801376Y-56301375D01*
X103801374Y-56301377D01*
X103790053Y-56318319D01*
X103780853Y-56329529D01*
X102829529Y-57280853D01*
X102818319Y-57290053D01*
X102801377Y-57301374D01*
X102801373Y-57301378D01*
X102786005Y-57324378D01*
X102773404Y-57343237D01*
X102740484Y-57392505D01*
X102737902Y-57405491D01*
X102719103Y-57500000D01*
X102723078Y-57519983D01*
X102724500Y-57534420D01*
X102724500Y-60965579D01*
X102723078Y-60980015D01*
X102719803Y-60996483D01*
X102719103Y-61000000D01*
X102724500Y-61027132D01*
X102724500Y-61027133D01*
X102740485Y-61107495D01*
X102782786Y-61170803D01*
X102801377Y-61198625D01*
X102818314Y-61209942D01*
X102829529Y-61219145D01*
X103780853Y-62170469D01*
X103790055Y-62181682D01*
X103801375Y-62198623D01*
X103801376Y-62198624D01*
X103821355Y-62211974D01*
X103892506Y-62259516D01*
X103999999Y-62280897D01*
X104000000Y-62280897D01*
X104000001Y-62280897D01*
X104019985Y-62276922D01*
X104034421Y-62275500D01*
X111855232Y-62275500D01*
X111902798Y-62292813D01*
X111907558Y-62297174D01*
X112702826Y-63092442D01*
X112724218Y-63138318D01*
X112724500Y-63144768D01*
X112724500Y-67965579D01*
X112723078Y-67980015D01*
X112720503Y-67992964D01*
X112719103Y-68000000D01*
X112724500Y-68027132D01*
X112724500Y-68027133D01*
X112740485Y-68107495D01*
X112773404Y-68156762D01*
X112801377Y-68198625D01*
X112818314Y-68209942D01*
X112829529Y-68219145D01*
X116393649Y-71783265D01*
X116415041Y-71829141D01*
X116414690Y-71845249D01*
X116394318Y-71999999D01*
X116414955Y-72156760D01*
X116414955Y-72156761D01*
X116475464Y-72302841D01*
X116571715Y-72428279D01*
X116571720Y-72428284D01*
X116633207Y-72475464D01*
X116697159Y-72524536D01*
X116843238Y-72585044D01*
X117000000Y-72605682D01*
X117156762Y-72585044D01*
X117302841Y-72524536D01*
X117428282Y-72428282D01*
X117524536Y-72302841D01*
X117557133Y-72224144D01*
X117591330Y-72186824D01*
X117641516Y-72180217D01*
X117684208Y-72207414D01*
X117699500Y-72252463D01*
X117699500Y-72844876D01*
X117682187Y-72892442D01*
X117677826Y-72897202D01*
X108542708Y-82032319D01*
X108532865Y-82039405D01*
X108533245Y-82039908D01*
X108527773Y-82044040D01*
X108495174Y-82079797D01*
X108493997Y-82081029D01*
X108479822Y-82095206D01*
X108477326Y-82098851D01*
X108474145Y-82102866D01*
X108452085Y-82127065D01*
X108452083Y-82127067D01*
X108447483Y-82138941D01*
X108439536Y-82154017D01*
X108432344Y-82164517D01*
X108424847Y-82196390D01*
X108423330Y-82201288D01*
X108411500Y-82231828D01*
X108411500Y-82244553D01*
X108409535Y-82261488D01*
X108406621Y-82273881D01*
X108406621Y-82273883D01*
X108405052Y-82280556D01*
X108401860Y-82279805D01*
X108387397Y-82314433D01*
X108365103Y-82330946D01*
X108362483Y-82332207D01*
X108209741Y-82428181D01*
X108082183Y-82555739D01*
X107986209Y-82708479D01*
X107926634Y-82878736D01*
X107926632Y-82878745D01*
X107906435Y-83058000D01*
X107917562Y-83156760D01*
X107926632Y-83237254D01*
X107926634Y-83237263D01*
X107986209Y-83407520D01*
X108057547Y-83521054D01*
X108082184Y-83560262D01*
X108209738Y-83687816D01*
X108305712Y-83748120D01*
X108362479Y-83783790D01*
X108532736Y-83843365D01*
X108532745Y-83843368D01*
X108712000Y-83863565D01*
X108891255Y-83843368D01*
X108966356Y-83817089D01*
X109061520Y-83783790D01*
X109061522Y-83783789D01*
X109214262Y-83687816D01*
X109341816Y-83560262D01*
X109437789Y-83407522D01*
X109497368Y-83237255D01*
X109517565Y-83058000D01*
X109497368Y-82878745D01*
X109454989Y-82757632D01*
X109437790Y-82708479D01*
X109351858Y-82571720D01*
X109341816Y-82555738D01*
X109214262Y-82428184D01*
X109159274Y-82393633D01*
X109128210Y-82353668D01*
X109130102Y-82303085D01*
X109146317Y-82278652D01*
X118169290Y-73255680D01*
X118179136Y-73248599D01*
X118178753Y-73248092D01*
X118184221Y-73243961D01*
X118184228Y-73243958D01*
X118216828Y-73208196D01*
X118217964Y-73207006D01*
X118232175Y-73192797D01*
X118234674Y-73189146D01*
X118237850Y-73185136D01*
X118259916Y-73160933D01*
X118264510Y-73149070D01*
X118272468Y-73133973D01*
X118275316Y-73129816D01*
X118279657Y-73123480D01*
X118282442Y-73111633D01*
X118287153Y-73091607D01*
X118288668Y-73086710D01*
X118300500Y-73056173D01*
X118300500Y-73043446D01*
X118302466Y-73026503D01*
X118305379Y-73014118D01*
X118300854Y-72981680D01*
X118300500Y-72976571D01*
X118300500Y-62614742D01*
X118317813Y-62567176D01*
X118322163Y-62562427D01*
X118586357Y-62298233D01*
X118632232Y-62276842D01*
X118681127Y-62289943D01*
X118710161Y-62331407D01*
X118707686Y-62377290D01*
X118699500Y-62398422D01*
X118699500Y-62411147D01*
X118697535Y-62428082D01*
X118694621Y-62440475D01*
X118699145Y-62472910D01*
X118699500Y-62478018D01*
X118699500Y-74900876D01*
X118682187Y-74948442D01*
X118677826Y-74953202D01*
X111344320Y-82286707D01*
X111298444Y-82308099D01*
X111267554Y-82304228D01*
X111177266Y-82272635D01*
X111177257Y-82272632D01*
X111177255Y-82272632D01*
X110998000Y-82252435D01*
X110818745Y-82272632D01*
X110818736Y-82272634D01*
X110648479Y-82332209D01*
X110495739Y-82428183D01*
X110368183Y-82555739D01*
X110272209Y-82708479D01*
X110212634Y-82878736D01*
X110212632Y-82878745D01*
X110192435Y-83058000D01*
X110203562Y-83156760D01*
X110212632Y-83237254D01*
X110212634Y-83237263D01*
X110272209Y-83407520D01*
X110343547Y-83521054D01*
X110368184Y-83560262D01*
X110495738Y-83687816D01*
X110637870Y-83777124D01*
X110668935Y-83817089D01*
X110672500Y-83839781D01*
X110672500Y-83957892D01*
X110655187Y-84005458D01*
X110643549Y-84016600D01*
X110571715Y-84071720D01*
X110571713Y-84071722D01*
X110475464Y-84197158D01*
X110414955Y-84343238D01*
X110414955Y-84343239D01*
X110394318Y-84500000D01*
X110414955Y-84656760D01*
X110414955Y-84656761D01*
X110475464Y-84802841D01*
X110571715Y-84928279D01*
X110571720Y-84928284D01*
X110653056Y-84990695D01*
X110697159Y-85024536D01*
X110843238Y-85085044D01*
X111000000Y-85105682D01*
X111156762Y-85085044D01*
X111302841Y-85024536D01*
X111428282Y-84928282D01*
X111524536Y-84802841D01*
X111585044Y-84656762D01*
X111605682Y-84500000D01*
X111585044Y-84343238D01*
X111524536Y-84197159D01*
X111473481Y-84130623D01*
X111428284Y-84071720D01*
X111428279Y-84071715D01*
X111352452Y-84013531D01*
X111325254Y-83970840D01*
X111323500Y-83954823D01*
X111323500Y-83839781D01*
X111340813Y-83792215D01*
X111358127Y-83777124D01*
X111500262Y-83687816D01*
X111627816Y-83560262D01*
X111723789Y-83407522D01*
X111783368Y-83237255D01*
X111803565Y-83058000D01*
X111797030Y-83000000D01*
X112894318Y-83000000D01*
X112914955Y-83156760D01*
X112914955Y-83156761D01*
X112975464Y-83302841D01*
X113071715Y-83428279D01*
X113071720Y-83428284D01*
X113155345Y-83492451D01*
X113197159Y-83524536D01*
X113343238Y-83585044D01*
X113500000Y-83605682D01*
X113656762Y-83585044D01*
X113802841Y-83524536D01*
X113928282Y-83428282D01*
X114024536Y-83302841D01*
X114085044Y-83156762D01*
X114105682Y-83000000D01*
X114093534Y-82907733D01*
X114104490Y-82858315D01*
X114114570Y-82845754D01*
X117282325Y-79678000D01*
X123082254Y-79678000D01*
X123101156Y-79821577D01*
X123101157Y-79821581D01*
X123156575Y-79955372D01*
X123198683Y-80010248D01*
X123414274Y-79794656D01*
X123456760Y-79858240D01*
X123520341Y-79900723D01*
X123304750Y-80116314D01*
X123304750Y-80116315D01*
X123359627Y-80158424D01*
X123493418Y-80213842D01*
X123493422Y-80213843D01*
X123637000Y-80232745D01*
X123780577Y-80213843D01*
X123780581Y-80213842D01*
X123914366Y-80158427D01*
X123914371Y-80158424D01*
X123969248Y-80116314D01*
X123753658Y-79900724D01*
X123817240Y-79858240D01*
X123859724Y-79794658D01*
X124075314Y-80010248D01*
X124117424Y-79955371D01*
X124117427Y-79955366D01*
X124172842Y-79821581D01*
X124172843Y-79821577D01*
X124191745Y-79678000D01*
X124172843Y-79534422D01*
X124172842Y-79534418D01*
X124117424Y-79400627D01*
X124075315Y-79345750D01*
X124075314Y-79345750D01*
X123859723Y-79561341D01*
X123817240Y-79497760D01*
X123753656Y-79455274D01*
X123969248Y-79239683D01*
X123914372Y-79197575D01*
X123780581Y-79142157D01*
X123780577Y-79142156D01*
X123637000Y-79123254D01*
X123493422Y-79142156D01*
X123493421Y-79142156D01*
X123359625Y-79197576D01*
X123359624Y-79197577D01*
X123304750Y-79239683D01*
X123304750Y-79239684D01*
X123520341Y-79455275D01*
X123456760Y-79497760D01*
X123414275Y-79561341D01*
X123198684Y-79345750D01*
X123198683Y-79345750D01*
X123156577Y-79400624D01*
X123156576Y-79400625D01*
X123101156Y-79534421D01*
X123101156Y-79534422D01*
X123082254Y-79678000D01*
X117282325Y-79678000D01*
X118982325Y-77978000D01*
X123082254Y-77978000D01*
X123101156Y-78121577D01*
X123101157Y-78121581D01*
X123156575Y-78255372D01*
X123198683Y-78310248D01*
X123414274Y-78094656D01*
X123456760Y-78158240D01*
X123520341Y-78200723D01*
X123304750Y-78416314D01*
X123304750Y-78416315D01*
X123359627Y-78458424D01*
X123493418Y-78513842D01*
X123493422Y-78513843D01*
X123637000Y-78532745D01*
X123780577Y-78513843D01*
X123780581Y-78513842D01*
X123914366Y-78458427D01*
X123914371Y-78458424D01*
X123969248Y-78416314D01*
X123753658Y-78200724D01*
X123817240Y-78158240D01*
X123859724Y-78094658D01*
X124075314Y-78310248D01*
X124117424Y-78255371D01*
X124117427Y-78255366D01*
X124172842Y-78121581D01*
X124172843Y-78121577D01*
X124191745Y-77978000D01*
X124172843Y-77834422D01*
X124172842Y-77834418D01*
X124117424Y-77700627D01*
X124075315Y-77645750D01*
X124075314Y-77645750D01*
X123859723Y-77861341D01*
X123817240Y-77797760D01*
X123753656Y-77755274D01*
X123969248Y-77539683D01*
X123914372Y-77497575D01*
X123780581Y-77442157D01*
X123780577Y-77442156D01*
X123637000Y-77423254D01*
X123493422Y-77442156D01*
X123493421Y-77442156D01*
X123359625Y-77497576D01*
X123359624Y-77497577D01*
X123304750Y-77539683D01*
X123304750Y-77539684D01*
X123520341Y-77755275D01*
X123456760Y-77797760D01*
X123414275Y-77861341D01*
X123198684Y-77645750D01*
X123198683Y-77645750D01*
X123156577Y-77700624D01*
X123156576Y-77700625D01*
X123101156Y-77834421D01*
X123101156Y-77834422D01*
X123082254Y-77978000D01*
X118982325Y-77978000D01*
X120613152Y-76347174D01*
X120659028Y-76325782D01*
X120665478Y-76325500D01*
X120956358Y-76325500D01*
X121003924Y-76342813D01*
X121015066Y-76354452D01*
X121071715Y-76428279D01*
X121071720Y-76428284D01*
X121133207Y-76475464D01*
X121197159Y-76524536D01*
X121343238Y-76585044D01*
X121500000Y-76605682D01*
X121656762Y-76585044D01*
X121802841Y-76524536D01*
X121928282Y-76428282D01*
X122024536Y-76302841D01*
X122085044Y-76156762D01*
X122105682Y-76000000D01*
X122085044Y-75843238D01*
X122024536Y-75697159D01*
X121961167Y-75614575D01*
X121928284Y-75571720D01*
X121928279Y-75571715D01*
X121802841Y-75475464D01*
X121656761Y-75414955D01*
X121500000Y-75394318D01*
X121343239Y-75414955D01*
X121343238Y-75414955D01*
X121197158Y-75475464D01*
X121071720Y-75571715D01*
X121071715Y-75571720D01*
X121015066Y-75645548D01*
X120972375Y-75672746D01*
X120956358Y-75674500D01*
X120515826Y-75674500D01*
X120512605Y-75674359D01*
X120503650Y-75673575D01*
X120471194Y-75670735D01*
X120471192Y-75670735D01*
X120431033Y-75681495D01*
X120427884Y-75682193D01*
X120386952Y-75689412D01*
X120386951Y-75689412D01*
X120382790Y-75691815D01*
X120364959Y-75699201D01*
X120360317Y-75700445D01*
X120360312Y-75700447D01*
X120326268Y-75724285D01*
X120323547Y-75726019D01*
X120287547Y-75746804D01*
X120287543Y-75746808D01*
X120260827Y-75778645D01*
X120258646Y-75781026D01*
X113654249Y-82385423D01*
X113608373Y-82406815D01*
X113592265Y-82406464D01*
X113500000Y-82394318D01*
X113343239Y-82414955D01*
X113343238Y-82414955D01*
X113197158Y-82475464D01*
X113071720Y-82571715D01*
X113071715Y-82571720D01*
X112975464Y-82697158D01*
X112914955Y-82843238D01*
X112914955Y-82843239D01*
X112894318Y-83000000D01*
X111797030Y-83000000D01*
X111783368Y-82878745D01*
X111751770Y-82788444D01*
X111752400Y-82737830D01*
X111769289Y-82711680D01*
X119169288Y-75311681D01*
X119179136Y-75304599D01*
X119178753Y-75304092D01*
X119184221Y-75299961D01*
X119184228Y-75299958D01*
X119216837Y-75264186D01*
X119217995Y-75262975D01*
X119232174Y-75248797D01*
X119234673Y-75245147D01*
X119237848Y-75241138D01*
X119259916Y-75216933D01*
X119264513Y-75205064D01*
X119272468Y-75189974D01*
X119279657Y-75179481D01*
X119282745Y-75166348D01*
X119287154Y-75147607D01*
X119288671Y-75142705D01*
X119300500Y-75112173D01*
X119300500Y-75099446D01*
X119302466Y-75082503D01*
X119305379Y-75070119D01*
X119300854Y-75037683D01*
X119300500Y-75032573D01*
X119300500Y-72500000D01*
X119694435Y-72500000D01*
X119712097Y-72656760D01*
X119714632Y-72679254D01*
X119714634Y-72679263D01*
X119774209Y-72849520D01*
X119790552Y-72875529D01*
X119870184Y-73002262D01*
X119997738Y-73129816D01*
X120088792Y-73187029D01*
X120150479Y-73225790D01*
X120320736Y-73285365D01*
X120320745Y-73285368D01*
X120500000Y-73305565D01*
X120679255Y-73285368D01*
X120849522Y-73225789D01*
X121002262Y-73129816D01*
X121012634Y-73119443D01*
X121055301Y-73098401D01*
X121156762Y-73085044D01*
X121302841Y-73024536D01*
X121428282Y-72928282D01*
X121524536Y-72802841D01*
X121585044Y-72656762D01*
X121605682Y-72500000D01*
X121585044Y-72343238D01*
X121524536Y-72197159D01*
X121488717Y-72150478D01*
X121428284Y-72071720D01*
X121428279Y-72071715D01*
X121302841Y-71975464D01*
X121156761Y-71914955D01*
X121055300Y-71901597D01*
X121012636Y-71880558D01*
X121002261Y-71870183D01*
X120849520Y-71774209D01*
X120679263Y-71714634D01*
X120679256Y-71714632D01*
X120679255Y-71714632D01*
X120500000Y-71694435D01*
X120320745Y-71714632D01*
X120320736Y-71714634D01*
X120150479Y-71774209D01*
X119997739Y-71870183D01*
X119870183Y-71997739D01*
X119774209Y-72150479D01*
X119714634Y-72320736D01*
X119714632Y-72320745D01*
X119694435Y-72500000D01*
X119300500Y-72500000D01*
X119300500Y-62649509D01*
X120045021Y-62649509D01*
X120065658Y-62806269D01*
X120065658Y-62806270D01*
X120126167Y-62952350D01*
X120222418Y-63077788D01*
X120222423Y-63077793D01*
X120321251Y-63153626D01*
X120348449Y-63196317D01*
X120350203Y-63212334D01*
X120350203Y-67014819D01*
X120334911Y-67059867D01*
X120279714Y-67131801D01*
X120219205Y-67277881D01*
X120219205Y-67277882D01*
X120198568Y-67434643D01*
X120219205Y-67591403D01*
X120219205Y-67591404D01*
X120279714Y-67737484D01*
X120375965Y-67862922D01*
X120375970Y-67862927D01*
X120434135Y-67907558D01*
X120501409Y-67959179D01*
X120647488Y-68019687D01*
X120804250Y-68040325D01*
X120961012Y-68019687D01*
X121025527Y-67992964D01*
X122489500Y-67992964D01*
X122530046Y-68131050D01*
X122530047Y-68131054D01*
X122546568Y-68156761D01*
X122607857Y-68252128D01*
X122607859Y-68252129D01*
X122607860Y-68252131D01*
X122689434Y-68322814D01*
X122716627Y-68346377D01*
X122847543Y-68406165D01*
X122954201Y-68421500D01*
X122954207Y-68421500D01*
X123025793Y-68421500D01*
X123025799Y-68421500D01*
X123132457Y-68406165D01*
X123263373Y-68346377D01*
X123372143Y-68252128D01*
X123449953Y-68131053D01*
X123490499Y-67992963D01*
X123490500Y-67992963D01*
X123490500Y-67849036D01*
X123490499Y-67849035D01*
X123471613Y-67784714D01*
X123449953Y-67710947D01*
X123441091Y-67697158D01*
X123415129Y-67656760D01*
X123372143Y-67589872D01*
X123372140Y-67589869D01*
X123372139Y-67589868D01*
X123263373Y-67495623D01*
X123219231Y-67475464D01*
X123132457Y-67435835D01*
X123132455Y-67435834D01*
X123132454Y-67435834D01*
X123025803Y-67420500D01*
X123025799Y-67420500D01*
X122954201Y-67420500D01*
X122954196Y-67420500D01*
X122847545Y-67435834D01*
X122716626Y-67495623D01*
X122607860Y-67589868D01*
X122607855Y-67589875D01*
X122530047Y-67710945D01*
X122530046Y-67710949D01*
X122489500Y-67849035D01*
X122489500Y-67992964D01*
X121025527Y-67992964D01*
X121107091Y-67959179D01*
X121232532Y-67862925D01*
X121328786Y-67737484D01*
X121389294Y-67591405D01*
X121409932Y-67434643D01*
X121389294Y-67277881D01*
X121328786Y-67131802D01*
X121282680Y-67071715D01*
X121232534Y-67006363D01*
X121232529Y-67006358D01*
X121107091Y-66910107D01*
X120996884Y-66864457D01*
X120959564Y-66830259D01*
X120951203Y-66796090D01*
X120951203Y-66000000D01*
X122894318Y-66000000D01*
X122914955Y-66156760D01*
X122914955Y-66156761D01*
X122975464Y-66302841D01*
X123071715Y-66428279D01*
X123071720Y-66428284D01*
X123127641Y-66471193D01*
X123197159Y-66524536D01*
X123343238Y-66585044D01*
X123500000Y-66605682D01*
X123656762Y-66585044D01*
X123802841Y-66524536D01*
X123928282Y-66428282D01*
X124023300Y-66304452D01*
X124065991Y-66277254D01*
X124082008Y-66275500D01*
X124195804Y-66275500D01*
X124243370Y-66292813D01*
X124265651Y-66325058D01*
X124274211Y-66349522D01*
X124370184Y-66502262D01*
X124497738Y-66629816D01*
X124551890Y-66663842D01*
X124650479Y-66725790D01*
X124820736Y-66785365D01*
X124820745Y-66785368D01*
X125000000Y-66805565D01*
X125179255Y-66785368D01*
X125247481Y-66761494D01*
X125349520Y-66725790D01*
X125349522Y-66725789D01*
X125502262Y-66629816D01*
X125629816Y-66502262D01*
X125725789Y-66349522D01*
X125734879Y-66323546D01*
X125785365Y-66179263D01*
X125785368Y-66179255D01*
X125805565Y-66000000D01*
X125785368Y-65820745D01*
X125776622Y-65795750D01*
X125725790Y-65650479D01*
X125676299Y-65571715D01*
X125629816Y-65497738D01*
X125502262Y-65370184D01*
X125463054Y-65345547D01*
X125349520Y-65274209D01*
X125179263Y-65214634D01*
X125179256Y-65214632D01*
X125179255Y-65214632D01*
X125000000Y-65194435D01*
X124820745Y-65214632D01*
X124820736Y-65214634D01*
X124650479Y-65274209D01*
X124497739Y-65370183D01*
X124370183Y-65497739D01*
X124274211Y-65650477D01*
X124265652Y-65674940D01*
X124233601Y-65714119D01*
X124195804Y-65724500D01*
X124082008Y-65724500D01*
X124034442Y-65707187D01*
X124023300Y-65695548D01*
X123928284Y-65571720D01*
X123928279Y-65571715D01*
X123802841Y-65475464D01*
X123656761Y-65414955D01*
X123500000Y-65394318D01*
X123343239Y-65414955D01*
X123343238Y-65414955D01*
X123197158Y-65475464D01*
X123071720Y-65571715D01*
X123071715Y-65571720D01*
X122975464Y-65697158D01*
X122914955Y-65843238D01*
X122914955Y-65843239D01*
X122894318Y-66000000D01*
X120951203Y-66000000D01*
X120951203Y-64262000D01*
X122694435Y-64262000D01*
X122713138Y-64427999D01*
X122714632Y-64441254D01*
X122714634Y-64441263D01*
X122774209Y-64611520D01*
X122829303Y-64699201D01*
X122870184Y-64764262D01*
X122997738Y-64891816D01*
X122997740Y-64891817D01*
X122997741Y-64891818D01*
X123142335Y-64982672D01*
X123145176Y-64984648D01*
X123170467Y-65004054D01*
X123197159Y-65024536D01*
X123343238Y-65085044D01*
X123500000Y-65105682D01*
X123656762Y-65085044D01*
X123802841Y-65024536D01*
X123844585Y-64992503D01*
X123854822Y-64984649D01*
X123857663Y-64982673D01*
X123975830Y-64908424D01*
X124002262Y-64891816D01*
X124129816Y-64764262D01*
X124225789Y-64611522D01*
X124226938Y-64608240D01*
X124285365Y-64441263D01*
X124285368Y-64441255D01*
X124305565Y-64262000D01*
X124285368Y-64082745D01*
X124285365Y-64082736D01*
X124225790Y-63912479D01*
X124182283Y-63843239D01*
X124129816Y-63759738D01*
X124002262Y-63632184D01*
X123963054Y-63607547D01*
X123849520Y-63536209D01*
X123679263Y-63476634D01*
X123679256Y-63476632D01*
X123679255Y-63476632D01*
X123500000Y-63456435D01*
X123320745Y-63476632D01*
X123320736Y-63476634D01*
X123150479Y-63536209D01*
X122997739Y-63632183D01*
X122870183Y-63759739D01*
X122774209Y-63912479D01*
X122714634Y-64082736D01*
X122714632Y-64082745D01*
X122694435Y-64262000D01*
X120951203Y-64262000D01*
X120951203Y-63212334D01*
X120968516Y-63164768D01*
X120980155Y-63153626D01*
X121059891Y-63092442D01*
X121078985Y-63077791D01*
X121175239Y-62952350D01*
X121235747Y-62806271D01*
X121256385Y-62649509D01*
X121235747Y-62492747D01*
X121175239Y-62346668D01*
X121132933Y-62291534D01*
X121078987Y-62221229D01*
X121078982Y-62221224D01*
X121068217Y-62212964D01*
X122489500Y-62212964D01*
X122530046Y-62351050D01*
X122530047Y-62351054D01*
X122563719Y-62403448D01*
X122607857Y-62472128D01*
X122607859Y-62472129D01*
X122607860Y-62472131D01*
X122668359Y-62524553D01*
X122716627Y-62566377D01*
X122847543Y-62626165D01*
X122954201Y-62641500D01*
X122954207Y-62641500D01*
X123025793Y-62641500D01*
X123025799Y-62641500D01*
X123132457Y-62626165D01*
X123263373Y-62566377D01*
X123372143Y-62472128D01*
X123449953Y-62351053D01*
X123490499Y-62212963D01*
X123490500Y-62212963D01*
X123490500Y-62069036D01*
X123490499Y-62069035D01*
X123478686Y-62028805D01*
X123449953Y-61930947D01*
X123372143Y-61809872D01*
X123372140Y-61809869D01*
X123372139Y-61809868D01*
X123263373Y-61715623D01*
X123222943Y-61697159D01*
X123132457Y-61655835D01*
X123132455Y-61655834D01*
X123132454Y-61655834D01*
X123025803Y-61640500D01*
X123025799Y-61640500D01*
X122954201Y-61640500D01*
X122954196Y-61640500D01*
X122847545Y-61655834D01*
X122716626Y-61715623D01*
X122607860Y-61809868D01*
X122607855Y-61809875D01*
X122530047Y-61930945D01*
X122530046Y-61930949D01*
X122489500Y-62069035D01*
X122489500Y-62212964D01*
X121068217Y-62212964D01*
X120953544Y-62124973D01*
X120807464Y-62064464D01*
X120650703Y-62043827D01*
X120493942Y-62064464D01*
X120493941Y-62064464D01*
X120347861Y-62124973D01*
X120222423Y-62221224D01*
X120222418Y-62221229D01*
X120126167Y-62346667D01*
X120065658Y-62492747D01*
X120065658Y-62492748D01*
X120045021Y-62649509D01*
X119300500Y-62649509D01*
X119300500Y-62609716D01*
X119317813Y-62562150D01*
X119322163Y-62557401D01*
X121175422Y-60704141D01*
X121209947Y-60688042D01*
X121213129Y-60670000D01*
X121224884Y-60654680D01*
X121226891Y-60652672D01*
X121272765Y-60631282D01*
X121279215Y-60631000D01*
X121659432Y-60631000D01*
X121646105Y-60677840D01*
X121655664Y-60781000D01*
X121303434Y-60781000D01*
X121306438Y-60828762D01*
X121306439Y-60828768D01*
X121357185Y-60984950D01*
X121357189Y-60984958D01*
X121445182Y-61123614D01*
X121445187Y-61123620D01*
X121564901Y-61236038D01*
X121708816Y-61315157D01*
X121867881Y-61355998D01*
X121867889Y-61356000D01*
X122425000Y-61356000D01*
X122425000Y-61006000D01*
X122575000Y-61006000D01*
X122575000Y-61356000D01*
X123090890Y-61356000D01*
X123212933Y-61340582D01*
X123212938Y-61340581D01*
X123365622Y-61280129D01*
X123365633Y-61280123D01*
X123498490Y-61183596D01*
X123603172Y-61057059D01*
X123603175Y-61057053D01*
X123673101Y-60908453D01*
X123697414Y-60781000D01*
X123340568Y-60781000D01*
X123353895Y-60734160D01*
X123344336Y-60631000D01*
X123696566Y-60631000D01*
X123693561Y-60583237D01*
X123693560Y-60583231D01*
X123642814Y-60427049D01*
X123642810Y-60427041D01*
X123554817Y-60288385D01*
X123554812Y-60288379D01*
X123435098Y-60175961D01*
X123291183Y-60096842D01*
X123132118Y-60056001D01*
X123132111Y-60056000D01*
X122575000Y-60056000D01*
X122575000Y-60406000D01*
X122425000Y-60406000D01*
X122425000Y-60056000D01*
X122002215Y-60056000D01*
X121954649Y-60038687D01*
X121929339Y-59994850D01*
X121938129Y-59945000D01*
X121949885Y-59929679D01*
X122619288Y-59260275D01*
X122629136Y-59253193D01*
X122628753Y-59252686D01*
X122634221Y-59248555D01*
X122634228Y-59248552D01*
X122666837Y-59212780D01*
X122667995Y-59211569D01*
X122682174Y-59197391D01*
X122684673Y-59193741D01*
X122687848Y-59189732D01*
X122709916Y-59165527D01*
X122714514Y-59153657D01*
X122722465Y-59138571D01*
X122729657Y-59128074D01*
X122737153Y-59096201D01*
X122738669Y-59091305D01*
X122740993Y-59085308D01*
X122750500Y-59060767D01*
X122750500Y-59048040D01*
X122752466Y-59031096D01*
X122754009Y-59024536D01*
X122755379Y-59018713D01*
X122750854Y-58986277D01*
X122750500Y-58981167D01*
X122750500Y-53705130D01*
X122767813Y-53657564D01*
X122772164Y-53652814D01*
X122920579Y-53504399D01*
X122966453Y-53483008D01*
X122982553Y-53483358D01*
X123106070Y-53499620D01*
X123262832Y-53478982D01*
X123408911Y-53418474D01*
X123534352Y-53322220D01*
X123630606Y-53196779D01*
X123691114Y-53050700D01*
X123711752Y-52893938D01*
X123691114Y-52737176D01*
X123630606Y-52591097D01*
X123581524Y-52527132D01*
X123534354Y-52465658D01*
X123534349Y-52465653D01*
X123459485Y-52408208D01*
X123432287Y-52365517D01*
X123438894Y-52315331D01*
X123476214Y-52281133D01*
X123504533Y-52275500D01*
X123839493Y-52275500D01*
X123887059Y-52292813D01*
X123912369Y-52336650D01*
X123912859Y-52359158D01*
X123909201Y-52386955D01*
X123894318Y-52500000D01*
X123914955Y-52656760D01*
X123914955Y-52656761D01*
X123975464Y-52802841D01*
X124071715Y-52928279D01*
X124071720Y-52928284D01*
X124074061Y-52930080D01*
X124197159Y-53024536D01*
X124343238Y-53085044D01*
X124500000Y-53105682D01*
X124656762Y-53085044D01*
X124802841Y-53024536D01*
X124928282Y-52928282D01*
X125024536Y-52802841D01*
X125082133Y-52663790D01*
X125116330Y-52626469D01*
X125166516Y-52619862D01*
X125209208Y-52647060D01*
X125224500Y-52692108D01*
X125224500Y-54355231D01*
X125207187Y-54402797D01*
X125202826Y-54407557D01*
X124329529Y-55280853D01*
X124318319Y-55290053D01*
X124301377Y-55301374D01*
X124301375Y-55301376D01*
X124240484Y-55392505D01*
X124236019Y-55414958D01*
X124234003Y-55425087D01*
X124207741Y-55468360D01*
X124198432Y-55474729D01*
X124197156Y-55475465D01*
X124071720Y-55571715D01*
X124071715Y-55571720D01*
X123975464Y-55697158D01*
X123914955Y-55843238D01*
X123914955Y-55843239D01*
X123894318Y-56000000D01*
X123914955Y-56156760D01*
X123914955Y-56156761D01*
X123975464Y-56302841D01*
X124071715Y-56428279D01*
X124071720Y-56428284D01*
X124133207Y-56475464D01*
X124197159Y-56524536D01*
X124343238Y-56585044D01*
X124500000Y-56605682D01*
X124615841Y-56590431D01*
X124665260Y-56601387D01*
X124696075Y-56641546D01*
X124699500Y-56663798D01*
X124699500Y-60762629D01*
X124697547Y-60774606D01*
X124698174Y-60774694D01*
X124697226Y-60781482D01*
X124698156Y-60801577D01*
X124699461Y-60829819D01*
X124699500Y-60831504D01*
X124699500Y-60851567D01*
X124700311Y-60855903D01*
X124700902Y-60860994D01*
X124701651Y-60877176D01*
X124702415Y-60893711D01*
X124707554Y-60905349D01*
X124712600Y-60921640D01*
X124714938Y-60934149D01*
X124714939Y-60934150D01*
X124732175Y-60961991D01*
X124734566Y-60966526D01*
X124747794Y-60996482D01*
X124747795Y-60996483D01*
X124756793Y-61005481D01*
X124767380Y-61018847D01*
X124774081Y-61029669D01*
X124774082Y-61029670D01*
X124800212Y-61049403D01*
X124804082Y-61052770D01*
X125391002Y-61639690D01*
X125412394Y-61685566D01*
X125399293Y-61734461D01*
X125357829Y-61763495D01*
X125314235Y-61761863D01*
X125179263Y-61714634D01*
X125179256Y-61714632D01*
X125179255Y-61714632D01*
X125000000Y-61694435D01*
X124820745Y-61714632D01*
X124820736Y-61714634D01*
X124650479Y-61774209D01*
X124497735Y-61870186D01*
X124487360Y-61880560D01*
X124444698Y-61901597D01*
X124343238Y-61914955D01*
X124197158Y-61975464D01*
X124071720Y-62071715D01*
X124071715Y-62071720D01*
X123975464Y-62197158D01*
X123914955Y-62343238D01*
X123914955Y-62343239D01*
X123894318Y-62500000D01*
X123914955Y-62656760D01*
X123914955Y-62656761D01*
X123975464Y-62802841D01*
X124071715Y-62928279D01*
X124071720Y-62928284D01*
X124103084Y-62952350D01*
X124197159Y-63024536D01*
X124343238Y-63085044D01*
X124444697Y-63098401D01*
X124487362Y-63119440D01*
X124497738Y-63129816D01*
X124650479Y-63225790D01*
X124790506Y-63274787D01*
X124820745Y-63285368D01*
X125000000Y-63305565D01*
X125179255Y-63285368D01*
X125281183Y-63249702D01*
X125349520Y-63225790D01*
X125356580Y-63221354D01*
X125502262Y-63129816D01*
X125629816Y-63002262D01*
X125725789Y-62849522D01*
X125742124Y-62802841D01*
X125761731Y-62746806D01*
X125785368Y-62679255D01*
X125805565Y-62500000D01*
X125785368Y-62320745D01*
X125738136Y-62185763D01*
X125738767Y-62135149D01*
X125771785Y-62096781D01*
X125821740Y-62088613D01*
X125860309Y-62108997D01*
X126177826Y-62426514D01*
X126199218Y-62472390D01*
X126199500Y-62478840D01*
X126199500Y-66844875D01*
X126182187Y-66892441D01*
X126177826Y-66897201D01*
X123815301Y-69259725D01*
X123769425Y-69281117D01*
X123720530Y-69268016D01*
X123692597Y-69230266D01*
X123642814Y-69077050D01*
X123642810Y-69077041D01*
X123554817Y-68938385D01*
X123554812Y-68938379D01*
X123435098Y-68825961D01*
X123291183Y-68746842D01*
X123132118Y-68706001D01*
X123132111Y-68706000D01*
X122575000Y-68706000D01*
X122575000Y-69056000D01*
X122425000Y-69056000D01*
X122425000Y-68706000D01*
X121909110Y-68706000D01*
X121787066Y-68721417D01*
X121787061Y-68721418D01*
X121634377Y-68781870D01*
X121634366Y-68781876D01*
X121501509Y-68878403D01*
X121396827Y-69004940D01*
X121396824Y-69004946D01*
X121326898Y-69153546D01*
X121302585Y-69281000D01*
X121659432Y-69281000D01*
X121646105Y-69327840D01*
X121655664Y-69431000D01*
X121303434Y-69431000D01*
X121306438Y-69478762D01*
X121306439Y-69478768D01*
X121357185Y-69634950D01*
X121357189Y-69634958D01*
X121445182Y-69773614D01*
X121445187Y-69773620D01*
X121564901Y-69886038D01*
X121708816Y-69965157D01*
X121867881Y-70005998D01*
X121867889Y-70006000D01*
X122425000Y-70006000D01*
X122425000Y-69656000D01*
X122575000Y-69656000D01*
X122575000Y-70006000D01*
X122890376Y-70006000D01*
X122937942Y-70023313D01*
X122963252Y-70067150D01*
X122954462Y-70117000D01*
X122942702Y-70132326D01*
X122830708Y-70244319D01*
X122820865Y-70251405D01*
X122821245Y-70251908D01*
X122815773Y-70256040D01*
X122783174Y-70291797D01*
X122781997Y-70293029D01*
X122767822Y-70307206D01*
X122765326Y-70310851D01*
X122762145Y-70314866D01*
X122740085Y-70339065D01*
X122740083Y-70339067D01*
X122735483Y-70350941D01*
X122727536Y-70366017D01*
X122720344Y-70376517D01*
X122712847Y-70408390D01*
X122711330Y-70413288D01*
X122701151Y-70439567D01*
X122699500Y-70443828D01*
X122699500Y-70456553D01*
X122697535Y-70473488D01*
X122694621Y-70485881D01*
X122699145Y-70518316D01*
X122699500Y-70523424D01*
X122699500Y-75437175D01*
X122682187Y-75484741D01*
X122670548Y-75495883D01*
X122571720Y-75571715D01*
X122571715Y-75571720D01*
X122475464Y-75697158D01*
X122414955Y-75843238D01*
X122414955Y-75843239D01*
X122394318Y-76000000D01*
X122414955Y-76156760D01*
X122414955Y-76156761D01*
X122475464Y-76302841D01*
X122571715Y-76428279D01*
X122571720Y-76428284D01*
X122633207Y-76475464D01*
X122697159Y-76524536D01*
X122843238Y-76585044D01*
X123000000Y-76605682D01*
X123156762Y-76585044D01*
X123302841Y-76524536D01*
X123428282Y-76428282D01*
X123490518Y-76347174D01*
X123523300Y-76304452D01*
X123565991Y-76277254D01*
X123582008Y-76275500D01*
X124195804Y-76275500D01*
X124243370Y-76292813D01*
X124265651Y-76325058D01*
X124274211Y-76349522D01*
X124370184Y-76502262D01*
X124497738Y-76629816D01*
X124569245Y-76674747D01*
X124650479Y-76725790D01*
X124820736Y-76785365D01*
X124820745Y-76785368D01*
X125000000Y-76805565D01*
X125179255Y-76785368D01*
X125247481Y-76761494D01*
X125349520Y-76725790D01*
X125349522Y-76725789D01*
X125502262Y-76629816D01*
X125629816Y-76502262D01*
X125725789Y-76349522D01*
X125742124Y-76302841D01*
X125777082Y-76202934D01*
X125785368Y-76179255D01*
X125805565Y-76000000D01*
X125785368Y-75820745D01*
X125770637Y-75778645D01*
X125725790Y-75650479D01*
X125646654Y-75524536D01*
X125629816Y-75497738D01*
X125502262Y-75370184D01*
X125409160Y-75311684D01*
X125349520Y-75274209D01*
X125179263Y-75214634D01*
X125179256Y-75214632D01*
X125179255Y-75214632D01*
X125000000Y-75194435D01*
X124820745Y-75214632D01*
X124820736Y-75214634D01*
X124650479Y-75274209D01*
X124497739Y-75370183D01*
X124370183Y-75497739D01*
X124274211Y-75650477D01*
X124270627Y-75660718D01*
X124265806Y-75674500D01*
X124265652Y-75674940D01*
X124233601Y-75714119D01*
X124195804Y-75724500D01*
X123582008Y-75724500D01*
X123534442Y-75707187D01*
X123523300Y-75695548D01*
X123428284Y-75571720D01*
X123428279Y-75571715D01*
X123329452Y-75495883D01*
X123302254Y-75453192D01*
X123300500Y-75437175D01*
X123300500Y-70655122D01*
X123317813Y-70607556D01*
X123322163Y-70602807D01*
X124643970Y-69281000D01*
X125622585Y-69281000D01*
X125979432Y-69281000D01*
X125966105Y-69327840D01*
X125975664Y-69431000D01*
X125623434Y-69431000D01*
X125626438Y-69478762D01*
X125626439Y-69478768D01*
X125677185Y-69634950D01*
X125677189Y-69634958D01*
X125765182Y-69773614D01*
X125765187Y-69773620D01*
X125884901Y-69886038D01*
X126028816Y-69965157D01*
X126187881Y-70005998D01*
X126187889Y-70006000D01*
X126595000Y-70006000D01*
X126595000Y-69656000D01*
X126745000Y-69656000D01*
X126745000Y-70006000D01*
X127110890Y-70006000D01*
X127232933Y-69990582D01*
X127232938Y-69990581D01*
X127385622Y-69930129D01*
X127385633Y-69930123D01*
X127518490Y-69833596D01*
X127623172Y-69707059D01*
X127623175Y-69707053D01*
X127693101Y-69558453D01*
X127717414Y-69431000D01*
X127360568Y-69431000D01*
X127373895Y-69384160D01*
X127364336Y-69281000D01*
X127716566Y-69281000D01*
X127713561Y-69233237D01*
X127713560Y-69233231D01*
X127662814Y-69077049D01*
X127662810Y-69077041D01*
X127574817Y-68938385D01*
X127574812Y-68938379D01*
X127455098Y-68825961D01*
X127311183Y-68746842D01*
X127152118Y-68706001D01*
X127152111Y-68706000D01*
X126745000Y-68706000D01*
X126745000Y-69056000D01*
X126595000Y-69056000D01*
X126595000Y-68706000D01*
X126229110Y-68706000D01*
X126107066Y-68721417D01*
X126107061Y-68721418D01*
X125954377Y-68781870D01*
X125954366Y-68781876D01*
X125821509Y-68878403D01*
X125716827Y-69004940D01*
X125716824Y-69004946D01*
X125646898Y-69153546D01*
X125622585Y-69281000D01*
X124643970Y-69281000D01*
X126669288Y-67255681D01*
X126679136Y-67248599D01*
X126678753Y-67248092D01*
X126684221Y-67243961D01*
X126684228Y-67243958D01*
X126716837Y-67208186D01*
X126717995Y-67206975D01*
X126732174Y-67192797D01*
X126734673Y-67189147D01*
X126737848Y-67185138D01*
X126759916Y-67160933D01*
X126764515Y-67149058D01*
X126772468Y-67133973D01*
X126779656Y-67123481D01*
X126787152Y-67091609D01*
X126788667Y-67086713D01*
X126800500Y-67056173D01*
X126800500Y-67043446D01*
X126802466Y-67026502D01*
X126805379Y-67014119D01*
X126800854Y-66981684D01*
X126800500Y-66976574D01*
X126800500Y-62384806D01*
X126802454Y-62372832D01*
X126801826Y-62372745D01*
X126802773Y-62365954D01*
X126802084Y-62351050D01*
X126800538Y-62317614D01*
X126800500Y-62315928D01*
X126800500Y-62295874D01*
X126800086Y-62293661D01*
X126799687Y-62291528D01*
X126799096Y-62286444D01*
X126797585Y-62253725D01*
X126792442Y-62242077D01*
X126787398Y-62225786D01*
X126786545Y-62221224D01*
X126785061Y-62213284D01*
X126767826Y-62185448D01*
X126765437Y-62180916D01*
X126752206Y-62150951D01*
X126743206Y-62141951D01*
X126732616Y-62128581D01*
X126725919Y-62117765D01*
X126725918Y-62117764D01*
X126703056Y-62100500D01*
X126699788Y-62098032D01*
X126695924Y-62094669D01*
X126068854Y-61467599D01*
X126047462Y-61421723D01*
X126060563Y-61372828D01*
X126102027Y-61343794D01*
X126139583Y-61343598D01*
X126187881Y-61355999D01*
X126187889Y-61356000D01*
X126595000Y-61356000D01*
X126595000Y-61006000D01*
X126745000Y-61006000D01*
X126745000Y-61356000D01*
X127110890Y-61356000D01*
X127232933Y-61340582D01*
X127232938Y-61340581D01*
X127385622Y-61280129D01*
X127385633Y-61280123D01*
X127518490Y-61183596D01*
X127623172Y-61057059D01*
X127623175Y-61057053D01*
X127693101Y-60908453D01*
X127717414Y-60781000D01*
X127360568Y-60781000D01*
X127373895Y-60734160D01*
X127364336Y-60631000D01*
X127716566Y-60631000D01*
X127713561Y-60583237D01*
X127713560Y-60583231D01*
X127662814Y-60427049D01*
X127662810Y-60427041D01*
X127574817Y-60288385D01*
X127574812Y-60288379D01*
X127455098Y-60175961D01*
X127311183Y-60096842D01*
X127152118Y-60056001D01*
X127152111Y-60056000D01*
X126745000Y-60056000D01*
X126745000Y-60406000D01*
X126595000Y-60406000D01*
X126595000Y-60056000D01*
X126229110Y-60056000D01*
X126107066Y-60071417D01*
X126107061Y-60071418D01*
X125954377Y-60131870D01*
X125954366Y-60131876D01*
X125821509Y-60228403D01*
X125716827Y-60354940D01*
X125716824Y-60354946D01*
X125646898Y-60503546D01*
X125622585Y-60631000D01*
X125979432Y-60631000D01*
X125966105Y-60677840D01*
X125975664Y-60781000D01*
X125623434Y-60781000D01*
X125626438Y-60828762D01*
X125627311Y-60833336D01*
X125625481Y-60833685D01*
X125623954Y-60877176D01*
X125590075Y-60914786D01*
X125539947Y-60921821D01*
X125503022Y-60901767D01*
X125322174Y-60720919D01*
X125300782Y-60675043D01*
X125300500Y-60668593D01*
X125300500Y-57752463D01*
X125317813Y-57704897D01*
X125361650Y-57679587D01*
X125411500Y-57688377D01*
X125442867Y-57724145D01*
X125475463Y-57802840D01*
X125571715Y-57928279D01*
X125571720Y-57928284D01*
X125633207Y-57975464D01*
X125697159Y-58024536D01*
X125843238Y-58085044D01*
X126000000Y-58105682D01*
X126156762Y-58085044D01*
X126302841Y-58024536D01*
X126428282Y-57928282D01*
X126505415Y-57827759D01*
X126548106Y-57800562D01*
X126555834Y-57799273D01*
X126679255Y-57785368D01*
X126753139Y-57759515D01*
X126849520Y-57725790D01*
X126867278Y-57714632D01*
X127002262Y-57629816D01*
X127129816Y-57502262D01*
X127225789Y-57349522D01*
X127232004Y-57331762D01*
X127285365Y-57179263D01*
X127285368Y-57179255D01*
X127305565Y-57000000D01*
X127285368Y-56820745D01*
X127285365Y-56820736D01*
X127225790Y-56650479D01*
X127176299Y-56571715D01*
X127129816Y-56497738D01*
X127002262Y-56370184D01*
X126929359Y-56324376D01*
X126849520Y-56274209D01*
X126679263Y-56214634D01*
X126679256Y-56214632D01*
X126679255Y-56214632D01*
X126500000Y-56194435D01*
X126320745Y-56214632D01*
X126320736Y-56214634D01*
X126150479Y-56274209D01*
X125997739Y-56370183D01*
X125870183Y-56497739D01*
X125774209Y-56650479D01*
X125714634Y-56820736D01*
X125714632Y-56820744D01*
X125700725Y-56944163D01*
X125678194Y-56989492D01*
X125672239Y-56994585D01*
X125571717Y-57071718D01*
X125571715Y-57071720D01*
X125475464Y-57197158D01*
X125442867Y-57275855D01*
X125408669Y-57313175D01*
X125358483Y-57319782D01*
X125315792Y-57292584D01*
X125300500Y-57247536D01*
X125300500Y-56655123D01*
X125317813Y-56607557D01*
X125322174Y-56602797D01*
X127548174Y-54376797D01*
X127594050Y-54355405D01*
X127642945Y-54368506D01*
X127671979Y-54409970D01*
X127674500Y-54429123D01*
X127674500Y-57834521D01*
X127657187Y-57882087D01*
X127652826Y-57886847D01*
X127154249Y-58385423D01*
X127108372Y-58406815D01*
X127092265Y-58406464D01*
X127000000Y-58394318D01*
X126843239Y-58414955D01*
X126843238Y-58414955D01*
X126697158Y-58475464D01*
X126571720Y-58571715D01*
X126571715Y-58571720D01*
X126475464Y-58697158D01*
X126414955Y-58843238D01*
X126414955Y-58843239D01*
X126394318Y-59000000D01*
X126414955Y-59156760D01*
X126414955Y-59156761D01*
X126475464Y-59302841D01*
X126571715Y-59428279D01*
X126571720Y-59428284D01*
X126655345Y-59492451D01*
X126697159Y-59524536D01*
X126843238Y-59585044D01*
X127000000Y-59605682D01*
X127156762Y-59585044D01*
X127302841Y-59524536D01*
X127428282Y-59428282D01*
X127524536Y-59302841D01*
X127585044Y-59156762D01*
X127605682Y-59000000D01*
X127593534Y-58907733D01*
X127604490Y-58858315D01*
X127614570Y-58845754D01*
X128150140Y-58310184D01*
X128196015Y-58288793D01*
X128244910Y-58301894D01*
X128273944Y-58343358D01*
X128276465Y-58362477D01*
X128289113Y-86074922D01*
X128271822Y-86122496D01*
X128266949Y-86127768D01*
X127642173Y-86741000D01*
X127276052Y-87100356D01*
X127275587Y-87100812D01*
X127229513Y-87121775D01*
X127223751Y-87122000D01*
X104933100Y-87122000D01*
X104885534Y-87104687D01*
X104880238Y-87099785D01*
X104131611Y-86335590D01*
X103378000Y-85566306D01*
X103377999Y-85566306D01*
X91439999Y-85598000D01*
X89937499Y-87062340D01*
X89891351Y-87083140D01*
X89885977Y-87083345D01*
X87572334Y-87087304D01*
X87524738Y-87070073D01*
X87499353Y-87026279D01*
X87502359Y-86988867D01*
X87526368Y-86920255D01*
X87546565Y-86741000D01*
X87526368Y-86561745D01*
X87526365Y-86561736D01*
X87466790Y-86391479D01*
X87420498Y-86317806D01*
X87370816Y-86238738D01*
X87243262Y-86111184D01*
X87204054Y-86086547D01*
X87090520Y-86015209D01*
X86920263Y-85955634D01*
X86920256Y-85955632D01*
X86920255Y-85955632D01*
X86741000Y-85935435D01*
X86561745Y-85955632D01*
X86561736Y-85955634D01*
X86391479Y-86015209D01*
X86238739Y-86111183D01*
X86111183Y-86238739D01*
X86015209Y-86391479D01*
X85955634Y-86561736D01*
X85955632Y-86561745D01*
X85935435Y-86741000D01*
X85955632Y-86920254D01*
X85955633Y-86920258D01*
X85980634Y-86991708D01*
X85980002Y-87042323D01*
X85946984Y-87080691D01*
X85910913Y-87090148D01*
X81599758Y-87097525D01*
X81552162Y-87080294D01*
X81526777Y-87036500D01*
X81529783Y-86999086D01*
X81557368Y-86920255D01*
X81577565Y-86741000D01*
X81557368Y-86561745D01*
X81557365Y-86561736D01*
X81497790Y-86391479D01*
X81451498Y-86317806D01*
X81401816Y-86238738D01*
X81274262Y-86111184D01*
X81235054Y-86086547D01*
X81121520Y-86015209D01*
X80951263Y-85955634D01*
X80951256Y-85955632D01*
X80951255Y-85955632D01*
X80772000Y-85935435D01*
X80592745Y-85955632D01*
X80592736Y-85955634D01*
X80422479Y-86015209D01*
X80269739Y-86111183D01*
X80142183Y-86238739D01*
X80046209Y-86391479D01*
X79986634Y-86561736D01*
X79986632Y-86561745D01*
X79966435Y-86741000D01*
X79986632Y-86920254D01*
X79986633Y-86920258D01*
X80015206Y-87001916D01*
X80014574Y-87052531D01*
X79981556Y-87090898D01*
X79945485Y-87100356D01*
X67330715Y-87121946D01*
X67283119Y-87104715D01*
X67277907Y-87099914D01*
X66569319Y-86381611D01*
X66548239Y-86335590D01*
X66548000Y-86329643D01*
X66548000Y-83312007D01*
X69065210Y-83312007D01*
X69084346Y-83591785D01*
X69084349Y-83591805D01*
X69141404Y-83866367D01*
X69141409Y-83866385D01*
X69235319Y-84130623D01*
X69235321Y-84130628D01*
X69364347Y-84379635D01*
X69364352Y-84379642D01*
X69526071Y-84608747D01*
X69618364Y-84707568D01*
X70255376Y-84070555D01*
X70341931Y-84165501D01*
X70359383Y-84178680D01*
X69721276Y-84816788D01*
X69935043Y-84990701D01*
X69935051Y-84990707D01*
X70174654Y-85136413D01*
X70174669Y-85136421D01*
X70431891Y-85248147D01*
X70701942Y-85323812D01*
X70979771Y-85361999D01*
X70979783Y-85362000D01*
X71260217Y-85362000D01*
X71260228Y-85361999D01*
X71538057Y-85323812D01*
X71808108Y-85248147D01*
X72065330Y-85136421D01*
X72065345Y-85136413D01*
X72304948Y-84990707D01*
X72304965Y-84990695D01*
X72518722Y-84816789D01*
X72518723Y-84816789D01*
X71880615Y-84178681D01*
X71898069Y-84165501D01*
X71984622Y-84070556D01*
X72621635Y-84707569D01*
X72621635Y-84707568D01*
X72713922Y-84608755D01*
X72875647Y-84379642D01*
X72875652Y-84379635D01*
X73004678Y-84130628D01*
X73004680Y-84130623D01*
X73098590Y-83866385D01*
X73098595Y-83866367D01*
X73155650Y-83591805D01*
X73155653Y-83591785D01*
X73174790Y-83312007D01*
X73174790Y-83311992D01*
X73155653Y-83032214D01*
X73155650Y-83032194D01*
X73098595Y-82757632D01*
X73098590Y-82757614D01*
X73004680Y-82493376D01*
X73004678Y-82493371D01*
X72875652Y-82244364D01*
X72875647Y-82244357D01*
X72713925Y-82015248D01*
X72621634Y-81916430D01*
X71984621Y-82553442D01*
X71898069Y-82458499D01*
X71880614Y-82445317D01*
X72518722Y-81807210D01*
X72304956Y-81633298D01*
X72304948Y-81633292D01*
X72065345Y-81487586D01*
X72065330Y-81487578D01*
X71808108Y-81375852D01*
X71538057Y-81300187D01*
X71260228Y-81262000D01*
X70979771Y-81262000D01*
X70701942Y-81300187D01*
X70431891Y-81375852D01*
X70174669Y-81487578D01*
X70174654Y-81487586D01*
X69935051Y-81633292D01*
X69935035Y-81633303D01*
X69721275Y-81807209D01*
X70359384Y-82445318D01*
X70341931Y-82458499D01*
X70255377Y-82553443D01*
X69618364Y-81916430D01*
X69526074Y-82015249D01*
X69364352Y-82244357D01*
X69364347Y-82244364D01*
X69235321Y-82493371D01*
X69235319Y-82493376D01*
X69141409Y-82757614D01*
X69141404Y-82757632D01*
X69084349Y-83032194D01*
X69084346Y-83032214D01*
X69065210Y-83311992D01*
X69065210Y-83312007D01*
X66548000Y-83312007D01*
X66548000Y-79336000D01*
X66963254Y-79336000D01*
X66982156Y-79479577D01*
X66982157Y-79479581D01*
X67037575Y-79613372D01*
X67079683Y-79668248D01*
X67295274Y-79452656D01*
X67337760Y-79516240D01*
X67401341Y-79558723D01*
X67185750Y-79774314D01*
X67185750Y-79774315D01*
X67240627Y-79816424D01*
X67374418Y-79871842D01*
X67374422Y-79871843D01*
X67518000Y-79890745D01*
X67661577Y-79871843D01*
X67661581Y-79871842D01*
X67795366Y-79816427D01*
X67795371Y-79816424D01*
X67850248Y-79774314D01*
X67634658Y-79558724D01*
X67698240Y-79516240D01*
X67740724Y-79452658D01*
X67956314Y-79668248D01*
X67998424Y-79613371D01*
X67998427Y-79613366D01*
X68053842Y-79479581D01*
X68053843Y-79479577D01*
X68072745Y-79336000D01*
X68053843Y-79192422D01*
X68053842Y-79192418D01*
X67998424Y-79058627D01*
X67956315Y-79003750D01*
X67956314Y-79003750D01*
X67740723Y-79219341D01*
X67698240Y-79155760D01*
X67634656Y-79113274D01*
X67850248Y-78897683D01*
X67795372Y-78855575D01*
X67661581Y-78800157D01*
X67661577Y-78800156D01*
X67518000Y-78781254D01*
X67374422Y-78800156D01*
X67374421Y-78800156D01*
X67240625Y-78855576D01*
X67240624Y-78855577D01*
X67185750Y-78897683D01*
X67185750Y-78897684D01*
X67401341Y-79113275D01*
X67337760Y-79155760D01*
X67295275Y-79219341D01*
X67079684Y-79003750D01*
X67079683Y-79003750D01*
X67037577Y-79058624D01*
X67037576Y-79058625D01*
X66982156Y-79192421D01*
X66982156Y-79192422D01*
X66963254Y-79336000D01*
X66548000Y-79336000D01*
X66548000Y-77636000D01*
X66963254Y-77636000D01*
X66982156Y-77779577D01*
X66982157Y-77779581D01*
X67037575Y-77913372D01*
X67079683Y-77968248D01*
X67295274Y-77752656D01*
X67337760Y-77816240D01*
X67401341Y-77858723D01*
X67185750Y-78074314D01*
X67185750Y-78074315D01*
X67240627Y-78116424D01*
X67374418Y-78171842D01*
X67374422Y-78171843D01*
X67518000Y-78190745D01*
X67661577Y-78171843D01*
X67661581Y-78171842D01*
X67795366Y-78116427D01*
X67795371Y-78116424D01*
X67850248Y-78074314D01*
X67634658Y-77858724D01*
X67698240Y-77816240D01*
X67740724Y-77752658D01*
X67956314Y-77968248D01*
X67998424Y-77913371D01*
X67998427Y-77913366D01*
X68053842Y-77779581D01*
X68053843Y-77779577D01*
X68072745Y-77636000D01*
X68053843Y-77492422D01*
X68053842Y-77492418D01*
X67998424Y-77358627D01*
X67956315Y-77303750D01*
X67956314Y-77303750D01*
X67740723Y-77519341D01*
X67698240Y-77455760D01*
X67634656Y-77413274D01*
X67850248Y-77197683D01*
X67795372Y-77155575D01*
X67661581Y-77100157D01*
X67661577Y-77100156D01*
X67518000Y-77081254D01*
X67374422Y-77100156D01*
X67374421Y-77100156D01*
X67240625Y-77155576D01*
X67240624Y-77155577D01*
X67185750Y-77197683D01*
X67185750Y-77197684D01*
X67401341Y-77413275D01*
X67337760Y-77455760D01*
X67295275Y-77519341D01*
X67079684Y-77303750D01*
X67079683Y-77303750D01*
X67037577Y-77358624D01*
X67037576Y-77358625D01*
X66982156Y-77492421D01*
X66982156Y-77492422D01*
X66963254Y-77636000D01*
X66548000Y-77636000D01*
X66548000Y-75000000D01*
X79894318Y-75000000D01*
X79914955Y-75156760D01*
X79914955Y-75156761D01*
X79975464Y-75302841D01*
X80071715Y-75428279D01*
X80071720Y-75428284D01*
X80104181Y-75453192D01*
X80197159Y-75524536D01*
X80343238Y-75585044D01*
X80500000Y-75605682D01*
X80592264Y-75593534D01*
X80641682Y-75604490D01*
X80654248Y-75614574D01*
X83498097Y-78458424D01*
X86258652Y-81218979D01*
X86260824Y-81221349D01*
X86287545Y-81253194D01*
X86302798Y-81262000D01*
X86323548Y-81273980D01*
X86326267Y-81275713D01*
X86333855Y-81281026D01*
X86360314Y-81299553D01*
X86360315Y-81299553D01*
X86360316Y-81299554D01*
X86364945Y-81300794D01*
X86382800Y-81308189D01*
X86386955Y-81310588D01*
X86427915Y-81317809D01*
X86431028Y-81318500D01*
X86471193Y-81329263D01*
X86512598Y-81325640D01*
X86515817Y-81325500D01*
X103834522Y-81325500D01*
X103882088Y-81342813D01*
X103886848Y-81347174D01*
X108758647Y-86218973D01*
X108760819Y-86221343D01*
X108787545Y-86253194D01*
X108823546Y-86273979D01*
X108826270Y-86275715D01*
X108860314Y-86299553D01*
X108860316Y-86299554D01*
X108864949Y-86300795D01*
X108882795Y-86308186D01*
X108886955Y-86310588D01*
X108886958Y-86310588D01*
X108886959Y-86310589D01*
X108886958Y-86310589D01*
X108927888Y-86317806D01*
X108931038Y-86318504D01*
X108971193Y-86329264D01*
X108971193Y-86329263D01*
X108971194Y-86329264D01*
X108979040Y-86328577D01*
X109012610Y-86325640D01*
X109015829Y-86325500D01*
X118484174Y-86325500D01*
X118487394Y-86325640D01*
X118513546Y-86327928D01*
X118528805Y-86329264D01*
X118528805Y-86329263D01*
X118528807Y-86329264D01*
X118568967Y-86318502D01*
X118572100Y-86317807D01*
X118613045Y-86310588D01*
X118617194Y-86308191D01*
X118635055Y-86300794D01*
X118635059Y-86300793D01*
X118639684Y-86299554D01*
X118673733Y-86275712D01*
X118676450Y-86273980D01*
X118712455Y-86253194D01*
X118739187Y-86221334D01*
X118741352Y-86218973D01*
X123113152Y-81847174D01*
X123159028Y-81825782D01*
X123165478Y-81825500D01*
X125956358Y-81825500D01*
X126003924Y-81842813D01*
X126015066Y-81854452D01*
X126071715Y-81928279D01*
X126071720Y-81928284D01*
X126155345Y-81992451D01*
X126197159Y-82024536D01*
X126343238Y-82085044D01*
X126500000Y-82105682D01*
X126656762Y-82085044D01*
X126802841Y-82024536D01*
X126928282Y-81928282D01*
X127024536Y-81802841D01*
X127085044Y-81656762D01*
X127105682Y-81500000D01*
X127085044Y-81343238D01*
X127024536Y-81197159D01*
X126928282Y-81071718D01*
X126928279Y-81071715D01*
X126802841Y-80975464D01*
X126656761Y-80914955D01*
X126500000Y-80894318D01*
X126343239Y-80914955D01*
X126343238Y-80914955D01*
X126197158Y-80975464D01*
X126071720Y-81071715D01*
X126071715Y-81071720D01*
X126015066Y-81145548D01*
X125972375Y-81172746D01*
X125956358Y-81174500D01*
X123015826Y-81174500D01*
X123012605Y-81174359D01*
X123003650Y-81173575D01*
X122971194Y-81170735D01*
X122971192Y-81170735D01*
X122931033Y-81181495D01*
X122927884Y-81182193D01*
X122886952Y-81189412D01*
X122886951Y-81189412D01*
X122882790Y-81191815D01*
X122864959Y-81199201D01*
X122860317Y-81200445D01*
X122860312Y-81200447D01*
X122826268Y-81224285D01*
X122823547Y-81226019D01*
X122787547Y-81246804D01*
X122787543Y-81246808D01*
X122760827Y-81278645D01*
X122758646Y-81281026D01*
X118386848Y-85652826D01*
X118340972Y-85674218D01*
X118334522Y-85674500D01*
X109165478Y-85674500D01*
X109117912Y-85657187D01*
X109113152Y-85652826D01*
X104241357Y-80781031D01*
X104239176Y-80778651D01*
X104236363Y-80775299D01*
X104212455Y-80746806D01*
X104195088Y-80736778D01*
X104176458Y-80726022D01*
X104173736Y-80724288D01*
X104139685Y-80700446D01*
X104139682Y-80700445D01*
X104135047Y-80699203D01*
X104117200Y-80691811D01*
X104113044Y-80689411D01*
X104072114Y-80682193D01*
X104068964Y-80681495D01*
X104028806Y-80670735D01*
X104028805Y-80670735D01*
X103995818Y-80673622D01*
X103987394Y-80674359D01*
X103984174Y-80674500D01*
X86665479Y-80674500D01*
X86617913Y-80657187D01*
X86613153Y-80652826D01*
X84827327Y-78867000D01*
X94571435Y-78867000D01*
X94591632Y-79046254D01*
X94591634Y-79046263D01*
X94651209Y-79216520D01*
X94722547Y-79330054D01*
X94747184Y-79369262D01*
X94874738Y-79496816D01*
X94934586Y-79534421D01*
X95027479Y-79592790D01*
X95196330Y-79651873D01*
X95197745Y-79652368D01*
X95377000Y-79672565D01*
X95556255Y-79652368D01*
X95624481Y-79628494D01*
X95726520Y-79592790D01*
X95727243Y-79592336D01*
X95879262Y-79496816D01*
X96006816Y-79369262D01*
X96102789Y-79216522D01*
X96102866Y-79216304D01*
X96158039Y-79058627D01*
X96162368Y-79046255D01*
X96182565Y-78867000D01*
X96857435Y-78867000D01*
X96877632Y-79046254D01*
X96877634Y-79046263D01*
X96937209Y-79216520D01*
X97008547Y-79330054D01*
X97033184Y-79369262D01*
X97160738Y-79496816D01*
X97220586Y-79534421D01*
X97313479Y-79592790D01*
X97482330Y-79651873D01*
X97483745Y-79652368D01*
X97663000Y-79672565D01*
X97842255Y-79652368D01*
X97910481Y-79628494D01*
X98012520Y-79592790D01*
X98013243Y-79592336D01*
X98165262Y-79496816D01*
X98176361Y-79485717D01*
X99436347Y-79485717D01*
X99447054Y-79496424D01*
X99599697Y-79592336D01*
X99769845Y-79651873D01*
X99769856Y-79651876D01*
X99949000Y-79672061D01*
X100128143Y-79651876D01*
X100128154Y-79651873D01*
X100298302Y-79592336D01*
X100298304Y-79592336D01*
X100450946Y-79496424D01*
X100450947Y-79496423D01*
X100461651Y-79485717D01*
X99949000Y-78973066D01*
X99436347Y-79485717D01*
X98176361Y-79485717D01*
X98292816Y-79369262D01*
X98388789Y-79216522D01*
X98388866Y-79216304D01*
X98444039Y-79058627D01*
X98448368Y-79046255D01*
X98468565Y-78867000D01*
X99143938Y-78867000D01*
X99164123Y-79046143D01*
X99164126Y-79046154D01*
X99223663Y-79216302D01*
X99319575Y-79368945D01*
X99330281Y-79379651D01*
X99842932Y-78867000D01*
X100055066Y-78867000D01*
X100567717Y-79379651D01*
X100578423Y-79368947D01*
X100578424Y-79368946D01*
X100674336Y-79216304D01*
X100674336Y-79216302D01*
X100733873Y-79046154D01*
X100733876Y-79046143D01*
X100754061Y-78867000D01*
X100733876Y-78687856D01*
X100733873Y-78687845D01*
X100674336Y-78517697D01*
X100578424Y-78365054D01*
X100567717Y-78354347D01*
X100055066Y-78866999D01*
X100055066Y-78867000D01*
X99842932Y-78867000D01*
X99842933Y-78866999D01*
X99330281Y-78354347D01*
X99319576Y-78365053D01*
X99223663Y-78517695D01*
X99223663Y-78517697D01*
X99164126Y-78687845D01*
X99164123Y-78687856D01*
X99143938Y-78867000D01*
X98468565Y-78867000D01*
X98448368Y-78687745D01*
X98448365Y-78687736D01*
X98388790Y-78517479D01*
X98325223Y-78416314D01*
X98292816Y-78364738D01*
X98176359Y-78248281D01*
X99436347Y-78248281D01*
X99948999Y-78760933D01*
X100461652Y-78248281D01*
X100450945Y-78237575D01*
X100298302Y-78141663D01*
X100128154Y-78082126D01*
X100128143Y-78082123D01*
X99949000Y-78061938D01*
X99769856Y-78082123D01*
X99769845Y-78082126D01*
X99599697Y-78141663D01*
X99599695Y-78141663D01*
X99447053Y-78237576D01*
X99436347Y-78248281D01*
X98176359Y-78248281D01*
X98165262Y-78237184D01*
X98091355Y-78190745D01*
X98012520Y-78141209D01*
X97842263Y-78081634D01*
X97842256Y-78081632D01*
X97842255Y-78081632D01*
X97663000Y-78061435D01*
X97483745Y-78081632D01*
X97483736Y-78081634D01*
X97313479Y-78141209D01*
X97160739Y-78237183D01*
X97033183Y-78364739D01*
X96937209Y-78517479D01*
X96877634Y-78687736D01*
X96877632Y-78687745D01*
X96857435Y-78867000D01*
X96182565Y-78867000D01*
X96162368Y-78687745D01*
X96162365Y-78687736D01*
X96102790Y-78517479D01*
X96039223Y-78416314D01*
X96006816Y-78364738D01*
X95879262Y-78237184D01*
X95805355Y-78190745D01*
X95726520Y-78141209D01*
X95556263Y-78081634D01*
X95556256Y-78081632D01*
X95556255Y-78081632D01*
X95377000Y-78061435D01*
X95197745Y-78081632D01*
X95197736Y-78081634D01*
X95027479Y-78141209D01*
X94874739Y-78237183D01*
X94747183Y-78364739D01*
X94651209Y-78517479D01*
X94591634Y-78687736D01*
X94591632Y-78687745D01*
X94571435Y-78867000D01*
X84827327Y-78867000D01*
X82960326Y-77000000D01*
X85394318Y-77000000D01*
X85414955Y-77156760D01*
X85414955Y-77156761D01*
X85475464Y-77302841D01*
X85571715Y-77428279D01*
X85571720Y-77428284D01*
X85618608Y-77464262D01*
X85697159Y-77524536D01*
X85843238Y-77585044D01*
X85944697Y-77598401D01*
X85987362Y-77619440D01*
X85997738Y-77629816D01*
X86150479Y-77725790D01*
X86320736Y-77785365D01*
X86320745Y-77785368D01*
X86500000Y-77805565D01*
X86679255Y-77785368D01*
X86787856Y-77747367D01*
X86849520Y-77725790D01*
X86849522Y-77725789D01*
X87002262Y-77629816D01*
X87129816Y-77502262D01*
X87225789Y-77349522D01*
X87239087Y-77311520D01*
X87285365Y-77179263D01*
X87285368Y-77179255D01*
X87305565Y-77000000D01*
X87286974Y-76835000D01*
X93428435Y-76835000D01*
X93448632Y-77014254D01*
X93448634Y-77014263D01*
X93508209Y-77184520D01*
X93516481Y-77197684D01*
X93604184Y-77337262D01*
X93731738Y-77464816D01*
X93783877Y-77497577D01*
X93884479Y-77560790D01*
X94054736Y-77620365D01*
X94054745Y-77620368D01*
X94234000Y-77640565D01*
X94413255Y-77620368D01*
X94514205Y-77585044D01*
X94583520Y-77560790D01*
X94617110Y-77539684D01*
X94736262Y-77464816D01*
X94863816Y-77337262D01*
X94959789Y-77184522D01*
X94961633Y-77179254D01*
X95019365Y-77014263D01*
X95019368Y-77014255D01*
X95025256Y-76962000D01*
X95714435Y-76962000D01*
X95734632Y-77141254D01*
X95734634Y-77141263D01*
X95794209Y-77311520D01*
X95850123Y-77400505D01*
X95890184Y-77464262D01*
X96017738Y-77591816D01*
X96095320Y-77640564D01*
X96170479Y-77687790D01*
X96326847Y-77742505D01*
X96340745Y-77747368D01*
X96520000Y-77767565D01*
X96699255Y-77747368D01*
X96767481Y-77723494D01*
X96869520Y-77687790D01*
X96869522Y-77687789D01*
X97022262Y-77591816D01*
X97149816Y-77464262D01*
X97245789Y-77311522D01*
X97305368Y-77141255D01*
X97325565Y-76962000D01*
X97305368Y-76782745D01*
X97285439Y-76725790D01*
X97245790Y-76612479D01*
X97190531Y-76524536D01*
X97149816Y-76459738D01*
X97022262Y-76332184D01*
X96975563Y-76302841D01*
X96869520Y-76236209D01*
X96699263Y-76176634D01*
X96699256Y-76176632D01*
X96699255Y-76176632D01*
X96520000Y-76156435D01*
X96340745Y-76176632D01*
X96340736Y-76176634D01*
X96170479Y-76236209D01*
X96017739Y-76332183D01*
X95890183Y-76459739D01*
X95794209Y-76612479D01*
X95734634Y-76782736D01*
X95734632Y-76782745D01*
X95714435Y-76962000D01*
X95025256Y-76962000D01*
X95039565Y-76835000D01*
X95019368Y-76655745D01*
X94963860Y-76497114D01*
X94960340Y-76482331D01*
X94946044Y-76373738D01*
X94946043Y-76373734D01*
X94944573Y-76370186D01*
X94885536Y-76227657D01*
X94868290Y-76205181D01*
X94789284Y-76102218D01*
X94789279Y-76102213D01*
X94663841Y-76005962D01*
X94517761Y-75945453D01*
X94361000Y-75924816D01*
X94204239Y-75945453D01*
X94204238Y-75945453D01*
X94058159Y-76005961D01*
X93965810Y-76076823D01*
X93945203Y-76087961D01*
X93884482Y-76109208D01*
X93731741Y-76205181D01*
X93604183Y-76332739D01*
X93508209Y-76485479D01*
X93448634Y-76655736D01*
X93448632Y-76655745D01*
X93428435Y-76835000D01*
X87286974Y-76835000D01*
X87285368Y-76820745D01*
X87272068Y-76782737D01*
X87244606Y-76704254D01*
X87245237Y-76653639D01*
X87262125Y-76627489D01*
X91592442Y-72297174D01*
X91638318Y-72275782D01*
X91644768Y-72275500D01*
X95807891Y-72275500D01*
X95855457Y-72292813D01*
X95880767Y-72336650D01*
X95871977Y-72386500D01*
X95836210Y-72417867D01*
X95697158Y-72475464D01*
X95571720Y-72571715D01*
X95571715Y-72571720D01*
X95475464Y-72697158D01*
X95414955Y-72843238D01*
X95414955Y-72843239D01*
X95394318Y-73000000D01*
X95414955Y-73156760D01*
X95414955Y-73156761D01*
X95475464Y-73302841D01*
X95571715Y-73428279D01*
X95571720Y-73428284D01*
X95655345Y-73492451D01*
X95697159Y-73524536D01*
X95843238Y-73585044D01*
X96000000Y-73605682D01*
X96156762Y-73585044D01*
X96302841Y-73524536D01*
X96428282Y-73428282D01*
X96524536Y-73302841D01*
X96585044Y-73156762D01*
X96605682Y-73000000D01*
X96585308Y-72845247D01*
X96596264Y-72795831D01*
X96606344Y-72783270D01*
X97592442Y-71797174D01*
X97638319Y-71775782D01*
X97644768Y-71775500D01*
X97917992Y-71775500D01*
X97965558Y-71792813D01*
X97976700Y-71804452D01*
X98071715Y-71928279D01*
X98071720Y-71928284D01*
X98133207Y-71975464D01*
X98197159Y-72024536D01*
X98343238Y-72085044D01*
X98500000Y-72105682D01*
X98656762Y-72085044D01*
X98802841Y-72024536D01*
X98928282Y-71928282D01*
X99024536Y-71802841D01*
X99085044Y-71656762D01*
X99105682Y-71500000D01*
X99085044Y-71343238D01*
X99024536Y-71197159D01*
X98972861Y-71129814D01*
X98928284Y-71071720D01*
X98928279Y-71071715D01*
X98802841Y-70975464D01*
X98656761Y-70914955D01*
X98500000Y-70894318D01*
X98343239Y-70914955D01*
X98343238Y-70914955D01*
X98197158Y-70975464D01*
X98071720Y-71071715D01*
X98071715Y-71071720D01*
X97976700Y-71195548D01*
X97934009Y-71222746D01*
X97917992Y-71224500D01*
X97534420Y-71224500D01*
X97519983Y-71223078D01*
X97500000Y-71219103D01*
X97392504Y-71240485D01*
X97326305Y-71284718D01*
X97301376Y-71301375D01*
X97301374Y-71301377D01*
X97290053Y-71318319D01*
X97280853Y-71329529D01*
X96216733Y-72393649D01*
X96170857Y-72415041D01*
X96154748Y-72414690D01*
X96101264Y-72407649D01*
X96056365Y-72384276D01*
X96036993Y-72337510D01*
X96052215Y-72289234D01*
X96094906Y-72262036D01*
X96096381Y-72261725D01*
X96107495Y-72259515D01*
X96159898Y-72224500D01*
X96175622Y-72213994D01*
X96175622Y-72213993D01*
X96183636Y-72208639D01*
X96183638Y-72208636D01*
X96198624Y-72198624D01*
X96209944Y-72181681D01*
X96219141Y-72170474D01*
X98283266Y-70106348D01*
X98329141Y-70084957D01*
X98345241Y-70085307D01*
X98500000Y-70105682D01*
X98656762Y-70085044D01*
X98802841Y-70024536D01*
X98928282Y-69928282D01*
X99024536Y-69802841D01*
X99085044Y-69656762D01*
X99105682Y-69500000D01*
X99085044Y-69343238D01*
X99024536Y-69197159D01*
X98947310Y-69096516D01*
X98928284Y-69071720D01*
X98928279Y-69071715D01*
X98802841Y-68975464D01*
X98656761Y-68914955D01*
X98500000Y-68894318D01*
X98343239Y-68914955D01*
X98343238Y-68914955D01*
X98197158Y-68975464D01*
X98071720Y-69071715D01*
X98071715Y-69071720D01*
X97975464Y-69197158D01*
X97914955Y-69343238D01*
X97914955Y-69343239D01*
X97894318Y-69500000D01*
X97914690Y-69654749D01*
X97903734Y-69704168D01*
X97893649Y-69716733D01*
X95907558Y-71702826D01*
X95861682Y-71724218D01*
X95855232Y-71724500D01*
X91534420Y-71724500D01*
X91519984Y-71723078D01*
X91500000Y-71719103D01*
X91499999Y-71719103D01*
X91472868Y-71724500D01*
X91472867Y-71724500D01*
X91392505Y-71740485D01*
X91364025Y-71759515D01*
X91326309Y-71784714D01*
X91326305Y-71784718D01*
X91301376Y-71801375D01*
X91301374Y-71801377D01*
X91290053Y-71818319D01*
X91280853Y-71829529D01*
X86872511Y-76237871D01*
X86826635Y-76259263D01*
X86795745Y-76255393D01*
X86679258Y-76214633D01*
X86679257Y-76214632D01*
X86679255Y-76214632D01*
X86500000Y-76194435D01*
X86320745Y-76214632D01*
X86320736Y-76214634D01*
X86150479Y-76274209D01*
X85997735Y-76370186D01*
X85987360Y-76380560D01*
X85944698Y-76401597D01*
X85843238Y-76414955D01*
X85697158Y-76475464D01*
X85571720Y-76571715D01*
X85571715Y-76571720D01*
X85475464Y-76697158D01*
X85414955Y-76843238D01*
X85414955Y-76843239D01*
X85394318Y-77000000D01*
X82960326Y-77000000D01*
X81114575Y-75154249D01*
X81093183Y-75108373D01*
X81093533Y-75092269D01*
X81105682Y-75000000D01*
X81085044Y-74843238D01*
X81024536Y-74697159D01*
X80992069Y-74654847D01*
X80928284Y-74571720D01*
X80928279Y-74571715D01*
X80802841Y-74475464D01*
X80656761Y-74414955D01*
X80500000Y-74394318D01*
X80343239Y-74414955D01*
X80343238Y-74414955D01*
X80197158Y-74475464D01*
X80071720Y-74571715D01*
X80071715Y-74571720D01*
X79975464Y-74697158D01*
X79914955Y-74843238D01*
X79914955Y-74843239D01*
X79894318Y-75000000D01*
X66548000Y-75000000D01*
X66548000Y-70500000D01*
X70394318Y-70500000D01*
X70414955Y-70656760D01*
X70414955Y-70656761D01*
X70475464Y-70802841D01*
X70571715Y-70928279D01*
X70571720Y-70928284D01*
X70605109Y-70953904D01*
X70697159Y-71024536D01*
X70843238Y-71085044D01*
X71000000Y-71105682D01*
X71156762Y-71085044D01*
X71302841Y-71024536D01*
X71428282Y-70928282D01*
X71523300Y-70804452D01*
X71565991Y-70777254D01*
X71582008Y-70775500D01*
X72695804Y-70775500D01*
X72743370Y-70792813D01*
X72765651Y-70825058D01*
X72774211Y-70849522D01*
X72870184Y-71002262D01*
X72997738Y-71129816D01*
X73062784Y-71170687D01*
X73150479Y-71225790D01*
X73318887Y-71284718D01*
X73320745Y-71285368D01*
X73500000Y-71305565D01*
X73679255Y-71285368D01*
X73753139Y-71259515D01*
X73849520Y-71225790D01*
X73849522Y-71225789D01*
X74002262Y-71129816D01*
X74129816Y-71002262D01*
X74225789Y-70849522D01*
X74242124Y-70802841D01*
X74285365Y-70679263D01*
X74285368Y-70679255D01*
X74305565Y-70500000D01*
X81194435Y-70500000D01*
X81212097Y-70656760D01*
X81214632Y-70679254D01*
X81214634Y-70679263D01*
X81274209Y-70849520D01*
X81305406Y-70899169D01*
X81370184Y-71002262D01*
X81497738Y-71129816D01*
X81562784Y-71170687D01*
X81650479Y-71225790D01*
X81818887Y-71284718D01*
X81820745Y-71285368D01*
X82000000Y-71305565D01*
X82179255Y-71285368D01*
X82349522Y-71225789D01*
X82502262Y-71129816D01*
X82512634Y-71119443D01*
X82555301Y-71098401D01*
X82656762Y-71085044D01*
X82802841Y-71024536D01*
X82928282Y-70928282D01*
X83024536Y-70802841D01*
X83085044Y-70656762D01*
X83105682Y-70500000D01*
X83085044Y-70343238D01*
X83024536Y-70197159D01*
X82963028Y-70117000D01*
X82928284Y-70071720D01*
X82928279Y-70071715D01*
X82802841Y-69975464D01*
X82656761Y-69914955D01*
X82555300Y-69901597D01*
X82512636Y-69880558D01*
X82502261Y-69870183D01*
X82349520Y-69774209D01*
X82179263Y-69714634D01*
X82179256Y-69714632D01*
X82179255Y-69714632D01*
X82000000Y-69694435D01*
X81820745Y-69714632D01*
X81820736Y-69714634D01*
X81650479Y-69774209D01*
X81497739Y-69870183D01*
X81370183Y-69997739D01*
X81274209Y-70150479D01*
X81214634Y-70320736D01*
X81214632Y-70320745D01*
X81194435Y-70500000D01*
X74305565Y-70500000D01*
X74285368Y-70320745D01*
X74280629Y-70307203D01*
X74244606Y-70204254D01*
X74245237Y-70153639D01*
X74262125Y-70127489D01*
X76092442Y-68297174D01*
X76138319Y-68275782D01*
X76144768Y-68275500D01*
X85917992Y-68275500D01*
X85965558Y-68292813D01*
X85976700Y-68304452D01*
X86071715Y-68428279D01*
X86071720Y-68428284D01*
X86155345Y-68492451D01*
X86197159Y-68524536D01*
X86343238Y-68585044D01*
X86500000Y-68605682D01*
X86656762Y-68585044D01*
X86802841Y-68524536D01*
X86928282Y-68428282D01*
X87024536Y-68302841D01*
X87085044Y-68156762D01*
X87105682Y-68000000D01*
X87085044Y-67843238D01*
X87024536Y-67697159D01*
X86992451Y-67655345D01*
X86928284Y-67571720D01*
X86928279Y-67571715D01*
X86802841Y-67475464D01*
X86656761Y-67414955D01*
X86500000Y-67394318D01*
X86343239Y-67414955D01*
X86343238Y-67414955D01*
X86197158Y-67475464D01*
X86071720Y-67571715D01*
X86071715Y-67571720D01*
X85976700Y-67695548D01*
X85934009Y-67722746D01*
X85917992Y-67724500D01*
X76034420Y-67724500D01*
X76019983Y-67723078D01*
X76000000Y-67719103D01*
X75999999Y-67719103D01*
X75972868Y-67724500D01*
X75972867Y-67724500D01*
X75907592Y-67737484D01*
X75892505Y-67740485D01*
X75864025Y-67759515D01*
X75826309Y-67784714D01*
X75826305Y-67784718D01*
X75801376Y-67801375D01*
X75801374Y-67801377D01*
X75790053Y-67818319D01*
X75780853Y-67829529D01*
X73872511Y-69737871D01*
X73826635Y-69759263D01*
X73795745Y-69755393D01*
X73679258Y-69714633D01*
X73679257Y-69714632D01*
X73679255Y-69714632D01*
X73500000Y-69694435D01*
X73320745Y-69714632D01*
X73320736Y-69714634D01*
X73150479Y-69774209D01*
X72997739Y-69870183D01*
X72870183Y-69997739D01*
X72774211Y-70150477D01*
X72765652Y-70174940D01*
X72733601Y-70214119D01*
X72695804Y-70224500D01*
X71582008Y-70224500D01*
X71534442Y-70207187D01*
X71523300Y-70195548D01*
X71428284Y-70071720D01*
X71428279Y-70071715D01*
X71302841Y-69975464D01*
X71156761Y-69914955D01*
X71000000Y-69894318D01*
X70843239Y-69914955D01*
X70843238Y-69914955D01*
X70697158Y-69975464D01*
X70571720Y-70071715D01*
X70571715Y-70071720D01*
X70475464Y-70197158D01*
X70414955Y-70343238D01*
X70414955Y-70343239D01*
X70394318Y-70500000D01*
X66548000Y-70500000D01*
X66548000Y-67500000D01*
X69894318Y-67500000D01*
X69914955Y-67656760D01*
X69914955Y-67656761D01*
X69975464Y-67802841D01*
X70071715Y-67928279D01*
X70071720Y-67928284D01*
X70129822Y-67972867D01*
X70197159Y-68024536D01*
X70343238Y-68085044D01*
X70500000Y-68105682D01*
X70656762Y-68085044D01*
X70802841Y-68024536D01*
X70928282Y-67928282D01*
X71024536Y-67802841D01*
X71085044Y-67656762D01*
X71105682Y-67500000D01*
X71085044Y-67343238D01*
X71024536Y-67197159D01*
X70928282Y-67071718D01*
X70928279Y-67071715D01*
X70804452Y-66976700D01*
X70777254Y-66934009D01*
X70775500Y-66917992D01*
X70775500Y-62500000D01*
X74694435Y-62500000D01*
X74712097Y-62656760D01*
X74714632Y-62679254D01*
X74714634Y-62679263D01*
X74774209Y-62849520D01*
X74823697Y-62928279D01*
X74870184Y-63002262D01*
X74997738Y-63129816D01*
X75053364Y-63164768D01*
X75150479Y-63225790D01*
X75290506Y-63274787D01*
X75320745Y-63285368D01*
X75500000Y-63305565D01*
X75679255Y-63285368D01*
X75781183Y-63249702D01*
X75849520Y-63225790D01*
X75856580Y-63221354D01*
X76002262Y-63129816D01*
X76129816Y-63002262D01*
X76225789Y-62849522D01*
X76242124Y-62802841D01*
X76261731Y-62746806D01*
X76285368Y-62679255D01*
X76299273Y-62555837D01*
X76321803Y-62510509D01*
X76327760Y-62505415D01*
X76344269Y-62492747D01*
X76428282Y-62428282D01*
X76524536Y-62302841D01*
X76585044Y-62156762D01*
X76605682Y-62000000D01*
X76585044Y-61843238D01*
X76524536Y-61697159D01*
X76428282Y-61571718D01*
X76428281Y-61571717D01*
X76428279Y-61571715D01*
X76302841Y-61475464D01*
X76156761Y-61414955D01*
X76000000Y-61394318D01*
X75843239Y-61414955D01*
X75843238Y-61414955D01*
X75697158Y-61475464D01*
X75571720Y-61571715D01*
X75571718Y-61571717D01*
X75494585Y-61672239D01*
X75451893Y-61699436D01*
X75444163Y-61700725D01*
X75320744Y-61714632D01*
X75320736Y-61714634D01*
X75150479Y-61774209D01*
X74997739Y-61870183D01*
X74870183Y-61997739D01*
X74774209Y-62150479D01*
X74714634Y-62320736D01*
X74714632Y-62320745D01*
X74694435Y-62500000D01*
X70775500Y-62500000D01*
X70775500Y-61082008D01*
X70792813Y-61034442D01*
X70804452Y-61023300D01*
X70860862Y-60980015D01*
X70928282Y-60928282D01*
X71024536Y-60802841D01*
X71085044Y-60656762D01*
X71105682Y-60500000D01*
X71085044Y-60343238D01*
X71024536Y-60197159D01*
X70974438Y-60131870D01*
X70928284Y-60071720D01*
X70928279Y-60071715D01*
X70802841Y-59975464D01*
X70656761Y-59914955D01*
X70500000Y-59894318D01*
X70343239Y-59914955D01*
X70343238Y-59914955D01*
X70197158Y-59975464D01*
X70071720Y-60071715D01*
X70071715Y-60071720D01*
X69975464Y-60197158D01*
X69914955Y-60343238D01*
X69914955Y-60343239D01*
X69894318Y-60500000D01*
X69914955Y-60656760D01*
X69914955Y-60656761D01*
X69975464Y-60802841D01*
X70071715Y-60928279D01*
X70071720Y-60928284D01*
X70195548Y-61023300D01*
X70222746Y-61065991D01*
X70224500Y-61082008D01*
X70224500Y-66917992D01*
X70207187Y-66965558D01*
X70195548Y-66976700D01*
X70071720Y-67071715D01*
X70071715Y-67071720D01*
X69975464Y-67197158D01*
X69914955Y-67343238D01*
X69914955Y-67343239D01*
X69894318Y-67500000D01*
X66548000Y-67500000D01*
X66548000Y-66128000D01*
X66963254Y-66128000D01*
X66982156Y-66271577D01*
X66982157Y-66271581D01*
X67037575Y-66405372D01*
X67079683Y-66460248D01*
X67295274Y-66244656D01*
X67337760Y-66308240D01*
X67401341Y-66350723D01*
X67185750Y-66566314D01*
X67185750Y-66566315D01*
X67240627Y-66608424D01*
X67374418Y-66663842D01*
X67374422Y-66663843D01*
X67518000Y-66682745D01*
X67661577Y-66663843D01*
X67661581Y-66663842D01*
X67795366Y-66608427D01*
X67795371Y-66608424D01*
X67850248Y-66566314D01*
X67634658Y-66350724D01*
X67698240Y-66308240D01*
X67740724Y-66244658D01*
X67956314Y-66460248D01*
X67998424Y-66405371D01*
X67998427Y-66405366D01*
X68053842Y-66271581D01*
X68053843Y-66271577D01*
X68072745Y-66128000D01*
X68053843Y-65984422D01*
X68053842Y-65984418D01*
X67998424Y-65850627D01*
X67956315Y-65795750D01*
X67956314Y-65795750D01*
X67740723Y-66011341D01*
X67698240Y-65947760D01*
X67634656Y-65905274D01*
X67850248Y-65689683D01*
X67795372Y-65647575D01*
X67661581Y-65592157D01*
X67661577Y-65592156D01*
X67518000Y-65573254D01*
X67374422Y-65592156D01*
X67374421Y-65592156D01*
X67240625Y-65647576D01*
X67240624Y-65647577D01*
X67185750Y-65689683D01*
X67185750Y-65689684D01*
X67401341Y-65905275D01*
X67337760Y-65947760D01*
X67295275Y-66011341D01*
X67079684Y-65795750D01*
X67079683Y-65795750D01*
X67037577Y-65850624D01*
X67037576Y-65850625D01*
X66982156Y-65984421D01*
X66982156Y-65984422D01*
X66963254Y-66128000D01*
X66548000Y-66128000D01*
X66548000Y-64428000D01*
X66963254Y-64428000D01*
X66982156Y-64571577D01*
X66982157Y-64571581D01*
X67037575Y-64705372D01*
X67079683Y-64760248D01*
X67295274Y-64544656D01*
X67337760Y-64608240D01*
X67401341Y-64650723D01*
X67185750Y-64866314D01*
X67185750Y-64866315D01*
X67240627Y-64908424D01*
X67374418Y-64963842D01*
X67374422Y-64963843D01*
X67518000Y-64982745D01*
X67661577Y-64963843D01*
X67661581Y-64963842D01*
X67795366Y-64908427D01*
X67795371Y-64908424D01*
X67850248Y-64866314D01*
X67634658Y-64650724D01*
X67698240Y-64608240D01*
X67740724Y-64544658D01*
X67956314Y-64760248D01*
X67998424Y-64705371D01*
X67998427Y-64705366D01*
X68053842Y-64571581D01*
X68053843Y-64571577D01*
X68072745Y-64428000D01*
X68053843Y-64284422D01*
X68053842Y-64284418D01*
X67998424Y-64150627D01*
X67956315Y-64095750D01*
X67956314Y-64095750D01*
X67740723Y-64311341D01*
X67698240Y-64247760D01*
X67634656Y-64205274D01*
X67850248Y-63989683D01*
X67795372Y-63947575D01*
X67661581Y-63892157D01*
X67661577Y-63892156D01*
X67518000Y-63873254D01*
X67374422Y-63892156D01*
X67374421Y-63892156D01*
X67240625Y-63947576D01*
X67240624Y-63947577D01*
X67185750Y-63989683D01*
X67185750Y-63989684D01*
X67401341Y-64205275D01*
X67337760Y-64247760D01*
X67295275Y-64311341D01*
X67079684Y-64095750D01*
X67079683Y-64095750D01*
X67037577Y-64150624D01*
X67037576Y-64150625D01*
X66982156Y-64284421D01*
X66982156Y-64284422D01*
X66963254Y-64428000D01*
X66548000Y-64428000D01*
X66548000Y-54500000D01*
X71194435Y-54500000D01*
X71212097Y-54656760D01*
X71214632Y-54679254D01*
X71214634Y-54679263D01*
X71274209Y-54849520D01*
X71276205Y-54852696D01*
X71370184Y-55002262D01*
X71497738Y-55129816D01*
X71593712Y-55190120D01*
X71650479Y-55225790D01*
X71820736Y-55285365D01*
X71820745Y-55285368D01*
X72000000Y-55305565D01*
X72179255Y-55285368D01*
X72320361Y-55235993D01*
X72349520Y-55225790D01*
X72349522Y-55225789D01*
X72502262Y-55129816D01*
X72629816Y-55002262D01*
X72725789Y-54849522D01*
X72742124Y-54802841D01*
X72785365Y-54679263D01*
X72785368Y-54679255D01*
X72805565Y-54500000D01*
X72785368Y-54320745D01*
X72760778Y-54250471D01*
X72725790Y-54150479D01*
X72676299Y-54071715D01*
X72629816Y-53997738D01*
X72502262Y-53870184D01*
X72415865Y-53815897D01*
X72349520Y-53774209D01*
X72179263Y-53714634D01*
X72179256Y-53714632D01*
X72179255Y-53714632D01*
X72000000Y-53694435D01*
X71820745Y-53714632D01*
X71820736Y-53714634D01*
X71650479Y-53774209D01*
X71497739Y-53870183D01*
X71370183Y-53997739D01*
X71274209Y-54150479D01*
X71214634Y-54320736D01*
X71214632Y-54320745D01*
X71194435Y-54500000D01*
X66548000Y-54500000D01*
X66548000Y-52920000D01*
X66963254Y-52920000D01*
X66982156Y-53063577D01*
X66982157Y-53063581D01*
X67037575Y-53197372D01*
X67079683Y-53252248D01*
X67295274Y-53036656D01*
X67337760Y-53100240D01*
X67401341Y-53142723D01*
X67185750Y-53358314D01*
X67185750Y-53358315D01*
X67240627Y-53400424D01*
X67374418Y-53455842D01*
X67374422Y-53455843D01*
X67518000Y-53474745D01*
X67661577Y-53455843D01*
X67661581Y-53455842D01*
X67795366Y-53400427D01*
X67795371Y-53400424D01*
X67850248Y-53358314D01*
X67634658Y-53142724D01*
X67698240Y-53100240D01*
X67740724Y-53036658D01*
X67956314Y-53252248D01*
X67998424Y-53197371D01*
X67998427Y-53197366D01*
X68053842Y-53063581D01*
X68053843Y-53063577D01*
X68072745Y-52920000D01*
X68053843Y-52776422D01*
X68053842Y-52776418D01*
X67998424Y-52642627D01*
X67956315Y-52587750D01*
X67956314Y-52587750D01*
X67740723Y-52803341D01*
X67698240Y-52739760D01*
X67634656Y-52697274D01*
X67850248Y-52481683D01*
X67795372Y-52439575D01*
X67661581Y-52384157D01*
X67661577Y-52384156D01*
X67518000Y-52365254D01*
X67374422Y-52384156D01*
X67374421Y-52384156D01*
X67240625Y-52439576D01*
X67240624Y-52439577D01*
X67185750Y-52481683D01*
X67185750Y-52481684D01*
X67401341Y-52697275D01*
X67337760Y-52739760D01*
X67295275Y-52803341D01*
X67079684Y-52587750D01*
X67079683Y-52587750D01*
X67037577Y-52642624D01*
X67037576Y-52642625D01*
X66982156Y-52776421D01*
X66982156Y-52776422D01*
X66963254Y-52920000D01*
X66548000Y-52920000D01*
X66548000Y-51220000D01*
X66963254Y-51220000D01*
X66982156Y-51363577D01*
X66982157Y-51363581D01*
X67037575Y-51497372D01*
X67079683Y-51552248D01*
X67295274Y-51336656D01*
X67337760Y-51400240D01*
X67401341Y-51442723D01*
X67185750Y-51658314D01*
X67185750Y-51658315D01*
X67240627Y-51700424D01*
X67374418Y-51755842D01*
X67374422Y-51755843D01*
X67518000Y-51774745D01*
X67661577Y-51755843D01*
X67661581Y-51755842D01*
X67795366Y-51700427D01*
X67795371Y-51700424D01*
X67850248Y-51658314D01*
X67634658Y-51442724D01*
X67698240Y-51400240D01*
X67740724Y-51336658D01*
X67956314Y-51552248D01*
X67998424Y-51497371D01*
X67998427Y-51497366D01*
X68053842Y-51363581D01*
X68053843Y-51363577D01*
X68072745Y-51220000D01*
X68053843Y-51076422D01*
X68053842Y-51076418D01*
X67998424Y-50942627D01*
X67956315Y-50887750D01*
X67956314Y-50887750D01*
X67740723Y-51103341D01*
X67698240Y-51039760D01*
X67634656Y-50997274D01*
X67850248Y-50781683D01*
X67795372Y-50739575D01*
X67661581Y-50684157D01*
X67661577Y-50684156D01*
X67518000Y-50665254D01*
X67374422Y-50684156D01*
X67374421Y-50684156D01*
X67240625Y-50739576D01*
X67240624Y-50739577D01*
X67185750Y-50781683D01*
X67185750Y-50781684D01*
X67401341Y-50997275D01*
X67337760Y-51039760D01*
X67295275Y-51103341D01*
X67079684Y-50887750D01*
X67079683Y-50887750D01*
X67037577Y-50942624D01*
X67037576Y-50942625D01*
X66982156Y-51076421D01*
X66982156Y-51076422D01*
X66963254Y-51220000D01*
X66548000Y-51220000D01*
X66548000Y-48000000D01*
X81719103Y-48000000D01*
X81724500Y-48027132D01*
X81724500Y-48027133D01*
X81725429Y-48031805D01*
X81740485Y-48107496D01*
X81751165Y-48123479D01*
X81783552Y-48171950D01*
X81801375Y-48198623D01*
X81801378Y-48198626D01*
X81818314Y-48209942D01*
X81829529Y-48219145D01*
X84729826Y-51119442D01*
X84751218Y-51165318D01*
X84751500Y-51171768D01*
X84751500Y-53492579D01*
X84750078Y-53507015D01*
X84746103Y-53527000D01*
X84751500Y-53554132D01*
X84751500Y-53554133D01*
X84767485Y-53634495D01*
X84792512Y-53671950D01*
X84809401Y-53697227D01*
X84828375Y-53725623D01*
X84828378Y-53725626D01*
X84845314Y-53736942D01*
X84856529Y-53746145D01*
X84893649Y-53783265D01*
X84915041Y-53829141D01*
X84914690Y-53845249D01*
X84894318Y-53999999D01*
X84914955Y-54156760D01*
X84914955Y-54156761D01*
X84975464Y-54302841D01*
X85071715Y-54428279D01*
X85071720Y-54428284D01*
X85120323Y-54465578D01*
X85197159Y-54524536D01*
X85343238Y-54585044D01*
X85500000Y-54605682D01*
X85656762Y-54585044D01*
X85802841Y-54524536D01*
X85928282Y-54428282D01*
X86024536Y-54302841D01*
X86085044Y-54156762D01*
X86105682Y-54000000D01*
X86085044Y-53843238D01*
X86024536Y-53697159D01*
X85946721Y-53595748D01*
X85928284Y-53571720D01*
X85928279Y-53571715D01*
X85802841Y-53475464D01*
X85656761Y-53414955D01*
X85520637Y-53397034D01*
X85500000Y-53394318D01*
X85499999Y-53394318D01*
X85386159Y-53409305D01*
X85336740Y-53398349D01*
X85305925Y-53358190D01*
X85302500Y-53335938D01*
X85302500Y-51061415D01*
X85303922Y-51046978D01*
X85307896Y-51027000D01*
X85302525Y-50999999D01*
X85302500Y-50999869D01*
X85302500Y-50999867D01*
X85286515Y-50919505D01*
X85283475Y-50914956D01*
X85240994Y-50851378D01*
X85240993Y-50851377D01*
X85238974Y-50848355D01*
X85225624Y-50828376D01*
X85225623Y-50828375D01*
X85208683Y-50817056D01*
X85197470Y-50807854D01*
X84157333Y-49767717D01*
X85339347Y-49767717D01*
X85350054Y-49778424D01*
X85502697Y-49874336D01*
X85672845Y-49933873D01*
X85672856Y-49933876D01*
X85852000Y-49954061D01*
X86031143Y-49933876D01*
X86031154Y-49933873D01*
X86201302Y-49874336D01*
X86201304Y-49874336D01*
X86353946Y-49778424D01*
X86353947Y-49778423D01*
X86364651Y-49767717D01*
X85852000Y-49255066D01*
X85339347Y-49767717D01*
X84157333Y-49767717D01*
X83538616Y-49149000D01*
X85046938Y-49149000D01*
X85067123Y-49328143D01*
X85067126Y-49328154D01*
X85126663Y-49498302D01*
X85222575Y-49650945D01*
X85233281Y-49661651D01*
X85745932Y-49149000D01*
X85958066Y-49149000D01*
X86470717Y-49661651D01*
X86481423Y-49650947D01*
X86481424Y-49650946D01*
X86577336Y-49498304D01*
X86577336Y-49498302D01*
X86636873Y-49328154D01*
X86636876Y-49328143D01*
X86657061Y-49149000D01*
X86636876Y-48969856D01*
X86636873Y-48969845D01*
X86577336Y-48799697D01*
X86481424Y-48647054D01*
X86470717Y-48636347D01*
X85958066Y-49148999D01*
X85958066Y-49149000D01*
X85745932Y-49149000D01*
X85745933Y-49148999D01*
X85233281Y-48636347D01*
X85222576Y-48647053D01*
X85126663Y-48799695D01*
X85126663Y-48799697D01*
X85067126Y-48969845D01*
X85067123Y-48969856D01*
X85046938Y-49149000D01*
X83538616Y-49149000D01*
X82919897Y-48530281D01*
X85339347Y-48530281D01*
X85851999Y-49042933D01*
X86364652Y-48530281D01*
X86353945Y-48519575D01*
X86201302Y-48423663D01*
X86031154Y-48364126D01*
X86031143Y-48364123D01*
X85852000Y-48343938D01*
X85672856Y-48364123D01*
X85672845Y-48364126D01*
X85502697Y-48423663D01*
X85502695Y-48423663D01*
X85350053Y-48519576D01*
X85339347Y-48530281D01*
X82919897Y-48530281D01*
X82395623Y-48006007D01*
X93195210Y-48006007D01*
X93214346Y-48285785D01*
X93214349Y-48285805D01*
X93271404Y-48560367D01*
X93271409Y-48560385D01*
X93365319Y-48824623D01*
X93365321Y-48824628D01*
X93494347Y-49073635D01*
X93494352Y-49073642D01*
X93656071Y-49302747D01*
X93748364Y-49401568D01*
X94385376Y-48764555D01*
X94471931Y-48859501D01*
X94489383Y-48872680D01*
X93851276Y-49510788D01*
X94065043Y-49684701D01*
X94065051Y-49684707D01*
X94304654Y-49830413D01*
X94304669Y-49830421D01*
X94561891Y-49942147D01*
X94831942Y-50017812D01*
X95109771Y-50055999D01*
X95109783Y-50056000D01*
X95390217Y-50056000D01*
X95390228Y-50055999D01*
X95668057Y-50017812D01*
X95938108Y-49942147D01*
X96195330Y-49830421D01*
X96195345Y-49830413D01*
X96434948Y-49684707D01*
X96434965Y-49684695D01*
X96648722Y-49510789D01*
X96648723Y-49510789D01*
X96010615Y-48872681D01*
X96028069Y-48859501D01*
X96114622Y-48764556D01*
X96751635Y-49401569D01*
X96751635Y-49401568D01*
X96843922Y-49302755D01*
X97005647Y-49073642D01*
X97005652Y-49073635D01*
X97134678Y-48824628D01*
X97134680Y-48824623D01*
X97228590Y-48560385D01*
X97228595Y-48560367D01*
X97285650Y-48285805D01*
X97285653Y-48285785D01*
X97304790Y-48006007D01*
X97304790Y-48005992D01*
X97285653Y-47726214D01*
X97285650Y-47726194D01*
X97228595Y-47451632D01*
X97228590Y-47451614D01*
X97134680Y-47187376D01*
X97134678Y-47187371D01*
X97005652Y-46938364D01*
X97005647Y-46938357D01*
X96843925Y-46709248D01*
X96759374Y-46618717D01*
X109987347Y-46618717D01*
X109998054Y-46629424D01*
X110150697Y-46725336D01*
X110320845Y-46784873D01*
X110320856Y-46784876D01*
X110500000Y-46805061D01*
X110679143Y-46784876D01*
X110679154Y-46784873D01*
X110849302Y-46725336D01*
X110849304Y-46725336D01*
X111001946Y-46629424D01*
X111001947Y-46629423D01*
X111012651Y-46618717D01*
X110500000Y-46106066D01*
X109987347Y-46618717D01*
X96759374Y-46618717D01*
X96751634Y-46610430D01*
X96114621Y-47247442D01*
X96028069Y-47152499D01*
X96010614Y-47139317D01*
X96648722Y-46501210D01*
X96434956Y-46327298D01*
X96434948Y-46327292D01*
X96195345Y-46181586D01*
X96195330Y-46181578D01*
X95938108Y-46069852D01*
X95688804Y-46000000D01*
X109694938Y-46000000D01*
X109715123Y-46179143D01*
X109715126Y-46179154D01*
X109774663Y-46349302D01*
X109870575Y-46501945D01*
X109881281Y-46512651D01*
X110393932Y-46000000D01*
X110606066Y-46000000D01*
X111118717Y-46512651D01*
X111129423Y-46501947D01*
X111129424Y-46501946D01*
X111225336Y-46349304D01*
X111225336Y-46349302D01*
X111284873Y-46179154D01*
X111284876Y-46179143D01*
X111305061Y-46000000D01*
X111284876Y-45820856D01*
X111284873Y-45820845D01*
X111225336Y-45650697D01*
X111129424Y-45498054D01*
X111118717Y-45487347D01*
X110606066Y-45999999D01*
X110606066Y-46000000D01*
X110393932Y-46000000D01*
X110393933Y-45999999D01*
X109881281Y-45487347D01*
X109870576Y-45498053D01*
X109774663Y-45650695D01*
X109774663Y-45650697D01*
X109715126Y-45820845D01*
X109715123Y-45820856D01*
X109694938Y-46000000D01*
X95688804Y-46000000D01*
X95668057Y-45994187D01*
X95390228Y-45956000D01*
X95109771Y-45956000D01*
X94831942Y-45994187D01*
X94561891Y-46069852D01*
X94304669Y-46181578D01*
X94304654Y-46181586D01*
X94065051Y-46327292D01*
X94065035Y-46327303D01*
X93851275Y-46501209D01*
X94489384Y-47139318D01*
X94471931Y-47152499D01*
X94385377Y-47247443D01*
X93748364Y-46610430D01*
X93656074Y-46709249D01*
X93494352Y-46938357D01*
X93494347Y-46938364D01*
X93365321Y-47187371D01*
X93365319Y-47187376D01*
X93271409Y-47451614D01*
X93271404Y-47451632D01*
X93214349Y-47726194D01*
X93214346Y-47726214D01*
X93195210Y-48005992D01*
X93195210Y-48006007D01*
X82395623Y-48006007D01*
X82297174Y-47907558D01*
X82275782Y-47861682D01*
X82275500Y-47855232D01*
X82275500Y-46644768D01*
X82292813Y-46597202D01*
X82297174Y-46592442D01*
X84092442Y-44797174D01*
X84138318Y-44775782D01*
X84144768Y-44775500D01*
X87136924Y-44775500D01*
X87184490Y-44792813D01*
X87209800Y-44836650D01*
X87210459Y-44857785D01*
X87194435Y-44999999D01*
X87214632Y-45179254D01*
X87214634Y-45179263D01*
X87274209Y-45349520D01*
X87302358Y-45394318D01*
X87370184Y-45502262D01*
X87497738Y-45629816D01*
X87593712Y-45690120D01*
X87650479Y-45725790D01*
X87820736Y-45785365D01*
X87820745Y-45785368D01*
X88000000Y-45805565D01*
X88179255Y-45785368D01*
X88318812Y-45736535D01*
X88349520Y-45725790D01*
X88349522Y-45725789D01*
X88502262Y-45629816D01*
X88629816Y-45502262D01*
X88725789Y-45349522D01*
X88785368Y-45179255D01*
X88805565Y-45000000D01*
X88785368Y-44820745D01*
X88769536Y-44775500D01*
X88725790Y-44650479D01*
X88690120Y-44593712D01*
X88629816Y-44497738D01*
X88502262Y-44370184D01*
X88429359Y-44324376D01*
X88349520Y-44274209D01*
X88179263Y-44214634D01*
X88179256Y-44214632D01*
X88179255Y-44214632D01*
X88000000Y-44194435D01*
X87820745Y-44214632D01*
X87820741Y-44214633D01*
X87740838Y-44242592D01*
X87731428Y-44244833D01*
X87722550Y-44247212D01*
X87722233Y-44246030D01*
X87677050Y-44247995D01*
X87667083Y-44243213D01*
X87660497Y-44240485D01*
X87620314Y-44232492D01*
X87580133Y-44224500D01*
X87580132Y-44224500D01*
X87580130Y-44224499D01*
X87553001Y-44219103D01*
X87553000Y-44219103D01*
X87533017Y-44223078D01*
X87518580Y-44224500D01*
X84034420Y-44224500D01*
X84019983Y-44223078D01*
X84000000Y-44219103D01*
X83999999Y-44219103D01*
X83972868Y-44224500D01*
X83972867Y-44224500D01*
X83946079Y-44229828D01*
X83892503Y-44240485D01*
X83879825Y-44248957D01*
X83873485Y-44253194D01*
X83862822Y-44260319D01*
X83826305Y-44284718D01*
X83801376Y-44301375D01*
X83801374Y-44301377D01*
X83790053Y-44318319D01*
X83780853Y-44329529D01*
X81829529Y-46280853D01*
X81818319Y-46290053D01*
X81801377Y-46301374D01*
X81801375Y-46301376D01*
X81786006Y-46324378D01*
X81782742Y-46329263D01*
X81740485Y-46392504D01*
X81733368Y-46428284D01*
X81724500Y-46472867D01*
X81719103Y-46500000D01*
X81721619Y-46512651D01*
X81723078Y-46519983D01*
X81724500Y-46534420D01*
X81724500Y-47965579D01*
X81723078Y-47980015D01*
X81719103Y-48000000D01*
X66548000Y-48000000D01*
X66548000Y-45000000D01*
X80194435Y-45000000D01*
X80214632Y-45179254D01*
X80214634Y-45179263D01*
X80274210Y-45349522D01*
X80364134Y-45492634D01*
X80369842Y-45503683D01*
X80374465Y-45514844D01*
X80470715Y-45640279D01*
X80470720Y-45640284D01*
X80484291Y-45650697D01*
X80596159Y-45736536D01*
X80742238Y-45797044D01*
X80899000Y-45817682D01*
X80969200Y-45808439D01*
X80988626Y-45805882D01*
X80993461Y-45805565D01*
X80999994Y-45805565D01*
X80999997Y-45805564D01*
X81000000Y-45805565D01*
X81179255Y-45785368D01*
X81318812Y-45736535D01*
X81349520Y-45725790D01*
X81349522Y-45725789D01*
X81502262Y-45629816D01*
X81629816Y-45502262D01*
X81725789Y-45349522D01*
X81785368Y-45179255D01*
X81805565Y-45000000D01*
X81785368Y-44820745D01*
X81769536Y-44775500D01*
X81725790Y-44650479D01*
X81690120Y-44593712D01*
X81629816Y-44497738D01*
X81502262Y-44370184D01*
X81429359Y-44324376D01*
X81349520Y-44274209D01*
X81179263Y-44214634D01*
X81179256Y-44214632D01*
X81179255Y-44214632D01*
X81000000Y-44194435D01*
X80820745Y-44214632D01*
X80820736Y-44214634D01*
X80650479Y-44274209D01*
X80497739Y-44370183D01*
X80370183Y-44497739D01*
X80274209Y-44650479D01*
X80214634Y-44820736D01*
X80214632Y-44820745D01*
X80194435Y-45000000D01*
X66548000Y-45000000D01*
X66548000Y-44480652D01*
X66565313Y-44433086D01*
X66569674Y-44428326D01*
X67288326Y-43709674D01*
X67334202Y-43688282D01*
X67340652Y-43688000D01*
X92673020Y-43688000D01*
X92720586Y-43705313D01*
G37*
%TD.AperFunction*%
%TA.AperFunction,Conductor*%
G36*
X121011742Y-52888616D02*
G01*
X121040776Y-52930080D01*
X121042665Y-52958892D01*
X121030270Y-53053041D01*
X121025907Y-53086184D01*
X121028081Y-53102696D01*
X121046544Y-53242944D01*
X121046544Y-53242945D01*
X121107053Y-53389025D01*
X121203304Y-53514463D01*
X121203309Y-53514468D01*
X121302137Y-53590301D01*
X121329335Y-53632992D01*
X121331089Y-53649009D01*
X121331089Y-58672907D01*
X121313776Y-58720473D01*
X121309415Y-58725233D01*
X117830708Y-62203939D01*
X117820865Y-62211025D01*
X117821245Y-62211528D01*
X117815773Y-62215660D01*
X117783174Y-62251417D01*
X117781997Y-62252649D01*
X117767822Y-62266826D01*
X117765326Y-62270471D01*
X117762145Y-62274486D01*
X117740085Y-62298685D01*
X117740083Y-62298687D01*
X117735483Y-62310561D01*
X117727536Y-62325637D01*
X117720344Y-62336137D01*
X117712847Y-62368010D01*
X117711330Y-62372908D01*
X117699500Y-62403448D01*
X117699500Y-62416173D01*
X117697535Y-62433108D01*
X117694621Y-62445501D01*
X117699145Y-62477936D01*
X117699500Y-62483044D01*
X117699500Y-71747536D01*
X117682187Y-71795102D01*
X117638350Y-71820412D01*
X117588500Y-71811622D01*
X117557133Y-71775855D01*
X117535272Y-71723078D01*
X117524536Y-71697159D01*
X117428282Y-71571718D01*
X117428279Y-71571715D01*
X117302841Y-71475464D01*
X117156761Y-71414955D01*
X117020637Y-71397034D01*
X117000000Y-71394318D01*
X116999999Y-71394318D01*
X116845249Y-71414690D01*
X116795830Y-71403734D01*
X116783265Y-71393649D01*
X113297174Y-67907558D01*
X113275782Y-67861682D01*
X113275500Y-67855232D01*
X113275500Y-63034420D01*
X113276922Y-63019983D01*
X113280897Y-62999999D01*
X113280897Y-62999998D01*
X113259516Y-62892506D01*
X113211974Y-62821355D01*
X113198624Y-62801376D01*
X113198623Y-62801375D01*
X113181683Y-62790056D01*
X113170470Y-62780854D01*
X112219145Y-61829529D01*
X112209942Y-61818314D01*
X112198626Y-61801378D01*
X112198624Y-61801376D01*
X112178644Y-61788025D01*
X112178641Y-61788023D01*
X112157966Y-61774209D01*
X112139182Y-61761658D01*
X112123338Y-61751071D01*
X112107496Y-61740485D01*
X112107497Y-61740485D01*
X112067314Y-61732492D01*
X112027133Y-61724500D01*
X112027132Y-61724500D01*
X112027130Y-61724499D01*
X112000001Y-61719103D01*
X112000000Y-61719103D01*
X111980017Y-61723078D01*
X111965580Y-61724500D01*
X104144768Y-61724500D01*
X104097202Y-61707187D01*
X104092442Y-61702826D01*
X103297174Y-60907558D01*
X103275782Y-60861682D01*
X103275500Y-60855232D01*
X103275500Y-57644768D01*
X103292813Y-57597202D01*
X103297174Y-57592442D01*
X104092442Y-56797174D01*
X104138318Y-56775782D01*
X104144768Y-56775500D01*
X104904752Y-56775500D01*
X104952318Y-56792813D01*
X104977628Y-56836650D01*
X104973119Y-56877818D01*
X104914956Y-57018235D01*
X104914955Y-57018239D01*
X104894318Y-57175000D01*
X104914955Y-57331760D01*
X104914956Y-57331764D01*
X104948759Y-57413372D01*
X104950967Y-57463943D01*
X104920152Y-57504101D01*
X104870733Y-57515057D01*
X104835344Y-57500398D01*
X104802849Y-57475464D01*
X104656769Y-57414955D01*
X104500008Y-57394318D01*
X104343247Y-57414955D01*
X104343246Y-57414955D01*
X104197166Y-57475464D01*
X104071728Y-57571715D01*
X104071723Y-57571720D01*
X103975472Y-57697158D01*
X103914963Y-57843238D01*
X103914963Y-57843239D01*
X103894326Y-58000000D01*
X103914963Y-58156760D01*
X103914963Y-58156761D01*
X103975472Y-58302841D01*
X104071723Y-58428279D01*
X104071728Y-58428284D01*
X104133215Y-58475464D01*
X104197167Y-58524536D01*
X104343246Y-58585044D01*
X104500008Y-58605682D01*
X104656770Y-58585044D01*
X104802849Y-58524536D01*
X104928290Y-58428282D01*
X105023308Y-58304452D01*
X105065999Y-58277254D01*
X105082016Y-58275500D01*
X109465580Y-58275500D01*
X109480016Y-58276921D01*
X109500000Y-58280897D01*
X109500001Y-58280897D01*
X109504622Y-58279977D01*
X109527132Y-58275500D01*
X109527133Y-58275500D01*
X109607495Y-58259515D01*
X109667974Y-58219104D01*
X109675622Y-58213994D01*
X109675622Y-58213993D01*
X109683631Y-58208642D01*
X109683635Y-58208638D01*
X109698624Y-58198624D01*
X109709948Y-58181674D01*
X109719141Y-58170473D01*
X110092442Y-57797174D01*
X110138319Y-57775782D01*
X110144768Y-57775500D01*
X111913771Y-57775500D01*
X111961337Y-57792813D01*
X111986647Y-57836650D01*
X111977857Y-57886500D01*
X111966100Y-57901821D01*
X111892458Y-57975464D01*
X111870183Y-57997739D01*
X111774209Y-58150479D01*
X111714634Y-58320736D01*
X111714632Y-58320745D01*
X111694435Y-58500000D01*
X111712097Y-58656760D01*
X111714632Y-58679254D01*
X111714634Y-58679263D01*
X111774209Y-58849520D01*
X111822442Y-58926281D01*
X111870184Y-59002262D01*
X111997738Y-59129816D01*
X112093083Y-59189725D01*
X112150479Y-59225790D01*
X112320736Y-59285365D01*
X112320745Y-59285368D01*
X112500000Y-59305565D01*
X112679255Y-59285368D01*
X112795745Y-59244606D01*
X112846359Y-59245236D01*
X112872511Y-59262127D01*
X112893649Y-59283265D01*
X112915041Y-59329141D01*
X112914690Y-59345249D01*
X112894854Y-59495930D01*
X112894318Y-59500000D01*
X112896293Y-59514998D01*
X112914955Y-59656760D01*
X112914955Y-59656761D01*
X112975464Y-59802841D01*
X113071715Y-59928279D01*
X113071720Y-59928284D01*
X113133207Y-59975464D01*
X113197159Y-60024536D01*
X113343238Y-60085044D01*
X113500000Y-60105682D01*
X113656762Y-60085044D01*
X113802841Y-60024536D01*
X113909346Y-59942811D01*
X113957622Y-59927590D01*
X114004388Y-59946961D01*
X114027761Y-59991861D01*
X114027923Y-59993186D01*
X114035951Y-60064436D01*
X114035953Y-60064445D01*
X114095528Y-60234702D01*
X114163727Y-60343239D01*
X114191503Y-60387444D01*
X114319057Y-60514998D01*
X114406532Y-60569962D01*
X114471798Y-60610972D01*
X114636471Y-60668593D01*
X114642064Y-60670550D01*
X114821319Y-60690747D01*
X115000574Y-60670550D01*
X115170841Y-60610971D01*
X115271775Y-60547549D01*
X115321260Y-60536902D01*
X115366014Y-60560554D01*
X115384512Y-60600547D01*
X115391746Y-60655497D01*
X115452255Y-60801577D01*
X115548506Y-60927015D01*
X115548511Y-60927020D01*
X115668183Y-61018847D01*
X115673950Y-61023272D01*
X115675370Y-61023860D01*
X115676053Y-61024486D01*
X115678149Y-61025696D01*
X115677880Y-61026160D01*
X115712693Y-61058052D01*
X115719306Y-61108238D01*
X115716905Y-61116669D01*
X115697964Y-61170803D01*
X115677767Y-61350058D01*
X115678436Y-61356000D01*
X115697964Y-61529312D01*
X115697966Y-61529321D01*
X115757541Y-61699578D01*
X115804437Y-61774211D01*
X115853516Y-61852320D01*
X115981070Y-61979874D01*
X116077044Y-62040178D01*
X116133811Y-62075848D01*
X116303285Y-62135149D01*
X116304077Y-62135426D01*
X116483332Y-62155623D01*
X116662587Y-62135426D01*
X116796371Y-62088613D01*
X116832852Y-62075848D01*
X116839430Y-62071715D01*
X116985594Y-61979874D01*
X117113148Y-61852320D01*
X117209121Y-61699580D01*
X117209172Y-61699436D01*
X117268697Y-61529321D01*
X117268700Y-61529313D01*
X117288897Y-61350058D01*
X117268700Y-61170803D01*
X117246548Y-61107495D01*
X117209122Y-61000537D01*
X117162928Y-60927020D01*
X117113148Y-60847796D01*
X116985594Y-60720242D01*
X116938653Y-60690747D01*
X116832852Y-60624267D01*
X116662595Y-60564692D01*
X116662590Y-60564691D01*
X116662587Y-60564690D01*
X116662580Y-60564689D01*
X116662579Y-60564689D01*
X116647603Y-60563001D01*
X116602275Y-60540470D01*
X116582524Y-60499126D01*
X116580066Y-60480457D01*
X116561835Y-60341974D01*
X116501327Y-60195895D01*
X116452199Y-60131870D01*
X116405075Y-60070456D01*
X116405070Y-60070451D01*
X116279632Y-59974200D01*
X116133552Y-59913691D01*
X116082270Y-59906940D01*
X116037370Y-59883566D01*
X116017999Y-59836800D01*
X116023562Y-59805254D01*
X116024533Y-59802907D01*
X116024536Y-59802905D01*
X116085044Y-59656826D01*
X116105682Y-59500064D01*
X116085044Y-59343302D01*
X116024536Y-59197223D01*
X115954806Y-59106349D01*
X115928284Y-59071784D01*
X115928279Y-59071779D01*
X115802841Y-58975528D01*
X115656761Y-58915019D01*
X115500000Y-58894382D01*
X115343239Y-58915019D01*
X115343238Y-58915019D01*
X115197158Y-58975528D01*
X115071720Y-59071779D01*
X115071716Y-59071783D01*
X115071703Y-59071801D01*
X115071691Y-59071808D01*
X115068289Y-59075211D01*
X115067534Y-59074456D01*
X115029009Y-59098994D01*
X115004820Y-59099244D01*
X115004704Y-59100280D01*
X115000576Y-59099814D01*
X115000574Y-59099814D01*
X114821319Y-59079617D01*
X114642064Y-59099814D01*
X114642055Y-59099816D01*
X114471798Y-59159391D01*
X114319058Y-59255365D01*
X114206159Y-59368264D01*
X114160282Y-59389656D01*
X114111388Y-59376555D01*
X114085466Y-59344257D01*
X114060202Y-59283265D01*
X114024536Y-59197159D01*
X113972862Y-59129816D01*
X113928284Y-59071720D01*
X113928279Y-59071715D01*
X113802841Y-58975464D01*
X113656761Y-58914955D01*
X113520637Y-58897034D01*
X113500000Y-58894318D01*
X113499999Y-58894318D01*
X113345249Y-58914690D01*
X113295830Y-58903734D01*
X113283265Y-58893649D01*
X113274798Y-58885182D01*
X117015754Y-58885182D01*
X117035537Y-59060767D01*
X117035951Y-59064436D01*
X117035953Y-59064445D01*
X117095528Y-59234702D01*
X117163767Y-59343302D01*
X117191503Y-59387444D01*
X117319057Y-59514998D01*
X117471797Y-59610971D01*
X117605732Y-59657836D01*
X117626327Y-59668968D01*
X117689737Y-59717625D01*
X117835816Y-59778133D01*
X117992578Y-59798771D01*
X118149340Y-59778133D01*
X118295419Y-59717625D01*
X118420860Y-59621371D01*
X118517114Y-59495930D01*
X118577622Y-59349851D01*
X118598260Y-59193089D01*
X118590556Y-59134576D01*
X118594076Y-59100475D01*
X118597285Y-59091305D01*
X118606687Y-59064437D01*
X118626884Y-58885182D01*
X118606687Y-58705927D01*
X118606684Y-58705918D01*
X118547109Y-58535661D01*
X118479636Y-58428279D01*
X118451135Y-58382920D01*
X118323581Y-58255366D01*
X118284373Y-58230729D01*
X118170839Y-58159391D01*
X118000582Y-58099816D01*
X118000575Y-58099814D01*
X118000574Y-58099814D01*
X117821319Y-58079617D01*
X117642064Y-58099814D01*
X117642055Y-58099816D01*
X117471798Y-58159391D01*
X117319058Y-58255365D01*
X117191502Y-58382921D01*
X117095528Y-58535661D01*
X117035953Y-58705918D01*
X117035951Y-58705927D01*
X117015754Y-58885182D01*
X113274798Y-58885182D01*
X113262127Y-58872511D01*
X113240735Y-58826635D01*
X113244605Y-58795746D01*
X113285368Y-58679255D01*
X113305565Y-58500000D01*
X113285368Y-58320745D01*
X113263943Y-58259515D01*
X113225790Y-58150479D01*
X113146654Y-58024536D01*
X113129816Y-57997738D01*
X113033902Y-57901824D01*
X113012511Y-57855950D01*
X113025612Y-57807055D01*
X113067076Y-57778021D01*
X113086229Y-57775500D01*
X118461088Y-57775500D01*
X118475524Y-57776921D01*
X118495508Y-57780897D01*
X118495509Y-57780897D01*
X118500130Y-57779977D01*
X118522640Y-57775500D01*
X118522641Y-57775500D01*
X118603003Y-57759515D01*
X118670175Y-57714632D01*
X118671130Y-57713994D01*
X118671130Y-57713993D01*
X118679140Y-57708642D01*
X118679146Y-57708637D01*
X118692767Y-57699536D01*
X118694132Y-57698624D01*
X118705452Y-57681681D01*
X118714649Y-57670474D01*
X119547135Y-56837987D01*
X119593009Y-56816597D01*
X119641904Y-56829698D01*
X119670937Y-56871162D01*
X119666526Y-56921589D01*
X119662117Y-56929685D01*
X119595529Y-57035659D01*
X119535953Y-57205918D01*
X119535951Y-57205927D01*
X119515754Y-57385182D01*
X119535951Y-57564436D01*
X119535953Y-57564445D01*
X119595528Y-57734702D01*
X119663727Y-57843239D01*
X119691503Y-57887444D01*
X119819057Y-58014998D01*
X119915031Y-58075302D01*
X119971798Y-58110972D01*
X120142055Y-58170547D01*
X120142064Y-58170550D01*
X120321319Y-58190747D01*
X120500574Y-58170550D01*
X120628928Y-58125637D01*
X120670839Y-58110972D01*
X120679258Y-58105682D01*
X120823581Y-58014998D01*
X120951135Y-57887444D01*
X121047108Y-57734704D01*
X121050228Y-57725789D01*
X121092335Y-57605452D01*
X121106687Y-57564437D01*
X121126884Y-57385182D01*
X121106687Y-57205927D01*
X121095865Y-57175000D01*
X121047109Y-57035661D01*
X121009273Y-56975446D01*
X120951135Y-56882920D01*
X120823581Y-56755366D01*
X120746905Y-56707187D01*
X120670839Y-56659391D01*
X120500582Y-56599816D01*
X120500575Y-56599814D01*
X120500574Y-56599814D01*
X120321319Y-56579617D01*
X120142064Y-56599814D01*
X120142055Y-56599816D01*
X119971796Y-56659392D01*
X119865822Y-56725981D01*
X119816336Y-56736628D01*
X119771583Y-56712976D01*
X119752504Y-56666090D01*
X119768026Y-56617910D01*
X119774126Y-56610997D01*
X120190688Y-56194435D01*
X120670473Y-55714649D01*
X120681676Y-55705455D01*
X120698624Y-55694132D01*
X120759515Y-55603003D01*
X120775500Y-55522641D01*
X120775500Y-55522640D01*
X120780897Y-55495508D01*
X120776922Y-55475523D01*
X120775500Y-55461087D01*
X120775500Y-53069032D01*
X120792813Y-53021466D01*
X120797174Y-53016706D01*
X120854988Y-52958892D01*
X120916973Y-52896906D01*
X120962848Y-52875515D01*
X121011742Y-52888616D01*
G37*
%TD.AperFunction*%
%TA.AperFunction,Conductor*%
G36*
X125392443Y-44817813D02*
G01*
X125397203Y-44822174D01*
X127177826Y-46602797D01*
X127199218Y-46648673D01*
X127199500Y-46655123D01*
X127199500Y-53844876D01*
X127182187Y-53892442D01*
X127177826Y-53897202D01*
X125206335Y-55868692D01*
X125160459Y-55890084D01*
X125111564Y-55876983D01*
X125085642Y-55844684D01*
X125085044Y-55843241D01*
X125085044Y-55843238D01*
X125024536Y-55697159D01*
X125022212Y-55694130D01*
X124928284Y-55571720D01*
X124925415Y-55568851D01*
X124904023Y-55522975D01*
X124917124Y-55474080D01*
X124925409Y-55464205D01*
X125670472Y-54719142D01*
X125681676Y-54709947D01*
X125698624Y-54698624D01*
X125747616Y-54625304D01*
X125759516Y-54607494D01*
X125780897Y-54500000D01*
X125776922Y-54480014D01*
X125775500Y-54465578D01*
X125775500Y-51034420D01*
X125776922Y-51019983D01*
X125780897Y-51000000D01*
X125780897Y-50999999D01*
X125775500Y-50972867D01*
X125769484Y-50942624D01*
X125759515Y-50892505D01*
X125698624Y-50801376D01*
X125681679Y-50790053D01*
X125670470Y-50780854D01*
X125219145Y-50329529D01*
X125209942Y-50318314D01*
X125198626Y-50301378D01*
X125198624Y-50301376D01*
X125192335Y-50297174D01*
X125178644Y-50288025D01*
X125178641Y-50288023D01*
X125135975Y-50259515D01*
X125107495Y-50240485D01*
X125027133Y-50224500D01*
X125027132Y-50224500D01*
X125027130Y-50224499D01*
X125000001Y-50219103D01*
X125000000Y-50219103D01*
X124980017Y-50223078D01*
X124965580Y-50224500D01*
X123644768Y-50224500D01*
X123597202Y-50207187D01*
X123592442Y-50202826D01*
X122219145Y-48829529D01*
X122209942Y-48818314D01*
X122198626Y-48801378D01*
X122198624Y-48801376D01*
X122196108Y-48799695D01*
X122178644Y-48788025D01*
X122178641Y-48788023D01*
X122169701Y-48782049D01*
X122139182Y-48761658D01*
X122123338Y-48751071D01*
X122107496Y-48740485D01*
X122107497Y-48740485D01*
X122067314Y-48732492D01*
X122027133Y-48724500D01*
X122027132Y-48724500D01*
X122027130Y-48724499D01*
X122000001Y-48719103D01*
X122000000Y-48719103D01*
X121980017Y-48723078D01*
X121965580Y-48724500D01*
X121692109Y-48724500D01*
X121644543Y-48707187D01*
X121619233Y-48663350D01*
X121628023Y-48613500D01*
X121663790Y-48582133D01*
X121710403Y-48562825D01*
X121802841Y-48524536D01*
X121928282Y-48428282D01*
X122024536Y-48302841D01*
X122085044Y-48156762D01*
X122105682Y-48000000D01*
X122085044Y-47843238D01*
X122047255Y-47752007D01*
X122405210Y-47752007D01*
X122424346Y-48031785D01*
X122424349Y-48031805D01*
X122481404Y-48306367D01*
X122481409Y-48306385D01*
X122575319Y-48570623D01*
X122575321Y-48570628D01*
X122704347Y-48819635D01*
X122704352Y-48819642D01*
X122866071Y-49048747D01*
X122958364Y-49147568D01*
X123595376Y-48510555D01*
X123681931Y-48605501D01*
X123699383Y-48618680D01*
X123061276Y-49256788D01*
X123275043Y-49430701D01*
X123275051Y-49430707D01*
X123514654Y-49576413D01*
X123514669Y-49576421D01*
X123771891Y-49688147D01*
X124041942Y-49763812D01*
X124319771Y-49801999D01*
X124319783Y-49802000D01*
X124600217Y-49802000D01*
X124600228Y-49801999D01*
X124878057Y-49763812D01*
X125148108Y-49688147D01*
X125405330Y-49576421D01*
X125405345Y-49576413D01*
X125644948Y-49430707D01*
X125644965Y-49430695D01*
X125858722Y-49256789D01*
X125858723Y-49256789D01*
X125220615Y-48618681D01*
X125238069Y-48605501D01*
X125324622Y-48510556D01*
X125961635Y-49147569D01*
X125961635Y-49147568D01*
X126053922Y-49048755D01*
X126215647Y-48819642D01*
X126215652Y-48819635D01*
X126344678Y-48570628D01*
X126344680Y-48570623D01*
X126438590Y-48306385D01*
X126438595Y-48306367D01*
X126495650Y-48031805D01*
X126495653Y-48031785D01*
X126514790Y-47752007D01*
X126514790Y-47751992D01*
X126495653Y-47472214D01*
X126495650Y-47472194D01*
X126438595Y-47197632D01*
X126438590Y-47197614D01*
X126344680Y-46933376D01*
X126344678Y-46933371D01*
X126215652Y-46684364D01*
X126215647Y-46684357D01*
X126053925Y-46455248D01*
X125961634Y-46356430D01*
X125324621Y-46993442D01*
X125238069Y-46898499D01*
X125220614Y-46885317D01*
X125858722Y-46247210D01*
X125644956Y-46073298D01*
X125644948Y-46073292D01*
X125405345Y-45927586D01*
X125405330Y-45927578D01*
X125148108Y-45815852D01*
X124878057Y-45740187D01*
X124600228Y-45702000D01*
X124319771Y-45702000D01*
X124041942Y-45740187D01*
X123771891Y-45815852D01*
X123514669Y-45927578D01*
X123514654Y-45927586D01*
X123275051Y-46073292D01*
X123275035Y-46073303D01*
X123061275Y-46247209D01*
X123699384Y-46885318D01*
X123681931Y-46898499D01*
X123595377Y-46993443D01*
X122958364Y-46356430D01*
X122866074Y-46455249D01*
X122704352Y-46684357D01*
X122704347Y-46684364D01*
X122575321Y-46933371D01*
X122575319Y-46933376D01*
X122481409Y-47197614D01*
X122481404Y-47197632D01*
X122424349Y-47472194D01*
X122424346Y-47472214D01*
X122405210Y-47751992D01*
X122405210Y-47752007D01*
X122047255Y-47752007D01*
X122024536Y-47697159D01*
X121928282Y-47571718D01*
X121928279Y-47571715D01*
X121802841Y-47475464D01*
X121656761Y-47414955D01*
X121500000Y-47394318D01*
X121343239Y-47414955D01*
X121343238Y-47414955D01*
X121197158Y-47475464D01*
X121071720Y-47571715D01*
X121071715Y-47571720D01*
X120975464Y-47697158D01*
X120914955Y-47843238D01*
X120914955Y-47843239D01*
X120897890Y-47972867D01*
X120894318Y-48000000D01*
X120910574Y-48123480D01*
X120910578Y-48123505D01*
X120899622Y-48172924D01*
X120889537Y-48185490D01*
X119722203Y-49352826D01*
X119676327Y-49374218D01*
X119669877Y-49374500D01*
X117860064Y-49374500D01*
X117812498Y-49357187D01*
X117787188Y-49313350D01*
X117795978Y-49263500D01*
X117834755Y-49230963D01*
X117835623Y-49230653D01*
X117849520Y-49225790D01*
X117849522Y-49225789D01*
X118002262Y-49129816D01*
X118129816Y-49002262D01*
X118225789Y-48849522D01*
X118228808Y-48840896D01*
X118270034Y-48723078D01*
X118285368Y-48679255D01*
X118305565Y-48500000D01*
X118285368Y-48320745D01*
X118272989Y-48285367D01*
X118225790Y-48150479D01*
X118174003Y-48068061D01*
X118129816Y-47997738D01*
X118002262Y-47870184D01*
X117959378Y-47843238D01*
X117849520Y-47774209D01*
X117679263Y-47714634D01*
X117679256Y-47714632D01*
X117679255Y-47714632D01*
X117500000Y-47694435D01*
X117320745Y-47714632D01*
X117320736Y-47714634D01*
X117150479Y-47774209D01*
X116997739Y-47870183D01*
X116870183Y-47997739D01*
X116774209Y-48150479D01*
X116714634Y-48320736D01*
X116714632Y-48320745D01*
X116694435Y-48500000D01*
X116709797Y-48636347D01*
X116714632Y-48679254D01*
X116714634Y-48679263D01*
X116774209Y-48849520D01*
X116801179Y-48892442D01*
X116870184Y-49002262D01*
X116997738Y-49129816D01*
X117047262Y-49160934D01*
X117150479Y-49225790D01*
X117164377Y-49230653D01*
X117203556Y-49262704D01*
X117212966Y-49312441D01*
X117188205Y-49356590D01*
X117140858Y-49374494D01*
X117139936Y-49374500D01*
X114605587Y-49374500D01*
X114558021Y-49357187D01*
X114532711Y-49313350D01*
X114537220Y-49272182D01*
X114585027Y-49156764D01*
X114585028Y-49156762D01*
X114605666Y-49000000D01*
X114589405Y-48876489D01*
X114600361Y-48827073D01*
X114610441Y-48814512D01*
X118602781Y-44822174D01*
X118648657Y-44800782D01*
X118655107Y-44800500D01*
X125344877Y-44800500D01*
X125392443Y-44817813D01*
G37*
%TD.AperFunction*%
%TA.AperFunction,Conductor*%
G36*
X112706536Y-50292813D02*
G01*
X112731846Y-50336650D01*
X112723056Y-50386500D01*
X112711296Y-50401826D01*
X108910296Y-54202826D01*
X108864420Y-54224218D01*
X108857970Y-54224500D01*
X108338856Y-54224500D01*
X108291290Y-54207187D01*
X108265980Y-54163350D01*
X108274770Y-54113500D01*
X108280148Y-54105452D01*
X108306031Y-54071720D01*
X108349536Y-54015023D01*
X108410044Y-53868944D01*
X108430682Y-53712182D01*
X108410044Y-53555420D01*
X108349536Y-53409341D01*
X108313957Y-53362974D01*
X108253284Y-53283902D01*
X108253279Y-53283897D01*
X108129452Y-53188882D01*
X108102254Y-53146191D01*
X108100500Y-53130174D01*
X108100500Y-51819768D01*
X108117813Y-51772202D01*
X108122174Y-51767442D01*
X109592442Y-50297174D01*
X109638318Y-50275782D01*
X109644768Y-50275500D01*
X112658970Y-50275500D01*
X112706536Y-50292813D01*
G37*
%TD.AperFunction*%
%TD*%
M02*
